<?xml version="1.0" encoding="utf-8"?>
<!-- Generator: Adobe Illustrator 22.1.0, SVG Export Plug-In . SVG Version: 6.00 Build 0)  -->
<svg version="1.1" id="Layer_1" xmlns="http://www.w3.org/2000/svg" xmlns:xlink="http://www.w3.org/1999/xlink" x="0px" y="0px"
	 viewBox="0 0 317 327" style="enable-background:new 0 0 317 327;" xml:space="preserve">
<style type="text/css">
	.st0{fill:#A5CAFA;}
	.st1{fill:#1177D0;}
	.st2{fill:#325ADA;}
	.st3{fill:#FF9C6E;}
	.st4{fill:#212D50;}
	.st5{fill:#6C757D;}
	.st6{fill:#6610EF;}
	.st7{fill:#6536CA;}
	.st8{fill:#FAA76C;}
	.st9{fill:#F09A82;}
	.st10{fill:#1856C3;}
	.st11{fill:#71B1FC;}
	.st12{fill:#9B6FEF;}
	.st13{fill:#F8F9FA;}
	.st14{fill:#EEEEEE;}
	.st15{fill-rule:evenodd;clip-rule:evenodd;fill:#F5BD5C;}
	.st16{fill-rule:evenodd;clip-rule:evenodd;fill:#B3D1DB;}
	.st17{fill-rule:evenodd;clip-rule:evenodd;fill:#73C4B8;}
	.st18{fill-rule:evenodd;clip-rule:evenodd;fill:#DE614A;}
	.st19{fill-rule:evenodd;clip-rule:evenodd;fill:#C9C729;}
	.st20{fill-rule:evenodd;clip-rule:evenodd;fill:#ACB8DE;}
	.st21{fill:#DE614A;}
	.st22{fill:url(#);}
	.st23{clip-path:url(#SVGID_2_);}
	.st24{fill:#FFD7E1;stroke:#FFFFFF;stroke-width:0.5;stroke-miterlimit:10;}
	.st25{fill:#745DCC;stroke:#FFFFFF;stroke-width:0.5;stroke-miterlimit:10;}
	.st26{fill:#FF9CAF;stroke:#FFFFFF;stroke-width:0.5;stroke-miterlimit:10;}
	.st27{fill:#CC6981;stroke:#FFFFFF;stroke-width:0.5;stroke-miterlimit:10;}
	.st28{fill:#F4CBD6;stroke:#FFFFFF;stroke-width:0.5;stroke-miterlimit:10;}
	.st29{fill:#473D84;stroke:#FFFFFF;stroke-width:0.5;stroke-miterlimit:10;}
	.st30{fill:#433D7A;stroke:#FFFFFF;stroke-width:0.5;stroke-miterlimit:10;}
	.st31{fill:#F74D6A;stroke:#FFFFFF;stroke-width:0.5;stroke-miterlimit:10;}
	.st32{fill:#CC3F5E;stroke:#FFFFFF;stroke-width:0.5;stroke-miterlimit:10;}
	.st33{fill:#FFFFFF;stroke:#FFFFFF;stroke-width:0.5;stroke-miterlimit:10;}
	.st34{fill:#6455BF;stroke:#FFFFFF;stroke-width:0.5;stroke-miterlimit:10;}
	.st35{fill:#FFFFFF;}
	.st36{fill:#AABFAD;}
</style>
<g>
	<path class="st12" d="M31.9332,49.683c2.9678,10.6525,5.9355,21.3051,8.9033,31.9576c1.8526,6.6496,3.7213,13.4277,3.4794,20.3263
		c-0.4071,11.6065-6.7556,22.5698-6.1081,34.1655c0.5279,9.454,5.6169,17.9433,8.9334,26.8123
		c3.9207,10.4846,5.3983,21.6968,6.8485,32.7961c0.7234,5.5369,1.447,11.155,0.6679,16.6843
		c-0.6612,4.693-2.3842,9.1627-4.148,13.5616C37.2177,259.1365,20.85,291.0522,1.6851,321.1901
		c14.8799-39.0369,8.7858-82.9233-2.5649-123.1284c-2.3465-8.3116-4.9293-16.6983-5.0178-25.3343
		c-0.0694-6.7678,1.4004-13.4513,3.0425-20.0173c4.2554-17.0153,9.7238-33.7271,16.3499-49.9666
		c3.6329-8.9035,7.6196-17.6825,10.5264-26.8487c3.9775-12.5426,5.8882-25.738,5.6316-38.8937"/>
</g>
<g>
	<path class="st9" d="M29.9417,35.8578C18.5594,47.133,11.2194,61.7873,1.3287,74.3914
		c-12.4321,15.8427-28.9815,28.5672-38.7076,46.2011c-14.3745,26.0617-11.2225,58.8425,0.3867,86.2479
		c6.2467,14.7463,14.7267,28.4473,21.3136,43.0448c10.5101,23.2921,16.0833,48.7978,16.2464,74.3509
		c7.6459-3.8524,10.6759-13.0241,12.827-21.3111c7.0095-27.0038,12.4008-55.3279,6.8542-82.6698
		c-3.8903-19.1774-13.0614-37.2477-14.5321-56.7604c-1.6232-21.5368,6.2636-42.5031,13.493-62.8551s14.0129-41.9669,10.1395-63.2146
		"/>
</g>
<g>
	<path class="st0" d="M148.6481,70.5171c-19.2574,9.5331-37.6361,21.0459-53.6896,35.3293
		c-10.6393,9.4662-20.1867,20.08-29.7092,30.669c-8.1781,9.094-16.3785,18.2157-23.4036,28.2272
		c-15.1402,21.5764-24.4497,46.8019-30.2571,72.5126s-8.249,52.0449-10.6769,78.2913c1.8955,0.0768,3.3441-1.614,4.3983-3.1913
		c12.3329-18.4519,13.3441-41.9828,20.3048-63.057c6.7896-20.5563,19.5766-39.0923,36.382-52.7392
		c12.4769-10.132,26.9183-17.4937,40.5952-25.9361c13.6769-8.4424,26.9801-18.3565,35.5023-31.9839
		c12.2374-19.5683,13.0264-44.3768,8.7629-67.0593"/>
</g>
<g>
	<path class="st8" d="M177.7026,160.5329c-15.2657,24.9446-33.7683,47.9058-54.8972,68.1258
		c-5.3118,5.0833-10.9004,10.0694-17.573,13.1566c-4.8777,2.2567-10.174,3.4229-15.2991,5.0409
		c-6.2802,1.9826-12.3586,4.6706-17.887,8.2494c-13.2514,8.5783-22.6858,21.7521-33.0003,33.7019
		c-10.3145,11.9498-22.7057,23.4188-38.1995,26.4403c7.2613-7.8091,14.5936-15.7144,19.8197-25.0094
		c4.5242-8.0467,7.3447-16.9151,10.8991-25.4347c11.111-26.6328,29.7209-50.0899,53.1288-66.967
		c5.4258-3.912,11.1135-7.4836,17.1415-10.3831c5.781-2.7806,11.8416-4.9282,17.8884-7.0701
		c7.9607-2.8198,15.9213-5.6397,23.882-8.4595c11.3219-4.0104,22.6613-8.0263,34.2905-11.0314"/>
</g>
<g>
	<path class="st6" d="M259.6924,250.1909c-9.1196-0.9674-18.2393-1.9349-27.3589-2.9023
		c-16.0156-1.699-32.117-3.4004-48.1958-2.4745c-31.5578,1.8172-62.6803,13.7111-94.0216,9.5975
		c-8.2134-1.078-16.3019-3.2514-24.5813-3.5236c-17.7027-0.5819-35.1725,7.9836-46.6885,21.4411
		c-11.516,13.4575-17.24,31.3973-17.1482,49.1093c9.9394-11.8637,20.3746-24.1112,34.4926-30.4532
		c17.7913-7.9921,38.2747-5.3035,57.7082-3.6474c12.6174,1.0753,25.2777,1.6471,37.9407,1.7137
		c6.7626,0.0356,13.5841-0.0794,20.1828-1.5594c7.4231-1.6649,14.3432-5.0049,21.2789-8.1308
		c27.5655-12.4235,56.4866-21.8364,86.0838-28.0174"/>
</g>
<g>
	<path class="st0" d="M259.7193,251.4122c-16.3616,15.576-34.4904,36.6024-53.0893,49.424
		c-5.5197,3.8052-11.2846,7.3851-17.6382,9.5249c-21.8752,7.3676-45.5236-3.4461-68.6005-2.9367
		c-18.5548,0.4096-36.2915,8.1661-54.8238,9.1672c-10.7905,0.5828-21.5671-1.1418-32.3709-1.3703s-22.1351,1.2297-31.0035,7.4043
		c2.1192-7.8044,7.5654-19.1248,14.2309-23.7042c24.094-16.5531,43.7754-21.9954,72.8163-25.3341
		c28.3008-3.2537,67.2838,0.8527,93.736-9.7209c6.603-2.6394,12.832-6.2285,19.6287-8.319
		c7.8714-2.4211,16.2118-2.7457,24.4414-3.0523C237.9797,252.0877,249.0481,248.9982,259.7193,251.4122"/>
</g>
</svg>
