<?xml version="1.0" encoding="utf-8"?>
<!-- Generator: Adobe Illustrator 23.0.1, SVG Export Plug-In . SVG Version: 6.00 Build 0)  -->
<svg version="1.1" id="Layer_1" xmlns="http://www.w3.org/2000/svg" xmlns:xlink="http://www.w3.org/1999/xlink" x="0px" y="0px"
	 viewBox="0 0 88.207 72.9957" style="enable-background:new 0 0 88.207 72.9957;" xml:space="preserve">
<g>
	<g>
		<path style="fill:#F09A82;" d="M66.5614,12.0007c-0.445,7.6307-0.8962,15.3059-2.6386,22.7483
			c-1.7424,7.4424-4.86,14.7131-10.0431,20.331c-3.1907,3.4584-7.1216,6.2305-11.4506,8.0749
			c-0.7364,0.3137-1.5269,0.6064-2.3186,0.4886c-2.1145-0.3147-2.7159-3.037-2.82-5.1722
			c-0.1818-3.7274-0.3636-7.4547-0.5454-11.1821c-1.4233,5.2489-3.2882,11.0709-8.1037,13.5983
			c-3.7164,1.9505-8.2925,1.3517-12.2066-0.1635c-0.6735-0.2607-1.4188-0.638-1.591-1.3394
			c-0.1243-0.5063,0.0963-1.0274,0.3213-1.4977c2.663-5.5661,6.6951-10.471,11.6408-14.1606
			c-4.8805,4.4321-13.3614,4.0075-17.7749-0.8898c-1.9342-2.1462-3.0912-5.3249-1.9147-7.9637
			c0.6272-1.4067,1.8274-2.4766,3.095-3.3514c3.3614-2.3197,7.4545-3.5619,11.5382-3.5016
			c-4.4733-1.3335-8.9466-2.667-13.4199-4.0005c-0.4105-0.1224-0.8559-0.2702-1.0856-0.6317
			c-0.2223-0.3498-0.1782-0.8006-0.11-1.2094c1.1846-7.1018,7.2495-12.6518,14.0295-15.0747s14.1984-2.224,21.3664-1.5464
			c7.8105,0.7384,15.6649,2.0368,22.861,5.1617"/>
	</g>
	<g>
		<path style="fill:#6610EF;" d="M27.5893,33.6036c3.6078-3.0772,7.1707-6.1699,10.8896-9.12
			c3.717-2.9438,7.4849-5.8895,11.4534-8.6457c3.9669-2.7492,8.2297-5.1395,12.7756-6.8248
			c1.1388-0.4123,2.2877-0.8002,3.4536-1.1295c1.1761-0.2997,2.3673-0.5467,3.5684-0.7388
			c1.2109-0.1596,2.4352-0.2531,3.6661-0.2774c1.2429,0.0224,2.4895,0.0952,3.7581,0.3502
			c1.0197,0.2049,1.6802,1.1976,1.4752,2.2173c-0.0912,0.4537-0.3383,0.8362-0.6743,1.1031l-0.0657,0.052
			c-0.998,0.7914-2.0181,1.4007-3.0419,1.9596c-1.0154,0.5916-2.0375,1.1141-3.0728,1.5705
			c-1.0225,0.5018-2.0548,0.9489-3.1021,1.3432c-1.0321,0.4413-2.0813,0.8237-3.1406,1.1822
			c-4.1925,1.548-8.4456,2.9913-12.6987,4.6286c-4.2517,1.6304-8.4088,3.6245-12.2505,6.1286
			c-3.8396,2.4978-7.4696,5.3612-10.6156,8.7029c-0.6544,0.6951-1.7483,0.728-2.4434,0.0737s-0.728-1.7483-0.0737-2.4434
			C27.4935,33.6899,27.5425,33.6437,27.5893,33.6036z"/>
	</g>
</g>
</svg>
