<?xml version="1.0" encoding="utf-8"?>
<!-- Generator: Adobe Illustrator 23.0.1, SVG Export Plug-In . SVG Version: 6.00 Build 0)  -->
<svg version="1.1" id="Layer_1" xmlns="http://www.w3.org/2000/svg" xmlns:xlink="http://www.w3.org/1999/xlink" x="0px" y="0px"
	 viewBox="0 0 73.3292 70.341" style="enable-background:new 0 0 73.3292 70.341;" xml:space="preserve">
<g>
	<g>
		<path style="fill:#9B6FEF;" d="M56.542,8.4145c-4.4771-1.2534-9.181-1.6922-13.8127-1.2885
			c-3.7015,0.3226-7.3365,1.1756-10.9205,2.1552c-4.0101,1.0961-8.0203,2.3737-11.5769,4.526s-6.6602,5.2691-8.1087,9.1657
			c-0.2004,0.539-0.3633,1.1615-0.0936,1.6694c0.2164,0.4075,0.6579,0.6346,1.0755,0.831c2.6101,1.2273,5.3277,2.2258,8.1115,2.9804
			c-5.2148,0.0292-10.2908,3.1897-12.6182,7.8564c-0.3031,0.6078-0.5663,1.2531-0.6023,1.9314
			c-0.0396,0.7465,0.1999,1.4838,0.5372,2.1509c1.7258,3.4138,6.3184,5.0291,9.8013,3.4474
			c-1.7179,2.002-2.8211,4.5243-3.125,7.1447c-0.2626,2.264,0.129,4.7272,1.6492,6.4253c2.0667,2.3084,5.7975,2.5695,8.5651,1.1766
			c2.7675-1.393,4.6635-4.1085,5.8347-6.9769c1.1712-2.8684,1.7233-5.9439,2.5224-8.9374c1.0684,2.9156,2.2578,5.7868,3.5643,8.6038
			c0.485,1.0458,1.1675,2.2211,2.3122,2.3579c0.6944,0.083,1.3652-0.257,1.9591-0.6262c3.2479-2.0187,5.6308-5.1401,7.9027-8.2162
			c2.0373-2.7585,4.0551-5.5509,5.6278-8.5983c4.3629-8.4541,4.9953-18.7514,1.6996-27.6759"/>
	</g>
	<g>
		<path style="fill:#6610EF;" d="M27.304,32.326c3.3762-1.3217,6.5007-3.2198,9.4001-5.379
			c2.9164-2.1446,5.4769-4.7534,7.7965-7.4982c2.3151-2.7589,4.4995-5.5287,6.8083-8.163c0.5574-0.6768,1.1337-1.3354,1.7587-1.9572
			c0.5933-0.6474,1.2302-1.2619,1.9148-1.8476c0.6536-0.6089,1.3641-1.1818,2.1367-1.7237
			c0.7521-0.5565,1.5499-1.0915,2.5099-1.5409l0.0831-0.0389c0.9866-0.4619,2.1608-0.0365,2.6226,0.95
			c0.1475,0.315,0.2035,0.6578,0.1807,0.9818c-0.0796,1.0762-0.3214,2.0667-0.609,3.0358
			c-0.3199,0.9462-0.7023,1.8612-1.1414,2.7403c-0.4594,0.8633-0.9663,1.6977-1.5172,2.4992
			c-0.5684,0.7867-1.1854,1.5366-1.8215,2.2682c-2.5615,2.9169-5.6284,5.3633-8.8904,7.445
			c-3.2574,2.0958-6.5996,3.9524-9.8583,5.858c-3.2755,1.8909-6.5985,3.6281-9.8877,5.4857
			c-0.8307,0.4723-1.8871,0.1818-2.3594-0.649c-0.4724-0.8307-0.1819-1.8871,0.6489-2.3594
			C27.1484,32.3939,27.2326,32.3548,27.304,32.326z"/>
	</g>
</g>
</svg>
