<?xml version="1.0" encoding="utf-8"?>
<!-- Generator: Adobe Illustrator 22.1.0, SVG Export Plug-In . SVG Version: 6.00 Build 0)  -->
<svg version="1.1" id="Layer_1" xmlns="http://www.w3.org/2000/svg" xmlns:xlink="http://www.w3.org/1999/xlink" x="0px" y="0px"
	 viewBox="0 0 290 325" style="enable-background:new 0 0 290 325;" xml:space="preserve">
<g>
	<g>
		<path style="fill:#9B6FEF;" d="M1.9986,299.6794c4.4309-10.4287,8.8618-20.8575,13.2926-31.2862
			c2.7659-6.5099,5.5653-13.1482,6.2362-20.1894c1.1287-11.8465-3.8645-23.829-1.6657-35.5242
			c1.7927-9.5352,8.0912-17.4842,12.6394-26.0545c5.3767-10.1314,8.3679-21.3268,11.3163-32.4111
			c1.4708-5.5294,2.9525-11.1413,2.8957-16.8627c-0.0482-4.856-1.2047-9.6262-2.4122-14.33
			C35.2015,87.5745,22.8129,52.9727,7.3461,19.8056c9.9306,41.6393-2.093,85.4185-18.9682,124.7591
			c-3.4886,8.1328-7.2272,16.3106-8.4648,25.0731c-0.9699,6.867-0.3647,13.8528,0.4312,20.7421
			c2.0624,17.8532,5.3975,35.5593,9.9718,52.9393c2.5079,9.5288,5.3918,18.9782,7.1271,28.6775
			c2.3745,13.272,2.5622,26.9326,0.5532,40.2648"/>
	</g>
	<g>
		<path style="fill:#F09A82;" d="M6.7141,304.1888c15.777,4.5378,32.5536,3.7703,48.7727,6.3094
			c20.3867,3.1916,40.0447,11.6248,60.6793,11.5004c30.4965-0.1839,58.2335-19.4019,76.9327-43.4937
			c10.0616-12.9633,18.0712-27.4007,27.8296-40.5937c15.5707-21.051,35.5907-38.7947,58.3597-51.7241
			c-7.2701-4.91-16.9875-3.0312-25.4742-0.809c-27.6545,7.2412-55.6801,16.5901-77.3554,35.2285
			c-15.2029,13.0729-26.774,30.3142-43.4873,41.3911c-18.447,12.2259-41.1414,15.6622-62.9577,19.379
			s-44.5387,8.4642-61.6014,22.5577"/>
	</g>
	<g>
		<path style="fill:#A5CAFA;" d="M188.3521,84.0565c-21.0302,6.5204-41.4927,15.1862-60.0521,27.0325
			c-12.3001,7.851-23.6817,17.0403-35.0341,26.2084c-9.7497,7.8738-19.5263,15.772-28.2583,24.7612
			c-18.8188,19.373-32.3305,43.3841-42.3778,68.4543S5.8394,281.8302-0.8757,307.9907c1.9053,0.3853,3.6452-1.0904,4.9677-2.515
			c15.4716-16.6674,20.3127-40.3104,30.7745-60.5025c10.2047-19.6959,26.1494-36.3746,45.3663-47.455
			c14.2674-8.2265,30.0727-13.3313,45.2799-19.6537c15.2073-6.3223,30.2752-14.1943,41.1085-26.5988
			c15.5561-17.8123,20.3796-42.784,19.7465-66.4245"/>
	</g>
	<g>
		<path style="fill:#FAA76C;" d="M203.1421,179.843c-19.4923,22.7605-41.9377,42.989-66.5953,60.018
			c-6.1989,4.2811-12.6621,8.4189-19.914,10.4597c-5.3011,1.4918-10.8488,1.8123-16.2965,2.6177
			c-6.6756,0.9869-13.2615,2.7202-19.4355,5.444c-14.7988,6.5288-26.4814,18.3265-38.8559,28.743s-26.772,20.0095-42.9379,20.5526
			c8.6136-6.7226,17.3147-13.5309,24.1102-22.0871c5.8829-7.4071,10.1755-15.9219,15.1539-23.9648
			c15.5628-25.1426,38.1971-45.8555,64.6181-59.1326c6.1242-3.0776,12.4583-5.7682,19.0274-7.7236
			c6.3-1.8753,12.7802-3.0647,19.2455-4.2506c8.5116-1.5613,17.0233-3.1225,25.5349-4.6838
			c12.1055-2.2205,24.2296-4.4436,36.4828-5.597"/>
	</g>
</g>
</svg>
