<?xml version="1.0" encoding="utf-8"?>
<!-- Generator: Adobe Illustrator 23.0.1, SVG Export Plug-In . SVG Version: 6.00 Build 0)  -->
<svg version="1.1" xmlns="http://www.w3.org/2000/svg" xmlns:xlink="http://www.w3.org/1999/xlink" x="0px" y="0px"
	 viewBox="0 0 1776.1821 348.6426" style="enable-background:new 0 0 1776.1821 348.6426;" xml:space="preserve">
<style type="text/css">
	.st0{fill:#1856C2;}
	.st1{fill:#F09A82;}
	.st2{fill:#6536C9;}
	.st3{fill:#A5CAFA;}
	.st4{fill:#6610EF;}
	.st5{fill:#71B1FC;}
	.st6{fill:#FF9C6E;}
	.st7{fill:#325AD9;}
	.st8{fill:#325ADA;}
	.st9{fill:#9A6FEE;}
	.st10{fill:#FAA76C;}
</style>
<g id="Layer_1">
	<g>
		<path class="st0" d="M610.298,114.4479c-11.0602-10.0386-22.1204-20.0771-33.1807-30.1156
			c-6.9041-6.2663-13.9192-12.6679-18.6086-20.7265c-7.8898-13.5583-8.5261-30.6584-17.6134-43.4451
			c-7.4089-10.4251-19.3363-16.4643-29.5111-24.2133c-12.0284-9.1606-21.7884-20.9115-31.4358-32.5531
			c-4.8126-5.8074-9.6839-11.7075-12.7738-18.5879c-2.6226-5.8397-3.8709-12.1884-5.0217-18.4857
			c-8.6719-47.4555-12.9399-95.7149-12.7311-143.9559c11.0947,55.3272,49.6518,101.0986,91.5668,138.8786
			c8.665,7.8102,17.6542,15.5363,23.9722,25.3427c4.9512,7.6851,8.0825,16.3818,10.9323,25.0682
			c7.3851,22.5102,13.1654,45.5469,17.2824,68.8771c2.2572,12.791,4.0205,25.6946,7.2966,38.2633
			c4.483,17.1983,11.7982,33.655,21.5617,48.506"/>
	</g>
	<g>
		<path class="st1" d="M622.5263,128.8154c4.8925-21.0803,2.7323-43.1127,4.9633-64.638
			c2.8043-27.0563,12.5589-53.5125,10.981-80.6679c-2.332-40.1338-29.532-75.3304-62.5286-98.2954
			c-17.7547-12.3569-37.3094-21.9116-55.3458-33.8536c-28.7792-19.0551-53.5095-44.1939-72.0905-73.2814
			c-5.9654,9.907-2.8261,22.5705,0.6808,33.5903c11.4277,35.9089,25.6554,72.1618,51.6769,99.4183
			c18.2513,19.1176,41.7413,33.1685,57.4686,54.4111c17.3586,23.4462,23.4376,53.0863,29.8256,81.551
			s14.1949,58.0518,33.9172,79.5478"/>
	</g>
	<g>
		<path class="st2" d="M1458.3878-105.6866c12.8167,44.5386,16.9269,94.1536-3.2468,135.8786
			c-19.646,40.6333-60.88,71.2112-67.854,115.8026c-1.9104-12.0102-12.6249-20.5996-17.2747-31.8369
			c-3.7468-9.0549-3.3245-19.2394-2.4324-28.9982c3.199-34.9909,12.1191-70.44,32.8922-98.7785
			c10.8278-14.7711,24.5376-27.1683,36.3236-41.1868c11.7859-14.0184,21.9131-30.4691,23.4275-48.721"/>
	</g>
	<g>
		<path class="st3" d="M1304.2308,81.6307c5.9277-17.5477,10.0292-35.6557,15.4064-53.3798
			c10.2711-33.8549,25.6919-66.972,50.6094-92.0872c24.9174-25.1152,60.4491-41.3268,95.5664-37.035
			c-10.4939,20.4343-21.0184,40.9208-33.7827,60.0195c-34.5861,51.7503-84.1635,91.3179-132.9209,130.009"/>
	</g>
	<g>
		<g>
			<path class="st1" d="M1619.4232-23.5881c-3.9429,16.9297-7.9171,33.9569-14.6951,49.9637
				c-6.778,16.0069-16.5718,31.0982-30.3564,41.6879c-8.4858,6.5191-18.3658,11.2143-28.7795,13.6768
				c-1.7715,0.4189-3.6561,0.7697-5.385,0.2c-4.6174-1.5216-4.9142-7.8548-4.3234-12.6804
				c1.0315-8.4237,2.063-16.8476,3.0944-25.2713c-5.2162,11.2141-11.6432,23.5422-23.4111,27.3475
				c-9.0819,2.9368-19.1063-0.1718-27.2936-5.0786c-1.4086-0.8443-2.9335-1.9776-3.0486-3.6159
				c-0.0831-1.1827,0.6124-2.2653,1.2982-3.2325c8.1168-11.4465,19.0469-20.8825,31.5553-27.2422
				c-12.6489,8.0489-31.4919,3.8235-39.4928-8.8559c-3.5062-5.5565-4.8722-13.1271-1.2168-18.5868
				c1.9486-2.9105,5.0515-4.8449,8.2301-6.3162c8.4288-3.9013,18.0818-5.1051,27.2106-3.3933
				c-9.5105-4.7154-19.021-9.4309-28.5316-14.1463c-0.8727-0.4327-1.8138-0.9359-2.1891-1.8348
				c-0.3632-0.8697-0.0903-1.863,0.2202-2.7529c5.3965-15.459,21.1312-25.5559,37.2616-28.3688
				c16.1304-2.8129,32.6792,0.4967,48.4822,4.7826c17.2194,4.6699,34.321,10.6119,49.2422,20.3934"/>
		</g>
		<g>
			<path class="st4" d="M1505.031,11.7108c8.9979-5.7315,18.1949-11.128,27.6968-15.9905
				c9.4994-4.8572,19.23-9.3298,29.2471-13.1971c10.0131-3.867,20.3784-6.9366,30.9653-8.9181
				c2.6522-0.4578,5.3103-0.8915,7.9749-1.2688c2.6771-0.2951,5.3593-0.5393,8.0424-0.7317
				c2.6931-0.1067,5.3881-0.1509,8.0779-0.1304c2.6995,0.1413,5.3907,0.2741,8.0765,0.6243
				c0.8921,0.1164,1.5211,0.9341,1.4049,1.8263c-0.0881,0.6776-0.5809,1.2034-1.2037,1.3662l-0.0599,0.0152
				c-2.6008,0.6774-5.1968,1.1376-7.7844,1.6063c-2.5818,0.5337-5.1591,1.003-7.7382,1.4096
				c-2.5681,0.5046-5.1367,0.9573-7.7103,1.3595c-2.5596,0.5011-5.125,0.9455-7.6963,1.3664
				c-10.2455,1.8917-20.4454,4.1262-30.548,6.9168c-10.099,2.7905-20.0361,6.3293-29.5802,10.7638
				c-9.5411,4.4289-18.7634,9.6046-27.3798,15.6515c-0.7261,0.5095-1.7277,0.334-2.2371-0.392
				c-0.5094-0.726-0.3339-1.7275,0.392-2.237C1504.9888,11.7383,1505.0126,11.7225,1505.031,11.7108z"/>
		</g>
		<g>
			<g>
				<path class="st5" d="M1528.7753,196.1155c-7.4392,1.1386-14.6592-4.5744-17.3671-11.5961
					c-2.7079-7.0217-1.7999-14.9197,0.0657-22.2105c0.9934-3.8823,2.3236-7.834,5.0582-10.7633
					c5.7258-6.1333,16.348-5.6171,22.8667-0.3342c6.5186,5.2829,9.3624,14.0495,9.535,22.4382
					c0.1031,5.0183-0.6577,10.1358-2.9032,14.6248c-2.2455,4.4891-6.0874,8.3012-10.8582,9.8607"/>
			</g>
			<g>
				<path class="st5" d="M1573.845,162.2451c-4.2764-0.8054-8.5348-2.0084-12.2874-4.2117
					c-3.7527-2.2033-6.9858-5.4905-8.5026-9.5692c-1.2993-3.4936-1.2805-7.332-0.9835-11.0475
					c0.3357-4.1997,1.0698-8.5386,3.4856-11.9903c3.7748-5.3936,11.3284-7.4788,17.6193-5.5385
					c6.2908,1.9403,11.1582,7.414,13.1987,13.6731c2.0404,6.259,1.4666,13.1758-0.7196,19.3855
					c-1.4127,4.0131-3.64,7.9644-7.2705,10.1824"/>
			</g>
			<g>
				<path class="st5" d="M1649.8092,85.2091c-5.4609,1.2992-11.3771-1.1904-15.0964-5.3949
					c-3.7192-4.2044-5.4623-9.864-5.8895-15.4611c-0.4271-5.5971,0.3572-11.208,1.1395-16.7665
					c0.4771-3.3884,1.3046-7.2903,4.3608-8.8291c1.1542-0.5811,2.4761-0.7227,3.7671-0.7767
					c6.3536-0.2657,12.7756,1.4129,18.1868,4.7534c1.8757,1.1581,3.6588,2.538,4.9337,4.3365
					c2.3538,3.3207,2.7048,7.6286,2.7441,11.6987c0.0413,4.2792-0.1735,8.5609-0.6427,12.8145
					c-0.3522,3.1928-0.875,6.4515-2.4564,9.2473c-1.5815,2.7958-4.4318,5.0711-7.6431,5.1372"/>
			</g>
			<g>
				<path class="st5" d="M1470.7548,160.7705c-5.4447-1.5998-10.2639-5.5002-12.5648-10.6877s-1.8776-11.5965,1.4396-16.201
					c1.5355-2.1314,3.605-3.8282,5.807-5.2605c8.8649-5.7657,20.9969-7.2245,30.0266-1.7204
					c2.4266,1.4792,4.6052,3.4471,6.0114,5.9169c1.0601,1.862,1.6566,3.9636,1.9285,6.0889
					c0.9867,7.713-2.5519,15.8394-8.8705,20.3714c-6.3187,4.5321-15.1506,5.2782-22.14,1.8706"/>
			</g>
			<g>
				<path class="st5" d="M1514.9552,118.2206c-6.5685-0.648-13.0146-3.3592-17.6627-8.0455s-7.343-11.405-6.6438-17.9682
					s4.9957-12.7593,11.1229-15.2132c3.098-1.2408,6.5117-1.5295,9.8413-1.3047c8.2954,0.56,16.7007,4.6974,20.6633,12.0065
					c3.2366,5.9697,3.1106,13.5289,0.0527,19.5921c-3.0581,6.0631-8.8629,10.5766-15.3829,12.4746"/>
			</g>
			<g>
				<path class="st5" d="M1594.4418,42.8731c-5.877-0.6933-11.8639-1.4166-17.2478-3.8729
					c-5.3839-2.4563-10.1658-6.9726-11.4053-12.759c-0.5024-2.3455-0.407-4.7765-0.1935-7.1657
					c0.2217-2.4824,0.5802-4.9954,1.6167-7.2619c3.1952-6.9863,11.7311-9.6779,19.3901-10.2744
					c7.9999-0.623,16.8573,0.5488,22.3795,6.3702c4.9038,5.1696,6.0428,13.3149,3.4702,19.9596
					c-2.5728,6.6447-8.4711,11.7193-15.1906,14.0902"/>
			</g>
			<g>
				<path class="st5" d="M1563.5905,74.825c-8.2671,3.4532-18.1886,3.6477-25.9027-0.9089
					c-7.7141-4.5565-12.4512-14.3237-9.8694-22.9031c0.5284-1.7557,1.3431-3.4422,2.5264-4.8429
					c1.8356-2.1731,4.4397-3.5394,7.0521-4.6654c8.0255-3.4594,17.6715-5.0243,25.269-0.7052
					c5.5526,3.1566,9.2438,9.3544,9.3743,15.7402c0.1304,6.3858-3.3044,12.7292-8.7235,16.11"/>
			</g>
			<g>
				<path class="st5" d="M1609.7932,125.2479c-6.9741-0.9277-13.5105-4.7877-17.6908-10.4467
					c-1.2534-1.697-2.3171-3.5862-2.7181-5.6575c-0.2947-1.5223-0.2223-3.0886-0.1476-4.6373
					c0.2797-5.7986,0.7332-12.0233,4.3809-16.5395c2.7598-3.4167,7.0206-5.3445,11.3345-6.1696
					c2.468-0.472,5.0779-0.6108,7.4446,0.2331c2.6787,0.9551,4.767,3.0558,6.6951,5.1461
					c3.1326,3.3961,6.1968,7.1105,7.3256,11.5907c0.8352,3.3153,0.543,6.7979,0.2185,10.2014
					c-0.3865,4.0547-0.8544,8.2436-2.8944,11.7689c-2.0402,3.5252-6.0944,6.2188-10.0822,5.3897"/>
			</g>
			<g>
				<g>
					<path class="st6" d="M1525.0569,141.3075c19.1958-22.0955,44.1388-38.146,63.8508-59.7436
						c19.9845-21.8962,38.4513-45.8677,55.0614-70.4089c9.6351-14.2355,18.4473-29.0074,26.077-44.4164
						c2.7395-5.5328-5.5593-10.4148-8.3108-4.8578c-13.2217,26.7028-30.0421,51.3969-48.2866,74.8958
						c-9.187,11.8328-18.567,23.5966-28.5006,34.8144c-9.5308,10.763-20.1091,20.3297-31.0531,29.6231
						c-12.4078,10.5363-24.9385,20.965-35.6438,33.2876C1514.2058,139.1582,1520.9856,145.9939,1525.0569,141.3075
						L1525.0569,141.3075z"/>
				</g>
			</g>
		</g>
		<g>
			<g>
				<path class="st7" d="M1720.4603-21.6054c-13.0862,2.5908-25.6975,7.561-37.0328,14.5947
					c-9.0586,5.621-17.2601,12.5136-25.167,19.6646c-8.8468,8.001-17.4587,16.467-23.7765,26.5847
					c-6.3179,10.1176-10.226,22.1179-8.8866,33.9706c0.1853,1.6396,0.5745,3.4444,1.9229,4.3954
					c1.082,0.763,2.5066,0.7725,3.83,0.7342c8.2723-0.239,16.5236-1.203,24.6283-2.8773
					c-13.3132,6.8301-22.215,21.4973-22.1279,36.4601c0.0112,1.9489,0.1735,3.9418,0.96,5.725
					c0.8655,1.9624,2.434,3.5399,4.1615,4.811c8.8407,6.5044,22.6915,4.6907,29.5594-3.8707
					c-1.8048,7.3509-1.3617,15.2378,1.2549,22.3404c2.2606,6.1364,6.4539,11.9357,12.5458,14.3137
					c8.2816,3.2327,18.1716-0.9317,23.4526-8.0833c5.2811-7.1514,6.6173-16.5598,5.9001-25.4209
					c-0.7173-8.8611-3.288-17.4501-5.1199-26.1494c6.5122,6.0806,13.277,11.8908,20.271,17.4105
					c2.5966,2.0492,5.8665,4.174,8.9744,3.0416c1.8854-0.687,3.1621-2.4266,4.2046-4.1412
					c5.7003-9.3757,7.7573-20.4542,9.5891-31.2727c1.6427-9.7015,3.1912-19.4647,3.2699-29.304
					c0.2183-27.2963-11.5022-54.4789-31.5009-73.0583"/>
			</g>
			<g>
				<path class="st4" d="M1679.2292,79.5341c6.618-8.1861,12.4075-17.0359,17.4739-26.2545
					c5.0718-9.2211,9.2765-18.8952,12.7463-28.7815c3.4698-9.89,6.3914-19.9146,8.974-30.0081
					c0.5946-2.5367,1.2119-5.0663,1.8855-7.5858c0.5759-2.5407,1.2024-5.0724,1.88-7.6004c0.5806-2.5455,1.2238-5.085,1.9314-7.6247
					c0.6432-2.5497,1.2782-5.1083,2.1307-7.6576l0.019-0.0573c0.2858-0.8534,1.2087-1.314,2.0621-1.0286
					c0.6482,0.2167,1.0693,0.8024,1.1097,1.4449c0.1671,2.7033,0.1167,5.3971,0.0745,8.1c-0.1621,2.6853-0.3888,5.371-0.6781,8.0505
					c-0.3743,2.6637-0.7999,5.3234-1.276,7.9743c-0.5573,2.6326-1.1705,5.255-1.8073,7.8703
					c-2.6949,10.428-6.4613,20.561-10.999,30.2887c-4.5381,9.7316-9.6608,19.1361-15.1514,28.2839
					c-5.4966,9.1501-11.5045,17.9596-17.8336,26.5478c-0.5256,0.7141-1.5312,0.8667-2.2452,0.3408
					c-0.7141-0.526-0.8667-1.5312-0.3407-2.2453C1679.1984,79.5736,1679.2156,79.5511,1679.2292,79.5341z"/>
			</g>
		</g>
	</g>
	<g>
		<path class="st3" d="M1698.6331,185.3443c13.1166-11.7248,24.686-25.1594,34.8042-39.5303
			c10.1687-14.3547,18.51-29.9263,25.4019-45.9775c6.8815-16.0727,12.5465-32.5169,17.4948-49.1257
			c0.5624-2.0929,1.1311-4.1835,1.7351-6.2645c0.5814-2.0874,1.2056-4.1637,1.8424-6.2382
			c1.0756-4.1979,2.2498-8.3767,3.527-12.5485c1.0715-4.2129,2.2666-8.4144,3.5897-12.6205
			c1.1378-4.2355,2.3669-8.4773,3.9404-12.7214l0.054-0.145c0.6165-1.6628,2.4642-2.511,4.1266-1.8946
			c1.2042,0.4463,1.9805,1.5413,2.0836,2.741c0.3846,4.5606,0.425,9.1236,0.3738,13.6928c-0.2603,4.5362-0.65,9.0769-1.1628,13.6062
			c-0.6949,4.4911-1.4921,8.9755-2.3892,13.4404c-0.5387,2.2092-1.0911,4.4168-1.6857,6.6132
			c-0.5718,2.2027-1.1787,4.3961-1.7932,6.5868c-5.21,17.4505-12.6801,34.1743-21.6682,49.9027
			c-8.978,15.7497-19.2435,30.6154-30.1833,44.8555c-10.9885,14.223-23.0327,27.54-35.764,40.2117
			c-1.2336,1.229-3.23,1.2255-4.4586-0.0079c-1.2291-1.2334-1.226-3.2297,0.0077-4.4588
			C1698.5468,185.4241,1698.5945,185.3795,1698.6331,185.3443z"/>
	</g>
	<g>
		<path class="st4" d="M864.6648,100.8221c5.8876-16.5785,9.5979-33.9157,11.5855-51.3785
			c2.0394-17.4726,1.892-35.137,0.243-52.5273c-1.6688-17.404-4.5829-34.5509-8.2051-51.4984
			c-0.51-2.1062-1.0137-4.2134-1.4814-6.3293c-0.491-2.1104-0.9388-4.2317-1.3744-6.3578
			c-1.0695-4.1995-2.0428-8.4296-2.9225-12.7029c-1.0801-4.2107-2.0463-8.4706-2.9018-12.7963
			c-1.0327-4.2623-1.9881-8.5741-2.6426-13.0528l-0.0223-0.1531c-0.2563-1.7547,0.9582-3.3852,2.7129-3.6415
			c1.2704-0.1857,2.4769,0.403,3.1428,1.4062c2.5244,3.8176,4.748,7.8024,6.8941,11.8365c1.9466,4.1055,3.7823,8.2768,5.504,12.4975
			c1.5439,4.2743,2.9944,8.5918,4.3486,12.9401c0.5866,2.1971,1.1608,4.3989,1.6919,6.6115
			c0.5546,2.2071,1.0738,4.4229,1.5851,6.6401c3.796,17.8116,5.2607,36.0691,4.9155,54.1813
			c-0.3258,18.126-2.2057,36.0936-4.9771,53.8357c-2.8222,17.7503-7.0055,35.2119-12.1013,52.4368
			c-0.4931,1.67-2.2464,2.6241-3.9166,2.1312c-1.67-0.493-2.624-2.2464-2.1312-3.9164
			C864.627,100.9336,864.6475,100.8716,864.6648,100.8221z"/>
	</g>
	<g>
		<g>
			<g>
				<path class="st8" d="M1276.2831,88.7538c-2.8125-44.9618,23.9902-83.3751,48.7424-118.3449
					c4.126-5.8292-5.474-11.368-9.5636-5.5901c-25.8921,36.5806-53.1921,76.9725-50.2545,123.9351
					C1265.6503,95.8336,1276.7291,95.8837,1276.2831,88.7538L1276.2831,88.7538z"/>
			</g>
		</g>
		<g>
			<g>
				<path class="st8" d="M1272.4199,2.7362c15.96-11.6469,32.744-22.0598,50.2679-31.186
					c6.3241-3.2935,0.7303-12.8552-5.5902-9.5636c-17.5238,9.1262-34.308,19.539-50.2679,31.186
					C1261.1293-2.6673,1266.6497,6.9472,1272.4199,2.7362L1272.4199,2.7362z"/>
			</g>
		</g>
		<g>
			<path class="st1" d="M1269.6321,94.4941c-5.6949,10.8803-15.1909,19.3939-25.6737,25.791
				c-5.0533,3.0838-10.558,5.7829-16.4652,6.1701c-5.9073,0.3873-12.3003-1.9814-15.314-7.0768
				c-3.8561-6.5193-0.9141-15.3706,4.724-20.4286c5.6379-5.058,13.2657-7.1713,20.652-8.8486
				c11.262-2.5574,23.099-4.4567,34.267-1.5157"/>
		</g>
		<g>
			<path class="st1" d="M1273.1313,89.6698c9.066,16.0115,12.9122,34.9246,10.8198,53.2054
				c-0.9744,8.5127-3.439,17.3019-9.5063,23.3516c-6.0676,6.0497-16.5175,8.3042-23.3445,3.1268
				c-3.7466-2.8411-5.8698-7.4188-6.6686-12.0523c-1.5032-8.7213,1.2137-17.5897,4.4125-25.8413
				c5.3352-13.7634,12.1129-26.9672,20.186-39.3253"/>
		</g>
		<g>
			<path class="st1" d="M1276.9939,50.7674c0.0385,16.2775,6.2339,32.4669,17.0723,44.6115
				c3.4026,3.8126,7.3252,7.2899,12.0059,9.3404c4.6808,2.0505,10.2153,2.5388,14.8835,0.4598
				c8.5035-3.7872,11.5387-15.1041,8.6808-23.9634c-2.8578-8.8593-10.0884-15.5781-17.6031-21.0721
				c-9.113-6.6625-19.0757-12.1621-29.5696-16.3232"/>
		</g>
		<g>
			<path class="st1" d="M1289.848,21.0297c9.1619,14.1965,22.7809,25.4702,38.4386,31.8193
				c2.2816,0.9252,4.6816,1.7608,7.1405,1.6352c4.3634-0.2229,7.9534-3.3565,11.1619-6.3219
				c1.8094-1.6723,3.67-3.4158,4.6338-5.6832c1.3446-3.1635,0.6875-6.9154-1.0298-9.8931s-4.3781-5.2928-7.151-7.324
				c-13.7941-10.1044-31.7355-14.3566-48.5972-11.5174"/>
		</g>
		<g>
			<path class="st1" d="M1271.5992,4.6438c-1.7725,10.4233-6.2469,20.6496-14.0282,27.8077
				c-7.7814,7.1581-19.1414,10.8102-29.3062,7.9009c-1.556-0.4454-3.124-1.0689-4.2451-2.2363
				c-1.4202-1.4789-1.9138-3.5947-2.3043-5.6076c-0.5857-3.0192-1.068-6.1298-0.524-9.1567
				c0.8297-4.6174,3.999-8.5487,7.8007-11.2975c3.8015-2.7489,8.2286-4.4761,12.6018-6.1743
				c5.8573-2.2746,11.7146-4.5492,17.5719-6.8238c3.6121-1.4026,7.5085-2.8281,11.2729-1.9095"/>
		</g>
		<g>
			<path class="st1" d="M1266.4836,1.2812c-15.3811,5.9139-32.7004,6.6535-48.5298,2.0722
				c-3.277-0.9484-6.7234-2.2946-8.5768-5.1587c-1.7256-2.6664-1.6941-6.0776-1.395-9.2396
				c0.3389-3.5825,0.9873-7.2521,2.9293-10.2816c2.5037-3.906,6.9464-6.2943,11.5195-7.0776
				c4.573-0.7833,9.2828-0.1123,13.7722,1.0586c14.496,3.7806,27.5233,12.9404,35.9856,25.3024"/>
		</g>
		<g>
			<g>
				<path class="st9" d="M1260.741,156.2968c5.8215,0.9091,11.0652-1.5251,13.2828-7.1776
					c1.6755-4.2706,2.2614-11.2109-0.9347-14.8922c-3.9596-4.5607-10.7618-3.9515-14.7981,0.1911
					c-1.9604,2.012-3.3086,4.6125-3.6979,7.3941c-0.2076,1.4838-0.174,2.9589,0.2244,4.4164
					c0.1663,0.6086,0.4122,1.6441,0.8391,2.1171c0.6613,0.7326-0.4943,0.8171,0.0922-0.7086
					c0.4747-0.8145,0.9495-1.6291,1.4242-2.4437c-0.1315,0.1393-0.2629,0.2787-0.3944,0.418
					c-4.889,5.183,2.9285,13.0298,7.8318,7.8317c1.9548-2.0723,2.7209-4.7626,1.9718-7.5498
					c-0.2604-0.6957-0.5419-1.3831-0.844-2.0619c-0.3788-0.8271-0.4576-0.9576-0.2363-0.3917
					c0.1147-0.4805,0.8403-1.1568,0.8926-1.471c-0.1035,0.622-2.095-1.578-2.2194-1.4108c-0.3719,0.5007-0.019,2.5707-0.1215,3.2439
					c-0.0818,0.5381-0.2052,1.2891-0.512,1.7289c-0.3004,0.4308,0.1077,0.0803,0.1437,0.0859
					c-2.9515-0.4609-5.9564,0.753-6.8123,3.8679C1256.1509,152.1129,1257.7684,155.8326,1260.741,156.2968L1260.741,156.2968z"/>
			</g>
		</g>
		<g>
			<g>
				<path class="st9" d="M1230.2219,114.9724c4.6049,1.7781,10.0236,1.143,14.2747-1.2981
					c4.4287-2.5431,8.4296-7.8329,7.1622-13.2005c-3.0074-12.7371-22.0786-3.8716-23.399,5.6351
					c-0.411,2.9585,0.7188,5.947,3.8678,6.8123c2.5887,0.7113,6.3981-0.8863,6.8123-3.8679
					c0.2107-1.5163,0.6561-2.062,2.0481-2.8571c0.5396-0.3084,1.798-0.5052,2.1823-0.8627
					c0.9357-0.8708-1.6913-3.0906-2.5176-2.7651c-0.097,0.0382-0.9827,1.0529-1.1149,1.1528
					c-0.6218,0.4695-1.3064,0.7655-2.0475,0.9724c-1.5549,0.4342-2.8193,0.1798-4.3239-0.4012
					c-2.7908-1.0777-6.0762,1.1889-6.8123,3.8679C1225.4946,111.288,1227.421,113.8909,1230.2219,114.9724L1230.2219,114.9724z"/>
			</g>
		</g>
		<g>
			<g>
				<path class="st9" d="M1244.9681,30.8776c4.855-0.7718,9.1569-4.9732,8.8563-10.0825
					c-0.3712-6.3122-7.2809-10.418-12.8007-6.8765c-4.3672,2.8021-8.282,7.7657-6.8768,13.2584
					c1.6146,6.3115,8.9874,8.4193,13.8011,4.2467c2.2612-1.96,2.0088-5.823,0-7.8317c-2.2427-2.2427-5.5648-1.9649-7.8317,0
					c1.3176-1.1422,4.3605-1.457,4.7656,0.9198c0.064,0.3758-0.1167,0.6013-0.1158,0.8955c0.3621-0.5556,0.4009-0.6536,0.1161-0.294
					c0.2548-0.2903,0.5236-0.567,0.8065-0.8299c0.2566-0.2434,1.2606-1.0988,1.2493-1.0505
					c-0.297,1.2636-5.0175-0.2505-4.0044-2.7257c0.2811-0.6869,1.048-0.715,0.2142-0.5251c1.08-0.246-0.9279,0.1843-1.1241,0.2155
					c-2.9563,0.47-4.5972,4.1584-3.8679,6.8122C1239.0211,30.158,1242.0032,31.3488,1244.9681,30.8776L1244.9681,30.8776z"/>
			</g>
		</g>
		<g>
			<g>
				<path class="st9" d="M1228.0369-2.3513c5.1588,3.0932,12.3727,3.1659,15.9207-2.3944
					c3.6727-5.7557,0.2902-11.485-5.2651-14.0671c-5.2347-2.4331-12.4636-5.2803-16.1342,1.0923
					c-3.337,5.7936,0.8436,11.1394,5.5645,14.2818c2.4906,1.6579,6.1295,0.4878,7.5767-1.9867
					c1.5873-2.7138,0.5099-5.9151-1.9866-7.5768c-0.057-0.038-1.6887-1.1174-1.5687-1.2407
					c0.1731-0.1777,0.3403,1.1622,0.2346,1.542c-0.5409,1.2711-1.5725,1.953-3.0945,2.0458
					c0.5409,0.1637,1.0778,0.3391,1.6111,0.5261c0.7506,0.2634,1.4835,0.5514,2.207,0.8797
					c0.3265,0.1483,2.0029,1.2826,2.2855,1.1937c-1.2635,0.3978-0.5928-2.8101-0.5953-2.8637
					c-0.0051-0.1016,0.3491-0.1201,0.2842-0.2914c0.115,0.3034-1.611-0.801-1.4496-0.7043
					C1227.4988-15.5893,1221.9235-6.0169,1228.0369-2.3513L1228.0369-2.3513z"/>
			</g>
		</g>
		<g>
			<g>
				<path class="st9" d="M1311.3331,88.496c9.4388-6.2064,1.9763-22.8726-8.4857-22.4847
					c-5.7744,0.2141-9.7076,5.4387-8.5089,11.0537c1.0536,4.9354,5.3381,8.9906,9.6342,11.2854
					c6.2852,3.3573,11.8864-6.2004,5.5901-9.5636c-1.3766-0.7354-2.7252-1.5925-3.6951-2.8482
					c-0.0367-0.0474-0.7532-1.1273-0.697-1.1544c-0.4634,0.2239-0.3691,1.8756-1.3971,2.1822
					c-0.0238,0.0071-1.2815,0.1415-1.0635-0.1327c0.0854-0.1074,0.8661,1.05,0.816,0.9749
					c0.3955,0.5936,0.6982,1.2684,0.9912,1.9154c0.6741,1.4888-0.4781,0.3287,1.2256-0.7915
					c-2.4963,1.6414-3.5531,4.8988-1.9867,7.5768C1305.2074,88.9903,1308.823,90.1463,1311.3331,88.496L1311.3331,88.496z"/>
			</g>
		</g>
		<g>
			<g>
				<path class="st9" d="M1322.2651,42.4776c5.3502,2.1909,12.3057-1.649,13.7845-7.0841
					c1.718-6.3133-4.1575-12.0101-9.9517-13.0594c-5.2875-0.9576-13.0353,0.7746-14.3331,6.8686
					c-1.2551,5.8939,5.324,10.8812,10.0023,13.0084c2.7208,1.2371,5.9594,0.7787,7.5769-1.9867
					c1.3905-2.3776,0.749-6.3329-1.9868-7.5768c-1.2303-0.5594-4.6023-2.0903-4.9122-3.4448c0,0.9815,0,1.9629,0,2.9444
					c-0.3142,1.8189-1.4344,0.7664,0.1953,0.948c0.7648,0.0852,1.4468,0.2806,2.1759,0.4017
					c-0.1906-0.0316,0.6776,0.4072,0.5626,0.4381c-0.1908,0.0513,0.467-1.9456,0.443-2.0786
					c-0.1116-0.6153,0.4185,0.118-0.4062,0.123c-0.088,0.0006,1.5616,0.5422-0.2062-0.1817
					c-2.7689-1.1339-6.0873,1.2299-6.8123,3.8679C1317.525,38.8401,1319.4858,41.3395,1322.2651,42.4776L1322.2651,42.4776z"/>
			</g>
		</g>
	</g>
	<g>
		<path class="st2" d="M303.3363-107.3232c-12.8166,44.5386-16.9269,94.1536,3.2469,135.8786
			c19.6459,40.6333,60.88,71.2112,67.854,115.8026c1.9103-12.0103,12.6249-20.5997,17.2746-31.8369
			c3.7469-9.0549,3.3245-19.2394,2.4323-28.9982c-3.1989-34.9909-12.1192-70.44-32.8922-98.7785
			c-10.8276-14.771-24.5375-27.1683-36.3235-41.1867c-11.7859-14.0184-21.9131-30.4691-23.4275-48.721"/>
	</g>
	<g>
		<path class="st3" d="M457.4933,79.9941c-5.9278-17.5477-10.0291-35.6557-15.4063-53.3798
			c-10.2711-33.8549-25.692-66.972-50.6094-92.0872c-24.9174-25.1153-60.449-41.3268-95.5665-37.035
			c10.494,20.4343,21.0186,40.9208,33.7827,60.0195C364.28,9.2618,413.8572,48.8294,462.6149,87.5205"/>
	</g>
	<g>
		<g>
			<g>
				<path class="st8" d="M496.5168,87.1172c2.9377-46.9625-24.3622-87.3545-50.2545-123.9351
					c-4.0852-5.7716-13.6936-0.2449-9.5636,5.5901c24.7523,34.9702,51.5549,73.3828,48.7424,118.3449
					C484.9958,94.2353,496.0732,94.2088,496.5168,87.1172L496.5168,87.1172z"/>
			</g>
		</g>
		<g>
			<g>
				<path class="st8" d="M494.8944-8.464c-15.9599-11.6469-32.744-22.0598-50.2679-31.186
					c-6.3143-3.2884-11.9211,6.2665-5.5901,9.5636c17.5238,9.1262,34.308,19.539,50.2679,31.186
					C495.0688,5.3063,500.6011-4.2994,494.8944-8.464L494.8944-8.464z"/>
			</g>
		</g>
		<g>
			<path class="st1" d="M492.0921,92.8575c5.6949,10.8803,15.1909,19.3939,25.6737,25.791
				c5.0533,3.0838,10.558,5.7829,16.4652,6.1701c5.9073,0.3873,12.3002-1.9814,15.314-7.0768
				c3.856-6.5193,0.9139-15.3706-4.7239-20.4286c-5.6379-5.058-13.2657-7.1713-20.6521-8.8486
				c-11.262-2.5574-23.099-4.4567-34.2669-1.5157"/>
		</g>
		<g>
			<path class="st1" d="M488.5929,88.0333c-9.0662,16.0115-12.9123,34.9246-10.8199,53.2054
				c0.9743,8.5127,3.4388,17.3019,9.5065,23.3515c6.0676,6.0498,16.5173,8.3042,23.3445,3.1267
				c3.7465-2.8411,5.8698-7.4187,6.6685-12.0523c1.5034-8.7213-1.2136-17.5896-4.4124-25.8413
				c-5.3353-13.7634-12.113-26.9672-20.1861-39.3252"/>
		</g>
		<g>
			<path class="st1" d="M484.7304,49.1308c-0.0385,16.2775-6.234,32.4669-17.0724,44.6114
				c-3.4026,3.8126-7.3251,7.2899-12.0058,9.3404c-4.6807,2.0504-10.2154,2.5388-14.8835,0.4598
				c-8.5036-3.7872-11.5388-15.1041-8.6808-23.9634s10.0884-15.5782,17.6031-21.0721c9.1131-6.6625,19.0757-12.1621,29.5696-16.3232
				"/>
		</g>
		<g>
			<path class="st1" d="M471.8762,19.3931c-9.1618,14.1965-22.7808,25.4702-38.4386,31.8193
				c-2.2816,0.9252-4.6817,1.7608-7.1405,1.6352c-4.3634-0.2229-7.9534-3.3565-11.1619-6.3219
				c-1.8093-1.6723-3.6699-3.4158-4.6337-5.6832c-1.3446-3.1635-0.6876-6.9154,1.0297-9.8931s4.3782-5.2928,7.1511-7.324
				c13.7941-10.1044,31.7355-14.3566,48.5972-11.5174"/>
		</g>
		<g>
			<path class="st1" d="M490.125,3.0072c1.7724,10.4233,6.2469,20.6496,14.0282,27.8077
				c7.7812,7.1581,19.1413,10.8102,29.306,7.9009c1.5562-0.4454,3.1241-1.0689,4.2452-2.2363
				c1.4201-1.4789,1.9139-3.5947,2.3043-5.6076c0.5856-3.0192,1.068-6.1298,0.5241-9.1567
				c-0.8298-4.6174-3.9991-8.5487-7.8007-11.2975c-3.8015-2.7489-8.2286-4.4761-12.6017-6.1743
				c-5.8574-2.2746-11.7146-4.5492-17.572-6.8238c-3.612-1.4026-7.5085-2.8281-11.2729-1.9095"/>
		</g>
		<g>
			<path class="st1" d="M495.2406-0.3554c15.381,5.9139,32.7005,6.6535,48.5298,2.0722c3.277-0.9484,6.7234-2.2946,8.5769-5.1587
				c1.7256-2.6664,1.6941-6.0776,1.395-9.2396c-0.3389-3.5825-0.9872-7.2521-2.9293-10.2816
				c-2.5038-3.906-6.9466-6.2943-11.5196-7.0776s-9.2828-0.1123-13.7723,1.0586c-14.4961,3.7806-27.5232,12.9404-35.9856,25.3024"/>
		</g>
		<g>
			<g>
				<path class="st9" d="M498.0389,143.9802c0.2794-0.0436,0.1483,0.2075,0.1436-0.0859c-0.0058-0.3586-0.446-1.296-0.5119-1.7289
					c-0.1024-0.6733,0.2505-2.7432-0.1215-3.2439c-0.1243-0.1673-2.1158,2.0328-2.2194,1.4108
					c0.0523,0.3142,0.7779,0.9905,0.8926,1.471c0.2213-0.5659,0.1425-0.4353-0.2363,0.3917
					c-0.3022,0.6789-0.5835,1.3661-0.844,2.0619c-0.7491,2.7872,0.017,5.4775,1.9718,7.5498
					c4.9012,5.1958,12.7229-2.6465,7.8317-7.8317c-0.1314-0.1393-0.2629-0.2787-0.3944-0.4181
					c0.4747,0.8145,0.9495,1.6291,1.4242,2.4437c0.1424,0.3706-0.4272,1.1301-0.0713,1.0713
					c0.2217-0.0366,0.829-1.8725,0.885-2.0483c0.4196-1.3169,0.5438-2.7409,0.4408-4.1119
					c-0.2193-2.9164-1.5583-5.7023-3.525-7.8492c-3.9957-4.3617-10.9994-5.1605-15.0699-0.472
					c-3.1137,3.5865-2.6302,10.3246-1.0798,14.5331c2.1524,5.8428,7.4294,8.4735,13.428,7.5367
					c2.9575-0.4619,4.5956-4.164,3.8679-6.8123C503.9842,144.6934,501.0052,143.5169,498.0389,143.9802L498.0389,143.9802z"/>
			</g>
		</g>
		<g>
			<g>
				<path class="st9" d="M528.5579,102.6558c-1.5046,0.581-2.7689,0.8354-4.324,0.4012c-0.741-0.2069-1.4255-0.5029-2.0474-0.9724
					c-0.1323-0.0998-1.0179-1.1145-1.1149-1.1528c-0.8263-0.3256-3.4532,1.8943-2.5175,2.7651
					c0.3842,0.3576,1.6426,0.5544,2.1822,0.8627c1.392,0.7953,1.8375,1.3409,2.048,2.8571
					c0.4119,2.9652,4.1988,4.5861,6.8123,3.8679c3.1932-0.8775,4.2811-3.8377,3.8679-6.8123
					c-1.3204-9.5057-20.4014-18.3707-23.399-5.6351c-1.2435,5.283,2.5792,10.3699,6.8466,13.0057
					c4.2606,2.6316,9.9017,3.3034,14.5901,1.4929c2.7885-1.0768,4.717-3.7224,3.8679-6.8122
					C534.6377,103.8588,531.3631,101.5725,528.5579,102.6558L528.5579,102.6558z"/>
			</g>
		</g>
		<g>
			<g>
				<path class="st9" d="M519.7004,18.5608c-0.1963-0.0313-2.204-0.4615-1.1243-0.2155c-0.8778-0.2-0.15-0.1935,0.1445,0.3168
					c1.4956,2.5912-3.6528,4.1329-3.9346,2.9339c-0.0114-0.0483,0.9928,0.807,1.2493,1.0505
					c0.283,0.2629,0.5518,0.5395,0.8065,0.8299c-0.2226-0.2864-0.2321-0.2714-0.0286,0.0449
					c0.1907,0.3276,0.193,0.3321,0.0068,0.0132c-0.0552-0.2217-0.0479-0.4415,0.0221-0.6595
					c0.3779-2.3928,3.472-2.0411,4.7656-0.9198c-2.2587-1.9579-5.6108-2.2209-7.8317,0c-2.0013,2.0013-2.2696,5.8644,0,7.8317
					c4.6669,4.0454,12.0331,2.2118,13.7462-3.9675c1.5337-5.5324-2.3265-10.7429-6.8218-13.5375
					c-5.3106-3.3013-11.8311,0.1009-12.7018,6.1404c-0.7763,5.3851,3.607,9.9999,8.7574,10.8186
					c2.9503,0.469,5.9579-0.7586,6.8123-3.8679C524.2923,22.7384,522.6715,19.0332,519.7004,18.5608L519.7004,18.5608z"/>
			</g>
		</g>
		<g>
			<g>
				<path class="st9" d="M528.0972-13.5515c0.1613-0.0967-1.5647,1.0077-1.4496,0.7043c-0.055,0.1449,0.2226,0.1767,0.213,0.2337
					c0.0108-0.0632,0.8278,3.347-0.5241,2.9214c0.2827,0.0889,1.9589-1.0454,2.2855-1.1937
					c0.7234-0.3284,1.4565-0.6165,2.207-0.8797c0.5333-0.1871,1.0702-0.3624,1.6109-0.5261
					c-1.33-0.0134-2.2486-0.5209-2.7559-1.5224c-0.066-0.1061-0.6654-2.6418-0.1039-2.0653
					c0.1201,0.1233-1.5116,1.2027-1.5686,1.2407c-2.4868,1.6554-3.5591,4.8885-1.9867,7.5768
					c1.4444,2.4695,5.076,3.6515,7.5768,1.9867c4.6378-3.0872,8.823-8.2859,5.6895-14.046
					c-3.5947-6.6079-10.9118-3.8135-16.2593-1.328c-5.3726,2.4972-8.9471,8.1143-5.4287,13.8042
					c3.5427,5.7291,10.7581,5.8506,16.0842,2.6572C539.7941-7.6494,534.2315-17.2295,528.0972-13.5515L528.0972-13.5515z"/>
			</g>
		</g>
		<g>
			<g>
				<path class="st9" d="M455.9813,77.2958c1.7036,1.1202,0.5515,2.2803,1.2255,0.7915c0.2926-0.6461,0.5941-1.3238,0.9913-1.9154
					c-0.0242,0.0361,0.6925-1.1327,0.816-0.9749c0.2173,0.2775-1.0398,0.1397-1.0634,0.1327
					c-1.0529-0.3139-0.9079-1.9292-1.397-2.1822c0.0734,0.038-0.6139,1.0475-0.697,1.1544
					c-0.9759,1.2547-2.3151,2.111-3.6951,2.8482c-6.2894,3.3596-0.7012,12.9242,5.5901,9.5636
					c4.1826-2.2342,8.4236-6.1764,9.5582-10.9536c1.3531-5.6977-2.465-11.1817-8.4329-11.3855
					c-10.4516-0.3569-17.9426,16.2665-8.4856,22.4847c2.4998,1.6437,6.1235,0.4981,7.5768-1.9867
					C459.5484,82.1708,458.4872,78.9435,455.9813,77.2958L455.9813,77.2958z"/>
			</g>
		</g>
		<g>
			<g>
				<path class="st9" d="M436.5147,30.161c-0.627,0.2567-0.943,0.2587-0.1209,0.2149c-0.131,0.007-0.7598-0.3725-0.7608-0.4274
					c0.1795,0.1808,0.3591,0.3617,0.5386,0.5426c0.0345,0.6361,0.0691,1.2723,0.1036,1.9084
					c-0.0334-0.0068,0.6042-0.5348,0.6327-0.5392c0.6007-0.0929,1.1099-0.419,1.7774-0.4051
					c-0.2169-0.0045,1.1287,0.072,0.8862,0.1264c1.0501-0.2358,0.2291,1.9481-0.2924-1.0709c0-0.9814,0-1.9629,0-2.9444
					c-0.3112,1.3598-3.6735,2.8815-4.9123,3.4448c-2.7227,1.2381-3.3866,5.1836-1.9867,7.5768
					c1.6369,2.7985,4.8438,3.2294,7.5768,1.9867c4.6204-2.1009,10.545-6.6273,10.1012-12.2722
					c-0.5184-6.5934-9.0721-8.6231-14.432-7.6047c-5.6857,1.0802-11.4035,6.4265-10.0347,12.671
					c1.2394,5.6538,8.3979,9.7123,13.8676,7.4725c2.7658-1.1326,4.7283-3.681,3.8679-6.8123
					C442.6072,31.4102,439.2993,29.0207,436.5147,30.161L436.5147,30.161z"/>
			</g>
		</g>
	</g>
	<g>
		<path class="st0" d="M1191.0048,128.2356c10.9564-25.3664,19.4048-51.9435,23.2681-79.3035
			c2.5604-18.1327,3.0955-36.4827,3.6268-54.7875c0.4564-15.7206,0.9115-31.4869-0.526-47.1483
			c-3.0983-33.7528-14.9498-66.2345-30.6393-96.2792s-35.1985-57.9014-54.6477-85.6605c-1.9229,1.5013-1.9371,4.3643-1.6592,6.7879
			c3.2526,28.3537,21.8326,52.2713,32.5347,78.7283c10.4392,25.8067,13.3163,54.6205,8.186,81.9818
			c-3.8087,20.3141-11.8483,39.5453-18.2391,59.2004c-6.391,19.6552-11.1914,40.4429-8.2145,60.8954
			c4.2747,29.369,24.1354,54.3548,47.1826,73.0534"/>
	</g>
	<g>
		<path class="st10" d="M1170.3102-151.9519c5.7766,37.1604,6.7291,75.0679,2.826,112.4715
			c-0.9812,9.4032-2.3148,18.9414-6.2909,27.519c-2.9064,6.2702-7.1305,11.819-10.811,17.6685
			c-4.5099,7.1679-8.2352,14.8597-10.6803,22.9677c-5.8606,19.4345-4.1555,40.2011-4.3317,60.4993
			c-0.1763,20.2982-2.7889,41.8521-15.4706,57.7023c0.626-13.698,1.2416-27.5493-1.3644-41.0117
			c-2.256-11.6543-6.8661-22.6975-10.4666-34.009c-11.2552-35.3603-12.515-73.8434-3.5964-109.8641
			c2.0673-8.3494,4.6744-16.5828,8.1744-24.4401c3.3567-7.5352,7.514-14.6823,11.6626-21.8123
			c5.4615-9.3867,10.9231-18.7734,16.3848-28.1601c7.7676-13.35,15.5481-26.7199,24.4532-39.3394"/>
	</g>
	<g>
		<g>
			<g>
				<path class="st7" d="M680.9445-71.2071c11.869,6.0899,22.6272,14.3369,31.5909,24.2169
					c7.1635,7.8956,13.153,16.778,18.7883,25.8279c6.3051,10.1255,12.2566,20.6336,15.5482,32.0986
					c3.2915,11.465,3.7486,24.0773-0.799,35.1046c-0.629,1.5254-1.4996,3.1536-3.0576,3.6971
					c-1.2501,0.436-2.6224,0.0534-3.8842-0.3474c-7.8877-2.5049-15.5555-5.701-22.8872-9.5398
					c10.9214,10.2281,15.446,26.7779,11.2472,41.1398c-0.5469,1.8706-1.2509,3.7421-2.4975,5.2402
					c-1.3718,1.6488-3.3136,2.734-5.3242,3.4809c-10.2886,3.8221-23.1065-1.731-27.355-11.851
					c-0.2865,7.5638-2.8815,15.0247-7.3505,21.1338c-3.8611,5.2781-9.4877,9.7004-15.9987,10.3113
					c-8.8512,0.8304-17.2145-5.8935-20.3251-14.2216c-3.1107-8.3281-1.8077-17.7411,1.3188-26.0632
					c3.1266-8.3222,7.9603-15.8729,12.1141-23.7329c-7.9335,4.055-16.0352,7.7807-24.2776,11.1641
					c-3.0599,1.2561-6.7881,2.3996-9.4647,0.4561c-1.6237-1.179-2.3729-3.2026-2.9036-5.1378
					c-2.902-10.5818-1.8328-21.7989-0.6186-32.7039c1.0889-9.7792,2.2852-19.5918,4.9155-29.0732
					c7.2973-26.3037,26.0416-49.2147,50.3789-61.5774"/>
			</g>
			<g>
				<path class="st4" d="M689.7863,38.5588c-3.723-9.9976-7.0765-20.1198-9.8447-30.4287
					c-2.763-10.305-5.1015-20.7558-6.7885-31.3602c-1.6872-10.6005-2.5212-21.3784-2.2445-32.1456
					c0.107-2.6896,0.2387-5.3795,0.427-8.0638c0.2713-2.6796,0.5936-5.3538,0.9666-8.0177
					c0.4588-2.6559,0.9791-5.3003,1.5619-7.9267c0.7027-2.6103,1.3954-5.214,2.2995-7.7671
					c0.3005-0.8483,1.2316-1.2925,2.0798-0.9921c0.6441,0.2281,1.0551,0.8199,1.0842,1.4629l0.0022,0.0616
					c0.1185,2.6853,0.0257,5.3201-0.0573,7.9483c-0.0181,2.6365-0.0983,5.2549-0.2401,7.862
					c-0.0436,2.6168-0.138,5.2231-0.283,7.8242c-0.0454,2.6076-0.1473,5.2095-0.2734,7.8118
					c-0.2927,10.4146-0.2409,20.8562,0.3749,31.319c0.6168,10.4592,1.999,20.9167,4.3394,31.1771
					c2.3356,10.2564,5.4679,20.3573,9.5791,30.0476c0.3464,0.8165-0.0348,1.7591-0.8511,2.1055
					c-0.8162,0.3464-1.759-0.0347-2.1053-0.8512C689.8044,38.6057,689.794,38.5792,689.7863,38.5588z"/>
			</g>
		</g>
	</g>
	<g>
		<g>
			<path class="st1" d="M1045.9366-61.0665c-15.9292,6.9584-31.9487,13.9654-46.4546,23.5436
				c-14.5059,9.5781-27.5626,21.955-35.4664,37.4368c-4.8657,9.5307-7.6842,20.1002-8.2103,30.7881
				c-0.0895,1.8181-0.0914,3.7352,0.7834,5.3314c2.3365,4.2633,8.618,3.4026,13.2556,1.9432
				c8.0953-2.5475,16.1906-5.0949,24.2859-7.6423c-10.0775,7.1701-21.0298,15.7336-22.6296,27.9976
				c-1.2347,9.4648,3.6465,18.7561,9.9614,25.9133c1.0866,1.2315,2.4786,2.5246,4.1104,2.3396
				c1.1782-0.1336,2.1161-1.0144,2.9423-1.8649c9.7779-10.0647,17.067-22.5296,21.0438-35.9865
				c-5.6122,13.9026,1.9722,31.6618,15.8961,37.2212c6.1018,2.4363,13.7947,2.4015,18.4978-2.1864
				c2.5073-2.4458,3.8446-5.8489,4.7128-9.2424c2.3019-8.9982,1.7288-18.7089-1.616-27.3737
				c6.3678,8.4935,12.7355,16.9869,19.103,25.4804c0.5844,0.7794,1.2505,1.6132,2.2026,1.8186
				c0.9213,0.1988,1.8484-0.2503,2.6667-0.7177c14.2186-8.1199,21.283-25.4296,21.1132-41.8026
				c-0.17-16.373-6.4364-32.0429-13.5269-46.8019c-7.7261-16.0819-16.6813-31.8163-29.0151-44.7079"/>
		</g>
		<g>
			<path class="st4" d="M1025.4583,36.9045c4.3776-9.573,7.7883-19.5833,10.4067-29.7712
				c2.623-10.1918,4.2942-20.6071,5.1998-31.0452c0.9055-10.4418,1.246-20.8779,1.2415-31.2967
				c-0.0541-2.6048-0.0841-5.2086-0.057-7.8164c-0.0731-2.6041-0.0955-5.2121-0.0668-7.829
				c-0.0696-2.61-0.0773-5.2296-0.0223-7.8656c-0.0101-2.6295-0.0302-5.2657,0.1627-7.9468l0.0043-0.0603
				c0.0645-0.8976,0.8444-1.573,1.7419-1.5084c0.6815,0.049,1.235,0.5117,1.4337,1.124c0.833,2.5771,1.4532,5.199,2.0837,7.8277
				c0.5096,2.6414,0.9568,5.2993,1.342,7.9669c0.2991,2.6732,0.5471,5.3553,0.7443,8.0413
				c0.1138,2.6885,0.1711,5.3811,0.2039,8.0726c-0.0214,10.7707-1.1532,21.5215-3.1332,32.0712
				c-1.9795,10.5537-4.6064,20.9358-7.6534,31.1604c-3.0521,10.2283-6.6843,20.2538-10.6825,30.1447
				c-0.332,0.8223-1.2681,1.2197-2.0903,0.8876c-0.8224-0.3322-1.2198-1.268-0.8876-2.0904
				C1025.4379,36.9506,1025.4492,36.9244,1025.4583,36.9045z"/>
		</g>
	</g>
	<g>
		<g>
			<path class="st5" d="M742.4009,88.8061c4.4583,6.063,13.6041,7.1237,20.4822,4.0696
				c6.8782-3.0541,11.8177-9.2835,15.6504-15.7601c2.0408-3.4488,3.8925-7.1847,4.028-11.1898
				c0.2836-8.3858-7.5961-15.5275-15.9416-16.3968c-8.3455-0.8692-16.5531,3.323-22.6036,9.1361
				c-3.6195,3.4774-6.6978,7.6358-8.2817,12.3987c-1.584,4.7629-1.5601,10.175,0.7132,14.65"/>
		</g>
		<g>
			<path class="st5" d="M734.4518,32.9913c3.5947,2.4524,7.4576,4.6108,11.6696,5.7041c4.2119,1.0932,8.8224,1.0526,12.7782-0.761
				c3.3882-1.5535,6.0876-4.2824,8.5034-7.1209c2.7305-3.2085,5.2775-6.797,6.0078-10.9464
				c1.1411-6.4836-2.7293-13.2972-8.5511-16.3703c-5.8218-3.0732-13.1342-2.6405-19.0011,0.3457
				c-5.867,2.9862-10.3492,8.2852-13.191,14.2235c-1.8366,3.8376-3.0533,8.2072-2.0526,12.3422"/>
		</g>
		<g>
			<path class="st5" d="M808.4289,104.8045c4.9827,2.716,11.1487,3.3625,16.4427,1.3184c5.294-2.0439,9.524-6.8775,10.4312-12.4793
				c0.42-2.5931,0.1551-5.2562-0.3907-7.8258c-2.197-10.3442-9.7492-19.9503-20.0276-22.4377
				c-2.7622-0.6685-5.6943-0.8158-8.4346-0.0623c-2.066,0.5681-3.9731,1.6335-5.6675,2.945
				c-6.1491,4.7596-9.3887,13.0096-8.1212,20.6815c1.2675,7.6719,6.9885,14.4416,14.3417,16.9704"/>
		</g>
		<g>
			<path class="st5" d="M807.2288,43.4634c5.1051,4.1837,11.5818,6.8212,18.1821,6.7907c6.6003-0.0305,13.2554-2.8794,17.399-8.0169
				c4.1437-5.1376,5.4831-12.5576,2.8823-18.624c-1.3149-3.0673-3.5261-5.6841-6.0406-7.8782
				c-6.2646-5.4663-15.1353-8.4795-23.1043-6.1088c-6.5088,1.9362-11.762,7.3732-13.8835,13.824s-1.2043,13.7464,2.0671,19.6971"/>
		</g>
		<g>
			<path class="st5" d="M803.4887-21.6103c3.4084,8.2857,10.2904,15.435,18.9683,17.6631
				c8.6779,2.2281,18.932-1.3343,23.1686-9.2288c0.867-1.6156,1.4825-3.3845,1.6353-5.2117
				c0.2371-2.8347-0.6397-5.6417-1.6921-8.2846c-3.2332-8.1193-8.9517-16.0436-17.3792-18.3573
				c-6.1593-1.6909-13.1508,0.0852-17.7561,4.5109s-6.6582,11.341-5.2136,17.5626"/>
		</g>
		<g>
			<path class="st5" d="M735.1657-18.5895c5.5898,4.2724,12.9421,6.161,19.899,5.1116c2.0862-0.3147,4.1738-0.8995,5.9214-2.0816
				c1.2843-0.8687,2.3401-2.0279,3.3817-3.1764c3.9001-4.3001,7.9785-9.0245,8.5895-14.7976
				c0.4622-4.3677-1.1899-8.7428-3.6589-12.3752c-1.4125-2.0782-3.1609-4.0208-5.4318-5.0964
				c-2.5701-1.2173-5.5322-1.207-8.3735-1.0908c-4.6164,0.1888-9.4094,0.6512-13.3741,3.0231
				c-2.934,1.7552-5.1885,4.4257-7.3642,7.063c-2.592,3.1418-5.2217,6.4361-6.2697,10.3719s-0.0833,8.7067,3.3239,10.9385"/>
		</g>
		<g>
			<g>
				<path class="st6" d="M793.3906,52.6553c1.3401-19.4119-1.0662-38.7063-2.4108-58.045
					c-1.3024-18.7317-0.2909-37.1417,1.5958-55.7986c3.7523-37.1055,9.3372-74.1781,21.2816-109.6289
					c1.9821-5.8829-7.3105-8.4072-9.281-2.5586c-12.027,35.6964-17.6143,73.07-21.4461,110.4269
					c-1.9736,19.2409-3.119,38.231-1.775,57.5593c1.3445,19.3388,3.751,38.6331,2.4109,58.045
					C783.339,58.8374,792.9658,58.8108,793.3906,52.6553L793.3906,52.6553z"/>
			</g>
		</g>
	</g>
	<g>
		<path class="st4" d="M987.5389,139.4951c0.3206-12.0458,0.6413-24.0916,0.9619-36.1374
			c0.5631-21.1545,1.1205-42.4215-1.7611-63.3864c-5.6556-41.1475-24.4652-80.679-22.33-122.1585
			c0.5596-10.8703,2.567-21.6906,2.0641-32.5637c-1.0753-23.2483-14.1079-45.2422-32.9306-58.9298s-42.9152-19.3231-66.1059-17.3645
			c16.5714,11.7878,33.6969,24.1852,43.4694,42.0195c12.3152,22.4745,10.9194,49.5838,10.7672,75.2108
			c-0.0988,16.6386,0.4662,33.2811,1.6932,49.8747c0.6553,8.8617,1.5139,17.7849,4.1375,26.2746
			c2.9513,9.5504,8.0444,18.268,12.8586,27.0283c19.1342,34.8173,34.4653,71.7228,45.6336,109.8493"/>
	</g>
	<g>
		<path class="st3" d="M985.942,139.657c-22.1004-19.8146-51.5236-41.3784-70.2484-64.4094
			c-5.5571-6.8351-10.8446-14.0147-14.3069-22.1148c-11.9209-27.8887-0.2111-59.987-3.2735-90.1615
			c-2.4623-24.2615-14.4632-46.689-17.6979-70.8597c-1.8834-14.0735-0.7429-28.3683-1.5649-42.5434
			c-0.822-14.1751-3.9081-28.8662-12.9165-39.8416c10.4426,1.9658,25.836,7.9245,32.5261,16.1801
			c24.1829,29.8415,33.3543,55.0564,40.7418,92.7493c7.1992,36.7322,5.8666,88.2206,22.4621,121.7717
			c4.1425,8.375,9.4902,16.1616,12.934,24.8474c3.9883,10.0591,5.2792,20.9501,6.5349,31.6979
			C982.8008,111.2514,987.9964,125.4287,985.942,139.657"/>
	</g>
	<g>
		<g>
			<path class="st1" d="M155.7946-23.5881c3.9429,16.9297,7.9172,33.9569,14.6952,49.9637
				c6.7779,16.0069,16.5718,31.0982,30.3565,41.6879c8.4859,6.5191,18.3658,11.2143,28.7795,13.6768
				c1.7715,0.4189,3.6561,0.7697,5.385,0.2c4.6175-1.5216,4.9142-7.8548,4.3234-12.6804
				c-1.0315-8.4237-2.0629-16.8476-3.0944-25.2713c5.2162,11.2141,11.6432,23.5422,23.4111,27.3475
				c9.082,2.9368,19.1065-0.1718,27.2936-5.0786c1.4087-0.8443,2.9335-1.9776,3.0487-3.6159
				c0.0831-1.1827-0.6124-2.2653-1.2982-3.2325c-8.1168-11.4465-19.0469-20.8825-31.5553-27.2422
				c12.6489,8.0489,31.4918,3.8235,39.4927-8.8559c3.5062-5.5565,4.8721-13.1271,1.2169-18.5868
				c-1.9487-2.9105-5.0515-4.8449-8.2302-6.3162c-8.4289-3.9013-18.0817-5.1051-27.2106-3.3933
				c9.5105-4.7154,19.0211-9.4309,28.5317-14.1463c0.8727-0.4327,1.8138-0.9359,2.1891-1.8348
				c0.3632-0.8697,0.0902-1.863-0.2203-2.7529c-5.3963-15.459-21.1311-25.5559-37.2616-28.3688s-32.6792,0.4967-48.4821,4.7826
				c-17.2195,4.6699-34.321,10.6119-49.2421,20.3934"/>
		</g>
		<g>
			<path class="st4" d="M248.4021,14.3799c-8.6166-6.0469-17.8386-11.2226-27.38-15.6515
				c-9.5441-4.4344-19.4813-7.9731-29.5802-10.7638c-10.1026-2.7906-20.3023-5.0251-30.5479-6.9168
				c-2.5711-0.4209-5.1368-0.8653-7.6961-1.3664c-2.5738-0.4021-5.1425-0.8549-7.7104-1.3595
				c-2.5791-0.4066-5.1563-0.8759-7.7383-1.4096c-2.5875-0.4687-5.1833-0.9288-7.7847-1.6063l-0.0583-0.0153
				c-0.8707-0.2268-1.3929-1.1167-1.1662-1.9875c0.1724-0.6613,0.7281-1.1212,1.3663-1.2051
				c2.6856-0.3501,5.3766-0.483,8.0763-0.6243c2.6901-0.0205,5.3848,0.0237,8.0779,0.1304
				c2.6831,0.1925,5.3655,0.4368,8.0427,0.7317c2.6642,0.3773,5.3223,0.811,7.9748,1.2688
				c10.587,1.9813,20.9521,5.0509,30.9653,8.9181c10.0171,3.8673,19.7475,8.34,29.2471,13.1971
				c9.5019,4.8627,18.6989,10.259,27.6965,15.9905c0.7481,0.4763,0.9689,1.4689,0.4924,2.2171
				c-0.476,0.7482-1.4689,0.9686-2.217,0.4924C248.4435,14.4082,248.4199,14.3923,248.4021,14.3799z"/>
		</g>
		<g>
			<g>
				<path class="st5" d="M266.4429,196.1155c7.4391,1.1386,14.6592-4.5744,17.3671-11.5961
					c2.7079-7.0217,1.8-14.9197-0.0657-22.2105c-0.9934-3.8823-2.3238-7.834-5.0584-10.7633
					c-5.7258-6.1333-16.3479-5.6171-22.8665-0.3342s-9.3626,14.0495-9.5351,22.4382c-0.1032,5.0183,0.6578,10.1358,2.9032,14.6248
					c2.2454,4.4891,6.0873,8.3012,10.8582,9.8607"/>
			</g>
			<g>
				<path class="st5" d="M221.3732,162.2451c4.2764-0.8054,8.5348-2.0084,12.2874-4.2117c3.7526-2.2033,6.9857-5.4905,8.5025-9.5692
					c1.2993-3.4936,1.2804-7.332,0.9835-11.0475c-0.3356-4.1997-1.0699-8.5386-3.4856-11.9903
					c-3.7747-5.3936-11.3283-7.4788-17.6192-5.5385c-6.2909,1.9403-11.1584,7.414-13.1988,13.6731
					c-2.0405,6.259-1.4665,13.1758,0.7196,19.3855c1.4129,4.0131,3.64,7.9644,7.2705,10.1824"/>
			</g>
			<g>
				<path class="st5" d="M145.409,85.2091c5.461,1.2992,11.3772-1.1904,15.0964-5.3949c3.7193-4.2044,5.4623-9.864,5.8896-15.4611
					c0.4272-5.5971-0.3571-11.208-1.1396-16.7665c-0.4769-3.3884-1.3044-7.2903-4.3607-8.8291
					c-1.1542-0.5811-2.4761-0.7227-3.7672-0.7767c-6.3537-0.2657-12.7755,1.4129-18.1866,4.7534
					c-1.8758,1.1581-3.6589,2.538-4.9338,4.3365c-2.3538,3.3207-2.7049,7.6286-2.7441,11.6987
					c-0.0413,4.2792,0.1735,8.5609,0.6426,12.8145c0.3522,3.1928,0.8749,6.4515,2.4565,9.2473s4.4317,5.0711,7.6431,5.1372"/>
			</g>
			<g>
				<path class="st5" d="M324.4635,160.7705c5.4447-1.5998,10.2639-5.5002,12.5648-10.6877s1.8776-11.5965-1.4395-16.201
					c-1.5356-2.1314-3.6049-3.8282-5.807-5.2605c-8.8649-5.7657-20.9969-7.2245-30.0265-1.7204
					c-2.4267,1.4792-4.6053,3.4471-6.0114,5.9169c-1.0601,1.862-1.6565,3.9636-1.9284,6.0889
					c-0.9867,7.713,2.5518,15.8394,8.8705,20.3714c6.3187,4.5321,15.1505,5.2782,22.14,1.8706"/>
			</g>
			<g>
				<path class="st5" d="M280.263,118.2206c6.5685-0.648,13.0147-3.3592,17.6628-8.0455s7.343-11.405,6.6438-17.9682
					s-4.9956-12.7593-11.1228-15.2132c-3.0981-1.2408-6.5117-1.5295-9.8415-1.3047c-8.2953,0.56-16.7007,4.6974-20.6633,12.0065
					c-3.2365,5.9697-3.1106,13.5289-0.0526,19.5921c3.058,6.0631,8.8628,10.5766,15.3829,12.4746"/>
			</g>
			<g>
				<path class="st5" d="M200.7763,42.8731c5.877-0.6933,11.864-1.4166,17.2478-3.8729c5.3839-2.4563,10.1657-6.9726,11.4053-12.759
					c0.5024-2.3455,0.407-4.7765,0.1935-7.1657c-0.2218-2.4824-0.5802-4.9954-1.6168-7.2619
					c-3.1951-6.9863-11.731-9.6779-19.3901-10.2744c-7.9998-0.623-16.8572,0.5488-22.3794,6.3702
					c-4.9038,5.1696-6.0429,13.3149-3.4703,19.9596c2.5727,6.6447,8.4712,11.7193,15.1905,14.0902"/>
			</g>
			<g>
				<path class="st5" d="M231.6277,74.825c8.2672,3.4532,18.1886,3.6477,25.9027-0.9089
					c7.7142-4.5565,12.451-14.3237,9.8693-22.9031c-0.5284-1.7557-1.3431-3.4422-2.5263-4.8429
					c-1.8356-2.1731-4.4398-3.5394-7.0521-4.6654c-8.0255-3.4594-17.6716-5.0243-25.2691-0.7052
					c-5.5526,3.1566-9.2437,9.3544-9.3743,15.7402c-0.1305,6.3858,3.3043,12.7292,8.7234,16.11"/>
			</g>
			<g>
				<path class="st5" d="M185.4249,125.2479c6.974-0.9277,13.5106-4.7877,17.6907-10.4467c1.2535-1.697,2.3172-3.5862,2.7182-5.6575
					c0.2947-1.5223,0.2224-3.0886,0.1477-4.6373c-0.2798-5.7986-0.7331-12.0233-4.381-16.5395
					c-2.7598-3.4167-7.0206-5.3445-11.3345-6.1696c-2.468-0.472-5.0778-0.6108-7.4447,0.2331
					c-2.6785,0.9551-4.767,3.0558-6.6951,5.1461c-3.1326,3.3961-6.1967,7.1105-7.3255,11.5907
					c-0.8353,3.3153-0.543,6.7979-0.2185,10.2014c0.3866,4.0547,0.8543,8.2436,2.8943,11.7689
					c2.04,3.5252,6.0944,6.2188,10.0821,5.3897"/>
			</g>
			<g>
				<g>
					<path class="st6" d="M276.9671,134.5017c-18.826-21.6699-43.2334-37.4527-62.6986-58.4894
						c-20.1454-21.7717-38.6102-45.8346-55.1828-70.4154c-9.4516-14.019-18.0985-28.5603-25.6028-43.716
						c-2.7485-5.551-11.053-0.6804-8.3107,4.8578c13.3443,26.9502,30.3728,51.7701,48.753,75.5046
						c9.1729,11.8449,18.5438,23.6005,28.4138,34.8746c9.6703,11.0459,20.3849,20.8775,31.5569,30.3738
						c12.6091,10.7179,25.3809,21.287,36.2654,33.8158C274.2308,145.9918,281.0141,139.1601,276.9671,134.5017L276.9671,134.5017z"
						/>
				</g>
			</g>
		</g>
		<g>
			<g>
				<path class="st7" d="M56.769-21.6054c13.0862,2.5908,25.6975,7.561,37.0328,14.5947
					c9.0586,5.621,17.2602,12.5136,25.167,19.6646c8.8467,8.001,17.4587,16.467,23.7765,26.5847
					c6.3177,10.1177,10.2259,22.1179,8.8866,33.9706c-0.1853,1.6396-0.5744,3.4444-1.9229,4.3954
					c-1.082,0.763-2.5065,0.7725-3.8299,0.7342c-8.2723-0.239-16.5236-1.203-24.6282-2.8773
					c13.3132,6.8301,22.2149,21.4973,22.1279,36.4601c-0.0114,1.9489-0.1736,3.9418-0.96,5.725
					c-0.8655,1.9624-2.434,3.5399-4.1616,4.811c-8.8407,6.5044-22.6915,4.6907-29.5594-3.8707
					c1.8048,7.3509,1.3618,15.2378-1.2548,22.3404c-2.2607,6.1364-6.4539,11.9357-12.5459,14.3137
					c-8.2815,3.2327-18.1716-0.9317-23.4527-8.0833c-5.2811-7.1514-6.6173-16.5598-5.9001-25.4209
					c0.7172-8.8611,3.2879-17.4501,5.1199-26.1494c-6.5123,6.0806-13.2771,11.8908-20.271,17.4105
					c-2.5965,2.0492-5.8664,4.174-8.9743,3.0416c-1.8854-0.687-3.1622-2.4266-4.2046-4.1412
					c-5.7003-9.3757-7.7573-20.4542-9.5891-31.2727c-1.6427-9.7015-3.1912-19.4647-3.2699-29.304
					C24.1371,24.0255,35.8576-3.1572,55.8561-21.7365"/>
			</g>
			<g>
				<path class="st4" d="M95.458,81.496c-6.3289-8.5881-12.3371-17.3977-17.8334-26.5478
					c-5.4906-9.1477-10.6133-18.5523-15.1514-28.2839c-4.5379-9.7277-8.3038-19.8606-10.9992-30.2887
					c-0.6366-2.6153-1.2498-5.2377-1.8069-7.8703c-0.4763-2.6509-0.9019-5.3107-1.2759-7.9743
					c-0.2893-2.6797-0.5162-5.3653-0.6783-8.0505c-0.0422-2.7028-0.0925-5.3967,0.0747-8.1
					c0.0554-0.8982,0.8285-1.5813,1.7267-1.5258c0.6821,0.0421,1.24,0.4981,1.4449,1.1083l0.0191,0.0586
					c0.8524,2.5492,1.4878,5.1079,2.1307,7.6576c0.7079,2.5398,1.3508,5.0793,1.9316,7.6247
					c0.6777,2.5279,1.3038,5.0597,1.8798,7.6004c0.6736,2.5195,1.2911,5.0491,1.8855,7.5858
					C61.3885,4.5835,64.31,14.6081,67.78,24.4981c3.4693,9.8863,7.6745,19.5603,12.7463,28.7815
					c5.0661,9.2185,10.8559,18.0684,17.4736,26.2545c0.5576,0.6897,0.4503,1.7009-0.2394,2.2584
					c-0.6898,0.5576-1.7009,0.4504-2.2584-0.2393C95.4885,81.536,95.4712,81.5135,95.458,81.496z"/>
			</g>
		</g>
	</g>
	<g>
		<path class="st3" d="M67.7207,189.9282c-12.7316-12.6717-24.7757-25.9887-35.7642-40.2117
			c-10.94-14.2402-21.2053-29.1059-30.1832-44.8555c-8.9884-15.7284-16.458-32.4522-21.6682-49.9027
			c-0.6143-2.1907-1.2214-4.3841-1.7932-6.5868c-0.5948-2.1964-1.1467-4.404-1.6856-6.6132
			c-0.8968-4.465-1.6943-8.9493-2.3892-13.4404c-0.513-4.5294-0.9023-9.0701-1.163-13.6062
			c-0.0511-4.5693-0.0107-9.1322,0.3739-13.6928c0.149-1.7671,1.7024-3.0788,3.4695-2.9299
			c1.2793,0.1079,2.3199,0.9518,2.7405,2.0801l0.054,0.1485c1.5734,4.2441,2.8027,8.4859,3.9403,12.7214
			c1.3234,4.2062,2.5185,8.4076,3.5897,12.6205c1.2772,4.1719,2.4517,8.3506,3.527,12.5485
			c0.6373,2.0745,1.2614,4.1508,1.8425,6.2382c0.6044,2.081,1.1728,4.1717,1.7351,6.2645
			c4.9482,16.6088,10.6133,33.053,17.4947,49.1257c6.8921,16.0511,15.2334,31.6228,25.4016,45.9775
			c10.1183,14.3709,21.6877,27.8056,34.8043,39.5303c1.2982,1.1605,1.4099,3.1536,0.2494,4.4518
			c-1.1603,1.2982-3.1534,1.4099-4.4518,0.2494C67.8054,190.0102,67.7582,189.9651,67.7207,189.9282z"/>
	</g>
</g>
<g id="Layer_2">
	<g id="flower3_1_">
		<g>
			<path class="st1" d="M1668.9969,233.4371c-5.9135,6.2389-17.9388,4.416-21.7378-3.2951c-0.6132-1.2445-1.05-2.6112-1.978-3.6424
				c-1.0511-1.168-2.5861-1.7473-3.9305-2.5605c-6.0559-3.663-7.5366-13.0776-2.8976-18.4227
				c2.0385-2.3487,5.1825-4.3851,5.0902-7.4936c-0.0681-2.2973-1.9426-4.0569-3.3882-5.8436
				c-2.0522-2.5362-3.4312-5.6121-3.9591-8.8316c-0.6835-4.1667,1.0438-9.5393,5.2401-10.0082
				c1.6992-0.1899,3.5669,0.4804,5.0509-0.3688c1.6868-0.9653,1.8784-3.2766,2.8262-4.9732
				c1.5372-2.7517,5.1738-3.7435,8.2678-3.1423c3.094,0.6011,5.7786,2.4496,8.3627,4.2543
				c3.6732-8.333,13.5767-14.6095,22.0021-11.1535c2.0284,0.8321,3.8253,2.1499,5.8334,3.0304
				c3.6045,1.5805,7.7808,1.7076,11.1794,3.6925c5.3239,3.1094,7.2145,10.8944,3.9098,16.0994
				c4.0527,1.7492,8.1921,3.7286,11.0065,7.1292c2.8143,3.4006,3.9165,8.6128,1.4178,12.2516
				c-0.64,0.9321-1.5171,1.8062-1.6086,2.9332c-0.0815,1.0046,0.4895,1.9281,0.8323,2.8759
				c1.4131,3.9072-1.1307,8.168-4.2206,10.9457c-3.09,2.7777-6.8829,4.8877-9.2007,8.3361
				c-2.0879,3.1064-2.7366,6.9559-4.453,10.282c-1.7163,3.3261-5.3348,6.306-8.9169,5.2202
				c-1.0685-0.3238-2.1648-0.9944-3.2191-0.6272c-1.1404,0.3971-1.5508,1.7653-2.3308,2.6871
				c-1.8405,2.1746-5.2861,1.5392-8.0128,0.713c-2.7275-0.8265-5.5214-1.6863-7.7812-3.4229
				c-2.2598-1.7367-3.9067-4.5662-3.4318-7.3765"/>
		</g>
		<g>
			<path class="st2" d="M1669.3566,207.056c2.0048,5.5848,8.9124,8.9865,14.4319,6.8087c5.5197-2.1777,8.1731-9.8068,4.8896-14.7492
				c-1.179-1.7747-2.9103-3.0963-4.6085-4.3832c-1.8008-1.3647-3.7512-2.7864-6.0079-2.9002
				c-2.6736-0.1349-5.1567,1.6886-6.495,4.007c-1.3383,2.3184-1.7236,5.0577-1.8962,7.7291"/>
		</g>
	</g>
	<g id="flower2">
		<g>
			<path class="st3" d="M1136.9121,50.1833c1.0381-8.3631,11.5886-13.9189,19.0717-10.0429c1.2078,0.6255,2.3474,1.45,3.6797,1.7241
				c1.5088,0.3105,3.057-0.1251,4.5912-0.2653c6.9097-0.6315,13.5541,5.9371,13.002,12.8536
				c-0.2427,3.0392-1.5396,6.475,0.3413,8.8745c1.3899,1.7733,3.8927,2.0717,6.0729,2.641c3.0946,0.8079,5.9718,2.4334,8.261,4.667
				c2.9628,2.8908,4.7246,8.1355,1.6857,10.9461c-1.2306,1.1382-3.0945,1.6955-3.7716,3.2289
				c-0.7698,1.7429,0.4232,3.6784,0.6622,5.5686c0.3873,3.0656-1.9059,5.9635-4.6973,7.2887
				c-2.7915,1.3251-5.9851,1.4277-9.0742,1.5064c1.9479,8.7129-2.2172,19.4262-10.8766,21.5992
				c-2.0848,0.5232-4.2694,0.5283-6.3662,1.0013c-3.7638,0.8492-7.1337,3.178-10.9702,3.5881
				c-6.0101,0.6426-12.0302-4.4015-12.4495-10.4313c-4.2158,0.9768-8.6338,1.8222-12.8326,0.7754
				c-4.199-1.0468-8.1003-4.5191-8.2449-8.8441c-0.037-1.1078,0.1469-2.3078-0.4364-3.2505
				c-0.5199-0.8402-1.5078-1.2369-2.3296-1.7855c-3.3877-2.2616-3.8583-7.1038-3.0355-11.0931
				c0.823-3.9893,2.5891-7.8606,2.4126-11.9301c-0.1589-3.6659-1.886-7.0811-2.4661-10.7044
				c-0.5801-3.6233,0.5426-8.0795,4.0009-9.306c1.0317-0.3659,2.287-0.4743,2.9055-1.3773c0.6689-0.9767,0.197-2.2951,0.2765-3.4762
				c0.1876-2.7867,3.2765-4.2894,5.9088-5.2231c2.6332-0.9342,5.3381-1.8807,8.1317-1.8245
				c2.7936,0.0562,5.739,1.3313,6.9988,3.8253"/>
		</g>
		<g>
			<path class="st0" d="M1151.9723,71.2121c-4.8303-3.2414-12.2603-1.9083-15.3496,3.0206
				c-3.0892,4.929-0.7462,12.4931,4.7197,14.4839c1.9628,0.7149,4.0977,0.7509,6.1863,0.7787
				c2.2151,0.0296,4.5812,0.017,6.4283-1.2056c2.1884-1.4486,3.0876-4.332,2.7952-6.94c-0.2924-2.608-1.5814-4.994-2.9989-7.2027"/>
		</g>
	</g>
	<g id="flower1">
		<g>
			<path class="st4" d="M861.72,157.2363c-2.1976,8.3104-13.6243,12.4775-20.6556,7.5325c-1.1348-0.798-2.1736-1.7878-3.4825-2.2478
				c-1.4825-0.5209-3.1071-0.2932-4.6769-0.3622c-7.0708-0.3104-12.8847-7.8618-11.3771-14.7769
				c0.6625-3.0386,2.4451-6.3332,0.8735-9.0168c-1.1615-1.9833-3.6501-2.6285-5.7756-3.5031
				c-3.017-1.2415-5.702-3.2795-7.7091-5.8514c-2.5977-3.3286-3.6583-8.8716-0.2008-11.2952
				c1.4001-0.9815,3.3605-1.2888,4.2554-2.7458c1.0173-1.6559,0.0771-3.7761,0.0953-5.7194
				c0.0294-3.1518,2.7451-5.7659,5.7485-6.7221c3.0034-0.9562,6.2455-0.6214,9.3784-0.2768
				c-0.7725-9.0739,4.9081-19.3307,13.959-20.3381c2.1791-0.2425,4.3878,0.0522,6.572-0.138
				c3.9209-0.3416,7.6469-2.2327,11.5809-2.1206c6.163,0.1756,11.5552,6.1004,11.1511,12.2527
				c4.3951-0.4084,8.9769-0.6564,13.0771,0.9782c4.1002,1.6345,7.5669,5.6798,7.1192,10.0712
				c-0.1147,1.1248-0.4653,2.3125-0.0051,3.3453c0.4102,0.9206,1.3541,1.4572,2.1095,2.1246
				c3.1136,2.751,2.9245,7.7099,1.545,11.6291c-1.3793,3.9192-3.6962,7.5897-4.0764,11.7271
				c-0.3426,3.7272,0.9342,7.4163,1.0229,11.1581c0.0887,3.7418-1.6577,8.0919-5.3215,8.8568
				c-1.0929,0.2281-2.3765,0.1655-3.1256,0.9932c-0.8102,0.8954-0.5143,2.2927-0.7568,3.4757
				c-0.5722,2.7909-3.9006,3.8855-6.6893,4.4681c-2.7899,0.5827-5.6539,1.1679-8.4697,0.7276
				c-2.8158-0.4403-5.6179-2.1335-6.5487-4.8274"/>
		</g>
		<g>
			<path class="st3" d="M849.385,133.9136c4.4372,3.9395,12.13,3.6121,15.9293-0.9457c3.7993-4.5578,2.4694-12.5249-2.7819-15.2875
				c-1.8856-0.992-4.0387-1.3215-6.146-1.6365c-2.2346-0.334-4.6279-0.6461-6.6628,0.336
				c-2.4108,1.1636-3.7155,3.9546-3.7781,6.6308c-0.0625,2.6762,0.9128,5.2648,2.0424,7.6918"/>
		</g>
	</g>
	<g id="flower4_1_">
		<g>
			<path class="st0" d="M101.6837,233.4371c5.9135,6.2389,17.9389,4.416,21.7379-3.2951c0.6131-1.2445,1.0501-2.6112,1.9781-3.6424
				c1.0511-1.168,2.586-1.7473,3.9305-2.5605c6.0559-3.663,7.5367-13.0776,2.8976-18.4227
				c-2.0384-2.3487-5.1826-4.3851-5.0903-7.4936c0.0682-2.2973,1.9426-4.0569,3.3883-5.8436
				c2.0521-2.5362,3.431-5.6121,3.959-8.8316c0.6833-4.1667-1.0438-9.5393-5.2401-10.0082
				c-1.6993-0.1899-3.5668,0.4804-5.0509-0.3688c-1.6867-0.9653-1.8784-3.2766-2.8263-4.9732
				c-1.5371-2.7517-5.1738-3.7435-8.2678-3.1423c-3.094,0.6011-5.7786,2.4496-8.3626,4.2543
				c-3.6733-8.333-13.5766-14.6095-22.0021-11.1535c-2.0285,0.8321-3.8253,2.1499-5.8334,3.0304
				c-3.6044,1.5805-7.7808,1.7076-11.1794,3.6925c-5.3239,3.1094-7.2146,10.8944-3.9099,16.0994
				c-4.0527,1.7492-8.1921,3.7286-11.0065,7.1292c-2.8143,3.4006-3.9165,8.6128-1.4179,12.2516
				c0.64,0.9321,1.5171,1.8062,1.6087,2.9332c0.0815,1.0046-0.4896,1.9281-0.8324,2.8759
				c-1.4131,3.9072,1.1308,8.168,4.2206,10.9457c3.0899,2.7777,6.8829,4.8877,9.2007,8.3361
				c2.0879,3.1064,2.7366,6.9559,4.453,10.282c1.7164,3.3262,5.3349,6.306,8.9169,5.2202c1.0684-0.3238,2.1649-0.9944,3.2192-0.6272
				c1.1404,0.3971,1.5506,1.7653,2.3307,2.6871c1.8405,2.1746,5.2862,1.5392,8.0128,0.713
				c2.7277-0.8265,5.5215-1.6863,7.7813-3.4229c2.2599-1.7367,3.9067-4.5662,3.4318-7.3765"/>
		</g>
		<g>
			<path class="st1" d="M101.3241,207.056c-2.0047,5.5848-8.9123,8.9865-14.4319,6.8087c-5.5196-2.1777-8.173-9.8068-4.8896-14.7492
				c1.179-1.7747,2.9104-3.0963,4.6085-4.3832c1.8009-1.3647,3.7513-2.7864,6.008-2.9002c2.6735-0.1349,5.1568,1.6886,6.4951,4.007
				c1.3382,2.3184,1.7236,5.0577,1.8962,7.7291"/>
		</g>
	</g>
</g>
</svg>
