<?xml version="1.0" encoding="utf-8"?>
<!-- Generator: Adobe Illustrator 23.0.1, SVG Export Plug-In . SVG Version: 6.00 Build 0)  -->
<svg version="1.1" id="Layer_1" xmlns="http://www.w3.org/2000/svg" xmlns:xlink="http://www.w3.org/1999/xlink" x="0px" y="0px"
	 viewBox="0 0 1776.1821 348.6426" style="enable-background:new 0 0 1776.1821 348.6426;" xml:space="preserve">
<style type="text/css">
	.st0{fill:#A5CAFA;}
	.st1{fill:#1177D0;}
	.st2{fill:#325ADA;}
	.st3{fill:#FF9C6E;}
	.st4{fill:#212D50;}
	.st5{fill:#6C757D;}
	.st6{fill:#6610EF;}
	.st7{fill:#6536CA;}
	.st8{fill:#FAA76C;}
	.st9{fill:#F09A82;}
	.st10{fill:#1856C3;}
	.st11{fill:#71B1FC;}
	.st12{fill:#9B6FEF;}
	.st13{fill:#F8F9FA;}
	.st14{fill:#EEEEEE;}
	.st15{fill-rule:evenodd;clip-rule:evenodd;fill:#F5BD5C;}
	.st16{fill-rule:evenodd;clip-rule:evenodd;fill:#B3D1DB;}
	.st17{fill-rule:evenodd;clip-rule:evenodd;fill:#73C4B8;}
	.st18{fill-rule:evenodd;clip-rule:evenodd;fill:#DE614A;}
	.st19{fill-rule:evenodd;clip-rule:evenodd;fill:#C9C729;}
	.st20{fill-rule:evenodd;clip-rule:evenodd;fill:#ACB8DE;}
	.st21{fill:#DE614A;}
	.st22{fill:url(#);}
	.st23{clip-path:url(#SVGID_2_);}
	.st24{fill:#FFD7E1;stroke:#FFFFFF;stroke-width:0.5;stroke-miterlimit:10;}
	.st25{fill:#745DCC;stroke:#FFFFFF;stroke-width:0.5;stroke-miterlimit:10;}
	.st26{fill:#FF9CAF;stroke:#FFFFFF;stroke-width:0.5;stroke-miterlimit:10;}
	.st27{fill:#CC6981;stroke:#FFFFFF;stroke-width:0.5;stroke-miterlimit:10;}
	.st28{fill:#F4CBD6;stroke:#FFFFFF;stroke-width:0.5;stroke-miterlimit:10;}
	.st29{fill:#473D84;stroke:#FFFFFF;stroke-width:0.5;stroke-miterlimit:10;}
	.st30{fill:#433D7A;stroke:#FFFFFF;stroke-width:0.5;stroke-miterlimit:10;}
	.st31{fill:#F74D6A;stroke:#FFFFFF;stroke-width:0.5;stroke-miterlimit:10;}
	.st32{fill:#CC3F5E;stroke:#FFFFFF;stroke-width:0.5;stroke-miterlimit:10;}
	.st33{fill:#FFFFFF;stroke:#FFFFFF;stroke-width:0.5;stroke-miterlimit:10;}
	.st34{fill:#6455BF;stroke:#FFFFFF;stroke-width:0.5;stroke-miterlimit:10;}
	.st35{fill:#FFFFFF;}
	.st36{fill:#AABFAD;}
	.st37{fill:none;}
	.st38{fill:#9A6FEE;}
	.st39{fill:#90D1F3;}
	.st40{fill:#0D529E;}
	.st41{fill:#FCBF29;}
	.st42{fill:#FFB954;}
	.st43{fill:#FEDA9B;}
	.st44{fill:#72D8FF;}
	.st45{fill:#FF5D5D;}
	.st46{fill:#4DBAF6;}
	.st47{fill:#D8D8E4;}
	.st48{fill:#C9F3FF;}
	.st49{fill:#F7F7F7;}
	.st50{fill:#C2CEE9;}
	.st51{fill:#FFA3BF;}
	.st52{fill:#FADE76;}
	.st53{fill:#FFC954;}
	.st54{fill:#FEE4BB;}
	.st55{fill:#262E30;}
	.st56{fill:#FF99BB;}
	.st57{fill-rule:evenodd;clip-rule:evenodd;fill:#C1EE92;}
	.st58{fill-rule:evenodd;clip-rule:evenodd;fill:#67E5DD;}
	.st59{fill-rule:evenodd;clip-rule:evenodd;fill:#FF5D5D;}
	.st60{clip-path:url(#SVGID_4_);fill-rule:evenodd;clip-rule:evenodd;fill:#FF8E8E;}
	.st61{clip-path:url(#SVGID_4_);fill-rule:evenodd;clip-rule:evenodd;}
	.st62{fill-rule:evenodd;clip-rule:evenodd;}
	.st63{fill:#1856C2;}
	.st64{fill:#6536C9;}
	.st65{fill:#325AD9;}
</style>
<g>
	<g>
		<path class="st63" d="M606.553,166.9081c-14.586-13.2386-29.1719-26.4771-43.7579-39.7157
			c-9.1049-8.2638-18.3563-16.7061-24.5406-27.3336c-10.4049-17.8803-11.2441-40.4315-23.2281-57.2942
			c-9.7707-13.7484-25.5002-21.7127-38.9185-31.9319c-15.8627-12.0808-28.734-27.5775-41.4567-42.9302
			c-6.3467-7.6587-12.7708-15.4396-16.8457-24.5133c-3.4586-7.7013-5.1049-16.0737-6.6225-24.3784
			c-11.4363-62.5831-17.0648-126.2263-16.7895-189.8452c14.6314,72.9641,65.4795,133.3262,120.7559,183.1495
			c11.4272,10.2999,23.2819,20.4889,31.6138,33.4213c6.5295,10.1349,10.659,21.6039,14.4172,33.0593
			c9.7393,29.6859,17.3622,60.066,22.7916,90.8333c2.9767,16.8685,5.3021,33.8854,9.6226,50.4606
			c5.912,22.6807,15.5591,44.3833,28.435,63.9685"/>
	</g>
	<g>
		<path class="st9" d="M622.6794,185.8556c6.4521-27.8001,3.6033-56.8559,6.5455-85.2429
			c3.6982-35.6811,16.5623-70.5709,14.4814-106.3827c-3.0754-52.9274-38.946-99.3438-82.461-129.6294
			c-23.4144-16.296-49.2027-28.8964-72.9886-44.6453c-37.9532-25.1293-70.5669-58.2817-95.071-96.6416
			c-7.867,13.0651-3.727,29.7654,0.8979,44.298c15.0706,47.3557,33.8337,95.1651,68.1502,131.1103
			c24.0694,25.2118,55.0473,43.7417,75.788,71.756c22.8921,30.9202,30.9089,70.0088,39.3332,107.5473
			s18.7198,76.5572,44.7291,104.9055"/>
	</g>
	<g>
		<path class="st64" d="M1501.5635-87.7308c13.7777,47.8784,18.1962,101.2139-3.4904,146.0677
			c-21.1191,43.6802-65.4452,76.5511-72.9421,124.4862c-2.0536-12.9108-13.5715-22.1443-18.5701-34.2242
			c-4.0277-9.7339-3.5737-20.6821-2.6147-31.1727c3.4388-37.6147,13.028-75.722,35.3588-106.1856
			c11.6396-15.8787,26.3776-29.2056,39.0474-44.2752c12.6697-15.0696,23.5563-32.7539,25.1842-52.3744"/>
	</g>
	<g>
		<path class="st0" d="M1335.8468,113.6327c6.3722-18.8635,10.7811-38.3294,16.5616-57.3826
			c11.0413-36.3936,27.6184-71.994,54.4043-98.9925s64.9819-44.4257,102.7327-39.8121
			c-11.2809,21.9666-22.5946,43.9893-36.316,64.5201c-37.1796,55.6309-90.4745,98.1655-142.8882,139.7579"/>
	</g>
	<g>
		<g>
			<path class="st9" d="M1653.1744,0.524c-4.2385,18.1992-8.5109,36.5032-15.797,53.7103
				c-7.2863,17.2072-17.8145,33.4301-32.6328,44.8139c-9.1222,7.0079-19.743,12.0552-30.9376,14.7024
				c-1.9043,0.4503-3.9303,0.8274-5.7888,0.215c-4.9636-1.6357-5.2827-8.4438-4.6476-13.6312
				c1.1089-9.0554,2.2177-18.1109,3.3264-27.1663c-5.6073,12.055-12.5162,25.3075-25.1666,29.3982
				c-9.7629,3.157-20.5391-0.1847-29.3402-5.4594c-1.5143-0.9076-3.1534-2.1259-3.2772-3.887
				c-0.0894-1.2714,0.6583-2.4352,1.3955-3.4749c8.7256-12.3048,20.4752-22.4484,33.9215-29.285
				c-13.5974,8.6525-33.8534,4.1102-42.4541-9.52c-3.7692-5.9732-5.2375-14.1115-1.3081-19.9806
				c2.0947-3.1288,5.4303-5.2082,8.8473-6.7898c9.0609-4.1938,19.4376-5.4879,29.251-3.6478
				c-10.2236-5.069-20.4474-10.1381-30.6711-15.2071c-0.9381-0.4651-1.9498-1.0061-2.3533-1.9724
				c-0.3904-0.9349-0.097-2.0027,0.2368-2.9593c5.8011-16.6182,22.7158-27.4722,40.0557-30.4961
				c17.34-3.0238,35.1298,0.534,52.1177,5.1412c18.5106,5.0201,36.8947,11.4076,52.9347,21.9226"/>
		</g>
		<g>
			<path class="st6" d="M1551.7042,38.4698c9.6726-6.1613,19.5593-11.9624,29.7737-17.1896
				c10.2117-5.2214,20.6719-10.0294,31.4402-14.1867c10.7639-4.157,21.9065-7.4568,33.2874-9.5868
				c2.8511-0.4921,5.7085-0.9583,8.5728-1.3639c2.8779-0.3172,5.7612-0.5797,8.6455-0.7866c2.895-0.1147,5.792-0.1622,8.6836-0.1402
				c2.9019,0.1519,5.7949,0.2947,8.6821,0.6711c0.959,0.1251,1.6353,1.0041,1.5103,1.9633
				c-0.0947,0.7284-0.6245,1.2936-1.2939,1.4687l-0.0645,0.0163c-2.7959,0.7282-5.5864,1.2229-8.3682,1.7267
				c-2.7754,0.5737-5.5459,1.0782-8.3184,1.5153c-2.7607,0.5424-5.522,1.0291-8.2886,1.4614
				c-2.7515,0.5387-5.5093,1.0164-8.2734,1.4689c-11.0137,2.0336-21.9785,4.4356-32.8386,7.4355
				c-10.8562,2.9998-21.5386,6.8039-31.7983,11.5709c-10.2566,4.761-20.1704,10.3248-29.4329,16.8251
				c-0.7805,0.5477-1.8572,0.359-2.4048-0.4214c-0.5476-0.7804-0.3589-1.857,0.4214-2.4047
				C1551.6588,38.4994,1551.6844,38.4824,1551.7042,38.4698z"/>
		</g>
		<g>
			<g>
				<path class="st11" d="M1534.2291,236.7024c-7.9969,1.224-15.7584-4.9174-18.6693-12.4657
					c-2.9109-7.5482-1.9349-16.0385,0.0706-23.876c1.0679-4.1734,2.4979-8.4214,5.4376-11.5704
					c6.1552-6.5932,17.5739-6.0383,24.5813-0.3592c7.0073,5.6791,10.0646,15.103,10.25,24.1208
					c0.111,5.3946-0.707,10.8958-3.1208,15.7215c-2.4138,4.8257-6.5438,8.9237-11.6724,10.6001"/>
			</g>
			<g>
				<path class="st11" d="M1582.6785,200.2921c-4.597-0.8658-9.1748-2.159-13.2087-4.5275
					c-4.0341-2.3685-7.5096-5.9022-9.1401-10.2867c-1.3967-3.7556-1.3765-7.8818-1.0573-11.8759
					c0.3608-4.5146,1.15-9.1789,3.7469-12.8894c4.0579-5.798,12.1779-8.0396,18.9404-5.9538s11.995,7.97,14.1885,14.6984
					c2.1935,6.7284,1.5765,14.1638-0.7736,20.8391c-1.5187,4.314-3.913,8.5616-7.8157,10.946"/>
			</g>
			<g>
				<path class="st11" d="M1664.339,117.4795c-5.8705,1.3966-12.2302-1.2797-16.2284-5.7994
					c-3.9982-4.5197-5.8719-10.6037-6.3312-16.6205c-0.4592-6.0168,0.3839-12.0484,1.225-18.0238
					c0.5128-3.6425,1.4023-7.837,4.6877-9.4912c1.2407-0.6247,2.6619-0.7769,4.0497-0.8349
					c6.8301-0.2856,13.7335,1.5188,19.5504,5.1098c2.0165,1.2449,3.9332,2.7283,5.3037,4.6617
					c2.5303,3.5697,2.9077,8.2006,2.95,12.5759c0.0443,4.6001-0.1865,9.2029-0.6909,13.7754
					c-0.3785,3.4322-0.9406,6.9353-2.6406,9.9407s-4.764,5.4514-8.2162,5.5224"/>
			</g>
			<g>
				<path class="st11" d="M1471.8579,198.707c-5.853-1.7198-11.0336-5.9126-13.507-11.4891
					c-2.4735-5.5765-2.0184-12.4661,1.5475-17.4158c1.6506-2.2912,3.8752-4.1153,6.2424-5.655
					c9.5297-6.1981,22.5714-7.7662,32.2782-1.8494c2.6086,1.5901,4.9506,3.7056,6.4622,6.3606
					c1.1395,2.0016,1.7808,4.2608,2.073,6.5455c1.0607,8.2914-2.7432,17.0271-9.5356,21.899
					c-6.7925,4.8719-16.2866,5.674-23.8002,2.0109"/>
			</g>
			<g>
				<path class="st11" d="M1519.3728,152.9664c-7.061-0.6966-13.9906-3.6111-18.9872-8.6488s-7.8937-12.2602-7.142-19.3156
					c0.7516-7.0554,5.3702-13.7161,11.9569-16.354c3.3303-1.3338,7-1.6442,10.5793-1.4025
					c8.9174,0.602,17.953,5.0497,22.2128,12.9068c3.4792,6.4174,3.3439,14.5434,0.0566,21.0612
					c-3.2874,6.5178-9.5275,11.3697-16.5364,13.41"/>
			</g>
			<g>
				<path class="st11" d="M1604.8198,71.9688c-6.3177-0.7453-12.7535-1.5228-18.5413-4.1633
					c-5.7876-2.6405-10.928-7.4954-12.2605-13.7158c-0.54-2.5214-0.4375-5.1347-0.208-7.703c0.2384-2.6685,0.6238-5.37,1.738-7.8064
					c3.4347-7.5102,12.6107-10.4036,20.8441-11.0448c8.5997-0.6697,18.1213,0.5899,24.0576,6.8479
					c5.2715,5.5572,6.496,14.3133,3.7305,21.4563c-2.7656,7.143-9.1063,12.5981-16.3296,15.1468"/>
			</g>
			<g>
				<path class="st11" d="M1571.655,106.3167c-8.8871,3.7121-19.5525,3.9212-27.8451-0.977
					c-8.2926-4.8982-13.3848-15.3978-10.6094-24.6205c0.568-1.8874,1.4438-3.7003,2.7157-5.2061
					c1.9733-2.3361,4.7727-3.8048,7.5809-5.0152c8.6273-3.7188,18.9967-5.4011,27.1639-0.7581
					c5.969,3.3933,9.9369,10.0558,10.0771,16.9205s-3.5521,13.6837-9.3776,17.318"/>
			</g>
			<g>
				<path class="st11" d="M1621.3224,160.5206c-7.4971-0.9973-14.5237-5.1467-19.0173-11.2301
					c-1.3475-1.8243-2.491-3.8551-2.922-6.0817c-0.3168-1.6364-0.239-3.3202-0.1587-4.985
					c0.3007-6.2334,0.7881-12.9249,4.7094-17.7797c2.9668-3.6729,7.5471-5.7453,12.1844-6.6322
					c2.6531-0.5074,5.4586-0.6566,8.0028,0.2506c2.8795,1.0267,5.1244,3.2849,7.1971,5.532
					c3.3674,3.6508,6.6614,7.6437,7.8749,12.4598c0.8978,3.5639,0.5836,7.3077,0.2349,10.9664
					c-0.4155,4.3587-0.9185,8.8618-3.1115,12.6514c-2.1931,3.7896-6.5514,6.6851-10.8381,5.7939"/>
			</g>
			<g>
				<g>
					<path class="st3" d="M1530.2319,177.7845c20.6353-23.7524,47.4486-41.0064,68.6388-64.2235
						c21.483-23.5381,41.3346-49.3072,59.1903-75.6886c10.3575-15.303,19.8306-31.1826,28.0323-47.747
						c2.9449-5.9477-5.9762-11.1958-8.934-5.2221c-14.2131,28.7051-32.2948,55.251-51.9075,80.512
						c-9.8759,12.7201-19.9592,25.366-30.6377,37.425c-10.2455,11.5701-21.6171,21.8542-33.3817,31.8444
						c-13.3383,11.3264-26.8085,22.5371-38.3167,35.7837C1518.5673,175.474,1525.8553,182.8223,1530.2319,177.7845
						L1530.2319,177.7845z"/>
				</g>
			</g>
		</g>
		<g>
			<g>
				<path class="st65" d="M1705.876,2.6553c-14.0675,2.7851-27.6245,8.128-39.8098,15.6891
					c-9.7379,6.0425-18.5544,13.452-27.0542,21.1392c-9.5101,8.601-18.7678,17.7018-25.5593,28.5782
					c-6.7916,10.8763-10.9928,23.7764-9.553,36.5179c0.1991,1.7625,0.6174,3.7027,2.067,4.725
					c1.1631,0.8202,2.6946,0.8304,4.1172,0.7893c8.8926-0.2569,17.7626-1.2932,26.475-3.0931
					c-14.3115,7.3423-23.8807,23.1093-23.7872,39.1941c0.0121,2.0951,0.1865,4.2374,1.032,6.1543
					c0.9304,2.1096,2.6165,3.8053,4.4736,5.1717c9.5035,6.9921,24.3931,5.0424,31.776-4.1609
					c-1.9402,7.9021-1.4639,16.3804,1.3489,24.0156c2.4302,6.5966,6.9379,12.8307,13.4866,15.387
					c8.9026,3.4751,19.5343-1.0016,25.2113-8.6894c5.6771-7.6877,7.1135-17.8015,6.3425-27.3271s-3.5344-18.7586-5.5038-28.1102
					c7.0006,6.5366,14.2726,12.7824,21.791,18.7161c2.7913,2.2029,6.3064,4.487,9.6473,3.2697
					c2.0267-0.7385,3.3993-2.6085,4.5199-4.4517c6.1278-10.0787,8.339-21.988,10.3082-33.6177
					c1.7659-10.429,3.4304-20.9243,3.515-31.5014c0.2346-29.3431-12.3646-58.5641-33.8629-78.5367"/>
			</g>
			<g>
				<path class="st6" d="M1661.5531,111.3789c7.1143-8.7999,13.3379-18.3134,18.7842-28.2232
					c5.4521-9.9126,9.9722-20.3121,13.7021-30.9397c3.73-10.6316,6.8706-21.4079,9.647-32.2583
					c0.6392-2.7269,1.3027-5.4462,2.0269-8.1546c0.6191-2.7312,1.2925-5.4528,2.021-8.1703
					c0.624-2.7364,1.3154-5.4663,2.0762-8.1965c0.6914-2.7409,1.374-5.4914,2.2905-8.2318l0.0205-0.0616
					c0.3071-0.9174,1.2993-1.4125,2.2168-1.1057c0.6968,0.2329,1.1494,0.8626,1.1929,1.5532
					c0.1797,2.906,0.1255,5.8018,0.0801,8.7074c-0.1743,2.8867-0.418,5.7737-0.729,8.6542
					c-0.4023,2.8634-0.8599,5.7226-1.3716,8.5723c-0.5991,2.83-1.2583,5.6491-1.9429,8.4605
					c-2.897,11.21-6.9458,22.1028-11.8237,32.5599c-4.8784,10.4613-10.3853,20.5711-16.2876,30.4048
					c-5.9087,9.8362-12.3672,19.3063-19.1709,28.5385c-0.5649,0.7677-1.646,0.9317-2.4136,0.3663
					c-0.7676-0.5654-0.9316-1.646-0.3662-2.4137C1661.5199,111.4214,1661.5385,111.3972,1661.5531,111.3789z"/>
			</g>
		</g>
	</g>
	<g>
		<path class="st0" d="M1673.5863,225.1235c14.1001-12.604,26.5371-27.046,37.4141-42.4945
			c10.9312-15.4311,19.8979-32.1704,27.3066-49.4252c7.3975-17.2779,13.4873-34.9552,18.8066-52.8095
			c0.6045-2.2498,1.2158-4.4972,1.8652-6.7343c0.625-2.2439,1.2959-4.4759,1.9805-6.706c1.1562-4.5127,2.4185-9.0048,3.7915-13.4895
			c1.1519-4.5288,2.4365-9.0454,3.8589-13.5669c1.2231-4.5531,2.5444-9.113,4.2358-13.6753l0.0581-0.1559
			c0.6626-1.7875,2.6489-2.6993,4.436-2.0367c1.2944,0.4798,2.1289,1.6569,2.2397,2.9465c0.4136,4.9026,0.457,9.8077,0.4019,14.7196
			c-0.2798,4.8763-0.6987,9.7575-1.25,14.6265c-0.7471,4.8279-1.604,9.6485-2.5684,14.4483
			c-0.5791,2.3749-1.1729,4.748-1.812,7.1091c-0.6147,2.3679-1.2671,4.7258-1.9277,7.0807
			c-5.6006,18.759-13.6309,36.7369-23.293,53.6447c-9.6514,16.9307-20.6865,32.9111-32.4468,48.2191
			c-11.8125,15.2895-24.7598,29.6051-38.4458,43.227c-1.3262,1.3212-3.4722,1.3174-4.793-0.0085
			c-1.3213-1.3259-1.3179-3.4719,0.0083-4.7931C1673.4935,225.2092,1673.5448,225.1613,1673.5863,225.1235z"/>
	</g>
	<g>
		<g>
			<path class="st6" d="M1641.7279,276.8226c-6.3569,6.7067-19.2841,4.7472-23.3679-3.5422
				c-0.6591-1.3378-1.1288-2.807-2.1263-3.9156c-1.1299-1.2556-2.7799-1.8783-4.2252-2.7525
				c-6.51-3.9377-8.1018-14.0582-3.1149-19.8042c2.1913-2.5248,5.5712-4.7139,5.4719-8.0555
				c-0.0732-2.4696-2.0883-4.3611-3.6423-6.2818c-2.2061-2.7264-3.6884-6.0329-4.256-9.4938
				c-0.7346-4.4791,1.1222-10.2546,5.6331-10.7587c1.8267-0.2041,3.8344,0.5164,5.4297-0.3965
				c1.8132-1.0377,2.0193-3.5223,3.0381-5.3461c1.6525-2.958,5.5618-4.0242,8.8878-3.3779c3.326,0.6462,6.2119,2.6333,8.9897,4.5733
				c3.9487-8.9579,14.5947-15.705,23.652-11.9898c2.1805,0.8945,4.1122,2.3111,6.2708,3.2576
				c3.8748,1.699,8.3643,1.8356,12.0177,3.9694c5.7231,3.3426,7.7555,11.7113,4.203,17.3066
				c4.3567,1.8804,8.8065,4.0082,11.8318,7.6638c3.0254,3.6556,4.2102,9.2586,1.5242,13.1703
				c-0.688,1.002-1.6309,1.9416-1.7292,3.1531c-0.0876,1.0799,0.5262,2.0727,0.8948,3.0916
				c1.519,4.2002-1.2156,8.7805-4.5371,11.7665c-3.3217,2.986-7.399,5.2542-9.8906,8.9612
				c-2.2445,3.3394-2.9418,7.4775-4.7869,11.053s-5.735,6.7788-9.5856,5.6116c-1.1486-0.3481-2.3271-1.069-3.4606-0.6743
				c-1.2258,0.4269-1.667,1.8977-2.5055,2.8886c-1.9785,2.3377-5.6826,1.6546-8.6136,0.7665
				c-2.9321-0.8885-5.9354-1.8127-8.3647-3.6796s-4.1997-4.9086-3.6892-7.9296"/>
		</g>
		<g>
			<path class="st0" d="M1642.1145,248.4632c2.155,6.0036,9.5806,9.6603,15.514,7.3193c5.9336-2.341,8.786-10.5422,5.2563-15.8552
				c-1.2675-1.9078-3.1285-3.3285-4.9541-4.7119c-1.9358-1.467-4.0326-2.9953-6.4585-3.1177
				c-2.874-0.145-5.5435,1.8152-6.9821,4.3075c-1.4386,2.4923-1.8529,5.437-2.0385,8.3087"/>
		</g>
	</g>
	<g>
		<path class="st6" d="M863.3192,134.2632c6.3291-17.8217,10.3176-36.4589,12.4543-55.2312
			c2.1924-18.7828,2.0339-37.7718,0.2612-56.4661c-1.7939-18.7091-4.9265-37.1417-8.8203-55.3601
			c-0.5483-2.2641-1.0898-4.5293-1.5925-6.8039c-0.5278-2.2687-1.0093-4.549-1.4775-6.8345
			c-1.1497-4.5144-2.196-9.0617-3.1416-13.6555c-1.1611-4.5264-2.1997-9.1058-3.1194-13.7558
			c-1.1101-4.5819-2.1372-9.217-2.8408-14.0316l-0.0239-0.1646c-0.2756-1.8863,1.03-3.639,2.9163-3.9146
			c1.3657-0.1996,2.6626,0.4332,3.3784,1.5116c2.7136,4.1039,5.104,8.3875,7.4111,12.7241
			c2.0925,4.4134,4.0659,8.8975,5.9167,13.4346c1.6597,4.5948,3.219,9.2361,4.6746,13.9104
			c0.6306,2.3618,1.2478,4.7288,1.8188,7.1073c0.5962,2.3726,1.1543,4.7546,1.7039,7.138
			c4.0806,19.1472,5.6553,38.7738,5.2842,58.2442c-0.3503,19.4852-2.3711,38.8001-5.3503,57.8727
			c-3.0339,19.0813-7.5308,37.8523-13.0088,56.3688c-0.53,1.7952-2.4148,2.8209-4.2102,2.291
			c-1.7952-0.53-2.8208-2.4149-2.291-4.2101C863.2786,134.3831,863.3006,134.3165,863.3192,134.2632z"/>
	</g>
	<g>
		<g>
			<path class="st6" d="M860.1536,194.9077c-2.3623,8.9336-14.6459,13.4131-22.2045,8.0973
				c-1.2199-0.8579-2.3366-1.9219-3.7436-2.4164c-1.5936-0.56-3.3401-0.3152-5.0276-0.3893
				c-7.601-0.3337-13.8509-8.4513-12.2302-15.885c0.7122-3.2664,2.6284-6.8081,0.939-9.6929
				c-1.2486-2.132-3.9238-2.8256-6.2086-3.7658c-3.2432-1.3346-6.1296-3.5254-8.2872-6.2902
				c-2.7925-3.5782-3.9327-9.5368-0.2159-12.1422c1.5051-1.0551,3.6124-1.3855,4.5745-2.9517
				c1.0936-1.7801,0.0829-4.0592,0.1024-6.1483c0.0316-3.3881,2.9509-6.1983,6.1795-7.2262
				c3.2286-1.0279,6.7138-0.668,10.0817-0.2976c-0.8304-9.7543,5.2762-20.7802,15.0057-21.8632
				c2.3425-0.2607,4.7168,0.0561,7.0649-0.1484c4.2149-0.3672,8.2202-2.4001,12.4493-2.2796
				c6.6251,0.1888,12.4216,6.5579,11.9873,13.1715c4.7247-0.439,9.65-0.7056,14.0577,1.0515s8.1343,6.1057,7.653,10.8264
				c-0.1233,1.2092-0.5001,2.4859-0.0055,3.5961c0.4409,0.9896,1.4557,1.5665,2.2677,2.2839
				c3.3471,2.9573,3.1438,8.288,1.6609,12.5011c-1.4828,4.2131-3.9733,8.1588-4.3821,12.6065
				c-0.3683,4.0067,1.0042,7.9724,1.0996,11.9948s-1.782,8.6987-5.7206,9.5209c-1.1748,0.2452-2.5547,0.1779-3.36,1.0677
				c-0.871,0.9625-0.5528,2.4646-0.8135,3.7363c-0.6151,3.0002-4.1931,4.1769-7.191,4.8031
				c-2.9991,0.6264-6.0778,1.2555-9.1048,0.7822c-3.027-0.4733-6.0392-2.2935-7.0398-5.1894"/>
		</g>
		<g>
			<path class="st0" d="M846.8937,169.8362c4.7699,4.2349,13.0396,3.883,17.1238-1.0166s2.6546-13.4641-2.9905-16.4339
				c-2.027-1.0664-4.3415-1.4206-6.6068-1.7592c-2.4022-0.359-4.975-0.6946-7.1625,0.3612
				c-2.5916,1.2509-3.9941,4.2511-4.0614,7.128c-0.0672,2.8769,0.9813,5.6596,2.1956,8.2686"/>
		</g>
	</g>
	<g>
		<g>
			<g>
				<path class="st2" d="M1305.8033,121.29c-3.0234-48.3333,25.7892-89.6271,52.3973-127.2192
					c4.4354-6.2663-5.8844-12.2204-10.2806-6.0093c-27.8337,39.3236-57.1809,82.7444-54.0229,133.2285
					C1294.3732,128.9007,1306.2828,128.9545,1305.8033,121.29L1305.8033,121.29z"/>
			</g>
		</g>
		<g>
			<g>
				<path class="st2" d="M1301.6505,28.8222c17.1566-12.5203,35.1993-23.714,54.0372-33.5245
					c6.7983-3.5405,0.7852-13.8192-6.0094-10.2807c-18.8378,9.8105-36.8806,21.0042-54.0372,33.5245
					C1289.5132,23.0135,1295.4475,33.349,1301.6505,28.8222L1301.6505,28.8222z"/>
			</g>
		</g>
		<g>
			<path class="st9" d="M1298.6536,127.4607c-6.1219,11.6962-16.3301,20.8482-27.5989,27.725
				c-5.4323,3.315-11.3497,6.2165-17.7,6.6328s-13.2225-2.13-16.4623-7.6075c-4.1451-7.0082-0.9825-16.5232,5.0782-21.9605
				c6.0608-5.4373,14.2605-7.709,22.2007-9.5121c12.1064-2.7492,24.8311-4.7909,36.8364-1.6294"/>
		</g>
		<g>
			<path class="st9" d="M1302.4152,122.2747c9.746,17.2122,13.8805,37.5435,11.6312,57.1951
				c-1.0475,9.151-3.6968,18.5993-10.2192,25.1026c-6.5226,6.5034-17.756,8.9269-25.095,3.3613
				c-4.0275-3.0542-6.3099-7.9751-7.1686-12.9561c-1.616-9.3753,1.3047-18.9087,4.7433-27.779
				c5.7354-14.7955,13.0212-28.9894,21.6997-42.2742"/>
		</g>
		<g>
			<path class="st9" d="M1306.5674,80.4551c0.0414,17.4981,6.7014,34.9015,18.3525,47.9567
				c3.6577,4.0985,7.8744,7.8366,12.9061,10.0408s10.9813,2.7292,15.9995,0.4943c9.1412-4.0712,12.4039-16.2367,9.3318-25.7603
				s-10.8448-16.7463-18.9231-22.6522c-9.7965-7.1621-20.5061-13.0741-31.787-17.5472"/>
		</g>
		<g>
			<path class="st9" d="M1320.3854,48.4875c9.8489,15.261,24.4891,27.3801,41.321,34.2053
				c2.4526,0.9946,5.0327,1.8928,7.6759,1.7578c4.6906-0.2396,8.5498-3.6082,11.9989-6.796
				c1.9451-1.7977,3.9452-3.6719,4.9812-6.1094c1.4454-3.4007,0.7391-7.434-1.1069-10.6349
				c-1.8461-3.2009-4.7064-5.6897-7.6873-7.8732c-14.8285-10.8621-34.1152-15.4331-52.2413-12.3811"/>
		</g>
		<g>
			<path class="st9" d="M1300.7682,30.8729c-1.9053,11.2049-6.7153,22.198-15.0801,29.8929
				c-8.3649,7.6949-20.5767,11.6208-31.5037,8.4934c-1.6727-0.4788-3.3584-1.149-4.5635-2.404
				c-1.5267-1.5898-2.0574-3.8643-2.4772-6.0281c-0.6295-3.2456-1.1481-6.5894-0.5634-9.8433
				c0.892-4.9636,4.299-9.1897,8.3856-12.1447c4.0867-2.955,8.8457-4.8117,13.5468-6.6373
				c6.2965-2.4452,12.5931-4.8903,18.8896-7.3355c3.8829-1.5078,8.0715-3.0402,12.1182-2.0527"/>
		</g>
		<g>
			<path class="st9" d="M1295.269,27.2581c-16.5344,6.3574-35.1526,7.1524-52.1688,2.2276c-3.5227-1.0195-7.2275-2.4667-9.22-5.5455
				c-1.855-2.8663-1.8212-6.5333-1.4996-9.9324c0.3643-3.8511,1.0613-7.7959,3.1489-11.0526
				c2.6915-4.1989,7.4674-6.7663,12.3834-7.6083c4.9159-0.842,9.9789-0.1207,14.8049,1.138
				c15.583,4.0641,29.5872,13.9108,38.684,27.1997"/>
		</g>
		<g>
			<g>
				<path class="st38" d="M1289.0957,193.8978c6.2581,0.9773,11.8949-1.6394,14.2789-7.7158
					c1.8011-4.5908,2.4309-12.0516-1.0048-16.0089c-4.2566-4.9027-11.5688-4.2478-15.9078,0.2054
					c-2.1074,2.1629-3.5566,4.9584-3.9751,7.9485c-0.2233,1.5951-0.187,3.1808,0.2411,4.7476
					c0.1788,0.6542,0.4432,1.7674,0.9021,2.2759c0.7108,0.7875-0.5314,0.8784,0.0991-0.7617
					c0.5103-0.8756,1.0206-1.7513,1.531-2.6269c-0.1414,0.1498-0.2827,0.2996-0.4241,0.4494
					c-5.2556,5.5716,3.1481,14.0068,8.4191,8.419c2.1014-2.2277,2.925-5.1197,2.1196-8.1159
					c-0.2799-0.7479-0.5824-1.4868-0.9072-2.2165c-0.4072-0.8891-0.4919-1.0294-0.254-0.4211
					c0.1233-0.5165,0.9033-1.2435,0.9595-1.5813c-0.1113,0.6686-2.2521-1.6964-2.3857-1.5166
					c-0.3999,0.5383-0.0205,2.7635-0.1306,3.4872c-0.0879,0.5784-0.2206,1.3858-0.5503,1.8585
					c-0.323,0.4631,0.1157,0.0863,0.1544,0.0923c-3.1729-0.4955-6.4031,0.8095-7.3231,4.1579
					C1284.1615,189.4002,1285.9003,193.3988,1289.0957,193.8978L1289.0957,193.8978z"/>
			</g>
		</g>
		<g>
			<g>
				<path class="st38" d="M1256.2882,149.4746c4.9501,1.9114,10.7751,1.2287,15.345-1.3955
					c4.7609-2.7338,9.0618-8.4203,7.6993-14.1904c-3.2329-13.6922-23.7341-4.1619-25.1537,6.0577
					c-0.4418,3.1804,0.7727,6.3929,4.1578,7.3231c2.783,0.7647,6.8779-0.9528,7.3231-4.1579
					c0.2264-1.63,0.7053-2.2166,2.2017-3.0714c0.5801-0.3315,1.9329-0.5431,2.3459-0.9274
					c1.0057-0.9361-1.8181-3.3224-2.7064-2.9724c-0.1042,0.0411-1.0563,1.1319-1.1985,1.2392
					c-0.6685,0.5047-1.4043,0.8229-2.2009,1.0453c-1.6716,0.4667-3.0308,0.1933-4.6482-0.4313c-3-1.1585-6.5317,1.278-7.323,4.1579
					C1251.2064,145.5139,1253.2772,148.312,1256.2882,149.4746L1256.2882,149.4746z"/>
			</g>
		</g>
		<g>
			<g>
				<path class="st38" d="M1272.1401,59.0738c5.2191-0.8297,9.8435-5.3461,9.5205-10.8386
					c-0.3992-6.7855-7.8269-11.1992-13.7606-7.3921c-4.6946,3.0122-8.903,8.348-7.3925,14.2526
					c1.7357,6.7848,9.6614,9.0506,14.8361,4.5651c2.4308-2.107,2.1594-6.2596,0-8.419c-2.4109-2.4109-5.9822-2.1122-8.4189,0
					c1.4164-1.2278,4.6874-1.5663,5.1229,0.9888c0.0688,0.404-0.1254,0.6464-0.1245,0.9626
					c0.3893-0.5973,0.4309-0.7026,0.1249-0.316c0.2738-0.3121,0.5627-0.6095,0.8669-0.8921
					c0.2758-0.2617,1.3551-1.1812,1.3429-1.1293c-0.3192,1.3584-5.3937-0.2693-4.3047-2.9301
					c0.3022-0.7384,1.1266-0.7686,0.2303-0.5645c1.1609-0.2644-0.9974,0.1981-1.2085,0.2317
					c-3.1779,0.5052-4.9419,4.4702-4.1578,7.323C1265.7472,58.3003,1268.9529,59.5804,1272.1401,59.0738L1272.1401,59.0738z"/>
			</g>
		</g>
		<g>
			<g>
				<path class="st38" d="M1253.9393,23.3532c5.5457,3.3251,13.3004,3.4033,17.1144-2.5739
					c3.9481-6.1873,0.312-12.3462-5.6599-15.1219c-5.6273-2.6156-13.3982-5.6762-17.344,1.1742
					c-3.5873,6.228,0.9069,11.9747,5.9817,15.3527c2.6774,1.7822,6.5891,0.5244,8.1449-2.1357
					c1.7063-2.9173,0.5481-6.3586-2.1356-8.145c-0.0613-0.0408-1.8153-1.2012-1.6863-1.3337
					c0.186-0.191,0.3658,1.2494,0.2522,1.6576c-0.5815,1.3664-1.6904,2.0994-3.3265,2.1992
					c0.5814,0.176,1.1586,0.3645,1.7318,0.5656c0.8069,0.2831,1.5948,0.5927,2.3726,0.9457
					c0.3511,0.1594,2.1531,1.3788,2.4569,1.2832c-1.3583,0.4276-0.6372-3.0208-0.64-3.0784
					c-0.0055-0.1092,0.3754-0.1291,0.3055-0.3132c0.1237,0.3262-1.7318-0.8611-1.5583-0.7571
					C1253.3608,9.1226,1247.3674,19.4128,1253.9393,23.3532L1253.9393,23.3532z"/>
			</g>
		</g>
		<g>
			<g>
				<path class="st38" d="M1343.4816,121.0128c10.1467-6.6718,2.1245-24.5877-9.1219-24.1708
					c-6.2074,0.2301-10.4355,5.8465-9.147,11.8826c1.1326,5.3055,5.7384,9.6648,10.3566,12.1317
					c6.7565,3.6091,12.7777-6.6653,6.0093-10.2807c-1.4799-0.7905-2.9296-1.7119-3.9722-3.0618
					c-0.0394-0.051-0.8097-1.2118-0.7493-1.241c-0.4982,0.2407-0.3969,2.0163-1.5018,2.3458
					c-0.0256,0.0076-1.3777,0.1521-1.1433-0.1426c0.0919-0.1154,0.931,1.1287,0.8773,1.048
					c0.4252,0.6381,0.7506,1.3635,1.0656,2.059c0.7246,1.6004-0.514,0.3533,1.3174-0.8509
					c-2.6835,1.7645-3.8195,5.2662-2.1356,8.145C1336.8965,121.5442,1340.7833,122.7869,1343.4816,121.0128L1343.4816,121.0128z"/>
			</g>
		</g>
		<g>
			<g>
				<path class="st38" d="M1355.2334,71.5437c5.7513,2.3552,13.2284-1.7727,14.8182-7.6153
					c1.8468-6.7867-4.4692-12.9107-10.698-14.0387c-5.684-1.0294-14.0127,0.8327-15.4078,7.3837
					c-1.3492,6.3359,5.7231,11.6971,10.7523,13.9838c2.9248,1.3299,6.4062,0.8371,8.145-2.1357
					c1.4949-2.5559,0.8052-6.8078-2.1357-8.145c-1.3226-0.6014-4.9474-2.247-5.2806-3.7031c0,1.0551,0,2.1101,0,3.1652
					c-0.3378,1.9553-1.542,0.8239,0.21,1.0191c0.8221,0.0916,1.5553,0.3016,2.3391,0.4318c-0.2048-0.034,0.7284,0.4377,0.6049,0.471
					c-0.2052,0.0552,0.5021-2.0915,0.4762-2.2345c-0.12-0.6614,0.4498,0.1269-0.4368,0.1322
					c-0.0946,0.0006,1.6788,0.5829-0.2216-0.1953c-2.9766-1.2189-6.5438,1.3221-7.3231,4.1579
					C1350.1378,67.6334,1352.2457,70.3203,1355.2334,71.5437L1355.2334,71.5437z"/>
			</g>
		</g>
	</g>
	<g>
		<path class="st64" d="M259.8987-89.4901c-13.7777,47.8784-18.1962,101.2139,3.4904,146.0677
			c21.1191,43.6802,65.4452,76.5511,72.9421,124.4862c2.0536-12.9109,13.5716-22.1444,18.57-34.2242
			c4.0278-9.7339,3.5738-20.6821,2.6147-31.1727c-3.4388-37.6147-13.028-75.722-35.3587-106.1856
			C310.5177-6.3973,295.7797-19.7242,283.11-34.7938s-23.5563-32.7539-25.1842-52.3744"/>
	</g>
	<g>
		<path class="st0" d="M425.6154,111.8734c-6.3723-18.8635-10.7812-38.3294-16.5616-57.3826
			c-11.0413-36.3936-27.6185-71.994-54.4044-98.9925c-26.7859-26.9986-64.9819-44.4257-102.7327-39.8121
			c11.2809,21.9666,22.5947,43.9893,36.316,64.5201c37.1797,55.6309,90.4745,98.1655,142.8883,139.7579"/>
	</g>
	<g>
		<g>
			<g>
				<path class="st2" d="M467.5651,119.5307c3.158-50.4841-26.1891-93.9049-54.0229-133.2285
					c-4.3915-6.2044-14.7205-0.2633-10.2807,6.0093c26.6084,37.5925,55.4208,78.8855,52.3974,127.2192
					C455.1802,127.1825,467.0883,127.154,467.5651,119.5307L467.5651,119.5307z"/>
			</g>
		</g>
		<g>
			<g>
				<path class="st2" d="M465.8211,16.7822c-17.1566-12.5203-35.1994-23.714-54.0373-33.5245
					c-6.7878-3.535-12.815,6.7364-6.0093,10.2807c18.8378,9.8105,36.8806,21.0042,54.0373,33.5245
					C466.0085,31.5851,471.9557,21.2591,465.8211,16.7822L465.8211,16.7822z"/>
			</g>
		</g>
		<g>
			<path class="st9" d="M462.8087,125.7014c6.1219,11.6962,16.33,20.8482,27.5989,27.725
				c5.4322,3.315,11.3497,6.2165,17.6999,6.6328c6.3502,0.4163,13.2226-2.13,16.4623-7.6075
				c4.1452-7.0082,0.9825-16.5232-5.0782-21.9605s-14.2605-7.709-22.2007-9.5121c-12.1064-2.7492-24.8311-4.7909-36.8364-1.6294"/>
		</g>
		<g>
			<path class="st9" d="M459.0471,120.5154c-9.746,17.2122-13.8806,37.5435-11.6312,57.1951
				c1.0474,9.151,3.6967,18.5993,10.2193,25.1026c6.5226,6.5034,17.7559,8.9269,25.095,3.3612
				c4.0274-3.0542,6.3099-7.975,7.1685-12.9561c1.6161-9.3753-1.3046-18.9086-4.7432-27.779
				c-5.7354-14.7955-13.0213-28.9894-21.6998-42.2741"/>
		</g>
		<g>
			<path class="st9" d="M454.8949,78.6958c-0.0414,17.4981-6.7015,34.9015-18.3526,47.9567
				c-3.6577,4.0985-7.8744,7.8366-12.9061,10.0408c-5.0317,2.2042-10.9814,2.7292-15.9995,0.4943
				c-9.1412-4.0712-12.404-16.2367-9.3318-25.7603c3.0722-9.5236,10.8449-16.7463,18.9231-22.6522
				c9.7965-7.1621,20.5061-13.0741,31.787-17.5472"/>
		</g>
		<g>
			<path class="st9" d="M441.0768,46.7282c-9.8488,15.261-24.489,27.3801-41.321,34.2053
				c-2.4527,0.9946-5.0327,1.8928-7.6759,1.7578c-4.6906-0.2396-8.5498-3.6082-11.9989-6.796
				c-1.945-1.7977-3.9451-3.6719-4.9812-6.1094c-1.4454-3.4007-0.7392-7.434,1.1069-10.6349
				c1.8461-3.2009,4.7065-5.6897,7.6873-7.8732c14.8285-10.8621,34.1152-15.4331,52.2413-12.3811"/>
		</g>
		<g>
			<path class="st9" d="M460.694,29.1136c1.9053,11.2049,6.7154,22.198,15.0801,29.8929s20.5766,11.6208,31.5036,8.4934
				c1.6728-0.4788,3.3584-1.149,4.5635-2.404c1.5266-1.5898,2.0574-3.8643,2.4771-6.0281c0.6296-3.2456,1.1481-6.5894,0.5634-9.8433
				c-0.892-4.9636-4.299-9.1897-8.3856-12.1447c-4.0866-2.955-8.8457-4.8117-13.5467-6.6373
				c-6.2966-2.4452-12.5931-4.8903-18.8897-7.3355c-3.8829-1.5078-8.0716-3.0402-12.1182-2.0527"/>
		</g>
		<g>
			<path class="st9" d="M466.1932,25.4988c16.5344,6.3574,35.1526,7.1524,52.1688,2.2276c3.5228-1.0195,7.2276-2.4667,9.2201-5.5455
				c1.855-2.8663,1.8211-6.5333,1.4996-9.9324c-0.3643-3.8511-1.0613-7.7959-3.1489-11.0526
				c-2.6915-4.1989-7.4675-6.7663-12.3834-7.6083s-9.9789-0.1207-14.805,1.138c-15.5831,4.0641-29.5871,13.9108-38.684,27.1997"/>
		</g>
		<g>
			<g>
				<path class="st38" d="M469.2014,180.6576c0.3003-0.0469,0.1594,0.2231,0.1544-0.0923
					c-0.0062-0.3855-0.4795-1.3932-0.5503-1.8585c-0.1101-0.7238,0.2693-2.9489-0.1306-3.4872
					c-0.1336-0.1798-2.2744,2.1852-2.3858,1.5166c0.0562,0.3378,0.8362,1.0648,0.9595,1.5813
					c0.2379-0.6083,0.1532-0.4679-0.254,0.4211c-0.3249,0.7298-0.6273,1.4686-0.9073,2.2165
					c-0.8053,2.9962,0.0183,5.8882,2.1197,8.1159c5.2687,5.5854,13.6769-2.845,8.419-8.419
					c-0.1413-0.1498-0.2826-0.2996-0.424-0.4494c0.5103,0.8756,1.0207,1.7513,1.531,2.6269
					c0.1531,0.3984-0.4593,1.2148-0.0766,1.1516c0.2383-0.0393,0.8912-2.0129,0.9514-2.2019
					c0.4511-1.4157,0.5846-2.9464,0.4738-4.4202c-0.2357-3.1351-1.6752-6.1299-3.7893-8.4378
					c-4.2953-4.6888-11.8242-5.5475-16.1999-0.5074c-3.3472,3.8554-2.8274,11.0988-1.1608,15.6229
					c2.3138,6.2809,7.9865,9.1089,14.4349,8.1018c3.1793-0.4965,4.9402-4.4763,4.1579-7.3231
					C475.5925,181.4243,472.3901,180.1596,469.2014,180.6576L469.2014,180.6576z"/>
			</g>
		</g>
		<g>
			<g>
				<path class="st38" d="M502.0089,136.2344c-1.6175,0.6246-2.9765,0.898-4.6482,0.4313c-0.7966-0.2224-1.5324-0.5406-2.201-1.0453
					c-0.1422-0.1073-1.0942-1.1981-1.1985-1.2392c-0.8882-0.35-3.7121,2.0363-2.7063,2.9724
					c0.413,0.3844,1.7658,0.596,2.3459,0.9274c1.4963,0.8549,1.9752,1.4414,2.2016,3.0714c0.4428,3.1876,4.5136,4.93,7.3231,4.1579
					c3.4326-0.9433,4.6021-4.1255,4.1579-7.3231c-1.4195-10.2185-21.9313-19.7483-25.1537-6.0577
					c-1.3367,5.6792,2.7726,11.1475,7.36,13.981c4.58,2.8289,10.6441,3.5511,15.6842,1.6048
					c2.9975-1.1575,5.0707-4.0015,4.1579-7.323C508.5446,137.5276,505.0244,135.0699,502.0089,136.2344L502.0089,136.2344z"/>
			</g>
		</g>
		<g>
			<g>
				<path class="st38" d="M492.4872,45.8335c-0.211-0.0336-2.3693-0.4961-1.2086-0.2317c-0.9437-0.215-0.1613-0.208,0.1553,0.3406
					c1.6077,2.7855-3.9268,4.4428-4.2296,3.1539c-0.0122-0.0519,1.0672,0.8675,1.343,1.1293c0.3042,0.2826,0.5932,0.58,0.867,0.8921
					c-0.2393-0.3079-0.2495-0.2918-0.0308,0.0483c0.205,0.3522,0.2075,0.357,0.0074,0.0142
					c-0.0594-0.2383-0.0515-0.4746,0.0237-0.709c0.4062-2.5722,3.7324-2.1942,5.123-0.9888c-2.4281-2.1047-6.0316-2.3874-8.419,0
					c-2.1514,2.1514-2.4398,6.3041,0,8.419c5.0169,4.3487,12.9355,2.3776,14.777-4.265c1.6487-5.9473-2.501-11.5485-7.3334-14.5526
					c-5.7088-3.5489-12.7183,0.1085-13.6542,6.6008c-0.8345,5.7889,3.8774,10.7498,9.4141,11.6299
					c3.1715,0.5042,6.4047-0.8155,7.3231-4.1579C497.4234,50.3243,495.6811,46.3413,492.4872,45.8335L492.4872,45.8335z"/>
			</g>
		</g>
		<g>
			<g>
				<path class="st38" d="M501.5136,11.3132c0.1734-0.104-1.682,1.0833-1.5583,0.7571c-0.0591,0.1558,0.2393,0.19,0.2289,0.2512
					c0.0116-0.0679,0.8899,3.598-0.5634,3.1405c0.3038,0.0956,2.1057-1.1238,2.4568-1.2832
					c0.7777-0.353,1.5657-0.6627,2.3726-0.9457c0.5732-0.2011,1.1504-0.3896,1.7317-0.5656
					c-1.4297-0.0144-2.4172-0.56-2.9626-1.6366c-0.071-0.1141-0.7153-2.8399-0.1117-2.2202
					c0.1291,0.1325-1.6249,1.2929-1.6862,1.3337c-2.6733,1.7795-3.826,5.2551-2.1357,8.145
					c1.5527,2.6547,5.4566,3.9253,8.145,2.1357c4.9856-3.3187,9.4846-8.9072,6.1161-15.0993
					c-3.8643-7.1034-11.73-4.0995-17.4785-1.4276c-5.7755,2.6845-9.618,8.7228-5.8358,14.8393
					c3.8083,6.1587,11.5648,6.2893,17.2903,2.8565C514.0876,17.6578,508.1079,7.3594,501.5136,11.3132L501.5136,11.3132z"/>
			</g>
		</g>
		<g>
			<g>
				<path class="st38" d="M423.99,108.9728c1.8314,1.2042,0.5928,2.4513,1.3174,0.8509c0.3145-0.6946,0.6386-1.4231,1.0656-2.059
					c-0.026,0.0388,0.7444-1.2176,0.8772-1.048c0.2336,0.2983-1.1178,0.1502-1.1432,0.1426
					c-1.1319-0.3374-0.976-2.0739-1.5018-2.3458c0.0789,0.0408-0.6599,1.126-0.7493,1.241
					c-1.0491,1.3488-2.4887,2.2693-3.9722,3.0618c-6.761,3.6115-0.7538,13.8933,6.0093,10.2807
					c4.4962-2.4017,9.0553-6.6395,10.2749-11.775c1.4546-6.1249-2.6498-12.0202-9.0653-12.2393
					c-11.2353-0.3837-19.288,17.4863-9.1219,24.1708c2.6873,1.767,6.5827,0.5354,8.145-2.1357
					C427.8246,114.2133,426.6838,110.744,423.99,108.9728L423.99,108.9728z"/>
			</g>
		</g>
		<g>
			<g>
				<path class="st38" d="M403.0637,58.3035c-0.674,0.276-1.0137,0.2781-0.13,0.231c-0.1408,0.0075-0.8168-0.4004-0.8178-0.4595
					c0.193,0.1944,0.386,0.3888,0.579,0.5833c0.0371,0.6838,0.0743,1.3677,0.1114,2.0515
					c-0.0359-0.0073,0.6495-0.5749,0.6801-0.5796c0.6457-0.0999,1.1931-0.4504,1.9107-0.4355
					c-0.2332-0.0048,1.2133,0.0774,0.9527,0.1359c1.1288-0.2535,0.2463,2.0942-0.3143-1.1512c0-1.055,0-2.1101,0-3.1652
					c-0.3346,1.4618-3.9489,3.0976-5.2806,3.7031c-2.9269,1.3309-3.6405,5.5723-2.1357,8.145
					c1.7596,3.0084,5.207,3.4716,8.145,2.1357c4.9669-2.2584,11.3357-7.1243,10.8586-13.1925
					c-0.5573-7.0878-9.7524-9.2697-15.5142-8.175c-6.1121,1.1612-12.2586,6.9084-10.7871,13.6212
					c1.3323,6.0778,9.0276,10.4406,14.9074,8.0328c2.9732-1.2175,5.0829-3.957,4.1579-7.3231
					C409.6131,59.6464,406.0571,57.0777,403.0637,58.3035L403.0637,58.3035z"/>
			</g>
		</g>
	</g>
	<g>
		<path class="st0" d="M1223.347,157.949c15.1772-35.1385,26.8801-71.9541,32.2318-109.8543
			c3.5468-25.1181,4.288-50.5372,5.024-75.8938c0.6322-21.7768,1.2626-43.6168-0.7288-65.3116
			c-4.2917-46.7556-20.709-91.7505-42.4426-133.3696s-48.7583-80.2072-75.7002-118.6602c-2.6636,2.0796-2.6833,6.0456-2.2982,9.4028
			c4.5055,39.2766,30.2433,72.4082,45.0682,109.0575c14.4607,35.7485,18.4462,75.6624,11.3396,113.5644
			c-5.276,28.1399-16.4127,54.7796-25.2656,82.0067c-8.853,27.2271-15.5027,56.023-11.379,84.3547
			c5.9215,40.6831,33.4333,75.2944,65.3593,101.1963"/>
	</g>
	<g>
		<path class="st8" d="M1194.6801-230.1774c8.0021,51.476,9.3214,103.9869,3.9148,155.7998
			c-1.3593,13.0257-3.2065,26.2383-8.7144,38.1203c-4.0261,8.6857-9.8776,16.3721-14.9758,24.4751
			c-6.2473,9.9293-11.4078,20.5842-14.7948,31.8158c-8.1184,26.9214-5.7565,55.6881-6.0005,83.8059
			c-0.2441,28.1178-3.8633,57.9752-21.4303,79.9314c0.8671-18.975,1.7198-38.1623-1.89-56.8109
			c-3.1251-16.144-9.5112-31.4415-14.4988-47.1106c-15.5912-48.9825-17.3363-102.2907-4.9819-152.188
			c2.8636-11.5659,6.4753-22.9712,11.3236-33.8553c4.6498-10.4381,10.4087-20.3385,16.1554-30.2152
			c7.5657-13.0028,15.1312-26.0056,22.6969-39.0084c10.76-18.4929,21.5377-37.0134,33.8735-54.4945"/>
	</g>
	<g>
		<g>
			<g>
				<path class="st65" d="M665.8224-50.6658c12.759,6.5466,24.3239,15.412,33.9597,26.0328
					c7.7006,8.4877,14.1393,18.0361,20.1972,27.7646c6.7779,10.8848,13.1757,22.1808,16.7141,34.5056
					c3.5383,12.3247,4.0297,25.8828-0.8588,37.737c-0.6762,1.6398-1.6121,3.3901-3.2869,3.9743
					c-1.3438,0.4687-2.819,0.0574-4.1754-0.3734c-8.4791-2.6927-16.722-6.1285-24.6034-10.2551
					c11.7404,10.9951,16.6042,28.7859,12.0906,44.2247c-0.5879,2.0109-1.3447,4.0227-2.6848,5.6332
					c-1.4747,1.7724-3.5621,2.939-5.7234,3.7419c-11.0601,4.1087-24.8392-1.8608-29.4062-12.7397
					c-0.308,8.131-3.0976,16.1514-7.9017,22.7185c-4.1507,5.6739-10.1992,10.4278-17.1984,11.0845
					c-9.5149,0.8927-18.5054-6.3354-21.8492-15.288c-3.3439-8.9526-1.9433-19.0714,1.4177-28.0176s8.5572-17.0632,13.0225-25.5125
					c-8.5284,4.3591-17.2377,8.3642-26.0981,12.0013c-3.2894,1.3503-7.2971,2.5795-10.1744,0.4903
					c-1.7455-1.2674-2.5508-3.4428-3.1213-5.5231c-3.1196-11.3753-1.9702-23.4335-0.665-35.1563
					c1.1705-10.5125,2.4565-21.0609,5.2841-31.2533c7.8445-28.2761,27.9944-52.9051,54.1566-66.1949"/>
			</g>
			<g>
				<path class="st6" d="M675.3272,67.331c-4.0022-10.7473-7.6072-21.6285-10.5828-32.7104
					c-2.9702-11.0777-5.4841-22.3122-7.2976-33.7118c-1.8137-11.3954-2.7102-22.9815-2.4128-34.5561
					c0.115-2.8913,0.2566-5.7829,0.459-8.6685c0.2917-2.8805,0.6382-5.7553,1.0391-8.6189c0.4932-2.855,1.0525-5.6978,1.679-8.5211
					c0.7554-2.806,1.5-5.605,2.4719-8.3495c0.323-0.9119,1.324-1.3894,2.2358-1.0665c0.6924,0.2452,1.1343,0.8814,1.1655,1.5726
					l0.0024,0.0662c0.1274,2.8867,0.0276,5.719-0.0615,8.5443c-0.0195,2.8342-0.1057,5.649-0.2581,8.4515
					c-0.0469,2.813-0.1484,5.6148-0.3042,8.4109c-0.0488,2.8031-0.1584,5.6001-0.2939,8.3976
					c-0.3147,11.1955-0.259,22.4201,0.4031,33.6675c0.6631,11.2435,2.1489,22.4852,4.6648,33.515
					c2.5107,11.0255,5.8779,21.8838,10.2974,32.3008c0.3723,0.8777-0.0374,1.891-0.915,2.2634
					c-0.8774,0.3724-1.8909-0.0373-2.2632-0.915C675.3467,67.3815,675.3355,67.353,675.3272,67.331z"/>
			</g>
		</g>
	</g>
	<g>
		<g>
			<path class="st9" d="M1058.184-39.7648c-17.1237,7.4802-34.3444,15.0126-49.938,25.309
				C992.6523-4.1595,978.6166,9.1455,970.12,25.7883c-5.2305,10.2454-8.2604,21.6074-8.8259,33.0968
				c-0.0962,1.9544-0.0982,4.0153,0.8422,5.7312c2.5118,4.583,9.2642,3.6577,14.2495,2.0889
				c8.7024-2.7385,17.4047-5.4769,26.1071-8.2154c-10.8331,7.7078-22.6068,16.9134-24.3266,30.097
				c-1.3273,10.1745,3.9199,20.1625,10.7084,27.8565c1.1681,1.3238,2.6644,2.7139,4.4186,2.515
				c1.2665-0.1436,2.2747-1.0905,3.1629-2.0047c10.5111-10.8194,18.3468-24.219,22.6218-38.685
				c-6.0331,14.9451,2.1201,34.036,17.088,40.0123c6.5594,2.619,14.8291,2.5816,19.885-2.3503
				c2.6953-2.6292,4.1328-6.2875,5.066-9.9354c2.4746-9.6729,1.8584-20.1118-1.7371-29.4264
				c6.8452,9.1304,13.6904,18.2607,20.5355,27.3911c0.6282,0.8378,1.3442,1.7342,2.3678,1.955
				c0.9904,0.2137,1.9869-0.2691,2.8667-0.7715c15.2848-8.7288,22.8789-27.3365,22.6963-44.9372
				c-0.1827-17.6007-6.9189-34.4457-14.5411-50.3114c-8.3054-17.2878-17.9321-34.2021-31.1909-48.0604"/>
		</g>
		<g>
			<path class="st6" d="M1036.17,65.5527c4.7058-10.2908,8.3723-21.0518,11.187-32.0036
				c2.8198-10.956,4.6162-22.1523,5.5898-33.3732c0.9734-11.2248,1.3394-22.4435,1.3345-33.6435
				c-0.0581-2.8001-0.0903-5.5992-0.0613-8.4025c-0.0786-2.7994-0.1025-5.6029-0.0718-8.4161
				c-0.0747-2.8057-0.083-5.6217-0.0239-8.4554c-0.011-2.8267-0.0325-5.6606,0.1748-8.5427l0.0046-0.0648
				c0.0693-0.9649,0.9077-1.6909,1.8726-1.6215c0.7327,0.0527,1.3276,0.5501,1.5413,1.2083c0.8955,2.7704,1.5623,5.5889,2.24,8.4147
				c0.5479,2.8395,1.0286,5.6967,1.4426,8.5643c0.3215,2.8736,0.5881,5.7569,0.8,8.6443c0.1223,2.8901,0.1841,5.7846,0.2192,8.6779
				c-0.0229,11.5784-1.2397,23.1353-3.3682,34.4761c-2.1279,11.3451-4.9519,22.5057-8.2273,33.497
				c-3.281,10.9953-7.1855,21.7726-11.4836,32.4051c-0.3569,0.884-1.363,1.3112-2.2471,0.9542
				c-0.884-0.3571-1.3113-1.3631-0.9541-2.2471C1036.1481,65.6022,1036.1603,65.5741,1036.17,65.5527z"/>
		</g>
	</g>
	<g>
		<g>
			<path class="st11" d="M731.8872,121.3462c4.7926,6.5176,14.6242,7.6579,22.0181,4.3748
				c7.3939-3.2831,12.7038-9.9796,16.8239-16.9419c2.1939-3.7074,4.1843-7.7234,4.33-12.0289
				c0.3049-9.0146-8.1658-16.6918-17.137-17.6263c-8.9713-0.9344-17.7943,3.5722-24.2986,9.8212
				c-3.8909,3.7382-7.2001,8.2084-8.9028,13.3284c-1.7028,5.12-1.677,10.938,0.7667,15.7486"/>
		</g>
		<g>
			<path class="st11" d="M723.342,61.346c3.8643,2.6363,8.0169,4.9566,12.5447,6.1318s9.4841,1.1315,13.7364-0.8181
				c3.6423-1.67,6.5441-4.6035,9.141-7.6549c2.9353-3.4491,5.6733-7.3067,6.4584-11.7672
				c1.2267-6.9698-2.934-14.2943-9.1924-17.5979s-14.119-2.8385-20.4259,0.3716c-6.307,3.2101-11.1253,8.9065-14.1802,15.2901
				c-1.9743,4.1254-3.2823,8.8226-2.2064,13.2677"/>
		</g>
		<g>
			<path class="st11" d="M802.8664,138.5443c5.3564,2.9197,11.9847,3.6146,17.6757,1.4173
				c5.691-2.1972,10.2382-7.3932,11.2134-13.4151c0.4515-2.7876,0.1667-5.6503-0.42-8.4126
				c-2.3617-11.1199-10.4803-21.4463-21.5294-24.1202c-2.9693-0.7186-6.1213-0.877-9.067-0.067
				c-2.2209,0.6107-4.2711,1.756-6.0925,3.1658c-6.6102,5.1165-10.0928,13.9851-8.7302,22.2323
				c1.3625,8.2472,7.5126,15.5245,15.4171,18.2429"/>
		</g>
		<g>
			<path class="st11" d="M801.5763,72.6034c5.4879,4.4974,12.4503,7.3327,19.5455,7.2999
				c7.0952-0.0328,14.2493-3.0953,18.7037-8.6181c4.4544-5.5228,5.8942-13.4993,3.0984-20.0205
				c-1.4136-3.2973-3.7905-6.1103-6.4936-8.469c-6.7343-5.8762-16.2702-9.1153-24.8368-6.5669
				c-6.9969,2.0814-12.644,7.9261-14.9246,14.8606c-2.2806,6.9345-1.2947,14.7772,2.2221,21.1741"/>
		</g>
		<g>
			<path class="st11" d="M797.5558,2.6501c3.664,8.907,11.062,16.5924,20.3906,18.9876s20.3516-1.4344,24.9059-9.9208
				c0.932-1.7367,1.5936-3.6383,1.7579-5.6025c0.2549-3.0473-0.6877-6.0648-1.819-8.9058
				c-3.4756-8.7281-9.6229-17.2467-18.6824-19.7338c-6.6212-1.8177-14.1369,0.0916-19.0876,4.8492
				c-4.9507,4.7576-7.1575,12.1914-5.6046,18.8796"/>
		</g>
		<g>
			<path class="st11" d="M724.1095,5.8974c6.0089,4.5928,13.9126,6.623,21.3911,5.4949c2.2427-0.3383,4.4868-0.967,6.3655-2.2377
				c1.3806-0.9338,2.5156-2.18,3.6353-3.4146c4.1925-4.6226,8.5768-9.7012,9.2335-15.9072
				c0.4968-4.6952-1.2791-9.3984-3.9332-13.3032c-1.5184-2.234-3.3979-4.3223-5.8391-5.4786
				c-2.7628-1.3086-5.947-1.2975-9.0014-1.1726c-4.9625,0.203-10.1149,0.7-14.377,3.2498c-3.154,1.8868-5.5776,4.7576-7.9164,7.5926
				c-2.7864,3.3774-5.6132,6.9187-6.7398,11.1497s-0.0895,9.3596,3.5731,11.7587"/>
		</g>
		<g>
			<g>
				<path class="st3" d="M786.7004,82.4846c1.4406-20.8675-1.1462-41.6087-2.5916-62.3976
					c-1.4001-20.1363-0.3127-39.9268,1.7155-59.9827c4.0337-39.8879,10.0374-79.7404,22.8774-117.8496
					c2.1307-6.3241-7.8587-9.0376-9.9769-2.7505c-12.9289,38.3731-18.9351,78.5493-23.0543,118.7074
					c-2.1216,20.6837-3.3528,41.0978-1.9081,61.8755c1.4454,20.7889,4.0322,41.5301,2.5917,62.3976
					C775.8951,89.1302,786.2437,89.1017,786.7004,82.4846L786.7004,82.4846z"/>
			</g>
		</g>
	</g>
	<g>
		<path class="st6" d="M1012.2748,197.2906c0.4347-16.3301,0.8694-32.6603,1.3041-48.9904
			c0.7634-28.6785,1.519-57.5095-2.3875-85.931c-7.6672-55.7824-33.1667-109.3741-30.2721-165.6065
			c0.7586-14.7365,3.4799-29.4053,2.7982-44.1456c-1.4577-31.517-19.1257-61.3335-44.643-79.8893s-58.1788-26.1957-89.6177-23.5405
			c22.4653,15.9803,45.6818,32.7871,58.9301,56.9645c16.6953,30.468,14.8031,67.2192,14.5967,101.961
			c-0.134,22.5564,0.632,45.1182,2.2955,67.6136c0.8884,12.0135,2.0524,24.1105,5.609,35.6197
			c4.001,12.9472,10.9056,24.7654,17.4321,36.6414c25.9395,47.2008,46.7236,97.2324,61.864,148.9193"/>
	</g>
	<g>
		<path class="st0" d="M1010.1099,197.5101c-29.9609-26.8621-69.8489-56.0954-95.2336-87.3179
			c-7.5336-9.2661-14.7017-18.9993-19.3955-29.9804C879.32,42.404,895.1946-1.1107,891.043-42.0174
			c-3.3381-32.8906-19.6073-63.2948-23.9925-96.0623c-2.5533-19.079-1.0071-38.458-2.1216-57.6748
			c-1.1144-19.2168-5.2981-39.133-17.5105-54.0121c14.1567,2.665,35.025,10.743,44.0946,21.9348
			c32.784,40.4552,45.2174,74.6383,55.2324,125.7374c9.7597,49.7967,7.9532,119.5979,30.4511,165.0821
			c5.6159,11.3537,12.8656,21.9098,17.5342,33.6848c5.4069,13.6368,7.1569,28.4014,8.8592,42.9719
			C1005.8516,159.0015,1012.8951,178.2213,1010.1099,197.5101"/>
	</g>
	<g>
		<g>
			<path class="st63" d="M1161.5511,39.0266c1.116-8.9902,12.4576-14.9626,20.5018-10.796
				c1.2982,0.6724,2.5234,1.5587,3.9556,1.8534c1.6219,0.3338,3.2863-0.1345,4.9354-0.2852
				c7.4279-0.6788,14.5704,6.3823,13.9769,13.8175c-0.2609,3.2671-1.655,6.9605,0.3669,9.54
				c1.4941,1.9063,4.1846,2.2271,6.5282,2.839c3.3267,0.8685,6.4197,2.6159,8.8805,5.017c3.1849,3.1076,5.0789,8.7455,1.812,11.7669
				c-1.3229,1.2235-3.3264,1.8226-4.0543,3.471c-0.8275,1.8736,0.455,3.9542,0.7118,5.9862
				c0.4164,3.2955-2.0487,6.4107-5.0494,7.8352c-3.0009,1.4245-6.434,1.5348-9.7546,1.6194
				c2.0939,9.3662-2.3834,20.8829-11.6923,23.2188c-2.2411,0.5624-4.5895,0.5679-6.8435,1.0764
				c-4.046,0.9129-7.6686,3.4163-11.7928,3.8572c-6.4608,0.6908-12.9323-4.7316-13.3831-11.2135
				c-4.5319,1.05-9.2811,1.9588-13.7949,0.8335s-8.7078-4.858-8.863-9.5073c-0.0398-1.1909,0.1578-2.4809-0.4692-3.4942
				c-0.5588-0.9032-1.6208-1.3297-2.5043-1.9194c-3.6417-2.4312-4.1476-7.6365-3.2631-11.9249
				c0.8846-4.2885,2.7832-8.45,2.5935-12.8247c-0.1709-3.9408-2.0275-7.6121-2.651-11.5071s0.5833-8.6854,4.3009-10.0038
				c1.109-0.3933,2.4584-0.5099,3.1233-1.4806c0.7191-1.0499,0.2118-2.4672,0.2972-3.7369c0.2017-2.9957,3.5222-4.611,6.3519-5.6148
				c2.8307-1.0043,5.7384-2.0217,8.7415-1.9613s6.1694,1.4311,7.5236,4.1122"/>
		</g>
		<g>
			<path class="st0" d="M1177.7406,61.6323c-5.1925-3.4845-13.1796-2.0514-16.5006,3.2471
				c-3.3209,5.2986-0.8021,13.4299,5.0736,15.57c2.11,0.7685,4.405,0.8072,6.6503,0.8371c2.3811,0.0318,4.9247,0.0183,6.9103-1.296
				c2.3525-1.5572,3.3192-4.6568,3.0049-7.4604s-1.7001-5.3685-3.2239-7.7428"/>
		</g>
	</g>
	<g>
		<g>
			<path class="st9" d="M112.0434,0.524c4.2386,18.1992,8.5109,36.5032,15.7971,53.7103
				c7.2862,17.2072,17.8144,33.4301,32.6328,44.8139c9.1222,7.0079,19.743,12.0552,30.9376,14.7024
				c1.9043,0.4503,3.9303,0.8274,5.7888,0.215c4.9637-1.6357,5.2827-8.4438,4.6476-13.6312
				c-1.1088-9.0554-2.2176-18.1109-3.3264-27.1663c5.6073,12.055,12.5163,25.3075,25.1666,29.3982
				c9.763,3.157,20.5392-0.1847,29.3402-5.4594c1.5143-0.9076,3.1535-2.1259,3.2773-3.887
				c0.0893-1.2714-0.6583-2.4352-1.3956-3.4749c-8.7255-12.3048-20.4752-22.4484-33.9215-29.285
				c13.5974,8.6525,33.8533,4.1102,42.4541-9.52c3.7691-5.9732,5.2375-14.1115,1.3082-19.9806
				c-2.0948-3.1288-5.4303-5.2082-8.8473-6.7898c-9.0609-4.1938-19.4376-5.4879-29.251-3.6478
				c10.2237-5.069,20.4474-10.1381,30.6712-15.2071c0.9381-0.4651,1.9498-1.0061,2.3533-1.9724
				c0.3904-0.9349,0.097-2.0027-0.2368-2.9593c-5.801-16.6182-22.7157-27.4722-40.0557-30.4961s-35.1297,0.534-52.1176,5.1412
				c-18.5107,5.0201-36.8946,11.4076-52.9346,21.9226"/>
		</g>
		<g>
			<path class="st6" d="M211.5952,41.339c-9.2627-6.5003-19.1763-12.0641-29.4331-16.8251
				c-10.2598-4.7669-20.9421-8.571-31.7983-11.5709c-10.8601-2.9999-21.8247-5.4019-32.8386-7.4355
				c-2.7639-0.4525-5.522-0.9302-8.2732-1.4689c-2.7668-0.4323-5.5281-0.919-8.2886-1.4614
				c-2.7725-0.4371-5.543-0.9416-8.3186-1.5153c-2.7815-0.5038-5.572-0.9984-8.3684-1.7267l-0.0627-0.0164
				c-0.936-0.2438-1.4973-1.2004-1.2537-2.1365c0.1853-0.7109,0.7827-1.2053,1.4688-1.2955
				c2.887-0.3764,5.7798-0.5192,8.6819-0.6711c2.8918-0.022,5.7886,0.0255,8.6836,0.1402c2.8843,0.2069,5.7678,0.4695,8.6458,0.7866
				c2.864,0.4056,5.7214,0.8718,8.5728,1.3639c11.3809,2.1299,22.5232,5.4297,33.2873,9.5868
				c10.7683,4.1573,21.2283,8.9654,31.4402,14.1867c10.2144,5.2273,20.1011,11.0283,29.7734,17.1896
				c0.8042,0.512,1.0415,1.579,0.5293,2.3833c-0.5117,0.8043-1.5791,1.0412-2.3833,0.5293
				C211.6396,41.3695,211.6143,41.3524,211.5952,41.339z"/>
		</g>
		<g>
			<g>
				<path class="st11" d="M230.9888,236.7024c7.9969,1.224,15.7585-4.9174,18.6694-12.4657
					c2.9109-7.5482,1.9349-16.0385-0.0706-23.876c-1.0679-4.1734-2.498-8.4214-5.4377-11.5704
					c-6.1551-6.5932-17.5738-6.0383-24.5812-0.3592s-10.0647,15.103-10.2501,24.1208c-0.1109,5.3946,0.7071,10.8958,3.1209,15.7215
					c2.4138,4.8257,6.5438,8.9237,11.6724,10.6001"/>
			</g>
			<g>
				<path class="st11" d="M182.5395,200.2921c4.5971-0.8658,9.1748-2.159,13.2088-4.5275c4.034-2.3685,7.5095-5.9022,9.1401-10.2867
					c1.3967-3.7556,1.3764-7.8818,1.0572-11.8759c-0.3608-4.5146-1.1501-9.1789-3.747-12.8894
					c-4.0578-5.798-12.1778-8.0396-18.9404-5.9538s-11.9951,7.97-14.1885,14.6984c-2.1935,6.7284-1.5765,14.1638,0.7736,20.8391
					c1.5188,4.314,3.9129,8.5616,7.8157,10.946"/>
			</g>
			<g>
				<path class="st11" d="M100.879,117.4795c5.8705,1.3966,12.2303-1.2797,16.2284-5.7994
					c3.9982-4.5197,5.8719-10.6037,6.3312-16.6205c0.4592-6.0168-0.3839-12.0484-1.2251-18.0238
					c-0.5127-3.6425-1.4022-7.837-4.6877-9.4912c-1.2407-0.6247-2.6618-0.7769-4.0497-0.8349
					c-6.8301-0.2856-13.7335,1.5188-19.5504,5.1098c-2.0165,1.2449-3.9333,2.7283-5.3038,4.6617
					c-2.5303,3.5697-2.9077,8.2006-2.9499,12.5759c-0.0444,4.6001,0.1865,9.2029,0.6908,13.7754
					c0.3786,3.4322,0.9405,6.9353,2.6407,9.9407s4.764,5.4514,8.2162,5.5224"/>
			</g>
			<g>
				<path class="st11" d="M293.3601,198.707c5.853-1.7198,11.0335-5.9126,13.507-11.4891s2.0184-12.4661-1.5475-17.4158
					c-1.6507-2.2912-3.8752-4.1153-6.2425-5.655c-9.5296-6.1981-22.5714-7.7662-32.2781-1.8494
					c-2.6086,1.5901-4.9506,3.7056-6.4621,6.3606c-1.1396,2.0016-1.7807,4.2608-2.073,6.5455
					c-1.0607,8.2914,2.7432,17.0271,9.5356,21.899c6.7925,4.8719,16.2866,5.674,23.8002,2.0109"/>
			</g>
			<g>
				<path class="st11" d="M245.8452,152.9664c7.061-0.6966,13.9906-3.6111,18.9872-8.6488s7.8936-12.2602,7.142-19.3156
					c-0.7516-7.0554-5.3702-13.7161-11.9569-16.354c-3.3304-1.3338-7-1.6442-10.5794-1.4025
					c-8.9173,0.602-17.953,5.0497-22.2128,12.9068c-3.4792,6.4174-3.3439,14.5434-0.0566,21.0612s9.5274,11.3697,16.5364,13.41"/>
			</g>
			<g>
				<path class="st11" d="M160.3981,71.9688c6.3177-0.7453,12.7536-1.5228,18.5412-4.1633
					c5.7876-2.6405,10.928-7.4954,12.2605-13.7158c0.5401-2.5214,0.4375-5.1347,0.208-7.703
					c-0.2384-2.6685-0.6237-5.37-1.738-7.8064c-3.4347-7.5102-12.6107-10.4036-20.8441-11.0448
					c-8.5997-0.6697-18.1213,0.5899-24.0576,6.8479c-5.2715,5.5572-6.496,14.3133-3.7305,21.4563
					c2.7656,7.143,9.1064,12.5981,16.3296,15.1468"/>
			</g>
			<g>
				<path class="st11" d="M193.5629,106.3167c8.8871,3.7121,19.5525,3.9212,27.8451-0.977
					c8.2926-4.8982,13.3847-15.3978,10.6093-24.6205c-0.568-1.8874-1.4438-3.7003-2.7157-5.2061
					c-1.9732-2.3361-4.7727-3.8048-7.5809-5.0152c-8.6273-3.7188-18.9967-5.4011-27.1639-0.7581
					c-5.969,3.3933-9.9369,10.0558-10.0772,16.9205s3.5521,13.6837,9.3775,17.318"/>
			</g>
			<g>
				<path class="st11" d="M143.8955,160.5206c7.497-0.9973,14.5237-5.1467,19.0173-11.2301c1.3475-1.8243,2.491-3.8551,2.922-6.0817
					c0.3168-1.6364,0.2391-3.3202,0.1588-4.985c-0.3008-6.2334-0.7881-12.9249-4.7095-17.7797
					c-2.9667-3.6729-7.547-5.7453-12.1844-6.6322c-2.6531-0.5074-5.4586-0.6566-8.0029,0.2506
					c-2.8794,1.0267-5.1244,3.2849-7.1971,5.532c-3.3675,3.6508-6.6614,7.6437-7.8748,12.4598
					c-0.8979,3.5639-0.5837,7.3077-0.2349,10.9664c0.4156,4.3587,0.9184,8.8618,3.1114,12.6514
					c2.193,3.7896,6.5514,6.6851,10.8381,5.7939"/>
			</g>
			<g>
				<g>
					<path class="st3" d="M242.3021,170.4684c-20.2377-23.2948-46.4753-40.2612-67.4001-62.8753
						c-21.656-23.4043-41.5054-49.2716-59.3208-75.6956C105.4208,16.8273,96.1255,1.1956,88.0585-15.0966
						c-2.9546-5.9672-11.8818-0.7314-8.9339,5.2221c14.3449,28.9711,32.6504,55.6522,52.4088,81.1664
						c9.8607,12.7331,19.9343,25.3702,30.5445,37.4897c10.3955,11.8742,21.9135,22.443,33.9233,32.6514
						c13.5546,11.5216,27.2841,22.8832,38.9848,36.3515C239.3607,182.8201,246.6526,175.4761,242.3021,170.4684L242.3021,170.4684z"
						/>
				</g>
			</g>
		</g>
		<g>
			<g>
				<path class="st65" d="M59.3419,2.6553c14.0675,2.7851,27.6245,8.128,39.8098,15.6891
					c9.7379,6.0425,18.5545,13.452,27.0542,21.1392c9.5101,8.601,18.7679,17.7018,25.5594,28.5782s10.9927,23.7764,9.553,36.5179
					c-0.1992,1.7625-0.6175,3.7027-2.0671,4.725c-1.1631,0.8202-2.6945,0.8304-4.1171,0.7893
					c-8.8926-0.2569-17.7626-1.2932-26.475-3.0931c14.3115,7.3423,23.8807,23.1093,23.7872,39.1941
					c-0.0122,2.0951-0.1866,4.2374-1.032,6.1543c-0.9304,2.1096-2.6165,3.8053-4.4737,5.1717
					c-9.5036,6.9921-24.3931,5.0424-31.7759-4.1609c1.9401,7.9021,1.4639,16.3804-1.3489,24.0156
					c-2.4302,6.5966-6.9379,12.8307-13.4867,15.387c-8.9025,3.4751-19.5342-1.0016-25.2113-8.6894
					c-5.6771-7.6877-7.1135-17.8015-6.3425-27.3271s3.5344-18.7586,5.5038-28.1102c-7.0006,6.5366-14.2727,12.7824-21.7911,18.7161
					c-2.7912,2.2029-6.3063,4.487-9.6473,3.2697c-2.0268-0.7385-3.3993-2.6085-4.5199-4.4517
					c-6.1277-10.0787-8.339-21.988-10.3082-33.6177c-1.7659-10.429-3.4305-20.9243-3.5151-31.5014
					C24.2631,51.7079,36.8624,22.4869,58.3606,2.5144"/>
			</g>
			<g>
				<path class="st6" d="M100.9321,113.4879c-6.8035-9.2321-13.2622-18.7023-19.1707-28.5385
					c-5.9023-9.8337-11.4092-19.9435-16.2876-30.4048c-4.8782-10.4571-8.9265-21.3499-11.824-32.5599
					c-0.6843-2.8114-1.3435-5.6305-1.9424-8.4605c-0.512-2.8497-0.9695-5.7089-1.3716-8.5723
					c-0.311-2.8806-0.5549-5.7676-0.7292-8.6542c-0.0454-2.9055-0.0994-5.8014,0.0803-8.7074
					c0.0596-0.9655,0.8906-1.6999,1.8562-1.6402c0.7332,0.0453,1.333,0.5354,1.5532,1.1914l0.0205,0.063
					c0.9163,2.7404,1.5994,5.4909,2.2905,8.2318c0.761,2.7303,1.4521,5.4602,2.0764,8.1965
					c0.7285,2.7175,1.4016,5.4391,2.0208,8.1703c0.7241,2.7084,1.3879,5.4277,2.0269,8.1546
					c2.7764,10.8504,5.917,21.6267,9.6472,32.2583c3.7295,10.6276,8.25,21.0271,13.7021,30.9397
					c5.446,9.9098,11.6699,19.4233,18.7839,28.2232c0.5994,0.7414,0.4841,1.8284-0.2573,2.4277
					c-0.7415,0.5994-1.8284,0.4842-2.4277-0.2572C100.9649,113.531,100.9463,113.5067,100.9321,113.4879z"/>
			</g>
		</g>
	</g>
	<g>
		<path class="st0" d="M86.9802,230.0511c-13.6863-13.6219-26.6335-27.9375-38.446-43.227
			c-11.7603-15.308-22.7954-31.2884-32.4465-48.2191c-9.6624-16.9078-17.6921-34.8857-23.293-53.6447
			c-0.6604-2.355-1.313-4.7129-1.9277-7.0807c-0.6394-2.3611-1.2327-4.7342-1.812-7.1091
			c-0.9641-4.7998-1.8213-9.6204-2.5684-14.4483c-0.5515-4.869-0.97-9.7502-1.2502-14.6265
			c-0.0549-4.9119-0.0115-9.817,0.4019-14.7196c0.1602-1.8996,1.8301-3.3097,3.7297-3.1496c1.3752,0.116,2.4939,1.0232,2.946,2.2361
			l0.0581,0.1596c1.6914,4.5624,3.0129,9.1222,4.2358,13.6753c1.4226,4.5216,2.7073,9.0381,3.8589,13.5669
			c1.373,4.4847,2.6355,8.9768,3.7915,13.4895c0.6851,2.2301,1.356,4.4621,1.9807,6.706c0.6497,2.2371,1.2607,4.4845,1.8652,6.7343
			c5.3193,17.8542,11.4092,35.5315,18.8066,52.8095c7.4089,17.2547,16.3757,33.9941,27.3064,49.4252
			c10.877,15.4485,23.314,29.8906,37.4141,42.4945c1.3955,1.2475,1.5156,3.3901,0.2681,4.7856
			c-1.2473,1.3955-3.3899,1.5156-4.7856,0.2681C87.0713,230.1392,87.0205,230.0908,86.9802,230.0511z"/>
	</g>
	<g>
		<g>
			<path class="st6" d="M123.49,276.8226c6.3569,6.7067,19.2841,4.7472,23.3679-3.5422c0.6591-1.3378,1.1288-2.807,2.1264-3.9156
				c1.1299-1.2556,2.7799-1.8783,4.2252-2.7525c6.51-3.9377,8.1018-14.0582,3.1149-19.8042
				c-2.1913-2.5248-5.5712-4.7139-5.472-8.0555c0.0733-2.4696,2.0883-4.3611,3.6424-6.2818
				c2.206-2.7264,3.6883-6.0329,4.2559-9.4938c0.7346-4.4791-1.1221-10.2546-5.633-10.7587
				c-1.8267-0.2041-3.8343,0.5164-5.4296-0.3965c-1.8132-1.0377-2.0193-3.5223-3.0382-5.3461
				c-1.6524-2.958-5.5618-4.0242-8.8878-3.3779c-3.326,0.6462-6.2119,2.6333-8.9897,4.5733
				c-3.9488-8.9579-14.5947-15.705-23.652-11.9898c-2.1806,0.8945-4.1122,2.3111-6.2708,3.2576
				c-3.8747,1.699-8.3643,1.8356-12.0177,3.9694c-5.7231,3.3426-7.7556,11.7113-4.2031,17.3066
				c-4.3566,1.8804-8.8064,4.0082-11.8318,7.6638c-3.0253,3.6556-4.2102,9.2586-1.5242,13.1703
				c0.688,1.002,1.6309,1.9416,1.7293,3.1531c0.0876,1.0799-0.5263,2.0727-0.8948,3.0916
				c-1.5191,4.2002,1.2156,8.7805,4.5371,11.7665c3.3216,2.986,7.399,5.2542,9.8906,8.9612
				c2.2445,3.3394,2.9418,7.4775,4.7869,11.053c1.8451,3.5756,5.735,6.7788,9.5856,5.6116c1.1485-0.3481,2.3272-1.069,3.4606-0.6743
				c1.2259,0.4269,1.6669,1.8977,2.5055,2.8886c1.9785,2.3377,5.6826,1.6546,8.6136,0.7665
				c2.9322-0.8885,5.9355-1.8127,8.3648-3.6796c2.4294-1.8669,4.1997-4.9086,3.6891-7.9296"/>
		</g>
		<g>
			<path class="st0" d="M123.1034,248.4632c-2.155,6.0036-9.5806,9.6603-15.5141,7.3193
				c-5.9335-2.341-8.7859-10.5422-5.2563-15.8552c1.2674-1.9078,3.1286-3.3285,4.9541-4.7119
				c1.9359-1.467,4.0326-2.9953,6.4585-3.1177c2.874-0.145,5.5435,1.8152,6.9821,4.3075c1.4386,2.4923,1.8529,5.437,2.0384,8.3087"
				/>
		</g>
	</g>
</g>
</svg>
