<?xml version="1.0" encoding="utf-8"?>
<!-- Generator: Adobe Illustrator 22.1.0, SVG Export Plug-In . SVG Version: 6.00 Build 0)  -->
<svg version="1.1" id="Layer_1" xmlns="http://www.w3.org/2000/svg" xmlns:xlink="http://www.w3.org/1999/xlink" x="0px" y="0px"
	 viewBox="0 0 218 217" style="enable-background:new 0 0 218 217;" xml:space="preserve">
<g>
	<path style="fill:#9B6FEF;" d="M-2.0156-16.7684c38.7594,13.4152,76.7569,35.7169,96.6735,71.572
		c19.3955,34.917,20.5166,80.3334,49.232,108.0968c-9.6643-4.7361-21.3384-1.3584-31.839-3.7184
		c-8.4613-1.9016-15.6161-7.3956-22.2235-13.0128C66.1361,126.0285,45.028,101.5141,35.1037,72.045
		C29.9308,56.6846,27.944,40.4478,23.804,24.7775S12.9187-6.6021,0.4824-16.9962"/>
</g>
<g>
	<path style="fill:#A5CAFA;" d="M55.0009,190.2136c-9.6784-13.2291-20.6927-25.422-30.7793-38.3427
		C4.9553,127.1911-11.1536,99.1607-16.634,68.3346s0.8895-64.7971,21.8855-88.0232c9.441,18.004,18.9043,36.0567,26.2223,55.0231
		C51.3029,86.7264,54.6788,142.76,57.8382,197.754"/>
</g>
<g>
	<path style="fill:#FAA76C;" d="M202.5274,117.4822c-27.8813-8.8268-54.6147-21.2721-79.3181-36.9252
		c-6.2104-3.9352-12.3929-8.1624-16.9926-13.8981c-3.3623-4.1928-5.7666-9.0539-8.5683-13.6402
		c-3.4332-5.6201-7.5025-10.8748-12.3046-15.3817C73.8336,26.834,58.7793,20.8404,44.7017,13.6984S16.5145-2.7171,9.8596-17.0314
		c9.3247,5.1729,18.7598,10.3916,29.038,13.2318c8.8978,2.4588,18.1841,3.0665,27.3081,4.4702
		c28.5221,4.3882,55.7626,16.8185,77.7684,35.4869c5.1008,4.3272,9.9341,8.9905,14.1967,14.1455
		c4.0879,4.9438,7.6284,10.311,11.1601,15.6663c4.6495,7.0502,9.299,14.1005,13.9486,21.1507
		c6.6126,10.027,13.2348,20.0698,18.9453,30.6366"/>
</g>
</svg>
