<svg id="Layer_1" xmlns="http://www.w3.org/2000/svg" viewBox="0 0 317 327">
  <style>
    .st2{fill:#a5cafa}

    #hoja1, #hoja2, #hoja3, #hoja4{
      animation-name: grow;
      animation-fill-mode: forwards;
      transform-origin: bottom left;

      transform: scale(0, 0);
    }
    #hoja1{
      animation-delay: 2s;
      animation-duration: 5s;
    }
    #hoja2{
      animation-delay: 3s;
      animation-duration: 5.25s;
    }
    #hoja3{
      animation-delay: 2s;
      animation-duration: 6s;
    }
    #hoja4{
      animation-delay: 3.5s;
      animation-duration: 6.5s;
    }
    @keyframes grow{
      100%{
        transform: scale(1,1);
      }
    }

  </style>
  <g id="hoja1">
    <path d="M31.9 49.7c3 10.7 5.9 21.3 8.9 32 1.9 6.6 3.7 13.4 3.5 20.3-.4 11.6-6.8 22.6-6.1 34.2.5 9.5 5.6 17.9 8.9 26.8 3.9 10.5 5.4 21.7 6.8 32.8.7 5.5 1.4 11.2.7 16.7-.7 4.7-2.4 9.2-4.1 13.6-13.3 33.1-29.7 65.1-48.8 95.2 14.9-39 8.8-82.9-2.6-123.1-2.3-8.3-4.9-16.7-5-25.3-.1-6.8 1.4-13.5 3-20 4.3-17 9.7-33.7 16.3-50C17 94 21 85.2 23.9 76.1c4-12.5 5.9-25.7 5.6-38.9" fill="#9b6fef"/>
    <path d="M29.9 35.9C18.6 47.1 11.2 61.8 1.3 74.4c-12.4 15.8-29 28.6-38.7 46.2-14.4 26.1-11.2 58.8.4 86.2 6.2 14.7 14.7 28.4 21.3 43C-5.2 273.1.4 298.6.5 324.2c7.6-3.9 10.7-13 12.8-21.3 7-27 12.4-55.3 6.9-82.7-3.8-19.1-13-37.2-14.5-56.7C4.1 142 12 121 19.2 100.6s14-42 10.1-63.2" fill="#f09a82"/>
  </g>
  <path id="hoja2" class="st2" d="M148.6 70.5c-19.3 9.5-37.6 21-53.7 35.3-10.6 9.5-20.2 20.1-29.7 30.7-8.2 9.1-16.4 18.2-23.4 28.2-15.1 21.6-24.4 46.8-30.3 72.5s-8.2 52-10.7 78.3c1.9.1 3.3-1.6 4.4-3.2 12.3-18.5 13.3-42 20.3-63.1 6.8-20.6 19.6-39.1 36.4-52.7 12.5-10.1 26.9-17.5 40.6-25.9s27-18.4 35.5-32c12.2-19.6 13-44.4 8.8-67.1"/>
  <path id="hoja3" d="M177.7 160.5c-15.3 24.9-33.8 47.9-54.9 68.1-5.3 5.1-10.9 10.1-17.6 13.2-4.9 2.3-10.2 3.4-15.3 5-6.3 2-12.4 4.7-17.9 8.2-13.3 8.6-22.7 21.8-33 33.7S16.3 312.1.8 315.1c7.3-7.8 14.6-15.7 19.8-25 4.5-8 7.3-16.9 10.9-25.4 11.1-26.6 29.7-50.1 53.1-67 5.4-3.9 11.1-7.5 17.1-10.4 5.8-2.8 11.8-4.9 17.9-7.1 8-2.8 15.9-5.6 23.9-8.5 11.3-4 22.7-8 34.3-11" fill="#faa76c"/>
  <g id="hoja4">
    <path d="M259.7 250.2c-9.1-1-18.2-1.9-27.4-2.9-16-1.7-32.1-3.4-48.2-2.5-31.6 1.8-62.7 13.7-94 9.6-8.2-1.1-16.3-3.3-24.6-3.5-17.7-.6-35.2 8-46.7 21.4S1.6 303.7 1.7 321.4c9.9-11.9 20.4-24.1 34.5-30.5 17.8-8 38.3-5.3 57.7-3.6 12.6 1.1 25.3 1.6 37.9 1.7 6.8 0 13.6-.1 20.2-1.6 7.4-1.7 14.3-5 21.3-8.1 27.6-12.4 56.5-21.8 86.1-28" fill="#6610ef"/>
    <path class="st2" d="M259.7 251.4c-16.4 15.6-34.5 36.6-53.1 49.4-5.5 3.8-11.3 7.4-17.6 9.5-21.9 7.4-45.5-3.4-68.6-2.9-18.6.4-36.3 8.2-54.8 9.2-10.8.6-21.6-1.1-32.4-1.4s-22.1 1.2-31 7.4c2.1-7.8 7.6-19.1 14.2-23.7 24.1-16.6 43.8-22 72.8-25.3 28.3-3.3 67.3.9 93.7-9.7 6.6-2.6 12.8-6.2 19.6-8.3 7.9-2.4 16.2-2.7 24.4-3.1 11.1-.4 22.1-3.5 32.8-1.1"/>
  </g>
</svg>
