<svg xmlns="http://www.w3.org/2000/svg" viewBox="0 0 1911.7428 431.3475">
  <path d="M732.4924 397.4218c-45.0409 2.293-107.9493-26.7518-110.727-78.2945-1.5055-27.9503 14.3561-56.2956 6.0207-83.0164-9.3022-29.82-44.1304-43.5977-60.7007-70.0777-12.9471-20.6902-13.2304-47.4095-5.9874-70.7172 7.243-23.3077 21.2289-43.8706 35.7034-63.5226 4.1016 20.5331 21.8209 35.4987 40.0083 45.8741 18.1874 10.3754 38.2755 18.1715 53.47 32.5784 19.942 18.9084 28.9611 48.6127 22.8986 75.4168-2.9276 12.9438-9.1289 25.7128-7.2041 38.8432 3.2654 22.2749 27.0257 34.0826 45.0907 47.5172 18.9948 14.1259 34.3559 34.5039 37.9207 57.9055 3.5649 23.4015-6.7096 49.5196-27.6606 60.5376-8.8199 4.6384-18.8802 6.4489-28.8326 6.9556z" fill="#ff9c6e"/>
  <path d="M591.5863 76.9287c8.0159 19.3959 20.7825 36.1507 30.8995 54.4205 9.3918 16.9602 17.028 34.8201 24.0071 52.8869 13.5205 35.0002 24.6292 71.0954 41.7065 104.6156 9.3521 18.3568 20.606 35.6903 34.4709 50.9702 1.3002 1.4329 3.4167-.6938 2.1213-2.1213-50.7653-55.946-61.682-134.1845-95.3286-199.6403-10.8359-21.08-25.9055-39.9623-34.9839-61.929-.727-1.7594-3.6308-.9883-2.8928.7974zM644.2382 124.4986c1.2368-7.1937 3.3373-14.0896 6.3943-20.7232.8026-1.7416-1.7824-3.2675-2.5905-1.5142-3.1643 6.8665-5.415 13.9851-6.6968 21.4398-.3246 1.8883 2.5659 2.6995 2.893.7976zM662.5071 149.8232c3.8384-6.8941 8.3283-13.3111 13.5178-19.2581 1.2643-1.449-.8491-3.5793-2.1213-2.1213-5.3535 6.1349-10.0252 12.7498-13.9869 19.8653-.9401 1.6884 1.6501 3.203 2.5904 1.5141zM672.0256 181.5142l20.1947-7.9448c1.7762-.6988 1.0027-3.6011-.7975-2.8928l-20.1946 7.9448c-1.7763.6988-1.0029 3.6011.7974 2.8928zM583.8813 120.0885c6.6458 1.4098 13.0135 3.5361 19.152 6.4566 1.7344.8252 3.2585-1.7605 1.5142-2.5904-6.3654-3.0284-12.9703-5.2956-19.8687-6.759-1.8832-.3995-2.6881 2.4918-.7975 2.8928zM604.4507 151.8777l-17.8832 3.9696c-1.8839.4182-1.0867 3.3111.7975 2.8928l17.8832-3.9696c1.8839-.4182 1.0867-3.3111-.7975-2.8928zM625.8303 170.0064c-4.3557 3.9442-9.6713 6.203-15.5405 6.5806-1.9171.1234-1.9309 3.1243 0 3 6.6799-.4298 12.6973-2.9638 17.6618-7.4593 1.4342-1.2986-.6926-3.4151-2.1213-2.1213zM719.2922 282.0807c-.5502-3.3416.4729-6.6662 2.7333-9.1721 1.2902-1.4304-.8249-3.5586-2.1213-2.1213-3.0341 3.3636-4.2387 7.6334-3.5048 12.0909.3129 1.9004 3.2043 1.0942 2.8928-.7975zM730.577 305.4588c2.6121-4.6839 5.6001-9.1073 9.0066-13.251 1.2167-1.4801-.8939-3.6144-2.1213-2.1213-3.5688 4.3412-6.738 8.9489-9.4758 13.8582-.9412 1.6878 1.649 3.2024 2.5905 1.5141zM748.1419 327.0534l12.8827-6.1035c1.7437-.8261.223-3.4134-1.5142-2.5904l-12.8827 6.1035c-1.7437.8262-.2229 3.4134 1.5142 2.5904zM643.6296 272.6563c4.5483 2.5685 9.437 4.049 14.6381 4.4933 1.9235.1643 1.9125-2.8366 0-3-4.6724-.3991-9.0432-1.7792-13.1239-4.0836-1.6834-.9507-3.1972 1.6399-1.5142 2.5903zM644.2729 300.0085c7.1317 4.5034 15.1915 6.0788 23.5046 4.7864 1.902-.2957 1.0943-3.187-.7975-2.8928-7.5148 1.1683-14.7829-.4362-21.1929-4.4839-1.6372-1.0339-3.1442 1.561-1.5142 2.5903zM657.2997 337.1749c10.2876.0293 19.78-3.5032 27.6057-10.1671 1.4721-1.2535-.6586-3.3669-2.1213-2.1213-7.2336 6.1596-15.9965 9.3155-25.4844 9.2884-1.9306-.0055-1.9333 2.9945 0 3z" fill="#212d50"/>
  <path d="M1217.9995 396.6203c45.0856-1.1105 105.6243-34.8171 104.5067-86.4225-.6068-27.9842-18.5612-55.0525-12.2648-82.3259 7.0267-30.4366 40.7167-46.8018 55.2427-74.4561 11.3499-21.6077 9.6171-48.2723.6368-70.9674s-24.4772-42.1445-40.3926-60.6489c-2.5413 20.784-19.0815 37.0433-36.4346 48.7609-17.3531 11.7176-36.796 21.0065-50.8606 36.5183-18.4592 20.3586-25.2123 50.6585-17.1455 76.929 3.8955 12.6862 11.0422 24.951 10.1132 38.1892-1.5762 22.4577-24.3782 36.0238-41.3785 50.7826-17.8752 15.5182-31.6558 36.9967-33.4456 60.6005-1.7897 23.6038 10.4253 48.8726 32.1476 58.2791 9.1447 3.9599 19.3129 5.0066 29.2752 4.7612z" fill="#ff9c6e"/>
  <path d="M1331.4141 65.7256c-6.5406 19.9768-18.1597 37.6704-26.8199 56.7151-7.5215 16.5403-13.4993 33.7302-18.8217 51.0889-10.8801 35.4845-19.0624 71.8969-32.939 106.405-8.0767 20.0852-18.2594 39.3507-31.5823 56.4707-1.1719 1.5058.9364 3.6439 2.1212 2.1213 47.249-60.715 51.8147-140.723 81.5642-209.5024 9.1406-21.1327 22.1788-40.5365 29.3702-62.5011.6021-1.839-2.2937-2.6271-2.8927-.7975zM1288.2772 116.9128c-1.8385-7.3298-4.5974-14.2825-8.2681-20.8861-.9381-1.6878-3.5302-.1765-2.5903 1.5142 3.5497 6.3862 6.1882 13.0838 7.9656 20.1695.4695 1.8715 3.3635 1.0786 2.8928-.7976zM1271.6412 142.839c-4.4825-6.7951-9.6207-13.0615-15.4231-18.7724-1.3772-1.3555-3.5.7643-2.1212 2.1213 5.6208 5.5325 10.6105 11.5811 14.954 18.1652 1.0586 1.6047 3.6576.1037 2.5903-1.5141zM1262.6978 173.8485l-20.7363-6.3991c-1.849-.5706-2.6398 2.3244-.7976 2.8928l20.7363 6.3991c1.8489.5707 2.6397-2.3243.7976-2.8928zM1344.3655 106.0101c-6.7642 1.9783-13.1968 4.7123-19.3147 8.2117-1.6755.9584-.166 3.5515 1.5142 2.5904 5.8984-3.3738 12.0752-6.0015 18.5981-7.9092 1.8491-.5409 1.0622-3.4368-.7976-2.8929zM1326.4703 145.0375l18.1317 2.6096c1.8884.2718 2.704-2.6184.7975-2.8928l-18.1316-2.6096c-1.8884-.2718-2.7041 2.6184-.7976 2.8928zM1305.168 164.0065c5.2854 4.1052 11.4348 6.2626 18.1439 6.1873 1.9292-.0217 1.9342-3.0217 0-3-5.8618.0658-11.3765-1.7-16.0226-5.3086-1.5067-1.1702-3.6449.938-2.1213 2.1213zM1225.4354 280.9007c.3783-4.302-1.2313-8.4531-4.3512-11.4267-1.3976-1.3319-3.5223.7861-2.1213 2.1213 2.6072 2.4849 3.7871 5.7284 3.4725 9.3053-.169 1.9229 2.8321 1.9116 3 .0001zM1215.5033 303.1651c-3.0959-4.6855-6.5869-9.0668-10.4717-13.1226-1.3381-1.397-3.4575.7263-2.1213 2.1213 3.7106 3.8739 7.0452 8.0396 10.0026 12.5155 1.0596 1.6038 3.6588.1028 2.5904-1.5142zM1198.1434 324.8376l-13.3064-5.1145c-1.8035-.6932-2.584 2.2061-.7975 2.8929l13.3064 5.1145c1.8035.6932 2.584-2.2062.7975-2.8929zM1295.5898 262.9785c-4.0256 2.6985-8.3778 4.4016-13.1598 5.172-1.901.3063-1.0942 3.1976.7975 2.8928 5.0026-.8059 9.6689-2.654 13.8765-5.4744 1.5956-1.0696.0956-3.6694-1.5142-2.5904zM1297.0111 290.3014c-6.2427 4.6497-13.4158 6.7266-21.1783 6.1027-1.9247-.1547-1.9146 2.8461 0 3 8.2008.6591 16.0929-1.5967 22.6925-6.5123 1.5307-1.1402.0367-3.7455-1.5142-2.5904zM1288.3212 327.8783c-9.6165.7549-18.652-1.8118-26.446-7.4933-1.5621-1.1386-3.0607 1.4631-1.5142 2.5904 8.172 5.957 17.8787 8.6943 27.9602 7.9029 1.912-.1501 1.9282-3.1514 0-3z" fill="#212d50"/>
  <g>
    <path d="M893.6163 393.0446c-18.1238 7.3435-42.1593 3.9638-59.9359-1.4069-5.4817-1.6561-10.9808-3.4737-15.8619-6.4683-5.7122-3.5044-10.3499-8.4768-14.9114-13.3862-12.8871-13.8694-19.9464-22.5156-19.1249-41.9628.6754-15.9861 8.1948-31.764 21.4788-41.0479 7.2772-5.0858 16.0273-8.4019 21.6882-15.2412 13.107-15.8352 2.9715-39.0896-1.8134-59.0808-11.8154-49.3656 19.4524-105.1765 67.7223-120.8794-6.1803 14.9416.2305 32.2728 9.7083 45.3731 9.4779 13.1003 21.973 23.9518 30.2827 37.8225 16.3865 27.3528 12.9619 65.1253-8.0768 89.0849-8.4222 9.5916-19.9 18.31-21.1769 31.0106-1.475 14.6706 11.3812 26.4902 16.4639 40.3311 7.3863 20.1137-4.1685 44.6491-22.8421 54.2072-1.1706.599-2.3722 1.1462-3.6009 1.6441z" fill="#faa76c"/>
    <path d="M873.3876 143.1682c-12.5488 25.9361-4.5037 54.7133-1.0269 81.7693 1.9036 14.814 2.4725 29.7472-1.6692 44.2532-4.4153 15.4646-12.6335 29.5235-17.1262 44.9565-4.2709 14.6715-5.1837 30.8792 2.8174 44.4523.9798 1.662 3.574.1544 2.5905-1.5142-16.5241-28.0314 5.9564-58.6542 14.1025-85.3769 8.1568-26.7576.4106-53.7358-2.5819-80.6256-1.7554-15.7735-1.558-31.8455 5.4842-46.4005.8373-1.7304-1.7488-3.2535-2.5904-1.5141zM892.2418 193.6656c4.0317-3.3886 7.264-7.5364 9.5679-12.2726.8411-1.7291-1.7451-3.2518-2.5905-1.5142-2.2039 4.5307-5.2422 8.424-9.0988 11.6654-1.4797 1.2438.6519 3.3566 2.1214 2.1214zM899.5989 215.095c4.0523 1.6219 8.4364 1.6911 12.5461.2307 1.8065-.6419 1.0282-3.5416-.7975-2.8928-3.6762 1.3063-7.3336 1.2171-10.951-.2307-1.7923-.7174-2.5709 2.1831-.7976 2.8928zM895.8636 245.0323c3.274 4.983 7.9074 8.5995 13.5273 10.5854 1.8239.6445 2.6085-2.2529.7975-2.8928-4.8527-1.7148-8.9094-4.9069-11.7345-9.2067-1.0557-1.607-3.6546-.1058-2.5903 1.5141zM847.3104 174.6441c2.4239 4.1748 5.8218 7.5945 9.9778 10.05 1.666.9843 3.1769-1.608 1.5142-2.5904-3.7277-2.2024-6.7277-5.2296-8.9016-8.9737-.969-1.6691-3.5627-.1604-2.5904 1.5141zM841.3544 202.9805c3.9667 3.3974 8.6557 5.3091 13.872 5.6339 1.928.12 1.9209-2.8804 0-3-4.3821-.2728-8.4127-1.8963-11.7507-4.7552-1.459-1.2497-3.5906.8629-2.1213 2.1213z" fill="#212d50"/>
    <path d="M846.4545 235.5148c4.8759.2394 9.4784-1.5743 12.9167-5.0306 1.3632-1.3703-.7573-3.4925-2.1213-2.1213-2.9225 2.9379-6.6653 4.3547-10.7953 4.1519-1.9299-.0948-1.9249 2.9055-.0001 3zM872.4893 314.8746c6.6633-1.2611 12.83-3.8702 18.3743-7.7744 1.5665-1.1031.0692-3.7054-1.5141-2.5904-5.3615 3.7755-11.2147 6.2526-17.6577 7.472-1.8947.3586-1.0924 3.2505.7975 2.8928zM877.3068 333.7414l15.1911 3.1626c1.8839.3922 2.6895-2.499.7975-2.8928l-15.1911-3.1626c-1.8839-.3923-2.6894 2.4989-.7975 2.8928zM873.0118 356.0299l13.7851 6.7137c1.7288.842 3.2515-1.7443 1.5142-2.5904l-13.7851-6.7138c-1.7288-.8419-3.2515 1.7444-1.5142 2.5905zM831.1935 298.5284l10.4559 8.4738c1.4871 1.2051 3.6223-.9049 2.1213-2.1213l-10.4559-8.4738c-1.487-1.2052-3.6222.9049-2.1213 2.1213zM826.418 322.1339l11.4851 6.4872c1.6832.9507 3.197-1.6399 1.5142-2.5904l-11.4851-6.4872c-1.6834-.9508-3.1971 1.6399-1.5142 2.5904zM826.4598 356.6325c6.3217-.3863 12.0177-2.7431 16.7648-6.9349 1.4501-1.2805-.6783-3.3956-2.1213-2.1213-4.1306 3.6475-9.1429 5.7201-14.6435 6.0562-1.9182.1173-1.9315 3.118 0 3z" fill="#212d50"/>
  </g>
  <g>
    <path d="M843.8211 356.1341c-19.9803 42.1267-88.1895 49.0667-116.8235 11.5739-10.0695-13.1855-12.7192-33.4973-2.2074-46.956 10.206-13.0672 17.3489-23.7884 15.9897-41.9232-1.2466-16.6329-11.2571-31.0833-19.7479-45.4401-8.4908-14.3569-15.9485-31.187-11.5261-47.2699 7.2203-26.2585 35.2211-38.0743 49.5469-59.5742l34.0377 26.2991c16.5638 12.798 34.9189 29.6443 32.2098 50.4002-2.647 20.2795-25.2746 38.5744-16.5053 57.0504 3.3654 7.0905 10.5618 11.3654 16.6234 16.3512 22.6245 18.6093 30.9565 53.0202 18.4027 79.4886z" fill="#f09a82"/>
    <path d="M759.4586 158.6375c-3.2819 16.0276-4.0305 32.4293-1.9507 48.671 2.1182 16.5413 7.7055 31.9599 13.3534 47.5508 11.8244 32.6412 16.4378 66.5049 11.0532 100.9842-.2949 1.8887 2.5954 2.7024 2.8929.7975 5.0142-32.1071 2.0563-64.6829-8.5045-95.4028-5.5485-16.1399-12.1553-31.868-15.0213-48.7898-2.9766-17.5749-2.5021-35.5692 1.0698-53.0134.3858-1.8846-2.5052-2.6906-2.8928-.7975zM778.3859 185.661c3.3168-2.7706 6.1292-6.03 8.4226-9.6915 1.0278-1.6409-1.5668-3.1484-2.5904-1.5142-2.1639 3.4546-4.8264 6.4722-7.9535 9.0844-1.4834 1.239.6486 3.3515 2.1213 2.1213zM786.8007 209.2099c4.7258-2.0437 9.0642-4.6738 13.1189-7.8415 1.5198-1.1874-.6166-3.2969-2.1213-2.1213-3.8408 3.0006-8.0413 5.4392-12.5117 7.3724-1.7673.7642-.2413 3.3495 1.5141 2.5904zM782.5305 241.3498c3.9899.0143 7.8166.6942 11.5756 2.024 1.8236.6451 2.6082-2.2523.7975-2.8928-4.0048-1.4167-8.1268-2.116-12.3732-2.1312-1.9306-.0068-1.9332 2.9931.0001 3zM731.651 178.6839c2.8144 3.817 6.4373 6.6 10.8514 8.3337 1.7976.706 2.5771-2.1939.7975-2.8928a20.613 20.613 0 0 1-9.0586-6.955c-1.1335-1.5374-3.7382-.0427-2.5903 1.5141zM729.4134 201.7095c3.6372 5.2878 10.1635 7.6976 16.3459 5.8289 1.8432-.5571 1.0577-3.4536-.7975-2.8928-4.8417 1.4635-10.0679-.2486-12.9579-4.4502-1.0873-1.5806-3.6884-.082-2.5905 1.5141zM738.7434 235.2082c5.0297-.7512 8.7326-4.9433 9.3609-9.8888.2427-1.9101-2.7596-1.8924-3 0-.4701 3.7-3.5689 6.4599-7.1584 6.996-1.9028.2841-1.0942 3.1753.7975 2.8928zM798.6828 303.2573l10.4198-7.0128c1.5933-1.0724.0935-3.6724-1.5142-2.5904l-10.4198 7.0128c-1.5933 1.0724-.0935 3.6724 1.5142 2.5904zM804.3494 325.4064c3.8287 2.3692 8.0419 3.6761 12.5311 3.9629 1.9278.1232 1.9203-2.8773 0-3-3.9726-.2538-7.6345-1.4603-11.0169-3.5533-1.6464-1.0188-3.1547 1.5753-1.5142 2.5904zM797.9318 344.7637l10.7089 8.782c1.4813 1.2147 3.6157-.8958 2.1213-2.1213l-10.7089-8.782c-1.4812-1.2148-3.6157.8958-2.1213 2.1213zM756.3166 293.1579l11.8755 4.0914c1.8292.6302 2.615-2.2667.7975-2.8929l-11.8755-4.0914c-1.8292-.6302-2.615 2.2667-.7975 2.8929zM755.669 315.6409l11.0842-3.684c1.8232-.606 1.0419-3.5042-.7975-2.8928l-11.0842 3.684c-1.8233.606-1.0419 3.5042.7975 2.8928zM767.4716 332.1477c-1.9351 2.6154-4.304 4.8756-6.9893 6.709-1.585 1.0822-.086 3.683 1.5142 2.5904 3.137-2.1418 5.8075-4.7334 8.0656-7.7852 1.1491-1.5533-1.4535-3.051-2.5905-1.5142z" fill="#212d50"/>
  </g>
  <g>
    <path d="M180.271 362.8447c-9.6952 13.6995-28.6281 22.3881-43.9604 26.7397-4.728 1.3419-9.5433 2.5751-14.4571 2.6718-5.7504.113-11.4043-1.3323-16.974-2.7672-15.7349-4.0538-24.84-7.0323-33.2523-21.4651-6.9152-11.8641-8.7885-26.7473-3.4889-39.6075 2.9032-7.045 7.6902-13.4933 8.6135-21.0569 2.1377-17.5121-15.9552-29.6217-28.6706-41.8513-31.3988-30.1992-34.651-85.0076-7.0438-118.7081 2.4537 13.6587 15.112 23.2132 28.0273 28.2901s26.9694 7.1316 39.3974 13.3062c24.5077 12.1762 39.5255 41.0561 35.4189 68.112-1.644 10.8311-5.9001 22.4463-.9412 32.2148 5.7281 11.2838 20.4915 13.8708 30.5739 21.5183 14.6519 11.1134 17.6648 34.1933 8.5979 49.7476a38.5882 38.5882 0 0 1-1.8406 2.8556z" fill="#faa76c"/>
    <path d="M49.7232 191.6022c2.7464 22.944 19.6163 39.4658 34.0391 56.0916 8.2253 9.4818 16.2426 19.5628 20.7363 31.421 5.5395 14.618 5.6984 30.5364 10.1255 45.4428 3.7292 12.5568 10.5693 24.6835 22.6193 30.7886 1.7183.8706 3.2386-1.7167 1.5142-2.5904-16.0253-8.119-21.392-26.3602-24.3357-42.7831-2.9653-16.543-5.4447-32.423-14.8174-46.7605-15.3616-23.4989-43.3275-41.921-46.8813-71.6099-.2266-1.8934-3.2294-1.9162-3-.0001zM87.1346 219.536c1.3378-4.3693 1.7677-8.8267 1.2549-13.3696-.2141-1.8968-3.2166-1.9185-3 0 .4841 4.2884.1163 8.4437-1.1477 12.5721-.5665 1.8502 2.3283 2.6412 2.8928.7975zM102.2029 231.7066c3.8735-.715 7.1173-2.8562 9.4926-5.9633 1.1721-1.5332-1.4323-3.0291-2.5904-1.5142-1.9014 2.4871-4.6487 4.0215-7.6997 4.5846-1.896.35-1.0929 3.2418.7975 2.8929zM113.1789 255.0004c4.787 2.0968 9.7597 2.6136 14.8656 1.4526 1.8818-.4279 1.0854-3.3209-.7975-2.8928-4.2544.9673-8.5477.6046-12.554-1.1502-1.7515-.7672-3.2803 1.8168-1.5141 2.5904zM45.4982 226.6237c3.7532 1.9019 7.7741 2.8349 11.983 2.7065 1.926-.0588 1.9343-3.059 0-3-3.6854.1124-7.1771-.6288-10.4688-2.2969-1.7182-.8707-3.2386 1.7166-1.5142 2.5904zM54.3653 249.8979c4.5186.6161 8.8142-.1169 12.8187-2.3306 1.69-.9342.1785-3.5261-1.5142-2.5904-3.2376 1.7897-6.826 2.5301-10.5071 2.0282-1.8878-.2574-2.7046 2.6328-.7974 2.8928z" fill="#212d50"/>
    <path d="M73.3032 271.0675c3.6601-2.077 6.2593-5.5812 7.1301-9.7045.3978-1.8834-2.4935-2.6884-2.8928-.7975-.7185 3.4023-2.722 6.1925-5.7514 7.9116-1.6791.9528-.1691 3.5456 1.5141 2.5904zM128.9073 316.3441c4.3574-4.098 7.6291-8.9754 9.8736-14.5135.7249-1.7885-2.1759-2.5665-2.8928-.7975-2.0435 5.0424-5.144 9.4673-9.1021 13.1897-1.4094 1.3254.715 3.4439 2.1213 2.1213zM141.0399 327.7624l12.4415-4.7498c1.7858-.6818 1.0109-3.5832-.7975-2.8929l-12.4415 4.7498c-1.7858.6818-1.0109 3.5833.7975 2.8929zM148.1884 345.8537l13.0701-1.5326c1.8946-.2222 1.917-3.2248 0-3l-13.0701 1.5326c-1.8946.2222-1.917 3.2248 0 3zM91.6701 323.6987l11.4795 1.281c1.9158.2138 1.9006-2.7879 0-3l-11.4795-1.281c-1.9158-.2137-1.9006 2.788 0 3zM98.823 342.9385l11.3032-.6312c1.9197-.1072 1.9322-3.1079 0-3l-11.3032.6312c-1.9197.1072-1.9322 3.1079 0 3zM114.9447 367.8452c4.4231-3.2098 7.5456-7.5913 9.0289-12.8627.5238-1.8615-2.3699-2.6561-2.8928-.7975-1.2587 4.4736-3.8809 8.3344-7.6502 11.0698-1.5477 1.1231-.0522 3.727 1.5141 2.5904z" fill="#212d50"/>
  </g>
  <g>
    <path d="M1845.4104 383.6403c-28.7721 27.8105-85.6655 12.79-97.3483-25.977-4.1082-13.6335-.1038-30.7516 12.4052-38.39 12.1449-7.4161 21.1207-13.8725 25.5046-28.852 4.0209-13.739.3419-28.3708-2.1443-42.4686-2.4863-14.0979-3.3956-29.8707 5.0134-41.456 13.7296-18.9153 39.7926-19.953 57.7936-32.8998l19.4041 31.4059c9.4426 15.2831 19.1019 34.3595 10.6581 50.2163-8.25 15.4928-31.9528 23.3581-30.4866 40.8492.5626 6.7125 5.0533 12.3199 8.4176 18.1556 12.557 21.782 8.8602 51.9429-9.2174 69.4164z" fill="#f09a82"/>
    <path d="M1837.0165 199.5022c-7.2097 11.4768-12.6527 23.9823-15.9099 37.1504-3.5066 14.1766-3.778 28.5345-3.9408 43.0578-.3368 30.0596-6.8022 58.6886-21.6558 85.0034-.9502 1.6835 1.6404 3.1973 2.5905 1.5142 13.6078-24.1079 21.0532-51.0138 21.9199-78.6757.4908-15.6661-.1678-31.2723 3.1877-46.6974 3.0811-14.1637 8.6951-27.5755 16.3987-39.8386 1.03-1.6396-1.5647-3.1469-2.5903-1.5141zM1844.1829 227.2015c3.5256-1.2387 6.7947-2.957 9.7712-5.2209 1.5167-1.1536.0238-3.7601-1.5142-2.5904-2.7662 2.1038-5.7732 3.7656-9.0546 4.9184-1.8094.6358-1.0306 3.5352.7976 2.8929zM1843.7485 248.6178c4.4312-.2234 8.7537-.9753 12.9912-2.2952 1.8373-.5723 1.0531-3.4693-.7975-2.8928-3.9833 1.2408-8.0255 1.978-12.1937 2.1881-1.9212.0968-1.9328 3.0974 0 2.9999zM1830.8844 273.1595c3.0457 1.1491 5.8451 2.7976 8.3308 4.899 1.4658 1.2393 3.5983-.8727 2.1212-2.1213-2.9011-2.4527-6.1003-4.3296-9.6545-5.6706-1.8084-.6823-2.5897 2.2166-.7975 2.8929zM1808.6997 207.3921c1.0782 3.7981 3.1429 7.1608 6.0751 9.8092 1.4297 1.2912 3.5579-.8239 2.1213-2.1213-2.564-2.3158-4.3595-5.16-5.3036-8.4854-.5265-1.8542-3.422-1.0661-2.8928.7975zM1799.9493 225.2147c1.3188 5.4504 6.1041 9.3183 11.6655 9.6544 1.9283.1165 1.9215-2.8839 0-3-4.2544-.2572-7.7788-3.3447-8.7727-7.452-.4537-1.8755-3.3473-1.0813-2.8928.7976zM1797.2249 254.9264c4.324.8989 8.7723-1.0495 10.8788-4.9778.9121-1.7012-1.6768-3.2181-2.5905-1.5141-1.4474 2.6994-4.4547 4.2302-7.4908 3.5991-1.8841-.3917-2.6896 2.4995-.7975 2.8928zM1825.2952 327.7078l10.4885-2.4877c1.8778-.4454 1.0828-3.3388-.7975-2.8929l-10.4885 2.4877c-1.8778.4454-1.0828 3.3389.7975 2.8929zM1822.682 346.9808c2.3633 3.0841 5.3025 5.5227 8.8623 7.1125 1.7479.7806 3.2758-1.8038 1.5142-2.5904-3.0571-1.3652-5.7415-3.368-7.786-6.0362-1.1584-1.5118-3.7653-.0192-2.5905 1.5141zM1811.8544 360.8743l5.9517 10.2888c.9663 1.6707 3.5598.1618 2.5903-1.5142l-5.9515-10.2888c-.9665-1.6706-3.56-.1617-2.5905 1.5142zM1793.8235 306.6432l8.3051 6.8728c1.4768 1.2221 3.6107-.8889 2.1213-2.1213l-8.3052-6.8728c-1.4767-1.222-3.6106.8889-2.1212 2.1213zM1786.9343 324.7086l10.0172.3873c1.9307.0746 1.9274-2.9255 0-3l-10.0172-.3873c-1.9308-.0746-1.9275 2.9255 0 3zM1791.3704 341.0202c-2.4524 1.5776-5.0463 2.6987-7.8773 3.398-1.8733.4628-1.0798 3.3566.7976 2.8929 3.0579-.7554 5.9449-1.9964 8.5939-3.7005 1.6185-1.0411.1159-3.639-1.5142-2.5904z" fill="#212d50"/>
  </g>
  <g>
    <path d="M507.4592 392.6192c-19.5062 7.9037-45.3751 4.2662-64.5076-1.5142-5.8999-1.7825-11.8185-3.7387-17.0719-6.9617-6.1479-3.7718-11.1393-9.1235-16.0489-14.4073-13.8701-14.9273-21.4679-24.2331-20.5836-45.1636.7268-17.2055 8.8198-34.1869 23.1172-44.179 7.8323-5.4738 17.2498-9.0428 23.3426-16.4038 14.1067-17.043 3.1982-42.0713-1.9517-63.5874-12.7167-53.1311 20.9362-113.1991 72.888-130.0999-6.6517 16.0813.248 34.7345 10.4489 48.834 10.2008 14.0996 23.649 25.7788 32.5925 40.7075 17.6364 29.4392 13.9506 70.0929-8.6929 95.8801-9.0647 10.3232-21.4179 19.7067-22.7922 33.376-1.5875 15.7896 12.2494 28.5108 17.7198 43.4074 7.9496 21.648-4.4865 48.0549-24.5844 58.342-1.2601.6451-2.5533 1.234-3.8758 1.7699z" fill="#faa76c"/>
    <path d="M485.7864 123.7405c-13.6414 28.1331-4.6795 59.4775-.9787 88.82 2.0569 16.3087 2.3961 32.608-2.4095 48.4915-4.8622 16.0705-13.348 30.7947-18.0108 46.9317-4.5265 15.6649-5.4711 33.0355 3.0972 47.5053.9829 1.66 3.5773.1525 2.5904-1.5142-17.5547-29.6457 5.7003-62.2638 14.6963-90.4603 9.3688-29.3652.9555-58.781-2.3244-88.3694-1.8795-16.9551-1.6548-34.248 5.9301-49.8904.8386-1.7299-1.7475-3.2529-2.5906-1.5142zM505.899 177.9512c4.3329-3.6418 7.8038-8.0956 10.2798-13.1855.8411-1.7291-1.7452-3.2518-2.5905-1.5142-2.3757 4.8839-5.6535 9.0843-9.8107 12.5784-1.4797 1.2437.6519 3.3564 2.1214 2.1213zM513.9286 200.9857c4.3449 1.739 9.0358 1.8142 13.4422.2484 1.8065-.6419 1.0282-3.5416-.7975-2.8928-3.9736 1.412-7.937 1.3166-11.8472-.2484-1.7922-.7173-2.5708 2.1831-.7975 2.8928zM509.9768 233.2591c3.5066 5.3371 8.4713 9.2131 14.4908 11.3403 1.8239.6445 2.6084-2.2529.7975-2.8928-5.2522-1.856-9.64-5.3075-12.6979-9.9616-1.0558-1.607-3.6547-.1057-2.5904 1.5141zM457.72 157.5019c2.5992 4.4767 6.2413 8.1424 10.6978 10.7755 1.6659.9843 3.1769-1.608 1.5142-2.5904-4.0284-2.3802-7.2723-5.653-9.6216-9.6993-.969-1.669-3.5626-.1604-2.5904 1.5142zM451.2918 187.9765c4.2451 3.6358 9.2669 5.6826 14.8492 6.0302 1.928.12 1.9209-2.8804 0-3-4.7486-.2957-9.1108-2.0535-12.7279-5.1515-1.459-1.2496-3.5906.8629-2.1213 2.1213z" fill="#212d50"/>
    <path d="M456.7 222.959c5.219.2563 10.1405-1.6811 13.821-5.3808 1.3632-1.3703-.7572-3.4925-2.1213-2.1213-3.1657 3.1823-7.2256 4.7218-11.6997 4.5021-1.9297-.0948-1.9248 2.9055 0 3zM484.6903 308.3763c7.1633-1.3558 13.7882-4.1588 19.7485-8.3559 1.5665-1.1031.0692-3.7054-1.5141-2.5904-5.7772 4.0682-12.0893 6.7395-19.0319 8.0535-1.8947.3586-1.0924 3.2505.7975 2.8928zM489.9361 328.6822l16.3499 3.4038c1.8839.3922 2.6895-2.499.7975-2.8928l-16.3499-3.4038c-1.8839-.3923-2.6894 2.4989-.7975 2.8928zM485.3409 352.6824l14.8366 7.2259c1.7288.8419 3.2515-1.7443 1.5141-2.5904l-14.8366-7.2259c-1.7287-.842-3.2514 1.7442-1.5141 2.5904zM440.3559 290.8127l11.2535 9.1202c1.487 1.2051 3.6223-.9049 2.1213-2.1213l-11.2535-9.1202c-1.487-1.2052-3.6223.9048-2.1213 2.1213zM435.1929 316.2009l12.3611 6.9821c1.6833.9508 3.197-1.6399 1.5142-2.5904l-12.3611-6.9821c-1.6833-.9508-3.197 1.6398-1.5142 2.5904zM435.1802 353.3153c6.7723-.4138 12.8771-2.9397 17.9627-7.4304 1.45-1.2805-.6783-3.3956-2.1213-2.1213-4.4697 3.9469-9.8893 6.188-15.8414 6.5517-1.9181.1173-1.9315 3.118 0 3z" fill="#212d50"/>
  </g>
  <g>
    <path d="M453.8658 352.8933c-21.5045 45.3401-94.9165 52.8094-125.7346 12.4567-10.8375-14.1913-13.6894-36.0524-2.3758-50.5377 10.9845-14.0639 18.6722-25.6029 17.2094-45.121-1.3417-17.9017-12.1158-33.4543-21.2542-48.9062-9.1385-15.4521-17.165-33.5659-12.4053-50.8755 7.7711-28.2614 37.9077-40.9785 53.3262-64.1184l36.634 28.3052c17.8272 13.7742 37.5825 31.9055 34.6667 54.2447-2.8489 21.8264-27.2025 41.5168-17.7643 61.4021 3.622 7.6313 11.3674 12.2324 17.8913 17.5984 24.3504 20.0286 33.3179 57.0644 19.8066 85.5517z" fill="#f09a82"/>
    <path d="M363.1786 140.3625c-3.5165 17.1291-4.3357 34.6845-2.1347 52.0465 2.2421 17.6869 8.1405 34.1941 14.1919 50.8613 12.838 35.3598 17.9594 71.9659 12.1117 109.3406-.2955 1.8887 2.5948 2.7023 2.8928.7975 5.4755-34.9955 2.0609-70.3843-9.5659-103.8103-5.9808-17.1942-12.9408-34.0099-15.8814-52.0823-3.0438-18.7067-2.5302-37.8034 1.2786-56.3557.3867-1.8846-2.5044-2.6905-2.893-.7976zM383.3584 169.336c3.5627-2.976 6.5838-6.4747 9.0472-10.4076 1.0278-1.6409-1.5668-3.1484-2.5904-1.5141-2.334 3.7261-5.2052 6.983-8.5781 9.8004-1.4833 1.239.6486 3.3514 2.1213 2.1213zM392.4382 194.6632c5.0765-2.1954 9.7407-5.0188 14.0964-8.4218 1.5199-1.1874-.6166-3.2969-2.1213-2.1213-4.142 3.236-8.668 5.8677-13.4892 7.9527-1.7673.7643-.2413 3.3496 1.5141 2.5904zM387.9 229.2391c4.3037.0154 8.4344.7481 12.489 2.1825 1.8236.6451 2.6082-2.2523.7975-2.8928-4.3016-1.5217-8.7255-2.2733-13.2866-2.2896-1.9305-.007-1.9331 2.993.0001 2.9999zM333.2384 161.8499c3.0099 4.0821 6.89 7.0627 11.6108 8.9168 1.7976.706 2.5771-2.1939.7975-2.8928-3.9214-1.5402-7.3178-4.1473-9.8179-7.5381-1.1336-1.5374-3.7383-.0428-2.5904 1.5141zM330.8301 186.6318c3.8861 5.6497 10.8607 8.2168 17.4635 6.2209 1.8432-.5571 1.0577-3.4536-.7975-2.8928-5.2626 1.5907-10.9363-.2784-14.0756-4.8423-1.0872-1.5806-3.6883-.0819-2.5904 1.5142zM340.7426 222.6331c5.359-.8004 9.3206-5.2571 9.9909-10.5328.2426-1.9101-2.7596-1.8924-3 0-.5121 4.0303-3.8698 7.0547-7.7884 7.6399-1.9029.2842-1.0942 3.1754.7975 2.8929zM405.2267 295.8844l11.2146-7.5478c1.5934-1.0724.0935-3.6724-1.5142-2.5904l-11.2146 7.5478c-1.5933 1.0724-.0935 3.6724 1.5142 2.5904zM411.441 319.723c4.1034 2.5391 8.6177 3.9421 13.4291 4.2495 1.9278.1232 1.9204-2.8773 0-3-4.296-.2745-8.2568-1.5764-11.915-3.84-1.6463-1.0187-3.1545 1.5754-1.5141 2.5905zM404.5571 340.5747l11.5258 9.4518c1.4813 1.2147 3.6158-.8958 2.1213-2.1213l-11.5258-9.4518c-1.4813-1.2148-3.6157.8958-2.1213 2.1213zM359.717 285.003l12.7814 4.4035c1.8292.6302 2.615-2.2667.7975-2.8928l-12.7813-4.4035c-1.8292-.6302-2.615 2.2667-.7976 2.8928zM358.9592 309.201l11.9297-3.965c1.8232-.606 1.0419-3.5042-.7975-2.8929l-11.9297 3.965c-1.8232.6061-1.0419 3.5043.7975 2.8929zM371.7913 327.135c-2.0952 2.8317-4.656 5.2767-7.5634 7.2618-1.585 1.0822-.086 3.6829 1.5142 2.5904 3.3588-2.2933 6.2218-5.0702 8.6397-8.338 1.1491-1.5532-1.4535-3.051-2.5905-1.5142z" fill="#212d50"/>
  </g>
  <g>
    <path d="M945.6491 401.1552c38.5674-9.5392 84.22-50.0572 73.4333-94.231-5.85-23.9541-26.4464-43.8175-26.2235-68.4746.2487-27.5168 26.1102-48.0072 33.3388-74.5588 5.6482-20.7461-.9189-43.3508-12.9641-61.1614s-29.0773-31.5888-46.2896-44.4745c1.7714 18.3605-9.3594 35.4946-22.0541 48.877-12.6946 13.3824-27.6492 25.0738-36.793 41.0936-12.0008 21.0253-12.0402 48.3725-.1001 69.4323 5.7659 10.1699 14.2481 19.3584 15.9695 30.9217 2.9202 19.6163-14.1093 35.6261-25.9216 51.5572-12.4202 16.7509-20.1835 37.8486-17.2289 58.4913 2.9547 20.6427 18.272 40.0511 38.7467 44.0059 8.6196 1.6648 17.5646.6291 26.0866-1.4787z" fill="#9b6fef"/>
    <path d="M980.0178 95.0215c-1.8152 18.0794-8.2476 35.1917-12.0712 52.8669-3.3635 15.548-5.254 31.3811-6.5533 47.2227-2.7305 33.2906-2.7093 66.9032-8.3268 99.9069-3.1522 18.5195-8.2067 36.6702-16.2662 53.6794-.8223 1.7354 1.7633 3.2597 2.5905 1.5142 29.1396-61.4982 17.6797-131.427 30.4124-196.4912 3.8546-19.6968 11.2017-38.6502 13.2146-58.6989.1927-1.9193-2.8086-1.9059-3 0zM952.9681 147.0552c-2.975-5.9669-6.6981-11.4311-11.1245-16.4144-1.2847-1.4464-3.4001.6815-2.1213 2.1213 4.2611 4.7973 7.7936 10.0675 10.6553 15.8073.8616 1.7279 3.4502.2102 2.5905-1.5142zM943.5591 172.4979c-5.1595-5.0009-10.7949-9.4138-16.8839-13.228-1.6409-1.0279-3.1484 1.5667-1.5142 2.5904 5.8765 3.6811 11.2981 7.9333 16.2767 12.7589 1.3871 1.3444 3.5109-.7745 2.1214-2.1213zM941.6124 200.8554l-19.054-1.5558c-1.9243-.1571-1.9139 2.8437 0 3l19.054 1.5558c1.9243.1572 1.914-2.8437 0-3zM998.8688 127.0103c-5.4524 2.9855-10.4791 6.5914-15.0736 10.7767-1.4304 1.303.696 3.4197 2.1213 2.1213 4.4104-4.0175 9.2352-7.4431 14.4664-10.3076 1.694-.9275.1819-3.519-1.5141-2.5904zM991.1139 164.2925l16.0922-1.2076c1.9133-.1436 1.929-3.1448 0-3l-16.0922 1.2076c-1.9133.1436-1.929 3.1448 0 3zM976.2886 184.665c5.4055 2.5423 11.116 3.1836 16.9438 1.8425 1.8807-.4328 1.0847-3.326-.7975-2.8928-4.9932 1.1491-9.989.6437-14.6321-1.5401-1.7371-.817-3.2618 1.7684-1.5142 2.5904zM930.2223 300.4928c-.5051-3.9821-2.6139-7.39-6.0813-9.4663-1.6605-.9943-3.1707 1.5985-1.5142 2.5904 2.4763 1.4828 4.2288 3.9853 4.5955 6.8759.2396 1.8894 3.2426 1.9134 3 0zM925.7994 321.0854c-3.566-3.4513-7.4236-6.5543-11.5494-9.3113-1.6097-1.0757-3.1133 1.5218-1.5142 2.5904 3.9167 2.6173 7.5577 5.5665 10.9423 8.8422 1.3879 1.3433 3.5118-.7756 2.1213-2.1213zM915.2347 343.0679l-12.4188-1.8656c-1.8886-.2837-2.7032 2.6066-.7975 2.8929l12.4188 1.8656c1.8886.2837 2.7032-2.6066.7975-2.8929zM986.7781 271.3442c-2.8116 2.9574-6.1497 5.2687-9.9517 6.7665-1.7757.6996-1.0023 3.6019.7975 2.8929 4.2964-1.6926 8.0895-4.1868 11.2755-7.5381 1.33-1.3991-.7878-3.524-2.1213-2.1213zM993.2028 294.5744c-4.4326 5.1539-10.2759 8.3007-17.0043 9.2159-1.9043.259-1.0934 3.15.7975 2.8928 7.1861-.9774 13.6016-4.4917 18.3281-9.9874 1.2529-1.4568-.8598-3.5881-2.1213-2.1213zM992.9325 328.4839c-7.9628 2.3925-16.0541 2.0151-23.7076-1.2906-1.754-.7576-3.2836 1.8261-1.5142 2.5904 8.404 3.6299 17.2334 4.2328 26.0193 1.5931 1.8443-.5541 1.0586-3.4505-.7975-2.8929z" fill="#212d50"/>
  </g>
  <g>
    <path d="M1658.7732 393.0446c-18.1238 7.3435-42.1593 3.9638-59.9358-1.4069-5.4818-1.6561-10.981-3.4737-15.8619-6.4683-5.7123-3.5044-10.3499-8.4768-14.9115-13.3862-12.8871-13.8694-19.9464-22.5156-19.1249-41.9628.6753-15.9861 8.1947-31.764 21.4788-41.0479 7.2772-5.0858 16.0273-8.4019 21.6884-15.2412 13.1069-15.8352 2.9714-39.0896-1.8134-59.0808-11.8156-49.3656 19.4524-105.1765 67.7223-120.8794-6.1803 14.9416.2303 32.2728 9.7083 45.3731s21.973 23.9518 30.2826 37.8225c16.3865 27.3528 12.9619 65.1253-8.0768 89.0849-8.4222 9.5916-19.9 18.31-21.1769 31.0106-1.475 14.6706 11.3812 26.4902 16.464 40.3311 7.3862 20.1137-4.1686 44.6491-22.8422 54.2072a45.013 45.013 0 0 1-3.601 1.6441z" fill="#faa76c"/>
    <path d="M1638.5447 143.1682c-12.5488 25.9361-4.5037 54.7133-1.027 81.7693 1.9036 14.814 2.4725 29.7472-1.6692 44.2532-4.4153 15.4646-12.6335 29.5235-17.1261 44.9565-4.271 14.6715-5.1837 30.8792 2.8174 44.4523.9797 1.662 3.574.1544 2.5905-1.5142-16.524-28.0314 5.9564-58.6542 14.1025-85.3769 8.1567-26.7576.4106-53.7358-2.5819-80.6256-1.7554-15.7735-1.558-31.8455 5.4841-46.4005.8373-1.7304-1.7488-3.2535-2.5903-1.5141zM1657.3988 193.6656c4.0317-3.3886 7.2639-7.5364 9.5679-12.2726.8411-1.7291-1.7451-3.2518-2.5905-1.5142-2.204 4.5307-5.2422 8.424-9.0988 11.6654-1.4797 1.2438.6519 3.3566 2.1214 2.1214zM1664.7559 215.095c4.0524 1.6219 8.4364 1.6911 12.546.2307 1.8065-.6419 1.0282-3.5416-.7975-2.8928-3.6763 1.3063-7.3336 1.2171-10.951-.2307-1.7923-.7174-2.5709 2.1831-.7975 2.8928zM1661.0206 245.0323c3.2739 4.983 7.9073 8.5995 13.5273 10.5854 1.8239.6445 2.6084-2.2529.7975-2.8928-4.8527-1.7148-8.9093-4.9069-11.7345-9.2067-1.0557-1.607-3.6546-.1058-2.5903 1.5141zM1612.4673 174.6441c2.424 4.1748 5.8219 7.5945 9.9778 10.05 1.666.9843 3.177-1.608 1.5142-2.5904-3.7275-2.2024-6.7277-5.2296-8.9015-8.9737-.9691-1.6691-3.5627-.1604-2.5905 1.5141zM1606.5114 202.9805c3.9667 3.3974 8.6558 5.3091 13.8719 5.6339 1.9281.12 1.9209-2.8804 0-3-4.3821-.2728-8.4126-1.8963-11.7506-4.7552-1.459-1.2497-3.5906.8629-2.1213 2.1213z" fill="#212d50"/>
    <path d="M1611.6115 235.5148c4.876.2394 9.4784-1.5743 12.9166-5.0306 1.3633-1.3703-.7572-3.4925-2.1212-2.1213-2.9226 2.9379-6.6654 4.3547-10.7954 4.1519-1.9299-.0948-1.9249 2.9055 0 3zM1637.6462 314.8746c6.6633-1.2611 12.8301-3.8702 18.3744-7.7744 1.5664-1.1031.0692-3.7054-1.5142-2.5904-5.3615 3.7755-11.2147 6.2526-17.6577 7.472-1.8946.3586-1.0924 3.2505.7975 2.8928zM1642.4637 333.7414l15.1912 3.1626c1.8839.3922 2.6895-2.499.7975-2.8928l-15.191-3.1626c-1.8841-.3923-2.6895 2.4989-.7977 2.8928zM1638.1688 356.0299l13.7852 6.7137c1.7288.842 3.2515-1.7443 1.5142-2.5904l-13.7852-6.7138c-1.7288-.8419-3.2515 1.7444-1.5142 2.5905zM1596.3505 298.5284l10.4559 8.4738c1.4871 1.2051 3.6223-.9049 2.1213-2.1213l-10.4559-8.4738c-1.4869-1.2052-3.6223.9049-2.1213 2.1213zM1591.575 322.1339l11.4851 6.4872c1.6832.9507 3.197-1.6399 1.5142-2.5904l-11.4851-6.4872c-1.6833-.9508-3.1971 1.6399-1.5142 2.5904zM1591.6167 356.6325c6.3218-.3863 12.0177-2.7431 16.7649-6.9349 1.4501-1.2805-.6783-3.3956-2.1213-2.1213-4.1306 3.6475-9.1429 5.7201-14.6436 6.0562-1.9181.1173-1.9314 3.118 0 3z" fill="#212d50"/>
  </g>
  <g>
    <path d="M1717.2684 400.6127c39.0874-7.1149 87.1787-44.7061 79.1685-89.4667-4.3442-24.2724-23.6615-45.3819-21.901-69.9771 1.9648-27.4477 29.0541-46.285 37.9249-72.3339 6.9313-20.3534 1.787-43.3237-9.1237-61.851-10.9105-18.5273-27.0502-33.3411-43.425-47.2754.6226 18.4352-11.5553 34.8416-25.0601 47.4061s-29.1595 23.3002-39.2848 38.7184c-13.2891 20.2357-15.0343 47.5272-4.4312 69.2908 5.1204 10.5098 13.0128 20.2095 14.0095 31.8576 1.6909 19.7603-16.3041 34.6766-29.0872 49.8398-13.4409 15.9435-22.5052 36.5158-20.844 57.3026 1.6611 20.7868 15.738 41.1129 35.9261 46.3372 8.499 2.1994 17.4912 1.7237 26.128.1516z" fill="#9b6fef"/>
    <path d="M1770.7174 96.9139c-2.955 18.0259-10.4308 34.778-15.385 52.2682-4.5035 15.899-7.4244 32.1976-9.7451 48.5434-4.6018 32.4132-6.7744 65.2676-14.2537 97.2144-4.3073 18.3982-10.5142 36.2762-19.6742 52.8446-.9348 1.6909 1.6552 3.206 2.5905 1.5142 32.5326-58.844 25.9862-128.5517 42.0284-192.048 5.0647-20.0469 13.9763-39.0696 17.332-59.5392.3096-1.8887-2.5808-2.7011-2.8929-.7976zM1740.3793 147.3818c-2.6019-6.1526-5.9846-11.8039-10.0983-17.0624-1.1885-1.5192-3.298.6172-2.1213 2.1213 3.9464 5.0446 7.1359 10.5596 9.6292 16.4552.7493 1.7723 3.3343.245 2.5904-1.5141zM1729.3821 172.2021c-4.8383-5.3174-10.1985-10.0508-16.041-14.237-1.572-1.1263-3.0715 1.4745-1.5142 2.5904 5.6351 4.0375 10.7697 8.6419 15.4338 13.7679 1.3023 1.4311 3.4189-.6953 2.1214-2.1213zM1726.0394 200.5018l-18.9198-2.7414a163886607183907330 163886607183907330 0 0 1 18.9198 2.7414zM1787.4034 130.3662c-5.6372 2.6468-10.8466 5.9401-15.7025 9.8348-1.506 1.2079.6288 3.3185 2.1213 2.1213 4.6508-3.7301 9.7012-6.8331 15.0953-9.3657 1.7463-.8199.2251-3.407-1.5141-2.5904zM1777.5138 167.0503l16.1361-.2015c1.9291-.0241 1.9343-3.0242 0-3l-16.1361.2015c-1.9291.0241-1.9343 3.0242 0 3zM1761.4323 186.5051c5.2289 2.8809 10.9291 3.8048 16.8076 2.8241 1.9-.317 1.0941-3.2084-.7975-2.8928-5.0566.8436-10.0159-.0533-14.496-2.5216-1.692-.9324-3.2073 1.6574-1.5141 2.5903zM1708.1539 299.0905c-.2616-4.0234-2.2426-7.4976-5.5612-9.7834-1.5939-1.0978-3.0957 1.5011-1.5142 2.5904 2.3995 1.6527 3.8864 4.2878 4.0753 7.193.1248 1.9168 3.1256 1.9308 3.0001 0zM1702.3881 319.3923c-3.3475-3.6733-7.0098-6.9836-10.9613-9.9951-1.535-1.17-3.0311 1.4342-1.5142 2.5904 3.7418 2.8518 7.1863 6.0499 10.3541 9.526 1.3034 1.4301 3.4201-.6962 2.1214-2.1213zM1690.4473 340.7136l-12.2782-2.6367c-1.8826-.4043-2.6871 2.4871-.7975 2.8929l12.2782 2.6366c1.8827.4043 2.6871-2.487.7975-2.8928zM1766.3467 273.6842c-3.0049 2.7858-6.4791 4.8267-10.3772 6.0905-1.8287.593-1.0464 3.4907.7976 2.8929 4.3921-1.4241 8.3147-3.7228 11.7009-6.8621 1.419-1.3154-.7064-3.4331-2.1213-2.1213zM1771.3098 297.2699c-4.6423 4.7505-10.5339 7.55-17.17 8.0416-1.9137.1417-1.9292 3.1429 0 3 7.4116-.549 14.0895-3.5973 19.2914-8.9203 1.3503-1.3817-.7692-3.505-2.1214-2.1213zM1768.902 331.0546c-8.0934 1.9042-16.1656.9384-23.5692-2.8388-1.7164-.8757-3.2363 1.7118-1.5142 2.5904 8.1405 4.1532 16.986 5.234 25.881 3.1412 1.8785-.442 1.0832-3.3353-.7976-2.8928z" fill="#212d50"/>
  </g>
  <g>
    <path d="M263.8235 393.3065c18.1895 7.1793 42.1934 3.5822 59.9207-1.949 5.4665-1.7057 10.949-3.573 15.8028-6.6115 5.6802-3.556 10.2727-8.5702 14.7897-13.5205 12.7611-13.9854 19.7419-22.6951 18.7444-42.1341-.8199-15.9794-8.4818-31.6886-21.8493-40.8519-7.3229-5.0198-16.1026-8.2566-21.8253-15.0444-13.2497-15.7159-3.325-39.0611 1.2788-59.0948 11.3684-49.4704-20.4031-104.9962-68.8131-120.2618 6.3152 14.8851.0615 32.2735-9.2974 45.4591s-21.7554 24.1496-29.9392 38.0949c-16.1383 27.4999-12.3721 65.2399 8.8824 89.0082 8.5087 9.515 20.0648 18.1292 21.4566 30.8177 1.6077 14.6566-11.1412 26.5921-16.0984 40.4783-7.204 20.1797 4.5723 44.6096 23.3316 53.9984 1.1761.5884 2.3825 1.1246 3.6157 1.6114z" fill="#71b1fc"/>
    <path d="M279.2072 144.7831c12.7127 25.6797 4.203 54.9774 1.1613 81.8651-1.5 13.2593-1.8904 26.7654 1.3803 39.8023 3.6148 14.4088 10.8919 27.4946 16.104 41.3249 5.9147 15.6946 9.0973 34.0002.2938 49.2481-.9671 1.675 1.6243 3.1875 2.5904 1.5142 15.7123-27.2142-3.2923-56.5174-12.7282-82.1411-5.3889-14.6339-6.536-29.4437-5.1395-44.8912 1.3185-14.5846 4.3006-28.9655 5.549-43.5581 1.3127-15.3439.3043-30.6899-6.6207-44.6783-.8566-1.7303-3.445-.2121-2.5904 1.5141zM265.5059 191.7924c-3.886-3.2066-6.9617-7.0695-9.2067-11.5805-.8603-1.7285-3.4488-.2107-2.5904 1.5142 2.3465 4.7148 5.6132 8.8353 9.6758 12.1876 1.4781 1.2198 3.6122-.891 2.1213-2.1213zM255.4207 212.5292c-3.6059 1.4812-7.2621 1.6095-10.9484.337-1.8288-.6313-2.6145 2.2656-.7975 2.8928 4.1234 1.4234 8.5063 1.3213 12.5435-.337 1.7613-.7235.9899-3.6271-.7976-2.8928zM257.64 243.8182c-2.7851 4.3237-6.8066 7.5616-11.6444 9.3206-1.8002.6545-1.023 3.5547.7975 2.8929 5.6008-2.0364 10.2076-5.6855 13.4373-10.6993 1.0486-1.6279-1.5472-3.1337-2.5904-1.5142zM305.5545 172.9936c-2.1397 3.7634-5.1068 6.8222-8.8151 9.0587-1.6513.9959-.145 3.591 1.5142 2.5904 4.1332-2.4928 7.505-5.9379 9.8913-10.135.9557-1.6807-1.6352-3.1941-2.5904-1.5141zM312.2329 200.6657c-3.3099 2.8872-7.3212 4.5583-11.7032 4.8709-1.9147.1366-1.9297 3.1377 0 3 5.2112-.3718 9.8872-2.3152 13.8245-5.7496 1.4577-1.2714-.6715-3.3859-2.1213-2.1213z" fill="#212d50"/>
    <path d="M309.5446 232.3566c-4.1257.24-7.8872-1.1331-10.8364-4.0445-1.3753-1.3577-3.498.7623-2.1213 2.1213 3.4691 3.4247 8.0819 5.2068 12.9577 4.9232 1.9191-.1117 1.9319-3.1124 0-3zM285.0268 312.0523c-6.4537-1.1611-12.3304-3.5819-17.7259-7.3087-1.5923-1.0999-3.094 1.4991-1.5142 2.5904 5.5799 3.8542 11.7686 6.4104 18.4425 7.6111 1.8879.3396 2.6978-2.551.7976-2.8928zM278.7852 330.969l-15.1619 3.2999c-1.8856.4104-1.0876 3.3031.7975 2.8928l15.1619-3.2999c1.8856-.4103 1.0877-3.3031-.7975-2.8928zM282.5664 353.5234l-13.7238 6.8382c-1.7281.8611-.2104 3.4497 1.5142 2.5904l13.7238-6.8382c1.7281-.8611.2103-3.4496-1.5142-2.5904zM323.2578 296.1178l-10.3788 8.5681c-1.4901 1.2301.6427 3.3419 2.1213 2.1213l10.3788-8.5681c1.49-1.2301-.6427-3.3419-2.1213-2.1213zM328.8517 319.2073l-11.4259 6.5909c-1.6719.9644-.1629 3.5578 1.5142 2.5904l11.4259-6.5909c1.6719-.9644.1628-3.5577-1.5142-2.5904zM330.6343 353.2885c-5.5005-.2862-10.5356-2.3018-14.7016-5.9139-1.4525-1.2594-3.5833.8538-2.1213 2.1213 4.7832 4.1473 10.496 6.4634 16.8229 6.7926 1.9295.1004 1.924-2.8999 0-3z" fill="#212d50"/>
  </g>
  <g>
    <path d="M210.4511 401.1552c-38.5674-9.5392-84.2201-50.0572-73.4333-94.231 5.85-23.9541 26.4464-43.8175 26.2235-68.4746-.2487-27.5168-26.1102-48.0072-33.3389-74.5588-5.6482-20.7461.919-43.3508 12.9641-61.1614s29.0773-31.5888 46.2896-44.4745c-1.7714 18.3605 9.3594 35.4946 22.054 48.877s27.6492 25.0738 36.793 41.0936c12.0008 21.0253 12.0403 48.3725.1001 69.4323-5.766 10.1699-14.2481 19.3584-15.9695 30.9217-2.9202 19.6163 14.1093 35.6261 25.9216 51.5572 12.4202 16.7509 20.1836 37.8486 17.2289 58.4913-2.9547 20.6427-18.2721 40.0511-38.7467 44.0059-8.6194 1.6648-17.5644.6291-26.0864-1.4787z" fill="#9b6fef"/>
    <path d="M173.0824 95.0215c1.7871 17.7994 7.9274 34.6212 11.8105 51.9915 3.7898 16.9526 5.7587 34.2449 7.0873 51.5465 2.533 32.9848 2.6914 66.2641 8.4497 98.9252 3.2107 18.2114 8.3499 35.9919 16.2795 52.727.8262 1.7437 3.4135.2229 2.5904-1.5142-28.7122-60.596-17.6401-129.8813-29.7862-194.0915-3.784-20.0041-11.3908-39.2621-13.4312-59.5845-.191-1.9028-3.193-1.9225-3 0zM205.7226 148.5694c2.8617-5.7398 6.3942-11.01 10.6553-15.8073 1.2783-1.4391-.836-3.5683-2.1213-2.1213-4.4264 4.9834-8.1493 10.4472-11.1244 16.4144-.8589 1.7227 1.7279 3.244 2.5904 1.5142zM214.6624 174.6192c4.9789-4.8259 10.4005-9.078 16.2767-12.7589 1.6324-1.0226.1283-3.6193-1.5142-2.5904-6.0891 3.8143-11.7244 8.2271-16.8839 13.228-1.3888 1.3462.7338 3.4663 2.1214 2.1213zM214.4878 203.8554l19.054-1.5558c1.9108-.156 1.9275-3.1574 0-3l-19.054 1.5558c-1.9108.156-1.9275 3.1574 0 3zM155.7172 129.6007c5.2318 2.8648 10.056 6.29 14.4664 10.3076 1.4247 1.2978 3.5523-.8178 2.1213-2.1213-4.5947-4.1854-9.6212-7.7911-15.0736-10.7767-1.6942-.9277-3.2098 1.6619-1.5141 2.5904zM164.9863 161.2925l-16.0922-1.2076c-1.9258-.1445-1.9165 2.8562 0 3l16.0922 1.2076c1.9258.1446 1.9165-2.8561 0-3zM178.2974 182.0746c-4.6439 2.1841-9.6362 2.6898-14.6321 1.5401-1.8791-.4324-2.6812 2.4594-.7975 2.8928 5.8269 1.3409 11.5374.7003 16.9438-1.8425 1.7458-.8211.2246-3.4082-1.5142-2.5904zM228.878 300.4928c.3668-2.8922 2.1188-5.3929 4.5954-6.8759 1.6547-.9909.1479-3.5857-1.5141-2.5904-3.4688 2.0771-5.5762 5.4839-6.0813 9.4663-.2423 1.9102 2.7599 1.8925 3 0zM232.4221 323.2067c3.3848-3.2759 7.0255-6.2249 10.9422-8.8422 1.5974-1.0675.0972-3.6671-1.5142-2.5904-4.1259 2.7571-7.9834 5.86-11.5494 9.3113-1.3898 1.3451.7329 3.4651 2.1214 2.1213zM241.663 345.9608l12.4188-1.8656c1.9027-.2859 1.0942-3.177-.7975-2.8929l-12.4188 1.8656c-1.9027.2859-1.0942 3.177.7975 2.8929zM167.2008 273.4655c3.1859 3.3513 6.9788 5.8454 11.2755 7.5381 1.7968.7078 2.5761-2.1922.7975-2.8929-3.8028-1.4981-7.1401-3.8091-9.9517-6.7665-1.3329-1.4021-3.4519.7216-2.1213 2.1213zM160.7762 296.6957c4.7262 5.4953 11.1417 9.0099 18.3281 9.9874 1.8879.2568 2.7048-2.6334.7975-2.8928-6.7302-.9154-12.5735-4.0641-17.0043-9.2159-1.261-1.4662-3.3748.6639-2.1213 2.1213zM162.3702 331.3768c8.7851 2.6395 17.6141 2.0374 26.0193-1.5931 1.7675-.7634.2415-3.3487-1.5142-2.5904-7.6432 3.3013-15.7502 3.6815-23.7077 1.2906-1.8529-.5567-2.6447 2.3379-.7974 2.8929z" fill="#212d50"/>
  </g>
  <g>
    <path d="M976.3304 386.7068c13.9758 13.6776 37.4935 19.6814 55.9777 21.466 5.7.5503 11.4773.9579 17.13.0419 6.6152-1.0719 12.7941-3.9099 18.8787-6.7185 17.1896-7.9344 27.004-13.251 33.6313-31.5526 5.4479-15.0444 4.4855-32.496-4.2762-46.1301-4.7998-7.4689-11.6344-13.8603-14.2731-22.3373-6.1093-19.627 12.1-37.2883 24.12-53.9635 29.682-41.177 21.9583-104.682-16.7285-137.5438.0413 16.1693-12.4723 29.7662-26.2161 38.2842-13.7438 8.5181-29.4243 13.8097-42.3801 23.4842-25.5485 19.0779-36.7289 55.32-26.3686 85.4755 4.1475 12.072 11.4531 24.4968 7.8098 36.7304-4.2084 14.1312-20.5908 20.1813-30.5501 31.0539-14.473 15.8003-13.1044 42.8858.5387 58.8209.8553.9989 1.759 1.9615 2.7065 2.8888z" fill="#a5cafa"/>
    <path d="M1086.9756 163.4528c1.7172 27.4615-15.8833 50.3501-28.9083 72.9263-6.376 11.0514-12.2473 22.6672-15.0061 35.2098-3.5869 16.3072-1.5559 33.0463-2.1735 49.571-.6196 16.5777-4.7616 34.8216-18.698 45.3398-1.522 1.1487-.0286 3.7548 1.5142 2.5904 26.017-19.6359 18.6134-55.4162 20.4552-83.4944 2.0155-30.728 21.9885-53.9337 35.4412-80.2849 6.6627-13.0511 11.3016-27.0445 10.3754-41.858-.1201-1.9177-3.121-1.9313-3.0001 0zM1056.0176 201.4595c-2.2573-4.3519-3.5551-8.9685-3.8824-13.8601-.1282-1.9162-3.1292-1.9305-3 0 .3629 5.4226 1.7898 10.55 4.292 15.3743.8892 1.7144 3.4789.199 2.5904-1.5142zM1038.573 216.8338c-3.7218-.0215-7.126-1.3109-9.8949-3.81-1.4301-1.2907-3.5582.8244-2.1213 2.1213 3.3538 3.0269 7.4924 4.6625 12.0162 4.6887 1.9308.0111 1.933-2.9889 0-3zM1028.8081 246.4478c-4.4307 2.9963-9.3383 4.3909-14.6862 4.1515-1.9302-.0864-1.926 2.9138 0 3 5.8181.2604 11.3749-1.2979 16.2003-4.5611 1.5906-1.0756.0911-3.6759-1.5141-2.5904zM1100.4597 199.7793c-3.5643 2.7179-7.5526 4.4023-11.9869 5.0619-1.9028.2831-1.0941 3.1742.7976 2.8928 4.6538-.6922 8.9615-2.511 12.7035-5.3643 1.5151-1.1553.0222-3.7619-1.5142-2.5904zM1095.896 227.9112c-4.3495 1.4212-8.6932 1.3974-13.0267-.0613-1.8339-.6173-2.6207 2.2792-.7975 2.8928 4.7958 1.6143 9.8136 1.6324 14.6217.0613 1.8271-.597 1.045-3.4949-.7975-2.8928z" fill="#212d50"/>
    <path d="M1080.7651 256.066c-3.6826-1.2783-6.7008-4.0809-8.1755-7.7031-.7185-1.7645-3.6218-.9927-2.8928.7975 1.899 4.6643 5.501 8.1427 10.2709 9.7984 1.8276.6344 2.613-2.2626.7974-2.8928zM1027.2429 319.9399c-5.3671-3.4611-9.8196-7.9593-13.2317-13.3573-1.0289-1.6277-3.626-.1242-2.5905 1.5142 3.6875 5.8336 8.5082 10.6934 14.308 14.4335 1.6274 1.0494 3.1331-1.5464 1.5142-2.5904zM1014.5237 335.1083l-15.2538-2.845c-1.8871-.352-2.696 2.5388-.7975 2.8929l15.2537 2.845c1.8872.3519 2.6961-2.5389.7976-2.8929zM1009.2425 357.3078l-15.3021.9741c-1.9173.122-1.9311 3.1229 0 3l15.3021-.9741c1.9173-.1221 1.931-3.1229 0-3zM1069.0002 320.1568l-12.8911 3.8669c-1.8446.5533-1.0588 3.4497.7975 2.8929l12.8911-3.8669c1.8446-.5534 1.0589-3.4497-.7975-2.8929zM1065.2196 343.6518l-13.0885 1.6382c-1.8903.2366-1.9139 3.2396 0 3l13.0885-1.6382c1.8904-.2366 1.9141-3.2396 0-3zM1053.6115 375.8516c-5.1044-2.4308-9.0542-6.3483-11.5215-11.436-.8423-1.7367-3.4302-.2173-2.5905 1.5142 2.6646 5.4942 7.0842 9.8867 12.5978 12.5123 1.7342.8257 3.2583-1.76 1.5142-2.5905z" fill="#212d50"/>
  </g>
  <g>
    <path d="M1086.1587 358.9599c19.9803 42.1267 88.1896 49.0667 116.8235 11.5739 10.0695-13.1855 12.7192-33.4973 2.2074-46.956-10.2059-13.0672-17.3489-23.7884-15.9896-41.9232 1.2466-16.6329 11.2571-31.0833 19.7478-45.4401 8.491-14.3569 15.9485-31.187 11.5261-47.2699-7.2203-26.2585-35.2212-38.0743-49.5469-59.5742l-34.0377 26.2991c-16.5637 12.798-34.9189 29.6443-32.2097 50.4002 2.647 20.2795 25.2745 38.5744 16.5052 57.0504-3.3654 7.0905-10.5618 11.3654-16.6233 16.3512-22.6246 18.6093-30.9565 53.0202-18.4028 79.4886z" fill="#71b1fc"/>
    <path d="M1167.6284 162.2608c3.5732 17.4503 4.036 35.4323 1.0698 53.0134-2.8547 16.9214-9.4738 32.6528-15.0212 48.7898-10.5607 30.7197-13.5186 63.2959-8.5045 95.4028.2971 1.9018 3.1884 1.0943 2.8929-.7975-5.3846-34.479-.7711-68.3433 11.0532-100.9842 5.6483-15.5922 11.2311-31.0091 13.3533-47.5508 2.0836-16.2407 1.3311-32.6444-1.9507-48.671-.3869-1.8901-3.2793-1.0902-2.8928.7975zM1153.7153 186.3655c-3.1273-2.6122-5.7898-5.6299-7.9536-9.0844-1.0225-1.6325-3.6193-.1284-2.5903 1.5142 2.2935 3.6615 5.1056 6.9208 8.4226 9.6915 1.472 1.2296 3.6052-.8817 2.1213-2.1213zM1144.6934 209.4453c-4.4705-1.9333-8.671-4.3718-12.5118-7.3725-1.504-1.1751-3.6418.9334-2.1212 2.1213 4.0543 3.1675 8.3931 5.7978 13.1189 7.8415 1.7536.7585 3.2832-1.8253 1.5141-2.5903zM1147.4495 241.1756c-4.2465.0152-8.3685.7145-12.3733 2.1311-1.8076.6395-1.0292 3.539.7976 2.8928 3.7598-1.33 7.5862-2.0097 11.5757-2.024 1.9299-.0068 1.9338-3.0068 0-2.9999zM1195.7384 179.9956a20.6118 20.6118 0 0 1-9.0586 6.955c-1.7766.6978-1.0032 3.6001.7976 2.8928 4.4142-1.7338 8.0371-4.5169 10.8514-8.3337 1.1468-1.5553-1.4555-3.0532-2.5904-1.5141zM1197.9761 203.0212c-2.8901 4.2016-8.1162 5.9137-12.958 4.4502-1.8521-.5598-2.6437 2.3348-.7975 2.8928 6.181 1.8684 12.7091-.5417 16.3458-5.8289 1.0968-1.5945-1.5019-3.0965-2.5903-1.5141zM1192.0339 235.1411c-3.5892-.536-6.6884-3.2958-7.1584-6.996-.24-1.8893-3.243-1.9133-3 0 .6283 4.9455 4.3312 9.1376 9.361 9.8888 1.8885.2821 2.7033-2.6081.7974-2.8928zM1132.8112 303.4927l-10.4198-7.0128c-1.606-1.0809-3.1091 1.5169-1.5142 2.5904l10.4198 7.0128c1.6061 1.0809 3.1092-1.5168 1.5142-2.5904zM1124.1163 325.6418c-3.3799 2.0914-7.0443 3.2995-11.0168 3.5533-1.9172.1225-1.931 3.1234 0 3 4.4886-.2868 8.7023-1.5937 12.531-3.9629 1.6387-1.014.1338-3.6102-1.5142-2.5904zM1129.9268 345.4681l-10.709 8.782c-1.4938 1.225.6394 3.3365 2.1213 2.1213l10.7089-8.782c1.4937-1.2249-.6394-3.3365-2.1212-2.1213zM1172.8657 293.0908l-11.8755 4.0914c-1.8146.6251-1.0349 3.5241.7975 2.8928l11.8755-4.0914c1.8146-.6251 1.0348-3.5241-.7975-2.8928zM1175.1084 315.5739l-11.0842-3.684c-1.8363-.6103-2.6237 2.2859-.7975 2.8929l11.0842 3.684c1.8362.6102 2.6237-2.286.7975-2.8929zM1159.9178 336.4876c2.2581 3.0518 4.9287 5.6436 8.0656 7.7852 1.5985 1.0914 3.1008-1.507 1.5142-2.5904-2.6852-1.8334-5.0542-4.0937-6.9893-6.709-1.1359-1.535-3.7408-.0405-2.5905 1.5142z" fill="#212d50"/>
  </g>
  <g>
    <path d="M1460.4825 386.7068c13.9757 13.6776 37.4934 19.6814 55.9777 21.466 5.7.5503 11.4773.9579 17.13.0419 6.6152-1.0719 12.7942-3.9099 18.8787-6.7185 17.1896-7.9344 27.0042-13.251 33.6315-31.5526 5.4478-15.0444 4.4854-32.496-4.2764-46.1301-4.7998-7.4689-11.6343-13.8603-14.2729-22.3373-6.1094-19.627 12.0999-37.2883 24.12-53.9635 29.6819-41.177 21.9583-104.682-16.7285-137.5438.0413 16.1693-12.4724 29.7662-26.2162 38.2842-13.7438 8.5181-29.4243 13.8097-42.38 23.4842-25.5485 19.0779-36.7289 55.32-26.3687 85.4755 4.1476 12.072 11.4531 24.4968 7.8099 36.7304-4.2084 14.1312-20.5908 20.1813-30.5502 31.0539-14.473 15.8003-13.1045 42.8858.5387 58.8209.8552.9989 1.7589 1.9615 2.7064 2.8888z" fill="#a5cafa"/>
    <path d="M1571.1277 163.4528c1.7172 27.4615-15.8833 50.3501-28.9082 72.9263-6.376 11.0514-12.2473 22.6672-15.0062 35.2098-3.5869 16.3072-1.5558 33.0463-2.1735 49.571-.6195 16.5777-4.7616 34.8216-18.698 45.3398-1.522 1.1487-.0286 3.7548 1.5142 2.5904 26.0171-19.6359 18.6134-55.4162 20.4552-83.4944 2.0155-30.728 21.9886-53.9337 35.4412-80.2849 6.6627-13.0511 11.3016-27.0445 10.3754-41.858-.12-1.9177-3.1208-1.9313-3.0001 0zM1540.1697 201.4595c-2.2572-4.3519-3.5549-8.9685-3.8823-13.8601-.1283-1.9162-3.1293-1.9305-3 0 .3629 5.4226 1.7897 10.55 4.292 15.3743.8891 1.7144 3.4789.199 2.5903-1.5142zM1522.7252 216.8338c-3.7219-.0215-7.1261-1.3109-9.8949-3.81-1.4301-1.2907-3.5582.8244-2.1213 2.1213 3.3536 3.0269 7.4923 4.6625 12.0162 4.6887 1.9307.0111 1.933-2.9889 0-3zM1512.9603 246.4478c-4.4307 2.9963-9.3384 4.3909-14.6863 4.1515-1.9302-.0864-1.9259 2.9138 0 3 5.8181.2604 11.3749-1.2979 16.2004-4.5611 1.5907-1.0756.091-3.6759-1.5141-2.5904zM1584.6119 199.7793c-3.5643 2.7179-7.5527 4.4023-11.9869 5.0619-1.903.2831-1.0942 3.1742.7975 2.8928 4.6539-.6922 8.9617-2.511 12.7036-5.3643 1.515-1.1553.0222-3.7619-1.5142-2.5904zM1580.0481 227.9112c-4.3494 1.4212-8.6931 1.3974-13.0267-.0613-1.8339-.6173-2.6206 2.2792-.7975 2.8928 4.7958 1.6143 9.8137 1.6324 14.6218.0613 1.827-.597 1.0449-3.4949-.7976-2.8928z" fill="#212d50"/>
    <path d="M1564.9174 256.066c-3.6827-1.2783-6.7008-4.0809-8.1757-7.7031-.7184-1.7645-3.6217-.9927-2.8928.7975 1.8992 4.6643 5.501 8.1427 10.2709 9.7984 1.8277.6344 2.6131-2.2626.7976-2.8928zM1511.395 319.9399c-5.3671-3.4611-9.8196-7.9593-13.2317-13.3573-1.0288-1.6277-3.626-.1242-2.5903 1.5142 3.6874 5.8336 8.5082 10.6934 14.3079 14.4335 1.6273 1.0494 3.133-1.5464 1.5141-2.5904zM1498.6758 335.1083l-15.2537-2.845c-1.8872-.352-2.696 2.5388-.7976 2.8929l15.2538 2.845c1.8871.3519 2.696-2.5389.7975-2.8929zM1493.3947 357.3078l-15.3021.9741c-1.9174.122-1.931 3.1229 0 3l15.3021-.9741c1.9172-.1221 1.931-3.1229 0-3zM1553.1523 320.1568l-12.8911 3.8669c-1.8446.5533-1.0587 3.4497.7976 2.8929l12.891-3.8669c1.8446-.5534 1.0589-3.4497-.7975-2.8929zM1549.3718 343.6518l-13.0885 1.6382c-1.8904.2366-1.9141 3.2396 0 3l13.0885-1.6382c1.8903-.2366 1.914-3.2396 0-3zM1537.7635 375.8516c-5.1044-2.4308-9.0541-6.3483-11.5215-11.436-.8422-1.7367-3.4301-.2173-2.5903 1.5142 2.6644 5.4942 7.0842 9.8867 12.5977 12.5123 1.7342.8257 3.2583-1.76 1.5141-2.5905z" fill="#212d50"/>
  </g>
  <g>
    <path d="M1356.853 350.3524c24.7599 52.2039 109.2855 60.804 144.7692 14.3425 12.4781-16.3397 15.7618-41.5103 2.7354-58.1885-12.6473-16.193-21.4989-29.4789-19.8146-51.9517 1.5448-20.6118 13.95-38.5188 24.4718-56.31 10.522-17.7913 19.7635-38.6473 14.2833-58.5774-8.9476-32.5398-43.6465-47.1822-61.3992-73.8251l-42.1799 32.5902c-20.5261 15.8594-43.272 36.7356-39.9148 62.4566 3.2803 25.1306 31.3207 47.8019 20.4536 70.6976-4.1704 8.7866-13.0883 14.0842-20.5999 20.2626-28.0366 23.0607-38.3618 65.7033-22.8049 98.5032z" fill="#f09a82"/>
    <path d="M1458.1573 106.505c6.8011 32.9924 3.7638 66.1685-7.1027 97.9192-5.2797 15.4268-11.4883 30.5282-15.6931 46.3074-4.0957 15.3692-6.6384 31.16-7.6292 47.0337-1.1083 17.7587-.1631 35.5493 2.5973 53.1199.2987 1.9017 3.1899 1.0943 2.8928-.7975-5.1494-32.7784-3.5161-66.4815 5.0319-98.5585 4.205-15.7798 10.4133-30.8802 15.6931-46.3074 5.1888-15.1613 8.9023-30.6691 10.3033-46.6553 1.55-17.6882.3818-35.4798-3.2007-52.8589-.3894-1.8898-3.2817-1.09-2.8927.7974zM1440.3162 136.7249c-3.8979-3.256-7.2151-7.0242-9.9121-11.3301-1.0226-1.6325-3.6193-.1284-2.5905 1.5142 2.8265 4.5126 6.2933 8.5225 10.3813 11.9372 1.4721 1.2297 3.6053-.8817 2.1213-2.1213zM1429.2086 165.3818c-5.5706-2.4091-10.7919-5.4535-15.5773-9.1921-1.504-1.1751-3.6418.9334-2.1213 2.1213 4.9987 3.9052 10.3588 7.1418 16.1846 9.6612 1.7536.7584 3.2833-1.8253 1.514-2.5904zM1432.8052 204.7515c-5.2334.0187-10.3018.8821-15.2377 2.6281-1.8076.6395-1.0292 3.539.7976 2.8928 4.687-1.658 9.4667-2.5032 14.4401-2.521 1.93-.0068 1.9338-3.0068 0-2.9999zM1492.9554 128.7586c-2.917 3.9561-6.8657 6.987-11.4399 8.7837-1.7767.6978-1.0032 3.6001.7975 2.8928 5.3759-2.1115 9.8054-5.514 13.2328-10.1624 1.1468-1.5552-1.4556-3.0531-2.5904-1.5141zM1495.7283 157.2923c-3.6716 5.3378-10.3014 7.5421-16.4629 5.6797-1.8521-.5598-2.6437 2.3348-.7975 2.8928 7.4994 2.2669 15.4335-.6363 19.8507-7.0583 1.0969-1.5947-1.5019-3.0966-2.5903-1.5142zM1487.9595 197.2606c-4.6211-.6901-8.5325-4.2798-9.1342-9.0155-.24-1.8893-3.243-1.9133-3 0 .7599 5.981 5.2743 11.0029 11.3367 11.9083 1.8887.2821 2.7034-2.6082.7975-2.8928zM1414.4843 281.9266l-12.9124-8.6904c-1.6061-1.0809-3.1093 1.5168-1.5142 2.5904l12.9124 8.6904c1.6059 1.0809 3.1092-1.5169 1.5142-2.5904zM1404.0717 309.374c-4.2437 2.6259-8.8468 4.1336-13.8334 4.4523-1.9172.1225-1.931 3.1234 0 3 5.4995-.3514 10.6576-1.9598 15.3475-4.8619 1.6387-1.014.1338-3.6102-1.5141-2.5904zM1411.3446 333.887l-13.2708 10.8827c-1.4938 1.225.6395 3.3366 2.1213 2.1213 4.4236-3.6276 8.8472-7.2551 13.2706-10.8827 1.4939-1.225-.6393-3.3365-2.1211-2.1213zM1464.3969 269.0726l-14.7163 5.0701c-1.8146.6252-1.0349 3.5241.7975 2.8929l14.7163-5.0701c1.8144-.6252 1.0347-3.5242-.7975-2.8929zM1466.9851 296.9339l-13.7357-4.5652c-1.8363-.6103-2.6237 2.2859-.7975 2.8929l13.7357 4.5652c1.8363.6102 2.6237-2.286.7975-2.8929zM1448.566 322.3234c2.7593 3.7292 6.0336 6.9021 9.8662 9.5188 1.5985 1.0914 3.1008-1.507 1.5142-2.5904-3.382-2.3091-6.3531-5.1491-8.7899-8.4426-1.1359-1.5351-3.7409-.0406-2.5905 1.5142z" fill="#212d50"/>
  </g>
  <g>
    <path d="M1337.9009 398.3262c31.9539-7.9035 69.778-41.4734 60.8409-78.0723-4.8468-19.8465-21.9114-36.3037-21.7267-56.7326.2061-22.7983 21.6328-39.775 27.6219-61.7735 4.6796-17.1886-.7615-35.917-10.7411-50.6735s-24.0912-26.172-38.3518-36.848c1.4677 15.212-7.7545 29.408-18.2722 40.4956-10.5178 11.0876-22.908 20.7741-30.4839 34.0469-9.9429 17.4199-9.9756 40.0776-.0829 57.526 4.7772 8.4259 11.8048 16.0388 13.2311 25.6192 2.4194 16.2525-11.6898 29.517-21.4766 42.7162-10.2903 13.8784-16.7224 31.3583-14.2744 48.4612 2.4479 17.1029 15.1387 33.1832 32.1024 36.4598 7.1415 1.3795 14.5526.5214 21.6133-1.225z" fill="#a5cafa"/>
    <path d="M1366.1188 144.6882c-1.9321 18.9227-9.2032 36.9102-12.2366 55.68-2.6838 16.6071-3.7622 33.4158-4.7098 50.195-1.9941 35.3088-3.4529 71.6379-18.8251 104.1709-.8203 1.7361 1.7653 3.2605 2.5905 1.5141 15.1099-31.9778 17.1016-67.4777 19.0413-102.2285 1.0175-18.2289 2.0359-36.5186 5.075-54.5458 3.1119-18.4591 10.1602-36.1322 12.0648-54.7858.1958-1.9187-2.8057-1.905-3.0001.0001zM1344.1869 187.6694c-2.4745-4.963-5.5754-9.5069-9.2571-13.6518-1.2848-1.4464-3.4001.6815-2.1213 2.1213 3.516 3.9584 6.4266 8.3086 8.788 13.0446.8615 1.728 3.4501.2103 2.5904-1.5141zM1336.3512 208.6971c-4.2898-4.1579-8.9783-7.8287-14.0408-10.9999-1.6409-1.0279-3.1483 1.5667-1.5142 2.5904 4.851 3.0387 9.3239 6.5474 13.4336 10.5308 1.387 1.3444 3.5108-.7746 2.1214-2.1213zM1334.5563 232.1165l-15.7866-1.289c-1.9243-.1571-1.9139 2.8437 0 3l15.7866 1.289c1.9243.1572 1.914-2.8437 0-3zM1381.8646 170.9695c-4.5359 2.4837-8.7185 5.4871-12.5408 8.9689-1.4304 1.3029.6959 3.4197 2.1212 2.1213 3.6384-3.3142 7.6183-6.1368 11.9337-8.4998 1.6939-.9275.1818-3.519-1.5141-2.5904zM1375.5693 202.3379l13.3326-1.0005c1.9133-.1436 1.929-3.1448 0-3l-13.3326 1.0005c-1.9133.1436-1.9289 3.1448 0 3zM1363.1565 219.1818c4.5436 2.1369 9.3368 2.68 14.2365 1.5525 1.8807-.4328 1.0847-3.326-.7975-2.8928-4.0656.9356-8.1431.5286-11.9248-1.2501-1.7371-.817-3.2619 1.7684-1.5142 2.5904zM1325.3766 314.9254c-.4302-3.3923-2.2085-6.2943-5.1659-8.0652-1.6604-.9943-3.1707 1.5985-1.5142 2.5904 1.9664 1.1775 3.3882 3.1736 3.6801 5.4748.2396 1.8894 3.2427 1.9133 3 0zM1321.6368 331.8048c-2.9698-2.8743-6.1849-5.4587-9.621-7.7548-1.6097-1.0757-3.1134 1.5218-1.5142 2.5904 3.2273 2.1566 6.2251 4.5867 9.0138 7.2857 1.388 1.3433 3.5119-.7756 2.1214-2.1213zM1312.7703 349.9517l-10.2892-1.5457c-1.8887-.2837-2.7032 2.6065-.7975 2.8929l10.2892 1.5457c1.8885.2836 2.7032-2.6066.7975-2.8929zM1371.7952 290.5933c-2.2974 2.4166-5.0237 4.3157-8.1317 5.5401-1.7758.6996-1.0023 3.6019.7975 2.8929 3.6014-1.4188 6.7839-3.5014 9.4554-6.3116 1.3301-1.3992-.7877-3.5241-2.1212-2.1214zM1377.118 309.84c-3.6476 4.2411-8.4386 6.8163-13.9749 7.5694-1.9043.259-1.0934 3.15.7976 2.8928 5.9915-.8149 11.358-3.7591 15.2986-8.3409 1.253-1.4568-.8597-3.5881-2.1213-2.1213zM1377.0077 337.8686c-6.5258 1.9607-13.1685 1.6672-19.4441-1.0434-1.7539-.7576-3.2836 1.8261-1.5142 2.5904 7.0271 3.0352 14.406 3.5541 21.7557 1.3458 1.8444-.5541 1.0587-3.4505-.7974-2.8928z" fill="#212d50"/>
  </g>
  <g>
    <path d="M540.6258 392.1906c17.5961 8.5309 41.803 6.7549 59.897 2.5767 5.5797-1.2884 11.1873-2.7368 16.2565-5.4006 5.9323-3.1173 10.89-7.7708 15.7675-12.3663 13.7797-12.9829 21.3976-21.1413 21.8694-40.6001.3878-15.9957-6.0671-32.2381-18.7053-42.3837-6.9234-5.5579-15.434-9.4478-20.6282-16.6479-12.0263-16.6707-.3689-39.2007 5.733-58.83 15.0678-48.4719-12.4245-106.2361-59.545-125.1101 5.1744 15.3191-2.3732 32.1862-12.7002 44.6282s-23.5151 22.4396-32.7276 35.7279c-18.1668 26.2041-17.2583 64.1207 2.1427 89.4246 7.7667 10.1298 18.6401 19.5912 19.0707 32.3485.4974 14.7362-13.1154 25.6759-19.1061 39.1486-8.7057 19.5788 1.1941 44.8274 19.1917 55.6045 1.1284.6756 2.2909 1.3013 3.4839 1.8797z" fill="#9b6fef"/>
    <path d="M574.6154 145.2774c10.8802 26.914.0214 55.5442-5.0205 82.4933-2.384 12.7422-3.7327 25.7751-1.6269 38.6559 2.4833 15.1894 9.0823 29.2465 13.2998 43.9608 4.5552 15.8927 6.0318 34.0185-3.7405 48.3084-1.0926 1.5977 1.506 3.0999 2.5904 1.5142 17.5774-25.7031 1.0673-56.3555-6.4283-82.3456-4.4245-15.3414-4.4673-30.4436-1.7779-46.0923 2.4792-14.4254 6.5247-28.5379 8.8053-43.0005 2.3542-14.9299 2.5366-30.0799-3.2086-44.2915-.7143-1.7672-3.6175-.9951-2.8928.7973zM557.4277 191.2946c-3.5203-3.3907-6.2827-7.3696-8.1321-11.9005-.7198-1.7637-3.6232-.992-2.8928.7975 2.0503 5.0232 4.9916 9.4564 8.9036 13.2243 1.3909 1.3398 3.5151-.7788 2.1213-2.1213zM545.7737 211.3205c-3.5229 1.145-7.1593 1.0803-10.5821-.3988-1.7538-.7579-3.2835 1.8258-1.5142 2.5904 4.1678 1.801 8.5536 2.1118 12.8937.7012 1.8284-.5942 1.0461-3.492-.7974-2.8928zM545.6758 242.7573c-3.1111 4.1044-7.4205 6.9563-12.3638 8.346-1.8558.5217-1.0673 3.4171.7975 2.8928 5.7557-1.6181 10.5541-4.972 14.1567-9.7247 1.1662-1.5384-1.4376-3.0348-2.5904-1.5141zM598.7965 175.749c-2.4196 3.5896-5.6544 6.3768-9.5124 8.3258-1.7236.8707-.2067 3.4597 1.5142 2.5904 4.3195-2.1821 7.8874-5.3946 10.5886-9.4021 1.082-1.6052-1.5159-3.1083-2.5904-1.5141zM603.6498 203.593c-3.6628 2.7298-7.7921 4.1411-12.371 4.1275-1.9305-.0057-1.9333 2.9942 0 3 5.0535.015 9.8278-1.5132 13.8851-4.5371 1.5304-1.1406.0363-3.7459-1.5141-2.5904z" fill="#212d50"/>
    <path d="M598.2448 235.144c-4.1434-.0721-7.7521-1.8139-10.4642-4.9292-1.27-1.4588-3.3844.6705-2.1213 2.1213 3.2082 3.685 7.7117 5.7231 12.5856 5.8078 1.9311.0337 1.9314-2.9663-.0001-2.9999zM567.7902 312.7332c-6.1973-1.6-11.8312-4.3856-16.808-8.4171-1.4872-1.2047-3.6226.9052-2.1213 2.1213 5.3824 4.36 11.4218 7.4562 18.1319 9.1886 1.8704.483 2.6683-2.4098.7974-2.8928zM560.1371 331.1854l-15.3676 2.1467c-1.9039.266-1.0937 3.157.7975 2.8928l15.3676-2.1467c1.9039-.2659 1.0937-3.157-.7975-2.8928zM562.5748 353.837l-14.2006 5.7834c-1.7645.7186-.9927 3.6219.7975 2.8928l14.2006-5.7834c1.7644-.7186.9926-3.6219-.7975-2.8928zM607.4427 299.6047l-10.9955 7.7607c-1.5651 1.1046-.0679 3.7071 1.5142 2.5904l10.9955-7.7607c1.565-1.1046.0679-3.707-1.5142-2.5904zM610.9586 323.2614l-11.8906 5.7101c-1.7397.8355-.2198 3.4231 1.5142 2.5904l11.8906-5.7101c1.7396-.8354.2196-3.423-1.5142-2.5904zM610.1518 357.3223c-5.4681-.6943-10.3149-3.1787-14.1774-7.0848-1.3596-1.3749-3.4808.7465-2.1213 2.1213 4.4556 4.5058 10.0289 7.1674 16.2988 7.9635 1.9101.2425 1.8924-2.7597-.0001-3z" fill="#212d50"/>
  </g>
</svg>
