<svg xmlns="http://www.w3.org/2000/svg" viewBox="0 0 263 279">
<style>
    #violet{
      animation-name: violetChange;
		  animation-duration: 4s;
		  animation-delay: 3s;
      animation-fill-mode: forwards;
      animation-timing-function: linear;

    }
    @keyframes violetChange{
      35%{
        fill: #6610ef;
      }
      75%{
        fill: #6536ca;      
      }
      100%{
        fill: #9b6fef;
      }
    }


    #blue{
      animation-name: blueChange;
		  animation-duration: 3s;
		  animation-delay: 3.5s;
      animation-fill-mode: forwards;
      animation-timing-function: linear;

    }
    @keyframes blueChange{
      35%{
        fill: #71b1fc;
      }
      75%{
        fill: #1177d0;      
      }
      100%{
        fill: #a5cafa;
      }
    }


    #orange{
      animation-name: orangeChange;
		  animation-duration: 2.5s;
		  animation-delay: 4s;
      animation-fill-mode: forwards;
      animation-timing-function: linear;

    }
    @keyframes orangeChange{
      35%{
        fill: #f09a82;
      }
      75%{
        fill: #ff9c6e;      
      }
      100%{
        fill: #faa76c;
      }
    }
  
  </style>
  <path id="violet" d="M281.7643 277.8215c-34.8677-33.0551-67.5436-75.1615-80.692-122.852-12.8044-46.4428-6.3991-95.1379-29.2965-138.5248 8.4649 9.7169 20.1883 11.8081 29.8444 19.4121 7.7808 6.1272 13.7204 15.4284 19.1161 24.594 19.3465 32.8642 35.5019 69.1103 40.1433 105.1754 2.4192 18.7985 1.6464 36.978 3.0266 55.6032s5.2461 38.5574 15.4311 55.6198" fill="#9b6fef"/>
  <path id="orange" d="M8.7466 152.2718c6.8145 14.5 18.1663 26.3221 26.7323 39.8614 10.7671 17.0182 17.2176 36.8724 30.5783 51.9402 19.7463 22.2693 51.6909 30.2726 81.4015 28.507 15.9866-.95 31.7359-4.3544 47.6961-5.6747 25.4666-2.1067 51.3664 1.1796 75.4998 9.5798-1.0707-8.4944-8.6989-14.4198-15.7878-19.2208-23.0995-15.6446-47.9848-30.2063-75.6059-34.1324-19.3733-2.7537-39.4711-.1608-58.3504-5.3068-20.8376-5.6799-37.9543-20.1301-54.7121-33.7553-16.7578-13.6252-34.8549-27.2528-56.1734-30.7155" fill="#f09a82"/>
  <path id="blue" d="M109.051 98.8219c4.4483 19.2075 7.5682 43.236 14.9695 61.5099 2.1965 5.4233 4.6799 10.8001 8.2836 15.4098 12.4076 15.8714 34.8356 19.342 51.4113 30.7915 13.3276 9.2059 22.5319 23.374 35.5592 33.0002 7.5852 5.6049 16.2679 9.5212 24.2523 14.541 7.9844 5.0199 15.5436 11.5224 19.0434 20.2803 2.2019-6.7058 3.6667-17.5715 1.0067-24.1091-9.6152-23.6316-21.348-37.0466-40.9126-53.4214-19.0659-15.9574-49.4512-31.6784-63.6557-52.0838-3.5457-5.0936-6.363-10.6999-10.3134-15.4865-4.575-5.5434-10.4983-9.7839-16.3496-13.958-7.7734-5.5454-14.3578-13.1107-23.2947-16.4739" fill="#a5cafa"/>
</svg>
