<svg xmlns="http://www.w3.org/2000/svg" viewBox="0 0 69.9893 72.9957">
  <path d="M14.2773 59.8732c4.8063.7489 9.7474.6234 14.5095-.3684 3.8057-.7926 7.4767-2.128 11.0792-3.5887 4.0307-1.6343 8.039-3.4573 11.4681-6.1328 3.4291-2.6755 6.2682-6.2972 7.2916-10.5245.1416-.5848.2339-1.2516-.109-1.746-.2752-.3966-.762-.578-1.22-.7304a51.8191 51.8191 0 0 0-8.7955-2.094c5.4141-.6748 10.2971-4.5856 12.1383-9.7215.2398-.669.4334-1.3719.387-2.081-.0511-.7804-.3911-1.5168-.8239-2.1682-2.2148-3.3333-7.1859-4.444-10.6088-2.3703 1.5373-2.2922 2.3718-5.049 2.3636-7.809-.007-2.3845-.7182-4.8953-2.5075-6.4715-2.4324-2.1428-6.3407-1.953-9.0438-.1638-2.7031 1.7892-4.3372 4.8447-5.1995 7.9695-.8623 3.1248-1.0558 6.3882-1.516 9.5969a117.4637 117.4637 0 0 0-4.7663-8.4982c-.6331-1.0266-1.4875-2.1632-2.6936-2.164-.7317-.0005-1.3865.4358-1.958.8927-3.1248 2.4986-5.2147 6.036-7.1948 9.5126-1.7757 3.1176-3.5269 6.2681-4.7842 9.6284-3.4879 9.3223-2.8723 20.0985 1.6545 28.963" fill="#faa76c"/>
  <path d="M41.5253 31.1443c-3.3275 1.8433-6.3636 4.1821-9.1454 6.7654-2.7875 2.5836-5.2224 5.53-7.3813 8.6254-2.165 3.0952-4.1754 6.2249-6.2679 9.2767-.5022.778-1.0223 1.5424-1.5878 2.2803a28.0794 28.0794 0 0 1-1.7168 2.2123c-.5808.7361-1.2137 1.4474-1.903 2.1384-.6648.7043-1.3707 1.395-2.2236 2.0291l-.057.0423c-.7212.5361-1.7404.3861-2.2765-.3351a1.6241 1.6241 0 0 1-.3202-1.0288c.0386-1.0793.2241-2.1021.4509-3.1111a26.619 26.619 0 0 1 .9509-2.9044 32.2199 32.2199 0 0 1 1.3115-2.7278c.5004-.8729 1.046-1.7193 1.6097-2.552 2.2812-3.3173 5.0822-6.2559 8.1129-8.8789 3.0369-2.6229 6.1825-5.045 9.3098-7.4324 3.1329-2.3877 6.3459-4.6224 9.5504-6.9058.6669-.4771 1.5942-.3233 2.0713.3436.4772.6669.3234 1.5943-.3435 2.0714a1.5133 1.5133 0 0 1-.1444.0914z" fill="#6610ef"/>
</svg>
