<?xml version="1.0" encoding="utf-8"?>
<!-- Generator: Adobe Illustrator 23.0.1, SVG Export Plug-In . SVG Version: 6.00 Build 0)  -->
<svg version="1.1" id="Layer_1" xmlns="http://www.w3.org/2000/svg" xmlns:xlink="http://www.w3.org/1999/xlink" x="0px" y="0px"
	 viewBox="0 0 1911.7428 431.3475" style="enable-background:new 0 0 1911.7428 431.3475;" xml:space="preserve">
<g>
	<g>
		<path style="fill:#FF9C6E;" d="M732.4924,397.4218c-45.0409,2.293-107.9493-26.7518-110.727-78.2945
			c-1.5055-27.9503,14.3561-56.2956,6.0207-83.0164c-9.3022-29.82-44.1304-43.5977-60.7007-70.0777
			c-12.9471-20.6902-13.2304-47.4095-5.9874-70.7172c7.243-23.3077,21.2289-43.8706,35.7034-63.5226
			c4.1016,20.5331,21.8209,35.4987,40.0083,45.8741c18.1874,10.3754,38.2755,18.1715,53.47,32.5784
			c19.942,18.9084,28.9611,48.6127,22.8986,75.4168c-2.9276,12.9438-9.1289,25.7128-7.2041,38.8432
			c3.2654,22.2749,27.0257,34.0826,45.0907,47.5172c18.9948,14.1259,34.3559,34.5039,37.9207,57.9055
			c3.5649,23.4015-6.7096,49.5196-27.6606,60.5376C752.5051,395.1046,742.4448,396.9151,732.4924,397.4218z"/>
	</g>
	<g>
		<g>
			<path style="fill:#212D50;" d="M591.5863,76.9287c8.0159,19.3959,20.7825,36.1507,30.8995,54.4205
				c9.3918,16.9602,17.028,34.8201,24.0071,52.8869c13.5205,35.0002,24.6292,71.0954,41.7065,104.6156
				c9.3521,18.3568,20.606,35.6903,34.4709,50.9702c1.3002,1.4329,3.4167-0.6938,2.1213-2.1213
				c-50.7653-55.946-61.682-134.1845-95.3286-199.6403c-10.8359-21.08-25.9055-39.9623-34.9839-61.929
				C593.7521,74.3719,590.8483,75.143,591.5863,76.9287L591.5863,76.9287z"/>
		</g>
	</g>
	<g>
		<g>
			<path style="fill:#212D50;" d="M644.2382,124.4986c1.2368-7.1937,3.3373-14.0896,6.3943-20.7232
				c0.8026-1.7416-1.7824-3.2675-2.5905-1.5142c-3.1643,6.8665-5.415,13.9851-6.6968,21.4398
				C641.0206,125.5893,643.9111,126.4005,644.2382,124.4986L644.2382,124.4986z"/>
		</g>
	</g>
	<g>
		<g>
			<path style="fill:#212D50;" d="M662.5071,149.8232c3.8384-6.8941,8.3283-13.3111,13.5178-19.2581
				c1.2643-1.449-0.8491-3.5793-2.1213-2.1213c-5.3535,6.1349-10.0252,12.7498-13.9869,19.8653
				C658.9766,149.9975,661.5668,151.5121,662.5071,149.8232L662.5071,149.8232z"/>
		</g>
	</g>
	<g>
		<g>
			<path style="fill:#212D50;" d="M672.0256,181.5142c6.7316-2.6483,13.4631-5.2965,20.1947-7.9448
				c1.7762-0.6988,1.0027-3.6011-0.7975-2.8928c-6.7316,2.6483-13.4631,5.2965-20.1946,7.9448
				C669.4519,179.3202,670.2253,182.2225,672.0256,181.5142L672.0256,181.5142z"/>
		</g>
	</g>
	<g>
		<g>
			<path style="fill:#212D50;" d="M583.8813,120.0885c6.6458,1.4098,13.0135,3.5361,19.152,6.4566
				c1.7344,0.8252,3.2585-1.7605,1.5142-2.5904c-6.3654-3.0284-12.9703-5.2956-19.8687-6.759
				C582.7956,116.7962,581.9907,119.6875,583.8813,120.0885L583.8813,120.0885z"/>
		</g>
	</g>
	<g>
		<g>
			<path style="fill:#212D50;" d="M604.4507,151.8777c-5.9611,1.3232-11.9221,2.6464-17.8832,3.9696
				c-1.8839,0.4182-1.0867,3.3111,0.7975,2.8928c5.9611-1.3232,11.9221-2.6464,17.8832-3.9696
				C607.1321,154.3523,606.3349,151.4594,604.4507,151.8777L604.4507,151.8777z"/>
		</g>
	</g>
	<g>
		<g>
			<path style="fill:#212D50;" d="M625.8303,170.0064c-4.3557,3.9442-9.6713,6.203-15.5405,6.5806c-1.9171,0.1234-1.9309,3.1243,0,3
				c6.6799-0.4298,12.6973-2.9638,17.6618-7.4593C629.3858,170.8291,627.259,168.7126,625.8303,170.0064L625.8303,170.0064z"/>
		</g>
	</g>
	<g>
		<g>
			<path style="fill:#212D50;" d="M719.2922,282.0807c-0.5502-3.3416,0.4729-6.6662,2.7333-9.1721
				c1.2902-1.4304-0.8249-3.5586-2.1213-2.1213c-3.0341,3.3636-4.2387,7.6334-3.5048,12.0909
				C716.7123,284.7786,719.6037,283.9724,719.2922,282.0807L719.2922,282.0807z"/>
		</g>
	</g>
	<g>
		<g>
			<path style="fill:#212D50;" d="M730.577,305.4588c2.6121-4.6839,5.6001-9.1073,9.0066-13.251
				c1.2167-1.4801-0.8939-3.6144-2.1213-2.1213c-3.5688,4.3412-6.738,8.9489-9.4758,13.8582
				C727.0453,305.6325,729.6355,307.1471,730.577,305.4588L730.577,305.4588z"/>
		</g>
	</g>
	<g>
		<g>
			<path style="fill:#212D50;" d="M748.1419,327.0534c4.2943-2.0345,8.5884-4.069,12.8827-6.1035
				c1.7437-0.8261,0.223-3.4134-1.5142-2.5904c-4.2942,2.0345-8.5884,4.069-12.8827,6.1035
				C744.884,325.2892,746.4048,327.8764,748.1419,327.0534L748.1419,327.0534z"/>
		</g>
	</g>
	<g>
		<g>
			<path style="fill:#212D50;" d="M643.6296,272.6563c4.5483,2.5685,9.437,4.049,14.6381,4.4933c1.9235,0.1643,1.9125-2.8366,0-3
				c-4.6724-0.3991-9.0432-1.7792-13.1239-4.0836C643.4604,269.1153,641.9466,271.7059,643.6296,272.6563L643.6296,272.6563z"/>
		</g>
	</g>
	<g>
		<g>
			<path style="fill:#212D50;" d="M644.2729,300.0085c7.1317,4.5034,15.1915,6.0788,23.5046,4.7864
				c1.902-0.2957,1.0943-3.187-0.7975-2.8928c-7.5148,1.1683-14.7829-0.4362-21.1929-4.4839
				C644.1499,296.3843,642.6429,298.9792,644.2729,300.0085L644.2729,300.0085z"/>
		</g>
	</g>
	<g>
		<g>
			<path style="fill:#212D50;" d="M657.2997,337.1749c10.2876,0.0293,19.78-3.5032,27.6057-10.1671
				c1.4721-1.2535-0.6586-3.3669-2.1213-2.1213c-7.2336,6.1596-15.9965,9.3155-25.4844,9.2884
				C655.3691,334.1694,655.3664,337.1694,657.2997,337.1749L657.2997,337.1749z"/>
		</g>
	</g>
</g>
<g>
	<g>
		<path style="fill:#FF9C6E;" d="M1217.9995,396.6203c45.0856-1.1105,105.6243-34.8171,104.5067-86.4225
			c-0.6068-27.9842-18.5612-55.0525-12.2648-82.3259c7.0267-30.4366,40.7167-46.8018,55.2427-74.4561
			c11.3499-21.6077,9.6171-48.2723,0.6368-70.9674s-24.4772-42.1445-40.3926-60.6489
			c-2.5413,20.784-19.0815,37.0433-36.4346,48.7609c-17.3531,11.7176-36.796,21.0065-50.8606,36.5183
			c-18.4592,20.3586-25.2123,50.6585-17.1455,76.929c3.8955,12.6862,11.0422,24.951,10.1132,38.1892
			c-1.5762,22.4577-24.3782,36.0238-41.3785,50.7826c-17.8752,15.5182-31.6558,36.9967-33.4456,60.6005
			c-1.7897,23.6038,10.4253,48.8726,32.1476,58.2791C1197.869,395.819,1208.0372,396.8657,1217.9995,396.6203z"/>
	</g>
	<g>
		<g>
			<path style="fill:#212D50;" d="M1331.4141,65.7256c-6.5406,19.9768-18.1597,37.6704-26.8199,56.7151
				c-7.5215,16.5403-13.4993,33.7302-18.8217,51.0889c-10.8801,35.4845-19.0624,71.8969-32.939,106.405
				c-8.0767,20.0852-18.2594,39.3507-31.5823,56.4707c-1.1719,1.5058,0.9364,3.6439,2.1212,2.1213
				c47.249-60.715,51.8147-140.723,81.5642-209.5024c9.1406-21.1327,22.1788-40.5365,29.3702-62.5011
				C1334.9089,64.6841,1332.0131,63.896,1331.4141,65.7256L1331.4141,65.7256z"/>
		</g>
	</g>
	<g>
		<g>
			<path style="fill:#212D50;" d="M1288.2772,116.9128c-1.8385-7.3298-4.5974-14.2825-8.2681-20.8861
				c-0.9381-1.6878-3.5302-0.1765-2.5903,1.5142c3.5497,6.3862,6.1882,13.0838,7.9656,20.1695
				C1285.8539,119.5819,1288.7479,118.789,1288.2772,116.9128L1288.2772,116.9128z"/>
		</g>
	</g>
	<g>
		<g>
			<path style="fill:#212D50;" d="M1271.6412,142.839c-4.4825-6.7951-9.6207-13.0615-15.4231-18.7724
				c-1.3772-1.3555-3.5,0.7643-2.1212,2.1213c5.6208,5.5325,10.6105,11.5811,14.954,18.1652
				C1270.1095,145.9578,1272.7085,144.4568,1271.6412,142.839L1271.6412,142.839z"/>
		</g>
	</g>
	<g>
		<g>
			<path style="fill:#212D50;" d="M1262.6978,173.8485c-6.9121-2.133-13.8242-4.2661-20.7363-6.3991
				c-1.849-0.5706-2.6398,2.3244-0.7976,2.8928c6.9121,2.133,13.8242,4.2661,20.7363,6.3991
				C1263.7491,177.312,1264.5399,174.417,1262.6978,173.8485L1262.6978,173.8485z"/>
		</g>
	</g>
	<g>
		<g>
			<path style="fill:#212D50;" d="M1344.3655,106.0101c-6.7642,1.9783-13.1968,4.7123-19.3147,8.2117
				c-1.6755,0.9584-0.166,3.5515,1.5142,2.5904c5.8984-3.3738,12.0752-6.0015,18.5981-7.9092
				C1347.0122,108.3621,1346.2253,105.4662,1344.3655,106.0101L1344.3655,106.0101z"/>
		</g>
	</g>
	<g>
		<g>
			<path style="fill:#212D50;" d="M1326.4703,145.0375c6.0439,0.8699,12.0878,1.7397,18.1317,2.6096
				c1.8884,0.2718,2.704-2.6184,0.7975-2.8928c-6.0438-0.8699-12.0878-1.7397-18.1316-2.6096
				C1325.3795,141.8729,1324.5638,144.7631,1326.4703,145.0375L1326.4703,145.0375z"/>
		</g>
	</g>
	<g>
		<g>
			<path style="fill:#212D50;" d="M1305.168,164.0065c5.2854,4.1052,11.4348,6.2626,18.1439,6.1873c1.9292-0.0217,1.9342-3.0217,0-3
				c-5.8618,0.0658-11.3765-1.7-16.0226-5.3086C1305.7826,160.715,1303.6444,162.8232,1305.168,164.0065L1305.168,164.0065z"/>
		</g>
	</g>
	<g>
		<g>
			<path style="fill:#212D50;" d="M1225.4354,280.9007c0.3783-4.302-1.2313-8.4531-4.3512-11.4267
				c-1.3976-1.3319-3.5223,0.7861-2.1213,2.1213c2.6072,2.4849,3.7871,5.7284,3.4725,9.3053
				C1222.2664,282.8235,1225.2675,282.8122,1225.4354,280.9007L1225.4354,280.9007z"/>
		</g>
	</g>
	<g>
		<g>
			<path style="fill:#212D50;" d="M1215.5033,303.1651c-3.0959-4.6855-6.5869-9.0668-10.4717-13.1226
				c-1.3381-1.397-3.4575,0.7263-2.1213,2.1213c3.7106,3.8739,7.0452,8.0396,10.0026,12.5155
				C1213.9725,306.2831,1216.5717,304.7821,1215.5033,303.1651L1215.5033,303.1651z"/>
		</g>
	</g>
	<g>
		<g>
			<path style="fill:#212D50;" d="M1198.1434,324.8376c-4.4354-1.7048-8.8708-3.4097-13.3064-5.1145
				c-1.8035-0.6932-2.584,2.2061-0.7975,2.8929c4.4354,1.7048,8.8708,3.4096,13.3064,5.1145
				C1199.1494,328.4237,1199.9299,325.5243,1198.1434,324.8376L1198.1434,324.8376z"/>
		</g>
	</g>
	<g>
		<g>
			<path style="fill:#212D50;" d="M1295.5898,262.9785c-4.0256,2.6985-8.3778,4.4016-13.1598,5.172
				c-1.901,0.3063-1.0942,3.1976,0.7975,2.8928c5.0026-0.8059,9.6689-2.654,13.8765-5.4744
				C1298.6996,264.4993,1297.1996,261.8995,1295.5898,262.9785L1295.5898,262.9785z"/>
		</g>
	</g>
	<g>
		<g>
			<path style="fill:#212D50;" d="M1297.0111,290.3014c-6.2427,4.6497-13.4158,6.7266-21.1783,6.1027
				c-1.9247-0.1547-1.9146,2.8461,0,3c8.2008,0.6591,16.0929-1.5967,22.6925-6.5123
				C1300.056,291.7516,1298.562,289.1463,1297.0111,290.3014L1297.0111,290.3014z"/>
		</g>
	</g>
	<g>
		<g>
			<path style="fill:#212D50;" d="M1288.3212,327.8783c-9.6165,0.7549-18.652-1.8118-26.446-7.4933
				c-1.5621-1.1386-3.0607,1.4631-1.5142,2.5904c8.172,5.957,17.8787,8.6943,27.9602,7.9029
				C1290.2332,330.7282,1290.2494,327.7269,1288.3212,327.8783L1288.3212,327.8783z"/>
		</g>
	</g>
</g>
<g>
	<g>
		<path style="fill:#FAA76C;" d="M893.6163,393.0446c-18.1238,7.3435-42.1593,3.9638-59.9359-1.4069
			c-5.4817-1.6561-10.9808-3.4737-15.8619-6.4683c-5.7122-3.5044-10.3499-8.4768-14.9114-13.3862
			c-12.8871-13.8694-19.9464-22.5156-19.1249-41.9628c0.6754-15.9861,8.1948-31.764,21.4788-41.0479
			c7.2772-5.0858,16.0273-8.4019,21.6882-15.2412c13.107-15.8352,2.9715-39.0896-1.8134-59.0808
			c-11.8154-49.3656,19.4524-105.1765,67.7223-120.8794c-6.1803,14.9416,0.2305,32.2728,9.7083,45.3731
			c9.4779,13.1003,21.973,23.9518,30.2827,37.8225c16.3865,27.3528,12.9619,65.1253-8.0768,89.0849
			c-8.4222,9.5916-19.9,18.31-21.1769,31.0106c-1.475,14.6706,11.3812,26.4902,16.4639,40.3311
			c7.3863,20.1137-4.1685,44.6491-22.8421,54.2072C896.0466,391.9995,894.845,392.5467,893.6163,393.0446z"/>
	</g>
	<g>
		<g>
			<path style="fill:#212D50;" d="M873.3876,143.1682c-12.5488,25.9361-4.5037,54.7133-1.0269,81.7693
				c1.9036,14.814,2.4725,29.7472-1.6692,44.2532c-4.4153,15.4646-12.6335,29.5235-17.1262,44.9565
				c-4.2709,14.6715-5.1837,30.8792,2.8174,44.4523c0.9798,1.662,3.574,0.1544,2.5905-1.5142
				c-16.5241-28.0314,5.9564-58.6542,14.1025-85.3769c8.1568-26.7576,0.4106-53.7358-2.5819-80.6256
				c-1.7554-15.7735-1.558-31.8455,5.4842-46.4005C876.8153,142.9519,874.2292,141.4288,873.3876,143.1682L873.3876,143.1682z"/>
		</g>
	</g>
	<g>
		<g>
			<path style="fill:#212D50;" d="M892.2418,193.6656c4.0317-3.3886,7.264-7.5364,9.5679-12.2726
				c0.8411-1.7291-1.7451-3.2518-2.5905-1.5142c-2.2039,4.5307-5.2422,8.424-9.0988,11.6654
				C888.6407,192.788,890.7723,194.9008,892.2418,193.6656L892.2418,193.6656z"/>
		</g>
	</g>
	<g>
		<g>
			<path style="fill:#212D50;" d="M899.5989,215.095c4.0523,1.6219,8.4364,1.6911,12.5461,0.2307
				c1.8065-0.6419,1.0282-3.5416-0.7975-2.8928c-3.6762,1.3063-7.3336,1.2171-10.951-0.2307
				C898.6042,211.4848,897.8256,214.3853,899.5989,215.095L899.5989,215.095z"/>
		</g>
	</g>
	<g>
		<g>
			<path style="fill:#212D50;" d="M895.8636,245.0323c3.274,4.983,7.9074,8.5995,13.5273,10.5854
				c1.8239,0.6445,2.6085-2.2529,0.7975-2.8928c-4.8527-1.7148-8.9094-4.9069-11.7345-9.2067
				C897.3982,241.9112,894.7993,243.4124,895.8636,245.0323L895.8636,245.0323z"/>
		</g>
	</g>
	<g>
		<g>
			<path style="fill:#212D50;" d="M847.3104,174.6441c2.4239,4.1748,5.8218,7.5945,9.9778,10.05
				c1.666,0.9843,3.1769-1.608,1.5142-2.5904c-3.7277-2.2024-6.7277-5.2296-8.9016-8.9737
				C848.9318,171.4609,846.3381,172.9696,847.3104,174.6441L847.3104,174.6441z"/>
		</g>
	</g>
	<g>
		<g>
			<path style="fill:#212D50;" d="M841.3544,202.9805c3.9667,3.3974,8.6557,5.3091,13.872,5.6339c1.928,0.12,1.9209-2.8804,0-3
				c-4.3821-0.2728-8.4127-1.8963-11.7507-4.7552C842.0167,199.6095,839.8851,201.7221,841.3544,202.9805L841.3544,202.9805z"/>
		</g>
	</g>
	<g>
		<g>
			<path style="fill:#212D50;" d="M846.4545,235.5148c4.8759,0.2394,9.4784-1.5743,12.9167-5.0306
				c1.3632-1.3703-0.7573-3.4925-2.1213-2.1213c-2.9225,2.9379-6.6653,4.3547-10.7953,4.1519
				C844.5247,232.42,844.5297,235.4203,846.4545,235.5148L846.4545,235.5148z"/>
		</g>
	</g>
	<g>
		<g>
			<path style="fill:#212D50;" d="M872.4893,314.8746c6.6633-1.2611,12.83-3.8702,18.3743-7.7744
				c1.5665-1.1031,0.0692-3.7054-1.5141-2.5904c-5.3615,3.7755-11.2147,6.2526-17.6577,7.472
				C869.7971,312.3404,870.5994,315.2323,872.4893,314.8746L872.4893,314.8746z"/>
		</g>
	</g>
	<g>
		<g>
			<path style="fill:#212D50;" d="M877.3068,333.7414c5.0637,1.0542,10.1274,2.1084,15.1911,3.1626
				c1.8839,0.3922,2.6895-2.499,0.7975-2.8928c-5.0637-1.0542-10.1274-2.1084-15.1911-3.1626
				C876.2204,330.4563,875.4149,333.3475,877.3068,333.7414L877.3068,333.7414z"/>
		</g>
	</g>
	<g>
		<g>
			<path style="fill:#212D50;" d="M873.0118,356.0299c4.595,2.2379,9.1901,4.4758,13.7851,6.7137
				c1.7288,0.842,3.2515-1.7443,1.5142-2.5904c-4.595-2.2379-9.1901-4.4759-13.7851-6.7138
				C872.7972,352.5975,871.2745,355.1838,873.0118,356.0299L873.0118,356.0299z"/>
		</g>
	</g>
	<g>
		<g>
			<path style="fill:#212D50;" d="M831.1935,298.5284c3.4853,2.8246,6.9706,5.6492,10.4559,8.4738
				c1.4871,1.2051,3.6223-0.9049,2.1213-2.1213c-3.4853-2.8246-6.9706-5.6492-10.4559-8.4738
				C831.8278,295.2019,829.6926,297.312,831.1935,298.5284L831.1935,298.5284z"/>
		</g>
	</g>
	<g>
		<g>
			<path style="fill:#212D50;" d="M826.418,322.1339c3.8284,2.1624,7.6567,4.3248,11.4851,6.4872
				c1.6832,0.9507,3.197-1.6399,1.5142-2.5904c-3.8284-2.1624-7.6567-4.3248-11.4851-6.4872
				C826.2488,318.5927,824.7351,321.1834,826.418,322.1339L826.418,322.1339z"/>
		</g>
	</g>
	<g>
		<g>
			<path style="fill:#212D50;" d="M826.4598,356.6325c6.3217-0.3863,12.0177-2.7431,16.7648-6.9349
				c1.4501-1.2805-0.6783-3.3956-2.1213-2.1213c-4.1306,3.6475-9.1429,5.7201-14.6435,6.0562
				C824.5416,353.7498,824.5283,356.7505,826.4598,356.6325L826.4598,356.6325z"/>
		</g>
	</g>
</g>
<g>
	<g>
		<path style="fill:#F09A82;" d="M843.8211,356.1341c-19.9803,42.1267-88.1895,49.0667-116.8235,11.5739
			c-10.0695-13.1855-12.7192-33.4973-2.2074-46.956c10.206-13.0672,17.3489-23.7884,15.9897-41.9232
			c-1.2466-16.6329-11.2571-31.0833-19.7479-45.4401c-8.4908-14.3569-15.9485-31.187-11.5261-47.2699
			c7.2203-26.2585,35.2211-38.0743,49.5469-59.5742c11.3459,8.7664,22.6918,17.5327,34.0377,26.2991
			c16.5638,12.798,34.9189,29.6443,32.2098,50.4002c-2.647,20.2795-25.2746,38.5744-16.5053,57.0504
			c3.3654,7.0905,10.5618,11.3654,16.6234,16.3512C848.0429,295.2548,856.3749,329.6657,843.8211,356.1341z"/>
	</g>
	<g>
		<g>
			<path style="fill:#212D50;" d="M759.4586,158.6375c-3.2819,16.0276-4.0305,32.4293-1.9507,48.671
				c2.1182,16.5413,7.7055,31.9599,13.3534,47.5508c11.8244,32.6412,16.4378,66.5049,11.0532,100.9842
				c-0.2949,1.8887,2.5954,2.7024,2.8929,0.7975c5.0142-32.1071,2.0563-64.6829-8.5045-95.4028
				c-5.5485-16.1399-12.1553-31.868-15.0213-48.7898c-2.9766-17.5749-2.5021-35.5692,1.0698-53.0134
				C762.7372,157.5504,759.8462,156.7444,759.4586,158.6375L759.4586,158.6375z"/>
		</g>
	</g>
	<g>
		<g>
			<path style="fill:#212D50;" d="M778.3859,185.661c3.3168-2.7706,6.1292-6.03,8.4226-9.6915
				c1.0278-1.6409-1.5668-3.1484-2.5904-1.5142c-2.1639,3.4546-4.8264,6.4722-7.9535,9.0844
				C774.7812,184.7787,776.9132,186.8912,778.3859,185.661L778.3859,185.661z"/>
		</g>
	</g>
	<g>
		<g>
			<path style="fill:#212D50;" d="M786.8007,209.2099c4.7258-2.0437,9.0642-4.6738,13.1189-7.8415
				c1.5198-1.1874-0.6166-3.2969-2.1213-2.1213c-3.8408,3.0006-8.0413,5.4392-12.5117,7.3724
				C783.5193,207.3837,785.0453,209.969,786.8007,209.2099L786.8007,209.2099z"/>
		</g>
	</g>
	<g>
		<g>
			<path style="fill:#212D50;" d="M782.5305,241.3498c3.9899,0.0143,7.8166,0.6942,11.5756,2.024
				c1.8236,0.6451,2.6082-2.2523,0.7975-2.8928c-4.0048-1.4167-8.1268-2.116-12.3732-2.1312
				C780.5998,238.343,780.5972,241.3429,782.5305,241.3498L782.5305,241.3498z"/>
		</g>
	</g>
	<g>
		<g>
			<path style="fill:#212D50;" d="M731.651,178.6839c2.8144,3.817,6.4373,6.6,10.8514,8.3337
				c1.7976,0.706,2.5771-2.1939,0.7975-2.8928c-3.6155-1.4201-6.7534-3.8287-9.0586-6.955
				C733.1078,175.6324,730.5031,177.1271,731.651,178.6839L731.651,178.6839z"/>
		</g>
	</g>
	<g>
		<g>
			<path style="fill:#212D50;" d="M729.4134,201.7095c3.6372,5.2878,10.1635,7.6976,16.3459,5.8289
				c1.8432-0.5571,1.0577-3.4536-0.7975-2.8928c-4.8417,1.4635-10.0679-0.2486-12.9579-4.4502
				C730.9166,198.6148,728.3155,200.1134,729.4134,201.7095L729.4134,201.7095z"/>
		</g>
	</g>
	<g>
		<g>
			<path style="fill:#212D50;" d="M738.7434,235.2082c5.0297-0.7512,8.7326-4.9433,9.3609-9.8888c0.2427-1.9101-2.7596-1.8924-3,0
				c-0.4701,3.7-3.5689,6.4599-7.1584,6.996C736.0431,232.5995,736.8517,235.4907,738.7434,235.2082L738.7434,235.2082z"/>
		</g>
	</g>
	<g>
		<g>
			<path style="fill:#212D50;" d="M798.6828,303.2573c3.4733-2.3376,6.9465-4.6752,10.4198-7.0128
				c1.5933-1.0724,0.0935-3.6724-1.5142-2.5904c-3.4733,2.3376-6.9465,4.6752-10.4198,7.0128
				C795.5753,301.7393,797.0751,304.3393,798.6828,303.2573L798.6828,303.2573z"/>
		</g>
	</g>
	<g>
		<g>
			<path style="fill:#212D50;" d="M804.3494,325.4064c3.8287,2.3692,8.0419,3.6761,12.5311,3.9629c1.9278,0.1232,1.9203-2.8773,0-3
				c-3.9726-0.2538-7.6345-1.4603-11.0169-3.5533C804.2172,321.7972,802.7089,324.3913,804.3494,325.4064L804.3494,325.4064z"/>
		</g>
	</g>
	<g>
		<g>
			<path style="fill:#212D50;" d="M797.9318,344.7637c3.5696,2.9273,7.1393,5.8546,10.7089,8.782
				c1.4813,1.2147,3.6157-0.8958,2.1213-2.1213c-3.5696-2.9273-7.1393-5.8546-10.7089-8.782
				C798.5719,341.4276,796.4374,343.5382,797.9318,344.7637L797.9318,344.7637z"/>
		</g>
	</g>
	<g>
		<g>
			<path style="fill:#212D50;" d="M756.3166,293.1579c3.9585,1.3638,7.9171,2.7276,11.8755,4.0914
				c1.8292,0.6302,2.615-2.2667,0.7975-2.8929c-3.9585-1.3638-7.917-2.7276-11.8755-4.0914
				C755.2849,289.6348,754.4991,292.5317,756.3166,293.1579L756.3166,293.1579z"/>
		</g>
	</g>
	<g>
		<g>
			<path style="fill:#212D50;" d="M755.669,315.6409c3.6947-1.228,7.3895-2.456,11.0842-3.684
				c1.8232-0.606,1.0419-3.5042-0.7975-2.8928c-3.6948,1.228-7.3895,2.456-11.0842,3.684
				C753.0482,313.3541,753.8296,316.2523,755.669,315.6409L755.669,315.6409z"/>
		</g>
	</g>
	<g>
		<g>
			<path style="fill:#212D50;" d="M767.4716,332.1477c-1.9351,2.6154-4.304,4.8756-6.9893,6.709
				c-1.585,1.0822-0.086,3.683,1.5142,2.5904c3.137-2.1418,5.8075-4.7334,8.0656-7.7852
				C771.2112,332.1086,768.6086,330.6109,767.4716,332.1477L767.4716,332.1477z"/>
		</g>
	</g>
</g>
<g>
	<g>
		<path style="fill:#FAA76C;" d="M180.271,362.8447c-9.6952,13.6995-28.6281,22.3881-43.9604,26.7397
			c-4.728,1.3419-9.5433,2.5751-14.4571,2.6718c-5.7504,0.113-11.4043-1.3323-16.974-2.7672
			c-15.7349-4.0538-24.84-7.0323-33.2523-21.4651c-6.9152-11.8641-8.7885-26.7473-3.4889-39.6075
			c2.9032-7.045,7.6902-13.4933,8.6135-21.0569c2.1377-17.5121-15.9552-29.6217-28.6706-41.8513
			c-31.3988-30.1992-34.651-85.0076-7.0438-118.7081c2.4537,13.6587,15.112,23.2132,28.0273,28.2901s26.9694,7.1316,39.3974,13.3062
			c24.5077,12.1762,39.5255,41.0561,35.4189,68.112c-1.644,10.8311-5.9001,22.4463-0.9412,32.2148
			c5.7281,11.2838,20.4915,13.8708,30.5739,21.5183c14.6519,11.1134,17.6648,34.1933,8.5979,49.7476
			C181.5432,360.9641,180.9283,361.9159,180.271,362.8447z"/>
	</g>
	<g>
		<g>
			<path style="fill:#212D50;" d="M49.7232,191.6022c2.7464,22.944,19.6163,39.4658,34.0391,56.0916
				c8.2253,9.4818,16.2426,19.5628,20.7363,31.421c5.5395,14.618,5.6984,30.5364,10.1255,45.4428
				c3.7292,12.5568,10.5693,24.6835,22.6193,30.7886c1.7183,0.8706,3.2386-1.7167,1.5142-2.5904
				c-16.0253-8.119-21.392-26.3602-24.3357-42.7831c-2.9653-16.543-5.4447-32.423-14.8174-46.7605
				c-15.3616-23.4989-43.3275-41.921-46.8813-71.6099C52.4966,189.7089,49.4938,189.6861,49.7232,191.6022L49.7232,191.6022z"/>
		</g>
	</g>
	<g>
		<g>
			<path style="fill:#212D50;" d="M87.1346,219.536c1.3378-4.3693,1.7677-8.8267,1.2549-13.3696c-0.2141-1.8968-3.2166-1.9185-3,0
				c0.4841,4.2884,0.1163,8.4437-1.1477,12.5721C83.6753,220.5887,86.5701,221.3797,87.1346,219.536L87.1346,219.536z"/>
		</g>
	</g>
	<g>
		<g>
			<path style="fill:#212D50;" d="M102.2029,231.7066c3.8735-0.715,7.1173-2.8562,9.4926-5.9633
				c1.1721-1.5332-1.4323-3.0291-2.5904-1.5142c-1.9014,2.4871-4.6487,4.0215-7.6997,4.5846
				C99.5094,229.1637,100.3125,232.0555,102.2029,231.7066L102.2029,231.7066z"/>
		</g>
	</g>
	<g>
		<g>
			<path style="fill:#212D50;" d="M113.1789,255.0004c4.787,2.0968,9.7597,2.6136,14.8656,1.4526
				c1.8818-0.4279,1.0854-3.3209-0.7975-2.8928c-4.2544,0.9673-8.5477,0.6046-12.554-1.1502
				C112.9415,251.6428,111.4127,254.2268,113.1789,255.0004L113.1789,255.0004z"/>
		</g>
	</g>
	<g>
		<g>
			<path style="fill:#212D50;" d="M45.4982,226.6237c3.7532,1.9019,7.7741,2.8349,11.983,2.7065c1.926-0.0588,1.9343-3.059,0-3
				c-3.6854,0.1124-7.1771-0.6288-10.4688-2.2969C45.2942,223.1626,43.7738,225.7499,45.4982,226.6237L45.4982,226.6237z"/>
		</g>
	</g>
	<g>
		<g>
			<path style="fill:#212D50;" d="M54.3653,249.8979c4.5186,0.6161,8.8142-0.1169,12.8187-2.3306
				c1.69-0.9342,0.1785-3.5261-1.5142-2.5904c-3.2376,1.7897-6.826,2.5301-10.5071,2.0282
				C53.2749,246.7477,52.4581,249.6379,54.3653,249.8979L54.3653,249.8979z"/>
		</g>
	</g>
	<g>
		<g>
			<path style="fill:#212D50;" d="M73.3032,271.0675c3.6601-2.077,6.2593-5.5812,7.1301-9.7045
				c0.3978-1.8834-2.4935-2.6884-2.8928-0.7975c-0.7185,3.4023-2.722,6.1925-5.7514,7.9116
				C70.11,269.4299,71.62,272.0227,73.3032,271.0675L73.3032,271.0675z"/>
		</g>
	</g>
	<g>
		<g>
			<path style="fill:#212D50;" d="M128.9073,316.3441c4.3574-4.098,7.6291-8.9754,9.8736-14.5135
				c0.7249-1.7885-2.1759-2.5665-2.8928-0.7975c-2.0435,5.0424-5.144,9.4673-9.1021,13.1897
				C125.3766,315.5482,127.501,317.6667,128.9073,316.3441L128.9073,316.3441z"/>
		</g>
	</g>
	<g>
		<g>
			<path style="fill:#212D50;" d="M141.0399,327.7624c4.1472-1.5833,8.2943-3.1665,12.4415-4.7498
				c1.7858-0.6818,1.0109-3.5832-0.7975-2.8929c-4.1472,1.5833-8.2943,3.1665-12.4415,4.7498
				C138.4566,325.5513,139.2315,328.4528,141.0399,327.7624L141.0399,327.7624z"/>
		</g>
	</g>
	<g>
		<g>
			<path style="fill:#212D50;" d="M148.1884,345.8537c4.3567-0.5109,8.7134-1.0217,13.0701-1.5326c1.8946-0.2222,1.917-3.2248,0-3
				c-4.3567,0.5109-8.7134,1.0217-13.0701,1.5326C146.2938,343.0759,146.2714,346.0785,148.1884,345.8537L148.1884,345.8537z"/>
		</g>
	</g>
	<g>
		<g>
			<path style="fill:#212D50;" d="M91.6701,323.6987c3.8265,0.427,7.653,0.854,11.4795,1.281c1.9158,0.2138,1.9006-2.7879,0-3
				c-3.8265-0.427-7.653-0.854-11.4795-1.281C89.7543,320.485,89.7695,323.4867,91.6701,323.6987L91.6701,323.6987z"/>
		</g>
	</g>
	<g>
		<g>
			<path style="fill:#212D50;" d="M98.823,342.9385c3.7677-0.2104,7.5355-0.4208,11.3032-0.6312c1.9197-0.1072,1.9322-3.1079,0-3
				c-3.7677,0.2104-7.5355,0.4208-11.3032,0.6312C96.9033,340.0457,96.8908,343.0464,98.823,342.9385L98.823,342.9385z"/>
		</g>
	</g>
	<g>
		<g>
			<path style="fill:#212D50;" d="M114.9447,367.8452c4.4231-3.2098,7.5456-7.5913,9.0289-12.8627
				c0.5238-1.8615-2.3699-2.6561-2.8928-0.7975c-1.2587,4.4736-3.8809,8.3344-7.6502,11.0698
				C111.8829,366.3779,113.3784,368.9818,114.9447,367.8452L114.9447,367.8452z"/>
		</g>
	</g>
</g>
<g>
	<g>
		<path style="fill:#F09A82;" d="M1845.4104,383.6403c-28.7721,27.8105-85.6655,12.79-97.3483-25.977
			c-4.1082-13.6335-0.1038-30.7516,12.4052-38.39c12.1449-7.4161,21.1207-13.8725,25.5046-28.852
			c4.0209-13.739,0.3419-28.3708-2.1443-42.4686c-2.4863-14.0979-3.3956-29.8707,5.0134-41.456
			c13.7296-18.9153,39.7926-19.953,57.7936-32.8998c6.468,10.4686,12.936,20.9373,19.4041,31.4059
			c9.4426,15.2831,19.1019,34.3595,10.6581,50.2163c-8.25,15.4928-31.9528,23.3581-30.4866,40.8492
			c0.5626,6.7125,5.0533,12.3199,8.4176,18.1556C1867.1848,336.0059,1863.488,366.1668,1845.4104,383.6403z"/>
	</g>
	<g>
		<g>
			<path style="fill:#212D50;" d="M1837.0165,199.5022c-7.2097,11.4768-12.6527,23.9823-15.9099,37.1504
				c-3.5066,14.1766-3.778,28.5345-3.9408,43.0578c-0.3368,30.0596-6.8022,58.6886-21.6558,85.0034
				c-0.9502,1.6835,1.6404,3.1973,2.5905,1.5142c13.6078-24.1079,21.0532-51.0138,21.9199-78.6757
				c0.4908-15.6661-0.1678-31.2723,3.1877-46.6974c3.0811-14.1637,8.6951-27.5755,16.3987-39.8386
				C1840.6368,199.3767,1838.0421,197.8694,1837.0165,199.5022L1837.0165,199.5022z"/>
		</g>
	</g>
	<g>
		<g>
			<path style="fill:#212D50;" d="M1844.1829,227.2015c3.5256-1.2387,6.7947-2.957,9.7712-5.2209
				c1.5167-1.1536,0.0238-3.7601-1.5142-2.5904c-2.7662,2.1038-5.7732,3.7656-9.0546,4.9184
				C1841.5759,224.9444,1842.3547,227.8438,1844.1829,227.2015L1844.1829,227.2015z"/>
		</g>
	</g>
	<g>
		<g>
			<path style="fill:#212D50;" d="M1843.7485,248.6178c4.4312-0.2234,8.7537-0.9753,12.9912-2.2952
				c1.8373-0.5723,1.0531-3.4693-0.7975-2.8928c-3.9833,1.2408-8.0255,1.978-12.1937,2.1881
				C1841.8273,245.7147,1841.8157,248.7153,1843.7485,248.6178L1843.7485,248.6178z"/>
		</g>
	</g>
	<g>
		<g>
			<path style="fill:#212D50;" d="M1830.8844,273.1595c3.0457,1.1491,5.8451,2.7976,8.3308,4.899
				c1.4658,1.2393,3.5983-0.8727,2.1212-2.1213c-2.9011-2.4527-6.1003-4.3296-9.6545-5.6706
				C1829.8735,269.5843,1829.0922,272.4832,1830.8844,273.1595L1830.8844,273.1595z"/>
		</g>
	</g>
	<g>
		<g>
			<path style="fill:#212D50;" d="M1808.6997,207.3921c1.0782,3.7981,3.1429,7.1608,6.0751,9.8092
				c1.4297,1.2912,3.5579-0.8239,2.1213-2.1213c-2.564-2.3158-4.3595-5.16-5.3036-8.4854
				C1811.066,204.7404,1808.1705,205.5285,1808.6997,207.3921L1808.6997,207.3921z"/>
		</g>
	</g>
	<g>
		<g>
			<path style="fill:#212D50;" d="M1799.9493,225.2147c1.3188,5.4504,6.1041,9.3183,11.6655,9.6544c1.9283,0.1165,1.9215-2.8839,0-3
				c-4.2544-0.2572-7.7788-3.3447-8.7727-7.452C1802.3884,222.5416,1799.4948,223.3358,1799.9493,225.2147L1799.9493,225.2147z"/>
		</g>
	</g>
	<g>
		<g>
			<path style="fill:#212D50;" d="M1797.2249,254.9264c4.324,0.8989,8.7723-1.0495,10.8788-4.9778
				c0.9121-1.7012-1.6768-3.2181-2.5905-1.5141c-1.4474,2.6994-4.4547,4.2302-7.4908,3.5991
				C1796.1383,251.6419,1795.3328,254.5331,1797.2249,254.9264L1797.2249,254.9264z"/>
		</g>
	</g>
	<g>
		<g>
			<path style="fill:#212D50;" d="M1825.2952,327.7078c3.4962-0.8292,6.9924-1.6584,10.4885-2.4877
				c1.8778-0.4454,1.0828-3.3388-0.7975-2.8929c-3.4962,0.8292-6.9923,1.6585-10.4885,2.4877
				C1822.6199,325.2603,1823.4149,328.1538,1825.2952,327.7078L1825.2952,327.7078z"/>
		</g>
	</g>
	<g>
		<g>
			<path style="fill:#212D50;" d="M1822.682,346.9808c2.3633,3.0841,5.3025,5.5227,8.8623,7.1125
				c1.7479,0.7806,3.2758-1.8038,1.5142-2.5904c-3.0571-1.3652-5.7415-3.368-7.786-6.0362
				C1824.1141,343.9549,1821.5072,345.4475,1822.682,346.9808L1822.682,346.9808z"/>
		</g>
	</g>
	<g>
		<g>
			<path style="fill:#212D50;" d="M1811.8544,360.8743c1.9839,3.4296,3.9678,6.8593,5.9517,10.2888
				c0.9663,1.6707,3.5598,0.1618,2.5903-1.5142c-1.9838-3.4296-3.9677-6.8592-5.9515-10.2888
				C1813.4784,357.6895,1810.8849,359.1984,1811.8544,360.8743L1811.8544,360.8743z"/>
		</g>
	</g>
	<g>
		<g>
			<path style="fill:#212D50;" d="M1793.8235,306.6432c2.7683,2.2909,5.5367,4.5818,8.3051,6.8728
				c1.4768,1.2221,3.6107-0.8889,2.1213-2.1213c-2.7683-2.2909-5.5367-4.5818-8.3052-6.8728
				C1794.468,303.2999,1792.3341,305.4108,1793.8235,306.6432L1793.8235,306.6432z"/>
		</g>
	</g>
	<g>
		<g>
			<path style="fill:#212D50;" d="M1786.9343,324.7086c3.339,0.1291,6.6781,0.2582,10.0172,0.3873c1.9307,0.0746,1.9274-2.9255,0-3
				c-3.3391-0.1291-6.6782-0.2582-10.0172-0.3873C1785.0035,321.634,1785.0068,324.6341,1786.9343,324.7086L1786.9343,324.7086z"/>
		</g>
	</g>
	<g>
		<g>
			<path style="fill:#212D50;" d="M1791.3704,341.0202c-2.4524,1.5776-5.0463,2.6987-7.8773,3.398
				c-1.8733,0.4628-1.0798,3.3566,0.7976,2.8929c3.0579-0.7554,5.9449-1.9964,8.5939-3.7005
				C1794.5031,342.5695,1793.0005,339.9716,1791.3704,341.0202L1791.3704,341.0202z"/>
		</g>
	</g>
</g>
<g>
	<g>
		<path style="fill:#FAA76C;" d="M507.4592,392.6192c-19.5062,7.9037-45.3751,4.2662-64.5076-1.5142
			c-5.8999-1.7825-11.8185-3.7387-17.0719-6.9617c-6.1479-3.7718-11.1393-9.1235-16.0489-14.4073
			c-13.8701-14.9273-21.4679-24.2331-20.5836-45.1636c0.7268-17.2055,8.8198-34.1869,23.1172-44.179
			c7.8323-5.4738,17.2498-9.0428,23.3426-16.4038c14.1067-17.043,3.1982-42.0713-1.9517-63.5874
			c-12.7167-53.1311,20.9362-113.1991,72.888-130.0999c-6.6517,16.0813,0.248,34.7345,10.4489,48.834
			c10.2008,14.0996,23.649,25.7788,32.5925,40.7075c17.6364,29.4392,13.9506,70.0929-8.6929,95.8801
			c-9.0647,10.3232-21.4179,19.7067-22.7922,33.376c-1.5875,15.7896,12.2494,28.5108,17.7198,43.4074
			c7.9496,21.648-4.4865,48.0549-24.5844,58.342C510.0749,391.4944,508.7817,392.0833,507.4592,392.6192z"/>
	</g>
	<g>
		<g>
			<path style="fill:#212D50;" d="M485.7864,123.7405c-13.6414,28.1331-4.6795,59.4775-0.9787,88.82
				c2.0569,16.3087,2.3961,32.608-2.4095,48.4915c-4.8622,16.0705-13.348,30.7947-18.0108,46.9317
				c-4.5265,15.6649-5.4711,33.0355,3.0972,47.5053c0.9829,1.66,3.5773,0.1525,2.5904-1.5142
				c-17.5547-29.6457,5.7003-62.2638,14.6963-90.4603c9.3688-29.3652,0.9555-58.781-2.3244-88.3694
				c-1.8795-16.9551-1.6548-34.248,5.9301-49.8904C489.2156,123.5248,486.6295,122.0018,485.7864,123.7405L485.7864,123.7405z"/>
		</g>
	</g>
	<g>
		<g>
			<path style="fill:#212D50;" d="M505.899,177.9512c4.3329-3.6418,7.8038-8.0956,10.2798-13.1855
				c0.8411-1.7291-1.7452-3.2518-2.5905-1.5142c-2.3757,4.8839-5.6535,9.0843-9.8107,12.5784
				C502.2979,177.0736,504.4295,179.1863,505.899,177.9512L505.899,177.9512z"/>
		</g>
	</g>
	<g>
		<g>
			<path style="fill:#212D50;" d="M513.9286,200.9857c4.3449,1.739,9.0358,1.8142,13.4422,0.2484
				c1.8065-0.6419,1.0282-3.5416-0.7975-2.8928c-3.9736,1.412-7.937,1.3166-11.8472-0.2484
				C512.9339,197.3756,512.1553,200.276,513.9286,200.9857L513.9286,200.9857z"/>
		</g>
	</g>
	<g>
		<g>
			<path style="fill:#212D50;" d="M509.9768,233.2591c3.5066,5.3371,8.4713,9.2131,14.4908,11.3403
				c1.8239,0.6445,2.6084-2.2529,0.7975-2.8928c-5.2522-1.856-9.64-5.3075-12.6979-9.9616
				C511.5114,230.138,508.9125,231.6393,509.9768,233.2591L509.9768,233.2591z"/>
		</g>
	</g>
	<g>
		<g>
			<path style="fill:#212D50;" d="M457.72,157.5019c2.5992,4.4767,6.2413,8.1424,10.6978,10.7755
				c1.6659,0.9843,3.1769-1.608,1.5142-2.5904c-4.0284-2.3802-7.2723-5.653-9.6216-9.6993
				C459.3414,154.3187,456.7478,155.8273,457.72,157.5019L457.72,157.5019z"/>
		</g>
	</g>
	<g>
		<g>
			<path style="fill:#212D50;" d="M451.2918,187.9765c4.2451,3.6358,9.2669,5.6826,14.8492,6.0302c1.928,0.12,1.9209-2.8804,0-3
				c-4.7486-0.2957-9.1108-2.0535-12.7279-5.1515C451.9541,184.6056,449.8225,186.7181,451.2918,187.9765L451.2918,187.9765z"/>
		</g>
	</g>
	<g>
		<g>
			<path style="fill:#212D50;" d="M456.7,222.959c5.219,0.2563,10.1405-1.6811,13.821-5.3808
				c1.3632-1.3703-0.7572-3.4925-2.1213-2.1213c-3.1657,3.1823-7.2256,4.7218-11.6997,4.5021
				C454.7703,219.8642,454.7752,222.8645,456.7,222.959L456.7,222.959z"/>
		</g>
	</g>
	<g>
		<g>
			<path style="fill:#212D50;" d="M484.6903,308.3763c7.1633-1.3558,13.7882-4.1588,19.7485-8.3559
				c1.5665-1.1031,0.0692-3.7054-1.5141-2.5904c-5.7772,4.0682-12.0893,6.7395-19.0319,8.0535
				C481.9981,305.8421,482.8004,308.734,484.6903,308.3763L484.6903,308.3763z"/>
		</g>
	</g>
	<g>
		<g>
			<path style="fill:#212D50;" d="M489.9361,328.6822c5.45,1.1346,10.8999,2.2692,16.3499,3.4038
				c1.8839,0.3922,2.6895-2.499,0.7975-2.8928c-5.45-1.1346-10.8999-2.2692-16.3499-3.4038
				C488.8497,325.3971,488.0442,328.2883,489.9361,328.6822L489.9361,328.6822z"/>
		</g>
	</g>
	<g>
		<g>
			<path style="fill:#212D50;" d="M485.3409,352.6824c4.9456,2.4086,9.8911,4.8172,14.8366,7.2259
				c1.7288,0.8419,3.2515-1.7443,1.5141-2.5904c-4.9455-2.4086-9.8911-4.8172-14.8366-7.2259
				C485.1263,349.25,483.6036,351.8362,485.3409,352.6824L485.3409,352.6824z"/>
		</g>
	</g>
	<g>
		<g>
			<path style="fill:#212D50;" d="M440.3559,290.8127c3.7512,3.0401,7.5023,6.0801,11.2535,9.1202
				c1.487,1.2051,3.6223-0.9049,2.1213-2.1213c-3.7512-3.0401-7.5023-6.0801-11.2535-9.1202
				C440.9902,287.4862,438.8549,289.5962,440.3559,290.8127L440.3559,290.8127z"/>
		</g>
	</g>
	<g>
		<g>
			<path style="fill:#212D50;" d="M435.1929,316.2009c4.1204,2.3274,8.2408,4.6547,12.3611,6.9821
				c1.6833,0.9508,3.197-1.6399,1.5142-2.5904c-4.1204-2.3273-8.2408-4.6547-12.3611-6.9821
				C435.0238,312.6597,433.5101,315.2503,435.1929,316.2009L435.1929,316.2009z"/>
		</g>
	</g>
	<g>
		<g>
			<path style="fill:#212D50;" d="M435.1802,353.3153c6.7723-0.4138,12.8771-2.9397,17.9627-7.4304
				c1.45-1.2805-0.6783-3.3956-2.1213-2.1213c-4.4697,3.9469-9.8893,6.188-15.8414,6.5517
				C433.2621,350.4326,433.2487,353.4333,435.1802,353.3153L435.1802,353.3153z"/>
		</g>
	</g>
</g>
<g>
	<g>
		<path style="fill:#F09A82;" d="M453.8658,352.8933c-21.5045,45.3401-94.9165,52.8094-125.7346,12.4567
			c-10.8375-14.1913-13.6894-36.0524-2.3758-50.5377c10.9845-14.0639,18.6722-25.6029,17.2094-45.121
			c-1.3417-17.9017-12.1158-33.4543-21.2542-48.9062c-9.1385-15.4521-17.165-33.5659-12.4053-50.8755
			c7.7711-28.2614,37.9077-40.9785,53.3262-64.1184c12.2113,9.4351,24.4226,18.8701,36.634,28.3052
			c17.8272,13.7742,37.5825,31.9055,34.6667,54.2447c-2.8489,21.8264-27.2025,41.5168-17.7643,61.4021
			c3.622,7.6313,11.3674,12.2324,17.8913,17.5984C458.4096,287.3702,467.3771,324.406,453.8658,352.8933z"/>
	</g>
	<g>
		<g>
			<path style="fill:#212D50;" d="M363.1786,140.3625c-3.5165,17.1291-4.3357,34.6845-2.1347,52.0465
				c2.2421,17.6869,8.1405,34.1941,14.1919,50.8613c12.838,35.3598,17.9594,71.9659,12.1117,109.3406
				c-0.2955,1.8887,2.5948,2.7023,2.8928,0.7975c5.4755-34.9955,2.0609-70.3843-9.5659-103.8103
				c-5.9808-17.1942-12.9408-34.0099-15.8814-52.0823c-3.0438-18.7067-2.5302-37.8034,1.2786-56.3557
				C366.4583,139.2755,363.5672,138.4696,363.1786,140.3625L363.1786,140.3625z"/>
		</g>
	</g>
	<g>
		<g>
			<path style="fill:#212D50;" d="M383.3584,169.336c3.5627-2.976,6.5838-6.4747,9.0472-10.4076
				c1.0278-1.6409-1.5668-3.1484-2.5904-1.5141c-2.334,3.7261-5.2052,6.983-8.5781,9.8004
				C379.7538,168.4537,381.8857,170.5661,383.3584,169.336L383.3584,169.336z"/>
		</g>
	</g>
	<g>
		<g>
			<path style="fill:#212D50;" d="M392.4382,194.6632c5.0765-2.1954,9.7407-5.0188,14.0964-8.4218
				c1.5199-1.1874-0.6166-3.2969-2.1213-2.1213c-4.142,3.236-8.668,5.8677-13.4892,7.9527
				C389.1568,192.8371,390.6828,195.4224,392.4382,194.6632L392.4382,194.6632z"/>
		</g>
	</g>
	<g>
		<g>
			<path style="fill:#212D50;" d="M387.9,229.2391c4.3037,0.0154,8.4344,0.7481,12.489,2.1825
				c1.8236,0.6451,2.6082-2.2523,0.7975-2.8928c-4.3016-1.5217-8.7255-2.2733-13.2866-2.2896
				C385.9694,226.2322,385.9668,229.2322,387.9,229.2391L387.9,229.2391z"/>
		</g>
	</g>
	<g>
		<g>
			<path style="fill:#212D50;" d="M333.2384,161.8499c3.0099,4.0821,6.89,7.0627,11.6108,8.9168
				c1.7976,0.706,2.5771-2.1939,0.7975-2.8928c-3.9214-1.5402-7.3178-4.1473-9.8179-7.5381
				C334.6952,158.7984,332.0905,160.293,333.2384,161.8499L333.2384,161.8499z"/>
		</g>
	</g>
	<g>
		<g>
			<path style="fill:#212D50;" d="M330.8301,186.6318c3.8861,5.6497,10.8607,8.2168,17.4635,6.2209
				c1.8432-0.5571,1.0577-3.4536-0.7975-2.8928c-5.2626,1.5907-10.9363-0.2784-14.0756-4.8423
				C332.3333,183.537,329.7322,185.0357,330.8301,186.6318L330.8301,186.6318z"/>
		</g>
	</g>
	<g>
		<g>
			<path style="fill:#212D50;" d="M340.7426,222.6331c5.359-0.8004,9.3206-5.2571,9.9909-10.5328c0.2426-1.9101-2.7596-1.8924-3,0
				c-0.5121,4.0303-3.8698,7.0547-7.7884,7.6399C338.0422,220.0244,338.8509,222.9156,340.7426,222.6331L340.7426,222.6331z"/>
		</g>
	</g>
	<g>
		<g>
			<path style="fill:#212D50;" d="M405.2267,295.8844c3.7382-2.5159,7.4764-5.0319,11.2146-7.5478
				c1.5934-1.0724,0.0935-3.6724-1.5142-2.5904c-3.7382,2.5159-7.4764,5.0318-11.2146,7.5478
				C402.1192,294.3664,403.619,296.9664,405.2267,295.8844L405.2267,295.8844z"/>
		</g>
	</g>
	<g>
		<g>
			<path style="fill:#212D50;" d="M411.441,319.723c4.1034,2.5391,8.6177,3.9421,13.4291,4.2495c1.9278,0.1232,1.9204-2.8773,0-3
				c-4.296-0.2745-8.2568-1.5764-11.915-3.84C411.3088,316.1138,409.8006,318.7079,411.441,319.723L411.441,319.723z"/>
		</g>
	</g>
	<g>
		<g>
			<path style="fill:#212D50;" d="M404.5571,340.5747c3.8419,3.1506,7.6839,6.3012,11.5258,9.4518
				c1.4813,1.2147,3.6158-0.8958,2.1213-2.1213c-3.8419-3.1506-7.6839-6.3012-11.5258-9.4518
				C405.1971,337.2386,403.0627,339.3492,404.5571,340.5747L404.5571,340.5747z"/>
		</g>
	</g>
	<g>
		<g>
			<path style="fill:#212D50;" d="M359.717,285.003c4.2605,1.4678,8.5209,2.9356,12.7814,4.4035
				c1.8292,0.6302,2.615-2.2667,0.7975-2.8928c-4.2604-1.4678-8.5209-2.9357-12.7813-4.4035
				C358.6854,281.48,357.8996,284.3769,359.717,285.003L359.717,285.003z"/>
		</g>
	</g>
	<g>
		<g>
			<path style="fill:#212D50;" d="M358.9592,309.201c3.9766-1.3217,7.9531-2.6433,11.9297-3.965
				c1.8232-0.606,1.0419-3.5042-0.7975-2.8929c-3.9766,1.3217-7.9532,2.6433-11.9297,3.965
				C356.3385,306.9142,357.1198,309.8124,358.9592,309.201L358.9592,309.201z"/>
		</g>
	</g>
	<g>
		<g>
			<path style="fill:#212D50;" d="M371.7913,327.135c-2.0952,2.8317-4.656,5.2767-7.5634,7.2618
				c-1.585,1.0822-0.086,3.6829,1.5142,2.5904c3.3588-2.2933,6.2218-5.0702,8.6397-8.338
				C375.5309,327.096,372.9283,325.5982,371.7913,327.135L371.7913,327.135z"/>
		</g>
	</g>
</g>
<g>
	<g>
		<path style="fill:#9B6FEF;" d="M945.6491,401.1552c38.5674-9.5392,84.22-50.0572,73.4333-94.231
			c-5.85-23.9541-26.4464-43.8175-26.2235-68.4746c0.2487-27.5168,26.1102-48.0072,33.3388-74.5588
			c5.6482-20.7461-0.9189-43.3508-12.9641-61.1614s-29.0773-31.5888-46.2896-44.4745c1.7714,18.3605-9.3594,35.4946-22.0541,48.877
			c-12.6946,13.3824-27.6492,25.0738-36.793,41.0936c-12.0008,21.0253-12.0402,48.3725-0.1001,69.4323
			c5.7659,10.1699,14.2481,19.3584,15.9695,30.9217c2.9202,19.6163-14.1093,35.6261-25.9216,51.5572
			c-12.4202,16.7509-20.1835,37.8486-17.2289,58.4913c2.9547,20.6427,18.272,40.0511,38.7467,44.0059
			C928.1821,404.2987,937.1271,403.263,945.6491,401.1552z"/>
	</g>
	<g>
		<g>
			<path style="fill:#212D50;" d="M980.0178,95.0215c-1.8152,18.0794-8.2476,35.1917-12.0712,52.8669
				c-3.3635,15.548-5.254,31.3811-6.5533,47.2227c-2.7305,33.2906-2.7093,66.9032-8.3268,99.9069
				c-3.1522,18.5195-8.2067,36.6702-16.2662,53.6794c-0.8223,1.7354,1.7633,3.2597,2.5905,1.5142
				c29.1396-61.4982,17.6797-131.427,30.4124-196.4912c3.8546-19.6968,11.2017-38.6502,13.2146-58.6989
				C983.2105,93.1022,980.2092,93.1156,980.0178,95.0215L980.0178,95.0215z"/>
		</g>
	</g>
	<g>
		<g>
			<path style="fill:#212D50;" d="M952.9681,147.0552c-2.975-5.9669-6.6981-11.4311-11.1245-16.4144
				c-1.2847-1.4464-3.4001,0.6815-2.1213,2.1213c4.2611,4.7973,7.7936,10.0675,10.6553,15.8073
				C951.2392,150.2973,953.8278,148.7796,952.9681,147.0552L952.9681,147.0552z"/>
		</g>
	</g>
	<g>
		<g>
			<path style="fill:#212D50;" d="M943.5591,172.4979c-5.1595-5.0009-10.7949-9.4138-16.8839-13.228
				c-1.6409-1.0279-3.1484,1.5667-1.5142,2.5904c5.8765,3.6811,11.2981,7.9333,16.2767,12.7589
				C942.8248,175.9636,944.9486,173.8447,943.5591,172.4979L943.5591,172.4979z"/>
		</g>
	</g>
	<g>
		<g>
			<path style="fill:#212D50;" d="M941.6124,200.8554c-6.3513-0.5186-12.7026-1.0372-19.054-1.5558
				c-1.9243-0.1571-1.9139,2.8437,0,3c6.3514,0.5186,12.7027,1.0372,19.054,1.5558
				C943.5367,204.0126,943.5264,201.0117,941.6124,200.8554L941.6124,200.8554z"/>
		</g>
	</g>
	<g>
		<g>
			<path style="fill:#212D50;" d="M998.8688,127.0103c-5.4524,2.9855-10.4791,6.5914-15.0736,10.7767
				c-1.4304,1.303,0.696,3.4197,2.1213,2.1213c4.4104-4.0175,9.2352-7.4431,14.4664-10.3076
				C1002.0769,128.6732,1000.5648,126.0817,998.8688,127.0103L998.8688,127.0103z"/>
		</g>
	</g>
	<g>
		<g>
			<path style="fill:#212D50;" d="M991.1139,164.2925c5.3641-0.4025,10.7281-0.8051,16.0922-1.2076c1.9133-0.1436,1.929-3.1448,0-3
				c-5.364,0.4025-10.7281,0.8051-16.0922,1.2076C989.2006,161.4361,989.1849,164.4373,991.1139,164.2925L991.1139,164.2925z"/>
		</g>
	</g>
	<g>
		<g>
			<path style="fill:#212D50;" d="M976.2886,184.665c5.4055,2.5423,11.116,3.1836,16.9438,1.8425
				c1.8807-0.4328,1.0847-3.326-0.7975-2.8928c-4.9932,1.1491-9.989,0.6437-14.6321-1.5401
				C976.0657,181.2576,974.541,183.843,976.2886,184.665L976.2886,184.665z"/>
		</g>
	</g>
	<g>
		<g>
			<path style="fill:#212D50;" d="M930.2223,300.4928c-0.5051-3.9821-2.6139-7.39-6.0813-9.4663
				c-1.6605-0.9943-3.1707,1.5985-1.5142,2.5904c2.4763,1.4828,4.2288,3.9853,4.5955,6.8759
				C927.4619,302.3822,930.4649,302.4062,930.2223,300.4928L930.2223,300.4928z"/>
		</g>
	</g>
	<g>
		<g>
			<path style="fill:#212D50;" d="M925.7994,321.0854c-3.566-3.4513-7.4236-6.5543-11.5494-9.3113
				c-1.6097-1.0757-3.1133,1.5218-1.5142,2.5904c3.9167,2.6173,7.5577,5.5665,10.9423,8.8422
				C925.066,324.55,927.1899,322.4311,925.7994,321.0854L925.7994,321.0854z"/>
		</g>
	</g>
	<g>
		<g>
			<path style="fill:#212D50;" d="M915.2347,343.0679c-4.1396-0.6219-8.2792-1.2437-12.4188-1.8656
				c-1.8886-0.2837-2.7032,2.6066-0.7975,2.8929c4.1396,0.6219,8.2792,1.2437,12.4188,1.8656
				C916.3258,346.2445,917.1404,343.3542,915.2347,343.0679L915.2347,343.0679z"/>
		</g>
	</g>
	<g>
		<g>
			<path style="fill:#212D50;" d="M986.7781,271.3442c-2.8116,2.9574-6.1497,5.2687-9.9517,6.7665
				c-1.7757,0.6996-1.0023,3.6019,0.7975,2.8929c4.2964-1.6926,8.0895-4.1868,11.2755-7.5381
				C990.2294,272.0664,988.1116,269.9415,986.7781,271.3442L986.7781,271.3442z"/>
		</g>
	</g>
	<g>
		<g>
			<path style="fill:#212D50;" d="M993.2028,294.5744c-4.4326,5.1539-10.2759,8.3007-17.0043,9.2159
				c-1.9043,0.259-1.0934,3.15,0.7975,2.8928c7.1861-0.9774,13.6016-4.4917,18.3281-9.9874
				C996.577,295.2389,994.4643,293.1076,993.2028,294.5744L993.2028,294.5744z"/>
		</g>
	</g>
	<g>
		<g>
			<path style="fill:#212D50;" d="M992.9325,328.4839c-7.9628,2.3925-16.0541,2.0151-23.7076-1.2906
				c-1.754-0.7576-3.2836,1.8261-1.5142,2.5904c8.404,3.6299,17.2334,4.2328,26.0193,1.5931
				C995.5743,330.8227,994.7886,327.9263,992.9325,328.4839L992.9325,328.4839z"/>
		</g>
	</g>
</g>
<g>
	<g>
		<path style="fill:#FAA76C;" d="M1658.7732,393.0446c-18.1238,7.3435-42.1593,3.9638-59.9358-1.4069
			c-5.4818-1.6561-10.981-3.4737-15.8619-6.4683c-5.7123-3.5044-10.3499-8.4768-14.9115-13.3862
			c-12.8871-13.8694-19.9464-22.5156-19.1249-41.9628c0.6753-15.9861,8.1947-31.764,21.4788-41.0479
			c7.2772-5.0858,16.0273-8.4019,21.6884-15.2412c13.1069-15.8352,2.9714-39.0896-1.8134-59.0808
			c-11.8156-49.3656,19.4524-105.1765,67.7223-120.8794c-6.1803,14.9416,0.2303,32.2728,9.7083,45.3731
			s21.973,23.9518,30.2826,37.8225c16.3865,27.3528,12.9619,65.1253-8.0768,89.0849c-8.4222,9.5916-19.9,18.31-21.1769,31.0106
			c-1.475,14.6706,11.3812,26.4902,16.464,40.3311c7.3862,20.1137-4.1686,44.6491-22.8422,54.2072
			C1661.2035,391.9995,1660.002,392.5467,1658.7732,393.0446z"/>
	</g>
	<g>
		<g>
			<path style="fill:#212D50;" d="M1638.5447,143.1682c-12.5488,25.9361-4.5037,54.7133-1.027,81.7693
				c1.9036,14.814,2.4725,29.7472-1.6692,44.2532c-4.4153,15.4646-12.6335,29.5235-17.1261,44.9565
				c-4.271,14.6715-5.1837,30.8792,2.8174,44.4523c0.9797,1.662,3.574,0.1544,2.5905-1.5142
				c-16.524-28.0314,5.9564-58.6542,14.1025-85.3769c8.1567-26.7576,0.4106-53.7358-2.5819-80.6256
				c-1.7554-15.7735-1.558-31.8455,5.4841-46.4005C1641.9723,142.9519,1639.3862,141.4288,1638.5447,143.1682L1638.5447,143.1682z"
				/>
		</g>
	</g>
	<g>
		<g>
			<path style="fill:#212D50;" d="M1657.3988,193.6656c4.0317-3.3886,7.2639-7.5364,9.5679-12.2726
				c0.8411-1.7291-1.7451-3.2518-2.5905-1.5142c-2.204,4.5307-5.2422,8.424-9.0988,11.6654
				C1653.7977,192.788,1655.9293,194.9008,1657.3988,193.6656L1657.3988,193.6656z"/>
		</g>
	</g>
	<g>
		<g>
			<path style="fill:#212D50;" d="M1664.7559,215.095c4.0524,1.6219,8.4364,1.6911,12.546,0.2307
				c1.8065-0.6419,1.0282-3.5416-0.7975-2.8928c-3.6763,1.3063-7.3336,1.2171-10.951-0.2307
				C1663.7611,211.4848,1662.9825,214.3853,1664.7559,215.095L1664.7559,215.095z"/>
		</g>
	</g>
	<g>
		<g>
			<path style="fill:#212D50;" d="M1661.0206,245.0323c3.2739,4.983,7.9073,8.5995,13.5273,10.5854
				c1.8239,0.6445,2.6084-2.2529,0.7975-2.8928c-4.8527-1.7148-8.9093-4.9069-11.7345-9.2067
				C1662.5552,241.9112,1659.9563,243.4124,1661.0206,245.0323L1661.0206,245.0323z"/>
		</g>
	</g>
	<g>
		<g>
			<path style="fill:#212D50;" d="M1612.4673,174.6441c2.424,4.1748,5.8219,7.5945,9.9778,10.05
				c1.666,0.9843,3.177-1.608,1.5142-2.5904c-3.7275-2.2024-6.7277-5.2296-8.9015-8.9737
				C1614.0887,171.4609,1611.4951,172.9696,1612.4673,174.6441L1612.4673,174.6441z"/>
		</g>
	</g>
	<g>
		<g>
			<path style="fill:#212D50;" d="M1606.5114,202.9805c3.9667,3.3974,8.6558,5.3091,13.8719,5.6339c1.9281,0.12,1.9209-2.8804,0-3
				c-4.3821-0.2728-8.4126-1.8963-11.7506-4.7552C1607.1737,199.6095,1605.0421,201.7221,1606.5114,202.9805L1606.5114,202.9805z"/>
		</g>
	</g>
	<g>
		<g>
			<path style="fill:#212D50;" d="M1611.6115,235.5148c4.876,0.2394,9.4784-1.5743,12.9166-5.0306
				c1.3633-1.3703-0.7572-3.4925-2.1212-2.1213c-2.9226,2.9379-6.6654,4.3547-10.7954,4.1519
				C1609.6816,232.42,1609.6866,235.4203,1611.6115,235.5148L1611.6115,235.5148z"/>
		</g>
	</g>
	<g>
		<g>
			<path style="fill:#212D50;" d="M1637.6462,314.8746c6.6633-1.2611,12.8301-3.8702,18.3744-7.7744
				c1.5664-1.1031,0.0692-3.7054-1.5142-2.5904c-5.3615,3.7755-11.2147,6.2526-17.6577,7.472
				C1634.9541,312.3404,1635.7563,315.2323,1637.6462,314.8746L1637.6462,314.8746z"/>
		</g>
	</g>
	<g>
		<g>
			<path style="fill:#212D50;" d="M1642.4637,333.7414c5.0637,1.0542,10.1274,2.1084,15.1912,3.1626
				c1.8839,0.3922,2.6895-2.499,0.7975-2.8928c-5.0637-1.0542-10.1274-2.1084-15.191-3.1626
				C1641.3773,330.4563,1640.5719,333.3475,1642.4637,333.7414L1642.4637,333.7414z"/>
		</g>
	</g>
	<g>
		<g>
			<path style="fill:#212D50;" d="M1638.1688,356.0299c4.5951,2.2379,9.1901,4.4758,13.7852,6.7137
				c1.7288,0.842,3.2515-1.7443,1.5142-2.5904c-4.5951-2.2379-9.1901-4.4759-13.7852-6.7138
				C1637.9542,352.5975,1636.4315,355.1838,1638.1688,356.0299L1638.1688,356.0299z"/>
		</g>
	</g>
	<g>
		<g>
			<path style="fill:#212D50;" d="M1596.3505,298.5284c3.4854,2.8246,6.9707,5.6492,10.4559,8.4738
				c1.4871,1.2051,3.6223-0.9049,2.1213-2.1213c-3.4854-2.8246-6.9706-5.6492-10.4559-8.4738
				C1596.9849,295.2019,1594.8495,297.312,1596.3505,298.5284L1596.3505,298.5284z"/>
		</g>
	</g>
	<g>
		<g>
			<path style="fill:#212D50;" d="M1591.575,322.1339c3.8284,2.1624,7.6567,4.3248,11.4851,6.4872
				c1.6832,0.9507,3.197-1.6399,1.5142-2.5904c-3.8284-2.1624-7.6567-4.3248-11.4851-6.4872
				C1591.4059,318.5927,1589.8921,321.1834,1591.575,322.1339L1591.575,322.1339z"/>
		</g>
	</g>
	<g>
		<g>
			<path style="fill:#212D50;" d="M1591.6167,356.6325c6.3218-0.3863,12.0177-2.7431,16.7649-6.9349
				c1.4501-1.2805-0.6783-3.3956-2.1213-2.1213c-4.1306,3.6475-9.1429,5.7201-14.6436,6.0562
				C1589.6986,353.7498,1589.6853,356.7505,1591.6167,356.6325L1591.6167,356.6325z"/>
		</g>
	</g>
</g>
<g>
	<g>
		<path style="fill:#9B6FEF;" d="M1717.2684,400.6127c39.0874-7.1149,87.1787-44.7061,79.1685-89.4667
			c-4.3442-24.2724-23.6615-45.3819-21.901-69.9771c1.9648-27.4477,29.0541-46.285,37.9249-72.3339
			c6.9313-20.3534,1.787-43.3237-9.1237-61.851c-10.9105-18.5273-27.0502-33.3411-43.425-47.2754
			c0.6226,18.4352-11.5553,34.8416-25.0601,47.4061s-29.1595,23.3002-39.2848,38.7184
			c-13.2891,20.2357-15.0343,47.5272-4.4312,69.2908c5.1204,10.5098,13.0128,20.2095,14.0095,31.8576
			c1.6909,19.7603-16.3041,34.6766-29.0872,49.8398c-13.4409,15.9435-22.5052,36.5158-20.844,57.3026
			c1.6611,20.7868,15.738,41.1129,35.9261,46.3372C1699.6394,402.6605,1708.6316,402.1848,1717.2684,400.6127z"/>
	</g>
	<g>
		<g>
			<path style="fill:#212D50;" d="M1770.7174,96.9139c-2.955,18.0259-10.4308,34.778-15.385,52.2682
				c-4.5035,15.899-7.4244,32.1976-9.7451,48.5434c-4.6018,32.4132-6.7744,65.2676-14.2537,97.2144
				c-4.3073,18.3982-10.5142,36.2762-19.6742,52.8446c-0.9348,1.6909,1.6552,3.206,2.5905,1.5142
				c32.5326-58.844,25.9862-128.5517,42.0284-192.048c5.0647-20.0469,13.9763-39.0696,17.332-59.5392
				C1773.9199,95.8228,1771.0295,95.0104,1770.7174,96.9139L1770.7174,96.9139z"/>
		</g>
	</g>
	<g>
		<g>
			<path style="fill:#212D50;" d="M1740.3793,147.3818c-2.6019-6.1526-5.9846-11.8039-10.0983-17.0624
				c-1.1885-1.5192-3.298,0.6172-2.1213,2.1213c3.9464,5.0446,7.1359,10.5596,9.6292,16.4552
				C1738.5382,150.6682,1741.1232,149.1409,1740.3793,147.3818L1740.3793,147.3818z"/>
		</g>
	</g>
	<g>
		<g>
			<path style="fill:#212D50;" d="M1729.3821,172.2021c-4.8383-5.3174-10.1985-10.0508-16.041-14.237
				c-1.572-1.1263-3.0715,1.4745-1.5142,2.5904c5.6351,4.0375,10.7697,8.6419,15.4338,13.7679
				C1728.563,175.7545,1730.6796,173.6281,1729.3821,172.2021L1729.3821,172.2021z"/>
		</g>
	</g>
	<g>
		<g>
			<path style="fill:#212D50;" d="M1726.0394,200.5018c-6.3065-0.9138-12.6132-1.8276-18.9198-2.7414
				c-1.8884-0.2736-2.7039,2.6166-0.7975,2.8928c6.3066,0.9138,12.6132,1.8276,18.9198,2.7414
				C1727.1304,203.6683,1727.9459,200.7781,1726.0394,200.5018L1726.0394,200.5018z"/>
		</g>
	</g>
	<g>
		<g>
			<path style="fill:#212D50;" d="M1787.4034,130.3662c-5.6372,2.6468-10.8466,5.9401-15.7025,9.8348
				c-1.506,1.2079,0.6288,3.3185,2.1213,2.1213c4.6508-3.7301,9.7012-6.8331,15.0953-9.3657
				C1790.6638,132.1367,1789.1426,129.5496,1787.4034,130.3662L1787.4034,130.3662z"/>
		</g>
	</g>
	<g>
		<g>
			<path style="fill:#212D50;" d="M1777.5138,167.0503c5.3787-0.0672,10.7574-0.1343,16.1361-0.2015
				c1.9291-0.0241,1.9343-3.0242,0-3c-5.3787,0.0672-10.7574,0.1343-16.1361,0.2015
				C1775.5847,164.0744,1775.5795,167.0745,1777.5138,167.0503L1777.5138,167.0503z"/>
		</g>
	</g>
	<g>
		<g>
			<path style="fill:#212D50;" d="M1761.4323,186.5051c5.2289,2.8809,10.9291,3.8048,16.8076,2.8241
				c1.9-0.317,1.0941-3.2084-0.7975-2.8928c-5.0566,0.8436-10.0159-0.0533-14.496-2.5216
				C1761.2544,182.9824,1759.7391,185.5722,1761.4323,186.5051L1761.4323,186.5051z"/>
		</g>
	</g>
	<g>
		<g>
			<path style="fill:#212D50;" d="M1708.1539,299.0905c-0.2616-4.0234-2.2426-7.4976-5.5612-9.7834
				c-1.5939-1.0978-3.0957,1.5011-1.5142,2.5904c2.3995,1.6527,3.8864,4.2878,4.0753,7.193
				C1705.2786,301.0073,1708.2794,301.0213,1708.1539,299.0905L1708.1539,299.0905z"/>
		</g>
	</g>
	<g>
		<g>
			<path style="fill:#212D50;" d="M1702.3881,319.3923c-3.3475-3.6733-7.0098-6.9836-10.9613-9.9951
				c-1.535-1.17-3.0311,1.4342-1.5142,2.5904c3.7418,2.8518,7.1863,6.0499,10.3541,9.526
				C1701.5701,322.9437,1703.6868,320.8174,1702.3881,319.3923L1702.3881,319.3923z"/>
		</g>
	</g>
	<g>
		<g>
			<path style="fill:#212D50;" d="M1690.4473,340.7136c-4.0927-0.8789-8.1854-1.7578-12.2782-2.6367
				c-1.8826-0.4043-2.6871,2.4871-0.7975,2.8929c4.0928,0.8789,8.1854,1.7578,12.2782,2.6366
				C1691.5325,344.0107,1692.3369,341.1194,1690.4473,340.7136L1690.4473,340.7136z"/>
		</g>
	</g>
	<g>
		<g>
			<path style="fill:#212D50;" d="M1766.3467,273.6842c-3.0049,2.7858-6.4791,4.8267-10.3772,6.0905
				c-1.8287,0.593-1.0464,3.4907,0.7976,2.8929c4.3921-1.4241,8.3147-3.7228,11.7009-6.8621
				C1769.887,274.4901,1767.7616,272.3724,1766.3467,273.6842L1766.3467,273.6842z"/>
		</g>
	</g>
	<g>
		<g>
			<path style="fill:#212D50;" d="M1771.3098,297.2699c-4.6423,4.7505-10.5339,7.55-17.17,8.0416c-1.9137,0.1417-1.9292,3.1429,0,3
				c7.4116-0.549,14.0895-3.5973,19.2914-8.9203C1774.7815,298.0095,1772.662,295.8862,1771.3098,297.2699L1771.3098,297.2699z"/>
		</g>
	</g>
	<g>
		<g>
			<path style="fill:#212D50;" d="M1768.902,331.0546c-8.0934,1.9042-16.1656,0.9384-23.5692-2.8388
				c-1.7164-0.8757-3.2363,1.7118-1.5142,2.5904c8.1405,4.1532,16.986,5.234,25.881,3.1412
				C1771.5781,333.5054,1770.7828,330.6121,1768.902,331.0546L1768.902,331.0546z"/>
		</g>
	</g>
</g>
<g>
	<g>
		<path style="fill:#71B1FC;" d="M263.8235,393.3065c18.1895,7.1793,42.1934,3.5822,59.9207-1.949
			c5.4665-1.7057,10.949-3.573,15.8028-6.6115c5.6802-3.556,10.2727-8.5702,14.7897-13.5205
			c12.7611-13.9854,19.7419-22.6951,18.7444-42.1341c-0.8199-15.9794-8.4818-31.6886-21.8493-40.8519
			c-7.3229-5.0198-16.1026-8.2566-21.8253-15.0444c-13.2497-15.7159-3.325-39.0611,1.2788-59.0948
			c11.3684-49.4704-20.4031-104.9962-68.8131-120.2618c6.3152,14.8851,0.0615,32.2735-9.2974,45.4591
			s-21.7554,24.1496-29.9392,38.0949c-16.1383,27.4999-12.3721,65.2399,8.8824,89.0082
			c8.5087,9.515,20.0648,18.1292,21.4566,30.8177c1.6077,14.6566-11.1412,26.5921-16.0984,40.4783
			c-7.204,20.1797,4.5723,44.6096,23.3316,53.9984C261.3839,392.2835,262.5903,392.8197,263.8235,393.3065z"/>
	</g>
	<g>
		<g>
			<path style="fill:#212D50;" d="M279.2072,144.7831c12.7127,25.6797,4.203,54.9774,1.1613,81.8651
				c-1.5,13.2593-1.8904,26.7654,1.3803,39.8023c3.6148,14.4088,10.8919,27.4946,16.104,41.3249
				c5.9147,15.6946,9.0973,34.0002,0.2938,49.2481c-0.9671,1.675,1.6243,3.1875,2.5904,1.5142
				c15.7123-27.2142-3.2923-56.5174-12.7282-82.1411c-5.3889-14.6339-6.536-29.4437-5.1395-44.8912
				c1.3185-14.5846,4.3006-28.9655,5.549-43.5581c1.3127-15.3439,0.3043-30.6899-6.6207-44.6783
				C280.941,141.5387,278.3526,143.0569,279.2072,144.7831L279.2072,144.7831z"/>
		</g>
	</g>
	<g>
		<g>
			<path style="fill:#212D50;" d="M265.5059,191.7924c-3.886-3.2066-6.9617-7.0695-9.2067-11.5805
				c-0.8603-1.7285-3.4488-0.2107-2.5904,1.5142c2.3465,4.7148,5.6132,8.8353,9.6758,12.1876
				C264.8627,195.1335,266.9968,193.0227,265.5059,191.7924L265.5059,191.7924z"/>
		</g>
	</g>
	<g>
		<g>
			<path style="fill:#212D50;" d="M255.4207,212.5292c-3.6059,1.4812-7.2621,1.6095-10.9484,0.337
				c-1.8288-0.6313-2.6145,2.2656-0.7975,2.8928c4.1234,1.4234,8.5063,1.3213,12.5435-0.337
				C257.9796,214.6985,257.2082,211.7949,255.4207,212.5292L255.4207,212.5292z"/>
		</g>
	</g>
	<g>
		<g>
			<path style="fill:#212D50;" d="M257.64,243.8182c-2.7851,4.3237-6.8066,7.5616-11.6444,9.3206
				c-1.8002,0.6545-1.023,3.5547,0.7975,2.8929c5.6008-2.0364,10.2076-5.6855,13.4373-10.6993
				C261.279,243.7045,258.6832,242.1987,257.64,243.8182L257.64,243.8182z"/>
		</g>
	</g>
	<g>
		<g>
			<path style="fill:#212D50;" d="M305.5545,172.9936c-2.1397,3.7634-5.1068,6.8222-8.8151,9.0587
				c-1.6513,0.9959-0.145,3.591,1.5142,2.5904c4.1332-2.4928,7.505-5.9379,9.8913-10.135
				C309.1006,172.827,306.5097,171.3136,305.5545,172.9936L305.5545,172.9936z"/>
		</g>
	</g>
	<g>
		<g>
			<path style="fill:#212D50;" d="M312.2329,200.6657c-3.3099,2.8872-7.3212,4.5583-11.7032,4.8709
				c-1.9147,0.1366-1.9297,3.1377,0,3c5.2112-0.3718,9.8872-2.3152,13.8245-5.7496
				C315.8119,201.5156,313.6827,199.4011,312.2329,200.6657L312.2329,200.6657z"/>
		</g>
	</g>
	<g>
		<g>
			<path style="fill:#212D50;" d="M309.5446,232.3566c-4.1257,0.24-7.8872-1.1331-10.8364-4.0445
				c-1.3753-1.3577-3.498,0.7623-2.1213,2.1213c3.4691,3.4247,8.0819,5.2068,12.9577,4.9232
				C311.4637,235.2449,311.4765,232.2442,309.5446,232.3566L309.5446,232.3566z"/>
		</g>
	</g>
	<g>
		<g>
			<path style="fill:#212D50;" d="M285.0268,312.0523c-6.4537-1.1611-12.3304-3.5819-17.7259-7.3087
				c-1.5923-1.0999-3.094,1.4991-1.5142,2.5904c5.5799,3.8542,11.7686,6.4104,18.4425,7.6111
				C286.1171,315.2847,286.927,312.3941,285.0268,312.0523L285.0268,312.0523z"/>
		</g>
	</g>
	<g>
		<g>
			<path style="fill:#212D50;" d="M278.7852,330.969c-5.054,1.0999-10.1079,2.1999-15.1619,3.2999
				c-1.8856,0.4104-1.0876,3.3031,0.7975,2.8928c5.054-1.0999,10.1079-2.1999,15.1619-3.2999
				C281.4683,333.4515,280.6704,330.5587,278.7852,330.969L278.7852,330.969z"/>
		</g>
	</g>
	<g>
		<g>
			<path style="fill:#212D50;" d="M282.5664,353.5234c-4.5746,2.2794-9.1492,4.5588-13.7238,6.8382
				c-1.7281,0.8611-0.2104,3.4497,1.5142,2.5904c4.5746-2.2794,9.1492-4.5588,13.7238-6.8382
				C285.8087,355.2527,284.2909,352.6642,282.5664,353.5234L282.5664,353.5234z"/>
		</g>
	</g>
	<g>
		<g>
			<path style="fill:#212D50;" d="M323.2578,296.1178c-3.4596,2.856-6.9192,5.7121-10.3788,8.5681
				c-1.4901,1.2301,0.6427,3.3419,2.1213,2.1213c3.4596-2.856,6.9192-5.7121,10.3788-8.5681
				C326.8691,297.009,324.7364,294.8972,323.2578,296.1178L323.2578,296.1178z"/>
		</g>
	</g>
	<g>
		<g>
			<path style="fill:#212D50;" d="M328.8517,319.2073c-3.8087,2.197-7.6173,4.3939-11.4259,6.5909
				c-1.6719,0.9644-0.1629,3.5578,1.5142,2.5904c3.8086-2.1969,7.6173-4.3939,11.4259-6.5909
				C332.0378,320.8333,330.5287,318.24,328.8517,319.2073L328.8517,319.2073z"/>
		</g>
	</g>
	<g>
		<g>
			<path style="fill:#212D50;" d="M330.6343,353.2885c-5.5005-0.2862-10.5356-2.3018-14.7016-5.9139
				c-1.4525-1.2594-3.5833,0.8538-2.1213,2.1213c4.7832,4.1473,10.496,6.4634,16.8229,6.7926
				C332.5638,356.3889,332.5583,353.3886,330.6343,353.2885L330.6343,353.2885z"/>
		</g>
	</g>
</g>
<g>
	<g>
		<path style="fill:#9B6FEF;" d="M210.4511,401.1552c-38.5674-9.5392-84.2201-50.0572-73.4333-94.231
			c5.85-23.9541,26.4464-43.8175,26.2235-68.4746c-0.2487-27.5168-26.1102-48.0072-33.3389-74.5588
			c-5.6482-20.7461,0.919-43.3508,12.9641-61.1614s29.0773-31.5888,46.2896-44.4745c-1.7714,18.3605,9.3594,35.4946,22.054,48.877
			s27.6492,25.0738,36.793,41.0936c12.0008,21.0253,12.0403,48.3725,0.1001,69.4323c-5.766,10.1699-14.2481,19.3584-15.9695,30.9217
			c-2.9202,19.6163,14.1093,35.6261,25.9216,51.5572c12.4202,16.7509,20.1836,37.8486,17.2289,58.4913
			c-2.9547,20.6427-18.2721,40.0511-38.7467,44.0059C227.9181,404.2987,218.9731,403.263,210.4511,401.1552z"/>
	</g>
	<g>
		<g>
			<path style="fill:#212D50;" d="M173.0824,95.0215c1.7871,17.7994,7.9274,34.6212,11.8105,51.9915
				c3.7898,16.9526,5.7587,34.2449,7.0873,51.5465c2.533,32.9848,2.6914,66.2641,8.4497,98.9252
				c3.2107,18.2114,8.3499,35.9919,16.2795,52.727c0.8262,1.7437,3.4135,0.2229,2.5904-1.5142
				c-28.7122-60.596-17.6401-129.8813-29.7862-194.0915c-3.784-20.0041-11.3908-39.2621-13.4312-59.5845
				C175.8914,93.1187,172.8894,93.099,173.0824,95.0215L173.0824,95.0215z"/>
		</g>
	</g>
	<g>
		<g>
			<path style="fill:#212D50;" d="M205.7226,148.5694c2.8617-5.7398,6.3942-11.01,10.6553-15.8073
				c1.2783-1.4391-0.836-3.5683-2.1213-2.1213c-4.4264,4.9834-8.1493,10.4472-11.1244,16.4144
				C202.2733,148.7779,204.8601,150.2992,205.7226,148.5694L205.7226,148.5694z"/>
		</g>
	</g>
	<g>
		<g>
			<path style="fill:#212D50;" d="M214.6624,174.6192c4.9789-4.8259,10.4005-9.078,16.2767-12.7589
				c1.6324-1.0226,0.1283-3.6193-1.5142-2.5904c-6.0891,3.8143-11.7244,8.2271-16.8839,13.228
				C211.1522,173.8441,213.2748,175.9642,214.6624,174.6192L214.6624,174.6192z"/>
		</g>
	</g>
	<g>
		<g>
			<path style="fill:#212D50;" d="M214.4878,203.8554c6.3513-0.5186,12.7027-1.0372,19.054-1.5558c1.9108-0.156,1.9275-3.1574,0-3
				c-6.3513,0.5186-12.7027,1.0372-19.054,1.5558C212.577,201.0114,212.5603,204.0128,214.4878,203.8554L214.4878,203.8554z"/>
		</g>
	</g>
	<g>
		<g>
			<path style="fill:#212D50;" d="M155.7172,129.6007c5.2318,2.8648,10.056,6.29,14.4664,10.3076
				c1.4247,1.2978,3.5523-0.8178,2.1213-2.1213c-4.5947-4.1854-9.6212-7.7911-15.0736-10.7767
				C155.5371,126.0826,154.0215,128.6722,155.7172,129.6007L155.7172,129.6007z"/>
		</g>
	</g>
	<g>
		<g>
			<path style="fill:#212D50;" d="M164.9863,161.2925c-5.3641-0.4025-10.7281-0.8051-16.0922-1.2076
				c-1.9258-0.1445-1.9165,2.8562,0,3c5.3641,0.4025,10.7281,0.8051,16.0922,1.2076
				C166.9121,164.4371,166.9028,161.4364,164.9863,161.2925L164.9863,161.2925z"/>
		</g>
	</g>
	<g>
		<g>
			<path style="fill:#212D50;" d="M178.2974,182.0746c-4.6439,2.1841-9.6362,2.6898-14.6321,1.5401
				c-1.8791-0.4324-2.6812,2.4594-0.7975,2.8928c5.8269,1.3409,11.5374,0.7003,16.9438-1.8425
				C181.5574,183.8439,180.0362,181.2568,178.2974,182.0746L178.2974,182.0746z"/>
		</g>
	</g>
	<g>
		<g>
			<path style="fill:#212D50;" d="M228.878,300.4928c0.3668-2.8922,2.1188-5.3929,4.5954-6.8759
				c1.6547-0.9909,0.1479-3.5857-1.5141-2.5904c-3.4688,2.0771-5.5762,5.4839-6.0813,9.4663
				C225.6357,302.403,228.6379,302.3853,228.878,300.4928L228.878,300.4928z"/>
		</g>
	</g>
	<g>
		<g>
			<path style="fill:#212D50;" d="M232.4221,323.2067c3.3848-3.2759,7.0255-6.2249,10.9422-8.8422
				c1.5974-1.0675,0.0972-3.6671-1.5142-2.5904c-4.1259,2.7571-7.9834,5.86-11.5494,9.3113
				C228.9109,322.4305,231.0336,324.5505,232.4221,323.2067L232.4221,323.2067z"/>
		</g>
	</g>
	<g>
		<g>
			<path style="fill:#212D50;" d="M241.663,345.9608c4.1396-0.6219,8.2792-1.2437,12.4188-1.8656
				c1.9027-0.2859,1.0942-3.177-0.7975-2.8929c-4.1396,0.6219-8.2792,1.2437-12.4188,1.8656
				C238.9628,343.3538,239.7713,346.2449,241.663,345.9608L241.663,345.9608z"/>
		</g>
	</g>
	<g>
		<g>
			<path style="fill:#212D50;" d="M167.2008,273.4655c3.1859,3.3513,6.9788,5.8454,11.2755,7.5381
				c1.7968,0.7078,2.5761-2.1922,0.7975-2.8929c-3.8028-1.4981-7.1401-3.8091-9.9517-6.7665
				C167.9892,269.9421,165.8702,272.0658,167.2008,273.4655L167.2008,273.4655z"/>
		</g>
	</g>
	<g>
		<g>
			<path style="fill:#212D50;" d="M160.7762,296.6957c4.7262,5.4953,11.1417,9.0099,18.3281,9.9874
				c1.8879,0.2568,2.7048-2.6334,0.7975-2.8928c-6.7302-0.9154-12.5735-4.0641-17.0043-9.2159
				C161.6365,293.1082,159.5227,295.2383,160.7762,296.6957L160.7762,296.6957z"/>
		</g>
	</g>
	<g>
		<g>
			<path style="fill:#212D50;" d="M162.3702,331.3768c8.7851,2.6395,17.6141,2.0374,26.0193-1.5931
				c1.7675-0.7634,0.2415-3.3487-1.5142-2.5904c-7.6432,3.3013-15.7502,3.6815-23.7077,1.2906
				C161.3147,327.9272,160.5229,330.8218,162.3702,331.3768L162.3702,331.3768z"/>
		</g>
	</g>
</g>
<g>
	<g>
		<path style="fill:#A5CAFA;" d="M976.3304,386.7068c13.9758,13.6776,37.4935,19.6814,55.9777,21.466
			c5.7,0.5503,11.4773,0.9579,17.13,0.0419c6.6152-1.0719,12.7941-3.9099,18.8787-6.7185
			c17.1896-7.9344,27.004-13.251,33.6313-31.5526c5.4479-15.0444,4.4855-32.496-4.2762-46.1301
			c-4.7998-7.4689-11.6344-13.8603-14.2731-22.3373c-6.1093-19.627,12.1-37.2883,24.12-53.9635
			c29.682-41.177,21.9583-104.682-16.7285-137.5438c0.0413,16.1693-12.4723,29.7662-26.2161,38.2842
			c-13.7438,8.5181-29.4243,13.8097-42.3801,23.4842c-25.5485,19.0779-36.7289,55.32-26.3686,85.4755
			c4.1475,12.072,11.4531,24.4968,7.8098,36.7304c-4.2084,14.1312-20.5908,20.1813-30.5501,31.0539
			c-14.473,15.8003-13.1044,42.8858,0.5387,58.8209C974.4792,384.8169,975.3829,385.7795,976.3304,386.7068z"/>
	</g>
	<g>
		<g>
			<path style="fill:#212D50;" d="M1086.9756,163.4528c1.7172,27.4615-15.8833,50.3501-28.9083,72.9263
				c-6.376,11.0514-12.2473,22.6672-15.0061,35.2098c-3.5869,16.3072-1.5559,33.0463-2.1735,49.571
				c-0.6196,16.5777-4.7616,34.8216-18.698,45.3398c-1.522,1.1487-0.0286,3.7548,1.5142,2.5904
				c26.017-19.6359,18.6134-55.4162,20.4552-83.4944c2.0155-30.728,21.9885-53.9337,35.4412-80.2849
				c6.6627-13.0511,11.3016-27.0445,10.3754-41.858C1089.8556,161.5351,1086.8547,161.5215,1086.9756,163.4528L1086.9756,163.4528z"
				/>
		</g>
	</g>
	<g>
		<g>
			<path style="fill:#212D50;" d="M1056.0176,201.4595c-2.2573-4.3519-3.5551-8.9685-3.8824-13.8601
				c-0.1282-1.9162-3.1292-1.9305-3,0c0.3629,5.4226,1.7898,10.55,4.292,15.3743
				C1054.3164,204.6881,1056.9061,203.1727,1056.0176,201.4595L1056.0176,201.4595z"/>
		</g>
	</g>
	<g>
		<g>
			<path style="fill:#212D50;" d="M1038.573,216.8338c-3.7218-0.0215-7.126-1.3109-9.8949-3.81
				c-1.4301-1.2907-3.5582,0.8244-2.1213,2.1213c3.3538,3.0269,7.4924,4.6625,12.0162,4.6887
				C1040.5038,219.8449,1040.506,216.8449,1038.573,216.8338L1038.573,216.8338z"/>
		</g>
	</g>
	<g>
		<g>
			<path style="fill:#212D50;" d="M1028.8081,246.4478c-4.4307,2.9963-9.3383,4.3909-14.6862,4.1515
				c-1.9302-0.0864-1.926,2.9138,0,3c5.8181,0.2604,11.3749-1.2979,16.2003-4.5611
				C1031.9128,247.9626,1030.4133,245.3623,1028.8081,246.4478L1028.8081,246.4478z"/>
		</g>
	</g>
	<g>
		<g>
			<path style="fill:#212D50;" d="M1100.4597,199.7793c-3.5643,2.7179-7.5526,4.4023-11.9869,5.0619
				c-1.9028,0.2831-1.0941,3.1742,0.7976,2.8928c4.6538-0.6922,8.9615-2.511,12.7035-5.3643
				C1103.489,201.2144,1101.9961,198.6078,1100.4597,199.7793L1100.4597,199.7793z"/>
		</g>
	</g>
	<g>
		<g>
			<path style="fill:#212D50;" d="M1095.896,227.9112c-4.3495,1.4212-8.6932,1.3974-13.0267-0.0613
				c-1.8339-0.6173-2.6207,2.2792-0.7975,2.8928c4.7958,1.6143,9.8136,1.6324,14.6217,0.0613
				C1098.5206,230.207,1097.7385,227.3091,1095.896,227.9112L1095.896,227.9112z"/>
		</g>
	</g>
	<g>
		<g>
			<path style="fill:#212D50;" d="M1080.7651,256.066c-3.6826-1.2783-6.7008-4.0809-8.1755-7.7031
				c-0.7185-1.7645-3.6218-0.9927-2.8928,0.7975c1.899,4.6643,5.501,8.1427,10.2709,9.7984
				C1081.7953,259.5932,1082.5807,256.6962,1080.7651,256.066L1080.7651,256.066z"/>
		</g>
	</g>
	<g>
		<g>
			<path style="fill:#212D50;" d="M1027.2429,319.9399c-5.3671-3.4611-9.8196-7.9593-13.2317-13.3573
				c-1.0289-1.6277-3.626-0.1242-2.5905,1.5142c3.6875,5.8336,8.5082,10.6934,14.308,14.4335
				C1027.3561,323.5797,1028.8618,320.9839,1027.2429,319.9399L1027.2429,319.9399z"/>
		</g>
	</g>
	<g>
		<g>
			<path style="fill:#212D50;" d="M1014.5237,335.1083c-5.0846-0.9483-10.1692-1.8967-15.2538-2.845
				c-1.8871-0.352-2.696,2.5388-0.7975,2.8929c5.0846,0.9483,10.1692,1.8967,15.2537,2.845
				C1015.6133,338.3531,1016.4222,335.4623,1014.5237,335.1083L1014.5237,335.1083z"/>
		</g>
	</g>
	<g>
		<g>
			<path style="fill:#212D50;" d="M1009.2425,357.3078c-5.1007,0.3247-10.2014,0.6494-15.3021,0.9741
				c-1.9173,0.122-1.9311,3.1229,0,3c5.1007-0.3247,10.2014-0.6494,15.3021-0.9741
				C1011.1598,360.1857,1011.1735,357.1849,1009.2425,357.3078L1009.2425,357.3078z"/>
		</g>
	</g>
	<g>
		<g>
			<path style="fill:#212D50;" d="M1069.0002,320.1568c-4.2971,1.2889-8.5941,2.5779-12.8911,3.8669
				c-1.8446,0.5533-1.0588,3.4497,0.7975,2.8929c4.297-1.289,8.5941-2.5779,12.8911-3.8669
				C1071.6423,322.4963,1070.8566,319.6,1069.0002,320.1568L1069.0002,320.1568z"/>
		</g>
	</g>
	<g>
		<g>
			<path style="fill:#212D50;" d="M1065.2196,343.6518c-4.3628,0.5461-8.7256,1.0921-13.0885,1.6382
				c-1.8903,0.2366-1.9139,3.2396,0,3c4.3629-0.5461,8.7257-1.0921,13.0885-1.6382
				C1067.11,346.4152,1067.1337,343.4122,1065.2196,343.6518L1065.2196,343.6518z"/>
		</g>
	</g>
	<g>
		<g>
			<path style="fill:#212D50;" d="M1053.6115,375.8516c-5.1044-2.4308-9.0542-6.3483-11.5215-11.436
				c-0.8423-1.7367-3.4302-0.2173-2.5905,1.5142c2.6646,5.4942,7.0842,9.8867,12.5978,12.5123
				C1053.8315,379.2678,1055.3556,376.6821,1053.6115,375.8516L1053.6115,375.8516z"/>
		</g>
	</g>
</g>
<g>
	<g>
		<path style="fill:#71B1FC;" d="M1086.1587,358.9599c19.9803,42.1267,88.1896,49.0667,116.8235,11.5739
			c10.0695-13.1855,12.7192-33.4973,2.2074-46.956c-10.2059-13.0672-17.3489-23.7884-15.9896-41.9232
			c1.2466-16.6329,11.2571-31.0833,19.7478-45.4401c8.491-14.3569,15.9485-31.187,11.5261-47.2699
			c-7.2203-26.2585-35.2212-38.0743-49.5469-59.5742c-11.3459,8.7664-22.6918,17.5327-34.0377,26.2991
			c-16.5637,12.798-34.9189,29.6443-32.2097,50.4002c2.647,20.2795,25.2745,38.5744,16.5052,57.0504
			c-3.3654,7.0905-10.5618,11.3654-16.6233,16.3512C1081.9369,298.0806,1073.605,332.4915,1086.1587,358.9599z"/>
	</g>
	<g>
		<g>
			<path style="fill:#212D50;" d="M1167.6284,162.2608c3.5732,17.4503,4.036,35.4323,1.0698,53.0134
				c-2.8547,16.9214-9.4738,32.6528-15.0212,48.7898c-10.5607,30.7197-13.5186,63.2959-8.5045,95.4028
				c0.2971,1.9018,3.1884,1.0943,2.8929-0.7975c-5.3846-34.479-0.7711-68.3433,11.0532-100.9842
				c5.6483-15.5922,11.2311-31.0091,13.3533-47.5508c2.0836-16.2407,1.3311-32.6444-1.9507-48.671
				C1170.1343,159.5732,1167.2419,160.3731,1167.6284,162.2608L1167.6284,162.2608z"/>
		</g>
	</g>
	<g>
		<g>
			<path style="fill:#212D50;" d="M1153.7153,186.3655c-3.1273-2.6122-5.7898-5.6299-7.9536-9.0844
				c-1.0225-1.6325-3.6193-0.1284-2.5903,1.5142c2.2935,3.6615,5.1056,6.9208,8.4226,9.6915
				C1153.066,189.7164,1155.1992,187.6051,1153.7153,186.3655L1153.7153,186.3655z"/>
		</g>
	</g>
	<g>
		<g>
			<path style="fill:#212D50;" d="M1144.6934,209.4453c-4.4705-1.9333-8.671-4.3718-12.5118-7.3725
				c-1.504-1.1751-3.6418,0.9334-2.1212,2.1213c4.0543,3.1675,8.3931,5.7978,13.1189,7.8415
				C1144.9329,212.7941,1146.4625,210.2103,1144.6934,209.4453L1144.6934,209.4453z"/>
		</g>
	</g>
	<g>
		<g>
			<path style="fill:#212D50;" d="M1147.4495,241.1756c-4.2465,0.0152-8.3685,0.7145-12.3733,2.1311
				c-1.8076,0.6395-1.0292,3.539,0.7976,2.8928c3.7598-1.33,7.5862-2.0097,11.5757-2.024
				C1149.3794,244.1687,1149.3833,241.1687,1147.4495,241.1756L1147.4495,241.1756z"/>
		</g>
	</g>
	<g>
		<g>
			<path style="fill:#212D50;" d="M1195.7384,179.9956c-2.3052,3.1265-5.4434,5.5351-9.0586,6.955
				c-1.7766,0.6978-1.0032,3.6001,0.7976,2.8928c4.4142-1.7338,8.0371-4.5169,10.8514-8.3337
				C1199.4756,179.9544,1196.8733,178.4565,1195.7384,179.9956L1195.7384,179.9956z"/>
		</g>
	</g>
	<g>
		<g>
			<path style="fill:#212D50;" d="M1197.9761,203.0212c-2.8901,4.2016-8.1162,5.9137-12.958,4.4502
				c-1.8521-0.5598-2.6437,2.3348-0.7975,2.8928c6.181,1.8684,12.7091-0.5417,16.3458-5.8289
				C1201.6632,202.9408,1199.0645,201.4388,1197.9761,203.0212L1197.9761,203.0212z"/>
		</g>
	</g>
	<g>
		<g>
			<path style="fill:#212D50;" d="M1192.0339,235.1411c-3.5892-0.536-6.6884-3.2958-7.1584-6.996c-0.24-1.8893-3.243-1.9133-3,0
				c0.6283,4.9455,4.3312,9.1376,9.361,9.8888C1193.125,238.316,1193.9398,235.4258,1192.0339,235.1411L1192.0339,235.1411z"/>
		</g>
	</g>
	<g>
		<g>
			<path style="fill:#212D50;" d="M1132.8112,303.4927c-3.4733-2.3376-6.9465-4.6752-10.4198-7.0128
				c-1.606-1.0809-3.1091,1.5169-1.5142,2.5904c3.4733,2.3376,6.9465,4.6752,10.4198,7.0128
				C1132.9031,307.164,1134.4062,304.5663,1132.8112,303.4927L1132.8112,303.4927z"/>
		</g>
	</g>
	<g>
		<g>
			<path style="fill:#212D50;" d="M1124.1163,325.6418c-3.3799,2.0914-7.0443,3.2995-11.0168,3.5533
				c-1.9172,0.1225-1.931,3.1234,0,3c4.4886-0.2868,8.7023-1.5937,12.531-3.9629
				C1127.2692,327.2182,1125.7643,324.622,1124.1163,325.6418L1124.1163,325.6418z"/>
		</g>
	</g>
	<g>
		<g>
			<path style="fill:#212D50;" d="M1129.9268,345.4681c-3.5697,2.9273-7.1394,5.8546-10.709,8.782
				c-1.4938,1.225,0.6394,3.3365,2.1213,2.1213c3.5696-2.9273,7.1393-5.8546,10.7089-8.782
				C1133.5417,346.3645,1131.4086,344.2529,1129.9268,345.4681L1129.9268,345.4681z"/>
		</g>
	</g>
	<g>
		<g>
			<path style="fill:#212D50;" d="M1172.8657,293.0908c-3.9585,1.3638-7.917,2.7276-11.8755,4.0914
				c-1.8146,0.6251-1.0349,3.5241,0.7975,2.8928c3.9585-1.3638,7.917-2.7276,11.8755-4.0914
				C1175.4778,295.3585,1174.698,292.4595,1172.8657,293.0908L1172.8657,293.0908z"/>
		</g>
	</g>
	<g>
		<g>
			<path style="fill:#212D50;" d="M1175.1084,315.5739c-3.6947-1.228-7.3895-2.456-11.0842-3.684
				c-1.8363-0.6103-2.6237,2.2859-0.7975,2.8929c3.6947,1.228,7.3894,2.456,11.0842,3.684
				C1176.1471,319.077,1176.9346,316.1808,1175.1084,315.5739L1175.1084,315.5739z"/>
		</g>
	</g>
	<g>
		<g>
			<path style="fill:#212D50;" d="M1159.9178,336.4876c2.2581,3.0518,4.9287,5.6436,8.0656,7.7852
				c1.5985,1.0914,3.1008-1.507,1.5142-2.5904c-2.6852-1.8334-5.0542-4.0937-6.9893-6.709
				C1161.3724,333.4384,1158.7675,334.9329,1159.9178,336.4876L1159.9178,336.4876z"/>
		</g>
	</g>
</g>
<g>
	<g>
		<path style="fill:#A5CAFA;" d="M1460.4825,386.7068c13.9757,13.6776,37.4934,19.6814,55.9777,21.466
			c5.7,0.5503,11.4773,0.9579,17.13,0.0419c6.6152-1.0719,12.7942-3.9099,18.8787-6.7185
			c17.1896-7.9344,27.0042-13.251,33.6315-31.5526c5.4478-15.0444,4.4854-32.496-4.2764-46.1301
			c-4.7998-7.4689-11.6343-13.8603-14.2729-22.3373c-6.1094-19.627,12.0999-37.2883,24.12-53.9635
			c29.6819-41.177,21.9583-104.682-16.7285-137.5438c0.0413,16.1693-12.4724,29.7662-26.2162,38.2842
			c-13.7438,8.5181-29.4243,13.8097-42.38,23.4842c-25.5485,19.0779-36.7289,55.32-26.3687,85.4755
			c4.1476,12.072,11.4531,24.4968,7.8099,36.7304c-4.2084,14.1312-20.5908,20.1813-30.5502,31.0539
			c-14.473,15.8003-13.1045,42.8858,0.5387,58.8209C1458.6313,384.8169,1459.535,385.7795,1460.4825,386.7068z"/>
	</g>
	<g>
		<g>
			<path style="fill:#212D50;" d="M1571.1277,163.4528c1.7172,27.4615-15.8833,50.3501-28.9082,72.9263
				c-6.376,11.0514-12.2473,22.6672-15.0062,35.2098c-3.5869,16.3072-1.5558,33.0463-2.1735,49.571
				c-0.6195,16.5777-4.7616,34.8216-18.698,45.3398c-1.522,1.1487-0.0286,3.7548,1.5142,2.5904
				c26.0171-19.6359,18.6134-55.4162,20.4552-83.4944c2.0155-30.728,21.9886-53.9337,35.4412-80.2849
				c6.6627-13.0511,11.3016-27.0445,10.3754-41.858C1574.0078,161.5351,1571.007,161.5215,1571.1277,163.4528L1571.1277,163.4528z"
				/>
		</g>
	</g>
	<g>
		<g>
			<path style="fill:#212D50;" d="M1540.1697,201.4595c-2.2572-4.3519-3.5549-8.9685-3.8823-13.8601
				c-0.1283-1.9162-3.1293-1.9305-3,0c0.3629,5.4226,1.7897,10.55,4.292,15.3743
				C1538.4685,204.6881,1541.0583,203.1727,1540.1697,201.4595L1540.1697,201.4595z"/>
		</g>
	</g>
	<g>
		<g>
			<path style="fill:#212D50;" d="M1522.7252,216.8338c-3.7219-0.0215-7.1261-1.3109-9.8949-3.81
				c-1.4301-1.2907-3.5582,0.8244-2.1213,2.1213c3.3536,3.0269,7.4923,4.6625,12.0162,4.6887
				C1524.6559,219.8449,1524.6582,216.8449,1522.7252,216.8338L1522.7252,216.8338z"/>
		</g>
	</g>
	<g>
		<g>
			<path style="fill:#212D50;" d="M1512.9603,246.4478c-4.4307,2.9963-9.3384,4.3909-14.6863,4.1515
				c-1.9302-0.0864-1.9259,2.9138,0,3c5.8181,0.2604,11.3749-1.2979,16.2004-4.5611
				C1516.0651,247.9626,1514.5654,245.3623,1512.9603,246.4478L1512.9603,246.4478z"/>
		</g>
	</g>
	<g>
		<g>
			<path style="fill:#212D50;" d="M1584.6119,199.7793c-3.5643,2.7179-7.5527,4.4023-11.9869,5.0619
				c-1.903,0.2831-1.0942,3.1742,0.7975,2.8928c4.6539-0.6922,8.9617-2.511,12.7036-5.3643
				C1587.6411,201.2144,1586.1483,198.6078,1584.6119,199.7793L1584.6119,199.7793z"/>
		</g>
	</g>
	<g>
		<g>
			<path style="fill:#212D50;" d="M1580.0481,227.9112c-4.3494,1.4212-8.6931,1.3974-13.0267-0.0613
				c-1.8339-0.6173-2.6206,2.2792-0.7975,2.8928c4.7958,1.6143,9.8137,1.6324,14.6218,0.0613
				C1582.6727,230.207,1581.8906,227.3091,1580.0481,227.9112L1580.0481,227.9112z"/>
		</g>
	</g>
	<g>
		<g>
			<path style="fill:#212D50;" d="M1564.9174,256.066c-3.6827-1.2783-6.7008-4.0809-8.1757-7.7031
				c-0.7184-1.7645-3.6217-0.9927-2.8928,0.7975c1.8992,4.6643,5.501,8.1427,10.2709,9.7984
				C1565.9475,259.5932,1566.7329,256.6962,1564.9174,256.066L1564.9174,256.066z"/>
		</g>
	</g>
	<g>
		<g>
			<path style="fill:#212D50;" d="M1511.395,319.9399c-5.3671-3.4611-9.8196-7.9593-13.2317-13.3573
				c-1.0288-1.6277-3.626-0.1242-2.5903,1.5142c3.6874,5.8336,8.5082,10.6934,14.3079,14.4335
				C1511.5082,323.5797,1513.0139,320.9839,1511.395,319.9399L1511.395,319.9399z"/>
		</g>
	</g>
	<g>
		<g>
			<path style="fill:#212D50;" d="M1498.6758,335.1083c-5.0846-0.9483-10.1691-1.8967-15.2537-2.845
				c-1.8872-0.352-2.696,2.5388-0.7976,2.8929c5.0846,0.9483,10.1692,1.8967,15.2538,2.845
				C1499.7654,338.3531,1500.5743,335.4623,1498.6758,335.1083L1498.6758,335.1083z"/>
		</g>
	</g>
	<g>
		<g>
			<path style="fill:#212D50;" d="M1493.3947,357.3078c-5.1007,0.3247-10.2014,0.6494-15.3021,0.9741
				c-1.9174,0.122-1.931,3.1229,0,3c5.1007-0.3247,10.2014-0.6494,15.3021-0.9741
				C1495.3119,360.1857,1495.3257,357.1849,1493.3947,357.3078L1493.3947,357.3078z"/>
		</g>
	</g>
	<g>
		<g>
			<path style="fill:#212D50;" d="M1553.1523,320.1568c-4.297,1.2889-8.594,2.5779-12.8911,3.8669
				c-1.8446,0.5533-1.0587,3.4497,0.7976,2.8929c4.297-1.289,8.594-2.5779,12.891-3.8669
				C1555.7944,322.4963,1555.0087,319.6,1553.1523,320.1568L1553.1523,320.1568z"/>
		</g>
	</g>
	<g>
		<g>
			<path style="fill:#212D50;" d="M1549.3718,343.6518c-4.3629,0.5461-8.7257,1.0921-13.0885,1.6382
				c-1.8904,0.2366-1.9141,3.2396,0,3c4.3628-0.5461,8.7256-1.0921,13.0885-1.6382
				C1551.2621,346.4152,1551.2858,343.4122,1549.3718,343.6518L1549.3718,343.6518z"/>
		</g>
	</g>
	<g>
		<g>
			<path style="fill:#212D50;" d="M1537.7635,375.8516c-5.1044-2.4308-9.0541-6.3483-11.5215-11.436
				c-0.8422-1.7367-3.4301-0.2173-2.5903,1.5142c2.6644,5.4942,7.0842,9.8867,12.5977,12.5123
				C1537.9836,379.2678,1539.5077,376.6821,1537.7635,375.8516L1537.7635,375.8516z"/>
		</g>
	</g>
</g>
<g>
	<g>
		<path style="fill:#F09A82;" d="M1356.853,350.3524c24.7599,52.2039,109.2855,60.804,144.7692,14.3425
			c12.4781-16.3397,15.7618-41.5103,2.7354-58.1885c-12.6473-16.193-21.4989-29.4789-19.8146-51.9517
			c1.5448-20.6118,13.95-38.5188,24.4718-56.31c10.522-17.7913,19.7635-38.6473,14.2833-58.5774
			c-8.9476-32.5398-43.6465-47.1822-61.3992-73.8251c-14.0601,10.8634-28.12,21.7268-42.1799,32.5902
			c-20.5261,15.8594-43.272,36.7356-39.9148,62.4566c3.2803,25.1306,31.3207,47.8019,20.4536,70.6976
			c-4.1704,8.7866-13.0883,14.0842-20.5999,20.2626C1351.6213,274.9099,1341.2961,317.5525,1356.853,350.3524z"/>
	</g>
	<g>
		<g>
			<path style="fill:#212D50;" d="M1458.1573,106.505c6.8011,32.9924,3.7638,66.1685-7.1027,97.9192
				c-5.2797,15.4268-11.4883,30.5282-15.6931,46.3074c-4.0957,15.3692-6.6384,31.16-7.6292,47.0337
				c-1.1083,17.7587-0.1631,35.5493,2.5973,53.1199c0.2987,1.9017,3.1899,1.0943,2.8928-0.7975
				c-5.1494-32.7784-3.5161-66.4815,5.0319-98.5585c4.205-15.7798,10.4133-30.8802,15.6931-46.3074
				c5.1888-15.1613,8.9023-30.6691,10.3033-46.6553c1.55-17.6882,0.3818-35.4798-3.2007-52.8589
				C1460.6606,103.8178,1457.7683,104.6176,1458.1573,106.505L1458.1573,106.505z"/>
		</g>
	</g>
	<g>
		<g>
			<path style="fill:#212D50;" d="M1440.3162,136.7249c-3.8979-3.256-7.2151-7.0242-9.9121-11.3301
				c-1.0226-1.6325-3.6193-0.1284-2.5905,1.5142c2.8265,4.5126,6.2933,8.5225,10.3813,11.9372
				C1439.667,140.0759,1441.8002,137.9645,1440.3162,136.7249L1440.3162,136.7249z"/>
		</g>
	</g>
	<g>
		<g>
			<path style="fill:#212D50;" d="M1429.2086,165.3818c-5.5706-2.4091-10.7919-5.4535-15.5773-9.1921
				c-1.504-1.1751-3.6418,0.9334-2.1213,2.1213c4.9987,3.9052,10.3588,7.1418,16.1846,9.6612
				C1429.4482,168.7306,1430.9779,166.1469,1429.2086,165.3818L1429.2086,165.3818z"/>
		</g>
	</g>
	<g>
		<g>
			<path style="fill:#212D50;" d="M1432.8052,204.7515c-5.2334,0.0187-10.3018,0.8821-15.2377,2.6281
				c-1.8076,0.6395-1.0292,3.539,0.7976,2.8928c4.687-1.658,9.4667-2.5032,14.4401-2.521
				C1434.7352,207.7446,1434.739,204.7446,1432.8052,204.7515L1432.8052,204.7515z"/>
		</g>
	</g>
	<g>
		<g>
			<path style="fill:#212D50;" d="M1492.9554,128.7586c-2.917,3.9561-6.8657,6.987-11.4399,8.7837
				c-1.7767,0.6978-1.0032,3.6001,0.7975,2.8928c5.3759-2.1115,9.8054-5.514,13.2328-10.1624
				C1496.6926,128.7175,1494.0902,127.2196,1492.9554,128.7586L1492.9554,128.7586z"/>
		</g>
	</g>
	<g>
		<g>
			<path style="fill:#212D50;" d="M1495.7283,157.2923c-3.6716,5.3378-10.3014,7.5421-16.4629,5.6797
				c-1.8521-0.5598-2.6437,2.3348-0.7975,2.8928c7.4994,2.2669,15.4335-0.6363,19.8507-7.0583
				C1499.4155,157.2118,1496.8167,155.7099,1495.7283,157.2923L1495.7283,157.2923z"/>
		</g>
	</g>
	<g>
		<g>
			<path style="fill:#212D50;" d="M1487.9595,197.2606c-4.6211-0.6901-8.5325-4.2798-9.1342-9.0155c-0.24-1.8893-3.243-1.9133-3,0
				c0.7599,5.981,5.2743,11.0029,11.3367,11.9083C1489.0507,200.4355,1489.8654,197.5452,1487.9595,197.2606L1487.9595,197.2606z"/>
		</g>
	</g>
	<g>
		<g>
			<path style="fill:#212D50;" d="M1414.4843,281.9266c-4.3042-2.8968-8.6083-5.7936-12.9124-8.6904
				c-1.6061-1.0809-3.1093,1.5168-1.5142,2.5904c4.3041,2.8968,8.6082,5.7936,12.9124,8.6904
				C1414.576,285.5979,1416.0793,283.0001,1414.4843,281.9266L1414.4843,281.9266z"/>
		</g>
	</g>
	<g>
		<g>
			<path style="fill:#212D50;" d="M1404.0717,309.374c-4.2437,2.6259-8.8468,4.1336-13.8334,4.4523c-1.9172,0.1225-1.931,3.1234,0,3
				c5.4995-0.3514,10.6576-1.9598,15.3475-4.8619C1407.2245,310.9504,1405.7196,308.3542,1404.0717,309.374L1404.0717,309.374z"/>
		</g>
	</g>
	<g>
		<g>
			<path style="fill:#212D50;" d="M1411.3446,333.887c-4.4236,3.6276-8.8472,7.2552-13.2708,10.8827
				c-1.4938,1.225,0.6395,3.3366,2.1213,2.1213c4.4236-3.6276,8.8472-7.2551,13.2706-10.8827
				C1414.9596,334.7833,1412.8264,332.6718,1411.3446,333.887L1411.3446,333.887z"/>
		</g>
	</g>
	<g>
		<g>
			<path style="fill:#212D50;" d="M1464.3969,269.0726c-4.9055,1.69-9.8109,3.38-14.7163,5.0701
				c-1.8146,0.6252-1.0349,3.5241,0.7975,2.8929c4.9054-1.69,9.8108-3.3801,14.7163-5.0701
				C1467.0088,271.3403,1466.2291,268.4413,1464.3969,269.0726L1464.3969,269.0726z"/>
		</g>
	</g>
	<g>
		<g>
			<path style="fill:#212D50;" d="M1466.9851,296.9339c-4.5785-1.5218-9.1571-3.0435-13.7357-4.5652
				c-1.8363-0.6103-2.6237,2.2859-0.7975,2.8929c4.5786,1.5217,9.1571,3.0435,13.7357,4.5652
				C1468.0239,300.437,1468.8113,297.5408,1466.9851,296.9339L1466.9851,296.9339z"/>
		</g>
	</g>
	<g>
		<g>
			<path style="fill:#212D50;" d="M1448.566,322.3234c2.7593,3.7292,6.0336,6.9021,9.8662,9.5188
				c1.5985,1.0914,3.1008-1.507,1.5142-2.5904c-3.382-2.3091-6.3531-5.1491-8.7899-8.4426
				C1450.0206,319.2741,1447.4156,320.7686,1448.566,322.3234L1448.566,322.3234z"/>
		</g>
	</g>
</g>
<g>
	<g>
		<path style="fill:#A5CAFA;" d="M1337.9009,398.3262c31.9539-7.9035,69.778-41.4734,60.8409-78.0723
			c-4.8468-19.8465-21.9114-36.3037-21.7267-56.7326c0.2061-22.7983,21.6328-39.775,27.6219-61.7735
			c4.6796-17.1886-0.7615-35.917-10.7411-50.6735s-24.0912-26.172-38.3518-36.848c1.4677,15.212-7.7545,29.408-18.2722,40.4956
			c-10.5178,11.0876-22.908,20.7741-30.4839,34.0469c-9.9429,17.4199-9.9756,40.0776-0.0829,57.526
			c4.7772,8.4259,11.8048,16.0388,13.2311,25.6192c2.4194,16.2525-11.6898,29.517-21.4766,42.7162
			c-10.2903,13.8784-16.7224,31.3583-14.2744,48.4612c2.4479,17.1029,15.1387,33.1832,32.1024,36.4598
			C1323.4291,400.9307,1330.8402,400.0726,1337.9009,398.3262z"/>
	</g>
	<g>
		<g>
			<path style="fill:#212D50;" d="M1366.1188,144.6882c-1.9321,18.9227-9.2032,36.9102-12.2366,55.68
				c-2.6838,16.6071-3.7622,33.4158-4.7098,50.195c-1.9941,35.3088-3.4529,71.6379-18.8251,104.1709
				c-0.8203,1.7361,1.7653,3.2605,2.5905,1.5141c15.1099-31.9778,17.1016-67.4777,19.0413-102.2285
				c1.0175-18.2289,2.0359-36.5186,5.075-54.5458c3.1119-18.4591,10.1602-36.1322,12.0648-54.7858
				C1369.3147,142.7694,1366.3132,142.7831,1366.1188,144.6882L1366.1188,144.6882z"/>
		</g>
	</g>
	<g>
		<g>
			<path style="fill:#212D50;" d="M1344.1869,187.6694c-2.4745-4.963-5.5754-9.5069-9.2571-13.6518
				c-1.2848-1.4464-3.4001,0.6815-2.1213,2.1213c3.516,3.9584,6.4266,8.3086,8.788,13.0446
				C1342.458,190.9115,1345.0466,189.3938,1344.1869,187.6694L1344.1869,187.6694z"/>
		</g>
	</g>
	<g>
		<g>
			<path style="fill:#212D50;" d="M1336.3512,208.6971c-4.2898-4.1579-8.9783-7.8287-14.0408-10.9999
				c-1.6409-1.0279-3.1483,1.5667-1.5142,2.5904c4.851,3.0387,9.3239,6.5474,13.4336,10.5308
				C1335.6168,212.1628,1337.7406,210.0438,1336.3512,208.6971L1336.3512,208.6971z"/>
		</g>
	</g>
	<g>
		<g>
			<path style="fill:#212D50;" d="M1334.5563,232.1165c-5.2622-0.4297-10.5244-0.8594-15.7866-1.289
				c-1.9243-0.1571-1.9139,2.8437,0,3c5.2622,0.4297,10.5244,0.8594,15.7866,1.289
				C1336.4806,235.2737,1336.4703,232.2728,1334.5563,232.1165L1334.5563,232.1165z"/>
		</g>
	</g>
	<g>
		<g>
			<path style="fill:#212D50;" d="M1381.8646,170.9695c-4.5359,2.4837-8.7185,5.4871-12.5408,8.9689
				c-1.4304,1.3029,0.6959,3.4197,2.1212,2.1213c3.6384-3.3142,7.6183-6.1368,11.9337-8.4998
				C1385.0726,172.6324,1383.5605,170.0409,1381.8646,170.9695L1381.8646,170.9695z"/>
		</g>
	</g>
	<g>
		<g>
			<path style="fill:#212D50;" d="M1375.5693,202.3379c4.4442-0.3335,8.8884-0.667,13.3326-1.0005c1.9133-0.1436,1.929-3.1448,0-3
				c-4.4442,0.3335-8.8884,0.667-13.3326,1.0005C1373.656,199.4815,1373.6404,202.4827,1375.5693,202.3379L1375.5693,202.3379z"/>
		</g>
	</g>
	<g>
		<g>
			<path style="fill:#212D50;" d="M1363.1565,219.1818c4.5436,2.1369,9.3368,2.68,14.2365,1.5525
				c1.8807-0.4328,1.0847-3.326-0.7975-2.8928c-4.0656,0.9356-8.1431,0.5286-11.9248-1.2501
				C1362.9336,215.7744,1361.4088,218.3598,1363.1565,219.1818L1363.1565,219.1818z"/>
		</g>
	</g>
	<g>
		<g>
			<path style="fill:#212D50;" d="M1325.3766,314.9254c-0.4302-3.3923-2.2085-6.2943-5.1659-8.0652
				c-1.6604-0.9943-3.1707,1.5985-1.5142,2.5904c1.9664,1.1775,3.3882,3.1736,3.6801,5.4748
				C1322.6162,316.8148,1325.6193,316.8387,1325.3766,314.9254L1325.3766,314.9254z"/>
		</g>
	</g>
	<g>
		<g>
			<path style="fill:#212D50;" d="M1321.6368,331.8048c-2.9698-2.8743-6.1849-5.4587-9.621-7.7548
				c-1.6097-1.0757-3.1134,1.5218-1.5142,2.5904c3.2273,2.1566,6.2251,4.5867,9.0138,7.2857
				C1320.9034,335.2694,1323.0273,333.1505,1321.6368,331.8048L1321.6368,331.8048z"/>
		</g>
	</g>
	<g>
		<g>
			<path style="fill:#212D50;" d="M1312.7703,349.9517c-3.4298-0.5152-6.8595-1.0305-10.2892-1.5457
				c-1.8887-0.2837-2.7032,2.6065-0.7975,2.8929c3.4297,0.5152,6.8594,1.0304,10.2892,1.5457
				C1313.8613,353.1282,1314.676,350.238,1312.7703,349.9517L1312.7703,349.9517z"/>
		</g>
	</g>
	<g>
		<g>
			<path style="fill:#212D50;" d="M1371.7952,290.5933c-2.2974,2.4166-5.0237,4.3157-8.1317,5.5401
				c-1.7758,0.6996-1.0023,3.6019,0.7975,2.8929c3.6014-1.4188,6.7839-3.5014,9.4554-6.3116
				C1375.2465,291.3155,1373.1287,289.1906,1371.7952,290.5933L1371.7952,290.5933z"/>
		</g>
	</g>
	<g>
		<g>
			<path style="fill:#212D50;" d="M1377.118,309.84c-3.6476,4.2411-8.4386,6.8163-13.9749,7.5694
				c-1.9043,0.259-1.0934,3.15,0.7976,2.8928c5.9915-0.8149,11.358-3.7591,15.2986-8.3409
				C1380.4923,310.5045,1378.3796,308.3732,1377.118,309.84L1377.118,309.84z"/>
		</g>
	</g>
	<g>
		<g>
			<path style="fill:#212D50;" d="M1377.0077,337.8686c-6.5258,1.9607-13.1685,1.6672-19.4441-1.0434
				c-1.7539-0.7576-3.2836,1.8261-1.5142,2.5904c7.0271,3.0352,14.406,3.5541,21.7557,1.3458
				C1379.6495,340.2073,1378.8638,337.3109,1377.0077,337.8686L1377.0077,337.8686z"/>
		</g>
	</g>
</g>
<g>
	<g>
		<path style="fill:#9B6FEF;" d="M540.6258,392.1906c17.5961,8.5309,41.803,6.7549,59.897,2.5767
			c5.5797-1.2884,11.1873-2.7368,16.2565-5.4006c5.9323-3.1173,10.89-7.7708,15.7675-12.3663
			c13.7797-12.9829,21.3976-21.1413,21.8694-40.6001c0.3878-15.9957-6.0671-32.2381-18.7053-42.3837
			c-6.9234-5.5579-15.434-9.4478-20.6282-16.6479c-12.0263-16.6707-0.3689-39.2007,5.733-58.83
			c15.0678-48.4719-12.4245-106.2361-59.545-125.1101c5.1744,15.3191-2.3732,32.1862-12.7002,44.6282
			s-23.5151,22.4396-32.7276,35.7279c-18.1668,26.2041-17.2583,64.1207,2.1427,89.4246
			c7.7667,10.1298,18.6401,19.5912,19.0707,32.3485c0.4974,14.7362-13.1154,25.6759-19.1061,39.1486
			c-8.7057,19.5788,1.1941,44.8274,19.1917,55.6045C538.2703,390.9865,539.4328,391.6122,540.6258,392.1906z"/>
	</g>
	<g>
		<g>
			<path style="fill:#212D50;" d="M574.6154,145.2774c10.8802,26.914,0.0214,55.5442-5.0205,82.4933
				c-2.384,12.7422-3.7327,25.7751-1.6269,38.6559c2.4833,15.1894,9.0823,29.2465,13.2998,43.9608
				c4.5552,15.8927,6.0318,34.0185-3.7405,48.3084c-1.0926,1.5977,1.506,3.0999,2.5904,1.5142
				c17.5774-25.7031,1.0673-56.3555-6.4283-82.3456c-4.4245-15.3414-4.4673-30.4436-1.7779-46.0923
				c2.4792-14.4254,6.5247-28.5379,8.8053-43.0005c2.3542-14.9299,2.5366-30.0799-3.2086-44.2915
				C576.7939,142.7129,573.8907,143.485,574.6154,145.2774L574.6154,145.2774z"/>
		</g>
	</g>
	<g>
		<g>
			<path style="fill:#212D50;" d="M557.4277,191.2946c-3.5203-3.3907-6.2827-7.3696-8.1321-11.9005
				c-0.7198-1.7637-3.6232-0.992-2.8928,0.7975c2.0503,5.0232,4.9916,9.4564,8.9036,13.2243
				C556.6973,194.7557,558.8215,192.6371,557.4277,191.2946L557.4277,191.2946z"/>
		</g>
	</g>
	<g>
		<g>
			<path style="fill:#212D50;" d="M545.7737,211.3205c-3.5229,1.145-7.1593,1.0803-10.5821-0.3988
				c-1.7538-0.7579-3.2835,1.8258-1.5142,2.5904c4.1678,1.801,8.5536,2.1118,12.8937,0.7012
				C548.3995,213.6191,547.6172,210.7213,545.7737,211.3205L545.7737,211.3205z"/>
		</g>
	</g>
	<g>
		<g>
			<path style="fill:#212D50;" d="M545.6758,242.7573c-3.1111,4.1044-7.4205,6.9563-12.3638,8.346
				c-1.8558,0.5217-1.0673,3.4171,0.7975,2.8928c5.7557-1.6181,10.5541-4.972,14.1567-9.7247
				C549.4324,242.733,546.8286,241.2366,545.6758,242.7573L545.6758,242.7573z"/>
		</g>
	</g>
	<g>
		<g>
			<path style="fill:#212D50;" d="M598.7965,175.749c-2.4196,3.5896-5.6544,6.3768-9.5124,8.3258
				c-1.7236,0.8707-0.2067,3.4597,1.5142,2.5904c4.3195-2.1821,7.8874-5.3946,10.5886-9.4021
				C602.4689,175.6579,599.871,174.1548,598.7965,175.749L598.7965,175.749z"/>
		</g>
	</g>
	<g>
		<g>
			<path style="fill:#212D50;" d="M603.6498,203.593c-3.6628,2.7298-7.7921,4.1411-12.371,4.1275c-1.9305-0.0057-1.9333,2.9942,0,3
				c5.0535,0.015,9.8278-1.5132,13.8851-4.5371C606.6943,205.0428,605.2002,202.4375,603.6498,203.593L603.6498,203.593z"/>
		</g>
	</g>
	<g>
		<g>
			<path style="fill:#212D50;" d="M598.2448,235.144c-4.1434-0.0721-7.7521-1.8139-10.4642-4.9292
				c-1.27-1.4588-3.3844,0.6705-2.1213,2.1213c3.2082,3.685,7.7117,5.7231,12.5856,5.8078
				C600.176,238.1776,600.1763,235.1776,598.2448,235.144L598.2448,235.144z"/>
		</g>
	</g>
	<g>
		<g>
			<path style="fill:#212D50;" d="M567.7902,312.7332c-6.1973-1.6-11.8312-4.3856-16.808-8.4171
				c-1.4872-1.2047-3.6226,0.9052-2.1213,2.1213c5.3824,4.36,11.4218,7.4562,18.1319,9.1886
				C568.8632,316.109,569.6611,313.2162,567.7902,312.7332L567.7902,312.7332z"/>
		</g>
	</g>
	<g>
		<g>
			<path style="fill:#212D50;" d="M560.1371,331.1854c-5.1226,0.7156-10.2451,1.4312-15.3676,2.1467
				c-1.9039,0.266-1.0937,3.157,0.7975,2.8928c5.1225-0.7156,10.2451-1.4311,15.3676-2.1467
				C562.8385,333.8123,562.0283,330.9212,560.1371,331.1854L560.1371,331.1854z"/>
		</g>
	</g>
	<g>
		<g>
			<path style="fill:#212D50;" d="M562.5748,353.837c-4.7335,1.9278-9.467,3.8556-14.2006,5.7834
				c-1.7645,0.7186-0.9927,3.6219,0.7975,2.8928c4.7335-1.9278,9.467-3.8556,14.2006-5.7834
				C565.1367,356.0112,564.3649,353.1079,562.5748,353.837L562.5748,353.837z"/>
		</g>
	</g>
	<g>
		<g>
			<path style="fill:#212D50;" d="M607.4427,299.6047c-3.6652,2.5869-7.3304,5.1738-10.9955,7.7607
				c-1.5651,1.1046-0.0679,3.7071,1.5142,2.5904c3.6652-2.5869,7.3304-5.1738,10.9955-7.7607
				C610.5219,301.0905,609.0248,298.4881,607.4427,299.6047L607.4427,299.6047z"/>
		</g>
	</g>
	<g>
		<g>
			<path style="fill:#212D50;" d="M610.9586,323.2614c-3.9636,1.9034-7.9271,3.8068-11.8906,5.7101
				c-1.7397,0.8355-0.2198,3.4231,1.5142,2.5904c3.9635-1.9034,7.927-3.8068,11.8906-5.7101
				C614.2124,325.0164,612.6924,322.4288,610.9586,323.2614L610.9586,323.2614z"/>
		</g>
	</g>
	<g>
		<g>
			<path style="fill:#212D50;" d="M610.1518,357.3223c-5.4681-0.6943-10.3149-3.1787-14.1774-7.0848
				c-1.3596-1.3749-3.4808,0.7465-2.1213,2.1213c4.4556,4.5058,10.0289,7.1674,16.2988,7.9635
				C612.062,360.5648,612.0443,357.5626,610.1518,357.3223L610.1518,357.3223z"/>
		</g>
	</g>
</g>
</svg>
