<svg xmlns="http://www.w3.org/2000/svg" viewBox="0 0 97.752 91.24">
  <path d="M78.0348 72.4131c1.6205-6.3334 2.0886-12.9598 1.3747-19.4581-.5705-5.1932-1.8844-10.2762-3.3748-15.2835-1.6676-5.6025-3.5904-11.1996-6.7283-16.1314s-7.6176-9.1961-13.1411-11.1092c-.7641-.2646-1.6443-.4741-2.3498-.0789-.566.3171-.8713.9449-1.1342 1.5381a69.6374 69.6374 0 0 0-3.9334 11.497c-.2058-7.3298-4.8091-14.3656-11.443-17.4898-.8641-.4069-1.7795-.7564-2.7341-.7856-1.0506-.0321-2.0795.3279-3.0067.8231-4.7444 2.5339-6.8701 9.0412-4.5365 13.8872-2.8686-2.3517-6.4493-3.8228-10.1426-4.1672-3.1909-.2975-6.6413.3307-8.9803 2.5215-3.1797 2.9782-3.4289 8.2311-1.3833 12.0776s5.9229 6.4259 9.9922 7.9817c4.0693 1.5558 8.4101 2.2347 12.6436 3.2634a157.8338 157.8338 0 0 0-11.9823 5.2824c-1.4548.7149-3.0854 1.7115-3.2416 3.3249-.0948.9788.4045 1.911.9422 2.7343 2.9404 4.502 7.4038 7.753 11.7997 10.8496 3.9421 2.7768 7.9314 5.5251 12.265 7.6396 12.0224 5.866 26.5179 6.4295 38.9594 1.5146" fill="#71b1fc"/>
  <path d="M42.6537 32.4928c2.115 4.675 4.8323 9.0664 7.8909 13.1771 3.0583 4.1165 6.5852 7.8663 10.3529 11.2955 3.767 3.4352 7.6493 6.6595 11.505 9.8885.9844.7834 1.9538 1.5833 2.8924 2.4258a51.2837 51.2837 0 0 1 2.8336 2.5205 43.6043 43.6043 0 0 1 2.7626 2.6707c.9053.9264 1.8212 1.8498 2.6428 2.9503l.038.0509c.5176.6934.3752 1.6751-.3182 2.1928-.382.2852-.8582.3684-1.2894.2712-1.3558-.3127-2.6174-.8025-3.8895-1.2893a46.3395 46.3395 0 0 1-3.6163-1.7964 56.8632 56.8632 0 0 1-3.3854-2.1665c-1.0791-.7907-2.1276-1.6238-3.1607-2.4738-4.1019-3.4422-7.7183-7.4352-10.9323-11.6869-3.2133-4.2578-6.1502-8.6647-8.9807-13.1007-2.8303-4.4417-5.427-8.9991-7.9919-13.5937-.4001-.715-.1449-1.619.5701-2.0192s1.619-.1449 2.0192.5701c.0199.0359.0401.0764.0569.1131z" fill="#6610ef"/>
</svg>
