<?xml version="1.0" encoding="utf-8"?>
<!-- Generator: Adobe Illustrator 23.0.1, SVG Export Plug-In . SVG Version: 6.00 Build 0)  -->
<svg version="1.1" id="Layer_1" xmlns="http://www.w3.org/2000/svg" xmlns:xlink="http://www.w3.org/1999/xlink" x="0px" y="0px"
	 viewBox="0 0 69.9893 72.9957" style="enable-background:new 0 0 69.9893 72.9957;" xml:space="preserve">
<g>
	<g>
		<path style="fill:#FAA76C;" d="M14.2773,59.8732c4.8063,0.7489,9.7474,0.6234,14.5095-0.3684
			c3.8057-0.7926,7.4767-2.128,11.0792-3.5887c4.0307-1.6343,8.039-3.4573,11.4681-6.1328
			c3.4291-2.6755,6.2682-6.2972,7.2916-10.5245c0.1416-0.5848,0.2339-1.2516-0.109-1.746c-0.2752-0.3966-0.762-0.578-1.22-0.7304
			c-2.8633-0.9525-5.8101-1.654-8.7955-2.094c5.4141-0.6748,10.2971-4.5856,12.1383-9.7215c0.2398-0.669,0.4334-1.3719,0.387-2.081
			c-0.0511-0.7804-0.3911-1.5168-0.8239-2.1682c-2.2148-3.3333-7.1859-4.444-10.6088-2.3703
			c1.5373-2.2922,2.3718-5.049,2.3636-7.809c-0.007-2.3845-0.7182-4.8953-2.5075-6.4715c-2.4324-2.1428-6.3407-1.953-9.0438-0.1638
			c-2.7031,1.7892-4.3372,4.8447-5.1995,7.9695c-0.8623,3.1248-1.0558,6.3882-1.516,9.5969
			c-1.4703-2.897-3.0609-5.733-4.7663-8.4982c-0.6331-1.0266-1.4875-2.1632-2.6936-2.164c-0.7317-0.0005-1.3865,0.4358-1.958,0.8927
			c-3.1248,2.4986-5.2147,6.036-7.1948,9.5126c-1.7757,3.1176-3.5269,6.2681-4.7842,9.6284
			c-3.4879,9.3223-2.8723,20.0985,1.6545,28.963"/>
	</g>
	<g>
		<path style="fill:#6610EF;" d="M41.5253,31.1443c-3.3275,1.8433-6.3636,4.1821-9.1454,6.7654
			c-2.7875,2.5836-5.2224,5.53-7.3813,8.6254c-2.165,3.0952-4.1754,6.2249-6.2679,9.2767c-0.5022,0.778-1.0223,1.5424-1.5878,2.2803
			c-0.5306,0.7597-1.1019,1.4959-1.7168,2.2123c-0.5808,0.7361-1.2137,1.4474-1.903,2.1384
			c-0.6648,0.7043-1.3707,1.395-2.2236,2.0291l-0.057,0.0423c-0.7212,0.5361-1.7404,0.3861-2.2765-0.3351
			c-0.2291-0.3083-0.3329-0.6725-0.3202-1.0288c0.0386-1.0793,0.2241-2.1021,0.4509-3.1111
			c0.2621-0.9899,0.5804-1.9596,0.9509-2.9044c0.3945-0.9303,0.8326-1.8408,1.3115-2.7278c0.5004-0.8729,1.046-1.7193,1.6097-2.552
			c2.2812-3.3173,5.0822-6.2559,8.1129-8.8789c3.0369-2.6229,6.1825-5.045,9.3098-7.4324c3.1329-2.3877,6.3459-4.6224,9.5504-6.9058
			c0.6669-0.4771,1.5942-0.3233,2.0713,0.3436c0.4772,0.6669,0.3234,1.5943-0.3435,2.0714
			C41.6241,31.0858,41.5733,31.1175,41.5253,31.1443z"/>
	</g>
</g>
</svg>
