<svg id="Layer_1" xmlns="http://www.w3.org/2000/svg" viewBox="0 0 1775.3959 339.9411">
  <style>
    .st0{fill:#a5cafa}.st2{fill:#325ada}.st3{fill:#ff9c6e}.st6{fill:#6610ef}.st9{fill:#f09a82}.st11{fill:#71b1fc}.st38{fill:#9a6fee}.st63{fill:#1856c2}.st64{fill:#6536c9}.st65{fill:#325ad9}
  </style>
  <path class="st63" d="M1158.6649 211.0185l43.7579 39.7157c9.1049 8.2639 18.3563 16.7061 24.5406 27.3336 10.4049 17.8803 11.244 40.4315 23.228 57.2942 9.7708 13.7484 25.5002 21.7127 38.9186 31.9319 15.8628 12.0808 28.734 27.5775 41.4567 42.9302 6.3468 7.6587 12.7708 15.4397 16.8457 24.5133 3.4586 7.7013 5.105 16.0737 6.6226 24.3784 11.4363 62.5831 17.0647 126.2264 16.7894 189.8452-14.6315-72.9641-65.4795-133.3262-120.7559-183.1495-11.4272-10.2999-23.282-20.4889-31.6138-33.4213-6.5295-10.1349-10.6591-21.6039-14.4174-33.0593a658.7343 658.7343 0 0 1-22.7916-90.8333c-2.9767-16.8685-5.302-33.8854-9.6226-50.4607-5.912-22.6807-15.5591-44.3833-28.4349-63.9685"/>
  <path class="st9" d="M1142.5386 192.071c-6.452 27.8001-3.6033 56.8559-6.5455 85.2429-3.6982 35.6811-16.5624 70.5709-14.4814 106.3828 3.0754 52.9274 38.946 99.3438 82.4609 129.6295 23.4144 16.296 49.2028 28.8964 72.9886 44.6453 37.9532 25.1293 70.5669 58.2817 95.0709 96.6416 7.8671-13.0651 3.7271-29.7654-.8978-44.2981-15.0707-47.3557-33.8337-95.165-68.1503-131.1103-24.0695-25.2118-55.0474-43.7417-75.788-71.756-22.8921-30.9203-30.9089-70.0088-39.3333-107.5473s-18.7197-76.5572-44.7291-104.9055"/>
  <path class="st64" d="M263.6544 465.6574c-13.7776-47.8784-18.1962-101.2139 3.4904-146.0677 21.1192-43.6802 65.4452-76.5511 72.9421-124.4862 2.0536 12.9109 13.5716 22.1444 18.57 34.2242 4.0278 9.7339 3.5738 20.6821 2.6148 31.1727-3.4388 37.6147-13.028 75.722-35.3588 106.1856-11.6396 15.8787-26.3776 29.2056-39.0473 44.2751-12.6697 15.0696-23.5563 32.7539-25.1842 52.3744"/>
  <path class="st0" d="M429.3712 264.294c-6.3723 18.8635-10.7812 38.3294-16.5616 57.3826-11.0413 36.3936-27.6185 71.994-54.4044 98.9926-26.7859 26.9986-64.9819 44.4257-102.7327 39.8121 11.2809-21.9666 22.5947-43.9893 36.316-64.5201 37.1797-55.631 90.4745-98.1655 142.8882-139.7579"/>
  <path class="st9" d="M112.0434 377.4026c4.2386-18.1992 8.5109-36.5032 15.7971-53.7103 7.2862-17.2072 17.8144-33.4301 32.6328-44.8139 9.1222-7.0079 19.743-12.0552 30.9376-14.7024 1.9043-.4503 3.9303-.8274 5.7888-.215 4.9637 1.6357 5.2827 8.4438 4.6476 13.6312l-3.3264 27.1663c5.6073-12.055 12.5163-25.3075 25.1666-29.3982 9.763-3.157 20.5392.1847 29.3402 5.4594 1.5143.9076 3.1535 2.1259 3.2773 3.887.0893 1.2714-.6583 2.4352-1.3956 3.4749-8.7255 12.3047-20.4752 22.4484-33.9215 29.285 13.5974-8.6525 33.8533-4.1103 42.4541 9.52 3.7691 5.9732 5.2375 14.1115 1.3082 19.9806-2.0948 3.1288-5.4303 5.2082-8.8473 6.7898-9.0609 4.1938-19.4376 5.4879-29.251 3.6479l30.6712 15.2071c.9381.4651 1.9498 1.0061 2.3533 1.9724.3904.9349.097 2.0027-.2368 2.9593-5.801 16.6182-22.7157 27.4722-40.0557 30.4961s-35.1297-.534-52.1176-5.1411c-18.5107-5.0201-36.8946-11.4076-52.9346-21.9225"/>
  <path class="st6" d="M213.5137 339.4569c-9.6726 6.1613-19.5591 11.9624-29.7737 17.1896-10.2117 5.2213-20.6719 10.0294-31.4402 14.1867-10.7639 4.157-21.9062 7.4568-33.2871 9.5868-2.8516.4921-5.7087.9583-8.573 1.364a227.532 227.532 0 0 1-8.6455.7866 184.045 184.045 0 0 1-8.6838.1402c-2.9019-.1519-5.7947-.2947-8.6819-.6711-.9592-.1251-1.6355-1.0041-1.5103-1.9633.0947-.7284.6245-1.2936 1.2939-1.4688l.0642-.0162c2.7964-.7282 5.5869-1.2229 8.3684-1.7267a178.039 178.039 0 0 1 8.3184-1.5153 215.6486 215.6486 0 0 1 8.2886-1.4614c2.7515-.5387 5.5095-1.0164 8.2734-1.4689 11.0139-2.0336 21.9785-4.4356 32.8386-7.4355 10.8562-2.9998 21.5386-6.8039 31.7983-11.5709 10.2566-4.761 20.1704-10.3248 29.4329-16.8251.7805-.5477 1.8572-.359 2.4048.4214s.3591 1.857-.4214 2.4047a1.91 1.91 0 0 1-.0646.0432z"/>
  <path class="st11" d="M230.9888 141.2243c7.9969-1.2241 15.7585 4.9174 18.6694 12.4657 2.9109 7.5482 1.9349 16.0385-.0706 23.876-1.0679 4.1734-2.498 8.4214-5.4377 11.5704-6.1551 6.5932-17.5738 6.0382-24.5812.3592s-10.0647-15.103-10.2501-24.1208c-.1109-5.3945.7071-10.8958 3.1209-15.7215s6.5438-8.9236 11.6724-10.6001M182.5395 177.6345c4.5971.8658 9.1748 2.159 13.2088 4.5275 4.034 2.3685 7.5095 5.9022 9.1401 10.2867 1.3967 3.7556 1.3764 7.8818 1.0572 11.8759-.3608 4.5146-1.1501 9.1789-3.747 12.8894-4.0578 5.798-12.1778 8.0395-18.9404 5.9538-6.7625-2.0858-11.9951-7.97-14.1885-14.6984s-1.5765-14.1638.7736-20.8391c1.5188-4.3139 3.9129-8.5616 7.8157-10.946M100.879 260.4471c5.8705-1.3966 12.2303 1.2797 16.2284 5.7994 3.9982 4.5197 5.8719 10.6037 6.3312 16.6205.4592 6.0168-.3839 12.0484-1.2251 18.0238-.5127 3.6425-1.4022 7.837-4.6877 9.4912-1.2407.6247-2.6618.7769-4.0497.835-6.8301.2856-13.7335-1.5188-19.5504-5.1098-2.0165-1.2449-3.9333-2.7283-5.3038-4.6617-2.5303-3.5697-2.9077-8.2007-2.9499-12.576a115.5265 115.5265 0 0 1 .6908-13.7754c.3786-3.4322.9405-6.9353 2.6407-9.9407 1.7001-3.0054 4.764-5.4514 8.2162-5.5224M293.3601 179.2197c5.853 1.7198 11.0335 5.9126 13.507 11.4891s2.0184 12.4661-1.5475 17.4158c-1.6507 2.2912-3.8752 4.1153-6.2425 5.655-9.5296 6.1981-22.5714 7.7662-32.2781 1.8494-2.6086-1.5901-4.9506-3.7056-6.4621-6.3605-1.1396-2.0016-1.7807-4.2608-2.073-6.5455-1.0607-8.2914 2.7432-17.0271 9.5356-21.899s16.2866-5.674 23.8002-2.0109M245.8452 224.9603c7.061.6966 13.9906 3.6111 18.9872 8.6488 4.9966 5.0376 7.8936 12.2602 7.142 19.3156-.7516 7.0554-5.3702 13.7161-11.9569 16.354-3.3304 1.3338-7 1.6442-10.5794 1.4025-8.9173-.602-17.953-5.0497-22.2128-12.9068-3.4792-6.4174-3.3439-14.5434-.0566-21.0612s9.5274-11.3697 16.5364-13.41M160.3981 305.9578c6.3177.7453 12.7536 1.5228 18.5412 4.1633s10.928 7.4954 12.2605 13.7158c.5401 2.5214.4375 5.1346.208 7.703-.2384 2.6685-.6237 5.37-1.738 7.8064-3.4347 7.5102-12.6107 10.4036-20.8441 11.0448-8.5997.6696-18.1213-.5899-24.0576-6.8479-5.2715-5.5572-6.496-14.3133-3.7305-21.4563 2.7656-7.143 9.1064-12.5981 16.3296-15.1468M193.5629 271.6099c8.8871-3.7121 19.5525-3.9211 27.8451.9771s13.3847 15.3978 10.6093 24.6205c-.568 1.8874-1.4438 3.7003-2.7157 5.2061-1.9732 2.3361-4.7727 3.8047-7.5809 5.0152-8.6273 3.7188-18.9967 5.4011-27.1639.7581-5.969-3.3933-9.9369-10.0558-10.0772-16.9205s3.5521-13.6837 9.3775-17.318M143.8955 217.4061c7.497.9973 14.5237 5.1467 19.0173 11.2301 1.3475 1.8243 2.491 3.8551 2.922 6.0817.3168 1.6364.2391 3.3202.1588 4.985-.3008 6.2334-.7881 12.9249-4.7095 17.7797-2.9667 3.6729-7.547 5.7453-12.1844 6.6322-2.6531.5074-5.4586.6566-8.0029-.2506-2.8794-1.0267-5.1244-3.2849-7.1971-5.532-3.3675-3.6508-6.6614-7.6437-7.8748-12.4598-.8979-3.5639-.5837-7.3077-.2349-10.9664.4156-4.3587.9184-8.8618 3.1114-12.6514s6.5514-6.6851 10.8381-5.7939"/>
  <path class="st3" d="M234.986 200.1421c-20.6352 23.7524-47.4485 41.0064-68.6387 64.2235-21.4831 23.5381-41.3346 49.3072-59.1904 75.6886-10.3576 15.303-19.8305 31.1826-28.0323 47.747-2.945 5.9477 5.9761 11.1958 8.9339 5.2221 14.2132-28.7051 32.2948-55.251 51.9074-80.512 9.8759-12.7201 19.9593-25.366 30.6377-37.425 10.2455-11.57 21.6171-21.8542 33.3818-31.8444 13.3382-11.3264 26.8085-22.5371 38.3166-35.7837 4.3487-5.0056-2.9394-12.3538-7.316-7.3161z"/>
  <path class="st65" d="M59.3419 375.2713c14.0675-2.7851 27.6245-8.128 39.8098-15.6891 9.7379-6.0425 18.5545-13.452 27.0542-21.1392 9.5101-8.601 18.7679-17.7018 25.5594-28.5782s10.9927-23.7764 9.553-36.5179c-.1992-1.7625-.6175-3.7027-2.0671-4.725-1.1631-.8202-2.6945-.8304-4.1171-.7893a152.7522 152.7522 0 0 0-26.475 3.0931c14.3115-7.3423 23.8807-23.1093 23.7872-39.1941-.0122-2.0951-.1866-4.2374-1.032-6.1543-.9304-2.1096-2.6165-3.8053-4.4737-5.1717-9.5036-6.9921-24.3931-5.0424-31.7759 4.161 1.9401-7.9021 1.4639-16.3804-1.3489-24.0156-2.4302-6.5966-6.9379-12.8307-13.4867-15.387-8.9025-3.4751-19.5342 1.0016-25.2113 8.6894-5.6771 7.6877-7.1135 17.8015-6.3425 27.3271.771 9.5255 3.5344 18.7586 5.5038 28.1102a346.2695 346.2695 0 0 0-21.7911-18.7161c-2.7912-2.2029-6.3063-4.487-9.6473-3.2697-2.0268.7385-3.3993 2.6085-4.5199 4.4517-6.1277 10.0787-8.339 21.988-10.3082 33.6177-1.7659 10.429-3.4305 20.9243-3.5151 31.5014-.2346 29.3431 12.3647 58.5641 33.8629 78.5367"/>
  <path class="st6" d="M103.6646 266.5477c-7.1138 8.7999-13.3376 18.3134-18.7837 28.2232-5.4524 9.9126-9.9727 20.3121-13.7024 30.9397-3.73 10.6316-6.8706 21.408-9.647 32.2583-.6392 2.7269-1.303 5.4462-2.0271 8.1546a215.7233 215.7233 0 0 1-2.0205 8.1703 178.2406 178.2406 0 0 1-2.0764 8.1965c-.6914 2.7408-1.3743 5.4914-2.2905 8.2318l-.0208.0616c-.3066.9174-1.2991 1.4125-2.2166 1.1057-.6965-.2329-1.1494-.8626-1.1929-1.5532-.1794-2.906-.1257-5.8018-.0803-8.7074.1743-2.8867.4185-5.7737.7292-8.6543a227.561 227.561 0 0 1 1.3716-8.5722c.5991-2.83 1.2581-5.6491 1.9426-8.4605 2.8975-11.21 6.9458-22.1028 11.8237-32.5599 4.8787-10.4613 10.3855-20.5711 16.2878-30.4048 5.9084-9.8362 12.3672-19.3063 19.1707-28.5385.5654-.7677 1.646-.9316 2.4138-.3663.7676.5654.9316 1.646.3662 2.4137a1.7064 1.7064 0 0 1-.0474.0617z"/>
  <path class="st0" d="M91.6314 152.8031c-14.1001 12.604-26.5371 27.046-37.4141 42.4945-10.9309 15.4311-19.8975 32.1704-27.3064 49.4252-7.3975 17.278-13.4873 34.9552-18.8069 52.8095-.6045 2.2498-1.2153 4.4972-1.8652 6.7343-.6248 2.244-1.2954 4.4759-1.9805 6.7061a302.632 302.632 0 0 1-3.7915 13.4895c-1.1516 4.5288-2.4363 9.0453-3.8589 13.5669-1.2231 4.5531-2.5444 9.1129-4.2358 13.6753l-.0579.1559c-.6626 1.7875-2.6489 2.6993-4.4363 2.0367-1.2942-.4798-2.1289-1.6569-2.2397-2.9465-.4133-4.9026-.4568-9.8077-.4019-14.7196.28-4.8763.6987-9.7575 1.2502-14.6265a327.875 327.875 0 0 1 2.5684-14.4483c.5793-2.3749 1.1726-4.748 1.812-7.1091.6147-2.3679 1.2671-4.7257 1.9277-7.0807 5.6008-18.759 13.6306-36.7369 23.2927-53.6447 9.6514-16.9307 20.6865-32.9111 32.4468-48.2191 11.8125-15.2895 24.7598-29.6051 38.446-43.227 1.3259-1.3212 3.4719-1.3174 4.7932.0085 1.321 1.3259 1.3174 3.4719-.0085 4.7931a4.0396 4.0396 0 0 1-.1334.126z"/>
  <path class="st6" d="M123.49 101.104c6.3569-6.7067 19.2841-4.7472 23.3679 3.5422.6591 1.3378 1.1288 2.807 2.1264 3.9156 1.1299 1.2556 2.7799 1.8783 4.2252 2.7525 6.51 3.9377 8.1018 14.0582 3.1149 19.8042-2.1913 2.5248-5.5712 4.7139-5.472 8.0555.0733 2.4696 2.0883 4.3611 3.6424 6.2818 2.206 2.7263 3.6883 6.0329 4.2559 9.4938.7346 4.4791-1.1221 10.2546-5.633 10.7586-1.8267.2041-3.8343-.5164-5.4296.3965-1.8132 1.0377-2.0193 3.5223-3.0382 5.3461-1.6524 2.958-5.5618 4.0242-8.8878 3.3779-3.326-.6462-6.2119-2.6333-8.9897-4.5734-3.9488 8.9579-14.5947 15.705-23.652 11.9898-2.1806-.8945-4.1122-2.3111-6.2708-3.2576-3.8747-1.6989-8.3643-1.8356-12.0177-3.9694-5.7231-3.3426-7.7556-11.7113-4.2031-17.3066-4.3566-1.8804-8.8064-4.0082-11.8318-7.6638-3.0253-3.6556-4.2102-9.2586-1.5242-13.1703.688-1.002 1.6309-1.9416 1.7293-3.1531.0876-1.0798-.5263-2.0727-.8948-3.0916-1.5191-4.2002 1.2156-8.7805 4.5371-11.7665 3.3216-2.986 7.399-5.2542 9.8906-8.9611 2.2445-3.3394 2.9418-7.4775 4.7869-11.053 1.8451-3.5756 5.735-6.7788 9.5856-5.6116 1.1485.3481 2.3272 1.069 3.4606.6743 1.2259-.4269 1.6669-1.8977 2.5055-2.8886 1.9785-2.3378 5.6826-1.6546 8.6136-.7665 2.9322.8885 5.9355 1.8127 8.3648 3.6796 2.4294 1.8669 4.1997 4.9086 3.6891 7.9296"/>
  <path class="st0" d="M123.1034 129.4634c-2.155-6.0035-9.5806-9.6603-15.5141-7.3192-5.9335 2.341-8.7859 10.5422-5.2563 15.8552 1.2674 1.9078 3.1286 3.3285 4.9541 4.7119 1.9359 1.467 4.0326 2.9953 6.4585 3.1177 2.874.145 5.5435-1.8152 6.9821-4.3075s1.8529-5.437 2.0384-8.3087"/>
  <path class="st6" d="M901.8987 243.6634c-6.3291 17.8217-10.3176 36.4589-12.4543 55.2311-2.1924 18.7828-2.0339 37.7719-.2612 56.4661 1.7939 18.7091 4.9265 37.1417 8.8203 55.3601.5483 2.2641 1.0898 4.5293 1.5925 6.804.5278 2.2687 1.0093 4.549 1.4778 6.8345a302.4569 302.4569 0 0 1 3.1414 13.6555c1.1611 4.5264 2.1997 9.1058 3.1194 13.7558 1.1101 4.5819 2.1372 9.2169 2.8408 14.0316l.0239.1646c.2759 1.8863-1.03 3.639-2.9163 3.9146-1.3657.1996-2.6626-.4332-3.3784-1.5116-2.7136-4.1039-5.104-8.3875-7.4111-12.7242-2.0925-4.4134-4.0659-8.8975-5.9167-13.4346a328.1316 328.1316 0 0 1-4.6746-13.9104c-.6304-2.3618-1.2478-4.7288-1.8188-7.1073-.5962-2.3726-1.1543-4.7546-1.7039-7.138-4.0806-19.1472-5.6553-38.7738-5.2842-58.2441.3503-19.4852 2.3711-38.8001 5.3503-57.8727 3.0339-19.0813 7.5308-37.8523 13.0088-56.3688.53-1.7952 2.4148-2.8209 4.2102-2.291 1.7952.53 2.8208 2.4149 2.291 4.2101a3.9604 3.9604 0 0 1-.0569.1747z"/>
  <path class="st6" d="M905.0643 183.0189c2.3623-8.9336 14.6459-13.4131 22.2045-8.0972 1.2199.8579 2.3366 1.9219 3.7436 2.4164 1.5936.56 3.3401.3152 5.0276.3893 7.601.3337 13.8509 8.4513 12.2302 15.885-.7122 3.2664-2.6285 6.8081-.939 9.6929 1.2486 2.132 3.9238 2.8256 6.2086 3.7658 3.2432 1.3346 6.1295 3.5254 8.2872 6.2902 2.7925 3.5783 3.9327 9.5368.2159 12.1422-1.5051 1.0551-3.6124 1.3855-4.5745 2.9516-1.0936 1.7801-.083 4.0592-.1025 6.1483-.0316 3.3881-2.9509 6.1983-6.1794 7.2262s-6.7138.668-10.0818.2976c.8304 9.7543-5.2762 20.7802-15.0057 21.8632-2.3425.2607-4.7168-.0562-7.0649.1484-4.2149.3672-8.2202 2.4001-12.4493 2.2796-6.6251-.1888-12.4216-6.5579-11.9873-13.1714-4.7248.439-9.65.7057-14.0577-1.0515-4.4078-1.7571-8.1343-6.1057-7.653-10.8264.1233-1.2092.5001-2.4859.0055-3.5961-.4409-.9896-1.4558-1.5665-2.2677-2.2838-3.3471-2.9574-3.1438-8.288-1.6609-12.5011 1.4829-4.2131 3.9733-8.1588 4.3821-12.6065.3683-4.0067-1.0042-7.9724-1.0997-11.9948-.0955-4.0224 1.782-8.6987 5.7207-9.5209 1.1748-.2453 2.5547-.1779 3.36-1.0677.871-.9624.5528-2.4646.8135-3.7363.6152-3.0002 4.1932-4.1769 7.1911-4.8031 2.9991-.6264 6.0778-1.2555 9.1048-.7822 3.027.4733 6.0392 2.2935 7.0398 5.1894"/>
  <path class="st0" d="M918.3242 208.0904c-4.77-4.2349-13.0396-3.883-17.1238 1.0166-4.0842 4.8996-2.6546 13.4641 2.9905 16.4339 2.0271 1.0664 4.3416 1.4206 6.6068 1.7592 2.4023.359 4.9751.6946 7.1625-.3612 2.5916-1.2509 3.9941-4.2511 4.0613-7.1281.0673-2.8769-.9813-5.6596-2.1955-8.2686"/>
  <path class="st2" d="M459.4146 256.6366c3.0235 48.3333-25.7892 89.6271-52.3974 127.2192-4.4353 6.2663 5.8844 12.2204 10.2807 6.0093 27.8337-39.3236 57.1809-82.7444 54.0229-133.2285-.476-7.6106-12.3857-7.6645-11.9062 0z"/>
  <path class="st9" d="M466.5645 250.4659c6.1219-11.6962 16.33-20.8482 27.5988-27.7251 5.4322-3.315 11.3497-6.2165 17.6999-6.6328 6.3502-.4164 13.2226 2.13 16.4623 7.6075 4.1451 7.0082.9825 16.5232-5.0782 21.9605s-14.2606 7.709-22.2007 9.5121c-12.1064 2.7492-24.8311 4.7908-36.8364 1.6294"/>
  <path class="st9" d="M462.8028 255.6519c-9.746-17.2122-13.8806-37.5435-11.6312-57.1951 1.0474-9.151 3.6967-18.5993 10.2193-25.1026 6.5226-6.5034 17.756-8.9269 25.095-3.3612 4.0274 3.0542 6.3099 7.975 7.1685 12.9561 1.616 9.3753-1.3046 18.9086-4.7432 27.779a228.1417 228.1417 0 0 1-21.6997 42.2742M458.6506 297.4716c-.0414-17.4981-6.7015-34.9015-18.3526-47.9567-3.6577-4.0985-7.8744-7.8366-12.9061-10.0408s-10.9814-2.7292-15.9995-.4943c-9.1412 4.0712-12.404 16.2367-9.3318 25.7602 3.0721 9.5236 10.8449 16.7463 18.9231 22.6522 9.7965 7.1621 20.5061 13.074 31.787 17.5472M444.8325 329.4391c-9.8488-15.261-24.489-27.3801-41.321-34.2053-2.4527-.9945-5.0327-1.8928-7.6759-1.7578-4.6906.2396-8.5498 3.6082-11.9989 6.796-1.945 1.7977-3.9451 3.6719-4.9812 6.1094-1.4454 3.4007-.7392 7.434 1.1069 10.6349 1.8461 3.2009 4.7065 5.6896 7.6873 7.8732 14.8285 10.8621 34.1152 15.4331 52.2413 12.3811M464.4497 347.0537c1.9053-11.205 6.7154-22.198 15.0801-29.8929 8.3648-7.6949 20.5766-11.6208 31.5036-8.4934 1.6728.4788 3.3583 1.149 4.5635 2.404 1.5267 1.5898 2.0574 3.8643 2.4771 6.0281.6296 3.2455 1.1482 6.5894.5634 9.8433-.892 4.9636-4.299 9.1897-8.3856 12.1447s-8.8457 4.8117-13.5468 6.6373l-18.8897 7.3355c-3.8829 1.5078-8.0716 3.0403-12.1182 2.0528"/>
  <path class="st38" d="M476.1223 184.0288c-6.2581-.9773-11.8949 1.6393-14.279 7.7158-1.8011 4.5908-2.4308 12.0516 1.0048 16.0089 4.2565 4.9027 11.5688 4.2478 15.9078-.2054 2.1075-2.1629 3.5566-4.9584 3.9751-7.9485.2233-1.5951.187-3.1808-.2411-4.7476-.1788-.6541-.4431-1.7674-.9021-2.2759-.7108-.7875.5314-.8784-.0991.7617l-1.531 2.6269.424-.4495c5.2556-5.5716-3.148-14.0068-8.419-8.419-2.1014 2.2277-2.925 5.1197-2.1197 8.1159.28.7479.5824 1.4868.9073 2.2165.4072.8891.4919 1.0294.254.4212-.1233.5165-.9033 1.2435-.9595 1.5813.1113-.6686 2.2522 1.6964 2.3858 1.5166.3999-.5383.0205-2.7634.1306-3.4872.088-.5784.2206-1.3858.5503-1.8585.323-.4631-.1157-.0863-.1544-.0923 3.1728.4955 6.403-.8095 7.3231-4.1579.7763-2.8253-.9625-6.824-4.1579-7.323zM508.9297 228.452c-4.95-1.9114-10.7751-1.2287-15.3449 1.3955-4.7608 2.7338-9.0617 8.4203-7.6994 14.1904 3.2329 13.6922 23.7341 4.1618 25.1537-6.0577.4418-3.1804-.7727-6.3929-4.1579-7.323-2.783-.7647-6.8778.9528-7.3231 4.1579-.2264 1.63-.7053 2.2165-2.2016 3.0714-.5802.3315-1.933.5431-2.346.9274-1.0058.9361 1.8181 3.3224 2.7063 2.9724.1043-.0411 1.0563-1.1319 1.1985-1.2392.6685-.5047 1.4043-.8229 2.201-1.0453 1.6716-.4666 3.0307-.1933 4.6481.4313 3.0001 1.1585 6.5317-1.2779 7.323-4.1579.9241-3.3624-1.1467-6.1605-4.1577-7.3232zM493.0778 318.8529c-5.2191.8297-9.8435 5.3461-9.5205 10.8387.3991 6.7855 7.8268 11.1992 13.7605 7.392 4.6947-3.0121 8.903-8.348 7.3925-14.2525-1.7357-6.7849-9.6613-9.0506-14.8361-4.5651-2.4308 2.107-2.1594 6.2596 0 8.419 2.4109 2.4109 5.9822 2.1122 8.419 0-1.4164 1.2278-4.6874 1.5663-5.123-.9888-.0688-.404.1254-.6464.1246-.9626-.3894.5973-.431.7026-.1248.316a12.1854 12.1854 0 0 1-.867.8921c-.2758.2617-1.3552 1.1812-1.343 1.1293.3192-1.3584 5.3937.2693 4.3047 2.9301-.3022.7384-1.1265.7686-.2304.5645-1.1608.2644.9975-.1981 1.2085-.2317 3.1778-.5052 4.9419-4.4702 4.1579-7.3231-.9299-3.3845-4.1357-4.6646-7.3229-4.1579zM421.7364 256.9138c-10.1467 6.6718-2.1245 24.5877 9.1219 24.1708 6.2075-.2301 10.4356-5.8464 9.147-11.8826-1.1326-5.3055-5.7384-9.6649-10.3566-12.1317-6.7565-3.6091-12.7776 6.6653-6.0093 10.2807 1.4799.7905 2.9296 1.7119 3.9722 3.0617.0394.0511.8098 1.2118.7493 1.241.4982-.2407.3968-2.0163 1.5018-2.3458.0256-.0076 1.3776-.1521 1.1432.1426-.0918.1154-.931-1.1286-.8772-1.0479-.4253-.6381-.7506-1.3635-1.0656-2.059-.7247-1.6004.5139-.3533-1.3175.8509 2.6835-1.7644 3.8195-5.2662 2.1357-8.145-1.5599-2.6671-5.4467-3.9098-8.1449-2.1357zM409.9846 306.3829c-5.7514-2.3552-13.2284 1.7727-14.8183 7.6153-1.8468 6.7867 4.4692 12.9107 10.698 14.0388 5.6839 1.0294 14.0127-.8327 15.4078-7.3837 1.3493-6.3359-5.7231-11.6971-10.7523-13.9838-2.9247-1.3299-6.4062-.837-8.145 2.1357-1.4949 2.5558-.8052 6.8078 2.1357 8.145 1.3226.6014 4.9474 2.247 5.2806 3.7031v-3.1652c.3378-1.9553 1.542-.8239-.2099-1.0191-.8222-.0916-1.5554-.3016-2.3392-.4318.2049.034-.7284-.4377-.6049-.4709.2052-.0552-.5021 2.0916-.4761 2.2345.12.6614-.4499-.1269.4367-.1322.0946-.0006-1.6788-.5829.2216.1953 2.9766 1.2189 6.5439-1.3221 7.3231-4.1579.9378-3.4128-1.1701-6.0996-4.1578-7.3231z"/>
  <g>
    <path class="st64" d="M1505.3192 467.4167c13.7777-47.8784 18.1962-101.2139-3.4904-146.0677-21.1191-43.6802-65.4452-76.5511-72.9421-124.4862-2.0536 12.9108-13.5715 22.1443-18.5701 34.2242-4.0277 9.7339-3.5739 20.6821-2.6147 31.1727 3.4387 37.6147 13.028 75.722 35.3588 106.1856 11.6396 15.8787 26.3776 29.2056 39.0472 44.2751 12.6698 15.0696 23.5564 32.7539 25.1843 52.3744"/>
  </g>
  <g>
    <path class="st0" d="M1339.6025 266.0533c6.3722 18.8635 10.7811 38.3294 16.5615 57.3826 11.0414 36.3936 27.6185 71.994 54.4044 98.9926 26.7859 26.9986 64.9819 44.4257 102.7327 39.8121-11.2809-21.9666-22.5947-43.9893-36.316-64.5201-37.1796-55.631-90.4745-98.1655-142.8882-139.7579"/>
  </g>
  <g>
    <path class="st2" d="M1297.6528 258.3959c-3.158 50.4841 26.1891 93.9049 54.0229 133.2285 4.3915 6.2043 14.7205.2633 10.2806-6.0093-26.6084-37.5925-55.4208-78.8855-52.3973-127.2192.4787-7.6518-11.4294-7.6232-11.9062 0z"/>
    <path class="st9" d="M1302.4092 252.2252c-6.1218-11.6962-16.33-20.8482-27.5988-27.7251-5.4323-3.315-11.3497-6.2165-17.7-6.6328s-13.2225 2.13-16.4623 7.6075c-4.1451 7.0082-.9825 16.5232 5.0782 21.9605 6.0608 5.4373 14.2605 7.709 22.2007 9.5121 12.1063 2.7492 24.8311 4.7909 36.8364 1.6294"/>
    <path class="st9" d="M1306.1709 257.4112c9.746-17.2122 13.8805-37.5435 11.6312-57.1951-1.0475-9.151-3.6968-18.5993-10.2194-25.1026-6.5225-6.5034-17.7559-8.9269-25.095-3.3613-4.0273 3.0542-6.3098 7.975-7.1685 12.9561-1.6161 9.3753 1.3047 18.9087 4.7432 27.779a228.1483 228.1483 0 0 0 21.6998 42.2742M1310.3231 299.2308c.0414-17.4981 6.7014-34.9015 18.3525-47.9567 3.6577-4.0985 7.8744-7.8366 12.9061-10.0408 5.0317-2.2042 10.9813-2.7292 15.9995-.4943 9.1411 4.0712 12.4039 16.2367 9.3318 25.7603-3.0721 9.5235-10.845 16.7463-18.9231 22.6522-9.7965 7.1621-20.5061 13.074-31.787 17.5472M1324.1411 331.1984c9.8489-15.261 24.489-27.3801 41.321-34.2053 2.4526-.9945 5.0326-1.8928 7.6759-1.7578 4.6906.2396 8.5498 3.6082 11.9989 6.796 1.9451 1.7977 3.9451 3.6719 4.9812 6.1094 1.4454 3.4007.7391 7.434-1.1069 10.6349-1.8461 3.2009-4.7064 5.6896-7.6874 7.8732-14.8284 10.8621-34.1151 15.4331-52.2412 12.3811M1304.5239 348.813c-1.9054-11.205-6.7153-22.198-15.0802-29.8929-8.3647-7.6949-20.5765-11.6208-31.5035-8.4934-1.6729.4788-3.3584 1.149-4.5635 2.404-1.5267 1.5898-2.0574 3.8643-2.4772 6.0281-.6296 3.2455-1.1482 6.5894-.5634 9.8433.892 4.9636 4.299 9.1897 8.3856 12.1447 4.0867 2.955 8.8457 4.8117 13.5468 6.6372l18.8896 7.3355c3.8829 1.5079 8.0715 3.0403 12.1182 2.0528"/>
    <path class="st38" d="M1296.0166 197.269c-.3003.0469-.1594-.2231-.1544.0923.0062.3855.4795 1.3932.5503 1.8585.1101.7237-.2693 2.9489.1306 3.4872.1335.1798 2.2744-2.1852 2.3857-1.5166-.0563-.3378-.8362-1.0648-.9595-1.5813-.2379.6083-.1532.4679.254-.4212a39.504 39.504 0 0 0 .9072-2.2165c.8054-2.9962-.0182-5.8882-2.1196-8.1159-5.2688-5.5854-13.677 2.845-8.4191 8.419l.424.4494-1.5309-2.6269c-.1532-.3984.4592-1.2148.0765-1.1516-.2383.0394-.8911 2.0129-.9514 2.2019-.451 1.4157-.5846 2.9464-.4738 4.4202.2357 3.1351 1.6752 6.1299 3.7893 8.4378 4.2952 4.6888 11.8242 5.5475 16.1998.5074 3.3472-3.8554 2.8275-11.0988 1.1608-15.6229-2.3138-6.2809-7.9865-9.1089-14.4348-8.1018-3.1793.4965-4.9403 4.4762-4.158 7.323.9322 3.3913 4.1346 4.656 7.3233 4.158zM1263.2091 241.6922c1.6174-.6246 2.9766-.898 4.6482-.4313.7966.2224 1.5323.5406 2.2009 1.0453.1422.1073 1.0941 1.1981 1.1985 1.2392.8883.35 3.7122-2.0363 2.7063-2.9724-.413-.3843-1.7657-.596-2.3459-.9274-1.4962-.8549-1.9751-1.4414-2.2015-3.0714-.4429-3.1876-4.5137-4.93-7.3231-4.1579-3.4326.9433-4.6021 4.1255-4.1578 7.323 1.4194 10.2185 21.9313 19.7483 25.1537 6.0577 1.3367-5.6792-2.7726-11.1475-7.3601-13.981-4.58-2.8289-10.644-3.5511-15.6842-1.6048-2.9974 1.1575-5.0707 4.0015-4.1578 7.3231.787 2.8647 4.3072 5.3224 7.3228 4.1579zM1272.7307 332.0931c.2111.0335 2.3694.4961 1.2085.2317.9437.215.1614.208-.1553-.3406-1.6077-2.7856 3.9268-4.4428 4.2296-3.1539.0122.0519-1.0671-.8675-1.3429-1.1293a12.2281 12.2281 0 0 1-.8671-.8921c.2394.3079.2496.2918.0308-.0483-.205-.3523-.2075-.357-.0073-.0142a1.271 1.271 0 0 1-.0237.709c-.4061 2.5722-3.7324 2.1942-5.1229.9888 2.4281 2.1047 6.0315 2.3874 8.4189 0 2.1514-2.1514 2.4398-6.3041 0-8.419-5.0168-4.3487-12.9354-2.3776-14.777 4.265-1.6487 5.9473 2.5011 11.5485 7.3334 14.5526 5.7089 3.5489 12.7184-.1085 13.6542-6.6008.8346-5.7889-3.8774-10.7498-9.4141-11.6299-3.1715-.5042-6.4047.8155-7.3231 4.1579-.7781 2.8323.9642 6.8154 4.158 7.3231zM1341.2279 268.9538c-1.8314-1.2042-.5928-2.4513-1.3174-.8509-.3146.6946-.6387 1.4231-1.0656 2.059.026-.0388-.7445 1.2176-.8773 1.048-.2335-.2983 1.1178-.1502 1.1433-.1426 1.1318.3374.976 2.0739 1.5018 2.3458-.0789-.0407.6598-1.126.7493-1.241 1.0491-1.3488 2.4886-2.2693 3.9722-3.0618 6.7611-3.6115.7538-13.8933-6.0093-10.2807-4.4962 2.4017-9.0553 6.6395-10.2749 11.775-1.4546 6.1249 2.6498 12.0202 9.0653 12.2393 11.2354.3837 19.288-17.4863 9.1218-24.1708-2.6873-1.767-6.5826-.5354-8.1449 2.1357-1.6989 2.9045-.558 6.3738 2.1357 8.145zM1362.1543 319.6231c.674-.276 1.0137-.2781.13-.231.1407-.0075.8168.4004.8177.4596l-.579-.5833-.1115-2.0515c.036.0073-.6495.5749-.6801.5796-.6456.0999-1.193.4504-1.9106.4355.2333.0049-1.2134-.0774-.9528-.1359-1.1288.2535-.2463-2.0942.3143 1.1512v3.1652c.3346-1.4618 3.949-3.0976 5.2806-3.7031 2.927-1.3308 3.6405-5.5723 2.1357-8.145-1.7596-3.0084-5.207-3.4716-8.145-2.1357-4.9669 2.2584-11.3357 7.1243-10.8586 13.1925.5573 7.0878 9.7524 9.2697 15.5142 8.175 6.1121-1.1612 12.2587-6.9084 10.7871-13.6212-1.3323-6.0778-9.0276-10.4406-14.9073-8.0328-2.9733 1.2175-5.083 3.957-4.158 7.3231.7739 2.8149 4.3299 5.3836 7.3233 4.1578z"/>
  </g>
  <g>
    <path class="st0" d="M541.871 219.9776c-15.1774 35.1385-26.8802 71.9541-32.2318 109.8543-3.5468 25.1181-4.288 50.5372-5.0241 75.8938-.6322 21.7768-1.2625 43.6168.7288 65.3116 4.2917 46.7556 20.7089 91.7505 42.4426 133.3696 21.7336 41.6191 48.7583 80.2072 75.7003 118.6602 2.6635-2.0796 2.6833-6.0456 2.2982-9.4028-4.5056-39.2766-30.2433-72.4082-45.0683-109.0575-14.4606-35.7485-18.4461-75.6624-11.3396-113.5644 5.2761-28.1399 16.4128-54.7796 25.2657-82.0067 8.8529-27.2271 15.5026-56.023 11.379-84.3547-5.9214-40.6831-33.4333-75.2944-65.3593-101.1963"/>
  </g>
  <g>
    <path d="M570.5378 608.1041c-8.002-51.476-9.3214-103.9869-3.9147-155.7998 1.3593-13.0257 3.2065-26.2383 8.7144-38.1202 4.0261-8.6857 9.8776-16.3722 14.9758-24.4752 6.2473-9.9293 11.4078-20.5842 14.7947-31.8158 8.1184-26.9214 5.7565-55.688 6.0005-83.8059s3.8633-57.9752 21.4302-79.9314c-.8671 18.975-1.7198 38.1623 1.8901 56.8109 3.1251 16.144 9.5112 31.4415 14.4987 47.1106 15.5912 48.9825 17.3363 102.2907 4.982 152.188-2.8636 11.5659-6.4753 22.9712-11.3237 33.8553-4.6497 10.4381-10.4086 20.3385-16.1553 30.2152l-22.6969 39.0084c-10.76 18.4929-21.5377 37.0134-33.8735 54.4945" fill="#faa76c"/>
  </g>
  <g>
    <path class="st65" d="M1099.3955 428.5925c-12.759-6.5466-24.3239-15.412-33.9597-26.0328-7.7006-8.4877-14.1393-18.0362-20.1971-27.7646-6.778-10.8848-13.1757-22.1808-16.714-34.5056-3.5385-12.3247-4.0298-25.8828.8586-37.737.6763-1.6398 1.6121-3.3901 3.2869-3.9742 1.3439-.4687 2.819-.0574 4.1755.3734a152.7457 152.7457 0 0 1 24.6033 10.2551c-11.7404-10.9951-16.6041-28.7859-12.0906-44.2247.5879-2.0109 1.3447-4.0227 2.6848-5.6332 1.4747-1.7724 3.5621-2.939 5.7235-3.7419 11.0601-4.1087 24.8391 1.8608 29.4061 12.7397.3081-8.131 3.0977-16.1514 7.9019-22.7185 4.1506-5.6739 10.1991-10.4278 17.1984-11.0845 9.5149-.8927 18.5054 6.3354 21.8492 15.288s1.9434 19.0714-1.4177 28.0176-8.5573 17.0632-13.0226 25.5125a346.2803 346.2803 0 0 1 26.0981-12.0013c3.2894-1.3503 7.2972-2.5795 10.1746-.4903 1.7455 1.2674 2.5508 3.4428 3.1212 5.5231 3.1196 11.3753 1.9702 23.4335.665 35.1563-1.1704 10.5125-2.4564 21.0609-5.2842 31.2534-7.8445 28.2761-27.9944 52.9051-54.1565 66.1949"/>
    <path class="st6" d="M1089.8907 310.5956c4.0022 10.7473 7.6072 21.6285 10.5828 32.7104 2.9702 11.0777 5.4841 22.3122 7.2976 33.7118 1.8137 11.3954 2.7104 22.9815 2.4131 34.5561-.1152 2.8912-.2568 5.7829-.4592 8.6685a228.1082 228.1082 0 0 1-1.0388 8.6189 183.93 183.93 0 0 1-1.6792 8.5211c-.7554 2.8059-1.5 5.6049-2.4719 8.3495-.3228.9119-1.324 1.3894-2.2358 1.0665-.6924-.2452-1.1343-.8814-1.1655-1.5726l-.0024-.0662c-.1274-2.8867-.0276-5.719.0615-8.5443.0195-2.8342.1057-5.649.2581-8.4515.0469-2.813.1484-5.6148.3044-8.4109.0486-2.8031.1582-5.6001.2937-8.3976.3147-11.1955.259-22.42-.4031-33.6675-.6631-11.2435-2.1489-22.4852-4.6648-33.515-2.5107-11.0255-5.8779-21.8838-10.2974-32.3008-.3723-.8777.0374-1.891.915-2.2634.8777-.3723 1.8909.0373 2.2632.915.0092.0215.0204.05.0287.072z"/>
  </g>
  <g>
    <path class="st9" d="M707.0339 417.6915c17.1237-7.4802 34.3444-15.0126 49.938-25.309 15.5936-10.2964 29.6293-23.6014 38.126-40.2442 5.2305-10.2454 8.2604-21.6074 8.8259-33.0969.0962-1.9544.0982-4.0153-.8422-5.7312-2.5118-4.5831-9.2642-3.6577-14.2495-2.089l-26.1071 8.2154c10.8331-7.7078 22.6068-16.9134 24.3266-30.097 1.3273-10.1745-3.9199-20.1625-10.7084-27.8565-1.168-1.3239-2.6643-2.7139-4.4185-2.515-1.2665.1436-2.2748 1.0905-3.1629 2.0047-10.5111 10.8193-18.3468 24.2189-22.6219 38.685 6.0331-14.9451-2.12-34.036-17.088-40.0122-6.5594-2.619-14.8291-2.5816-19.885 2.3503-2.6953 2.6292-4.1328 6.2875-5.066 9.9354-2.4746 9.6729-1.8584 20.1118 1.737 29.4264l-20.5355-27.3911c-.6282-.8378-1.3442-1.7342-2.3678-1.955-.9904-.2137-1.9869.2691-2.8668.7715-15.2848 8.7288-22.8789 27.3365-22.6962 44.9371.1827 17.6007 6.9189 34.4457 14.5411 50.3114 8.3054 17.2878 17.9322 34.2021 31.1909 48.0604"/>
    <path class="st6" d="M729.0479 312.3739c-4.7058 10.2908-8.3721 21.0518-11.187 32.0036-2.8198 10.956-4.6162 22.1523-5.5898 33.3732-.9734 11.2249-1.3394 22.4435-1.3345 33.6435.0581 2.8001.0903 5.5992.0613 8.4025a215.823 215.823 0 0 1 .0718 8.4161 178.032 178.032 0 0 1 .0239 8.4554c.011 2.8267.0325 5.6606-.1748 8.5428l-.0046.0648c-.0693.9649-.9077 1.6909-1.8726 1.6215-.7327-.0526-1.3276-.5501-1.541-1.2083-.8958-2.7704-1.5625-5.5889-2.2402-8.4147a183.9604 183.9604 0 0 1-1.4426-8.5642 227.5577 227.5577 0 0 1-.8-8.6443c-.1223-2.8901-.1841-5.7846-.2192-8.6779.0229-11.5784 1.2397-23.1353 3.3682-34.4761 2.1279-11.3451 4.9519-22.5057 8.2275-33.497 3.2808-10.9953 7.1855-21.7726 11.4834-32.4051.3569-.884 1.363-1.3112 2.2471-.9542.884.357 1.3113 1.3631.9541 2.2471a2.1597 2.1597 0 0 1-.031.0713z"/>
  </g>
  <g>
    <path class="st11" d="M1033.3307 256.5805c-4.7926-6.5176-14.6241-7.6579-22.0181-4.3748s-12.7038 9.9796-16.8239 16.9419c-2.1939 3.7074-4.1843 7.7234-4.33 12.0288-.3049 9.0146 8.1658 16.6918 17.137 17.6263 8.9712.9345 17.7943-3.5722 24.2986-9.8212 3.891-3.7382 7.2001-8.2084 8.9028-13.3284 1.7028-5.12 1.677-10.938-.7667-15.7486M1041.876 316.5806c-3.8643-2.6364-8.017-4.9566-12.5448-6.1318s-9.4841-1.1315-13.7363.8181c-3.6423 1.67-6.5441 4.6035-9.141 7.6549-2.9354 3.4491-5.6733 7.3067-6.4584 11.7672-1.2267 6.9698 2.9339 14.2943 9.1924 17.5979 6.2585 3.3036 14.119 2.8385 20.426-.3716 6.3069-3.2101 11.1252-8.9066 14.1802-15.2901 1.9744-4.1254 3.2823-8.8226 2.2063-13.2677M962.3515 239.3823c-5.3563-2.9197-11.9846-3.6146-17.6756-1.4173s-10.2382 7.3932-11.2134 13.4151c-.4515 2.7876-.1667 5.6503.4199 8.4126 2.3618 11.1199 10.4804 21.4462 21.5294 24.1202 2.9693.7186 6.1213.877 9.067.067 2.2208-.6107 4.2711-1.756 6.0925-3.1658 6.6102-5.1165 10.0928-13.9851 8.7302-22.2323-1.3625-8.2472-7.5126-15.5244-15.4172-18.2429M963.6417 305.3232c-5.4879-4.4974-12.4503-7.3327-19.5455-7.2998s-14.2493 3.0953-18.7037 8.6181c-4.4545 5.5228-5.8942 13.4993-3.0984 20.0205 1.4136 3.2973 3.7905 6.1104 6.4936 8.469 6.7343 5.8762 16.2702 9.1152 24.8368 6.5669 6.9969-2.0814 12.644-7.9261 14.9246-14.8606 2.2806-6.9345 1.2947-14.7772-2.222-21.1741"/>
    <path class="st3" d="M978.5175 295.442c-1.4406 20.8675 1.1462 41.6087 2.5917 62.3976 1.4001 20.1363.3127 39.9268-1.7155 59.9827-4.0337 39.8879-10.0374 79.7404-22.8774 117.8497-2.1307 6.324 7.8586 9.0375 9.9769 2.7505 12.9289-38.373 18.935-78.5493 23.0543-118.7074 2.1216-20.6837 3.3528-41.0978 1.9081-61.8755-1.4454-20.7889-4.0322-41.5301-2.5917-62.3976.4589-6.6456-9.8896-6.6171-10.3464 0z"/>
  </g>
  <g>
    <path class="st6" d="M752.9432 180.636l-1.3041 48.9904c-.7634 28.6785-1.519 57.5095 2.3875 85.9309 7.6672 55.7824 33.1667 109.3741 30.272 165.6065-.7585 14.7365-3.4799 29.4053-2.7981 44.1456 1.4576 31.517 19.1257 61.3336 44.6429 79.8893 25.5173 18.5558 58.1789 26.1957 89.6177 23.5405-22.4653-15.9803-45.6818-32.7871-58.93-56.9645-16.6953-30.468-14.8031-67.2192-14.5967-101.961a848.596 848.596 0 0 0-2.2955-67.6136c-.8884-12.0135-2.0524-24.1105-5.6091-35.6198-4.0009-12.9472-10.9055-24.7654-17.4321-36.6414-25.9395-47.2007-46.7237-97.2324-61.8641-148.9193"/>
  </g>
  <g>
    <path class="st0" d="M755.108 180.4165c29.9609 26.8621 69.8489 56.0954 95.2336 87.3179 7.5336 9.2661 14.7017 18.9994 19.3955 29.9804 16.1608 37.8078.2861 81.3225 4.4378 122.2292 3.3381 32.8907 19.6073 63.2948 23.9925 96.0623 2.5533 19.079 1.0071 38.458 2.1215 57.6748 1.1144 19.2169 5.2982 39.1331 17.5105 54.0121-14.1566-2.665-35.025-10.743-44.0945-21.9348-32.784-40.4553-45.2174-74.6384-55.2324-125.7374-9.7597-49.7967-7.9532-119.5979-30.4511-165.0821-5.616-11.3537-12.8657-21.9098-17.5342-33.6848-5.4069-13.6369-7.1569-28.4014-8.8593-42.9719-2.2615-19.3571-9.305-38.5769-6.5199-57.8657"/>
  </g>
  <g>
    <path class="st63" d="M603.6668 338.9001c-1.116 8.9902-12.4577 14.9626-20.5019 10.796-1.2982-.6725-2.5234-1.5587-3.9555-1.8534-1.6219-.3338-3.2863.1345-4.9354.2852-7.4279.6788-14.5705-6.3823-13.9769-13.8175.2608-3.2671 1.655-6.9605-.3669-9.54-1.4943-1.9063-4.1846-2.2271-6.5282-2.839-3.3267-.8685-6.4197-2.6159-8.8806-5.017-3.185-3.1076-5.0788-8.7455-1.812-11.7669 1.3229-1.2235 3.3264-1.8226 4.0543-3.471.8275-1.8736-.455-3.9542-.7117-5.9862-.4164-3.2955 2.0486-6.4107 5.0494-7.8352 3.0007-1.4245 6.4339-1.5348 9.7545-1.6194-2.0938-9.3662 2.3835-20.8829 11.6923-23.2188 2.2411-.5624 4.5895-.5679 6.8435-1.0764 4.046-.9129 7.6687-3.4163 11.7929-3.8572 6.4608-.6908 12.9322 4.7315 13.383 11.2135 4.5319-1.05 9.2812-1.9589 13.795-.8335 4.5137 1.1254 8.7077 4.858 8.863 9.5073.0398 1.1909-.1578 2.4809.4692 3.4942.5589.9032 1.6209 1.3297 2.5043 1.9194 3.6418 2.4312 4.1477 7.6364 3.2631 11.9249-.8846 4.2885-2.7833 8.45-2.5935 12.8247.1709 3.9409 2.0275 7.6122 2.651 11.5071s-.5833 8.6854-4.301 10.0038c-1.1089.3933-2.4583.5099-3.1232 1.4806-.7191 1.0499-.2117 2.4672-.2972 3.7369-.2017 2.9957-3.5222 4.6109-6.3519 5.6148-2.8308 1.0043-5.7385 2.0217-8.7416 1.9613-3.0031-.0603-6.1694-1.4311-7.5235-4.1122"/>
    <path class="st0" d="M587.4774 316.2943c5.1925 3.4845 13.1796 2.0514 16.5005-3.2472 3.321-5.2986.8021-13.4299-5.0736-15.5699-2.1099-.7685-4.405-.8072-6.6503-.8371-2.381-.0318-4.9246-.0183-6.9103 1.296-2.3525 1.5572-3.3191 4.6568-3.0048 7.4604.3143 2.8036 1.7001 5.3685 3.2239 7.7428"/>
  </g>
  <g>
    <path class="st9" d="M1653.1744 377.4026c-4.2385-18.1992-8.5109-36.5032-15.797-53.7103-7.2863-17.2072-17.8145-33.4301-32.6328-44.8139-9.1222-7.0079-19.743-12.0552-30.9376-14.7024-1.9043-.4503-3.9303-.8274-5.7888-.215-4.9636 1.6357-5.2827 8.4438-4.6476 13.6312l3.3264 27.1663c-5.6073-12.055-12.5162-25.3075-25.1666-29.3982-9.7629-3.157-20.5391.1847-29.3402 5.4594-1.5143.9076-3.1534 2.1259-3.2772 3.887-.0894 1.2714.6583 2.4352 1.3955 3.4749 8.7256 12.3047 20.4752 22.4484 33.9215 29.285-13.5974-8.6525-33.8534-4.1103-42.4541 9.52-3.7692 5.9732-5.2375 14.1115-1.3081 19.9806 2.0947 3.1288 5.4303 5.2082 8.8473 6.7898 9.0609 4.1938 19.4376 5.4879 29.251 3.6479l-30.6711 15.2071c-.9381.4651-1.9498 1.0061-2.3533 1.9724-.3904.9349-.097 2.0027.2368 2.9593 5.8011 16.6182 22.7158 27.4722 40.0557 30.4961 17.34 3.0238 35.1298-.534 52.1177-5.1411 18.5106-5.0201 36.8947-11.4076 52.9347-21.9225"/>
    <path class="st6" d="M1553.6229 336.5876c9.2625 6.5003 19.1763 12.0641 29.4329 16.8251 10.2598 4.7669 20.9421 8.571 31.7983 11.5709 10.8601 2.9999 21.825 5.4019 32.8386 7.4355 2.7642.4525 5.522.9302 8.2734 1.4689 2.7666.4323 5.5278.919 8.2886 1.4614a178.039 178.039 0 0 1 8.3184 1.5153c2.7817.5038 5.5723.9984 8.3682 1.7267l.063.0164c.936.2438 1.4976 1.2003 1.2539 2.1365-.1855.7108-.7827 1.2053-1.4688 1.2955-2.8872.3764-5.7803.5192-8.6821.6711a184.041 184.041 0 0 1-8.6836-.1402 227.7186 227.7186 0 0 1-8.6455-.7866c-2.8643-.4056-5.7217-.8718-8.5728-1.364-11.3809-2.1299-22.5234-5.4297-33.2874-9.5868-10.7683-4.1573-21.2285-8.9654-31.4402-14.1867-10.2144-5.2273-20.1011-11.0283-29.7737-17.1896-.8042-.512-1.0413-1.579-.5293-2.3833.512-.8043 1.5791-1.0412 2.3833-.5292.0201.0126.0455.0297.0648.0431z"/>
    <path class="st11" d="M1534.2291 141.2243c-7.9969-1.2241-15.7584 4.9174-18.6693 12.4657s-1.9349 16.0385.0706 23.876c1.0679 4.1734 2.4979 8.4214 5.4376 11.5704 6.1552 6.5932 17.5739 6.0382 24.5813.3592 7.0073-5.6791 10.0646-15.103 10.25-24.1208.111-5.3945-.707-10.8958-3.1208-15.7215s-6.5438-8.9236-11.6724-10.6001M1582.6785 177.6345c-4.597.8658-9.1748 2.159-13.2087 4.5275-4.0341 2.3685-7.5096 5.9022-9.1401 10.2867-1.3967 3.7556-1.3765 7.8818-1.0573 11.8759.3608 4.5146 1.15 9.1789 3.7469 12.8894 4.0579 5.798 12.1779 8.0395 18.9404 5.9538 6.7626-2.0858 11.995-7.97 14.1885-14.6984s1.5765-14.1638-.7736-20.8391c-1.5187-4.3139-3.913-8.5616-7.8157-10.946M1664.339 260.4471c-5.8705-1.3966-12.2302 1.2797-16.2284 5.7994s-5.8719 10.6037-6.3312 16.6205.3839 12.0484 1.225 18.0238c.5128 3.6425 1.4023 7.837 4.6877 9.4912 1.2407.6247 2.6619.7769 4.0497.835 6.8301.2856 13.7335-1.5188 19.5504-5.1098 2.0165-1.2449 3.9332-2.7283 5.3037-4.6617 2.5303-3.5697 2.9077-8.2007 2.95-12.576a115.5266 115.5266 0 0 0-.6909-13.7754c-.3785-3.4322-.9406-6.9353-2.6406-9.9407-1.7001-3.0054-4.764-5.4514-8.2162-5.5224M1471.8579 179.2197c-5.853 1.7198-11.0336 5.9126-13.507 11.4891-2.4735 5.5765-2.0184 12.4661 1.5475 17.4158 1.6506 2.2912 3.8752 4.1153 6.2424 5.655 9.5297 6.1981 22.5714 7.7662 32.2782 1.8494 2.6086-1.5901 4.9506-3.7056 6.4622-6.3605 1.1395-2.0016 1.7808-4.2608 2.073-6.5455 1.0607-8.2914-2.7432-17.0271-9.5356-21.899s-16.2866-5.674-23.8002-2.0109M1519.3728 224.9603c-7.061.6966-13.9906 3.6111-18.9872 8.6488-4.9966 5.0376-7.8937 12.2602-7.142 19.3156.7516 7.0554 5.3702 13.7161 11.9569 16.354 3.3303 1.3338 7 1.6442 10.5793 1.4025 8.9174-.602 17.953-5.0497 22.2128-12.9068 3.4792-6.4174 3.3439-14.5434.0566-21.0612-3.2874-6.5178-9.5275-11.3697-16.5364-13.41M1604.8198 305.9578c-6.3177.7453-12.7535 1.5228-18.5413 4.1633-5.7876 2.6405-10.928 7.4954-12.2605 13.7158-.54 2.5214-.4375 5.1346-.208 7.703.2384 2.6685.6238 5.37 1.738 7.8064 3.4347 7.5102 12.6107 10.4036 20.8441 11.0448 8.5997.6696 18.1213-.5899 24.0576-6.8479 5.2715-5.5572 6.496-14.3133 3.7305-21.4563-2.7656-7.143-9.1063-12.5981-16.3296-15.1468M1571.655 271.6099c-8.8871-3.7121-19.5525-3.9211-27.8451.9771s-13.3848 15.3978-10.6094 24.6205c.568 1.8874 1.4438 3.7003 2.7157 5.2061 1.9733 2.3361 4.7727 3.8047 7.5809 5.0152 8.6273 3.7188 18.9967 5.4011 27.1639.7581 5.969-3.3933 9.9369-10.0558 10.0771-16.9205s-3.5521-13.6837-9.3776-17.318M1621.3224 217.4061c-7.4971.9973-14.5237 5.1467-19.0173 11.2301-1.3475 1.8243-2.491 3.8551-2.922 6.0817-.3168 1.6364-.239 3.3202-.1587 4.985.3007 6.2334.7881 12.9249 4.7094 17.7797 2.9668 3.6729 7.5471 5.7453 12.1844 6.6322 2.6531.5074 5.4586.6566 8.0028-.2506 2.8795-1.0267 5.1244-3.2849 7.1971-5.532 3.3674-3.6508 6.6614-7.6437 7.8749-12.4598.8978-3.5639.5836-7.3077.2349-10.9664-.4155-4.3587-.9185-8.8618-3.1115-12.6514-2.1931-3.7896-6.5514-6.6851-10.8381-5.7939"/>
    <path class="st3" d="M1522.9159 207.4582c20.2377 23.2948 46.4752 40.2612 67.4 62.8753 21.656 23.4043 41.5055 49.2716 59.3208 75.6956 10.1604 15.0702 19.4557 30.7019 27.5227 46.9941 2.9546 5.9672 11.8817.7314 8.934-5.2221-14.345-28.9711-32.6505-55.6522-52.4088-81.1664-9.8607-12.7331-19.9343-25.3702-30.5446-37.4897-10.3954-11.8742-21.9135-22.443-33.9232-32.6514-13.5546-11.5216-27.2841-22.8832-38.9849-36.3515-4.3746-5.0356-11.6666 2.3084-7.316 7.3161z"/>
    <g>
      <path class="st65" d="M1705.876 375.2713c-14.0675-2.7851-27.6245-8.128-39.8098-15.6891-9.7379-6.0425-18.5544-13.452-27.0542-21.1392-9.5101-8.601-18.7678-17.7018-25.5593-28.5782-6.7916-10.8763-10.9928-23.7764-9.553-36.5179.1991-1.7625.6174-3.7027 2.067-4.725 1.1631-.8202 2.6946-.8304 4.1172-.7893a152.7522 152.7522 0 0 1 26.475 3.0931c-14.3115-7.3423-23.8807-23.1093-23.7872-39.1941.0121-2.0951.1865-4.2374 1.032-6.1543.9304-2.1096 2.6165-3.8053 4.4736-5.1717 9.5035-6.9921 24.3931-5.0424 31.776 4.161-1.9402-7.9021-1.4639-16.3804 1.3489-24.0156 2.4302-6.5966 6.9379-12.8307 13.4866-15.387 8.9026-3.4751 19.5343 1.0016 25.2113 8.6894 5.6771 7.6877 7.1135 17.8015 6.3425 27.3271-.771 9.5255-3.5344 18.7586-5.5038 28.1102a346.2677 346.2677 0 0 1 21.791-18.7161c2.7913-2.2029 6.3064-4.487 9.6473-3.2697 2.0267.7385 3.3993 2.6085 4.5199 4.4517 6.1278 10.0787 8.339 21.988 10.3082 33.6177 1.7659 10.429 3.4304 20.9243 3.515 31.5014.2346 29.3431-12.3646 58.5641-33.8629 78.5367"/>
      <path class="st6" d="M1664.2855 264.4388c6.8037 9.2321 13.2622 18.7023 19.1709 28.5385 5.9023 9.8337 11.4092 19.9435 16.2876 30.4048 4.8779 10.4571 8.9268 21.3499 11.8237 32.5599.6846 2.8114 1.3438 5.6305 1.9429 8.4605a228.173 228.173 0 0 1 1.3716 8.5722c.311 2.8806.5547 5.7676.729 8.6543.0454 2.9055.0996 5.8014-.0801 8.7074-.0596.9655-.8906 1.6999-1.8564 1.6402-.7329-.0453-1.333-.5354-1.5532-1.1914l-.0205-.063c-.9165-2.7404-1.5991-5.4909-2.2905-8.2318a178.0124 178.0124 0 0 1-2.0762-8.1965 215.6836 215.6836 0 0 1-2.021-8.1703c-.7241-2.7084-1.3877-5.4277-2.0269-8.1546-2.7764-10.8504-5.917-21.6267-9.647-32.2583-3.73-10.6276-8.25-21.0271-13.7021-30.9397-5.4463-9.9098-11.6699-19.4233-18.7842-28.2232-.5991-.7414-.4839-1.8283.2573-2.4277.7417-.5994 1.8286-.4842 2.4277.2572.0152.0183.0338.0426.0474.0615z"/>
    </g>
  </g>
  <g>
    <path class="st0" d="M1678.2377 147.8755c13.686 13.6219 26.6333 27.9375 38.4458 43.227 11.7607 15.308 22.7959 31.2884 32.4468 48.2191 9.6626 16.9078 17.6924 34.8857 23.293 53.6447.6606 2.355 1.313 4.7129 1.9277 7.0807.6396 2.3611 1.2329 4.7342 1.812 7.1091a328.0225 328.0225 0 0 1 2.5684 14.4483c.5518 4.869.9702 9.7502 1.2505 14.6265.0547 4.9119.0112 9.817-.4019 14.7196-.1606 1.8996-1.8301 3.3097-3.73 3.1495-1.375-.116-2.4937-1.0232-2.9458-2.2361l-.0586-.1596c-1.6914-4.5623-3.0127-9.1222-4.2354-13.6753-1.4229-4.5216-2.7075-9.0381-3.8594-13.5669a302.49 302.49 0 0 1-3.791-13.4895c-.6851-2.2302-1.356-4.4621-1.981-6.7061-.6494-2.2371-1.2607-4.4845-1.8652-6.7343-5.3193-17.8542-11.4092-35.5315-18.8066-52.8095-7.4087-17.2548-16.3755-33.9941-27.3062-49.4252-10.877-15.4485-23.314-29.8905-37.4141-42.4945-1.3955-1.2475-1.5156-3.3901-.2681-4.7856 1.2471-1.3955 3.3896-1.5156 4.7852-.2681a3.584 3.584 0 0 1 .1339.1262z"/>
  </g>
  <g>
    <path class="st6" d="M1641.7279 101.104c-6.3569-6.7067-19.2841-4.7472-23.3679 3.5422-.6591 1.3378-1.1288 2.807-2.1263 3.9156-1.1299 1.2556-2.7799 1.8783-4.2252 2.7525-6.51 3.9377-8.1018 14.0582-3.1149 19.8042 2.1913 2.5248 5.5712 4.7139 5.4719 8.0555-.0732 2.4696-2.0883 4.3611-3.6423 6.2818-2.2061 2.7263-3.6884 6.0329-4.256 9.4938-.7346 4.4791 1.1222 10.2546 5.6331 10.7586 1.8267.2041 3.8344-.5164 5.4297.3965 1.8132 1.0377 2.0193 3.5223 3.0381 5.3461 1.6525 2.958 5.5618 4.0242 8.8878 3.3779s6.2119-2.6333 8.9897-4.5734c3.9487 8.9579 14.5947 15.705 23.652 11.9898 2.1805-.8945 4.1122-2.3111 6.2708-3.2576 3.8748-1.6989 8.3643-1.8356 12.0177-3.9694 5.7231-3.3426 7.7555-11.7113 4.203-17.3066 4.3567-1.8804 8.8065-4.0082 11.8318-7.6638 3.0254-3.6556 4.2102-9.2586 1.5242-13.1703-.688-1.002-1.6309-1.9416-1.7292-3.1531-.0876-1.0798.5262-2.0727.8948-3.0916 1.519-4.2002-1.2156-8.7805-4.5371-11.7665-3.3217-2.986-7.399-5.2542-9.8906-8.9611-2.2445-3.3394-2.9418-7.4775-4.7869-11.053s-5.735-6.7788-9.5856-5.6116c-1.1486.3481-2.3271 1.069-3.4606.6743-1.2258-.4269-1.667-1.8977-2.5055-2.8886-1.9785-2.3378-5.6826-1.6546-8.6136-.7665-2.9321.8885-5.9354 1.8127-8.3647 3.6796s-4.1997 4.9086-3.6892 7.9296"/>
    <path class="st0" d="M1642.1145 129.4634c2.155-6.0035 9.5806-9.6603 15.514-7.3192 5.9336 2.341 8.786 10.5422 5.2563 15.8552-1.2675 1.9078-3.1285 3.3285-4.9541 4.7119-1.9358 1.467-4.0326 2.9953-6.4585 3.1177-2.874.145-5.5435-1.8152-6.9821-4.3075s-1.8529-5.437-2.0385-8.3087"/>
  </g>
</svg>
