<?xml version="1.0" encoding="utf-8"?>
<!-- Generator: Adobe Illustrator 23.0.1, SVG Export Plug-In . SVG Version: 6.00 Build 0)  -->
<svg version="1.1" id="Layer_1" xmlns="http://www.w3.org/2000/svg" xmlns:xlink="http://www.w3.org/1999/xlink" x="0px" y="0px"
	 viewBox="0 0 1296 600" style="enable-background:new 0 0 1296 600;" xml:space="preserve">
<style type="text/css">
	.st0{fill:#F09A82;}
	.st1{fill:#6610EF;}
	.st2{fill:#9B6FEF;}
	.st3{fill:#71B1FC;}
</style>
<g id="tl-leaf_1_">
	<g>
		<path class="st0" d="M264.4736,47.6924c-0.3048,5.2266-0.6139,10.4837-1.8073,15.5813
			c-1.1935,5.0976-3.3288,10.0776-6.8789,13.9256c-2.1855,2.3688-4.8779,4.2676-7.843,5.5309
			c-0.5044,0.2149-1.0459,0.4154-1.5881,0.3347c-1.4483-0.2156-1.8602-2.0802-1.9315-3.5427
			c-0.1245-2.553-0.249-5.1061-0.3736-7.6591c-0.9749,3.5952-2.2523,7.5829-5.5506,9.3141c-2.5455,1.336-5.6799,0.9258-8.3608-0.112
			c-0.4613-0.1786-0.9718-0.437-1.0898-0.9174c-0.0851-0.3468,0.0659-0.7037,0.2201-1.0258c1.824-3.8125,4.5858-7.172,7.9733-9.6992
			c-3.3429,3.0357-9.1518,2.7449-12.1748-0.6095c-1.3248-1.47-2.1173-3.6472-1.3115-5.4546
			c0.4296-0.9635,1.2517-1.6963,2.1199-2.2955c2.3024-1.5889,5.1059-2.4397,7.903-2.3984
			c-3.0639-0.9134-6.1279-1.8268-9.1919-2.7401c-0.2811-0.0838-0.5862-0.1851-0.7436-0.4327
			c-0.1523-0.2396-0.1221-0.5484-0.0753-0.8284c0.8114-4.8644,4.9655-8.6657,9.6094-10.3253s9.7251-1.5233,14.6347-1.0592
			c5.3497,0.5057,10.7295,1.3951,15.6584,3.5355"/>
	</g>
	<g>
		<path class="st1" d="M237.78,62.4892c2.4711-2.1077,4.9114-4.226,7.4587-6.2467c2.546-2.0163,5.1267-4.034,7.8449-5.9218
			c2.7155-1.8872,5.6396-3.5134,8.7506-4.6746c0.78-0.2824,1.5669-0.5481,2.3655-0.7737c0.8056-0.2053,1.6215-0.3744,2.4441-0.5061
			c1.6569-0.2222,3.3481-0.2885,5.0851,0.0498c0.6971,0.1358,1.1522,0.811,1.0164,1.5081
			c-0.0601,0.3084-0.2257,0.5694-0.4521,0.7529l-0.0606,0.049c-0.6814,0.5513-1.386,0.9442-2.0836,1.3422
			c-0.6954,0.4052-1.3955,0.7631-2.1047,1.0757c-0.7003,0.3437-1.4073,0.6499-2.1247,0.92
			c-0.707,0.3022-1.4256,0.5642-2.1511,0.8097c-2.8745,1.0535-5.783,2.053-8.6979,3.1704
			c-2.9121,1.1168-5.7595,2.4826-8.3909,4.1977c-2.6299,1.7108-5.1162,3.6721-7.2711,5.961
			c-0.4482,0.4761-1.1975,0.4987-1.6736,0.0505c-0.4761-0.4482-0.4987-1.1975-0.0505-1.6736
			C237.7144,62.5483,237.7479,62.5167,237.78,62.4892z"/>
	</g>
</g>
<g id="br-leaf_1_">
	<g>
		<path class="st2" d="M1235.879,165.2135c-3.0962-0.8668-6.3492-1.1702-9.5524-0.891c-2.5598,0.2231-5.0736,0.813-7.5522,1.4904
			c-2.7732,0.758-5.5465,1.6416-8.0061,3.13s-4.606,3.6439-5.6077,6.3387c-0.1385,0.3728-0.2512,0.8033-0.0648,1.1545
			c0.1497,0.2818,0.4551,0.4389,0.7438,0.5747c1.8051,0.8488,3.6844,1.5393,5.6096,2.0611
			c-3.6063,0.0202-7.1167,2.2058-8.7262,5.4332c-0.2097,0.4204-0.3916,0.8666-0.4165,1.3357
			c-0.0275,0.5162,0.1382,1.0261,0.3715,1.4875c1.1935,2.3608,4.3696,3.478,6.7782,2.3841c-1.188,1.3845-1.951,3.1288-2.1611,4.941
			c-0.1816,1.5657,0.0891,3.2691,1.1405,4.4435c1.4292,1.5964,4.0094,1.777,5.9233,0.8137c1.9138-0.9633,3.225-2.8413,4.035-4.825
			c0.8099-1.9837,1.1918-4.1106,1.7444-6.1808c0.7388,2.0163,1.5614,4.002,2.4648,5.9501c0.3354,0.7233,0.8075,1.536,1.599,1.6307
			c0.4802,0.0574,0.9442-0.1777,1.355-0.4331c2.2461-1.396,3.8939-3.5547,5.4651-5.682c1.4091-1.9076,2.8044-3.8388,3.892-5.9463
			c3.0172-5.8465,3.4546-12.9678,1.1754-19.1396"/>
	</g>
	<g>
		<path class="st1" d="M1215.6592,181.7498c2.333-0.9175,4.4967-2.2245,6.5007-3.7199c2.0087-1.4951,3.7905-3.2825,5.3905-5.187
			c1.6047-1.9037,3.1136-3.8214,4.7096-5.6437c0.3855-0.468,0.7841-0.9235,1.2163-1.3535c0.4103-0.4477,0.8507-0.8727,1.3242-1.2777
			c0.452-0.4211,0.9434-0.8173,1.4777-1.192c0.5331-0.3759,1.064-0.7603,1.7357-1.0656l0.0836-0.038
			c0.6818-0.3099,1.4857-0.0084,1.7957,0.6734c0.0985,0.2168,0.1345,0.452,0.1168,0.6737
			c-0.1233,1.4815-0.6036,2.7795-1.2104,3.9945c-0.3176,0.597-0.6683,1.174-1.0492,1.7284
			c-0.3931,0.5441-0.8198,1.0627-1.2598,1.5686c-1.7721,2.0167-3.8949,3.7064-6.147,5.1502
			c-2.257,1.4431-4.5571,2.7437-6.8188,4.0496c-2.2664,1.3056-4.5615,2.5125-6.838,3.7937
			c-0.575,0.3257-1.3051,0.1237-1.6307-0.4513c-0.3258-0.575-0.1237-1.3051,0.4513-1.6308
			C1215.5538,181.7959,1215.6108,181.7693,1215.6592,181.7498z"/>
	</g>
</g>
<g id="bl-leaf_1_">
	<g>
		<path class="st3" d="M128.7665,193.0705c1.1207-4.3799,1.4444-8.9625,0.9507-13.4565c-0.3946-3.5914-1.3032-7.1066-2.3339-10.5695
			c-1.1532-3.8745-2.483-7.7452-4.6531-11.1558c-2.1701-3.4106-5.268-6.3597-9.0879-7.6827
			c-0.5284-0.183-1.1371-0.3278-1.625-0.0545c-0.3914,0.2193-0.6026,0.6535-0.7843,1.0637
			c-1.1361,2.5643-2.0475,5.2281-2.7202,7.9509c-0.1423-5.069-3.3258-9.9347-7.9135-12.0953
			c-0.5976-0.2814-1.2306-0.5231-1.8908-0.5433c-0.7266-0.0222-1.4381,0.2268-2.0793,0.5692
			c-3.281,1.7524-4.7511,6.2525-3.1373,9.6039c-1.9838-1.6263-4.4601-2.6437-7.0142-2.8819
			c-2.2067-0.2058-4.5928,0.2287-6.2104,1.7438c-2.1989,2.0596-2.3713,5.6923-0.9566,8.3524
			c1.4147,2.6601,4.096,4.4439,6.9102,5.5198c2.8142,1.0759,5.8161,1.5454,8.7438,2.2569
			c-2.8111,1.1024-5.5765,2.3215-8.2865,3.6531c-1.0061,0.4944-2.1337,1.1836-2.2418,2.2994
			c-0.0655,0.6769,0.2797,1.3215,0.6516,1.8909c2.0335,3.1134,5.1201,5.3617,8.1602,7.5032
			c2.7262,1.9204,5.4851,3.8209,8.482,5.2832c8.3142,4.0567,18.3388,4.4464,26.9428,1.0474"/>
	</g>
	<g>
		<path class="st1" d="M104.2983,165.4632c1.4669,3.2305,3.3461,6.2674,5.457,9.1128c2.115,2.8468,4.554,5.44,7.1597,7.8115
			c2.6061,2.3746,5.2892,4.6061,7.9529,6.8427c0.6869,0.5346,1.3536,1.092,2.0037,1.6735c0.6713,0.5538,1.3237,1.1341,1.9596,1.7431
			c0.6565,0.5803,1.2923,1.195,1.9105,1.847c0.626,0.6407,1.2594,1.2793,1.8276,2.0403l0.0263,0.0352
			c0.358,0.4795,0.2595,1.1585-0.2201,1.5164c-0.2642,0.1972-0.5935,0.2548-0.8917,0.1875
			c-0.9377-0.2162-1.8101-0.555-2.6899-0.8917c-0.8523-0.3778-1.6869-0.7929-2.5009-1.2423
			c-0.7977-0.4715-1.5789-0.9716-2.3412-1.4983c-0.7453-0.548-1.4739-1.1199-2.1823-1.7149
			c-2.8394-2.377-5.3422-5.1367-7.5639-8.078c-2.2222-2.9445-4.2532-5.9922-6.2107-9.06c-1.9615-3.0692-3.7574-6.2209-5.5269-9.4009
			c-0.276-0.4948-0.0986-1.1197,0.3962-1.3958c0.4948-0.276,1.1198-0.0986,1.3958,0.3962
			C104.2735,165.4115,104.2871,165.4387,104.2983,165.4632z"/>
	</g>
</g>
<g id="tr-leaf_1_">
	<g>
		<path class="st3" d="M1057.9064,101.8701c3.3239,0.5179,6.741,0.4311,10.0343-0.2548c2.6318-0.5482,5.1705-1.4716,7.6619-2.4818
			c2.7875-1.1302,5.5596-2.3909,7.9309-4.2412c2.3715-1.8503,4.335-4.3549,5.0426-7.2784c0.0979-0.4044,0.1617-0.8656-0.0754-1.2074
			c-0.1903-0.2743-0.5269-0.3997-0.8438-0.5051c-1.9801-0.6587-4.0179-1.1439-6.0825-1.4481
			c3.7441-0.4667,7.1211-3.1712,8.3943-6.723c0.1659-0.4626,0.2998-0.9487,0.2677-1.4391c-0.0353-0.5397-0.2705-1.049-0.5698-1.4995
			c-1.5316-2.3052-4.9694-3.0733-7.3365-1.6392c1.0631-1.5852,1.6403-3.4917,1.6346-5.4004
			c-0.0049-1.6491-0.4967-3.3854-1.7341-4.4754c-1.6821-1.4819-4.385-1.3506-6.2544-0.1133
			c-1.8693,1.2373-2.9994,3.3504-3.5957,5.5114c-0.5964,2.161-0.7302,4.4178-1.0485,6.6369
			c-1.0168-2.0035-2.1168-3.9647-3.2961-5.877c-0.4379-0.7099-1.0287-1.496-1.8628-1.4965
			c-0.5061-0.0003-0.9589,0.3014-1.3541,0.6174c-2.161,1.7279-3.6062,4.1743-4.9757,6.5785
			c-1.228,2.156-2.4391,4.3348-3.3085,6.6587c-2.4121,6.447-1.9865,13.8994,1.1442,20.0297"/>
	</g>
	<g>
		<path class="st1" d="M1076.7501,82.0023c-2.3011,1.2747-4.4009,2.8922-6.3246,4.6787c-1.9277,1.7867-3.6117,3.8244-5.1047,5.965
			c-1.4941,2.1428-2.8926,4.3011-4.3346,6.4154c-1.446,2.1231-2.9235,4.1702-5.1392,5.989l-0.0133,0.0109
			c-0.4763,0.391-1.1793,0.3218-1.5703-0.1545c-0.1842-0.2244-0.2661-0.5016-0.2516-0.7703c0.1661-2.9642,1.411-5.53,2.9897-7.8114
			c1.5828-2.2903,3.5115-4.3286,5.6106-6.1403c2.1001-1.8139,4.2755-3.4889,6.4382-5.1399
			c2.1667-1.6512,4.3887-3.1967,6.6047-4.7758c0.4612-0.33,1.1025-0.2236,1.4325,0.2376s0.2236,1.1025-0.2375,1.4325
			C1076.8184,81.9618,1076.7833,81.9837,1076.7501,82.0023z"/>
	</g>
</g>
</svg>
