<?xml version="1.0" encoding="utf-8"?>
<!-- Generator: Adobe Illustrator 23.0.1, SVG Export Plug-In . SVG Version: 6.00 Build 0)  -->
<svg version="1.1" id="Layer_1" xmlns="http://www.w3.org/2000/svg" xmlns:xlink="http://www.w3.org/1999/xlink" x="0px" y="0px"
	 viewBox="0 0 97.752 91.24" style="enable-background:new 0 0 97.752 91.24;" xml:space="preserve">
<g>
	<g>
		<path style="fill:#71B1FC;" d="M78.0348,72.4131c1.6205-6.3334,2.0886-12.9598,1.3747-19.4581
			c-0.5705-5.1932-1.8844-10.2762-3.3748-15.2835c-1.6676-5.6025-3.5904-11.1996-6.7283-16.1314s-7.6176-9.1961-13.1411-11.1092
			c-0.7641-0.2646-1.6443-0.4741-2.3498-0.0789c-0.566,0.3171-0.8713,0.9449-1.1342,1.5381
			c-1.6428,3.708-2.9606,7.5598-3.9334,11.497c-0.2058-7.3298-4.8091-14.3656-11.443-17.4898
			c-0.8641-0.4069-1.7795-0.7564-2.7341-0.7856c-1.0506-0.0321-2.0795,0.3279-3.0067,0.8231
			c-4.7444,2.5339-6.8701,9.0412-4.5365,13.8872c-2.8686-2.3517-6.4493-3.8228-10.1426-4.1672
			c-3.1909-0.2975-6.6413,0.3307-8.9803,2.5215c-3.1797,2.9782-3.4289,8.2311-1.3833,12.0776s5.9229,6.4259,9.9922,7.9817
			c4.0693,1.5558,8.4101,2.2347,12.6436,3.2634c-4.0649,1.594-8.0636,3.3569-11.9823,5.2824
			c-1.4548,0.7149-3.0854,1.7115-3.2416,3.3249c-0.0948,0.9788,0.4045,1.911,0.9422,2.7343
			c2.9404,4.502,7.4038,7.753,11.7997,10.8496c3.9421,2.7768,7.9314,5.5251,12.265,7.6396
			c12.0224,5.866,26.5179,6.4295,38.9594,1.5146"/>
	</g>
	<g>
		<path style="fill:#6610EF;" d="M42.6537,32.4928c2.115,4.675,4.8323,9.0664,7.8909,13.1771
			c3.0583,4.1165,6.5852,7.8663,10.3529,11.2955c3.767,3.4352,7.6493,6.6595,11.505,9.8885
			c0.9844,0.7834,1.9538,1.5833,2.8924,2.4258c0.9706,0.8008,1.9141,1.64,2.8336,2.5205c0.9493,0.8392,1.8687,1.728,2.7626,2.6707
			c0.9053,0.9264,1.8212,1.8498,2.6428,2.9503l0.038,0.0509c0.5176,0.6934,0.3752,1.6751-0.3182,2.1928
			c-0.382,0.2852-0.8582,0.3684-1.2894,0.2712c-1.3558-0.3127-2.6174-0.8025-3.8895-1.2893
			c-1.2324-0.5463-2.4393-1.1466-3.6163-1.7964c-1.1535-0.6818-2.2831-1.405-3.3854-2.1665
			c-1.0791-0.7907-2.1276-1.6238-3.1607-2.4738c-4.1019-3.4422-7.7183-7.4352-10.9323-11.6869
			c-3.2133-4.2578-6.1502-8.6647-8.9807-13.1007c-2.8303-4.4417-5.427-8.9991-7.9919-13.5937
			c-0.4001-0.715-0.1449-1.619,0.5701-2.0192s1.619-0.1449,2.0192,0.5701C42.6167,32.4156,42.6369,32.4561,42.6537,32.4928z"/>
	</g>
</g>
</svg>
