<?xml version="1.0" encoding="utf-8"?>
<!-- Generator: Adobe Illustrator 23.0.1, SVG Export Plug-In . SVG Version: 6.00 Build 0)  -->
<svg version="1.1" xmlns="http://www.w3.org/2000/svg" xmlns:xlink="http://www.w3.org/1999/xlink" x="0px" y="0px"
	 viewBox="0 0 255 548" style="enable-background:new 0 0 255 548;" xml:space="preserve">
<style type="text/css">
	.st0{fill:#9B6FEF;}
	.st1{fill:#A5CAFA;}
	.st2{fill:#FAA76C;}
	.st3{fill:#325ADA;}
	.st4{fill:#6610EF;}
	.st5{fill:#F09A82;}
</style>
<g>
	<g>
		<g>
			<path class="st0" d="M259.8-12.9c12,42.3,15.6,89.3-3.7,128.7c-18.8,38.4-58,67.2-64.8,109.5c-1.8-11.4-11.9-19.6-16.2-30.2
				c-3.5-8.6-3.1-18.2-2.2-27.5c3.2-33.1,11.8-66.7,31.6-93.5c10.3-14,23.4-25.6,34.6-38.9C250.3,22,260,6.4,261.5-10.8"/>
		</g>
		<g>
			<path class="st1" d="M112.9,164c5.7-16.6,9.7-33.7,14.8-50.5c9.9-32,24.6-63.4,48.4-87.1s57.5-38.9,90.7-34.7
				c-10,19.3-20.1,38.7-32.3,56.7c-33,48.9-80.1,86.2-126.5,122.6"/>
		</g>
	</g>
</g>
<g id="Layer_3">
	<g id="talloNaranja">
		<g>
			<path class="st2" d="M203,367.7c5.7-13.9,14-26.5,21.5-39.4c7.6-13,13.6-26.5,18.9-40.6c11.1-29.6,21-59.8,25.2-91.2
				c0.6-4.5-6.2-6.4-6.8-1.9c-4.2,31.4-14.1,61.7-25.2,91.2c-5.5,14.7-12,28.5-20,42c-7.4,12.4-15,24.6-20.5,38
				C194.5,370.1,201.3,371.9,203,367.7L203,367.7z"/>
		</g>
	</g>
	<g id="talloAzul">
		<g>
			<path class="st3" d="M101.5,88.7c2.6-37,28.7-65.7,52.6-91.6c3.6-3.9-2.2-9.8-5.8-5.8c-25.6,27.7-52.3,58-55.1,97.5
				C92.9,94,101.2,94,101.5,88.7L101.5,88.7z"/>
		</g>
		<g>
			<path class="st3" d="M108.3,17.3c14.1-7.7,28.7-14.4,43.8-19.9c5-1.8,2.8-9.8-2.2-8c-15.8,5.8-31.1,12.7-45.8,20.7
				C99.5,12.7,103.7,19.8,108.3,17.3L108.3,17.3z"/>
		</g>
	</g>
	<g id="talloCeleste">
		<path class="st1" d="M94.5,216.9c14.1-9.3,27.1-20.4,38.8-32.6c2.9-3.1,5.7-6.3,8.5-9.4c2.7-3.2,5.4-6.5,8-9.8
			c2.5-3.4,5-6.8,7.5-10.2l7-10.5l6.5-10.8c2-3.7,4.1-7.3,6.2-11c1.9-3.7,3.9-7.4,5.8-11.1c1.8-3.8,3.6-7.5,5.5-11.3
			c1.7-3.8,3.4-7.6,5.2-11.4c1.6-3.9,3.3-7.7,5.1-11.5c1.6-3.9,3.3-7.7,5.1-11.6c1.6-3.9,3.3-7.8,5.3-11.6l0.1-0.1
			c0.7-1.3,2.2-1.8,3.5-1.1c1,0.5,1.5,1.5,1.4,2.6c-0.4,4.3-1.1,8.7-1.9,13c-1,4.2-2.1,8.5-3.2,12.7c-1.3,4.1-2.8,8.3-4.3,12.4
			c-1.7,4-3.4,8-5.2,12c-1.9,3.9-3.9,7.8-5.9,11.6c-2.2,3.8-4.4,7.5-6.6,11.3c-2.4,3.6-4.8,7.3-7.2,10.9l-7.7,10.5l-8.2,10.1
			c-2.9,3.2-5.7,6.5-8.6,9.8c-3,3.1-6,6.3-8.9,9.4c-3.1,3-6.2,6-9.2,9.1c-12.4,12-25.8,22.9-39.7,33c-1.2,0.8-2.8,0.6-3.6-0.6
			S93.2,217.8,94.5,216.9C94.4,217,94.5,217,94.5,216.9z"/>
	</g>
</g>
<g id="Layer_2">
	<g>
		<path class="st4" d="M59.1,258c-6.5,5.1-17.7,1.6-20.2-6.3c-0.4-1.3-0.6-2.6-1.4-3.7c-0.8-1.3-2.2-2-3.4-3
			c-5.2-4.4-5.3-13.5-0.1-17.9c2.3-1.9,5.6-3.4,5.9-6.4c0.3-2.2-1.3-4.1-2.4-6c-1.6-2.7-2.5-5.8-2.5-9c0-4.1,2.4-8.9,6.4-8.8
			c1.6,0.1,3.3,1,4.9,0.4c1.7-0.7,2.3-2.8,3.4-4.3c1.9-2.4,5.5-2.8,8.3-1.8c2.9,1,5.1,3.2,7.3,5.2c4.7-7.4,15-11.9,22.5-7.4
			c1.8,1.1,3.3,2.6,5.1,3.7c3.2,2,7.1,2.7,10.1,5.1c4.6,3.7,5.3,11.4,1.4,15.9c3.6,2.2,7.2,4.7,9.4,8.4c2.2,3.6,2.5,8.7-0.4,11.8
			c-0.7,0.8-1.7,1.5-2,2.6c-0.2,0.9,0.2,1.9,0.4,2.9c0.8,3.9-2.3,7.6-5.6,9.8s-7.2,3.7-9.9,6.6c-2.4,2.7-3.6,6.2-5.7,9.1
			s-6,5.2-9.2,3.7c-1-0.5-1.9-1.3-3-1.1c-1.1,0.2-1.7,1.5-2.6,2.2c-2.1,1.8-5.2,0.7-7.7-0.5c-2.5-1.2-5-2.4-6.9-4.4
			s-3.1-4.9-2.2-7.5"/>
		<path class="st1" d="M63.3,233c1.1,5.6,7.2,9.8,12.7,8.5s9.2-8.1,6.8-13.3c-0.9-1.9-2.3-3.4-3.7-4.8c-1.5-1.6-3.2-3.2-5.3-3.6
			c-2.5-0.5-5.1,0.9-6.8,2.9c-1.6,2-2.4,4.6-2.9,7.1"/>
	</g>
	<path id="hoja7" class="st1" d="M264.2,334.1c-5.6,1.1-11.6-0.2-16.3-3.4c-1.4-1-2.7-2.2-3.6-3.6c-0.6-1.1-1-2.3-1.3-3.5
		c-1.3-4.5-2.6-9.4-0.9-13.9c1.2-3.3,4-5.9,7.1-7.7c1.8-1,3.7-1.8,5.8-1.8c2.3,0,4.5,1.1,6.5,2.2c3.3,1.8,6.6,3.9,8.7,7
		c1.5,2.3,2.2,5.1,2.8,7.8c0.8,3.2,1.5,6.6,0.8,9.8c-0.6,3.2-3.1,6.4-6.4,6.8"/>
	<path id="hoja6" class="st1" d="M246.2,371.9c-3.5,0.5-7.1,0.7-10.6,0s-6.8-2.4-9-5.1c-1.9-2.3-2.9-5.3-3.6-8.2
		c-0.8-3.3-1.4-6.9-0.4-10.1c1.5-5.1,6.8-8.7,12.1-8.9c5.3-0.1,10.5,2.8,13.7,7.1c3.2,4.3,4.6,9.8,4.5,15.1c0,3.5-0.7,7.1-2.9,9.7"
		/>
	<path id="hoja5" class="st1" d="M220.3,409.7c-5.4,2.8-12.5,0.3-16.4-4.4c-3.9-4.7-5.3-11-5.7-17.1c-0.2-3.2-0.3-6.6,1.1-9.6
		c2.8-6.2,11.1-8.6,17.5-6.2c6.4,2.4,10.9,8.4,13.2,14.8c1.4,3.8,2.1,8,1.6,12c-0.6,4-2.5,8-5.8,10.4"/>
	<path id="hoja4" class="st1" d="M166.4,397.7c-4.6,0.2-9.3-1.6-12.5-4.9s-4.5-8.4-3.1-12.8c0.6-2,1.8-3.9,3.1-5.6
		c5.3-6.8,14.3-11,22.7-9.2c2.3,0.5,4.4,1.5,6.2,3c1.3,1.2,2.3,2.6,3.1,4.2c2.8,5.7,2.2,12.9-1.5,18c-3.7,5.1-10.3,8-16.6,7.2"/>
	<path id="hoja3" class="st1" d="M189.3,353.4c-5.2,1.2-10.9,0.8-15.7-1.6c-4.8-2.4-8.6-6.9-9.8-12.1s0.5-11.1,4.6-14.6
		c2.1-1.8,4.6-2.9,7.2-3.6c6.5-1.7,14.1-0.7,19,3.8c4,3.7,5.9,9.6,5.2,15.1c-0.8,5.5-4.1,10.5-8.6,13.6"/>
	<path id="hoja2" class="st1" d="M215.4,307.3c-5.5,4.8-13,7.6-20.2,6.1s-13.3-7.8-13.6-15c-0.1-1.5,0.1-3,0.7-4.4
		c0.8-2.2,2.5-3.9,4.2-5.4c5.3-4.8,12.3-8.5,19.3-7.1c5.1,1,9.6,4.8,11.3,9.7s0.8,10.7-2.5,14.7"/>
	<path id="hoja1" class="st1" d="M230.8,274.7c-4.7,1-9.5,2-14.3,1.5c-4.8-0.5-9.6-2.7-12.1-6.8c-1-1.7-1.6-3.6-2-5.5
		c-0.5-2-0.9-4-0.7-6c0.6-6.2,6.5-10.5,12.2-13c6-2.6,13.1-4,18.9-0.9c5.1,2.7,8.1,8.7,7.9,14.5c-0.2,5.8-3.5,11.2-8,14.8"/>
	<g id="brote4">
		<path class="st0" d="M120.4,34.9c6,12.7,16,23.5,28.3,30.4c1.8,1,3.7,2,5.7,2.1c3.6,0.3,6.9-1.9,9.9-4c1.7-1.2,3.4-2.4,4.4-4.2
			c1.4-2.5,1.3-5.6,0.2-8.3s-3-4.8-5.1-6.8c-10.3-9.8-24.6-15.3-38.8-14.7"/>
	</g>
	<g id="brote3">
		<path class="st0" d="M106.6,58c-1.7,13.4,1.6,27.4,9.3,38.6c2.4,3.5,5.3,6.8,8.9,9c3.6,2.2,8.1,3.2,12.2,2
			c7.4-2.2,11.1-11.2,9.7-18.8c-1.4-7.6-6.6-13.9-12.2-19.3c-6.8-6.5-14.4-12.1-22.6-16.6"/>
	</g>
	<g id="brote2">
		<path class="st0" d="M95.9,93.3c-5.9,8.4-14.6,14.4-23.9,18.5c-4.5,2-9.3,3.6-14.2,3.3c-4.9-0.3-9.9-3-11.9-7.5
			c-2.5-5.8,0.9-12.8,6.1-16.3s11.7-4.5,18-5.1c9.6-0.9,19.5-1.2,28.4,2.4"/>
		<path class="st0" d="M99.3,89.7c5.8,14.2,6.9,30.2,3.2,45c-1.7,6.9-4.7,13.9-10.4,18.2S77.6,158,72.5,153c-2.8-2.7-4-6.7-4.2-10.7
			c-0.3-7.4,2.9-14.4,6.4-20.8c5.9-10.8,12.9-20.9,20.9-30.3"/>
	</g>
	<g id="brote1">
		<path class="st0" d="M107.2,19.4c-2.6,8.4-7.4,16.4-14.6,21.4c-7.2,5.1-16.9,6.9-25,3.4c-1.2-0.5-2.5-1.2-3.3-2.3
			c-1-1.4-1.2-3.2-1.3-4.9c-0.2-2.6-0.2-5.2,0.6-7.6c1.2-3.7,4.2-6.6,7.6-8.5s7.3-2.8,11.1-3.7c5.1-1.2,10.1-2.5,15.2-3.7
			c3.1-0.8,6.5-1.5,9.5-0.4"/>
		<path class="st0" d="M103.3,16.1c-13.3,3.2-27.7,2-40.2-3.5c-2.6-1.1-5.3-2.6-6.5-5.2c-1.1-2.4-0.7-5.2-0.2-7.8
			c0.7-2.9,1.6-5.9,3.5-8.2c2.5-3,6.4-4.4,10.3-4.6c3.9-0.2,7.7,0.9,11.2,2.4C93-6.1,102.7,2.9,108.4,14"/>
	</g>
	<g id="dot6">
		<path class="st5" d="M144.6,55.4c4,2.4,10.5,0.6,12.1-4.1c1.6-4.8-2.1-9.3-6.4-11c-3.8-1.4-10-0.9-11.9,3.3
			c-2.3,4.8,3.3,9.8,6.9,12.1c4.5,2.8,8.7-4.3,4.2-7.1c-0.8-0.5-1.5-1-2.1-1.7c-0.3-0.3-0.5-0.6-0.8-0.9c-0.8-0.6,0-1.2-0.5,0.3
			c-0.4,0.6-0.7,1.2-1.1,1.8c0.6-0.7,2.5-0.2,3.1,0.3c0.6,0.4,0.8,1,1-0.2c0.2-1,0.5,0.2-0.3-0.1c-0.1,0,0,0.1-0.1,0.1
			C144.2,45.5,140,52.7,144.6,55.4L144.6,55.4z"/>
	</g>
	<g id="dot5">
		<path class="st5" d="M131.2,92.2c8.1-3.9,2.5-18.2-5.4-18.3c-4.6-0.1-7.7,3.8-7.1,8.2c0.6,4.1,3.6,7.5,6.9,9.8
			c1.8,1.3,4.6,0.3,5.7-1.5c1.2-2.1,0.3-4.4-1.5-5.7c-0.9-0.7-1.8-1.6-2.4-2.6c0.1,0.1-0.8-1.3-0.6-1.2c1,0.3-1.4,1.2-1.4,1.1
			c0-0.1,0.6,0.9,0.7,1.2c0.1,0.3,0.4,1.9,0.6,2c0,0.1,0,0.2,0,0.2c0.3-0.2,0.3-0.3,0.2-0.5c-2,1-2.5,3.8-1.5,5.7
			C126.7,92.7,129.2,93.2,131.2,92.2L131.2,92.2z"/>
	</g>
	<g id="dot4">
		<path class="st5" d="M82.6,143c4.2,1.2,8.6-0.6,10.7-4.5c1.8-3.4,3-9,0.5-12.3c-2.9-3.8-8.3-3.4-11.6-0.5c-1.5,1.3-2.7,3.1-3.3,5
			c-0.3,1.1-0.4,2.2-0.3,3.2c0.1,0.5,0.1,1,0.3,1.5c0.5,1.8-0.1,0,0.8-0.7c-1.7,1.4-1.5,4.4,0,5.8c1.7,1.7,4.1,1.4,5.8,0
			c1.7-1.4,2.2-3.7,1.7-5.7c-0.1-0.4-0.5-2.1-0.5-1.6c0.1-0.8,0.8-0.9,1.1-1.5c0.1-0.3,0.2,0,0.2-0.1c0-0.1-1.1-0.9-1.1-0.9
			c-0.3,0.2-0.3,2-0.4,2.4c-0.1,0.6-0.3,1.4-0.7,1.8c-0.5,0.5-0.4,0.2-0.9,0.1C79.7,133.6,77.5,141.6,82.6,143L82.6,143z"/>
	</g>
	<g id="dot3">
		<path class="st5" d="M60.9,105.3c3.7,2,7.9,2.3,11.8,0.8c3.8-1.5,7.5-5,7.3-9.5c-0.3-5.4-5.8-6.5-10.1-5.5c-4.2,1-7.9,3.8-9.1,8
			c-1.4,5.1,6.5,7.3,8,2.2c0.4-1.3,3.3-3.1,4.4-2.3c-0.5-0.5-1-1-1.5-1.5c-0.4-0.6,0.5-0.7-0.1-0.5c-0.2,0.1-0.5,0.5-0.7,0.6
			c-0.5,0.4-1.2,0.7-1.9,0.9c-1.4,0.4-2.8,0.3-4-0.4C60.4,95.6,56.2,102.7,60.9,105.3L60.9,105.3z"/>
	</g>
	<g id="dot2">
		<path class="st5" d="M81.7,37.8c4.1-0.1,8.5-2.7,8.6-7.3c0.1-4.5-4-8.1-8.5-6.6c-3.8,1.3-7.6,4.9-7.6,9.2c0.1,4.8,5.4,8.7,9.8,5.8
			c1.9-1.2,2.7-3.7,1.5-5.7c-1.1-1.8-3.8-2.7-5.7-1.5c1.6-1,1.7,0.7,2.6,1.2c0.4,0.2-0.8,0.9,0.2,0c-0.3,0.3,0.6-0.4,0.2-0.2
			c0.3-0.2,1.5-0.7,1.6-1c-0.3,0.6-2-0.2-2.3-0.7c-0.2-0.3-0.3-0.7-0.2-1.1c0-0.2,0.1-0.3,0.2-0.5c0.3-0.2,0.2-0.2-0.2,0.1
			c0.3-0.2,0.2-0.2-0.2,0c0.4,0,0.3,0-0.2,0c-2.2,0.1-4.1,1.9-4.1,4.1C77.6,35.8,79.5,37.8,81.7,37.8L81.7,37.8z"/>
	</g>
	<g id="dot1">
		<path class="st5" d="M71.9,8.3c3.6,2.9,8.8,4.4,12.6,0.7c1.6-1.5,2.5-3.6,2.3-5.8c-0.2-2.6-1.8-4.4-3.8-5.8
			c-3.5-2.5-9-5.8-12.7-2.1c-3.9,3.8-1.6,9.1,1.9,12.1c1.7,1.5,4.2,1.7,5.8,0c1.5-1.5,1.7-4.4,0-5.8c-0.3-0.3-1.2-1.4-1.6-1.5
			c0-0.1-0.1-0.1-0.1-0.2c0.3,1.2-0.5,1.9-2.3,1.9c0.2,0.3,1.3,0.6,1.5,0.8c0.7,0.4,1.4,0.8,2.1,1.2c0,0,1.4,0.9,1.3,1
			C78.7,5,78.6,2.6,78.8,3c0-0.1-0.8-0.4-1.1-0.6c-1.7-1.4-4.1-1.7-5.8,0C70.5,3.8,70.1,6.9,71.9,8.3L71.9,8.3z"/>
	</g>
</g>
</svg>
