<svg xmlns="http://www.w3.org/2000/svg" viewBox="0 0 218 217">
  <style>
    #violet{
      animation-name: violetChange;
		  animation-duration: 4s;
		  animation-delay: 2.85s;
      animation-fill-mode: forwards;
      animation-timing-function: linear;

    }
    @keyframes violetChange{
      35%{
        fill: #6610ef;
      }
      75%{
        fill: #6536ca;      
      }
      100%{
        fill: #9b6fef;
      }
    }


    #blue{
      animation-name: blueChange;
		  animation-duration: 3s;
		  animation-delay: 2.5s;
      animation-fill-mode: forwards;
      animation-timing-function: linear;

    }
    @keyframes blueChange{
      35%{
        fill: #71b1fc;
      }
      75%{
        fill: #1177d0;      
      }
      100%{
        fill: #a5cafa;
      }
    }


    #orange{
      animation-name: orangeChange;
		  animation-duration: 2.5s;
		  animation-delay: 2s;
      animation-fill-mode: forwards;
      animation-timing-function: linear;

    }
    @keyframes orangeChange{
      35%{
        fill: #f09a82;
      }
      75%{
        fill: #ff9c6e;      
      }
      100%{
        fill: #faa76c;
      }
    }

  </style>

  <path id="violet" d="M-2.0156-16.7684c38.7594 13.4152 76.7569 35.7169 96.6735 71.572 19.3955 34.917 20.5166 80.3334 49.232 108.0968-9.6643-4.7361-21.3384-1.3584-31.839-3.7184-8.4613-1.9016-15.6161-7.3956-22.2235-13.0128-23.6913-20.1407-44.7994-44.6551-54.7237-74.1242-5.1729-15.3604-7.1597-31.5972-11.2997-47.2675S12.9187-6.6021.4824-16.9962" fill="#9b6fef"/>
  <path id="blue" d="M55.0009 190.2136c-9.6784-13.2291-20.6927-25.422-30.7793-38.3427C4.9553 127.1911-11.1536 99.1607-16.634 68.3346s.8895-64.7971 21.8855-88.0232c9.441 18.004 18.9043 36.0567 26.2223 55.0231C51.3029 86.7264 54.6788 142.76 57.8382 197.754" fill="#a5cafa"/>
  <path id="orange" d="M202.5274 117.4822c-27.8813-8.8268-54.6147-21.2721-79.3181-36.9252-6.2104-3.9352-12.3929-8.1624-16.9926-13.8981-3.3623-4.1928-5.7666-9.0539-8.5683-13.6402-3.4332-5.6201-7.5025-10.8748-12.3046-15.3817-11.5102-10.803-26.5645-16.7966-40.6421-23.9386S16.5145-2.7171 9.8596-17.0314c9.3247 5.1729 18.7598 10.3916 29.038 13.2318C47.7954-1.3408 57.0817-.7331 66.2057.6706c28.5221 4.3882 55.7626 16.8185 77.7684 35.4869 5.1008 4.3272 9.9341 8.9905 14.1967 14.1455 4.0879 4.9438 7.6284 10.311 11.1601 15.6663L183.2795 87.12c6.6126 10.027 13.2348 20.0698 18.9453 30.6366" fill="#faa76c"/>
</svg>
