<?xml version="1.0" encoding="utf-8"?>
<!-- Generator: Adobe Illustrator 23.0.1, SVG Export Plug-In . SVG Version: 6.00 Build 0)  -->
<svg version="1.1" id="Layer_1" xmlns="http://www.w3.org/2000/svg" xmlns:xlink="http://www.w3.org/1999/xlink" x="0px" y="0px"
	 viewBox="0 0 317 327" style="enable-background:new 0 0 317 327;" xml:space="preserve">
<style type="text/css">
	.st0{fill:#9B6FEF;}
	.st1{fill:#F09A82;}
	.st2{fill:#A5CAFA;}
	.st3{fill:#FAA76C;}
	.st4{fill:#6610EF;}
</style>
<g id="hoja1">
	<path class="st0" d="M31.9,49.7c3,10.7,5.9,21.3,8.9,32c1.9,6.6,3.7,13.4,3.5,20.3c-0.4,11.6-6.8,22.6-6.1,34.2
		c0.5,9.5,5.6,17.9,8.9,26.8c3.9,10.5,5.4,21.7,6.8,32.8c0.7,5.5,1.4,11.2,0.7,16.7c-0.7,4.7-2.4,9.2-4.1,13.6
		c-13.3,33.1-29.7,65.1-48.8,95.2c14.9-39,8.8-82.9-2.6-123.1c-2.3-8.3-4.9-16.7-5-25.3c-0.1-6.8,1.4-13.5,3-20
		c4.3-17,9.7-33.7,16.3-50c3.6-8.9,7.6-17.7,10.5-26.8c4-12.5,5.9-25.7,5.6-38.9"/>
	<path class="st1" d="M29.9,35.9C18.6,47.1,11.2,61.8,1.3,74.4c-12.4,15.8-29,28.6-38.7,46.2c-14.4,26.1-11.2,58.8,0.4,86.2
		c6.2,14.7,14.7,28.4,21.3,43c10.5,23.3,16.1,48.8,16.2,74.4c7.6-3.9,10.7-13,12.8-21.3c7-27,12.4-55.3,6.9-82.7
		C16.4,201.1,7.2,183,5.7,163.5C4.1,142,12,121,19.2,100.6s14-42,10.1-63.2"/>
</g>
<path id="hoja2" class="st2" d="M148.6,70.5c-19.3,9.5-37.6,21-53.7,35.3c-10.6,9.5-20.2,20.1-29.7,30.7
	c-8.2,9.1-16.4,18.2-23.4,28.2c-15.1,21.6-24.4,46.8-30.3,72.5s-8.2,52-10.7,78.3c1.9,0.1,3.3-1.6,4.4-3.2
	c12.3-18.5,13.3-42,20.3-63.1c6.8-20.6,19.6-39.1,36.4-52.7c12.5-10.1,26.9-17.5,40.6-25.9s27-18.4,35.5-32
	c12.2-19.6,13-44.4,8.8-67.1"/>
<path id="hoja3" class="st3" d="M177.7,160.5c-15.3,24.9-33.8,47.9-54.9,68.1c-5.3,5.1-10.9,10.1-17.6,13.2
	c-4.9,2.3-10.2,3.4-15.3,5c-6.3,2-12.4,4.7-17.9,8.2c-13.3,8.6-22.7,21.8-33,33.7s-22.7,23.4-38.2,26.4c7.3-7.8,14.6-15.7,19.8-25
	c4.5-8,7.3-16.9,10.9-25.4c11.1-26.6,29.7-50.1,53.1-67c5.4-3.9,11.1-7.5,17.1-10.4c5.8-2.8,11.8-4.9,17.9-7.1
	c8-2.8,15.9-5.6,23.9-8.5c11.3-4,22.7-8,34.3-11"/>
<g id="hoja4">
	<path class="st4" d="M259.7,250.2c-9.1-1-18.2-1.9-27.4-2.9c-16-1.7-32.1-3.4-48.2-2.5c-31.6,1.8-62.7,13.7-94,9.6
		c-8.2-1.1-16.3-3.3-24.6-3.5c-17.7-0.6-35.2,8-46.7,21.4S1.6,303.7,1.7,321.4c9.9-11.9,20.4-24.1,34.5-30.5
		c17.8-8,38.3-5.3,57.7-3.6c12.6,1.1,25.3,1.6,37.9,1.7c6.8,0,13.6-0.1,20.2-1.6c7.4-1.7,14.3-5,21.3-8.1
		c27.6-12.4,56.5-21.8,86.1-28"/>
	<path class="st2" d="M259.7,251.4c-16.4,15.6-34.5,36.6-53.1,49.4c-5.5,3.8-11.3,7.4-17.6,9.5c-21.9,7.4-45.5-3.4-68.6-2.9
		c-18.6,0.4-36.3,8.2-54.8,9.2c-10.8,0.6-21.6-1.1-32.4-1.4s-22.1,1.2-31,7.4c2.1-7.8,7.6-19.1,14.2-23.7
		c24.1-16.6,43.8-22,72.8-25.3c28.3-3.3,67.3,0.9,93.7-9.7c6.6-2.6,12.8-6.2,19.6-8.3c7.9-2.4,16.2-2.7,24.4-3.1
		C238,252.1,249,249,259.7,251.4"/>
</g>
</svg>
