<svg id="Layer_1" xmlns="http://www.w3.org/2000/svg" viewBox="0 0 1776.1821 348.6426">
  <style>
    .st0{fill:#a5cafa}.st2{fill:#325ada}.st3{fill:#ff9c6e}.st6{fill:#6610ef}.st9{fill:#f09a82}.st11{fill:#71b1fc}.st38{fill:#9a6fee}.st63{fill:#1856c2}.st64{fill:#6536c9}.st65{fill:#325ad9}
  </style>
  <path class="st63" d="M606.553 166.9081l-43.7579-39.7157c-9.1049-8.2638-18.3563-16.7061-24.5406-27.3336-10.4049-17.8803-11.2441-40.4315-23.2281-57.2942-9.7707-13.7484-25.5002-21.7127-38.9185-31.9319-15.8627-12.0808-28.734-27.5775-41.4567-42.9302-6.3467-7.6587-12.7708-15.4396-16.8457-24.5133-3.4586-7.7013-5.1049-16.0737-6.6225-24.3784-11.4363-62.5831-17.0648-126.2263-16.7895-189.8452 14.6314 72.9641 65.4795 133.3262 120.7559 183.1495 11.4272 10.2999 23.2819 20.4889 31.6138 33.4213 6.5295 10.1349 10.659 21.6039 14.4172 33.0593A658.7343 658.7343 0 0 1 583.972 69.429c2.9767 16.8685 5.3021 33.8854 9.6226 50.4606 5.912 22.6807 15.5591 44.3833 28.435 63.9685"/>
  <path class="st9" d="M622.6794 185.8556c6.4521-27.8001 3.6033-56.8559 6.5455-85.2429 3.6982-35.6811 16.5623-70.5709 14.4814-106.3827-3.0754-52.9274-38.946-99.3438-82.461-129.6294-23.4144-16.296-49.2027-28.8964-72.9886-44.6453-37.9532-25.1293-70.5669-58.2817-95.071-96.6416-7.867 13.0651-3.727 29.7654.8979 44.298 15.0706 47.3557 33.8337 95.1651 68.1502 131.1103 24.0694 25.2118 55.0473 43.7417 75.788 71.756 22.8921 30.9202 30.9089 70.0088 39.3332 107.5473s18.7198 76.5572 44.7291 104.9055"/>
  <path class="st64" d="M1501.5635-87.7308c13.7777 47.8784 18.1962 101.2139-3.4904 146.0677-21.1191 43.6802-65.4452 76.5511-72.9421 124.4862-2.0536-12.9108-13.5715-22.1443-18.5701-34.2242-4.0277-9.7339-3.5737-20.6821-2.6147-31.1727 3.4388-37.6147 13.028-75.722 35.3588-106.1856 11.6396-15.8787 26.3776-29.2056 39.0474-44.2752 12.6697-15.0696 23.5563-32.7539 25.1842-52.3744"/>
  <path class="st0" d="M1335.8468 113.6327c6.3722-18.8635 10.7811-38.3294 16.5616-57.3826 11.0413-36.3936 27.6184-71.994 54.4043-98.9925s64.9819-44.4257 102.7327-39.8121c-11.2809 21.9666-22.5946 43.9893-36.316 64.5201-37.1796 55.6309-90.4745 98.1655-142.8882 139.7579"/>
  <path class="st9" d="M1653.1744.524c-4.2385 18.1992-8.5109 36.5032-15.797 53.7103-7.2863 17.2072-17.8145 33.4301-32.6328 44.8139-9.1222 7.0079-19.743 12.0552-30.9376 14.7024-1.9043.4503-3.9303.8274-5.7888.215-4.9636-1.6357-5.2827-8.4438-4.6476-13.6312 1.1089-9.0554 2.2177-18.1109 3.3264-27.1663-5.6073 12.055-12.5162 25.3075-25.1666 29.3982-9.7629 3.157-20.5391-.1847-29.3402-5.4594-1.5143-.9076-3.1534-2.1259-3.2772-3.887-.0894-1.2714.6583-2.4352 1.3955-3.4749 8.7256-12.3048 20.4752-22.4484 33.9215-29.285-13.5974 8.6525-33.8534 4.1102-42.4541-9.52-3.7692-5.9732-5.2375-14.1115-1.3081-19.9806 2.0947-3.1288 5.4303-5.2082 8.8473-6.7898 9.0609-4.1938 19.4376-5.4879 29.251-3.6478L1507.895 5.3147c-.9381-.4651-1.9498-1.0061-2.3533-1.9724-.3904-.9349-.097-2.0027.2368-2.9593 5.8011-16.6182 22.7158-27.4722 40.0557-30.4961 17.34-3.0238 35.1298.534 52.1177 5.1412 18.5106 5.0201 36.8947 11.4076 52.9347 21.9226"/>
  <path class="st6" d="M1551.7042 38.4698c9.6726-6.1613 19.5593-11.9624 29.7737-17.1896 10.2117-5.2214 20.6719-10.0294 31.4402-14.1867 10.7639-4.157 21.9065-7.4568 33.2874-9.5868 2.8511-.4921 5.7085-.9583 8.5728-1.3639a227.5133 227.5133 0 0 1 8.6455-.7866 184.041 184.041 0 0 1 8.6836-.1402c2.9019.1519 5.7949.2947 8.6821.6711.959.1251 1.6353 1.0041 1.5103 1.9633-.0947.7284-.6245 1.2936-1.2939 1.4687l-.0645.0163c-2.7959.7282-5.5864 1.2229-8.3682 1.7267a178.039 178.039 0 0 1-8.3184 1.5153 215.7512 215.7512 0 0 1-8.2886 1.4614c-2.7515.5387-5.5093 1.0164-8.2734 1.4689-11.0137 2.0336-21.9785 4.4356-32.8386 7.4355-10.8562 2.9998-21.5386 6.8039-31.7983 11.5709-10.2566 4.761-20.1704 10.3248-29.4329 16.8251-.7805.5477-1.8572.359-2.4048-.4214-.5476-.7804-.3589-1.857.4214-2.4047a1.6159 1.6159 0 0 1 .0646-.0433z"/>
  <path class="st11" d="M1534.2291 236.7024c-7.9969 1.224-15.7584-4.9174-18.6693-12.4657-2.9109-7.5482-1.9349-16.0385.0706-23.876 1.0679-4.1734 2.4979-8.4214 5.4376-11.5704 6.1552-6.5932 17.5739-6.0383 24.5813-.3592 7.0073 5.6791 10.0646 15.103 10.25 24.1208.111 5.3946-.707 10.8958-3.1208 15.7215-2.4138 4.8257-6.5438 8.9237-11.6724 10.6001M1582.6785 200.2921c-4.597-.8658-9.1748-2.159-13.2087-4.5275-4.0341-2.3685-7.5096-5.9022-9.1401-10.2867-1.3967-3.7556-1.3765-7.8818-1.0573-11.8759.3608-4.5146 1.15-9.1789 3.7469-12.8894 4.0579-5.798 12.1779-8.0396 18.9404-5.9538s11.995 7.97 14.1885 14.6984c2.1935 6.7284 1.5765 14.1638-.7736 20.8391-1.5187 4.314-3.913 8.5616-7.8157 10.946M1664.339 117.4795c-5.8705 1.3966-12.2302-1.2797-16.2284-5.7994-3.9982-4.5197-5.8719-10.6037-6.3312-16.6205-.4592-6.0168.3839-12.0484 1.225-18.0238.5128-3.6425 1.4023-7.837 4.6877-9.4912 1.2407-.6247 2.6619-.7769 4.0497-.8349 6.8301-.2856 13.7335 1.5188 19.5504 5.1098 2.0165 1.2449 3.9332 2.7283 5.3037 4.6617 2.5303 3.5697 2.9077 8.2006 2.95 12.5759a115.5266 115.5266 0 0 1-.6909 13.7754c-.3785 3.4322-.9406 6.9353-2.6406 9.9407s-4.764 5.4514-8.2162 5.5224M1471.8579 198.707c-5.853-1.7198-11.0336-5.9126-13.507-11.4891-2.4735-5.5765-2.0184-12.4661 1.5475-17.4158 1.6506-2.2912 3.8752-4.1153 6.2424-5.655 9.5297-6.1981 22.5714-7.7662 32.2782-1.8494 2.6086 1.5901 4.9506 3.7056 6.4622 6.3606 1.1395 2.0016 1.7808 4.2608 2.073 6.5455 1.0607 8.2914-2.7432 17.0271-9.5356 21.899-6.7925 4.8719-16.2866 5.674-23.8002 2.0109M1519.3728 152.9664c-7.061-.6966-13.9906-3.6111-18.9872-8.6488s-7.8937-12.2602-7.142-19.3156c.7516-7.0554 5.3702-13.7161 11.9569-16.354 3.3303-1.3338 7-1.6442 10.5793-1.4025 8.9174.602 17.953 5.0497 22.2128 12.9068 3.4792 6.4174 3.3439 14.5434.0566 21.0612-3.2874 6.5178-9.5275 11.3697-16.5364 13.41M1604.8198 71.9688c-6.3177-.7453-12.7535-1.5228-18.5413-4.1633-5.7876-2.6405-10.928-7.4954-12.2605-13.7158-.54-2.5214-.4375-5.1347-.208-7.703.2384-2.6685.6238-5.37 1.738-7.8064 3.4347-7.5102 12.6107-10.4036 20.8441-11.0448 8.5997-.6697 18.1213.5899 24.0576 6.8479 5.2715 5.5572 6.496 14.3133 3.7305 21.4563-2.7656 7.143-9.1063 12.5981-16.3296 15.1468M1571.655 106.3167c-8.8871 3.7121-19.5525 3.9212-27.8451-.977s-13.3848-15.3978-10.6094-24.6205c.568-1.8874 1.4438-3.7003 2.7157-5.2061 1.9733-2.3361 4.7727-3.8048 7.5809-5.0152 8.6273-3.7188 18.9967-5.4011 27.1639-.7581 5.969 3.3933 9.9369 10.0558 10.0771 16.9205s-3.5521 13.6837-9.3776 17.318M1621.3224 160.5206c-7.4971-.9973-14.5237-5.1467-19.0173-11.2301-1.3475-1.8243-2.491-3.8551-2.922-6.0817-.3168-1.6364-.239-3.3202-.1587-4.985.3007-6.2334.7881-12.9249 4.7094-17.7797 2.9668-3.6729 7.5471-5.7453 12.1844-6.6322 2.6531-.5074 5.4586-.6566 8.0028.2506 2.8795 1.0267 5.1244 3.2849 7.1971 5.532 3.3674 3.6508 6.6614 7.6437 7.8749 12.4598.8978 3.5639.5836 7.3077.2349 10.9664-.4155 4.3587-.9185 8.8618-3.1115 12.6514-2.1931 3.7896-6.5514 6.6851-10.8381 5.7939"/>
  <path class="st3" d="M1530.2319 177.7845c20.6353-23.7524 47.4486-41.0064 68.6388-64.2235 21.483-23.5381 41.3346-49.3072 59.1903-75.6886 10.3575-15.303 19.8306-31.1826 28.0323-47.747 2.9449-5.9477-5.9762-11.1958-8.934-5.2221-14.2131 28.7051-32.2948 55.251-51.9075 80.512-9.8759 12.7201-19.9592 25.366-30.6377 37.425-10.2455 11.5701-21.6171 21.8542-33.3817 31.8444-13.3383 11.3264-26.8085 22.5371-38.3167 35.7837-4.3484 5.0056 2.9396 12.3539 7.3162 7.3161z"/>
  <path class="st65" d="M1705.876 2.6553c-14.0675 2.7851-27.6245 8.128-39.8098 15.6891-9.7379 6.0425-18.5544 13.452-27.0542 21.1392-9.5101 8.601-18.7678 17.7018-25.5593 28.5782-6.7916 10.8763-10.9928 23.7764-9.553 36.5179.1991 1.7625.6174 3.7027 2.067 4.725 1.1631.8202 2.6946.8304 4.1172.7893a152.7425 152.7425 0 0 0 26.475-3.0931c-14.3115 7.3423-23.8807 23.1093-23.7872 39.1941.0121 2.0951.1865 4.2374 1.032 6.1543.9304 2.1096 2.6165 3.8053 4.4736 5.1717 9.5035 6.9921 24.3931 5.0424 31.776-4.1609-1.9402 7.9021-1.4639 16.3804 1.3489 24.0156 2.4302 6.5966 6.9379 12.8307 13.4866 15.387 8.9026 3.4751 19.5343-1.0016 25.2113-8.6894 5.6771-7.6877 7.1135-17.8015 6.3425-27.3271s-3.5344-18.7586-5.5038-28.1102a346.2346 346.2346 0 0 0 21.791 18.7161c2.7913 2.2029 6.3064 4.487 9.6473 3.2697 2.0267-.7385 3.3993-2.6085 4.5199-4.4517 6.1278-10.0787 8.339-21.988 10.3082-33.6177 1.7659-10.429 3.4304-20.9243 3.515-31.5014.2346-29.3431-12.3646-58.5641-33.8629-78.5367"/>
  <path class="st6" d="M1661.5531 111.3789c7.1143-8.7999 13.3379-18.3134 18.7842-28.2232 5.4521-9.9126 9.9722-20.3121 13.7021-30.9397 3.73-10.6316 6.8706-21.4079 9.647-32.2583.6392-2.7269 1.3027-5.4462 2.0269-8.1546a215.6836 215.6836 0 0 1 2.021-8.1703 177.69 177.69 0 0 1 2.0762-8.1965c.6914-2.7409 1.374-5.4914 2.2905-8.2318l.0205-.0616c.3071-.9174 1.2993-1.4125 2.2168-1.1057.6968.2329 1.1494.8626 1.1929 1.5532.1797 2.906.1255 5.8018.0801 8.7074a183.897 183.897 0 0 1-.729 8.6542 228.0065 228.0065 0 0 1-1.3716 8.5723c-.5991 2.83-1.2583 5.6491-1.9429 8.4605-2.897 11.21-6.9458 22.1028-11.8237 32.5599-4.8784 10.4613-10.3853 20.5711-16.2876 30.4048-5.9087 9.8362-12.3672 19.3063-19.1709 28.5385-.5649.7677-1.646.9317-2.4136.3663-.7676-.5654-.9316-1.646-.3662-2.4137a2.1335 2.1335 0 0 1 .0473-.0617z"/>
  <path class="st0" d="M1673.5863 225.1235c14.1001-12.604 26.5371-27.046 37.4141-42.4945 10.9312-15.4311 19.8979-32.1704 27.3066-49.4252 7.3975-17.2779 13.4873-34.9552 18.8066-52.8095.6045-2.2498 1.2158-4.4972 1.8652-6.7343.625-2.2439 1.2959-4.4759 1.9805-6.706a302.632 302.632 0 0 1 3.7915-13.4895c1.1519-4.5288 2.4365-9.0454 3.8589-13.5669 1.2231-4.5531 2.5444-9.113 4.2358-13.6753l.0581-.1559c.6626-1.7875 2.6489-2.6993 4.436-2.0367 1.2944.4798 2.1289 1.6569 2.2397 2.9465.4136 4.9026.457 9.8077.4019 14.7196-.2798 4.8763-.6987 9.7575-1.25 14.6265a328.0225 328.0225 0 0 1-2.5684 14.4483c-.5791 2.3749-1.1729 4.748-1.812 7.1091-.6147 2.3679-1.2671 4.7258-1.9277 7.0807-5.6006 18.759-13.6309 36.7369-23.293 53.6447-9.6514 16.9307-20.6865 32.9111-32.4468 48.2191-11.8125 15.2895-24.7598 29.6051-38.4458 43.227-1.3262 1.3212-3.4722 1.3174-4.793-.0085-1.3213-1.3259-1.3179-3.4719.0083-4.7931a4.6084 4.6084 0 0 1 .1335-.1261z"/>
  <path class="st6" d="M1641.7279 276.8226c-6.3569 6.7067-19.2841 4.7472-23.3679-3.5422-.6591-1.3378-1.1288-2.807-2.1263-3.9156-1.1299-1.2556-2.7799-1.8783-4.2252-2.7525-6.51-3.9377-8.1018-14.0582-3.1149-19.8042 2.1913-2.5248 5.5712-4.7139 5.4719-8.0555-.0732-2.4696-2.0883-4.3611-3.6423-6.2818-2.2061-2.7264-3.6884-6.0329-4.256-9.4938-.7346-4.4791 1.1222-10.2546 5.6331-10.7587 1.8267-.2041 3.8344.5164 5.4297-.3965 1.8132-1.0377 2.0193-3.5223 3.0381-5.3461 1.6525-2.958 5.5618-4.0242 8.8878-3.3779 3.326.6462 6.2119 2.6333 8.9897 4.5733 3.9487-8.9579 14.5947-15.705 23.652-11.9898 2.1805.8945 4.1122 2.3111 6.2708 3.2576 3.8748 1.699 8.3643 1.8356 12.0177 3.9694 5.7231 3.3426 7.7555 11.7113 4.203 17.3066 4.3567 1.8804 8.8065 4.0082 11.8318 7.6638 3.0254 3.6556 4.2102 9.2586 1.5242 13.1703-.688 1.002-1.6309 1.9416-1.7292 3.1531-.0876 1.0799.5262 2.0727.8948 3.0916 1.519 4.2002-1.2156 8.7805-4.5371 11.7665-3.3217 2.986-7.399 5.2542-9.8906 8.9612-2.2445 3.3394-2.9418 7.4775-4.7869 11.053s-5.735 6.7788-9.5856 5.6116c-1.1486-.3481-2.3271-1.069-3.4606-.6743-1.2258.4269-1.667 1.8977-2.5055 2.8886-1.9785 2.3377-5.6826 1.6546-8.6136.7665-2.9321-.8885-5.9354-1.8127-8.3647-3.6796s-4.1997-4.9086-3.6892-7.9296"/>
  <path class="st0" d="M1642.1145 248.4632c2.155 6.0036 9.5806 9.6603 15.514 7.3193 5.9336-2.341 8.786-10.5422 5.2563-15.8552-1.2675-1.9078-3.1285-3.3285-4.9541-4.7119-1.9358-1.467-4.0326-2.9953-6.4585-3.1177-2.874-.145-5.5435 1.8152-6.9821 4.3075s-1.8529 5.437-2.0385 8.3087"/>
  <path class="st6" d="M863.3192 134.2632c6.3291-17.8217 10.3176-36.4589 12.4543-55.2312 2.1924-18.7828 2.0339-37.7718.2612-56.4661-1.7939-18.7091-4.9265-37.1417-8.8203-55.3601-.5483-2.2641-1.0898-4.5293-1.5925-6.8039-.5278-2.2687-1.0093-4.549-1.4775-6.8345a302.0502 302.0502 0 0 1-3.1416-13.6555c-1.1611-4.5264-2.1997-9.1058-3.1194-13.7558-1.1101-4.5819-2.1372-9.217-2.8408-14.0316l-.0239-.1646c-.2756-1.8863 1.03-3.639 2.9163-3.9146 1.3657-.1996 2.6626.4332 3.3784 1.5116 2.7136 4.1039 5.104 8.3875 7.4111 12.7241 2.0925 4.4134 4.0659 8.8975 5.9167 13.4346a328.1316 328.1316 0 0 1 4.6746 13.9104c.6306 2.3618 1.2478 4.7288 1.8188 7.1073.5962 2.3726 1.1543 4.7546 1.7039 7.138 4.0806 19.1472 5.6553 38.7738 5.2842 58.2442-.3503 19.4852-2.3711 38.8001-5.3503 57.8727-3.0339 19.0813-7.5308 37.8523-13.0088 56.3688-.53 1.7952-2.4148 2.8209-4.2102 2.291-1.7952-.53-2.8208-2.4149-2.291-4.2101a4.0966 4.0966 0 0 1 .0568-.1747z"/>
  <path class="st6" d="M860.1536 194.9077c-2.3623 8.9336-14.6459 13.4131-22.2045 8.0973-1.2199-.8579-2.3366-1.9219-3.7436-2.4164-1.5936-.56-3.3401-.3152-5.0276-.3893-7.601-.3337-13.8509-8.4513-12.2302-15.885.7122-3.2664 2.6284-6.8081.939-9.6929-1.2486-2.132-3.9238-2.8256-6.2086-3.7658-3.2432-1.3346-6.1296-3.5254-8.2872-6.2902-2.7925-3.5782-3.9327-9.5368-.2159-12.1422 1.5051-1.0551 3.6124-1.3855 4.5745-2.9517 1.0936-1.7801.0829-4.0592.1024-6.1483.0316-3.3881 2.9509-6.1983 6.1795-7.2262 3.2286-1.0279 6.7138-.668 10.0817-.2976-.8304-9.7543 5.2762-20.7802 15.0057-21.8632 2.3425-.2607 4.7168.0561 7.0649-.1484 4.2149-.3672 8.2202-2.4001 12.4493-2.2796 6.6251.1888 12.4216 6.5579 11.9873 13.1715 4.7247-.439 9.65-.7056 14.0577 1.0515s8.1343 6.1057 7.653 10.8264c-.1233 1.2092-.5001 2.4859-.0055 3.5961.4409.9896 1.4557 1.5665 2.2677 2.2839 3.3471 2.9573 3.1438 8.288 1.6609 12.5011-1.4828 4.2131-3.9733 8.1588-4.3821 12.6065-.3683 4.0067 1.0042 7.9724 1.0996 11.9948s-1.782 8.6987-5.7206 9.5209c-1.1748.2452-2.5547.1779-3.36 1.0677-.871.9625-.5528 2.4646-.8135 3.7363-.6151 3.0002-4.1931 4.1769-7.191 4.8031-2.9991.6264-6.0778 1.2555-9.1048.7822-3.027-.4733-6.0392-2.2935-7.0398-5.1894"/>
  <path class="st0" d="M846.8937 169.8362c4.7699 4.2349 13.0396 3.883 17.1238-1.0166s2.6546-13.4641-2.9905-16.4339c-2.027-1.0664-4.3415-1.4206-6.6068-1.7592-2.4022-.359-4.975-.6946-7.1625.3612-2.5916 1.2509-3.9941 4.2511-4.0614 7.128-.0672 2.8769.9813 5.6596 2.1956 8.2686"/>
  <path class="st2" d="M1305.8033 121.29c-3.0234-48.3333 25.7892-89.6271 52.3973-127.2192 4.4354-6.2663-5.8844-12.2204-10.2806-6.0093-27.8337 39.3236-57.1809 82.7444-54.0229 133.2285.4761 7.6107 12.3857 7.6645 11.9062 0z"/>
  <path class="st2" d="M1301.6505 28.8222a423.2903 423.2903 0 0 1 54.0372-33.5245c6.7983-3.5405.7852-13.8192-6.0094-10.2807a423.2973 423.2973 0 0 0-54.0372 33.5245c-6.1279 4.472-.1936 14.8075 6.0094 10.2807z"/>
  <path class="st9" d="M1298.6536 127.4607c-6.1219 11.6962-16.3301 20.8482-27.5989 27.725-5.4323 3.315-11.3497 6.2165-17.7 6.6328s-13.2225-2.13-16.4623-7.6075c-4.1451-7.0082-.9825-16.5232 5.0782-21.9605 6.0608-5.4373 14.2605-7.709 22.2007-9.5121 12.1064-2.7492 24.8311-4.7909 36.8364-1.6294"/>
  <path class="st9" d="M1302.4152 122.2747c9.746 17.2122 13.8805 37.5435 11.6312 57.1951-1.0475 9.151-3.6968 18.5993-10.2192 25.1026-6.5226 6.5034-17.756 8.9269-25.095 3.3613-4.0275-3.0542-6.3099-7.9751-7.1686-12.9561-1.616-9.3753 1.3047-18.9087 4.7433-27.779a228.1356 228.1356 0 0 1 21.6997-42.2742M1306.5674 80.4551c.0414 17.4981 6.7014 34.9015 18.3525 47.9567 3.6577 4.0985 7.8744 7.8366 12.9061 10.0408s10.9813 2.7292 15.9995.4943c9.1412-4.0712 12.4039-16.2367 9.3318-25.7603s-10.8448-16.7463-18.9231-22.6522c-9.7965-7.1621-20.5061-13.0741-31.787-17.5472M1320.3854 48.4875c9.8489 15.261 24.4891 27.3801 41.321 34.2053 2.4526.9946 5.0327 1.8928 7.6759 1.7578 4.6906-.2396 8.5498-3.6082 11.9989-6.796 1.9451-1.7977 3.9452-3.6719 4.9812-6.1094 1.4454-3.4007.7391-7.434-1.1069-10.6349-1.8461-3.2009-4.7064-5.6897-7.6873-7.8732-14.8285-10.8621-34.1152-15.4331-52.2413-12.3811M1300.7682 30.8729c-1.9053 11.2049-6.7153 22.198-15.0801 29.8929-8.3649 7.6949-20.5767 11.6208-31.5037 8.4934-1.6727-.4788-3.3584-1.149-4.5635-2.404-1.5267-1.5898-2.0574-3.8643-2.4772-6.0281-.6295-3.2456-1.1481-6.5894-.5634-9.8433.892-4.9636 4.299-9.1897 8.3856-12.1447 4.0867-2.955 8.8457-4.8117 13.5468-6.6373l18.8896-7.3355c3.8829-1.5078 8.0715-3.0402 12.1182-2.0527"/>
  <path class="st9" d="M1295.269 27.2581c-16.5344 6.3574-35.1526 7.1524-52.1688 2.2276-3.5227-1.0195-7.2275-2.4667-9.22-5.5455-1.855-2.8663-1.8212-6.5333-1.4996-9.9324.3643-3.8511 1.0613-7.7959 3.1489-11.0526 2.6915-4.1989 7.4674-6.7663 12.3834-7.6083 4.9159-.842 9.9789-.1207 14.8049 1.138 15.583 4.0641 29.5872 13.9108 38.684 27.1997"/>
  <path class="st38" d="M1289.0957 193.8978c6.2581.9773 11.8949-1.6394 14.2789-7.7158 1.8011-4.5908 2.4309-12.0516-1.0048-16.0089-4.2566-4.9027-11.5688-4.2478-15.9078.2054-2.1074 2.1629-3.5566 4.9584-3.9751 7.9485-.2233 1.5951-.187 3.1808.2411 4.7476.1788.6542.4432 1.7674.9021 2.2759.7108.7875-.5314.8784.0991-.7617l1.531-2.6269-.4241.4494c-5.2556 5.5716 3.1481 14.0068 8.4191 8.419 2.1014-2.2277 2.925-5.1197 2.1196-8.1159a39.4732 39.4732 0 0 0-.9072-2.2165c-.4072-.8891-.4919-1.0294-.254-.4211.1233-.5165.9033-1.2435.9595-1.5813-.1113.6686-2.2521-1.6964-2.3857-1.5166-.3999.5383-.0205 2.7635-.1306 3.4872-.0879.5784-.2206 1.3858-.5503 1.8585-.323.4631.1157.0863.1544.0923-3.1729-.4955-6.4031.8095-7.3231 4.1579-.7763 2.8254.9625 6.824 4.1579 7.323zM1256.2882 149.4746c4.9501 1.9114 10.7751 1.2287 15.345-1.3955 4.7609-2.7338 9.0618-8.4203 7.6993-14.1904-3.2329-13.6922-23.7341-4.1619-25.1537 6.0577-.4418 3.1804.7727 6.3929 4.1578 7.3231 2.783.7647 6.8779-.9528 7.3231-4.1579.2264-1.63.7053-2.2166 2.2017-3.0714.5801-.3315 1.9329-.5431 2.3459-.9274 1.0057-.9361-1.8181-3.3224-2.7064-2.9724-.1042.0411-1.0563 1.1319-1.1985 1.2392-.6685.5047-1.4043.8229-2.2009 1.0453-1.6716.4667-3.0308.1933-4.6482-.4313-3-1.1585-6.5317 1.278-7.323 4.1579-.9239 3.3624 1.1469 6.1605 4.1579 7.3231zM1272.1401 59.0738c5.2191-.8297 9.8435-5.3461 9.5205-10.8386-.3992-6.7855-7.8269-11.1992-13.7606-7.3921-4.6946 3.0122-8.903 8.348-7.3925 14.2526 1.7357 6.7848 9.6614 9.0506 14.8361 4.5651 2.4308-2.107 2.1594-6.2596 0-8.419-2.4109-2.4109-5.9822-2.1122-8.4189 0 1.4164-1.2278 4.6874-1.5663 5.1229.9888.0688.404-.1254.6464-.1245.9626.3893-.5973.4309-.7026.1249-.316a12.184 12.184 0 0 1 .8669-.8921c.2758-.2617 1.3551-1.1812 1.3429-1.1293-.3192 1.3584-5.3937-.2693-4.3047-2.9301.3022-.7384 1.1266-.7686.2303-.5645 1.1609-.2644-.9974.1981-1.2085.2317-3.1779.5052-4.9419 4.4702-4.1578 7.323.9301 3.3844 4.1358 4.6645 7.323 4.1579zM1253.9393 23.3532c5.5457 3.3251 13.3004 3.4033 17.1144-2.5739 3.9481-6.1873.312-12.3462-5.6599-15.1219-5.6273-2.6156-13.3982-5.6762-17.344 1.1742-3.5873 6.228.9069 11.9747 5.9817 15.3527 2.6774 1.7822 6.5891.5244 8.1449-2.1357 1.7063-2.9173.5481-6.3586-2.1356-8.145-.0613-.0408-1.8153-1.2012-1.6863-1.3337.186-.191.3658 1.2494.2522 1.6576-.5815 1.3664-1.6904 2.0994-3.3265 2.1992.5814.176 1.1586.3645 1.7318.5656.8069.2831 1.5948.5927 2.3726.9457.3511.1594 2.1531 1.3788 2.4569 1.2832-1.3583.4276-.6372-3.0208-.64-3.0784-.0055-.1092.3754-.1291.3055-.3132.1237.3262-1.7318-.8611-1.5583-.7571-6.5879-3.9499-12.5813 6.3403-6.0094 10.2807zM1343.4816 121.0128c10.1467-6.6718 2.1245-24.5877-9.1219-24.1708-6.2074.2301-10.4355 5.8465-9.147 11.8826 1.1326 5.3055 5.7384 9.6648 10.3566 12.1317 6.7565 3.6091 12.7777-6.6653 6.0093-10.2807-1.4799-.7905-2.9296-1.7119-3.9722-3.0618-.0394-.051-.8097-1.2118-.7493-1.241-.4982.2407-.3969 2.0163-1.5018 2.3458-.0256.0076-1.3777.1521-1.1433-.1426.0919-.1154.931 1.1287.8773 1.048.4252.6381.7506 1.3635 1.0656 2.059.7246 1.6004-.514.3533 1.3174-.8509-2.6835 1.7645-3.8195 5.2662-2.1356 8.145 1.5598 2.6671 5.4466 3.9098 8.1449 2.1357zM1355.2334 71.5437c5.7513 2.3552 13.2284-1.7727 14.8182-7.6153 1.8468-6.7867-4.4692-12.9107-10.698-14.0387-5.684-1.0294-14.0127.8327-15.4078 7.3837-1.3492 6.3359 5.7231 11.6971 10.7523 13.9838 2.9248 1.3299 6.4062.8371 8.145-2.1357 1.4949-2.5559.8052-6.8078-2.1357-8.145-1.3226-.6014-4.9474-2.247-5.2806-3.7031v3.1652c-.3378 1.9553-1.542.8239.21 1.0191.8221.0916 1.5553.3016 2.3391.4318-.2048-.034.7284.4377.6049.471-.2052.0552.5021-2.0915.4762-2.2345-.12-.6614.4498.1269-.4368.1322-.0946.0006 1.6788.5829-.2216-.1953-2.9766-1.2189-6.5438 1.3221-7.3231 4.1579-.9377 3.4126 1.1702 6.0995 4.1579 7.3229z"/>
  <g>
    <path class="st64" d="M259.8987-89.4901c-13.7777 47.8784-18.1962 101.2139 3.4904 146.0677 21.1191 43.6802 65.4452 76.5511 72.9421 124.4862 2.0536-12.9109 13.5716-22.1444 18.57-34.2242 4.0278-9.7339 3.5738-20.6821 2.6147-31.1727-3.4388-37.6147-13.028-75.722-35.3587-106.1856-11.6395-15.8786-26.3775-29.2055-39.0472-44.2751s-23.5563-32.7539-25.1842-52.3744"/>
  </g>
  <g>
    <path class="st0" d="M425.6154 111.8734c-6.3723-18.8635-10.7812-38.3294-16.5616-57.3826-11.0413-36.3936-27.6185-71.994-54.4044-98.9925-26.7859-26.9986-64.9819-44.4257-102.7327-39.8121 11.2809 21.9666 22.5947 43.9893 36.316 64.5201 37.1797 55.6309 90.4745 98.1655 142.8883 139.7579"/>
  </g>
  <g>
    <path class="st2" d="M467.5651 119.5307c3.158-50.4841-26.1891-93.9049-54.0229-133.2285-4.3915-6.2044-14.7205-.2633-10.2807 6.0093 26.6084 37.5925 55.4208 78.8855 52.3974 127.2192-.4787 7.6518 11.4294 7.6233 11.9062 0z"/>
    <path class="st2" d="M465.8211 16.7822a423.2915 423.2915 0 0 0-54.0373-33.5245c-6.7878-3.535-12.815 6.7364-6.0093 10.2807a423.3054 423.3054 0 0 1 54.0373 33.5245c6.1967 4.5222 12.1439-5.8038 6.0093-10.2807z"/>
    <path class="st9" d="M462.8087 125.7014c6.1219 11.6962 16.33 20.8482 27.5989 27.725 5.4322 3.315 11.3497 6.2165 17.6999 6.6328 6.3502.4163 13.2226-2.13 16.4623-7.6075 4.1452-7.0082.9825-16.5232-5.0782-21.9605s-14.2605-7.709-22.2007-9.5121c-12.1064-2.7492-24.8311-4.7909-36.8364-1.6294"/>
    <path class="st9" d="M459.0471 120.5154c-9.746 17.2122-13.8806 37.5435-11.6312 57.1951 1.0474 9.151 3.6967 18.5993 10.2193 25.1026 6.5226 6.5034 17.7559 8.9269 25.095 3.3612 4.0274-3.0542 6.3099-7.975 7.1685-12.9561 1.6161-9.3753-1.3046-18.9086-4.7432-27.779a228.132 228.132 0 0 0-21.6998-42.2741M454.8949 78.6958c-.0414 17.4981-6.7015 34.9015-18.3526 47.9567-3.6577 4.0985-7.8744 7.8366-12.9061 10.0408-5.0317 2.2042-10.9814 2.7292-15.9995.4943-9.1412-4.0712-12.404-16.2367-9.3318-25.7603 3.0722-9.5236 10.8449-16.7463 18.9231-22.6522 9.7965-7.1621 20.5061-13.0741 31.787-17.5472M441.0768 46.7282c-9.8488 15.261-24.489 27.3801-41.321 34.2053-2.4527.9946-5.0327 1.8928-7.6759 1.7578-4.6906-.2396-8.5498-3.6082-11.9989-6.796-1.945-1.7977-3.9451-3.6719-4.9812-6.1094-1.4454-3.4007-.7392-7.434 1.1069-10.6349 1.8461-3.2009 4.7065-5.6897 7.6873-7.8732 14.8285-10.8621 34.1152-15.4331 52.2413-12.3811M460.694 29.1136c1.9053 11.2049 6.7154 22.198 15.0801 29.8929s20.5766 11.6208 31.5036 8.4934c1.6728-.4788 3.3584-1.149 4.5635-2.404 1.5266-1.5898 2.0574-3.8643 2.4771-6.0281.6296-3.2456 1.1481-6.5894.5634-9.8433-.892-4.9636-4.299-9.1897-8.3856-12.1447s-8.8457-4.8117-13.5467-6.6373l-18.8897-7.3355c-3.8829-1.5078-8.0716-3.0402-12.1182-2.0527"/>
    <path class="st9" d="M466.1932 25.4988c16.5344 6.3574 35.1526 7.1524 52.1688 2.2276 3.5228-1.0195 7.2276-2.4667 9.2201-5.5455 1.855-2.8663 1.8211-6.5333 1.4996-9.9324-.3643-3.8511-1.0613-7.7959-3.1489-11.0526-2.6915-4.1989-7.4675-6.7663-12.3834-7.6083s-9.9789-.1207-14.805 1.138c-15.5831 4.0641-29.5871 13.9108-38.684 27.1997"/>
    <path class="st38" d="M469.2014 180.6576c.3003-.0469.1594.2231.1544-.0923-.0062-.3855-.4795-1.3932-.5503-1.8585-.1101-.7238.2693-2.9489-.1306-3.4872-.1336-.1798-2.2744 2.1852-2.3858 1.5166.0562.3378.8362 1.0648.9595 1.5813.2379-.6083.1532-.4679-.254.4211a39.5053 39.5053 0 0 0-.9073 2.2165c-.8053 2.9962.0183 5.8882 2.1197 8.1159 5.2687 5.5854 13.6769-2.845 8.419-8.419l-.424-.4494 1.531 2.6269c.1531.3984-.4593 1.2148-.0766 1.1516.2383-.0393.8912-2.0129.9514-2.2019.4511-1.4157.5846-2.9464.4738-4.4202-.2357-3.1351-1.6752-6.1299-3.7893-8.4378-4.2953-4.6888-11.8242-5.5475-16.1999-.5074-3.3472 3.8554-2.8274 11.0988-1.1608 15.6229 2.3138 6.2809 7.9865 9.1089 14.4349 8.1018 3.1793-.4965 4.9402-4.4763 4.1579-7.3231-.9319-3.3911-4.1343-4.6558-7.323-4.1578zM502.0089 136.2344c-1.6175.6246-2.9765.898-4.6482.4313-.7966-.2224-1.5324-.5406-2.201-1.0453-.1422-.1073-1.0942-1.1981-1.1985-1.2392-.8882-.35-3.7121 2.0363-2.7063 2.9724.413.3844 1.7658.596 2.3459.9274 1.4963.8549 1.9752 1.4414 2.2016 3.0714.4428 3.1876 4.5136 4.93 7.3231 4.1579 3.4326-.9433 4.6021-4.1255 4.1579-7.3231-1.4195-10.2185-21.9313-19.7483-25.1537-6.0577-1.3367 5.6792 2.7726 11.1475 7.36 13.981 4.58 2.8289 10.6441 3.5511 15.6842 1.6048 2.9975-1.1575 5.0707-4.0015 4.1579-7.323-.7872-2.8647-4.3074-5.3224-7.3229-4.1579zM492.4872 45.8335c-.211-.0336-2.3693-.4961-1.2086-.2317-.9437-.215-.1613-.208.1553.3406 1.6077 2.7855-3.9268 4.4428-4.2296 3.1539-.0122-.0519 1.0672.8675 1.343 1.1293.3042.2826.5932.58.867.8921-.2393-.3079-.2495-.2918-.0308.0483.205.3522.2075.357.0074.0142a1.271 1.271 0 0 1 .0237-.709c.4062-2.5722 3.7324-2.1942 5.123-.9888-2.4281-2.1047-6.0316-2.3874-8.419 0-2.1514 2.1514-2.4398 6.3041 0 8.419 5.0169 4.3487 12.9355 2.3776 14.777-4.265 1.6487-5.9473-2.501-11.5485-7.3334-14.5526-5.7088-3.5489-12.7183.1085-13.6542 6.6008-.8345 5.7889 3.8774 10.7498 9.4141 11.6299 3.1715.5042 6.4047-.8155 7.3231-4.1579.7782-2.8323-.9641-6.8153-4.158-7.3231zM501.5136 11.3132c.1734-.104-1.682 1.0833-1.5583.7571-.0591.1558.2393.19.2289.2512.0116-.0679.8899 3.598-.5634 3.1405.3038.0956 2.1057-1.1238 2.4568-1.2832.7777-.353 1.5657-.6627 2.3726-.9457a41.9482 41.9482 0 0 1 1.7317-.5656c-1.4297-.0144-2.4172-.56-2.9626-1.6366-.071-.1141-.7153-2.8399-.1117-2.2202.1291.1325-1.6249 1.2929-1.6862 1.3337-2.6733 1.7795-3.826 5.2551-2.1357 8.145 1.5527 2.6547 5.4566 3.9253 8.145 2.1357 4.9856-3.3187 9.4846-8.9072 6.1161-15.0993-3.8643-7.1034-11.73-4.0995-17.4785-1.4276-5.7755 2.6845-9.618 8.7228-5.8358 14.8393 3.8083 6.1587 11.5648 6.2893 17.2903 2.8565 6.5648-3.9362.5851-14.2346-6.0092-10.2808zM423.99 108.9728c1.8314 1.2042.5928 2.4513 1.3174.8509.3145-.6946.6386-1.4231 1.0656-2.059-.026.0388.7444-1.2176.8772-1.048.2336.2983-1.1178.1502-1.1432.1426-1.1319-.3374-.976-2.0739-1.5018-2.3458.0789.0408-.6599 1.126-.7493 1.241-1.0491 1.3488-2.4887 2.2693-3.9722 3.0618-6.761 3.6115-.7538 13.8933 6.0093 10.2807 4.4962-2.4017 9.0553-6.6395 10.2749-11.775 1.4546-6.1249-2.6498-12.0202-9.0653-12.2393-11.2353-.3837-19.288 17.4863-9.1219 24.1708 2.6873 1.767 6.5827.5354 8.145-2.1357 1.6989-2.9045.5581-6.3738-2.1357-8.145zM403.0637 58.3035c-.674.276-1.0137.2781-.13.231-.1408.0075-.8168-.4004-.8178-.4595l.579.5833.1114 2.0515c-.0359-.0073.6495-.5749.6801-.5796.6457-.0999 1.1931-.4504 1.9107-.4355-.2332-.0048 1.2133.0774.9527.1359 1.1288-.2535.2463 2.0942-.3143-1.1512v-3.1652c-.3346 1.4618-3.9489 3.0976-5.2806 3.7031-2.9269 1.3309-3.6405 5.5723-2.1357 8.145 1.7596 3.0084 5.207 3.4716 8.145 2.1357 4.9669-2.2584 11.3357-7.1243 10.8586-13.1925-.5573-7.0878-9.7524-9.2697-15.5142-8.175-6.1121 1.1612-12.2586 6.9084-10.7871 13.6212 1.3323 6.0778 9.0276 10.4406 14.9074 8.0328 2.9732-1.2175 5.0829-3.957 4.1579-7.3231-.7737-2.815-4.3297-5.3837-7.3231-4.1579z"/>
  </g>
  <g>
    <path class="st0" d="M1223.347 157.949c15.1772-35.1385 26.8801-71.9541 32.2318-109.8543 3.5468-25.1181 4.288-50.5372 5.024-75.8938.6322-21.7768 1.2626-43.6168-.7288-65.3116-4.2917-46.7556-20.709-91.7505-42.4426-133.3696s-48.7583-80.2072-75.7002-118.6602c-2.6636 2.0796-2.6833 6.0456-2.2982 9.4028 4.5055 39.2766 30.2433 72.4082 45.0682 109.0575 14.4607 35.7485 18.4462 75.6624 11.3396 113.5644-5.276 28.1399-16.4127 54.7796-25.2656 82.0067-8.853 27.2271-15.5027 56.023-11.379 84.3547 5.9215 40.6831 33.4333 75.2944 65.3593 101.1963"/>
  </g>
  <g>
    <path d="M1194.6801-230.1774c8.0021 51.476 9.3214 103.9869 3.9148 155.7998-1.3593 13.0257-3.2065 26.2383-8.7144 38.1203-4.0261 8.6857-9.8776 16.3721-14.9758 24.4751-6.2473 9.9293-11.4078 20.5842-14.7948 31.8158-8.1184 26.9214-5.7565 55.6881-6.0005 83.8059-.2441 28.1178-3.8633 57.9752-21.4303 79.9314.8671-18.975 1.7198-38.1623-1.89-56.8109-3.1251-16.144-9.5112-31.4415-14.4988-47.1106-15.5912-48.9825-17.3363-102.2907-4.9819-152.188 2.8636-11.5659 6.4753-22.9712 11.3236-33.8553 4.6498-10.4381 10.4087-20.3385 16.1554-30.2152l22.6969-39.0084c10.76-18.4929 21.5377-37.0134 33.8735-54.4945" fill="#faa76c"/>
  </g>
  <g>
    <path class="st65" d="M665.8224-50.6658c12.759 6.5466 24.3239 15.412 33.9597 26.0328 7.7006 8.4877 14.1393 18.0361 20.1972 27.7646 6.7779 10.8848 13.1757 22.1808 16.7141 34.5056 3.5383 12.3247 4.0297 25.8828-.8588 37.737-.6762 1.6398-1.6121 3.3901-3.2869 3.9743-1.3438.4687-2.819.0574-4.1754-.3734A152.743 152.743 0 0 1 703.7689 68.72c11.7404 10.9951 16.6042 28.7859 12.0906 44.2247-.5879 2.0109-1.3447 4.0227-2.6848 5.6332-1.4747 1.7724-3.5621 2.939-5.7234 3.7419-11.0601 4.1087-24.8392-1.8608-29.4062-12.7397-.308 8.131-3.0976 16.1514-7.9017 22.7185-4.1507 5.6739-10.1992 10.4278-17.1984 11.0845-9.5149.8927-18.5054-6.3354-21.8492-15.288-3.3439-8.9526-1.9433-19.0714 1.4177-28.0176s8.5572-17.0632 13.0225-25.5125a346.262 346.262 0 0 1-26.0981 12.0013c-3.2894 1.3503-7.2971 2.5795-10.1744.4903-1.7455-1.2674-2.5508-3.4428-3.1213-5.5231-3.1196-11.3753-1.9702-23.4335-.665-35.1563 1.1705-10.5125 2.4565-21.0609 5.2841-31.2533 7.8445-28.2761 27.9944-52.9051 54.1566-66.1949"/>
    <path class="st6" d="M675.3272 67.331c-4.0022-10.7473-7.6072-21.6285-10.5828-32.7104-2.9702-11.0777-5.4841-22.3122-7.2976-33.7118-1.8137-11.3954-2.7102-22.9815-2.4128-34.5561.115-2.8913.2566-5.7829.459-8.6685a227.4947 227.4947 0 0 1 1.0391-8.6189 183.665 183.665 0 0 1 1.679-8.5211c.7554-2.806 1.5-5.605 2.4719-8.3495.323-.9119 1.324-1.3894 2.2358-1.0665.6924.2452 1.1343.8814 1.1655 1.5726l.0024.0662c.1274 2.8867.0276 5.719-.0615 8.5443a178.1292 178.1292 0 0 1-.2581 8.4515 215.7731 215.7731 0 0 1-.3042 8.4109c-.0488 2.8031-.1584 5.6001-.2939 8.3976-.3147 11.1955-.259 22.4201.4031 33.6675.6631 11.2435 2.1489 22.4852 4.6648 33.515 2.5107 11.0255 5.8779 21.8838 10.2974 32.3008.3723.8777-.0374 1.891-.915 2.2634-.8774.3724-1.8909-.0373-2.2632-.915a1.6624 1.6624 0 0 1-.0289-.072z"/>
  </g>
  <g>
    <path class="st9" d="M1058.184-39.7648c-17.1237 7.4802-34.3444 15.0126-49.938 25.309-15.5937 10.2963-29.6294 23.6013-38.126 40.2441-5.2305 10.2454-8.2604 21.6074-8.8259 33.0968-.0962 1.9544-.0982 4.0153.8422 5.7312 2.5118 4.583 9.2642 3.6577 14.2495 2.0889l26.1071-8.2154c-10.8331 7.7078-22.6068 16.9134-24.3266 30.097-1.3273 10.1745 3.9199 20.1625 10.7084 27.8565 1.1681 1.3238 2.6644 2.7139 4.4186 2.515 1.2665-.1436 2.2747-1.0905 3.1629-2.0047 10.5111-10.8194 18.3468-24.219 22.6218-38.685-6.0331 14.9451 2.1201 34.036 17.088 40.0123 6.5594 2.619 14.8291 2.5816 19.885-2.3503 2.6953-2.6292 4.1328-6.2875 5.066-9.9354 2.4746-9.6729 1.8584-20.1118-1.7371-29.4264l20.5355 27.3911c.6282.8378 1.3442 1.7342 2.3678 1.955.9904.2137 1.9869-.2691 2.8667-.7715 15.2848-8.7288 22.8789-27.3365 22.6963-44.9372-.1827-17.6007-6.9189-34.4457-14.5411-50.3114-8.3054-17.2878-17.9321-34.2021-31.1909-48.0604"/>
    <path class="st6" d="M1036.17 65.5527c4.7058-10.2908 8.3723-21.0518 11.187-32.0036 2.8198-10.956 4.6162-22.1523 5.5898-33.3732.9734-11.2248 1.3394-22.4435 1.3345-33.6435-.0581-2.8001-.0903-5.5992-.0613-8.4025a215.8246 215.8246 0 0 1-.0718-8.4161 178.032 178.032 0 0 1-.0239-8.4554c-.011-2.8267-.0325-5.6606.1748-8.5427l.0046-.0648c.0693-.9649.9077-1.6909 1.8726-1.6215.7327.0527 1.3276.5501 1.5413 1.2083.8955 2.7704 1.5623 5.5889 2.24 8.4147a183.9423 183.9423 0 0 1 1.4426 8.5643c.3215 2.8736.5881 5.7569.8 8.6443.1223 2.8901.1841 5.7846.2192 8.6779-.0229 11.5784-1.2397 23.1353-3.3682 34.4761-2.1279 11.3451-4.9519 22.5057-8.2273 33.497-3.281 10.9953-7.1855 21.7726-11.4836 32.4051-.3569.884-1.363 1.3112-2.2471.9542-.884-.3571-1.3113-1.3631-.9541-2.2471.009-.022.0212-.0501.0309-.0715z"/>
  </g>
  <g>
    <path class="st11" d="M731.8872 121.3462c4.7926 6.5176 14.6242 7.6579 22.0181 4.3748s12.7038-9.9796 16.8239-16.9419c2.1939-3.7074 4.1843-7.7234 4.33-12.0289.3049-9.0146-8.1658-16.6918-17.137-17.6263-8.9713-.9344-17.7943 3.5722-24.2986 9.8212-3.8909 3.7382-7.2001 8.2084-8.9028 13.3284-1.7028 5.12-1.677 10.938.7667 15.7486M723.342 61.346c3.8643 2.6363 8.0169 4.9566 12.5447 6.1318s9.4841 1.1315 13.7364-.8181c3.6423-1.67 6.5441-4.6035 9.141-7.6549 2.9353-3.4491 5.6733-7.3067 6.4584-11.7672 1.2267-6.9698-2.934-14.2943-9.1924-17.5979s-14.119-2.8385-20.4259.3716c-6.307 3.2101-11.1253 8.9065-14.1802 15.2901-1.9743 4.1254-3.2823 8.8226-2.2064 13.2677M802.8664 138.5443c5.3564 2.9197 11.9847 3.6146 17.6757 1.4173 5.691-2.1972 10.2382-7.3932 11.2134-13.4151.4515-2.7876.1667-5.6503-.42-8.4126-2.3617-11.1199-10.4803-21.4463-21.5294-24.1202-2.9693-.7186-6.1213-.877-9.067-.067-2.2209.6107-4.2711 1.756-6.0925 3.1658-6.6102 5.1165-10.0928 13.9851-8.7302 22.2323 1.3625 8.2472 7.5126 15.5245 15.4171 18.2429M801.5763 72.6034c5.4879 4.4974 12.4503 7.3327 19.5455 7.2999 7.0952-.0328 14.2493-3.0953 18.7037-8.6181 4.4544-5.5228 5.8942-13.4993 3.0984-20.0205-1.4136-3.2973-3.7905-6.1103-6.4936-8.469-6.7343-5.8762-16.2702-9.1153-24.8368-6.5669-6.9969 2.0814-12.644 7.9261-14.9246 14.8606-2.2806 6.9345-1.2947 14.7772 2.2221 21.1741M797.5558 2.6501c3.664 8.907 11.062 16.5924 20.3906 18.9876s20.3516-1.4344 24.9059-9.9208c.932-1.7367 1.5936-3.6383 1.7579-5.6025.2549-3.0473-.6877-6.0648-1.819-8.9058-3.4756-8.7281-9.6229-17.2467-18.6824-19.7338-6.6212-1.8177-14.1369.0916-19.0876 4.8492-4.9507 4.7576-7.1575 12.1914-5.6046 18.8796M724.1095 5.8974c6.0089 4.5928 13.9126 6.623 21.3911 5.4949 2.2427-.3383 4.4868-.967 6.3655-2.2377 1.3806-.9338 2.5156-2.18 3.6353-3.4146 4.1925-4.6226 8.5768-9.7012 9.2335-15.9072.4968-4.6952-1.2791-9.3984-3.9332-13.3032-1.5184-2.234-3.3979-4.3223-5.8391-5.4786-2.7628-1.3086-5.947-1.2975-9.0014-1.1726-4.9625.203-10.1149.7-14.377 3.2498-3.154 1.8868-5.5776 4.7576-7.9164 7.5926-2.7864 3.3774-5.6132 6.9187-6.7398 11.1497s-.0895 9.3596 3.5731 11.7587"/>
    <path class="st3" d="M786.7004 82.4846c1.4406-20.8675-1.1462-41.6087-2.5916-62.3976-1.4001-20.1363-.3127-39.9268 1.7155-59.9827 4.0337-39.8879 10.0374-79.7404 22.8774-117.8496 2.1307-6.3241-7.8587-9.0376-9.9769-2.7505-12.9289 38.3731-18.9351 78.5493-23.0543 118.7074-2.1216 20.6837-3.3528 41.0978-1.9081 61.8755 1.4454 20.7889 4.0322 41.5301 2.5917 62.3976-.459 6.6455 9.8896 6.617 10.3463-.0001z"/>
  </g>
  <g>
    <path class="st6" d="M1012.2748 197.2906l1.3041-48.9904c.7634-28.6785 1.519-57.5095-2.3875-85.931-7.6672-55.7824-33.1667-109.3741-30.2721-165.6065.7586-14.7365 3.4799-29.4053 2.7982-44.1456-1.4577-31.517-19.1257-61.3335-44.643-79.8893s-58.1788-26.1957-89.6177-23.5405c22.4653 15.9803 45.6818 32.7871 58.9301 56.9645 16.6953 30.468 14.8031 67.2192 14.5967 101.961a848.596 848.596 0 0 0 2.2955 67.6136c.8884 12.0135 2.0524 24.1105 5.609 35.6197 4.001 12.9472 10.9056 24.7654 17.4321 36.6414 25.9395 47.2008 46.7236 97.2324 61.864 148.9193"/>
  </g>
  <g>
    <path class="st0" d="M1010.1099 197.5101c-29.9609-26.8621-69.8489-56.0954-95.2336-87.3179-7.5336-9.2661-14.7017-18.9993-19.3955-29.9804-16.1608-37.8078-.2862-81.3225-4.4378-122.2292-3.3381-32.8906-19.6073-63.2948-23.9925-96.0623-2.5533-19.079-1.0071-38.458-2.1216-57.6748-1.1144-19.2168-5.2981-39.133-17.5105-54.0121 14.1567 2.665 35.025 10.743 44.0946 21.9348 32.784 40.4552 45.2174 74.6383 55.2324 125.7374 9.7597 49.7967 7.9532 119.5979 30.4511 165.0821 5.6159 11.3537 12.8656 21.9098 17.5342 33.6848 5.4069 13.6368 7.1569 28.4014 8.8592 42.9719 2.2617 19.3571 9.3052 38.5769 6.52 57.8657"/>
  </g>
  <g>
    <path class="st63" d="M1161.5511 39.0266c1.116-8.9902 12.4576-14.9626 20.5018-10.796 1.2982.6724 2.5234 1.5587 3.9556 1.8534 1.6219.3338 3.2863-.1345 4.9354-.2852 7.4279-.6788 14.5704 6.3823 13.9769 13.8175-.2609 3.2671-1.655 6.9605.3669 9.54 1.4941 1.9063 4.1846 2.2271 6.5282 2.839 3.3267.8685 6.4197 2.6159 8.8805 5.017 3.1849 3.1076 5.0789 8.7455 1.812 11.7669-1.3229 1.2235-3.3264 1.8226-4.0543 3.471-.8275 1.8736.455 3.9542.7118 5.9862.4164 3.2955-2.0487 6.4107-5.0494 7.8352-3.0009 1.4245-6.434 1.5348-9.7546 1.6194 2.0939 9.3662-2.3834 20.8829-11.6923 23.2188-2.2411.5624-4.5895.5679-6.8435 1.0764-4.046.9129-7.6686 3.4163-11.7928 3.8572-6.4608.6908-12.9323-4.7316-13.3831-11.2135-4.5319 1.05-9.2811 1.9588-13.7949.8335s-8.7078-4.858-8.863-9.5073c-.0398-1.1909.1578-2.4809-.4692-3.4942-.5588-.9032-1.6208-1.3297-2.5043-1.9194-3.6417-2.4312-4.1476-7.6365-3.2631-11.9249.8846-4.2885 2.7832-8.45 2.5935-12.8247-.1709-3.9408-2.0275-7.6121-2.651-11.5071s.5833-8.6854 4.3009-10.0038c1.109-.3933 2.4584-.5099 3.1233-1.4806.7191-1.0499.2118-2.4672.2972-3.7369.2017-2.9957 3.5222-4.611 6.3519-5.6148 2.8307-1.0043 5.7384-2.0217 8.7415-1.9613s6.1694 1.4311 7.5236 4.1122"/>
    <path class="st0" d="M1177.7406 61.6323c-5.1925-3.4845-13.1796-2.0514-16.5006 3.2471-3.3209 5.2986-.8021 13.4299 5.0736 15.57 2.11.7685 4.405.8072 6.6503.8371 2.3811.0318 4.9247.0183 6.9103-1.296 2.3525-1.5572 3.3192-4.6568 3.0049-7.4604s-1.7001-5.3685-3.2239-7.7428"/>
  </g>
  <g>
    <path class="st9" d="M112.0434.524c4.2386 18.1992 8.5109 36.5032 15.7971 53.7103 7.2862 17.2072 17.8144 33.4301 32.6328 44.8139 9.1222 7.0079 19.743 12.0552 30.9376 14.7024 1.9043.4503 3.9303.8274 5.7888.215 4.9637-1.6357 5.2827-8.4438 4.6476-13.6312l-3.3264-27.1663c5.6073 12.055 12.5163 25.3075 25.1666 29.3982 9.763 3.157 20.5392-.1847 29.3402-5.4594 1.5143-.9076 3.1535-2.1259 3.2773-3.887.0893-1.2714-.6583-2.4352-1.3956-3.4749-8.7255-12.3048-20.4752-22.4484-33.9215-29.285 13.5974 8.6525 33.8533 4.1102 42.4541-9.52 3.7691-5.9732 5.2375-14.1115 1.3082-19.9806-2.0948-3.1288-5.4303-5.2082-8.8473-6.7898-9.0609-4.1938-19.4376-5.4879-29.251-3.6478l30.6712-15.2071c.9381-.4651 1.9498-1.0061 2.3533-1.9724.3904-.9349.097-2.0027-.2368-2.9593-5.801-16.6182-22.7157-27.4722-40.0557-30.4961s-35.1297.534-52.1176 5.1412c-18.5107 5.0201-36.8946 11.4076-52.9346 21.9226"/>
    <path class="st6" d="M211.5952 41.339c-9.2627-6.5003-19.1763-12.0641-29.4331-16.8251-10.2598-4.7669-20.9421-8.571-31.7983-11.5709-10.8601-2.9999-21.8247-5.4019-32.8386-7.4355-2.7639-.4525-5.522-.9302-8.2732-1.4689a215.6144 215.6144 0 0 1-8.2886-1.4614 178.0948 178.0948 0 0 1-8.3186-1.5153c-2.7815-.5038-5.572-.9984-8.3684-1.7267l-.0627-.0164c-.936-.2438-1.4973-1.2004-1.2537-2.1365.1853-.7109.7827-1.2053 1.4688-1.2955 2.887-.3764 5.7798-.5192 8.6819-.6711 2.8918-.022 5.7886.0255 8.6836.1402a227.753 227.753 0 0 1 8.6458.7866c2.864.4056 5.7214.8718 8.5728 1.3639 11.3809 2.1299 22.5232 5.4297 33.2873 9.5868 10.7683 4.1573 21.2283 8.9654 31.4402 14.1867 10.2144 5.2273 20.1011 11.0283 29.7734 17.1896.8042.512 1.0415 1.579.5293 2.3833-.5117.8043-1.5791 1.0412-2.3833.5293a1.5757 1.5757 0 0 1-.0646-.0431z"/>
    <path class="st11" d="M230.9888 236.7024c7.9969 1.224 15.7585-4.9174 18.6694-12.4657 2.9109-7.5482 1.9349-16.0385-.0706-23.876-1.0679-4.1734-2.498-8.4214-5.4377-11.5704-6.1551-6.5932-17.5738-6.0383-24.5812-.3592s-10.0647 15.103-10.2501 24.1208c-.1109 5.3946.7071 10.8958 3.1209 15.7215 2.4138 4.8257 6.5438 8.9237 11.6724 10.6001M182.5395 200.2921c4.5971-.8658 9.1748-2.159 13.2088-4.5275 4.034-2.3685 7.5095-5.9022 9.1401-10.2867 1.3967-3.7556 1.3764-7.8818 1.0572-11.8759-.3608-4.5146-1.1501-9.1789-3.747-12.8894-4.0578-5.798-12.1778-8.0396-18.9404-5.9538s-11.9951 7.97-14.1885 14.6984c-2.1935 6.7284-1.5765 14.1638.7736 20.8391 1.5188 4.314 3.9129 8.5616 7.8157 10.946M100.879 117.4795c5.8705 1.3966 12.2303-1.2797 16.2284-5.7994 3.9982-4.5197 5.8719-10.6037 6.3312-16.6205.4592-6.0168-.3839-12.0484-1.2251-18.0238-.5127-3.6425-1.4022-7.837-4.6877-9.4912-1.2407-.6247-2.6618-.7769-4.0497-.8349-6.8301-.2856-13.7335 1.5188-19.5504 5.1098-2.0165 1.2449-3.9333 2.7283-5.3038 4.6617-2.5303 3.5697-2.9077 8.2006-2.9499 12.5759a115.5265 115.5265 0 0 0 .6908 13.7754c.3786 3.4322.9405 6.9353 2.6407 9.9407s4.764 5.4514 8.2162 5.5224M293.3601 198.707c5.853-1.7198 11.0335-5.9126 13.507-11.4891s2.0184-12.4661-1.5475-17.4158c-1.6507-2.2912-3.8752-4.1153-6.2425-5.655-9.5296-6.1981-22.5714-7.7662-32.2781-1.8494-2.6086 1.5901-4.9506 3.7056-6.4621 6.3606-1.1396 2.0016-1.7807 4.2608-2.073 6.5455-1.0607 8.2914 2.7432 17.0271 9.5356 21.899 6.7925 4.8719 16.2866 5.674 23.8002 2.0109M245.8452 152.9664c7.061-.6966 13.9906-3.6111 18.9872-8.6488s7.8936-12.2602 7.142-19.3156c-.7516-7.0554-5.3702-13.7161-11.9569-16.354-3.3304-1.3338-7-1.6442-10.5794-1.4025-8.9173.602-17.953 5.0497-22.2128 12.9068-3.4792 6.4174-3.3439 14.5434-.0566 21.0612s9.5274 11.3697 16.5364 13.41M160.3981 71.9688c6.3177-.7453 12.7536-1.5228 18.5412-4.1633 5.7876-2.6405 10.928-7.4954 12.2605-13.7158.5401-2.5214.4375-5.1347.208-7.703-.2384-2.6685-.6237-5.37-1.738-7.8064-3.4347-7.5102-12.6107-10.4036-20.8441-11.0448-8.5997-.6697-18.1213.5899-24.0576 6.8479-5.2715 5.5572-6.496 14.3133-3.7305 21.4563 2.7656 7.143 9.1064 12.5981 16.3296 15.1468M193.5629 106.3167c8.8871 3.7121 19.5525 3.9212 27.8451-.977s13.3847-15.3978 10.6093-24.6205c-.568-1.8874-1.4438-3.7003-2.7157-5.2061-1.9732-2.3361-4.7727-3.8048-7.5809-5.0152-8.6273-3.7188-18.9967-5.4011-27.1639-.7581-5.969 3.3933-9.9369 10.0558-10.0772 16.9205s3.5521 13.6837 9.3775 17.318M143.8955 160.5206c7.497-.9973 14.5237-5.1467 19.0173-11.2301 1.3475-1.8243 2.491-3.8551 2.922-6.0817.3168-1.6364.2391-3.3202.1588-4.985-.3008-6.2334-.7881-12.9249-4.7095-17.7797-2.9667-3.6729-7.547-5.7453-12.1844-6.6322-2.6531-.5074-5.4586-.6566-8.0029.2506-2.8794 1.0267-5.1244 3.2849-7.1971 5.532-3.3675 3.6508-6.6614 7.6437-7.8748 12.4598-.8979 3.5639-.5837 7.3077-.2349 10.9664.4156 4.3587.9184 8.8618 3.1114 12.6514s6.5514 6.6851 10.8381 5.7939"/>
    <path class="st3" d="M242.3021 170.4684c-20.2377-23.2948-46.4753-40.2612-67.4001-62.8753-21.656-23.4043-41.5054-49.2716-59.3208-75.6956-10.1604-15.0702-19.4557-30.7019-27.5227-46.9941-2.9546-5.9672-11.8818-.7314-8.9339 5.2221 14.3449 28.9711 32.6504 55.6522 52.4088 81.1664 9.8607 12.7331 19.9343 25.3702 30.5445 37.4897 10.3955 11.8742 21.9135 22.443 33.9233 32.6514 13.5546 11.5216 27.2841 22.8832 38.9848 36.3515 4.3747 5.0356 11.6666-2.3084 7.3161-7.3161z"/>
    <g>
      <path class="st65" d="M59.3419 2.6553c14.0675 2.7851 27.6245 8.128 39.8098 15.6891 9.7379 6.0425 18.5545 13.452 27.0542 21.1392 9.5101 8.601 18.7679 17.7018 25.5594 28.5782s10.9927 23.7764 9.553 36.5179c-.1992 1.7625-.6175 3.7027-2.0671 4.725-1.1631.8202-2.6945.8304-4.1171.7893a152.7425 152.7425 0 0 1-26.475-3.0931c14.3115 7.3423 23.8807 23.1093 23.7872 39.1941-.0122 2.0951-.1866 4.2374-1.032 6.1543-.9304 2.1096-2.6165 3.8053-4.4737 5.1717-9.5036 6.9921-24.3931 5.0424-31.7759-4.1609 1.9401 7.9021 1.4639 16.3804-1.3489 24.0156-2.4302 6.5966-6.9379 12.8307-13.4867 15.387-8.9025 3.4751-19.5342-1.0016-25.2113-8.6894-5.6771-7.6877-7.1135-17.8015-6.3425-27.3271s3.5344-18.7586 5.5038-28.1102a346.2365 346.2365 0 0 1-21.7911 18.7161c-2.7912 2.2029-6.3063 4.487-9.6473 3.2697-2.0268-.7385-3.3993-2.6085-4.5199-4.4517-6.1277-10.0787-8.339-21.988-10.3082-33.6177-1.7659-10.429-3.4305-20.9243-3.5151-31.5014-.2344-29.3431 12.3649-58.5641 33.8631-78.5366"/>
      <path class="st6" d="M100.9321 113.4879c-6.8035-9.2321-13.2622-18.7023-19.1707-28.5385-5.9023-9.8337-11.4092-19.9435-16.2876-30.4048-4.8782-10.4571-8.9265-21.3499-11.824-32.5599-.6843-2.8114-1.3435-5.6305-1.9424-8.4605a226.9897 226.9897 0 0 1-1.3716-8.5723 183.9205 183.9205 0 0 1-.7292-8.6542c-.0454-2.9055-.0994-5.8014.0803-8.7074.0596-.9655.8906-1.6999 1.8562-1.6402.7332.0453 1.333.5354 1.5532 1.1914l.0205.063c.9163 2.7404 1.5994 5.4909 2.2905 8.2318a177.8865 177.8865 0 0 1 2.0764 8.1965 215.8719 215.8719 0 0 1 2.0208 8.1703c.7241 2.7084 1.3879 5.4277 2.0269 8.1546 2.7764 10.8504 5.917 21.6267 9.6472 32.2583 3.7295 10.6276 8.25 21.0271 13.7021 30.9397 5.446 9.9098 11.6699 19.4233 18.7839 28.2232.5994.7414.4841 1.8284-.2573 2.4277-.7415.5994-1.8284.4842-2.4277-.2572a3.1441 3.1441 0 0 1-.0475-.0615z"/>
    </g>
  </g>
  <g>
    <path class="st0" d="M86.9802 230.0511c-13.6863-13.6219-26.6335-27.9375-38.446-43.227-11.7603-15.308-22.7954-31.2884-32.4465-48.2191-9.6624-16.9078-17.6921-34.8857-23.293-53.6447-.6604-2.355-1.313-4.7129-1.9277-7.0807-.6394-2.3611-1.2327-4.7342-1.812-7.1091a328.4657 328.4657 0 0 1-2.5684-14.4483c-.5515-4.869-.97-9.7502-1.2502-14.6265-.0549-4.9119-.0115-9.817.4019-14.7196.1602-1.8996 1.8301-3.3097 3.7297-3.1496 1.3752.116 2.4939 1.0232 2.946 2.2361l.0581.1596c1.6914 4.5624 3.0129 9.1222 4.2358 13.6753 1.4226 4.5216 2.7073 9.0381 3.8589 13.5669a302.363 302.363 0 0 1 3.7915 13.4895c.6851 2.2301 1.356 4.4621 1.9807 6.706.6497 2.2371 1.2607 4.4845 1.8652 6.7343 5.3193 17.8542 11.4092 35.5315 18.8066 52.8095 7.4089 17.2547 16.3757 33.9941 27.3064 49.4252 10.877 15.4485 23.314 29.8906 37.4141 42.4945 1.3955 1.2475 1.5156 3.3901.2681 4.7856-1.2473 1.3955-3.3899 1.5156-4.7856.2681a3.9884 3.9884 0 0 1-.1336-.126z"/>
  </g>
  <g>
    <path class="st6" d="M123.49 276.8226c6.3569 6.7067 19.2841 4.7472 23.3679-3.5422.6591-1.3378 1.1288-2.807 2.1264-3.9156 1.1299-1.2556 2.7799-1.8783 4.2252-2.7525 6.51-3.9377 8.1018-14.0582 3.1149-19.8042-2.1913-2.5248-5.5712-4.7139-5.472-8.0555.0733-2.4696 2.0883-4.3611 3.6424-6.2818 2.206-2.7264 3.6883-6.0329 4.2559-9.4938.7346-4.4791-1.1221-10.2546-5.633-10.7587-1.8267-.2041-3.8343.5164-5.4296-.3965-1.8132-1.0377-2.0193-3.5223-3.0382-5.3461-1.6524-2.958-5.5618-4.0242-8.8878-3.3779-3.326.6462-6.2119 2.6333-8.9897 4.5733-3.9488-8.9579-14.5947-15.705-23.652-11.9898-2.1806.8945-4.1122 2.3111-6.2708 3.2576-3.8747 1.699-8.3643 1.8356-12.0177 3.9694-5.7231 3.3426-7.7556 11.7113-4.2031 17.3066-4.3566 1.8804-8.8064 4.0082-11.8318 7.6638-3.0253 3.6556-4.2102 9.2586-1.5242 13.1703.688 1.002 1.6309 1.9416 1.7293 3.1531.0876 1.0799-.5263 2.0727-.8948 3.0916-1.5191 4.2002 1.2156 8.7805 4.5371 11.7665 3.3216 2.986 7.399 5.2542 9.8906 8.9612 2.2445 3.3394 2.9418 7.4775 4.7869 11.053 1.8451 3.5756 5.735 6.7788 9.5856 5.6116 1.1485-.3481 2.3272-1.069 3.4606-.6743 1.2259.4269 1.6669 1.8977 2.5055 2.8886 1.9785 2.3377 5.6826 1.6546 8.6136.7665 2.9322-.8885 5.9355-1.8127 8.3648-3.6796 2.4294-1.8669 4.1997-4.9086 3.6891-7.9296"/>
    <path class="st0" d="M123.1034 248.4632c-2.155 6.0036-9.5806 9.6603-15.5141 7.3193-5.9335-2.341-8.7859-10.5422-5.2563-15.8552 1.2674-1.9078 3.1286-3.3285 4.9541-4.7119 1.9359-1.467 4.0326-2.9953 6.4585-3.1177 2.874-.145 5.5435 1.8152 6.9821 4.3075s1.8529 5.437 2.0384 8.3087"/>
  </g>
</svg>
