<?xml version="1.0" encoding="utf-8"?>
<!-- Generator: Adobe Illustrator 22.1.0, SVG Export Plug-In . SVG Version: 6.00 Build 0)  -->
<svg version="1.1" id="Layer_1" xmlns="http://www.w3.org/2000/svg" xmlns:xlink="http://www.w3.org/1999/xlink" x="0px" y="0px"
	 viewBox="0 0 263 279" style="enable-background:new 0 0 263 279;" xml:space="preserve">
<g>
	<path style="fill:#9B6FEF;" d="M281.7643,277.8215c-34.8677-33.0551-67.5436-75.1615-80.692-122.852
		c-12.8044-46.4428-6.3991-95.1379-29.2965-138.5248c8.4649,9.7169,20.1883,11.8081,29.8444,19.4121
		c7.7808,6.1272,13.7204,15.4284,19.1161,24.594c19.3465,32.8642,35.5019,69.1103,40.1433,105.1754
		c2.4192,18.7985,1.6464,36.978,3.0266,55.6032c1.3802,18.6252,5.2461,38.5574,15.4311,55.6198"/>
</g>
<g>
	<path style="fill:#F09A82;" d="M8.7466,152.2718c6.8145,14.5,18.1663,26.3221,26.7323,39.8614
		c10.7671,17.0182,17.2176,36.8724,30.5783,51.9402c19.7463,22.2693,51.6909,30.2726,81.4015,28.507
		c15.9866-0.95,31.7359-4.3544,47.6961-5.6747c25.4666-2.1067,51.3664,1.1796,75.4998,9.5798
		c-1.0707-8.4944-8.6989-14.4198-15.7878-19.2208c-23.0995-15.6446-47.9848-30.2063-75.6059-34.1324
		c-19.3733-2.7537-39.4711-0.1608-58.3504-5.3068c-20.8376-5.6799-37.9543-20.1301-54.7121-33.7553
		c-16.7578-13.6252-34.8549-27.2528-56.1734-30.7155"/>
</g>
<g>
	<path style="fill:#A5CAFA;" d="M109.051,98.8219c4.4483,19.2075,7.5682,43.236,14.9695,61.5099
		c2.1965,5.4233,4.6799,10.8001,8.2836,15.4098c12.4076,15.8714,34.8356,19.342,51.4113,30.7915
		c13.3276,9.2059,22.5319,23.374,35.5592,33.0002c7.5852,5.6049,16.2679,9.5212,24.2523,14.541
		c7.9844,5.0199,15.5436,11.5224,19.0434,20.2803c2.2019-6.7058,3.6667-17.5715,1.0067-24.1091
		c-9.6152-23.6316-21.348-37.0466-40.9126-53.4214c-19.0659-15.9574-49.4512-31.6784-63.6557-52.0838
		c-3.5457-5.0936-6.363-10.6999-10.3134-15.4865c-4.575-5.5434-10.4983-9.7839-16.3496-13.958
		C124.5723,109.7504,117.9879,102.1851,109.051,98.8219"/>
</g>
</svg>
