<svg xmlns="http://www.w3.org/2000/svg" viewBox="0 0 269 271">
   <style>
    .violet{
      animation-name: violetChange;
		  animation-duration: 4s;
		  animation-delay: 2.5s;
      animation-fill-mode: forwards;
      animation-timing-function: linear;

    }
    @keyframes violetChange{
      35%{
        fill: #6610ef;
      }
      75%{
        fill: #6536ca;      
      }
      100%{
        fill: #9b6fef;
      }
    }


    .blue{
      animation-name: blueChange;
		  animation-duration: 3s;
		  animation-delay: 3s;
      animation-fill-mode: forwards;
      animation-timing-function: linear;

    }
    @keyframes blueChange{
      35%{
        fill: #71b1fc;
      }
      75%{
        fill: #1177d0;      
      }
      100%{
        fill: #a5cafa;
      }
    }

    .blue2{
      animation-name: blue2Change;
		  animation-duration: 3s;
		  animation-delay: 3.25s;
      animation-fill-mode: forwards;
      animation-timing-function: linear;

    }
    @keyframes blue2Change{
      35%{
        fill: #71b1fc;
      }
      75%{
        fill: #1177d0;      
      }
      100%{
        fill: #a5cafa;
      }
    }


    .orange{
      animation-name: orangeChange;
		  animation-duration: 2.5s;
		  animation-delay: 2.75s;
      animation-fill-mode: forwards;
      animation-timing-function: linear;

    }
    @keyframes orangeChange{
      35%{
        fill: #f09a82;
      }
      75%{
        fill: #ff9c6e;      
      }
      100%{
        fill: #faa76c;
      }
    }

  </style>

  
  
  
  <path class="blue" d="M185.5851 264.9373c16.1746-14.146 30.993-29.9807 42.8541-47.8983 7.8609-11.8747 14.3725-24.5793 20.8664-37.2534 5.5771-10.8848 11.1685-21.8021 15.3961-33.2785 9.1111-24.7337 11.6515-51.5019 10.6823-77.8425-.9691-26.3406-5.3516-52.4221-9.7247-78.4152-1.852.4111-2.8194 2.4165-3.4346 4.211-7.1973 20.9946-2.15 44-3.4828 66.1539-1.3001 21.6095-8.9149 42.8016-21.6659 60.2965-9.4668 12.9889-21.5419 23.8027-32.6013 35.4655-11.0594 11.6628-21.3808 24.6526-26.1297 40.0077-6.8192 22.0493-1.2299 46.2328 8.6991 67.0676" fill="#a5cafa"/>
  <path class="violet" d="M25.0609 113.349l27.3518-2.9682c16.0115-1.7376 32.1072-3.491 47.6236-7.8071 30.4538-8.4711 58.3445-26.6972 89.845-29.3267 8.2551-.6891 16.6206-.2812 24.7693-1.7718 17.4231-3.1872 32.678-15.264 41.0767-30.8584s10.1862-34.3401 6.3387-51.6294c-7.1961 13.7024-14.7953 27.885-27.2464 37.0779-15.6907 11.5848-36.2781 13.3031-55.6206 15.8077a476.3774 476.3774 0 0 0-37.4406 6.3749c-6.6161 1.4-13.258 2.9596-19.3925 5.8059-6.9009 3.2019-12.9548 7.934-19.0694 12.4602-24.3022 17.989-50.5679 33.3235-78.1799 45.6432" fill="#9b6fef"/>
  <path class="blue2" d="M12.128 56.4125C28.7474 41.1119 47.2247 20.3911 66.035 7.8817 71.6175 4.1692 77.4414.6861 83.8297-1.3474c21.9951-7.0013 45.4597 4.2056 68.542 4.0816 18.559-.0998 36.4227-7.5591 54.9691-8.2506 10.7987-.4026 21.545 1.5017 32.3435 1.9105 10.7985.4088 22.1526-.86 31.1228-6.8857-2.2492 7.7679-7.8836 18.9959-14.6246 23.4633-24.3669 16.1485-44.1365 21.2615-73.2291 24.115-28.3512 2.7807-67.2602-1.9758-93.8853 8.1547-6.6461 2.5288-12.9342 6.0134-19.7649 7.9902-7.9107 2.2894-16.2553 2.4747-24.489 2.6439-10.9383.2246-22.0568 3.1289-32.6862.537" fill="#a5cafa"/>
  <path class="orange" d="M134.4514 185.3612c8.37-28.0218 20.3769-54.955 35.6243-79.9108 3.8332-6.2739 7.9588-12.5246 13.6186-17.2174 4.1373-3.4304 8.9584-5.9137 13.4984-8.79 5.5632-3.5245 10.7507-7.6792 15.1786-12.5543 10.6133-11.6852 16.3601-26.8355 23.2712-41.0279 6.9111-14.1924 15.9527-28.4517 30.1563-35.3395-5.0198 9.408-10.0837 18.9271-12.7556 29.2504-2.3131 8.9368-2.769 18.2318-4.0235 27.3775-3.9216 28.59-15.9051 56.03-34.2115 78.3379-4.2433 5.1708-8.827 10.0797-13.9116 14.4259-4.8763 4.1681-10.185 7.7959-15.4818 11.4146l-20.92 14.2923c-9.9176 6.7756-19.8508 13.5609-30.3229 19.4434" fill="#faa76c"/>
</svg>
