<?xml version="1.0" encoding="utf-8"?>
<!-- Generator: Adobe Illustrator 23.0.1, SVG Export Plug-In . SVG Version: 6.00 Build 0)  -->
<svg version="1.1" id="Layer_1" xmlns="http://www.w3.org/2000/svg" xmlns:xlink="http://www.w3.org/1999/xlink" x="0px" y="0px"
	 viewBox="0 0 1300 265.7103" style="enable-background:new 0 0 1300 265.7103;" xml:space="preserve">
<style type="text/css">
	.st0{fill:#FF9C6E;}
	.st1{fill:#212D50;}
	.st2{fill:#FAA76C;}
	.st3{fill:#F09A82;}
	.st4{fill:#71B1FC;}
	.st5{fill:#A5CAFA;}
	.st6{fill:#9B6FEF;}
</style>
<g id="salmon">
	<g>
		<g>
			<path class="st0" d="M500.1182,257.9275c-30.9281,1.5745-74.1252-18.3696-76.0326-53.7623
				c-1.0338-19.1925,9.8578-38.6563,4.1342-57.0046c-6.3875-20.4764-30.3029-29.9371-41.6812-48.1201
				c-8.8903-14.2073-9.0849-32.5545-4.1114-48.5592s14.5772-30.1245,24.5164-43.6189
				c2.8165,14.0994,14.9837,24.3758,27.4724,31.5002c12.4887,7.1244,26.2825,12.4778,36.7161,22.3705
				c13.6935,12.9838,19.8867,33.3807,15.7238,51.7862c-2.0103,8.8881-6.2685,17.6561-4.9468,26.6723
				c2.2422,15.2954,18.5576,23.4034,30.9623,32.6285c13.0432,9.6998,23.5911,23.6927,26.0389,39.7618
				c2.4479,16.069-4.6073,34.0035-18.9937,41.5692C513.8604,256.3363,506.9522,257.5795,500.1182,257.9275z"/>
		</g>
		<g>
			<g>
				<path class="st1" d="M403.3627,37.8554c5.5042,13.3185,14.2706,24.8235,21.2177,37.3688
					c6.449,11.646,11.6926,23.9098,16.4849,36.3157c9.2841,24.0335,16.9121,48.8189,28.6385,71.8361
					c6.4218,12.605,14.1495,24.5074,23.67,34.9995c0.8928,0.9839,2.3461-0.4764,1.4566-1.4566
					c-34.8589-38.4163-42.355-92.1401-65.459-137.0864c-7.4406-14.4749-17.7885-27.4408-24.0223-42.5246
					C404.8499,36.0997,402.8559,36.6292,403.3627,37.8554L403.3627,37.8554z"/>
			</g>
		</g>
		<g>
			<g>
				<path class="st1" d="M439.517,70.5201c0.8493-4.9397,2.2916-9.6749,4.3907-14.2299c0.5511-1.1959-1.2239-2.2437-1.7788-1.0397
					c-2.1728,4.715-3.7183,9.6031-4.5984,14.722C437.3076,71.269,439.2924,71.826,439.517,70.5201L439.517,70.5201z"/>
			</g>
		</g>
		<g>
			<g>
				<path class="st1" d="M452.0616,87.9096c2.6357-4.734,5.7188-9.1403,9.2822-13.2239c0.8682-0.995-0.5831-2.4578-1.4566-1.4566
					c-3.6761,4.2126-6.884,8.7549-9.6043,13.6408C449.6374,88.0293,451.416,89.0694,452.0616,87.9096L452.0616,87.9096z"/>
			</g>
		</g>
		<g>
			<g>
				<path class="st1" d="M458.5977,109.6708c4.6224-1.8185,9.2446-3.6369,13.867-5.4554c1.2196-0.4799,0.6885-2.4728-0.5476-1.9864
					c-4.6224,1.8185-9.2447,3.6369-13.867,5.4554C456.8304,108.1643,457.3615,110.1572,458.5977,109.6708L458.5977,109.6708z"/>
			</g>
		</g>
		<g>
			<g>
				<path class="st1" d="M398.0719,67.4918c4.5634,0.9681,8.9359,2.4281,13.151,4.4335c1.1909,0.5666,2.2375-1.2089,1.0398-1.7787
					c-4.3709-2.0795-8.9062-3.6363-13.6432-4.6412C397.3264,65.2311,396.7737,67.2165,398.0719,67.4918L398.0719,67.4918z"/>
			</g>
		</g>
		<g>
			<g>
				<path class="st1" d="M412.1962,89.3204c-4.0933,0.9086-8.1865,1.8172-12.2798,2.7258
					c-1.2936,0.2872-0.7462,2.2736,0.5476,1.9864c4.0933-0.9086,8.1865-1.8172,12.2798-2.7258
					C414.0374,91.0196,413.4901,89.0332,412.1962,89.3204L412.1962,89.3204z"/>
			</g>
		</g>
		<g>
			<g>
				<path class="st1" d="M426.8769,101.7688c-2.9909,2.7084-6.641,4.2594-10.6712,4.5187c-1.3164,0.0847-1.3259,2.1453,0,2.06
					c4.5869-0.2951,8.7188-2.0351,12.1278-5.1221C429.3184,102.3337,427.8579,100.8804,426.8769,101.7688L426.8769,101.7688z"/>
			</g>
		</g>
		<g>
			<g>
				<path class="st1" d="M491.0541,178.7265c-0.3778-2.2946,0.3247-4.5775,1.8769-6.2982c0.886-0.9822-0.5664-2.4436-1.4566-1.4566
					c-2.0834,2.3097-2.9106,5.2416-2.4066,8.3024C489.2826,180.5791,491.268,180.0255,491.0541,178.7265L491.0541,178.7265z"/>
			</g>
		</g>
		<g>
			<g>
				<path class="st1" d="M498.803,194.7795c1.7936-3.2163,3.8454-6.2537,6.1845-9.099c0.8354-1.0163-0.6138-2.4819-1.4566-1.4566
					c-2.4506,2.981-4.6267,6.1449-6.5067,9.516C496.3779,194.8988,498.1565,195.9388,498.803,194.7795L498.803,194.7795z"/>
			</g>
		</g>
		<g>
			<g>
				<path class="st1" d="M510.8643,209.6078c2.9487-1.397,5.8973-2.7941,8.8461-4.1911c1.1973-0.5673,0.1531-2.3439-1.0398-1.7787
					c-2.9487,1.397-5.8973,2.7941-8.8461,4.1911C508.6271,208.3964,509.6714,210.1729,510.8643,209.6078L510.8643,209.6078z"/>
			</g>
		</g>
		<g>
			<g>
				<path class="st1" d="M439.0991,172.2551c3.1231,1.7637,6.4801,2.7803,10.0515,3.0854c1.3208,0.1128,1.3132-1.9478,0-2.06
					c-3.2084-0.2741-6.2097-1.2217-9.0117-2.8041C438.9829,169.8236,437.9434,171.6025,439.0991,172.2551L439.0991,172.2551z"/>
			</g>
		</g>
		<g>
			<g>
				<path class="st1" d="M439.5408,191.037c4.8971,3.0923,10.4315,4.1741,16.1398,3.2867c1.306-0.203,0.7514-2.1884-0.5476-1.9864
					c-5.1602,0.8022-10.1509-0.2995-14.5524-3.0789C439.4564,188.5483,438.4215,190.3301,439.5408,191.037L439.5408,191.037z"/>
			</g>
		</g>
		<g>
			<g>
				<path class="st1" d="M448.4859,216.5579c7.0641,0.0201,13.5823-2.4055,18.9559-6.9814c1.0108-0.8607-0.4523-2.312-1.4566-1.4566
					c-4.967,4.2296-10.9843,6.3966-17.4993,6.378C447.1602,214.4941,447.1584,216.5541,448.4859,216.5579L448.4859,216.5579z"/>
			</g>
		</g>
	</g>
	<g>
		<g>
			<path class="st0" d="M833.5,257.3771c30.9587-0.7625,72.5287-23.9078,71.7613-59.3435
				c-0.4167-19.2158-12.7453-37.8027-8.4218-56.5305c4.825-20.8998,27.9588-32.1373,37.9333-51.1265
				c7.7936-14.8373,6.6037-33.147,0.4373-48.731C929.0437,26.0616,918.4025,12.7064,907.4739,0
				c-1.745,14.2717-13.1027,25.4364-25.0184,33.4825c-11.9158,8.0461-25.2666,14.4245-34.9243,25.0759
				c-12.6753,13.9796-17.3124,34.7855-11.7733,52.8246c2.6749,8.7112,7.5823,17.133,6.9444,26.2233
				c-1.0823,15.421-16.7397,24.7364-28.4133,34.8707c-12.2744,10.6558-21.737,25.4044-22.966,41.6124
				c-1.2289,16.2079,7.1588,33.5592,22.0747,40.0183C819.6771,256.8268,826.6592,257.5456,833.5,257.3771z"/>
		</g>
		<g>
			<g>
				<path class="st1" d="M911.3781,30.1626c-4.4913,13.7174-12.4697,25.867-18.4164,38.9444
					c-5.1648,11.3577-9.2695,23.1614-12.9243,35.0811c-7.471,24.366-13.0895,49.3692-22.6181,73.0648
					c-5.546,13.7919-12.5381,27.0208-21.6865,38.7766c-0.8047,1.034,0.643,2.5021,1.4565,1.4566
					c32.4443-41.691,35.5795-96.6298,56.0074-143.8584c6.2766-14.5111,15.2295-27.8351,20.1676-42.9174
					C913.7778,29.4474,911.7894,28.9063,911.3781,30.1626L911.3781,30.1626z"/>
			</g>
		</g>
		<g>
			<g>
				<path class="st1" d="M881.7574,65.3112c-1.2625-5.0331-3.1569-9.8073-5.6774-14.3418c-0.6442-1.159-2.424-0.1212-1.7787,1.0398
					c2.4374,4.3852,4.2493,8.9842,5.4697,13.8497C880.0933,67.1439,882.0806,66.5995,881.7574,65.3112L881.7574,65.3112z"/>
			</g>
		</g>
		<g>
			<g>
				<path class="st1" d="M870.334,83.1138c-3.078-4.666-6.6062-8.9689-10.5905-12.8904c-0.9457-0.9308-2.4033,0.5248-1.4566,1.4566
					c3.8597,3.799,7.2859,7.9524,10.2684,12.4734C869.2822,85.2554,871.0668,84.2247,870.334,83.1138L870.334,83.1138z"/>
			</g>
		</g>
		<g>
			<g>
				<path class="st1" d="M864.1928,104.407c-4.7463-1.4647-9.4927-2.9294-14.239-4.394c-1.2697-0.3918-1.8127,1.5961-0.5477,1.9864
					c4.7463,1.4647,9.4927,2.9294,14.239,4.394C864.9147,106.7853,865.4578,104.7974,864.1928,104.407L864.1928,104.407z"/>
			</g>
		</g>
		<g>
			<g>
				<path class="st1" d="M920.2714,57.8246c-4.6448,1.3584-9.0618,3.2358-13.2628,5.6387c-1.1505,0.6581-0.114,2.4387,1.0397,1.7787
					c4.0503-2.3167,8.2916-4.121,12.7708-5.431C922.0887,59.4397,921.5485,57.4512,920.2714,57.8246L920.2714,57.8246z"/>
			</g>
		</g>
		<g>
			<g>
				<path class="st1" d="M907.9833,84.6235c4.1501,0.5973,8.3003,1.1946,12.4504,1.7919c1.2968,0.1866,1.8568-1.798,0.5476-1.9864
					c-4.1501-0.5973-8.3003-1.1946-12.4504-1.7919C907.2343,82.4504,906.6742,84.435,907.9833,84.6235L907.9833,84.6235z"/>
			</g>
		</g>
		<g>
			<g>
				<path class="st1" d="M893.3557,97.6488c3.6293,2.8189,7.8519,4.3003,12.4588,4.2486c1.3247-0.0149,1.3282-2.0749,0-2.06
					c-4.0251,0.0452-7.8118-1.1673-11.0021-3.6452C893.7777,95.3887,892.3095,96.8363,893.3557,97.6488L893.3557,97.6488z"/>
			</g>
		</g>
		<g>
			<g>
				<path class="st1" d="M838.606,177.9162c0.2598-2.954-0.8455-5.8045-2.9878-7.8463c-0.9597-0.9146-2.4187,0.5398-1.4567,1.4566
					c1.7903,1.7063,2.6005,3.9335,2.3845,6.3896C836.4299,179.2366,838.4907,179.2288,838.606,177.9162L838.606,177.9162z"/>
			</g>
		</g>
		<g>
			<g>
				<path class="st1" d="M831.7859,193.2045c-2.1259-3.2174-4.5231-6.2259-7.1906-9.0108
					c-0.9188-0.9593-2.3741,0.4987-1.4566,1.4566c2.5479,2.6601,4.8376,5.5205,6.8684,8.594
					C830.7348,195.3455,832.5195,194.3148,831.7859,193.2045L831.7859,193.2045z"/>
			</g>
		</g>
		<g>
			<g>
				<path class="st1" d="M819.8655,208.0863c-3.0457-1.1706-6.0913-2.3413-9.1371-3.512c-1.2383-0.476-1.7743,1.5148-0.5476,1.9865
					c3.0457,1.1706,6.0913,2.3413,9.1371,3.512C820.5563,210.5487,821.0922,208.5578,819.8655,208.0863L819.8655,208.0863z"/>
			</g>
		</g>
		<g>
			<g>
				<path class="st1" d="M886.7787,165.6096c-2.7642,1.853-5.7527,3.0224-9.0364,3.5514c-1.3054,0.2103-0.7513,2.1957,0.5476,1.9864
					c3.4351-0.5534,6.6393-1.8224,9.5285-3.7591C888.9141,166.6539,887.8841,164.8687,886.7787,165.6096L886.7787,165.6096z"/>
			</g>
		</g>
		<g>
			<g>
				<path class="st1" d="M887.7546,184.3714c-4.2866,3.1928-9.2122,4.6189-14.5425,4.1905c-1.3216-0.1062-1.3146,1.9543,0,2.06
					c5.6312,0.4526,11.0505-1.0964,15.5822-4.4718C889.8455,185.3672,888.8196,183.5782,887.7546,184.3714L887.7546,184.3714z"/>
			</g>
		</g>
		<g>
			<g>
				<path class="st1" d="M881.7875,210.1742c-6.6033,0.5184-12.8077-1.2441-18.1596-5.1454
					c-1.0727-0.7818-2.1017,1.0047-1.0397,1.7787c5.6115,4.0905,12.2767,5.9701,19.1993,5.4267
					C883.1005,212.1311,883.1116,210.0703,881.7875,210.1742L881.7875,210.1742z"/>
			</g>
		</g>
	</g>
</g>
<g id="orange">
	<g>
		<g>
			<path class="st2" d="M610.7567,254.9218c-12.445,5.0425-28.9494,2.7218-41.156-0.9661
				c-3.7641-1.1372-7.5402-2.3853-10.8918-4.4416c-3.9224-2.4064-7.1069-5.8207-10.2391-9.1919
				c-8.8492-9.5237-13.6965-15.4607-13.1324-28.8145c0.4638-10.9771,5.6271-21.8113,14.7488-28.1862
				c4.9971-3.4922,11.0054-5.7693,14.8926-10.4656c9.0001-10.8735,2.0404-26.8415-1.2452-40.5688
				c-8.1132-33.8977,13.3574-72.2212,46.5027-83.0039c-4.2438,10.2599,0.1583,22.1607,6.6664,31.1562
				c6.5082,8.9955,15.0881,16.4469,20.7941,25.9715c11.2521,18.7823,8.9005,44.7194-5.546,61.1717
				c-5.7833,6.5862-13.6647,12.5729-14.5415,21.2939c-1.0128,10.0738,7.8151,18.19,11.3052,27.694
				c5.072,13.8114-2.8624,30.6591-15.6849,37.2223C612.4255,254.2041,611.6004,254.5799,610.7567,254.9218z"/>
		</g>
		<g>
			<g>
				<path class="st1" d="M596.8663,83.3399c-8.6169,17.8095-3.0926,37.5698-0.7051,56.1483
					c1.3071,10.1723,1.6978,20.4264-1.1462,30.3872c-3.0319,10.619-8.675,20.2728-11.76,30.8701
					c-2.9327,10.0744-3.5595,21.2037,1.9346,30.5239c0.6728,1.1412,2.4542,0.106,1.7788-1.0397
					c-11.3466-19.2482,4.0901-40.2759,9.6837-58.6255c5.601-18.3736,0.282-36.8986-1.7729-55.3629
					c-1.2054-10.8311-1.0698-21.8673,3.7658-31.8617C599.22,83.1914,597.4442,82.1455,596.8663,83.3399L596.8663,83.3399z"/>
			</g>
		</g>
		<g>
			<g>
				<path class="st1" d="M609.8129,118.0148c2.7684-2.3268,4.9879-5.175,6.5699-8.4272c0.5776-1.1873-1.1983-2.2329-1.7788-1.0398
					c-1.5134,3.1111-3.5997,5.7845-6.2479,8.0102C607.3401,117.4122,608.8038,118.8629,609.8129,118.0148L609.8129,118.0148z"/>
			</g>
		</g>
		<g>
			<g>
				<path class="st1" d="M614.8647,132.7296c2.7826,1.1137,5.793,1.1612,8.615,0.1584c1.2405-0.4408,0.7061-2.4319-0.5476-1.9864
					c-2.5244,0.897-5.0358,0.8357-7.5197-0.1584C614.1818,130.2506,613.6472,132.2423,614.8647,132.7296L614.8647,132.7296z"/>
			</g>
		</g>
		<g>
			<g>
				<path class="st1" d="M612.2999,153.2866c2.2481,3.4217,5.4297,5.905,9.2888,7.2686c1.2524,0.4426,1.7911-1.547,0.5476-1.9864
					c-3.3322-1.1775-6.1179-3.3694-8.0577-6.3219C613.3536,151.1434,611.5691,152.1743,612.2999,153.2866L612.2999,153.2866z"/>
			</g>
		</g>
		<g>
			<g>
				<path class="st1" d="M578.96,104.9533c1.6644,2.8667,3.9976,5.2149,6.8514,6.901c1.144,0.6759,2.1815-1.1042,1.0398-1.7787
					c-2.5597-1.5123-4.6197-3.591-6.1124-6.1619C580.0734,102.7675,578.2923,103.8035,578.96,104.9533L578.96,104.9533z"/>
			</g>
		</g>
		<g>
			<g>
				<path class="st1" d="M574.8702,124.411c2.7238,2.3329,5.9436,3.6456,9.5255,3.8686c1.3239,0.0824,1.319-1.9779,0-2.06
					c-3.009-0.1873-5.7767-1.3021-8.0688-3.2652C575.325,122.0963,573.8613,123.5469,574.8702,124.411L574.8702,124.411z"/>
			</g>
		</g>
		<g>
			<g>
				<path class="st1" d="M578.3723,146.7513c3.3481,0.1644,6.5085-1.081,8.8694-3.4543c0.9361-0.9409-0.52-2.3982-1.4566-1.4566
					c-2.0068,2.0173-4.5768,2.9902-7.4128,2.851C577.0472,144.6261,577.0506,146.6864,578.3723,146.7513L578.3723,146.7513z"/>
			</g>
		</g>
		<g>
			<g>
				<path class="st1" d="M596.2495,201.245c4.5755-0.866,8.8099-2.6575,12.6171-5.3384c1.0757-0.7574,0.0475-2.5444-1.0397-1.7787
					c-3.6816,2.5925-7.7008,4.2934-12.125,5.1308C594.4009,199.5049,594.9518,201.4906,596.2495,201.245L596.2495,201.245z"/>
			</g>
		</g>
		<g>
			<g>
				<path class="st1" d="M599.5576,214.2002c3.4771,0.7239,6.9541,1.4478,10.4312,2.1716c1.2936,0.2693,1.8468-1.716,0.5476-1.9864
					c-3.4771-0.7239-6.9542-1.4478-10.4312-2.1717C598.8115,211.9444,598.2584,213.9297,599.5576,214.2002L599.5576,214.2002z"/>
			</g>
		</g>
		<g>
			<g>
				<path class="st1" d="M596.6083,229.505c3.1552,1.5367,6.3105,3.0734,9.4658,4.6101c1.1871,0.5782,2.2327-1.1978,1.0398-1.7787
					c-3.1552-1.5367-6.3105-3.0735-9.4658-4.6102C596.4609,227.1481,595.4153,228.924,596.6083,229.505L596.6083,229.505z"/>
			</g>
		</g>
		<g>
			<g>
				<path class="st1" d="M567.893,190.0206c2.3932,1.9395,4.7865,3.8791,7.1797,5.8187c1.0211,0.8275,2.4873-0.6214,1.4566-1.4566
					c-2.3932-1.9395-4.7865-3.8791-7.1797-5.8187C568.3286,187.7364,566.8624,189.1853,567.893,190.0206L567.893,190.0206z"/>
			</g>
		</g>
		<g>
			<g>
				<path class="st1" d="M564.6139,206.2297c2.6288,1.4848,5.2576,2.9697,7.8864,4.4546c1.1558,0.6528,2.1953-1.1261,1.0398-1.7787
					c-2.6288-1.4849-5.2576-2.9697-7.8865-4.4546C564.4977,203.7981,563.4583,205.5771,564.6139,206.2297L564.6139,206.2297z"/>
			</g>
		</g>
		<g>
			<g>
				<path class="st1" d="M564.6426,229.9188c4.3409-0.2652,8.2521-1.8836,11.5118-4.762c0.9957-0.8793-0.4658-2.3316-1.4566-1.4566
					c-2.8364,2.5046-6.2781,3.9278-10.0552,4.1586C563.3254,227.9393,563.3163,229.9998,564.6426,229.9188L564.6426,229.9188z"/>
			</g>
		</g>
	</g>
	<g>
		<g>
			<path class="st2" d="M120.926,234.1845c-6.6574,9.407-19.658,15.3732-30.1862,18.3613
				c-3.2466,0.9214-6.5531,1.7682-9.9272,1.8346c-3.9486,0.0776-7.831-0.9149-11.6555-1.9001
				c-10.8046-2.7836-17.0568-4.8288-22.8333-14.7394c-4.7484-8.1467-6.0348-18.3665-2.3957-27.1971
				c1.9935-4.8376,5.2806-9.2654,5.9146-14.4591c1.4679-12.025-10.9559-20.3402-19.6872-28.7379
				C8.5951,146.61,6.3619,108.9749,25.3189,85.8338c1.6849,9.379,10.3769,15.9397,19.2454,19.4259
				c8.8685,3.4861,18.519,4.897,27.0529,9.1369c16.8286,8.361,27.1409,28.1919,24.321,46.7703
				c-1.1289,7.4374-4.0514,15.4131-0.6463,22.1208c3.9333,7.7482,14.0708,9.5246,20.9941,14.7759
				c10.061,7.6312,12.1298,23.4794,5.9039,34.16C121.7996,232.8932,121.3773,233.5467,120.926,234.1845z"/>
		</g>
		<g>
			<g>
				<path class="st1" d="M31.2831,116.5979c1.8859,15.7549,13.4699,27.0999,23.3735,38.5163
					c5.648,6.5108,11.1533,13.4331,14.2389,21.5758c3.8038,10.0377,3.9129,20.9684,6.9529,31.2041
					c2.5607,8.6223,7.2576,16.9493,15.5319,21.1415c1.1799,0.5978,2.2238-1.1788,1.0398-1.7787
					c-11.004-5.575-14.6892-18.1007-16.7105-29.3777c-2.0362-11.3595-3.7387-22.2638-10.1746-32.1089
					c-10.5483-16.1359-29.7516-28.7858-32.1918-49.1721C33.1875,115.2978,31.1256,115.2822,31.2831,116.5979L31.2831,116.5979z"/>
			</g>
		</g>
		<g>
			<g>
				<path class="st1" d="M56.9723,135.7791c0.9186-3.0003,1.2138-6.061,0.8617-9.1805c-0.147-1.3025-2.2087-1.3174-2.06,0
					c0.3324,2.9447,0.0799,5.798-0.7881,8.6328C54.5969,136.502,56.5847,137.0451,56.9723,135.7791L56.9723,135.7791z"/>
			</g>
		</g>
		<g>
			<g>
				<path class="st1" d="M67.3192,144.1363c2.6598-0.491,4.8872-1.9613,6.5182-4.0948c0.8048-1.0528-0.9835-2.08-1.7787-1.0397
					c-1.3056,1.7078-3.1921,2.7614-5.2871,3.1481C65.4697,142.3902,66.0211,144.3759,67.3192,144.1363L67.3192,144.1363z"/>
			</g>
		</g>
		<g>
			<g>
				<path class="st1" d="M74.8561,160.1314c3.2871,1.4398,6.7017,1.7947,10.2077,0.9975c1.2922-0.2938,0.7453-2.2803-0.5476-1.9864
					c-2.9214,0.6642-5.8694,0.4152-8.6204-0.7898C74.6931,157.8258,73.6433,159.6002,74.8561,160.1314L74.8561,160.1314z"/>
			</g>
		</g>
		<g>
			<g>
				<path class="st1" d="M28.382,140.646c2.5772,1.306,5.3382,1.9466,8.2283,1.8585c1.3225-0.0404,1.3282-2.1005,0-2.06
					c-2.5306,0.0772-4.9283-0.4318-7.1886-1.5772C28.2419,138.2694,27.1979,140.046,28.382,140.646L28.382,140.646z"/>
			</g>
		</g>
		<g>
			<g>
				<path class="st1" d="M34.4707,156.6276c3.1028,0.4231,6.0524-0.0803,8.8022-1.6003c1.1605-0.6415,0.1226-2.4212-1.0397-1.7787
					c-2.2232,1.2289-4.6872,1.7373-7.2149,1.3927C33.722,154.4645,33.1611,156.4491,34.4707,156.6276L34.4707,156.6276z"/>
			</g>
		</g>
		<g>
			<g>
				<path class="st1" d="M47.4747,171.1641c2.5133-1.4262,4.2981-3.8324,4.896-6.6638c0.2732-1.2933-1.7122-1.846-1.9864-0.5476
					c-0.4934,2.3363-1.8691,4.2522-3.9493,5.4326C45.2821,170.0396,46.3189,171.82,47.4747,171.1641L47.4747,171.1641z"/>
			</g>
		</g>
		<g>
			<g>
				<path class="st1" d="M85.6562,202.254c2.9921-2.8139,5.2387-6.1631,6.7799-9.9659c0.4978-1.2281-1.4941-1.7623-1.9864-0.5476
					c-1.4032,3.4624-3.5322,6.5009-6.2501,9.0569C83.2318,201.7075,84.6906,203.1622,85.6562,202.254L85.6562,202.254z"/>
			</g>
		</g>
		<g>
			<g>
				<path class="st1" d="M93.9873,210.0946c2.8477-1.0872,5.6954-2.1743,8.5432-3.2615c1.2262-0.4682,0.6941-2.4604-0.5476-1.9865
					c-2.8477,1.0872-5.6954,2.1743-8.5432,3.2615C92.2134,208.5763,92.7455,210.5687,93.9873,210.0946L93.9873,210.0946z"/>
			</g>
		</g>
		<g>
			<g>
				<path class="st1" d="M98.8959,222.5173c2.9916-0.3508,5.9832-0.7016,8.9748-1.0524c1.301-0.1526,1.3163-2.2144,0-2.06
					c-2.9916,0.3508-5.9832,0.7016-8.9748,1.0524C97.595,220.6099,97.5796,222.6717,98.8959,222.5173L98.8959,222.5173z"/>
			</g>
		</g>
		<g>
			<g>
				<path class="st1" d="M60.0867,207.3042c2.6275,0.2932,5.2551,0.5864,7.8826,0.8796c1.3155,0.1468,1.3051-1.9144,0-2.06
					c-2.6275-0.2932-5.2551-0.5864-7.8826-0.8796C58.7712,205.0975,58.7816,207.1586,60.0867,207.3042L60.0867,207.3042z"/>
			</g>
		</g>
		<g>
			<g>
				<path class="st1" d="M64.9983,220.5156c2.5872-0.1445,5.1744-0.289,7.7615-0.4334c1.3182-0.0736,1.3268-2.1341,0-2.06
					c-2.5872,0.1445-5.1744,0.289-7.7615,0.4334C63.6802,218.5292,63.6716,220.5896,64.9983,220.5156L64.9983,220.5156z"/>
			</g>
		</g>
		<g>
			<g>
				<path class="st1" d="M76.0686,237.6182c3.0372-2.2041,5.1813-5.2127,6.1999-8.8324c0.3597-1.2782-1.6273-1.8239-1.9864-0.5476
					c-0.8643,3.0719-2.6649,5.723-5.2531,7.6013C73.9661,236.6106,74.9931,238.3986,76.0686,237.6182L76.0686,237.6182z"/>
			</g>
		</g>
	</g>
	<g>
		<g>
			<path class="st2" d="M345.5954,254.6297c-13.3943,5.4272-31.1576,2.9295-44.2953-1.0397
				c-4.0513-1.224-8.1154-2.5672-11.7227-4.7804c-4.2216-2.59-7.649-6.2648-11.0203-9.893
				c-9.5241-10.2501-14.7413-16.6401-14.1341-31.0124c0.4991-11.8145,6.0563-23.475,15.8738-30.3363
				c5.3782-3.7587,11.8448-6.2094,16.0286-11.2639c9.6866-11.7029,2.1961-28.889-1.3402-43.6634
				c-8.7321-36.4834,14.3762-77.7301,50.0498-89.3353c-4.5675,11.0425,0.1703,23.851,7.1749,33.5327
				c7.0045,9.6817,16.239,17.7014,22.3802,27.9525c12.1104,20.2149,9.5794,48.1305-5.9691,65.8377
				c-6.2244,7.0886-14.707,13.5319-15.6506,22.9182c-1.0901,10.8422,8.4112,19.5774,12.1676,29.8064
				c5.4587,14.865-3.0807,32.9977-16.8813,40.0615C347.3915,253.8573,346.5035,254.2617,345.5954,254.6297z"/>
		</g>
		<g>
			<g>
				<path class="st1" d="M330.7134,69.9995c-9.3671,19.3181-3.2133,40.8412-0.6721,60.9898
					c1.4124,11.1986,1.6453,22.3908-1.6545,33.2975c-3.3387,11.0351-9.1656,21.1457-12.3674,32.2264
					c-3.1082,10.7566-3.7568,22.6844,2.1268,32.6203c0.6749,1.1399,2.4564,0.1047,1.7787-1.0397
					c-12.0542-20.3567,3.9142-42.7545,10.0915-62.1161c6.4333-20.1641,0.6561-40.363-1.5961-60.6804
					c-1.2906-11.6425-1.1363-23.517,4.072-34.2581C333.0681,69.8514,331.2923,68.8056,330.7134,69.9995L330.7134,69.9995z"/>
			</g>
		</g>
		<g>
			<g>
				<path class="st1" d="M344.524,107.2242c2.9753-2.5007,5.3586-5.559,7.0588-9.0541c0.5776-1.1873-1.1983-2.2329-1.7788-1.0398
					c-1.6313,3.3536-3.8821,6.2379-6.7367,8.6372C342.0513,106.6216,343.515,108.0723,344.524,107.2242L344.524,107.2242z"/>
			</g>
		</g>
		<g>
			<g>
				<path class="st1" d="M350.0377,123.0413c2.9835,1.1941,6.2046,1.2457,9.2303,0.1706c1.2405-0.4408,0.706-2.4319-0.5476-1.9864
					c-2.7285,0.9696-5.4501,0.9041-8.1351-0.1706C349.3547,120.5623,348.82,122.5539,350.0377,123.0413L350.0377,123.0413z"/>
			</g>
		</g>
		<g>
			<g>
				<path class="st1" d="M347.3241,145.2023c2.4079,3.6648,5.817,6.3263,9.9503,7.787c1.2524,0.4426,1.7911-1.547,0.5476-1.9864
					c-3.6065-1.2745-6.6195-3.6445-8.7192-6.8403C348.3779,143.0592,346.5933,144.0901,347.3241,145.2023L347.3241,145.2023z"/>
			</g>
		</g>
		<g>
			<g>
				<path class="st1" d="M311.4411,93.1824c1.7848,3.074,4.2857,5.5911,7.3458,7.3992c1.1439,0.6759,2.1815-1.1042,1.0397-1.7787
					c-2.7662-1.6344-4.9937-3.8817-6.6068-6.6602C312.5544,90.9966,310.7735,92.0325,311.4411,93.1824L311.4411,93.1824z"/>
			</g>
		</g>
		<g>
			<g>
				<path class="st1" d="M307.0271,114.1083c2.9149,2.4966,6.3633,3.9021,10.1965,4.1407c1.3239,0.0824,1.319-1.9779,0-2.06
					c-3.2607-0.203-6.2561-1.4101-8.7398-3.5374C307.4818,111.7936,306.0182,113.2442,307.0271,114.1083L307.0271,114.1083z"/>
			</g>
		</g>
		<g>
			<g>
				<path class="st1" d="M310.7407,138.1296c3.5837,0.176,6.9632-1.1544,9.4904-3.6948c0.9361-0.9409-0.52-2.3982-1.4566-1.4566
					c-2.1738,2.1852-4.9616,3.2423-8.0338,3.0914C309.4156,136.0045,309.419,138.0647,310.7407,138.1296L310.7407,138.1296z"/>
			</g>
		</g>
		<g>
			<g>
				<path class="st1" d="M329.9607,196.7828c4.9188-0.931,9.4679-2.8557,13.5606-5.7377c1.0757-0.7574,0.0475-2.5444-1.0397-1.7787
					c-3.967,2.7935-8.3013,4.6278-13.0686,5.5301C328.1121,195.0427,328.663,197.0285,329.9607,196.7828L329.9607,196.7828z"/>
			</g>
		</g>
		<g>
			<g>
				<path class="st1" d="M333.5628,210.7262c3.7423,0.7791,7.4846,1.5582,11.2269,2.3373c1.2936,0.2693,1.8468-1.716,0.5476-1.9864
					c-3.7423-0.7791-7.4846-1.5582-11.2269-2.3373C332.8168,208.4705,332.2637,210.4557,333.5628,210.7262L333.5628,210.7262z"/>
			</g>
		</g>
		<g>
			<g>
				<path class="st1" d="M330.4075,227.2064c3.396,1.6539,6.7919,3.3078,10.1878,4.9618c1.1871,0.5781,2.2327-1.1977,1.0397-1.7787
					c-3.3959-1.6539-6.7919-3.3078-10.1878-4.9618C330.2601,224.8495,329.2145,226.6253,330.4075,227.2064L330.4075,227.2064z"/>
			</g>
		</g>
		<g>
			<g>
				<path class="st1" d="M299.5177,184.7225c2.5758,2.0875,5.1516,4.175,7.7274,6.2625c1.0211,0.8275,2.4873-0.6214,1.4566-1.4566
					c-2.5758-2.0875-5.1516-4.175-7.7274-6.2625C299.9533,182.4383,298.487,183.8871,299.5177,184.7225L299.5177,184.7225z"/>
			</g>
		</g>
		<g>
			<g>
				<path class="st1" d="M295.9725,202.1557c2.8293,1.5981,5.6587,3.1962,8.488,4.7944c1.1559,0.6529,2.1953-1.1261,1.0397-1.7787
					c-2.8293-1.5981-5.6587-3.1962-8.4879-4.7944C295.8564,199.7241,294.817,201.503,295.9725,202.1557L295.9725,202.1557z"/>
			</g>
		</g>
		<g>
			<g>
				<path class="st1" d="M295.9638,227.641c4.6503-0.2841,8.8423-2.0186,12.3344-5.1022c0.9957-0.8793-0.4658-2.3316-1.4566-1.4566
					c-3.0692,2.7102-6.7906,4.2491-10.8777,4.4988C294.6466,225.6615,294.6375,227.722,295.9638,227.641L295.9638,227.641z"/>
			</g>
		</g>
	</g>
	<g>
		<g>
			<path class="st2" d="M1136.1648,254.9218c-12.4451,5.0425-28.9495,2.7218-41.156-0.9661
				c-3.7642-1.1372-7.5403-2.3853-10.8918-4.4416c-3.9225-2.4064-7.1069-5.8207-10.2393-9.1919
				c-8.8491-9.5237-13.6965-15.4607-13.1324-28.8145c0.4637-10.9771,5.6271-21.8113,14.7488-28.1862
				c4.9971-3.4922,11.0055-5.7693,14.8927-10.4656c9.0001-10.8735,2.0404-26.8415-1.2451-40.5688
				c-8.1134-33.8977,13.3573-72.2212,46.5026-83.0039c-4.2438,10.2599,0.1582,22.1607,6.6664,31.1562
				s15.0881,16.4469,20.7941,25.9715c11.2521,18.7823,8.9005,44.7194-5.546,61.1717c-5.7833,6.5862-13.6647,12.5729-14.5415,21.2939
				c-1.0128,10.0738,7.8151,18.19,11.3053,27.694c5.0719,13.8114-2.8624,30.6591-15.6849,37.2223
				C1137.8336,254.2041,1137.0085,254.5799,1136.1648,254.9218z"/>
		</g>
		<g>
			<g>
				<path class="st1" d="M1122.2745,83.3399c-8.6169,17.8095-3.0925,37.5698-0.7052,56.1483
					c1.3071,10.1723,1.6978,20.4264-1.1462,30.3872c-3.0317,10.619-8.675,20.2728-11.7599,30.8701
					c-2.9327,10.0744-3.5594,21.2037,1.9346,30.5239c0.6727,1.1412,2.4541,0.106,1.7788-1.0397
					c-11.3466-19.2482,4.0901-40.2759,9.6837-58.6255c5.601-18.3736,0.282-36.8986-1.7728-55.3629
					c-1.2054-10.8311-1.0698-21.8673,3.7657-31.8617C1124.6282,83.1914,1122.8524,82.1455,1122.2745,83.3399L1122.2745,83.3399z"/>
			</g>
		</g>
		<g>
			<g>
				<path class="st1" d="M1135.2209,118.0148c2.7686-2.3268,4.9879-5.175,6.5699-8.4272c0.5776-1.1873-1.1982-2.2329-1.7787-1.0398
					c-1.5134,3.1111-3.5997,5.7845-6.2478,8.0102C1132.7483,117.4122,1134.2119,118.8629,1135.2209,118.0148L1135.2209,118.0148z"/>
			</g>
		</g>
		<g>
			<g>
				<path class="st1" d="M1140.2728,132.7296c2.7827,1.1137,5.793,1.1612,8.615,0.1584c1.2405-0.4408,0.7061-2.4319-0.5476-1.9864
					c-2.5244,0.897-5.0358,0.8357-7.5198-0.1584C1139.5898,130.2506,1139.0552,132.2423,1140.2728,132.7296L1140.2728,132.7296z"/>
			</g>
		</g>
		<g>
			<g>
				<path class="st1" d="M1137.708,153.2866c2.248,3.4217,5.4297,5.905,9.2888,7.2686c1.2523,0.4426,1.791-1.547,0.5476-1.9864
					c-3.3322-1.1775-6.1178-3.3694-8.0577-6.3219C1138.7617,151.1434,1136.9772,152.1743,1137.708,153.2866L1137.708,153.2866z"/>
			</g>
		</g>
		<g>
			<g>
				<path class="st1" d="M1104.368,104.9533c1.6644,2.8667,3.9977,5.2149,6.8514,6.901c1.1439,0.6759,2.1815-1.1042,1.0397-1.7787
					c-2.5596-1.5123-4.6196-3.591-6.1123-6.1619C1105.4814,102.7675,1103.7004,103.8035,1104.368,104.9533L1104.368,104.9533z"/>
			</g>
		</g>
		<g>
			<g>
				<path class="st1" d="M1100.2783,124.411c2.7238,2.3329,5.9436,3.6456,9.5254,3.8686c1.324,0.0824,1.319-1.9779,0-2.06
					c-3.009-0.1873-5.7767-1.3021-8.0688-3.2652C1100.733,122.0963,1099.2694,123.5469,1100.2783,124.411L1100.2783,124.411z"/>
			</g>
		</g>
		<g>
			<g>
				<path class="st1" d="M1103.7804,146.7513c3.3481,0.1644,6.5084-1.081,8.8694-3.4543c0.9362-0.9409-0.52-2.3982-1.4565-1.4566
					c-2.007,2.0173-4.5769,2.9902-7.4128,2.851C1102.4552,144.6261,1102.4586,146.6864,1103.7804,146.7513L1103.7804,146.7513z"/>
			</g>
		</g>
		<g>
			<g>
				<path class="st1" d="M1121.6576,201.245c4.5754-0.866,8.8099-2.6575,12.6171-5.3384c1.0756-0.7574,0.0475-2.5444-1.0397-1.7787
					c-3.6816,2.5925-7.7008,4.2934-12.125,5.1308C1119.809,199.5049,1120.3599,201.4906,1121.6576,201.245L1121.6576,201.245z"/>
			</g>
		</g>
		<g>
			<g>
				<path class="st1" d="M1124.9656,214.2002c3.4771,0.7239,6.9542,1.4478,10.4313,2.1716c1.2936,0.2693,1.8468-1.716,0.5476-1.9864
					c-3.4771-0.7239-6.9542-1.4478-10.4312-2.1717C1124.2196,211.9444,1123.6665,213.9297,1124.9656,214.2002L1124.9656,214.2002z"
					/>
			</g>
		</g>
		<g>
			<g>
				<path class="st1" d="M1122.0164,229.505c3.1554,1.5367,6.3105,3.0734,9.4658,4.6101c1.1871,0.5782,2.2327-1.1978,1.0398-1.7787
					c-3.1553-1.5367-6.3105-3.0735-9.4658-4.6102C1121.869,227.1481,1120.8235,228.924,1122.0164,229.505L1122.0164,229.505z"/>
			</g>
		</g>
		<g>
			<g>
				<path class="st1" d="M1093.3011,190.0206c2.3933,1.9395,4.7865,3.8791,7.1797,5.8187c1.0211,0.8275,2.4873-0.6214,1.4567-1.4566
					c-2.3933-1.9395-4.7865-3.8791-7.1797-5.8187C1093.7367,187.7364,1092.2705,189.1853,1093.3011,190.0206L1093.3011,190.0206z"/>
			</g>
		</g>
		<g>
			<g>
				<path class="st1" d="M1090.022,206.2297c2.6288,1.4848,5.2576,2.9697,7.8864,4.4546c1.1559,0.6528,2.1953-1.1261,1.0398-1.7787
					c-2.6288-1.4849-5.2577-2.9697-7.8865-4.4546C1089.9059,203.7981,1088.8663,205.5771,1090.022,206.2297L1090.022,206.2297z"/>
			</g>
		</g>
		<g>
			<g>
				<path class="st1" d="M1090.0507,229.9188c4.3409-0.2652,8.2521-1.8836,11.5118-4.762c0.9957-0.8793-0.4658-2.3316-1.4567-1.4566
					c-2.8363,2.5046-6.2782,3.9278-10.0552,4.1586C1088.7335,227.9393,1088.7244,229.9998,1090.0507,229.9188L1090.0507,229.9188z"
					/>
			</g>
		</g>
	</g>
</g>
<g id="pink">
	<g>
		<g>
			<path class="st3" d="M576.564,229.5765c-13.7198,28.927-60.5569,33.6925-80.2189,7.9474
				c-6.9144-9.054-8.7338-23.0015-1.5157-32.2431c7.0081-8.9728,11.9129-16.3347,10.9796-28.7873
				c-0.856-11.4213-7.7299-21.3439-13.5603-31.2022c-5.8303-9.8584-10.9513-21.4151-7.9146-32.4587
				c4.9579-18.0308,24.1852-26.1444,34.0222-40.9076c7.7908,6.0196,15.5817,12.0391,23.3726,18.0587
				c11.3738,8.788,23.9777,20.3558,22.1174,34.6081c-1.8176,13.9253-17.3552,26.4878-11.3336,39.1746
				c2.3109,4.8688,7.2524,7.8042,11.4147,11.2278C579.463,187.7727,585.1843,211.4016,576.564,229.5765z"/>
		</g>
		<g>
			<g>
				<path class="st1" d="M518.6351,93.9621c-2.2536,11.0056-2.7676,22.2681-1.3395,33.4208
					c1.4545,11.3584,5.2911,21.9458,9.1693,32.6516c8.1194,22.4136,11.2874,45.6667,7.5899,69.3425
					c-0.2025,1.2969,1.7822,1.8557,1.9865,0.5476c3.4431-22.0469,1.412-44.4156-5.8398-65.51
					c-3.81-11.0827-8.3466-21.8827-10.3146-33.5023c-2.0439-12.0681-1.7181-24.4242,0.7346-36.4026
					C520.8864,93.2157,518.9012,92.6622,518.6351,93.9621L518.6351,93.9621z"/>
			</g>
		</g>
		<g>
			<g>
				<path class="st1" d="M531.6318,112.5183c2.2775-1.9025,4.2087-4.1406,5.7835-6.6548c0.7057-1.1268-1.0759-2.1619-1.7787-1.0398
					c-1.4858,2.3722-3.3141,4.4442-5.4614,6.238C529.1566,111.9124,530.6205,113.363,531.6318,112.5183L531.6318,112.5183z"/>
			</g>
		</g>
		<g>
			<g>
				<path class="st1" d="M537.41,128.6885c3.2451-1.4033,6.2241-3.2093,9.0083-5.3845c1.0436-0.8153-0.4233-2.2639-1.4566-1.4566
					c-2.6373,2.0604-5.5217,3.7349-8.5914,5.0624C535.1567,127.4345,536.2046,129.2098,537.41,128.6885L537.41,128.6885z"/>
			</g>
		</g>
		<g>
			<g>
				<path class="st1" d="M534.4778,150.7579c2.7397,0.0098,5.3674,0.4767,7.9486,1.3898c1.2522,0.443,1.791-1.5466,0.5476-1.9864
					c-2.75-0.9728-5.5804-1.453-8.4963-1.4634C533.152,148.6933,533.1503,150.7532,534.4778,150.7579L534.4778,150.7579z"/>
			</g>
		</g>
		<g>
			<g>
				<path class="st1" d="M499.5405,107.7273c1.9326,2.621,4.4203,4.532,7.4513,5.7225c1.2344,0.4848,1.7696-1.5065,0.5476-1.9864
					c-2.4826-0.9751-4.6373-2.6291-6.2202-4.7758C500.5408,105.632,498.7523,106.6583,499.5405,107.7273L499.5405,107.7273z"/>
			</g>
		</g>
		<g>
			<g>
				<path class="st1" d="M498.004,123.5383c2.4976,3.631,6.9789,5.2857,11.2242,4.0025c1.2657-0.3825,0.7263-2.3715-0.5476-1.9864
					c-3.3246,1.0049-6.9133-0.1707-8.8978-3.0558C499.0362,121.4132,497.2501,122.4423,498.004,123.5383L498.004,123.5383z"/>
			</g>
		</g>
		<g>
			<g>
				<path class="st1" d="M504.4106,146.5407c3.4537-0.5158,5.9964-3.3944,6.4278-6.7903c0.1666-1.3116-1.8949-1.2995-2.06,0
					c-0.3228,2.5407-2.4507,4.4358-4.9154,4.8039C502.5564,144.7494,503.1116,146.7347,504.4106,146.5407L504.4106,146.5407z"/>
			</g>
		</g>
		<g>
			<g>
				<path class="st1" d="M545.569,193.2678c2.385-1.6051,4.7699-3.2103,7.1549-4.8154c1.0941-0.7364,0.0642-2.5217-1.0397-1.7787
					c-2.385,1.6051-4.77,3.2103-7.155,4.8154C543.4352,192.2254,544.465,194.0108,545.569,193.2678L545.569,193.2678z"/>
			</g>
		</g>
		<g>
			<g>
				<path class="st1" d="M549.4601,208.4769c2.629,1.6268,5.5221,2.5242,8.6047,2.7212c1.3237,0.0846,1.3186-1.9757,0-2.06
					c-2.7278-0.1743-5.2424-1.0027-7.5649-2.4399C549.3693,205.9985,548.3336,207.7798,549.4601,208.4769L549.4601,208.4769z"/>
			</g>
		</g>
		<g>
			<g>
				<path class="st1" d="M545.0533,221.7689c2.4511,2.0101,4.9023,4.0202,7.3535,6.0303c1.0172,0.8341,2.4828-0.6151,1.4566-1.4566
					c-2.4511-2.0101-4.9023-4.0202-7.3535-6.0303C545.4929,219.4781,544.0272,220.9274,545.0533,221.7689L545.0533,221.7689z"/>
			</g>
		</g>
		<g>
			<g>
				<path class="st1" d="M516.4775,186.3329c2.7181,0.9365,5.4364,1.873,8.1545,2.8094c1.2561,0.4327,1.7957-1.5565,0.5476-1.9865
					c-2.7181-0.9365-5.4363-1.873-8.1545-2.8094C515.7691,183.9137,515.2295,185.9029,516.4775,186.3329L516.4775,186.3329z"/>
			</g>
		</g>
		<g>
			<g>
				<path class="st1" d="M516.0328,201.7712c2.537-0.8432,5.0742-1.6864,7.6112-2.5297c1.2519-0.4161,0.7154-2.4062-0.5476-1.9864
					c-2.5371,0.8432-5.0742,1.6864-7.6112,2.5297C514.2333,200.2009,514.7698,202.191,516.0328,201.7712L516.0328,201.7712z"/>
			</g>
		</g>
		<g>
			<g>
				<path class="st1" d="M524.1373,213.1059c-1.3288,1.7959-2.9554,3.3479-4.7993,4.6069c-1.0884,0.7431-0.0591,2.529,1.0397,1.7787
					c2.1541-1.4707,3.9879-3.2503,5.5384-5.3458C526.7051,213.079,524.918,212.0506,524.1373,213.1059L524.1373,213.1059z"/>
			</g>
		</g>
	</g>
	<g>
		<g>
			<path class="st3" d="M1264.3224,248.4641c-19.7568,19.0965-58.8237,8.7825-66.8458-17.8376
				c-2.8209-9.3617-0.0713-21.1161,8.5182-26.3611c8.3395-5.0924,14.5029-9.5258,17.5132-19.8117
				c2.761-9.4341,0.2347-19.4813-1.4724-29.1618c-1.7073-9.6806-2.3317-20.5112,3.4425-28.4665
				c9.4277-12.9885,27.3243-13.7011,39.6849-22.5912c4.4414,7.1884,8.8828,14.377,13.3242,21.5654
				c6.4839,10.4944,13.1166,23.5935,7.3185,34.4819c-5.6649,10.6384-21.9409,16.0392-20.9341,28.0498
				c0.3864,4.6093,3.47,8.4597,5.78,12.4669C1279.2742,215.7552,1276.7357,236.4657,1264.3224,248.4641z"/>
		</g>
		<g>
			<g>
				<path class="st1" d="M1258.5586,122.0226c-4.9507,7.8807-8.6882,16.4679-10.9248,25.51
					c-2.408,9.7346-2.5942,19.5937-2.7061,29.5664c-0.2313,20.6409-4.6709,40.2995-14.8704,58.369
					c-0.6525,1.156,1.1265,2.1955,1.7788,1.0397c9.344-16.5541,14.4565-35.0295,15.0518-54.024
					c0.337-10.7574-0.1154-21.4737,2.1888-32.0656c2.1157-9.7258,5.9707-18.9352,11.2605-27.3559
					C1261.0446,121.9364,1259.2628,120.9014,1258.5586,122.0226L1258.5586,122.0226z"/>
			</g>
		</g>
		<g>
			<g>
				<path class="st1" d="M1263.4795,141.0428c2.4209-0.8506,4.6656-2.0305,6.7096-3.585c1.0415-0.7921,0.0164-2.5819-1.0398-1.7787
					c-1.8994,1.4446-3.9642,2.5857-6.2174,3.3773C1261.6893,139.4929,1262.2241,141.4838,1263.4795,141.0428L1263.4795,141.0428z"/>
			</g>
		</g>
		<g>
			<g>
				<path class="st1" d="M1263.1813,155.7486c3.0427-0.1534,6.0109-0.6697,8.9205-1.576c1.2617-0.393,0.7231-2.3823-0.5476-1.9864
					c-2.7351,0.852-5.5107,1.3582-8.3729,1.5025C1261.8619,153.7552,1261.854,155.8156,1263.1813,155.7486L1263.1813,155.7486z"/>
			</g>
		</g>
		<g>
			<g>
				<path class="st1" d="M1254.3479,172.6006c2.0913,0.7891,4.0135,1.921,5.7205,3.364c1.0065,0.851,2.4708-0.5993,1.4565-1.4566
					c-1.9921-1.6842-4.1888-2.973-6.6294-3.8938C1253.6537,170.1456,1253.1172,172.1362,1254.3479,172.6006L1254.3479,172.6006z"/>
			</g>
		</g>
		<g>
			<g>
				<path class="st1" d="M1239.1144,127.4403c0.7404,2.608,2.1581,4.9171,4.1715,6.7357c0.9817,0.8866,2.4431-0.5658,1.4567-1.4566
					c-1.7606-1.5902-2.9935-3.5432-3.6418-5.8266C1240.7393,125.6195,1238.751,126.1606,1239.1144,127.4403L1239.1144,127.4403z"/>
			</g>
		</g>
		<g>
			<g>
				<path class="st1" d="M1233.1057,139.6785c0.9056,3.7426,4.1915,6.3986,8.0104,6.6294c1.3241,0.08,1.3195-1.9803,0-2.06
					c-2.9214-0.1766-5.3414-2.2967-6.0239-5.117C1234.7806,137.843,1232.7936,138.3883,1233.1057,139.6785L1233.1057,139.6785z"/>
			</g>
		</g>
		<g>
			<g>
				<path class="st1" d="M1231.235,160.0806c2.9691,0.6172,6.0237-0.7207,7.4701-3.4181c0.6263-1.1682-1.1514-2.2098-1.7788-1.0397
					c-0.9939,1.8536-3.059,2.9047-5.1437,2.4714C1230.4889,157.8252,1229.9357,159.8105,1231.235,160.0806L1231.235,160.0806z"/>
			</g>
		</g>
		<g>
			<g>
				<path class="st1" d="M1250.5099,210.0571c2.4008-0.5694,4.8015-1.1387,7.2021-1.7082c1.2894-0.3058,0.7435-2.2926-0.5476-1.9865
					c-2.4008,0.5694-4.8014,1.1388-7.2021,1.7082C1248.6729,208.3765,1249.2188,210.3634,1250.5099,210.0571L1250.5099,210.0571z"/>
			</g>
		</g>
		<g>
			<g>
				<path class="st1" d="M1248.7156,223.2913c1.6228,2.1178,3.641,3.7923,6.0854,4.8839c1.2002,0.536,2.2493-1.2386,1.0397-1.7787
					c-2.0992-0.9374-3.9425-2.3127-5.3464-4.1449C1249.699,221.2135,1247.9088,222.2384,1248.7156,223.2913L1248.7156,223.2913z"/>
			</g>
		</g>
		<g>
			<g>
				<path class="st1" d="M1241.2805,232.8315c1.3623,2.355,2.7246,4.7101,4.0868,7.065c0.6636,1.1472,2.4445,0.1111,1.7788-1.0397
					c-1.3622-2.355-2.7245-4.71-4.0868-7.065C1242.3958,230.6446,1240.6149,231.6807,1241.2805,232.8315L1241.2805,232.8315z"/>
			</g>
		</g>
		<g>
			<g>
				<path class="st1" d="M1228.8993,195.5928c1.901,1.5731,3.802,3.1462,5.7029,4.7193c1.014,0.8392,2.4794-0.6104,1.4567-1.4566
					c-1.901-1.5731-3.8019-3.1462-5.7029-4.7193C1229.3419,193.297,1227.8766,194.7465,1228.8993,195.5928L1228.8993,195.5928z"/>
			</g>
		</g>
		<g>
			<g>
				<path class="st1" d="M1224.1688,207.9977c2.2927,0.0886,4.5856,0.1773,6.8784,0.2659c1.3258,0.0512,1.3235-2.0089,0-2.06
					c-2.2928-0.0887-4.5857-0.1773-6.8784-0.2659C1222.843,205.8865,1222.8452,207.9465,1224.1688,207.9977L1224.1688,207.9977z"/>
			</g>
		</g>
		<g>
			<g>
				<path class="st1" d="M1227.2148,219.1983c-1.684,1.0833-3.4651,1.8531-5.4091,2.3333
					c-1.2864,0.3178-0.7415,2.3049,0.5477,1.9865c2.0997-0.5187,4.0822-1.3709,5.9011-2.541
					C1229.366,220.2622,1228.3342,218.4783,1227.2148,219.1983L1227.2148,219.1983z"/>
			</g>
		</g>
	</g>
	<g>
		<g>
			<path class="st3" d="M308.7946,227.3512c-14.7664,31.1335-65.176,36.2625-86.3378,8.5536
				c-7.4418-9.7447-9.4001-24.756-1.6314-34.7026c7.5427-9.6572,12.8216-17.5807,11.8171-30.9831
				c-0.9213-12.2925-8.3195-22.972-14.5946-33.5823c-6.2751-10.6105-11.7867-23.0486-8.5183-34.9345
				c5.3362-19.4062,26.03-28.1386,36.6173-44.028c8.3851,6.4788,16.7702,12.9575,25.1554,19.4362
				c12.2414,9.4583,25.8067,21.9085,23.8045,37.2481c-1.9562,14.9875-18.679,28.5082-12.1982,42.1628
				c2.4871,5.2402,7.8056,8.3996,12.2854,12.0842C311.9146,182.3586,318.0723,207.7899,308.7946,227.3512z"/>
		</g>
		<g>
			<g>
				<path class="st1" d="M246.5226,81.4133c-2.4147,11.762-2.9772,23.8167-1.4658,35.7386
					c1.5396,12.145,5.5898,23.48,9.7451,34.9248c8.8154,24.2804,12.3321,49.4166,8.3167,75.0806
					c-0.2029,1.2969,1.7818,1.8556,1.9864,0.5476c3.7599-24.0302,1.4152-48.3306-6.5686-71.2831
					c-4.1068-11.8067-8.886-23.3535-10.9052-35.7632c-2.0901-12.8453-1.7374-25.9584,0.878-38.6976
					C248.7747,80.6669,246.7895,80.1135,246.5226,81.4133L246.5226,81.4133z"/>
			</g>
		</g>
		<g>
			<g>
				<path class="st1" d="M260.3794,101.3084c2.4464-2.0435,4.5209-4.446,6.2124-7.1466c0.7057-1.1267-1.0759-2.1619-1.7787-1.0397
					c-1.6027,2.5586-3.5742,4.795-5.8903,6.7296C257.9043,100.7026,259.3682,102.1531,260.3794,101.3084L260.3794,101.3084z"/>
			</g>
		</g>
		<g>
			<g>
				<path class="st1" d="M266.6142,118.6998c3.4859-1.5075,6.6886-3.4462,9.6795-5.783c1.0437-0.8153-0.4234-2.2639-1.4566-1.4566
					c-2.8441,2.222-5.952,4.0292-9.2626,5.4609C264.361,117.4459,265.4088,119.2211,266.6142,118.6998L266.6142,118.6998z"/>
			</g>
		</g>
		<g>
			<g>
				<path class="st1" d="M263.498,142.4419c2.9552,0.0106,5.7916,0.5137,8.5758,1.4987c1.2522,0.443,1.791-1.5466,0.5476-1.9864
					c-2.9538-1.0449-5.9915-1.561-9.1235-1.5722C262.1723,140.3772,262.1705,142.4372,263.498,142.4419L263.498,142.4419z"/>
			</g>
		</g>
		<g>
			<g>
				<path class="st1" d="M225.9637,96.168c2.0668,2.803,4.7311,4.8497,7.9728,6.1229c1.2344,0.4848,1.7696-1.5065,0.5476-1.9864
					c-2.6927-1.0576-5.0249-2.8478-6.7416-5.1762C226.964,94.0726,225.1755,95.0989,225.9637,96.168L225.9637,96.168z"/>
			</g>
		</g>
		<g>
			<g>
				<path class="st1" d="M224.31,113.1849c2.6685,3.8795,7.4577,5.6422,11.9916,4.2717c1.2657-0.3825,0.7263-2.3715-0.5476-1.9864
					c-3.6137,1.0923-7.5096-0.1912-9.6653-3.325C225.3422,111.0598,223.5561,112.0889,224.31,113.1849L224.31,113.1849z"/>
			</g>
		</g>
		<g>
			<g>
				<path class="st1" d="M231.1166,137.9058c3.6799-0.5496,6.4001-3.6099,6.8604-7.2325c0.1666-1.3116-1.8949-1.2995-2.06,0
					c-0.3516,2.7675-2.6573,4.8442-5.348,5.2461C229.2623,136.1145,229.8176,138.0998,231.1166,137.9058L231.1166,137.9058z"/>
			</g>
		</g>
		<g>
			<g>
				<path class="st1" d="M275.3957,188.2051c2.5669-1.7276,5.1338-3.4552,7.7007-5.1828c1.0941-0.7364,0.0642-2.5217-1.0397-1.7787
					c-2.5669,1.7276-5.1338,3.4552-7.7007,5.1828C273.2619,187.1627,274.2917,188.948,275.3957,188.2051L275.3957,188.2051z"/>
			</g>
		</g>
		<g>
			<g>
				<path class="st1" d="M279.6628,204.5742c2.8177,1.7435,5.9175,2.7069,9.2213,2.918c1.3238,0.0846,1.3187-1.9757,0-2.06
					c-2.9499-0.1885-5.6697-1.0825-8.1816-2.6368C279.5721,202.0959,278.5364,203.8772,279.6628,204.5742L279.6628,204.5742z"/>
			</g>
		</g>
		<g>
			<g>
				<path class="st1" d="M274.9359,218.8924c2.6381,2.1634,5.2763,4.3268,7.9144,6.4902c1.0172,0.8341,2.4829-0.6151,1.4566-1.4566
					c-2.6381-2.1634-5.2763-4.3268-7.9144-6.4902C275.3754,216.6016,273.9097,218.0509,274.9359,218.8924L274.9359,218.8924z"/>
			</g>
		</g>
		<g>
			<g>
				<path class="st1" d="M244.1457,180.7332c2.9255,1.0079,5.851,2.0158,8.7766,3.0237c1.256,0.4327,1.7956-1.5565,0.5476-1.9864
					c-2.9255-1.0079-5.851-2.0159-8.7765-3.0237C243.4373,178.314,242.8977,180.3032,244.1457,180.7332L244.1457,180.7332z"/>
			</g>
		</g>
		<g>
			<g>
				<path class="st1" d="M243.6253,197.3491c2.7306-0.9076,5.4611-1.8151,8.1917-2.7226c1.2519-0.4161,0.7154-2.4062-0.5476-1.9865
					c-2.7306,0.9076-5.4612,1.8151-8.1917,2.7226C241.8258,195.7789,242.3623,197.769,243.6253,197.3491L243.6253,197.3491z"/>
			</g>
		</g>
		<g>
			<g>
				<path class="st1" d="M252.4367,209.6638c-1.4387,1.9444-3.1971,3.6233-5.1935,4.9865
					c-1.0884,0.7431-0.0591,2.5289,1.0397,1.7787c2.3064-1.5747,4.2723-3.4815,5.9326-5.7254
					C255.0046,209.637,253.2174,208.6086,252.4367,209.6638L252.4367,209.6638z"/>
			</g>
		</g>
	</g>
	<g>
		<g>
			<path class="st3" d="M928.8461,225.6064c17.0018,35.8467,75.0428,41.7521,99.4083,9.8485
				c8.5682-11.2199,10.8231-28.5038,1.8782-39.9561c-8.6844-11.1192-14.7625-20.2422-13.606-35.6735
				c1.0607-14.1534,9.579-26.4496,16.804-38.6662c7.2251-12.2167,13.571-26.5378,9.8079-40.2232
				c-6.144-22.344-29.9706-32.3985-42.1608-50.6933c-9.6545,7.4595-19.3091,14.9191-28.9636,22.3786
				c-14.0946,10.8901-29.7134,25.2251-27.4081,42.8869c2.2524,17.2564,21.5068,32.824,14.0448,48.5457
				c-2.8637,6.0335-8.9872,9.6711-14.1453,13.9137C925.2537,173.8026,918.1637,203.0838,928.8461,225.6064z"/>
		</g>
		<g>
			<g>
				<path class="st1" d="M998.4084,58.1645c4.6702,22.6548,2.5845,45.4357-4.8771,67.2379
					c-3.6254,10.5931-7.8886,20.9627-10.7759,31.7978c-2.8124,10.5535-4.5584,21.3965-5.2387,32.2965
					c-0.761,12.1943-0.112,24.4105,1.7835,36.4757c0.2051,1.3058,2.1904,0.7514,1.9864-0.5476
					c-3.5359-22.5079-2.4144-45.6507,3.4552-67.6769c2.8874-10.8355,7.1505-21.2044,10.7759-31.7978
					c3.563-10.4108,6.113-21.0595,7.075-32.0367c1.0644-12.1459,0.2622-24.3628-2.1978-36.2965
					C1000.1274,56.3193,998.1413,56.8684,998.4084,58.1645L998.4084,58.1645z"/>
			</g>
		</g>
		<g>
			<g>
				<path class="st1" d="M986.1575,78.9155c-2.6766-2.2358-4.9544-4.8233-6.8063-7.78c-0.7022-1.121-2.4852-0.0882-1.7788,1.0397
					c1.9409,3.0987,4.3215,5.8521,7.1285,8.1969C985.7117,81.2165,987.1765,79.7667,986.1575,78.9155L986.1575,78.9155z"/>
			</g>
		</g>
		<g>
			<g>
				<path class="st1" d="M978.5303,98.5932c-3.8251-1.6543-7.4105-3.7447-10.6964-6.3119
					c-1.0328-0.8069-2.5007,0.6409-1.4567,1.4566c3.4324,2.6816,7.113,4.904,11.1134,6.634
					C978.6949,100.8927,979.7452,99.1186,978.5303,98.5932L978.5303,98.5932z"/>
			</g>
		</g>
		<g>
			<g>
				<path class="st1" d="M980.9999,125.6271c-3.5936,0.0128-7.0739,0.6057-10.4632,1.8046
					c-1.2412,0.4391-0.7067,2.4301,0.5477,1.9864c3.2184-1.1385,6.5004-1.7189,9.9155-1.7311
					C982.3253,127.6824,982.3279,125.6224,980.9999,125.6271L980.9999,125.6271z"/>
			</g>
		</g>
		<g>
			<g>
				<path class="st1" d="M1022.3032,73.4453c-2.003,2.7165-4.7145,4.7977-7.8554,6.0315c-1.22,0.4792-0.6888,2.4721,0.5476,1.9864
					c3.6914-1.4499,6.733-3.7863,9.0865-6.9782C1024.8694,73.4171,1023.0824,72.3885,1022.3032,73.4453L1022.3032,73.4453z"/>
			</g>
		</g>
		<g>
			<g>
				<path class="st1" d="M1024.2072,93.0384c-2.5212,3.6653-7.0736,5.1789-11.3045,3.9001
					c-1.2717-0.3844-1.8153,1.6032-0.5476,1.9864c5.1496,1.5566,10.5977-0.4369,13.6308-4.8467
					C1026.7391,92.9832,1024.9546,91.9519,1024.2072,93.0384L1024.2072,93.0384z"/>
			</g>
		</g>
		<g>
			<g>
				<path class="st1" d="M1018.8726,120.4833c-3.1732-0.4739-5.859-2.9388-6.2722-6.1906c-0.1648-1.2973-2.2269-1.3138-2.06,0
					c0.5218,4.107,3.6217,7.5553,7.7845,8.177C1019.6219,122.6634,1020.1813,120.6788,1018.8726,120.4833L1018.8726,120.4833z"/>
			</g>
		</g>
		<g>
			<g>
				<path class="st1" d="M968.4196,178.6207c-2.9556-1.9891-5.9111-3.9783-8.8665-5.9674c-1.1028-0.7422-2.135,1.0415-1.0397,1.7787
					c2.9555,1.9891,5.9109,3.9783,8.8665,5.9674C968.4826,181.1417,969.5149,179.3578,968.4196,178.6207L968.4196,178.6207z"/>
			</g>
		</g>
		<g>
			<g>
				<path class="st1" d="M961.2696,197.4679c-2.9139,1.8031-6.0748,2.8384-9.4989,3.0573c-1.3165,0.0841-1.326,2.1447,0,2.06
					c3.7763-0.2413,7.3182-1.3457,10.5386-3.3385C963.4346,198.5504,962.4012,196.7677,961.2696,197.4679L961.2696,197.4679z"/>
			</g>
		</g>
		<g>
			<g>
				<path class="st1" d="M966.2637,214.3002c-3.0375,2.491-6.075,4.9819-9.1125,7.4728c-1.0258,0.8412,0.4391,2.2911,1.4567,1.4566
					c3.0375-2.491,6.075-4.9818,9.1125-7.4728C968.746,214.9156,967.2812,213.4658,966.2637,214.3002L966.2637,214.3002z"/>
			</g>
		</g>
		<g>
			<g>
				<path class="st1" d="M1002.6929,169.7943c-3.3685,1.1605-6.7368,2.3209-10.1052,3.4815
					c-1.246,0.4293-0.7106,2.4199,0.5476,1.9865c3.3684-1.1605,6.7368-2.321,10.1052-3.4815
					C1004.4865,171.3514,1003.9511,169.3608,1002.6929,169.7943L1002.6929,169.7943z"/>
			</g>
		</g>
		<g>
			<g>
				<path class="st1" d="M1004.4702,188.9257c-3.1439-1.045-6.2879-2.0899-9.4319-3.1348
					c-1.2609-0.4191-1.8016,1.5696-0.5476,1.9865c3.144,1.0449,6.2879,2.0899,9.4319,3.1348
					C1005.1835,191.3312,1005.7242,189.3425,1004.4702,188.9257L1004.4702,188.9257z"/>
			</g>
		</g>
		<g>
			<g>
				<path class="st1" d="M991.8224,206.3598c1.8947,2.5607,4.143,4.7394,6.7748,6.5362c1.0977,0.7494,2.1292-1.0348,1.0397-1.7787
					c-2.3223-1.5856-4.3625-3.5357-6.0358-5.7973C992.8212,204.266,991.0325,205.2922,991.8224,206.3598L991.8224,206.3598z"/>
			</g>
		</g>
	</g>
</g>
<g id="blue">
	<g>
		<g>
			<path class="st4" d="M742.9692,231.5169c13.7198,28.927,60.5569,33.6925,80.2189,7.9474
				c6.9143-9.054,8.7338-23.0015,1.5157-32.2431c-7.0081-8.9728-11.9129-16.3347-10.9796-28.7873
				c0.856-11.4213,7.7299-21.3439,13.5601-31.2022c5.8305-9.8584,10.9513-21.4151,7.9146-32.4587
				c-4.9579-18.0308-24.1852-26.1444-34.0222-40.9076c-7.7908,6.0196-15.5817,12.0391-23.3726,18.0587
				c-11.3738,8.788-23.9777,20.3558-22.1174,34.6082c1.8176,13.9253,17.3552,26.4878,11.3336,39.1746
				c-2.3109,4.8688-7.2524,7.8042-11.4147,11.2278C740.0703,189.7131,734.349,213.3419,742.9692,231.5169z"/>
		</g>
		<g>
			<g>
				<path class="st1" d="M798.9118,96.4501c2.4536,11.9826,2.7714,24.3302,0.7346,36.4026
					c-1.9603,11.6194-6.5053,22.4216-10.3146,33.5023c-7.2516,21.0942-9.2828,43.4632-5.8398,65.5099
					c0.204,1.3059,2.1893,0.7514,1.9865-0.5476c-3.6974-23.6756-0.5295-46.9291,7.5898-69.3425
					c3.8785-10.7066,7.712-21.2929,9.1693-32.6516c1.4308-11.152,0.914-22.4158-1.3394-33.4208
					C800.6325,94.6046,798.6464,95.1539,798.9118,96.4501L798.9118,96.4501z"/>
			</g>
		</g>
		<g>
			<g>
				<path class="st1" d="M789.3582,113.002c-2.1474-1.7937-3.9756-3.8659-5.4615-6.238c-0.7021-1.121-2.4852-0.0882-1.7787,1.0398
					c1.5748,2.5142,3.5059,4.7523,5.7835,6.6548C788.9123,115.303,790.3771,113.8532,789.3582,113.002L789.3582,113.002z"/>
			</g>
		</g>
		<g>
			<g>
				<path class="st1" d="M783.1631,128.8502c-3.0698-1.3275-5.9541-3.002-8.5915-5.0625c-1.0328-0.8069-2.5007,0.6409-1.4565,1.4566
					c2.7839,2.175,5.7632,3.9812,9.0083,5.3845C783.3275,131.1497,784.3779,129.3755,783.1631,128.8502L783.1631,128.8502z"/>
			</g>
		</g>
		<g>
			<g>
				<path class="st1" d="M785.0556,150.6383c-2.9159,0.0104-5.7464,0.4906-8.4963,1.4634
					c-1.2412,0.4391-0.7067,2.4301,0.5477,1.9864c2.5817-0.9133,5.2092-1.38,7.9487-1.3898
					C786.3808,152.6936,786.3835,150.6336,785.0556,150.6383L785.0556,150.6383z"/>
			</g>
		</g>
		<g>
			<g>
				<path class="st1" d="M818.214,108.628c-1.5829,2.1469-3.7377,3.8008-6.2202,4.7758c-1.2199,0.4792-0.6888,2.4721,0.5477,1.9864
					c3.0311-1.1905,5.5189-3.1016,7.4514-5.7225C820.7802,108.5998,818.9933,107.5712,818.214,108.628L818.214,108.628z"/>
			</g>
		</g>
		<g>
			<g>
				<path class="st1" d="M819.7505,124.439c-1.9846,2.8851-5.5731,4.0607-8.8978,3.0558c-1.2717-0.3844-1.8153,1.6032-0.5476,1.9864
					c4.2443,1.283,8.7269-0.372,11.2241-4.0025C822.2824,124.3838,820.4979,123.3524,819.7505,124.439L819.7505,124.439z"/>
			</g>
		</g>
		<g>
			<g>
				<path class="st1" d="M815.6703,146.4946c-2.4646-0.368-4.5927-2.2631-4.9155-4.8039c-0.1648-1.2973-2.2269-1.3138-2.06,0
					c0.4314,3.3959,2.9741,6.2745,6.4279,6.7903C816.4195,148.6747,816.979,146.6901,815.6703,146.4946L815.6703,146.4946z"/>
			</g>
		</g>
		<g>
			<g>
				<path class="st1" d="M775.004,193.4294c-2.385-1.6051-4.77-3.2103-7.155-4.8154c-1.1027-0.7422-2.1349,1.0416-1.0397,1.7787
					c2.385,1.6051,4.77,3.2103,7.155,4.8155C775.0671,195.9504,776.0992,194.1666,775.004,193.4294L775.004,193.4294z"/>
			</g>
		</g>
		<g>
			<g>
				<path class="st1" d="M769.0335,208.6385c-2.3209,1.4361-4.8371,2.2657-7.5649,2.44c-1.3165,0.0841-1.326,2.1447,0,2.06
					c3.0822-0.1969,5.9755-1.0943,8.6046-2.7212C771.1984,209.7209,770.1651,207.9382,769.0335,208.6385L769.0335,208.6385z"/>
			</g>
		</g>
		<g>
			<g>
				<path class="st1" d="M773.0233,222.2526c-2.4512,2.0101-4.9024,4.0202-7.3535,6.0303c-1.0257,0.8412,0.4391,2.291,1.4567,1.4566
					c2.4511-2.0101,4.9023-4.0202,7.3535-6.0303C775.5056,222.8681,774.0408,221.4181,773.0233,222.2526L773.0233,222.2526z"/>
			</g>
		</g>
		<g>
			<g>
				<path class="st1" d="M802.5081,186.2868c-2.7182,0.9365-5.4363,1.873-8.1545,2.8094c-1.246,0.4292-0.7106,2.4199,0.5476,1.9864
					c2.7182-0.9365,5.4363-1.873,8.1545-2.8094C804.3017,187.8439,803.7663,185.8533,802.5081,186.2868L802.5081,186.2868z"/>
			</g>
		</g>
		<g>
			<g>
				<path class="st1" d="M804.0481,201.7252c-2.537-0.8432-5.0742-1.6865-7.6112-2.5297c-1.2609-0.4191-1.8016,1.5696-0.5476,1.9865
					c2.537,0.8432,5.0741,1.6864,7.6112,2.5297C804.7613,204.1306,805.3021,202.1419,804.0481,201.7252L804.0481,201.7252z"/>
			</g>
		</g>
		<g>
			<g>
				<path class="st1" d="M793.6172,216.0859c1.5505,2.0956,3.3843,3.8753,5.5383,5.3458c1.0977,0.7494,2.1292-1.0348,1.0397-1.7787
					c-1.8439-1.2589-3.4706-2.811-4.7993-4.6069C794.616,213.9921,792.8273,215.0184,793.6172,216.0859L793.6172,216.0859z"/>
			</g>
		</g>
	</g>
	<g>
		<g>
			<path class="st4" d="M178.2988,255.1016c12.4901,4.9298,28.9728,2.4598,41.1456-1.3383
				c3.7536-1.1712,7.5183-2.4535,10.8513-4.5399c3.9004-2.4418,7.0539-5.8849,10.1556-9.2841
				c8.7626-9.6033,13.5561-15.584,12.8712-28.9321c-0.563-10.9725-5.8242-21.7595-15.0032-28.0517
				c-5.0284-3.4469-11.0571-5.6695-14.9867-10.3305c-9.0981-10.7916-2.2832-26.822,0.8781-40.5785
				c7.8063-33.9697-14.0101-72.0974-47.2517-82.5798c4.3364,10.2211,0.0422,22.1611-6.3842,31.2153
				c-6.4264,9.0541-14.9387,16.5827-20.5583,26.1585c-11.0816,18.8833-8.4955,44.7981,6.0993,61.119
				c5.8426,6.5336,13.7778,12.4487,14.7335,21.1615c1.104,10.0642-7.6503,18.2599-11.0542,27.7951
				c-4.9467,13.8567,3.1396,30.6319,16.021,37.0789C176.6236,254.3992,177.452,254.7673,178.2988,255.1016z"/>
		</g>
		<g>
			<g>
				<path class="st1" d="M188.8622,84.4488c8.7294,17.6334,2.8861,37.7512,0.7974,56.2141
					c-1.03,9.1047-1.2981,18.3789,0.9478,27.3309c2.4822,9.8941,7.4791,18.8796,11.0581,28.3764
					c4.0614,10.777,6.2468,23.3468,0.2018,33.817c-0.6641,1.1502,1.1153,2.1888,1.7787,1.0397
					c10.7891-18.6871-2.2607-38.8086-8.7401-56.4036c-3.7004-10.0486-4.4881-20.218-3.5291-30.8253
					c0.9054-10.0148,2.9531-19.8897,3.8103-29.9099c0.9014-10.5361,0.209-21.0737-4.5462-30.6791
					C190.0528,82.2209,188.2754,83.2635,188.8622,84.4488L188.8622,84.4488z"/>
			</g>
		</g>
		<g>
			<g>
				<path class="st1" d="M179.454,116.7285c-2.6684-2.2019-4.7804-4.8544-6.3219-7.952c-0.5907-1.1869-2.3682-0.1447-1.7787,1.0397
					c1.6113,3.2375,3.8544,6.0669,6.6441,8.3688C179.0123,119.0227,180.4778,117.5733,179.454,116.7285L179.454,116.7285z"/>
			</g>
		</g>
		<g>
			<g>
				<path class="st1" d="M172.5288,130.9678c-2.476,1.0171-4.9866,1.1052-7.5179,0.2314c-1.2558-0.4335-1.7953,1.5557-0.5476,1.9864
					c2.8314,0.9774,5.841,0.9073,8.6132-0.2314C174.2859,132.4574,173.7562,130.4636,172.5288,130.9678L172.5288,130.9678z"/>
			</g>
		</g>
		<g>
			<g>
				<path class="st1" d="M174.0528,152.4529c-1.9124,2.9689-4.6739,5.1923-7.9958,6.4002
					c-1.2361,0.4494-0.7025,2.4409,0.5476,1.9865c3.8459-1.3983,7.0092-3.904,9.2269-7.3468
					C176.5515,152.3748,174.7691,151.3409,174.0528,152.4529L174.0528,152.4529z"/>
			</g>
		</g>
		<g>
			<g>
				<path class="st1" d="M206.9541,103.82c-1.4693,2.5842-3.5067,4.6846-6.053,6.2203c-1.1339,0.6838-0.0996,2.4658,1.0397,1.7787
					c2.8382-1.7117,5.1534-4.0774,6.792-6.9594C209.389,103.7056,207.61,102.6664,206.9541,103.82L206.9541,103.82z"/>
			</g>
		</g>
		<g>
			<g>
				<path class="st1" d="M211.5399,122.8215c-2.2728,1.9826-5.0272,3.13-8.0362,3.3447c-1.3148,0.0938-1.325,2.1545,0,2.06
					c3.5784-0.2553,6.7892-1.5898,9.4928-3.9481C213.9975,123.4051,212.5354,121.9531,211.5399,122.8215L211.5399,122.8215z"/>
			</g>
		</g>
		<g>
			<g>
				<path class="st1" d="M209.6939,144.5826c-2.833,0.1648-5.4159-0.7781-7.441-2.7772c-0.9444-0.9323-2.402,0.5234-1.4566,1.4566
					c2.3821,2.3516,5.5496,3.5753,8.8976,3.3806C211.0117,146.5659,211.0205,144.5054,209.6939,144.5826L209.6939,144.5826z"/>
			</g>
		</g>
		<g>
			<g>
				<path class="st1" d="M192.8584,199.307c-4.4315-0.7973-8.4669-2.4596-12.1718-5.0186
					c-1.0934-0.7553-2.1245,1.0294-1.0397,1.7787c3.8315,2.6465,8.0811,4.4018,12.6638,5.2263
					C193.607,201.5266,194.1632,199.5417,192.8584,199.307L192.8584,199.307z"/>
			</g>
		</g>
		<g>
			<g>
				<path class="st1" d="M188.5724,212.2965c-3.4704,0.7553-6.9408,1.5106-10.4112,2.2659
					c-1.2948,0.2818-0.7468,2.2681,0.5476,1.9864c3.4704-0.7553,6.9408-1.5106,10.4112-2.2659
					C190.4149,214.0012,189.867,212.0148,188.5724,212.2965L188.5724,212.2965z"/>
			</g>
		</g>
		<g>
			<g>
				<path class="st1" d="M191.1689,227.7839c-3.1412,1.5652-6.2825,3.1304-9.4237,4.6956
					c-1.1866,0.5913-0.1445,2.3688,1.0397,1.7787c3.1412-1.5652,6.2825-3.1304,9.4237-4.6956
					C193.3953,228.9713,192.353,227.1939,191.1689,227.7839L191.1689,227.7839z"/>
			</g>
		</g>
		<g>
			<g>
				<path class="st1" d="M219.1103,188.3653c-2.3756,1.9611-4.7512,3.9223-7.1268,5.8834
					c-1.0232,0.8447,0.4413,2.2948,1.4566,1.4566c2.3756-1.9611,4.7512-3.9223,7.1268-5.8834
					C221.5901,188.9773,220.1256,187.5272,219.1103,188.3653L219.1103,188.3653z"/>
			</g>
		</g>
		<g>
			<g>
				<path class="st1" d="M222.9515,204.2201c-2.6153,1.5086-5.2306,3.0172-7.8458,4.5258c-1.148,0.6622-0.1119,2.443,1.0397,1.7787
					c2.6152-1.5085,5.2305-3.0171,7.8458-4.5258C225.1393,205.3367,224.103,203.5559,222.9515,204.2201L222.9515,204.2201z"/>
			</g>
		</g>
		<g>
			<g>
				<path class="st1" d="M224.1755,227.6226c-3.777-0.1965-7.2345-1.5806-10.0951-4.0609
					c-0.9974-0.8648-2.4605,0.5863-1.4566,1.4566c3.2845,2.8478,7.2073,4.4382,11.5517,4.6643
					C225.5005,229.7515,225.4967,227.6913,224.1755,227.6226L224.1755,227.6226z"/>
			</g>
		</g>
	</g>
	<g>
		<g>
			<path class="st5" d="M667.5538,250.5698c9.5967,9.392,25.7455,13.5146,38.438,14.74c3.9139,0.3779,7.8811,0.6578,11.7626,0.0288
				c4.5424-0.736,8.7852-2.6848,12.9633-4.6134c11.8035-5.4483,18.5428-9.099,23.0936-21.6661
				c3.7408-10.3305,3.08-22.3139-2.9364-31.676c-3.2958-5.1287-7.989-9.5174-9.8008-15.3383
				c-4.195-13.4772,8.3087-25.6046,16.5624-37.055c20.3817-28.2749,15.078-71.8817-11.4869-94.4468
				c0.0283,11.1029-8.5643,20.4395-18.0017,26.2885c-9.4374,5.8491-20.2047,9.4827-29.101,16.1258
				c-17.5433,13.1002-25.2205,37.9864-18.1064,58.6932c2.848,8.2894,7.8644,16.8211,5.3627,25.2216
				c-2.8898,9.7034-14.139,13.8578-20.9778,21.3237c-9.9381,10.8495-8.9983,29.4483,0.3699,40.3904
				C666.2826,249.2721,666.9031,249.9331,667.5538,250.5698z"/>
		</g>
		<g>
			<g>
				<path class="st1" d="M743.5302,97.2686c1.1791,18.8569-10.9065,34.5737-19.8503,50.0761
					c-4.3782,7.5886-8.4099,15.5648-10.3042,24.1774c-2.463,11.1976-1.0684,22.6918-1.4925,34.0388
					c-0.4255,11.3834-3.2696,23.9108-12.8393,31.1334c-1.045,0.7888-0.0197,2.5783,1.0398,1.7787
					c17.8651-13.4833,12.7811-38.0525,14.046-57.3329c1.384-21.0999,15.0988-37.0345,24.3362-55.129
					c4.5751-8.9618,7.7605-18.5706,7.1245-28.7425C745.5078,95.9518,743.4472,95.9425,743.5302,97.2686L743.5302,97.2686z"/>
			</g>
		</g>
		<g>
			<g>
				<path class="st1" d="M722.2723,123.3666c-1.55-2.9883-2.4412-6.1584-2.666-9.5173c-0.088-1.3158-2.1487-1.3256-2.06,0
					c0.2492,3.7235,1.229,7.2443,2.9471,10.557C721.1042,125.5836,722.8824,124.543,722.2723,123.3666L722.2723,123.3666z"/>
			</g>
		</g>
		<g>
			<g>
				<path class="st1" d="M710.2937,133.9236c-2.5556-0.0148-4.8932-0.9001-6.7945-2.6162c-0.982-0.8863-2.4433,0.5661-1.4567,1.4566
					c2.3029,2.0785,5.1448,3.2016,8.2512,3.2196C711.6195,135.9912,711.621,133.9312,710.2937,133.9236L710.2937,133.9236z"/>
			</g>
		</g>
		<g>
			<g>
				<path class="st1" d="M703.5885,154.2586c-3.0424,2.0575-6.4124,3.0151-10.0845,2.8507c-1.3254-0.0593-1.3226,2.0008,0,2.06
					c3.9951,0.1788,7.8108-0.8912,11.1241-3.132C705.7204,155.2987,704.6907,153.5132,703.5885,154.2586L703.5885,154.2586z"/>
			</g>
		</g>
		<g>
			<g>
				<path class="st1" d="M752.7893,122.2129c-2.4475,1.8663-5.1862,3.0229-8.2311,3.4758
					c-1.3066,0.1944-0.7513,2.1796,0.5477,1.9864c3.1956-0.4753,6.1536-1.7242,8.723-3.6835
					C754.8694,123.1983,753.8442,121.4084,752.7893,122.2129L752.7893,122.2129z"/>
			</g>
		</g>
		<g>
			<g>
				<path class="st1" d="M749.6555,141.5301c-2.9866,0.9759-5.9694,0.9595-8.945-0.0421c-1.2593-0.4239-1.7996,1.5651-0.5476,1.9864
					c3.2931,1.1085,6.7386,1.1209,10.0402,0.0421C751.4578,143.1066,750.9207,141.1167,749.6555,141.5301L749.6555,141.5301z"/>
			</g>
		</g>
		<g>
			<g>
				<path class="st1" d="M739.2657,160.8631c-2.5287-0.8778-4.6013-2.8022-5.6139-5.2895c-0.4933-1.2116-2.487-0.6817-1.9864,0.5476
					c1.304,3.2028,3.7773,5.5913,7.0527,6.7282C739.973,163.2851,740.5123,161.2958,739.2657,160.8631L739.2657,160.8631z"/>
			</g>
		</g>
		<g>
			<g>
				<path class="st1" d="M702.5137,204.7232c-3.6854-2.3766-6.7428-5.4654-9.0858-9.172c-0.7065-1.1177-2.4899-0.0853-1.7789,1.0397
					c2.5321,4.0057,5.8423,7.3428,9.8249,9.911C702.5914,207.2225,703.6254,205.44,702.5137,204.7232L702.5137,204.7232z"/>
			</g>
		</g>
		<g>
			<g>
				<path class="st1" d="M693.7798,215.1388c-3.4915-0.6512-6.9828-1.3024-10.4743-1.9536
					c-1.2958-0.2417-1.8512,1.7433-0.5476,1.9865c3.4915,0.6512,6.9828,1.3024,10.4742,1.9536
					C694.528,217.3669,695.0835,215.3819,693.7798,215.1388L693.7798,215.1388z"/>
			</g>
		</g>
		<g>
			<g>
				<path class="st1" d="M690.1534,230.3825c-3.5025,0.223-7.005,0.4459-10.5075,0.6689c-1.3165,0.0838-1.326,2.1444,0,2.06
					c3.5025-0.223,7.005-0.4459,10.5075-0.6689C691.47,232.3586,691.4794,230.2981,690.1534,230.3825L690.1534,230.3825z"/>
			</g>
		</g>
		<g>
			<g>
				<path class="st1" d="M731.1871,204.8721c-2.9507,0.8851-5.9012,1.7702-8.8519,2.6553
					c-1.2667,0.3799-0.7271,2.3688,0.5476,1.9865c2.9506-0.8851,5.9013-1.7702,8.8519-2.6553
					C733.0013,206.4786,732.4618,204.4898,731.1871,204.8721L731.1871,204.8721z"/>
			</g>
		</g>
		<g>
			<g>
				<path class="st1" d="M728.5911,221.0054c-2.9958,0.375-5.9916,0.7499-8.9874,1.1249c-1.298,0.1625-1.3143,2.2245,0,2.06
					c2.9958-0.375,5.9916-0.7499,8.9874-1.1249C729.8891,222.9029,729.9054,220.8408,728.5911,221.0054L728.5911,221.0054z"/>
			</g>
		</g>
		<g>
			<g>
				<path class="st1" d="M720.6201,243.1159c-3.505-1.6691-6.2172-4.3592-7.9114-7.8527c-0.5784-1.1925-2.3553-0.1492-1.7787,1.0397
					c1.8297,3.7727,4.8645,6.7889,8.6505,8.5918C720.7712,245.4617,721.8177,243.6862,720.6201,243.1159L720.6201,243.1159z"/>
			</g>
		</g>
	</g>
	<g>
		<g>
			<path class="st5" d="M1000.0051,250.5698c9.5966,9.392,25.7455,13.5146,38.438,14.74c3.9139,0.3779,7.8811,0.6578,11.7626,0.0288
				c4.5425-0.736,8.7854-2.6848,12.9634-4.6134c11.8035-5.4483,18.5428-9.099,23.0936-21.6661
				c3.7408-10.3305,3.08-22.3139-2.9364-31.676c-3.2959-5.1287-7.9889-9.5174-9.8008-15.3383
				c-4.1951-13.4772,8.3086-25.6046,16.5624-37.055c20.3816-28.2749,15.078-71.8817-11.4869-94.4468
				c0.0283,11.1029-8.5643,20.4395-18.0017,26.2885c-9.4375,5.8491-20.2047,9.4827-29.101,16.1258
				c-17.5433,13.1002-25.2206,37.9864-18.1066,58.6932c2.848,8.2894,7.8645,16.8211,5.3629,25.2216
				c-2.8898,9.7034-14.139,13.8578-20.9778,21.3237c-9.9382,10.8495-8.9984,29.4483,0.3699,40.3904
				C998.7339,249.2721,999.3545,249.9331,1000.0051,250.5698z"/>
		</g>
		<g>
			<g>
				<path class="st1" d="M1075.9814,97.2686c1.1792,18.8569-10.9065,34.5737-19.8503,50.0761
					c-4.3782,7.5886-8.4098,15.5648-10.3042,24.1774c-2.463,11.1976-1.0684,22.6918-1.4924,34.0388
					c-0.4254,11.3834-3.2697,23.9108-12.8394,31.1334c-1.045,0.7888-0.0197,2.5783,1.0398,1.7787
					c17.865-13.4833,12.7811-38.0525,14.0459-57.3329c1.3839-21.0999,15.0989-37.0345,24.3362-55.129
					c4.5751-8.9618,7.7605-18.5706,7.1245-28.7425C1077.9591,95.9518,1075.8986,95.9425,1075.9814,97.2686L1075.9814,97.2686z"/>
			</g>
		</g>
		<g>
			<g>
				<path class="st1" d="M1054.7236,123.3666c-1.5499-2.9883-2.441-6.1584-2.6659-9.5173c-0.088-1.3158-2.1488-1.3256-2.0599,0
					c0.2491,3.7235,1.2289,7.2443,2.9471,10.557C1053.5555,125.5836,1055.3339,124.543,1054.7236,123.3666L1054.7236,123.3666z"/>
			</g>
		</g>
		<g>
			<g>
				<path class="st1" d="M1042.7451,133.9236c-2.5558-0.0148-4.8933-0.9001-6.7946-2.6162
					c-0.9819-0.8863-2.4432,0.5661-1.4567,1.4566c2.3029,2.0785,5.1448,3.2016,8.2512,3.2196
					C1044.0708,135.9912,1044.0724,133.9312,1042.7451,133.9236L1042.7451,133.9236z"/>
			</g>
		</g>
		<g>
			<g>
				<path class="st1" d="M1036.0399,154.2586c-3.0425,2.0575-6.4124,3.0151-10.0846,2.8507c-1.3254-0.0593-1.3225,2.0008,0,2.06
					c3.9951,0.1788,7.8107-0.8912,11.1243-3.132C1038.1718,155.2987,1037.1421,153.5132,1036.0399,154.2586L1036.0399,154.2586z"/>
			</g>
		</g>
		<g>
			<g>
				<path class="st1" d="M1085.2407,122.2129c-2.4475,1.8663-5.1863,3.0229-8.2311,3.4758
					c-1.3068,0.1944-0.7513,2.1796,0.5476,1.9864c3.1957-0.4753,6.1537-1.7242,8.7231-3.6835
					C1087.3207,123.1983,1086.2957,121.4084,1085.2407,122.2129L1085.2407,122.2129z"/>
			</g>
		</g>
		<g>
			<g>
				<path class="st1" d="M1082.1068,141.5301c-2.9866,0.9759-5.9692,0.9595-8.9451-0.0421
					c-1.2592-0.4239-1.7994,1.5651-0.5476,1.9864c3.2932,1.1085,6.7388,1.1209,10.0404,0.0421
					C1083.9091,143.1066,1083.3721,141.1167,1082.1068,141.5301L1082.1068,141.5301z"/>
			</g>
		</g>
		<g>
			<g>
				<path class="st1" d="M1071.717,160.8631c-2.5288-0.8778-4.6012-2.8022-5.6139-5.2895
					c-0.4934-1.2116-2.4869-0.6817-1.9865,0.5476c1.3041,3.2028,3.7773,5.5913,7.0526,6.7282
					C1072.4244,163.2851,1072.9637,161.2958,1071.717,160.8631L1071.717,160.8631z"/>
			</g>
		</g>
		<g>
			<g>
				<path class="st1" d="M1034.965,204.7232c-3.6853-2.3766-6.7427-5.4654-9.0857-9.172c-0.7064-1.1177-2.4899-0.0853-1.7787,1.0397
					c2.532,4.0057,5.8423,7.3428,9.8247,9.911C1035.0427,207.2225,1036.0767,205.44,1034.965,204.7232L1034.965,204.7232z"/>
			</g>
		</g>
		<g>
			<g>
				<path class="st1" d="M1026.2311,215.1388c-3.4914-0.6512-6.9827-1.3024-10.4741-1.9536
					c-1.2959-0.2417-1.8513,1.7433-0.5477,1.9865c3.4915,0.6512,6.9828,1.3024,10.4742,1.9536
					C1026.9794,217.3669,1027.5348,215.3819,1026.2311,215.1388L1026.2311,215.1388z"/>
			</g>
		</g>
		<g>
			<g>
				<path class="st1" d="M1022.6047,230.3825c-3.5024,0.223-7.0049,0.4459-10.5074,0.6689c-1.3166,0.0838-1.326,2.1444,0,2.06
					c3.5025-0.223,7.005-0.4459,10.5074-0.6689C1023.9213,232.3586,1023.9307,230.2981,1022.6047,230.3825L1022.6047,230.3825z"/>
			</g>
		</g>
		<g>
			<g>
				<path class="st1" d="M1063.6384,204.8721c-2.9507,0.8851-5.9012,1.7702-8.8519,2.6553
					c-1.2666,0.3799-0.7269,2.3688,0.5477,1.9865c2.9506-0.8851,5.9011-1.7702,8.8518-2.6553
					C1065.4526,206.4786,1064.9131,204.4898,1063.6384,204.8721L1063.6384,204.8721z"/>
			</g>
		</g>
		<g>
			<g>
				<path class="st1" d="M1061.0425,221.0054c-2.9958,0.375-5.9917,0.7499-8.9874,1.1249c-1.2981,0.1625-1.3143,2.2245,0,2.06
					c2.9957-0.375,5.9916-0.7499,8.9874-1.1249C1062.3405,222.9029,1062.3567,220.8408,1061.0425,221.0054L1061.0425,221.0054z"/>
			</g>
		</g>
		<g>
			<g>
				<path class="st1" d="M1053.0714,243.1159c-3.505-1.6691-6.2172-4.3592-7.9114-7.8527
					c-0.5784-1.1925-2.3553-0.1492-1.7787,1.0397c1.8295,3.7727,4.8645,6.7889,8.6504,8.5918
					C1053.2225,245.4617,1054.269,243.6862,1053.0714,243.1159L1053.0714,243.1159z"/>
			</g>
		</g>
	</g>
	<g>
		<g>
			<path class="st5" d="M915.8323,258.5485c21.9417-5.4271,47.9142-28.4784,41.7775-53.6097
				c-3.3282-13.6279-15.0458-24.9286-14.919-38.9564c0.1415-15.6548,14.8546-27.3122,18.967-42.4178
				c3.2133-11.8028-0.5228-24.663-7.3755-34.7958c-6.8527-10.1328-16.5426-17.9714-26.3349-25.3023
				c1.0078,10.4456-5.3248,20.1935-12.5469,27.807c-7.2222,7.6135-15.7302,14.2649-20.9323,23.3789
				c-6.8275,11.9617-6.8499,27.52-0.0569,39.5012c3.2804,5.7858,8.106,11.0133,9.0853,17.5919
				c1.6614,11.16-8.027,20.2684-14.7472,29.3318c-7.066,9.5298-11.4828,21.5327-9.8018,33.2767
				c1.6809,11.744,10.3953,22.7858,22.0437,25.0358C905.895,260.3369,910.984,259.7477,915.8323,258.5485z"/>
		</g>
		<g>
			<g>
				<path class="st1" d="M935.2086,84.3836c-1.3267,12.9936-6.3196,25.345-8.4025,38.2336
					c-1.8429,11.4036-2.5834,22.9455-3.2341,34.4673c-1.3693,24.2454-2.371,49.1914-12.9266,71.5307
					c-0.5633,1.1921,1.2122,2.2389,1.7788,1.0397c10.3754-21.9581,11.743-46.3347,13.075-70.1969
					c0.6987-12.5172,1.398-25.0761,3.4848-37.4548c2.1369-12.6753,6.9767-24.8108,8.2845-37.6196
					C937.4031,83.066,935.3422,83.0754,935.2086,84.3836L935.2086,84.3836z"/>
			</g>
		</g>
		<g>
			<g>
				<path class="st1" d="M920.1487,113.8974c-1.6991-3.4079-3.8284-6.5281-6.3565-9.3742c-0.8822-0.9932-2.3348,0.468-1.4567,1.4566
					c2.4143,2.7181,4.413,5.7052,6.0344,8.9573C918.9615,116.1236,920.7391,115.0815,920.1487,113.8974L920.1487,113.8974z"/>
			</g>
		</g>
		<g>
			<g>
				<path class="st1" d="M914.7682,128.3364c-2.9457-2.8551-6.1651-5.3757-9.6414-7.5533
					c-1.1267-0.7058-2.1618,1.0758-1.0397,1.7787c3.331,2.0866,6.4023,4.4959,9.2244,7.2311
					C914.2639,130.7162,915.7222,129.2611,914.7682,128.3364L914.7682,128.3364z"/>
			</g>
		</g>
		<g>
			<g>
				<path class="st1" d="M913.5357,144.4177c-3.6134-0.2951-7.2268-0.5901-10.8402-0.8851c-1.3214-0.1079-1.3142,1.9527,0,2.06
					c3.6134,0.2951,7.2268,0.5901,10.8402,0.8851C914.8571,146.5857,914.85,144.5251,913.5357,144.4177L913.5357,144.4177z"/>
			</g>
		</g>
		<g>
			<g>
				<path class="st1" d="M946.0208,102.4301c-3.1146,1.7055-5.9867,3.7678-8.6113,6.1587
					c-0.9822,0.8947,0.4778,2.3482,1.4566,1.4566c2.4984-2.2757,5.2312-4.2139,8.1945-5.8365
					C948.2236,103.572,947.1853,101.7925,946.0208,102.4301L946.0208,102.4301z"/>
			</g>
		</g>
		<g>
			<g>
				<path class="st1" d="M941.698,123.9698c3.0517-0.229,6.1034-0.458,9.1551-0.687c1.3138-0.0986,1.3245-2.1594,0-2.06
					c-3.0517,0.229-6.1034,0.458-9.1551,0.687C940.3842,122.0084,940.3735,124.0692,941.698,123.9698L941.698,123.9698z"/>
			</g>
		</g>
		<g>
			<g>
				<path class="st1" d="M933.1745,135.5359c3.1199,1.4673,6.4113,1.8403,9.7757,1.0661c1.2914-0.2972,0.7449-2.2839-0.5476-1.9864
					c-2.7917,0.6424-5.5916,0.363-8.1884-0.8584C933.0214,133.1962,931.9744,134.9715,933.1745,135.5359L933.1745,135.5359z"/>
			</g>
		</g>
		<g>
			<g>
				<path class="st1" d="M907.2323,201.2799c-0.2954-2.3294-1.5165-4.3221-3.5472-5.5381
					c-1.1401-0.6828-2.1772,1.0976-1.0397,1.7787c1.3503,0.8085,2.3265,2.1792,2.527,3.7594
					C905.3369,202.5773,907.3989,202.5937,907.2323,201.2799L907.2323,201.2799z"/>
			</g>
		</g>
		<g>
			<g>
				<path class="st1" d="M904.6643,212.8704c-2.0392-1.9737-4.2469-3.7483-6.6064-5.325c-1.1053-0.7386-2.1379,1.045-1.0397,1.7787
					c2.2161,1.4809,4.2746,3.1495,6.1895,5.0029C904.1607,215.2495,905.6191,213.7945,904.6643,212.8704L904.6643,212.8704z"/>
			</g>
		</g>
		<g>
			<g>
				<path class="st1" d="M898.5759,225.3313c-2.3551-0.3538-4.7102-0.7076-7.0652-1.0614
					c-1.2969-0.1948-1.8562,1.7898-0.5476,1.9865c2.355,0.3538,4.7101,0.7076,7.0652,1.0614
					C899.3251,227.5125,899.8846,225.5279,898.5759,225.3313L898.5759,225.3313z"/>
			</g>
		</g>
		<g>
			<g>
				<path class="st1" d="M939.1064,184.5718c-1.5775,1.6594-3.4496,2.9635-5.5837,3.8042
					c-1.2194,0.4804-0.6883,2.4733,0.5476,1.9865c2.473-0.9742,4.6583-2.4043,6.4927-4.334
					C941.4763,185.0677,940.0221,183.6087,939.1064,184.5718L939.1064,184.5718z"/>
			</g>
		</g>
		<g>
			<g>
				<path class="st1" d="M942.7614,197.7879c-2.5046,2.9122-5.7945,4.6805-9.5961,5.1977c-1.3076,0.1778-0.7508,2.163,0.5477,1.9864
					c4.1141-0.5596,7.7992-2.5813,10.505-5.7274C945.0784,198.2442,943.6277,196.7807,942.7614,197.7879L942.7614,197.7879z"/>
			</g>
		</g>
		<g>
			<g>
				<path class="st1" d="M942.6857,217.0342c-4.481,1.3463-9.0424,1.1448-13.3516-0.7165
					c-1.2043-0.5202-2.2547,1.2539-1.0397,1.7787c4.8253,2.0842,9.8922,2.4405,14.939,0.9241
					C944.4998,218.6401,943.9602,216.6513,942.6857,217.0342L942.6857,217.0342z"/>
			</g>
		</g>
	</g>
</g>
<g id="violet">
	<g>
		<g>
			<path class="st6" d="M643.0591,260.4911c26.483-6.5502,57.8312-34.3726,50.4243-64.7053
				c-4.017-16.4485-18.1599-30.088-18.0068-47.0193c0.1708-18.8949,17.929-32.965,22.8926-51.1971
				c3.8784-14.2457-0.631-29.7676-8.902-41.9975s-19.9664-21.691-31.7855-30.5392c1.2164,12.6076-6.4268,24.373-15.1439,33.5622
				c-8.7169,9.1893-18.9858,17.2174-25.2645,28.2176c-8.2405,14.4374-8.2676,33.2158-0.0687,47.6769
				c3.9592,6.9833,9.7837,13.2928,10.9657,21.2329c2.0052,13.4699-9.6884,24.4633-17.7996,35.4026
				c-8.5285,11.5023-13.8593,25.9894-11.8305,40.1641c2.0289,14.1747,12.5468,27.5018,26.6061,30.2174
				C631.0651,262.6496,637.2073,261.9384,643.0591,260.4911z"/>
		</g>
		<g>
			<g>
				<path class="st1" d="M666.659,50.2791c-1.2465,12.4145-5.6634,24.165-8.2889,36.302
					c-2.3096,10.6763-3.6078,21.5484-4.4999,32.4263c-1.8749,22.8596-1.8604,45.9402-5.7177,68.6028
					c-2.1646,12.7167-5.6353,25.1802-11.1694,36.8599c-0.5647,1.1917,1.2108,2.2383,1.7788,1.0397
					c20.0092-42.2288,12.1401-90.2466,20.8832-134.924c2.6469-13.5251,7.6919-26.5398,9.074-40.3066
					C668.8513,48.9612,666.7904,48.9704,666.659,50.2791L666.659,50.2791z"/>
			</g>
		</g>
		<g>
			<g>
				<path class="st1" d="M648.0848,86.009c-2.0428-4.0973-4.5994-7.8494-7.6388-11.2712c-0.8822-0.9932-2.3347,0.468-1.4566,1.4566
					c2.926,3.2942,5.3516,6.913,7.3166,10.8543C646.8976,88.2352,648.6752,87.193,648.0848,86.009L648.0848,86.009z"/>
			</g>
		</g>
		<g>
			<g>
				<path class="st1" d="M641.624,103.4796c-3.5428-3.434-7.4125-6.4641-11.5936-9.0832c-1.1268-0.7058-2.1619,1.0758-1.0398,1.7787
					c4.0352,2.5277,7.7581,5.4475,11.1767,8.7611C641.1198,105.8594,642.5781,104.4044,641.624,103.4796L641.624,103.4796z"/>
			</g>
		</g>
		<g>
			<g>
				<path class="st1" d="M640.2872,122.9518c-4.3612-0.3561-8.7224-0.7122-13.0837-1.0683c-1.3214-0.1079-1.3142,1.9527,0,2.06
					c4.3613,0.3561,8.7225,0.7122,13.0837,1.0683C641.6086,125.1197,641.6016,123.0591,640.2872,122.9518L640.2872,122.9518z"/>
			</g>
		</g>
		<g>
			<g>
				<path class="st1" d="M679.6033,72.2448c-3.744,2.05-7.1957,4.5261-10.3506,7.4c-0.9822,0.8947,0.4779,2.3482,1.4566,1.4566
					c3.0285-2.7587,6.3416-5.1109,9.9336-7.0779C681.8062,73.3866,680.7679,71.6071,679.6033,72.2448L679.6033,72.2448z"/>
			</g>
		</g>
		<g>
			<g>
				<path class="st1" d="M674.2783,97.8452c3.6833-0.2764,7.3666-0.5528,11.05-0.8292c1.3138-0.0986,1.3246-2.1594,0-2.06
					c-3.6833,0.2764-7.3666,0.5528-11.05,0.8292C672.9645,95.8838,672.9537,97.9447,674.2783,97.8452L674.2783,97.8452z"/>
			</g>
		</g>
		<g>
			<g>
				<path class="st1" d="M664.0982,111.8344c3.7118,1.7457,7.6331,2.1861,11.6348,1.2652c1.2914-0.2972,0.7448-2.2839-0.5476-1.9864
					c-3.4287,0.789-6.8591,0.442-10.0474-1.0575C663.9452,109.4946,662.8983,111.2699,664.0982,111.8344L664.0982,111.8344z"/>
			</g>
		</g>
		<g>
			<g>
				<path class="st1" d="M632.466,191.3695c-0.3469-2.7344-1.7949-5.0745-4.1758-6.5002c-1.1403-0.6828-2.1772,1.0976-1.0398,1.7787
					c1.7004,1.0182,2.9038,2.7366,3.1556,4.7215C630.5706,192.6669,632.6326,192.6833,632.466,191.3695L632.466,191.3695z"/>
			</g>
		</g>
		<g>
			<g>
				<path class="st1" d="M629.429,205.5098c-2.4487-2.3699-5.0975-4.5006-7.9306-6.3938c-1.1053-0.7387-2.1378,1.045-1.0397,1.7787
					c2.6895,1.7972,5.1896,3.8223,7.5137,6.0716C628.9254,207.8888,630.3838,206.4338,629.429,205.5098L629.429,205.5098z"/>
			</g>
		</g>
		<g>
			<g>
				<path class="st1" d="M622.1745,220.6044c-2.8425-0.427-5.685-0.854-8.5276-1.2811c-1.2968-0.1948-1.8562,1.7899-0.5476,1.9865
					c2.8425,0.427,5.6851,0.854,8.5276,1.2811C622.9238,222.7857,623.4831,220.801,622.1745,220.6044L622.1745,220.6044z"/>
			</g>
		</g>
		<g>
			<g>
				<path class="st1" d="M671.301,171.3541c-1.9306,2.0307-4.2228,3.6179-6.8335,4.6463c-1.2194,0.4804-0.6883,2.4733,0.5476,1.9865
					c2.9501-1.1622,5.5547-2.8749,7.7425-5.1761C673.6709,171.85,672.2167,170.3909,671.301,171.3541L671.301,171.3541z"/>
			</g>
		</g>
		<g>
			<g>
				<path class="st1" d="M675.7127,187.3055c-3.0438,3.539-7.0562,5.6998-11.6763,6.3283c-1.3076,0.1778-0.7507,2.163,0.5476,1.9864
					c4.9345-0.6711,9.3398-3.0843,12.5853-6.858C678.0297,187.7618,676.5789,186.2983,675.7127,187.3055L675.7127,187.3055z"/>
			</g>
		</g>
		<g>
			<g>
				<path class="st1" d="M675.527,210.5901c-5.4678,1.6428-11.0238,1.3837-16.2792-0.8862
					c-1.2045-0.5202-2.2548,1.2539-1.0398,1.7787c5.7708,2.4925,11.8336,2.9065,17.8666,1.0939
					C677.3411,212.196,676.8016,210.2072,675.527,210.5901L675.527,210.5901z"/>
			</g>
		</g>
	</g>
	<g>
		<g>
			<path class="st6" d="M1172.9047,260.1185c26.8401-4.8856,59.8628-30.6982,54.3624-61.4338
				c-2.983-16.6671-16.2476-31.1622-15.0387-48.051c1.3491-18.8474,19.9504-31.7824,26.0417-49.6693
				c4.7595-13.976,1.2271-29.749-6.2649-42.471s-18.5745-22.8942-29.8186-32.4625c0.4275,12.6588-7.9346,23.9246-17.2079,32.5522
				s-20.0228,15.9995-26.9756,26.5867c-9.1251,13.8952-10.3235,32.6354-3.0427,47.5797c3.516,7.2167,8.9355,13.8772,9.6199,21.8756
				c1.1611,13.5688-11.1954,23.8113-19.9731,34.2234c-9.2295,10.9479-15.4536,25.0742-14.3129,39.3478
				c1.1406,14.2736,10.8068,28.2309,24.6693,31.8182C1160.7994,261.5247,1166.974,261.1981,1172.9047,260.1185z"/>
		</g>
		<g>
			<g>
				<path class="st1" d="M1209.6063,51.5786c-2.0291,12.3778-7.1625,23.8809-10.5643,35.8909
					c-3.0925,10.9173-5.0981,22.109-6.6917,33.3332c-3.1599,22.2571-4.6519,44.8171-9.7876,66.7539
					c-2.9576,12.6334-7.2197,24.9097-13.5096,36.2867c-0.6418,1.1611,1.1366,2.2014,1.7788,1.0397
					c22.3391-40.4062,17.8439-88.2722,28.8596-131.873c3.4777-13.7655,9.597-26.8278,11.9012-40.8836
					C1211.8054,50.8293,1209.8207,50.2715,1209.6063,51.5786L1209.6063,51.5786z"/>
			</g>
		</g>
		<g>
			<g>
				<path class="st1" d="M1188.7742,86.2332c-1.7867-4.2248-4.1095-8.1053-6.9342-11.7162
					c-0.816-1.0432-2.2646,0.4238-1.4567,1.4566c2.71,3.464,4.9,7.2509,6.6121,11.2992
					C1187.5099,88.4899,1189.2849,87.4411,1188.7742,86.2332L1188.7742,86.2332z"/>
			</g>
		</g>
		<g>
			<g>
				<path class="st1" d="M1181.2228,103.2765c-3.3223-3.6513-7.0031-6.9016-11.0149-9.7761
					c-1.0795-0.7734-2.1091,1.0125-1.0397,1.7787c3.8694,2.7724,7.3951,5.9341,10.5979,9.454
					C1180.6603,105.7158,1182.1136,104.2557,1181.2228,103.2765L1181.2228,103.2765z"/>
			</g>
		</g>
		<g>
			<g>
				<path class="st1" d="M1178.9275,122.709c-4.3306-0.6275-8.6611-1.255-12.9917-1.8824
					c-1.2966-0.1879-1.8566,1.7967-0.5476,1.9864c4.3306,0.6275,8.6611,1.255,12.9917,1.8824
					C1179.6765,124.8833,1180.2366,122.8987,1178.9275,122.709L1178.9275,122.709z"/>
			</g>
		</g>
		<g>
			<g>
				<path class="st1" d="M1221.0641,74.5492c-3.8708,1.8175-7.448,4.0789-10.7823,6.7532
					c-1.0342,0.8294,0.4318,2.2787,1.4565,1.4566c3.1936-2.5613,6.6615-4.6921,10.3655-6.4311
					C1223.3029,75.7649,1222.2583,73.9884,1221.0641,74.5492L1221.0641,74.5492z"/>
			</g>
		</g>
		<g>
			<g>
				<path class="st1" d="M1214.2732,99.7389c3.6934-0.0461,7.3867-0.0922,11.0801-0.1384c1.3247-0.0165,1.3282-2.0766,0-2.06
					c-3.6934,0.0461-7.3867,0.0922-11.0801,0.1384C1212.9486,97.6955,1212.9449,99.7555,1214.2732,99.7389L1214.2732,99.7389z"/>
			</g>
		</g>
		<g>
			<g>
				<path class="st1" d="M1203.2305,113.0979c3.5906,1.9782,7.5046,2.6126,11.5413,1.9392
					c1.3047-0.2177,0.7513-2.2031-0.5476-1.9864c-3.4722,0.5793-6.8776-0.0366-9.9539-1.7315
					C1203.1084,110.679,1202.0679,112.4573,1203.2305,113.0979L1203.2305,113.0979z"/>
			</g>
		</g>
		<g>
			<g>
				<path class="st1" d="M1166.646,190.4066c-0.1796-2.7627-1.5398-5.1483-3.8186-6.7179
					c-1.0945-0.7538-2.1257,1.0308-1.0397,1.7787c1.6476,1.1349,2.6686,2.9443,2.7983,4.9392
					C1164.6716,191.7228,1166.7322,191.7324,1166.646,190.4066L1166.646,190.4066z"/>
			</g>
		</g>
		<g>
			<g>
				<path class="st1" d="M1162.6868,204.3472c-2.2986-2.5224-4.8134-4.7954-7.5267-6.8633
					c-1.0541-0.8034-2.0813,0.9848-1.0397,1.7787c2.5693,1.9582,4.9346,4.1543,7.1099,6.5412
					C1162.1251,206.7858,1163.5786,205.3257,1162.6868,204.3472L1162.6868,204.3472z"/>
			</g>
		</g>
		<g>
			<g>
				<path class="st1" d="M1154.4874,218.9878c-2.8103-0.6035-5.6206-1.207-8.431-1.8105c-1.2926-0.2776-1.8451,1.7078-0.5476,1.9865
					c2.8104,0.6035,5.6207,1.207,8.431,1.8105C1155.2327,221.2518,1155.785,219.2664,1154.4874,218.9878L1154.4874,218.9878z"/>
			</g>
		</g>
		<g>
			<g>
				<path class="st1" d="M1206.6051,172.9609c-2.0634,1.9129-4.449,3.3143-7.1257,4.1821
					c-1.2557,0.4072-0.7185,2.3969,0.5477,1.9865c3.0159-0.9779,5.7095-2.5563,8.0347-4.712
					C1209.0361,173.5143,1207.5767,172.0602,1206.6051,172.9609L1206.6051,172.9609z"/>
			</g>
		</g>
		<g>
			<g>
				<path class="st1" d="M1210.0131,189.1564c-3.1876,3.262-7.2333,5.1843-11.79,5.5219c-1.3141,0.0973-1.3247,2.1581,0,2.06
					c5.0894-0.377,9.6748-2.4701,13.2467-6.1253C1212.397,189.6643,1210.9417,188.2063,1210.0131,189.1564L1210.0131,189.1564z"/>
			</g>
		</g>
		<g>
			<g>
				<path class="st1" d="M1208.3597,212.3553c-5.5575,1.3076-11.1005,0.6444-16.1842-1.9493
					c-1.1786-0.6013-2.2223,1.1754-1.0397,1.7787c5.5897,2.8519,11.6637,3.594,17.7716,2.157
					C1210.1974,214.0382,1209.6512,212.0514,1208.3597,212.3553L1208.3597,212.3553z"/>
			</g>
		</g>
	</g>
	<g>
		<g>
			<path class="st6" d="M141.6497,260.4911c-26.483-6.5502-57.8312-34.3726-50.4242-64.7053
				c4.017-16.4485,18.1599-30.088,18.0068-47.0193c-0.1708-18.8949-17.929-32.965-22.8927-51.1971
				c-3.8784-14.2457,0.6311-29.7676,8.902-41.9975s19.9664-21.691,31.7855-30.5392c-1.2164,12.6076,6.4268,24.373,15.1438,33.5622
				c8.717,9.1893,18.9858,17.2174,25.2645,28.2176c8.2406,14.4374,8.2677,33.2158,0.0687,47.6769
				c-3.9593,6.9833-9.7837,13.2928-10.9657,21.2329c-2.0052,13.4699,9.6884,24.4633,17.7995,35.4026
				c8.5285,11.5023,13.8594,25.9894,11.8305,40.1641c-2.0289,14.1747-12.5468,27.5018-26.6061,30.2174
				C153.6437,262.6496,147.5015,261.9384,141.6497,260.4911z"/>
		</g>
		<g>
			<g>
				<path class="st1" d="M115.9898,50.2791c1.2271,12.2223,5.4435,23.7732,8.1099,35.7009
					c2.6023,11.6408,3.9543,23.5148,4.8666,35.3953c1.7393,22.6496,1.8481,45.5014,5.8021,67.9287
					c2.2047,12.5052,5.7336,24.7145,11.1786,36.2059c0.5673,1.1974,2.3439,0.1531,1.7787-1.0397
					c-19.7157-41.6093-12.1129-89.1852-20.4532-133.2762c-2.5983-13.7362-7.8217-26.96-9.2228-40.9147
					C117.9187,48.9725,115.8573,48.959,115.9898,50.2791L115.9898,50.2791z"/>
			</g>
		</g>
		<g>
			<g>
				<path class="st1" d="M138.4028,87.0487c1.965-3.9413,4.3907-7.5602,7.3166-10.8543c0.8778-0.9882-0.5741-2.4502-1.4566-1.4566
					c-3.0395,3.4219-5.5958,7.1738-7.6387,11.2712C136.0343,87.1919,137.8105,88.2365,138.4028,87.0487L138.4028,87.0487z"/>
			</g>
		</g>
		<g>
			<g>
				<path class="st1" d="M144.5414,104.9362c3.4189-3.3138,7.1417-6.2336,11.1767-8.7611c1.1209-0.7022,0.0881-2.4852-1.0397-1.7787
					c-4.1812,2.6192-8.0508,5.6493-11.5936,9.0832C142.1311,104.404,143.5886,105.8598,144.5414,104.9362L144.5414,104.9362z"/>
			</g>
		</g>
		<g>
			<g>
				<path class="st1" d="M144.4216,125.0118c4.3612-0.3561,8.7225-0.7122,13.0838-1.0683c1.3121-0.1071,1.3235-2.1681,0-2.06
					c-4.3612,0.3561-8.7225,0.7122-13.0838,1.0683C143.1095,123.0589,143.098,125.1199,144.4216,125.0118L144.4216,125.0118z"/>
			</g>
		</g>
		<g>
			<g>
				<path class="st1" d="M104.0657,74.0235c3.5925,1.9672,6.9051,4.3191,9.9336,7.0779c0.9783,0.8912,2.4392-0.5615,1.4566-1.4566
					c-3.155-2.874-6.6066-5.3499-10.3505-7.4C103.942,71.6078,102.9013,73.3859,104.0657,74.0235L104.0657,74.0235z"/>
			</g>
		</g>
		<g>
			<g>
				<path class="st1" d="M110.4305,95.7852c-3.6833-0.2764-7.3666-0.5528-11.05-0.8292c-1.3224-0.0992-1.316,1.9613,0,2.06
					c3.6834,0.2764,7.3666,0.5528,11.05,0.8292C111.7529,97.9445,111.7465,95.884,110.4305,95.7852L110.4305,95.7852z"/>
			</g>
		</g>
		<g>
			<g>
				<path class="st1" d="M119.5708,110.0556c-3.1888,1.4997-6.6169,1.847-10.0474,1.0575
					c-1.2903-0.2969-1.8411,1.6888-0.5476,1.9864c4.0011,0.9208,7.9224,0.4809,11.6348-1.2652
					C121.8093,111.2705,120.7648,109.4941,119.5708,110.0556L119.5708,110.0556z"/>
			</g>
		</g>
		<g>
			<g>
				<path class="st1" d="M154.3028,191.3695c0.2519-1.986,1.4549-3.7031,3.1555-4.7214c1.1362-0.6804,0.1016-2.4622-1.0397-1.7787
					c-2.3819,1.4263-3.829,3.7656-4.1758,6.5002C152.0764,192.6812,154.138,192.669,154.3028,191.3695L154.3028,191.3695z"/>
			</g>
		</g>
		<g>
			<g>
				<path class="st1" d="M156.7365,206.9664c2.3242-2.2495,4.8242-4.2744,7.5137-6.0717c1.0969-0.733,0.0667-2.5181-1.0398-1.7787
					c-2.8331,1.8932-5.4819,4.0239-7.9306,6.3938C154.3254,206.4334,155.783,207.8891,156.7365,206.9664L156.7365,206.9664z"/>
			</g>
		</g>
		<g>
			<g>
				<path class="st1" d="M163.0819,222.5909c2.8425-0.427,5.6851-0.854,8.5276-1.2811c1.3065-0.1963,0.7514-2.1815-0.5476-1.9865
					c-2.8425,0.427-5.6851,0.854-8.5276,1.2811C161.2277,220.8007,161.7829,222.7859,163.0819,222.5909L163.0819,222.5909z"/>
			</g>
		</g>
		<g>
			<g>
				<path class="st1" d="M111.9511,172.8107c2.1877,2.3012,4.7921,4.0138,7.7425,5.1762c1.2338,0.486,1.7689-1.5053,0.5476-1.9865
					c-2.6113-1.0287-4.9029-2.6156-6.8335-4.6463C112.4925,170.3913,111.0374,171.8496,111.9511,172.8107L111.9511,172.8107z"/>
			</g>
		</g>
		<g>
			<g>
				<path class="st1" d="M107.5396,188.7622c3.2453,3.7734,7.6506,6.1868,12.5853,6.858c1.2964,0.1763,1.8573-1.8083,0.5476-1.9864
					c-4.6214-0.6286-8.6338-2.7907-11.6763-6.3283C108.1303,186.2987,106.6788,187.7614,107.5396,188.7622L107.5396,188.7622z"/>
			</g>
		</g>
		<g>
			<g>
				<path class="st1" d="M108.6341,212.5765c6.0324,1.8125,12.095,1.399,17.8666-1.0939c1.2137-0.5242,0.1658-2.2994-1.0398-1.7787
					c-5.2483,2.2669-10.8151,2.528-16.2793,0.8862C107.9093,210.2078,107.3656,212.1954,108.6341,212.5765L108.6341,212.5765z"/>
			</g>
		</g>
	</g>
	<g>
		<g>
			<path class="st6" d="M364.9429,254.3354c12.0827,5.8579,28.7047,4.6384,41.1293,1.7693
				c3.8314-0.8847,7.6819-1.8793,11.1628-3.7084c4.0735-2.1405,7.4778-5.336,10.827-8.4915
				c9.4621-8.9149,14.693-14.517,15.017-27.8788c0.2663-10.9837-4.1661-22.1368-12.8443-29.1035
				c-4.7541-3.8164-10.598-6.4875-14.1647-11.4315c-8.2581-11.4472-0.2533-26.9178,3.9366-40.3966
				c10.3466-33.2841-8.5315-72.9488-40.8876-85.909c3.5531,10.5191-1.6296,22.1012-8.7208,30.6447s-16.147,15.4085-22.473,24.5332
				c-12.4745,17.9935-11.8507,44.0296,1.4713,61.4049c5.3332,6.9558,12.7995,13.4526,13.0952,22.2127
				c0.3415,10.1189-9.0059,17.6308-13.1195,26.882c-5.9779,13.4441,0.8199,30.7815,13.1783,38.1818
				C363.3255,253.5085,364.1237,253.9382,364.9429,254.3354z"/>
		</g>
		<g>
			<g>
				<path class="st1" d="M388.2825,84.7882c7.4711,18.481,0.0147,38.1404-3.4474,56.6454
					c-1.637,8.7496-2.5631,17.6989-1.1171,26.5437c1.7052,10.4301,6.2365,20.0826,9.1325,30.1864
					c3.1279,10.913,4.1418,23.3594-2.5685,33.1718c-0.7502,1.0971,1.0341,2.1286,1.7787,1.0397
					c12.0698-17.6495,0.7329-38.6975-4.4141-56.544c-3.0381-10.5344-3.0675-20.9046-1.2208-31.6501
					c1.7024-9.9055,4.4803-19.596,6.0463-29.527c1.6165-10.2519,1.7418-20.6549-2.2033-30.4135
					C389.7784,83.0272,387.7849,83.5574,388.2825,84.7882L388.2825,84.7882z"/>
			</g>
		</g>
		<g>
			<g>
				<path class="st1" d="M376.4803,116.3867c-2.4173-2.3283-4.3141-5.0605-5.584-8.1717c-0.4943-1.2111-2.4879-0.6812-1.9864,0.5476
					c1.4079,3.4493,3.4276,6.4934,6.1138,9.0807C375.9787,118.7633,377.4373,117.3085,376.4803,116.3867L376.4803,116.3867z"/>
			</g>
		</g>
		<g>
			<g>
				<path class="st1" d="M368.4778,130.1378c-2.4191,0.7862-4.9161,0.7418-7.2664-0.2738
					c-1.2043-0.5204-2.2547,1.2537-1.0398,1.7787c2.8619,1.2367,5.8735,1.4501,8.8537,0.4815
					C370.2809,131.7162,369.7437,129.7264,368.4778,130.1378L368.4778,130.1378z"/>
			</g>
		</g>
		<g>
			<g>
				<path class="st1" d="M368.4106,151.7244c-2.1363,2.8184-5.0954,4.7767-8.4898,5.7309
					c-1.2743,0.3582-0.7329,2.3464,0.5476,1.9864c3.9522-1.1111,7.2471-3.4141,9.7209-6.6776
					C370.9901,151.7077,369.2022,150.6802,368.4106,151.7244L368.4106,151.7244z"/>
			</g>
		</g>
		<g>
			<g>
				<path class="st1" d="M404.8869,105.712c-1.6615,2.4649-3.8827,4.3787-6.5319,5.7171c-1.1835,0.5979-0.1419,2.3757,1.0398,1.7787
					c2.9661-1.4984,5.416-3.7043,7.2709-6.4561C407.4085,105.6495,405.6247,104.6174,404.8869,105.712L404.8869,105.712z"/>
			</g>
		</g>
		<g>
			<g>
				<path class="st1" d="M408.2195,124.8316c-2.5151,1.8745-5.3506,2.8436-8.4948,2.8342c-1.3256-0.0039-1.3275,2.056,0,2.06
					c3.4701,0.0103,6.7484-1.0391,9.5344-3.1155C410.31,125.8271,409.2841,124.0382,408.2195,124.8316L408.2195,124.8316z"/>
			</g>
		</g>
		<g>
			<g>
				<path class="st1" d="M404.508,146.4966c-2.8451-0.0495-5.3231-1.2455-7.1854-3.3847c-0.8721-1.0017-2.324,0.4604-1.4566,1.4566
					c2.2029,2.5304,5.2953,3.9299,8.6421,3.988C405.8341,148.5797,405.8343,146.5197,404.508,146.4966L404.508,146.4966z"/>
			</g>
		</g>
		<g>
			<g>
				<path class="st1" d="M383.5959,199.7746c-4.2555-1.0987-8.1241-3.0114-11.5415-5.7798
					c-1.0212-0.8272-2.4875,0.6216-1.4566,1.4566c3.6959,2.9939,7.843,5.1199,12.4506,6.3095
					C384.3326,202.0926,384.8805,200.1062,383.5959,199.7746L383.5959,199.7746z"/>
			</g>
		</g>
		<g>
			<g>
				<path class="st1" d="M378.3407,212.4451c-3.5175,0.4914-7.035,0.9828-10.5524,1.4741c-1.3073,0.1826-0.751,2.1678,0.5476,1.9864
					c3.5175-0.4914,7.035-0.9827,10.5524-1.4741C380.1957,214.2489,379.6393,212.2637,378.3407,212.4451L378.3407,212.4451z"/>
			</g>
		</g>
		<g>
			<g>
				<path class="st1" d="M380.0146,227.9992c-3.2503,1.3237-6.5007,2.6475-9.7511,3.9713c-1.2116,0.4934-0.6816,2.487,0.5476,1.9864
					c3.2504-1.3237,6.5007-2.6475,9.7511-3.9713C381.7738,229.4922,381.2438,227.4986,380.0146,227.9992L380.0146,227.9992z"/>
			</g>
		</g>
		<g>
			<g>
				<path class="st1" d="M410.8239,190.7597c-2.5168,1.7764-5.0335,3.5527-7.5502,5.329c-1.0747,0.7585-0.0466,2.5455,1.0398,1.7787
					c2.5168-1.7764,5.0335-3.5527,7.5502-5.329C412.9383,191.7799,411.9103,189.9929,410.8239,190.7597L410.8239,190.7597z"/>
			</g>
		</g>
		<g>
			<g>
				<path class="st1" d="M413.2382,207.004c-2.7217,1.307-5.4433,2.614-8.1649,3.9209c-1.1946,0.5737-0.1509,2.3505,1.0398,1.7787
					c2.7216-1.307,5.4432-2.614,8.1649-3.921C415.4724,208.209,414.4287,206.4322,413.2382,207.004L413.2382,207.004z"/>
			</g>
		</g>
		<g>
			<g>
				<path class="st1" d="M412.6842,230.3924c-3.7548-0.4768-7.0829-2.1827-9.7352-4.8649
					c-0.9336-0.9441-2.3901,0.5126-1.4566,1.4566c3.0595,3.094,6.8865,4.9216,11.1919,5.4683
					C413.9958,232.619,413.9837,230.5574,412.6842,230.3924L412.6842,230.3924z"/>
			</g>
		</g>
	</g>
</g>
</svg>
