<?xml version="1.0" encoding="utf-8"?>
<!-- Generator: Adobe Illustrator 23.0.1, SVG Export Plug-In . SVG Version: 6.00 Build 0)  -->
<svg version="1.1" xmlns="http://www.w3.org/2000/svg" xmlns:xlink="http://www.w3.org/1999/xlink" x="0px" y="0px"
	 viewBox="0 0 1775.3959 339.9411" style="enable-background:new 0 0 1775.3959 339.9411;" xml:space="preserve">
<style type="text/css">
	.st0{fill:#1856C2;}
	.st1{fill:#F09A82;}
	.st2{fill:#6536C9;}
	.st3{fill:#A5CAFA;}
	.st4{fill:#6610EF;}
	.st5{fill:#71B1FC;}
	.st6{fill:#FF9C6E;}
	.st7{fill:#325AD9;}
	.st8{fill:#325ADA;}
	.st9{fill:#9A6FEE;}
	.st10{fill:#FAA76C;}
</style>
<g id="Layer_1">
	<g>
		<path class="st0" d="M1153.0126,189.3779c9.8195,8.9125,19.639,17.8249,29.4586,26.7374
			c6.1296,5.5634,12.3579,11.2469,16.5214,18.4015c7.0048,12.0374,7.5696,27.2193,15.6375,38.5716
			c6.5779,9.2557,17.1674,14.6174,26.2008,21.4972c10.6792,8.1331,19.3444,18.5657,27.9094,28.9015
			c4.2728,5.156,8.5975,10.3943,11.3408,16.5028c2.3285,5.1847,3.4369,10.8211,4.4585,16.412
			c7.6991,42.1321,11.4883,84.9781,11.303,127.8075c-9.8502-49.1209-44.082-89.7578-81.2952-123.2998
			c-7.6931-6.9341-15.674-13.7935-21.2831-22.4999c-4.3958-6.823-7.1759-14.5442-9.7061-22.2562
			c-6.5566-19.9851-11.6886-40.4376-15.3438-61.1508c-2.0039-11.3562-3.5695-22.8123-6.4781-33.9711
			c-3.98-15.2691-10.4746-29.8797-19.1429-43.0649"/>
	</g>
	<g>
		<path class="st1" d="M1142.156,176.6221c-4.3436,18.7156-2.4258,38.2765-4.4066,57.3872
			c-2.4897,24.0212-11.1501,47.5097-9.7491,71.619c2.0704,35.6317,26.2192,66.8802,55.5143,87.2691
			c15.7631,10.9708,33.1243,19.4536,49.1375,30.0561c25.5508,16.9175,47.507,39.2364,64.0035,65.061
			c5.2963-8.7957,2.5092-20.0386-0.6044-29.8224c-10.1459-31.8808-22.7776-64.0669-45.8801-88.266
			c-16.2041-16.9731-37.059-29.4478-51.022-48.3075c-15.4114-20.8162-20.8085-47.1313-26.4799-72.403
			c-5.6715-25.2717-12.6025-51.5398-30.1125-70.6245"/>
	</g>
	<g>
		<path class="st2" d="M320.0164,362.1427c-8.1875-28.4521-10.8133-60.1473,2.0742-86.802
			c12.5503-25.9574,38.8914-45.4912,43.3465-73.977c1.2204,7.6724,8.065,13.1595,11.0354,20.338
			c2.3936,5.7845,2.1238,12.2905,1.5539,18.5247c-2.0435,22.3529-7.742,44.9985-21.0123,63.1017
			c-6.9169,9.4361-15.6751,17.3557-23.2042,26.3109c-7.5291,8.9552-13.9985,19.4643-14.9659,31.1239"/>
	</g>
	<g>
		<path class="st3" d="M418.4951,242.4807c-3.7868,11.2098-6.4068,22.7776-9.8419,34.1001
			c-6.5614,21.6272-16.4125,42.7831-32.3303,58.8272s-38.6161,26.4004-61.0498,23.6587
			c6.7038-13.0539,13.4271-26.141,21.5811-38.3416c22.0944-33.0592,53.7653-58.3357,84.9126-83.0524"/>
	</g>
	<g>
		<path class="st1" d="M181.4529,334.0577c3.6006-15.4598,7.2298-31.0088,13.4193-45.6259
			c6.1895-14.6172,15.133-28.3982,27.7209-38.0686c7.7491-5.9531,16.7713-10.2407,26.2809-12.4894
			c1.6177-0.3825,3.3387-0.7029,4.9175-0.1826c4.2166,1.3895,4.4875,7.1728,3.948,11.5795
			c-0.9419,7.6925-1.8838,15.3849-2.8257,23.0773c4.7633-10.2405,10.6324-21.4982,21.3785-24.9732
			c8.2935-2.6818,17.4477,0.1569,24.924,4.6377c1.2864,0.771,2.6788,1.8059,2.784,3.3019c0.0758,1.08-0.5592,2.0687-1.1855,2.9519
			c-7.4121,10.4526-17.3933,19.0695-28.8157,24.8771c11.5507-7.3501,28.7577-3.4916,36.064,8.087
			c3.2018,5.0741,4.4491,11.9875,1.1113,16.9731c-1.7795,2.6579-4.6129,4.4243-7.5156,5.7678
			c-7.6971,3.5626-16.5119,4.6619-24.8481,3.0988c8.6848,4.306,17.3697,8.6121,26.0546,12.9182
			c0.7969,0.3951,1.6563,0.8546,1.9991,1.6755c0.3317,0.7942,0.0824,1.7013-0.2011,2.5139
			c-4.9278,14.1168-19.2966,23.3371-34.0266,25.9059c-14.73,2.5687-29.842-0.4536-44.2729-4.3673
			c-15.7245-4.2645-31.3413-9.6906-44.9669-18.6228"/>
	</g>
	<g>
		<path class="st4" d="M314.2251,301.8236c-8.2167,5.2339-16.6151,10.1618-25.2922,14.6023
			c-8.6746,4.4354-17.5604,8.5198-26.7079,12.0513c-9.1437,3.5313-18.6089,6.3344-28.2768,8.1438
			c-2.4224,0.418-4.8494,0.8141-7.2826,1.1587c-2.4445,0.2695-4.8943,0.4925-7.3442,0.6682
			c-2.4592,0.0974-4.9202,0.1378-7.3767,0.1191c-2.4651-0.129-4.9225-0.2503-7.3751-0.5701
			c-0.8148-0.1063-1.3893-0.8529-1.283-1.6678c0.0804-0.6188,0.5305-1.0989,1.0991-1.2477l0.0545-0.0138
			c2.3755-0.6186,4.746-1.0388,7.1088-1.4668c2.3577-0.4874,4.7111-0.9159,7.0663-1.2872c2.3452-0.4608,4.6906-0.8742,7.041-1.2414
			c2.3373-0.4576,4.6802-0.8634,7.0281-1.2478c9.3561-1.7275,18.6703-3.768,27.8958-6.3163
			c9.2221-2.5482,18.2967-5.7798,27.0121-9.8293c8.7128-4.0444,17.1344-8.7707,25.0027-14.2926
			c0.663-0.4653,1.5776-0.305,2.0428,0.358c0.4652,0.6629,0.3051,1.5775-0.358,2.0427
			C314.2638,301.7984,314.2419,301.8128,314.2251,301.8236z"/>
	</g>
	<g>
		<g>
			<path class="st5" d="M231.4288,133.4287c6.7932-1.0399,13.3866,4.1772,15.8593,10.5894c2.4728,6.412,1.6437,13.6244-0.06,20.2822
				c-0.9072,3.5452-2.122,7.1538-4.6192,9.8288c-5.2286,5.6008-14.9286,5.1293-20.8813,0.3051
				c-5.9527-4.8242-8.5498-12.8297-8.7073-20.4902c-0.0942-4.5825,0.6007-9.2558,2.6511-13.3551
				c2.0505-4.0993,5.5588-7.5804,9.9155-9.0046"/>
		</g>
		<g>
			<path class="st5" d="M190.272,164.3585c3.9052,0.7355,7.7938,1.834,11.2206,3.846s6.3792,5.0138,7.7643,8.7384
				c1.1865,3.1903,1.1692,6.6954,0.8981,10.0884c-0.3065,3.8351-0.977,7.7973-3.183,10.9493
				c-3.447,4.9253-10.3448,6.8294-16.0895,5.0576c-5.7446-1.7719-10.1896-6.7704-12.0529-12.486
				c-1.8633-5.7157-1.3392-12.0319,0.6572-17.7024c1.2902-3.6646,3.3239-7.2729,6.6393-9.2984"/>
		</g>
		<g>
			<path class="st5" d="M120.903,234.7063c4.9869-1.1864,10.3894,1.0871,13.7857,4.9265c3.3964,3.8394,4.9881,9.0076,5.3782,14.1188
				c0.3901,5.1112-0.3261,10.2349-1.0407,15.3109c-0.4355,3.0942-1.1911,6.6574-3.9821,8.0626
				c-1.054,0.5307-2.2612,0.6599-3.4401,0.7093c-5.802,0.2426-11.6664-1.2902-16.6077-4.3407
				c-1.713-1.0575-3.3413-2.3176-4.5055-3.96c-2.1494-3.0324-2.47-6.9664-2.5059-10.6831
				c-0.0377-3.9077,0.1584-7.8177,0.5868-11.7019c0.3216-2.9156,0.7989-5.8914,2.2432-8.4444
				c1.4442-2.553,4.0469-4.6309,6.9795-4.6912"/>
		</g>
		<g>
			<path class="st5" d="M284.412,165.7051c4.972,1.461,9.3728,5.0226,11.4739,9.7598c2.1012,4.7371,1.7146,10.5897-1.3145,14.7944
				c-1.4023,1.9463-3.2919,3.4959-5.3029,4.8038c-8.0952,5.2652-19.174,6.5972-27.4196,1.571
				c-2.216-1.3508-4.2054-3.1478-5.4894-5.4031c-0.968-1.7003-1.5127-3.6195-1.761-5.5603
				c-0.901-7.0434,2.3303-14.4642,8.1003-18.6028c5.7701-4.1386,13.8352-4.8199,20.2178-1.7082"/>
		</g>
		<g>
			<path class="st5" d="M244.049,204.5609c5.9982,0.5917,11.8847,3.0676,16.1293,7.347c4.2445,4.2793,6.7054,10.4148,6.067,16.4082
				c-0.6385,5.9934-4.5619,11.6516-10.1572,13.8924c-2.8291,1.133-5.9464,1.3967-8.987,1.1914
				c-7.5751-0.5114-15.2507-4.2896-18.8694-10.9641c-2.9555-5.4515-2.8406-12.3543-0.0481-17.8911
				c2.7925-5.5368,8.0933-9.6584,14.0473-11.3916"/>
		</g>
		<g>
			<path class="st5" d="M171.4633,273.3668c5.3668,0.6331,10.834,1.2936,15.7504,3.5366
				c4.9164,2.2431,9.2831,6.3672,10.4151,11.6513c0.4588,2.1419,0.3716,4.3618,0.1767,6.5436
				c-0.2025,2.2668-0.5298,4.5617-1.4764,6.6314c-2.9177,6.3798-10.7126,8.8376-17.7067,9.3824
				c-7.3053,0.5688-15.3937-0.5011-20.4365-5.8172c-4.478-4.7207-5.5182-12.1589-3.169-18.2267
				c2.3493-6.0679,7.7357-10.7019,13.8717-12.8669"/>
		</g>
		<g>
			<path class="st5" d="M199.6362,244.1888c7.5494-3.1534,16.6095-3.3309,23.6539,0.83
				c7.0444,4.1609,11.3701,13.0801,9.0124,20.9147c-0.4825,1.6033-1.2265,3.1433-2.3069,4.4225
				c-1.6762,1.9845-4.0543,3.232-6.4398,4.2603c-7.3287,3.1591-16.1373,4.5881-23.0752,0.644
				c-5.0705-2.8825-8.4412-8.5422-8.5604-14.3737c-0.1192-5.8314,3.0174-11.624,7.966-14.7113"/>
		</g>
		<g>
			<path class="st5" d="M157.4447,198.1437c6.3685,0.8472,12.3376,4.372,16.1548,9.5398c1.1447,1.5497,2.1161,3.2748,2.4822,5.1663
				c0.2691,1.3901,0.2031,2.8204,0.1349,4.2347c-0.2555,5.2952-0.6695,10.9795-4.0006,15.1035
				c-2.5202,3.1201-6.411,4.8805-10.3504,5.6339c-2.2538,0.431-4.637,0.5578-6.7983-0.2129
				c-2.446-0.8722-4.3531-2.7905-6.1138-4.6993c-2.8606-3.1013-5.6587-6.4932-6.6895-10.5844
				c-0.7628-3.0275-0.4958-6.2077-0.1996-9.3158c0.3531-3.7026,0.7802-7.5279,2.6431-10.7471
				c1.8629-3.2192,5.5653-5.6789,9.2068-4.9218"/>
		</g>
		<g>
			<g>
				<path class="st6" d="M234.8244,183.4783c-17.5292,20.1772-40.3066,34.8342-58.3073,54.5567
					c-18.2495,19.9952-35.113,41.8855-50.2811,64.296c-8.7986,12.9996-16.8456,26.489-23.8129,40.5602
					c-2.5017,5.0525,5.0766,9.5106,7.5892,4.4361c12.0738-24.3845,27.4338-46.9347,44.0944-68.3934
					c8.3894-10.8055,16.955-21.5479,26.0261-31.7918c8.7034-9.8285,18.3633-18.5647,28.3572-27.0512
					c11.3306-9.6216,22.7733-19.1448,32.5492-30.3976C244.7333,185.441,238.5422,179.1989,234.8244,183.4783L234.8244,183.4783z"/>
			</g>
		</g>
	</g>
	<g>
		<g>
			<path class="st7" d="M60.7331,332.2473c11.9501-2.3659,23.4665-6.9046,33.8177-13.3276
				c8.2722-5.133,15.7617-11.4272,22.982-17.9573c8.0787-7.3064,15.943-15.0374,21.7122-24.2766
				c5.7693-9.2393,9.3381-20.1976,8.1151-31.0213c-0.1692-1.4972-0.5246-3.1454-1.756-4.0138
				c-0.988-0.6967-2.2889-0.7054-3.4974-0.6705c-7.5541,0.2183-15.089,1.0986-22.49,2.6275
				c12.1573-6.2371,20.2862-19.6309,20.2068-33.2946c-0.0104-1.7797-0.1585-3.5996-0.8766-5.228
				c-0.7904-1.7921-2.2227-3.2325-3.8003-4.3933c-8.0731-5.9397-20.7215-4.2834-26.993,3.5347
				c1.6481-6.7127,1.2436-13.9148-1.1459-20.4008c-2.0644-5.6037-5.8936-10.8994-11.4567-13.071
				c-7.5625-2.952-16.5939,0.8508-21.4165,7.3815c-4.8226,6.5306-6.0428,15.122-5.3878,23.2139
				c0.655,8.0917,3.0024,15.9351,4.6754,23.8791c-5.9469-5.5526-12.1244-10.8584-18.5111-15.899
				c-2.3711-1.8713-5.3571-3.8116-8.1952-2.7776c-1.7217,0.6273-2.8876,2.2159-3.8396,3.7816
				c-5.2054,8.5617-7.0838,18.6784-8.7566,28.5576c-1.5001,8.8592-2.9141,17.7748-2.986,26.7598
				c-0.1993,24.9264,10.5036,49.7491,28.7659,66.7154"/>
		</g>
		<g>
			<path class="st4" d="M98.3844,239.8886c-6.043,7.4753-11.33,15.5569-15.9564,23.9751
				c-4.6317,8.4206-8.4716,17.2548-11.6399,26.2827c-3.1686,9.0313-5.8364,18.1857-8.1949,27.4028
				c-0.543,2.3165-1.1069,4.6265-1.722,6.9272c-0.5259,2.32-1.0975,4.632-1.7164,6.9405c-0.5303,2.3245-1.1177,4.6434-1.7639,6.9628
				c-0.5873,2.3283-1.1674,4.6648-1.9457,6.9928l-0.0177,0.0523c-0.2604,0.7793-1.1036,1.1999-1.883,0.9393
				c-0.5917-0.1978-0.9764-0.7328-1.0133-1.3194c-0.1524-2.4686-0.1068-4.9285-0.0682-7.3968
				c0.1481-2.4522,0.3555-4.9047,0.6194-7.3517c0.3416-2.4324,0.7305-4.8612,1.1651-7.2819c0.5089-2.404,1.0687-4.7988,1.6502-7.187
				c2.4614-9.5227,5.9003-18.7759,10.044-27.659c4.1444-8.8867,8.8223-17.4748,13.8362-25.8283
				c5.0191-8.3557,10.5057-16.4003,16.2852-24.2429c0.4803-0.6521,1.3982-0.7914,2.0505-0.3112
				c0.6521,0.4803,0.7914,1.3983,0.3111,2.0504C98.4128,239.8525,98.3969,239.8731,98.3844,239.8886z"/>
		</g>
	</g>
	<g>
		<path class="st3" d="M78.414,143.2647c-11.9778,10.7069-22.5428,22.9751-31.7826,36.0983
			c-9.2856,13.1084-16.9025,27.3282-23.1963,41.9858c-6.284,14.6773-11.4572,29.6938-15.9761,44.8607
			c-0.5135,1.9111-1.0324,3.8203-1.5845,5.7207c-0.5308,1.9062-1.1004,3.8022-1.6824,5.6967
			c-0.9822,3.8334-2.0545,7.6494-3.2208,11.4591c-0.9783,3.8471-2.0696,7.6838-3.2781,11.5248
			c-1.039,3.8678-2.1614,7.7413-3.5982,11.6169l-0.0492,0.1324c-0.5629,1.5185-2.2502,2.293-3.7686,1.7302
			c-1.0994-0.4076-1.8085-1.4075-1.9026-2.503c-0.3511-4.1646-0.388-8.3315-0.3414-12.504
			c0.2379-4.1423,0.5935-8.2888,1.062-12.4249c0.6344-4.1012,1.3627-8.1962,2.1818-12.2736
			c0.4921-2.0174,0.9961-4.0333,1.5393-6.039c0.5222-2.0115,1.0764-4.0144,1.6375-6.0149
			c4.7578-15.9354,11.5789-31.2073,19.7867-45.5702c8.1987-14.3823,17.5728-27.9574,27.5629-40.9612
			c10.0345-12.9881,21.033-25.149,32.6592-36.7205c1.1263-1.1223,2.9493-1.1191,4.0717,0.0072
			c1.1222,1.1263,1.1191,2.9493-0.0072,4.0717C78.493,143.1919,78.4495,143.2326,78.414,143.2647z"/>
	</g>
	<g>
		<path class="st4" d="M811.3391,242.9282c-5.3765,15.1392-8.7646,30.9712-10.5797,46.9178
			c-1.8624,15.9556-1.7277,32.0865-0.2219,47.9669c1.5239,15.893,4.1849,31.5512,7.4927,47.0274
			c0.4658,1.9233,0.9257,3.8476,1.3528,5.7799c0.4483,1.9272,0.8574,3.8643,1.2553,5.8058
			c0.9764,3.8349,1.8653,7.6977,2.6686,11.6001c0.9863,3.8451,1.8686,7.7352,2.6498,11.6853
			c0.9431,3.8922,1.8156,7.8296,2.4133,11.9196l0.0203,0.1398c0.2343,1.6024-0.875,3.0913-2.4774,3.3254
			c-1.1602,0.1696-2.2618-0.368-2.8699-1.2841c-2.3052-3.4862-4.3358-7.125-6.2955-10.809
			c-1.7776-3.7491-3.4539-7.5582-5.0261-11.4124c-1.4099-3.9032-2.7345-7.8459-3.971-11.8166
			c-0.5355-2.0063-1.06-4.017-1.545-6.0375c-0.5065-2.0155-0.9805-4.0389-1.4474-6.0636
			c-3.4664-16.2652-4.804-32.9376-4.4888-49.4773c0.2975-16.5523,2.0142-32.96,4.5449-49.1618
			c2.5772-16.2092,6.3973-32.1548,11.0507-47.8842c0.4503-1.525,2.0513-2.3963,3.5765-1.9462
			c1.525,0.4502,2.3962,2.0514,1.9462,3.5764C811.3736,242.8263,811.3551,242.8829,811.3391,242.9282z"/>
	</g>
	<g>
		<g>
			<g>
				<path class="st8" d="M469.6525,309.8958c-15.0512,7.3809-29.5015,15.8684-43.278,25.4197
					c-4.9641,3.4416-0.0054,11.4268,4.9717,7.9761c13.7765-9.5512,28.2268-18.0387,43.278-25.4197
					C480.0605,315.2061,475.0343,307.2567,469.6525,309.8958L469.6525,309.8958z"/>
			</g>
		</g>
		<g>
			<g>
				<path class="st8" d="M466.7583,231.4693c2.5684,41.0582-21.9074,76.1366-44.5106,108.0703
					c-3.7677,5.3231,4.9987,10.381,8.7333,5.1048c23.6442-33.4047,48.5741-70.2898,45.8914-113.1751
					C476.468,225.0043,466.351,224.9585,466.7583,231.4693L466.7583,231.4693z"/>
			</g>
		</g>
		<g>
			<path class="st1" d="M472.832,226.2274c5.2004-9.9357,13.872-17.7102,23.4447-23.5519c4.6146-2.816,9.6414-5.2808,15.0357-5.6344
				c5.3944-0.3537,11.2323,1.8094,13.9844,6.4624c3.5212,5.9533,0.8346,14.0361-4.3138,18.655s-12.1141,6.5486-18.8591,8.0804
				c-10.2842,2.3354-21.0935,4.0697-31.2918,1.3842"/>
		</g>
		<g>
			<path class="st1" d="M469.6365,230.6328c-8.2791-14.6214-11.7913-31.8925-9.8805-48.5862
				c0.8897-7.7736,3.1403-15.7998,8.6811-21.3242c5.5408-5.5245,15.0834-7.5832,21.3177-2.8553
				c3.4212,2.5945,5.3601,6.7746,6.0895,11.006c1.3727,7.9641-1.1082,16.0625-4.0293,23.5977
				c-4.8721,12.5685-11.0613,24.6259-18.4335,35.9111"/>
		</g>
		<g>
			<path class="st1" d="M466.1093,266.1579c-0.0352-14.8643-5.6928-29.6481-15.5902-40.7383
				c-3.1071-3.4816-6.6891-6.657-10.9635-8.5295c-4.2743-1.8724-9.3285-2.3184-13.5913-0.4199
				c-7.7653,3.4584-10.537,13.7928-7.9272,21.8828c2.6097,8.0901,9.2126,14.2257,16.0748,19.2426
				c8.322,6.0841,17.4196,11.1061,27.0024,14.906"/>
		</g>
		<g>
			<path class="st1" d="M454.3711,293.3137c-8.3664-12.9639-20.8029-23.2589-35.1014-29.0568
				c-2.0835-0.8448-4.2752-1.6079-6.5205-1.4932c-3.9846,0.2036-7.2629,3.0651-10.1928,5.7731
				c-1.6523,1.5271-3.3513,3.1192-4.2314,5.1898c-1.2278,2.8888-0.6279,6.315,0.9403,9.0341
				c1.5682,2.7191,3.9981,4.8332,6.5302,6.6881c12.5965,9.2271,28.9802,13.1101,44.378,10.5175"/>
		</g>
		<g>
			<path class="st1" d="M471.0355,308.2769c1.6185-9.5184,5.7046-18.8568,12.8103-25.3935
				c7.1057-6.5367,17.4794-9.8716,26.7617-7.215c1.4211,0.4067,2.8528,0.976,3.8766,2.0421
				c1.2969,1.3505,1.7477,3.2827,2.1042,5.1208c0.5348,2.757,0.9753,5.5976,0.4786,8.3617
				c-0.7578,4.2165-3.652,7.8065-7.1234,10.3167c-3.4715,2.5102-7.5143,4.0875-11.5078,5.6383
				c-5.3488,2.0771-10.6976,4.1543-16.0464,6.2314c-3.2985,1.2809-6.8567,2.5827-10.2942,1.7438"/>
		</g>
		<g>
			<g>
				<path class="st9" d="M480.9512,169.7904c-5.3161-0.8302-10.1045,1.3925-12.1297,6.5544
					c-1.53,3.8998-2.0649,10.2376,0.8535,13.5993c3.6158,4.1647,9.8275,3.6084,13.5134-0.1745
					c1.7903-1.8374,3.0213-4.2121,3.3768-6.7521c0.1897-1.355,0.1588-2.702-0.2048-4.033
					c-0.1519-0.5556-0.3764-1.5014-0.7663-1.9333c-0.6038-0.669,0.4514-0.7462-0.0842,0.647
					c-0.4335,0.7438-0.867,1.4877-1.3006,2.2315c0.12-0.1272,0.2402-0.2545,0.3602-0.3818
					c4.4645-4.733-2.6742-11.8985-7.1518-7.1518c-1.7851,1.8924-2.4847,4.3491-1.8006,6.8943
					c0.2379,0.6353,0.4947,1.263,0.7707,1.8829c0.3459,0.7553,0.4179,0.8745,0.2158,0.3578
					c-0.1047,0.4388-0.7673,1.0563-0.8151,1.3433c0.0945-0.568,1.9132,1.4411,2.0267,1.2883
					c0.3397-0.4573,0.0174-2.3474,0.111-2.9623c0.0748-0.4913,0.1874-1.1772,0.4675-1.5788
					c0.2744-0.3934-0.0983-0.0733-0.1312-0.0784c2.6953,0.4209,5.4393-0.6877,6.2209-3.5321
					C485.1427,173.6111,483.6656,170.2142,480.9512,169.7904L480.9512,169.7904z"/>
			</g>
		</g>
		<g>
			<g>
				<path class="st9" d="M508.8204,207.527c-4.205-1.6237-9.1532-1.0437-13.0352,1.1855
					c-4.0442,2.3223-7.6978,7.1529-6.5405,12.0545c2.7463,11.6313,20.1617,3.5354,21.3676-5.1459
					c0.3753-2.7017-0.6564-5.4306-3.5321-6.2207c-2.3641-0.6496-5.8426,0.8094-6.2208,3.5321
					c-0.1923,1.3847-0.5991,1.8829-1.8702,2.6091c-0.4929,0.2816-1.6421,0.4613-1.9929,0.7878
					c-0.8544,0.7952,1.5444,2.8223,2.299,2.525c0.0886-0.0349,0.8973-0.9615,1.0181-1.0527c0.5679-0.4287,1.1929-0.699,1.8697-0.888
					c1.42-0.3964,2.5745-0.1642,3.9485,0.3664c2.5485,0.9841,5.5485-1.0855,6.2208-3.5321
					C513.1373,210.8916,511.3782,208.5147,508.8204,207.527L508.8204,207.527z"/>
			</g>
		</g>
		<g>
			<g>
				<path class="st9" d="M495.3545,284.3209c-4.4335,0.7048-8.3618,4.5414-8.0875,9.2073c0.339,5.7641,6.6487,9.5135,11.6893,6.2794
					c3.9881-2.5587,7.5629-7.0915,6.2798-12.1072c-1.4744-5.7637-8.2071-7.6883-12.603-3.878c-2.0649,1.7899-1.8344,5.3174,0,7.1518
					c2.048,2.048,5.0818,1.7943,7.1518,0c-1.2032,1.043-3.9819,1.3305-4.3519-0.84c-0.0584-0.3432,0.1065-0.5491,0.1058-0.8177
					c-0.3308,0.5074-0.3661,0.5969-0.106,0.2685c-0.2326,0.2651-0.4781,0.5177-0.7365,0.7578
					c-0.2343,0.2223-1.1512,1.0034-1.1408,0.9593c0.2711-1.1539,4.5818,0.2288,3.6567,2.4891
					c-0.2567,0.6273-0.9569,0.6529-0.1957,0.4796c-0.9861,0.2246,0.8474-0.1683,1.0266-0.1968
					c2.6995-0.4291,4.1981-3.7974,3.532-6.2208C500.7853,284.9779,498.062,283.8904,495.3545,284.3209L495.3545,284.3209z"/>
			</g>
		</g>
		<g>
			<g>
				<path class="st9" d="M434.7514,231.7048c-8.6194,5.6676-1.8047,20.8868,7.7489,20.5326
					c5.2731-0.1955,8.8648-4.9664,7.7702-10.094c-0.9621-4.5069-4.8747-8.2101-8.7977-10.3057
					c-5.7395-3.0659-10.8543,5.6621-5.1048,8.7333c1.2571,0.6715,2.4886,1.4542,3.3743,2.6009
					c0.0335,0.0434,0.6879,1.0294,0.6365,1.0542c0.4232-0.2045,0.3371-1.7128,1.2758-1.9927
					c0.0218-0.0065,1.1703-0.1292,0.9711,0.1212c-0.078,0.098-0.7909-0.9587-0.7452-0.8902
					c-0.3613-0.5421-0.6376-1.1583-0.9052-1.7491c-0.6156-1.3595,0.4365-0.3001-1.1192,0.7228
					c2.2796-1.4988,3.2446-4.4735,1.8142-6.919C440.3452,231.2534,437.0434,230.1977,434.7514,231.7048L434.7514,231.7048z"/>
			</g>
		</g>
		<g>
			<g>
				<path class="st9" d="M424.7684,273.7279c-4.8857-2.0007-11.2373,1.5059-12.5879,6.4691
					c-1.5688,5.7652,3.7965,10.9674,9.0877,11.9257c4.8284,0.8744,11.9035-0.7074,13.0887-6.2723
					c1.1462-5.3822-4.8617-9.9365-9.1339-11.879c-2.4845-1.1297-5.4419-0.711-6.919,1.8143
					c-1.2699,2.1711-0.684,5.7831,1.8142,6.919c1.1235,0.5109,4.2027,1.9088,4.4858,3.1457c0-0.8963,0-1.7925,0-2.6888
					c0.287-1.661,1.3099-0.6999-0.1783-0.8657c-0.6985-0.0778-1.3213-0.2562-1.9871-0.3668c0.174,0.0289-0.6188-0.3718-0.5139-0.4
					c0.1743-0.0469-0.4265,1.7768-0.4044,1.8982c0.1019,0.5619-0.3822-0.1078,0.371-0.1123
					c0.0804-0.0005-1.4261-0.4951,0.1882,0.1659c2.5286,1.0354,5.559-1.1231,6.2209-3.532
					C429.097,277.0496,427.3064,274.7672,424.7684,273.7279L424.7684,273.7279z"/>
			</g>
		</g>
	</g>
	<g>
		<path class="st2" d="M1458.9558,373.0825c9.9633-34.623,13.1584-73.1923-2.524-105.6281
			c-15.2722-31.5871-47.3263-55.3575-52.7477-90.0215c-1.485,9.3364-9.8142,16.0135-13.4288,24.7491
			c-2.9126,7.039-2.5845,14.9561-1.8909,22.5424c2.4867,27.2009,9.4211,54.7579,25.5695,76.7876
			c8.4172,11.4826,19.0748,21.1199,28.2368,32.0173c9.1621,10.8975,17.0347,23.6858,18.2119,37.8742"/>
	</g>
	<g>
		<path class="st3" d="M1339.1187,227.4677c4.608,13.641,7.7964,27.7177,11.9764,41.4959
			c7.9845,26.3178,19.9722,52.0621,39.3423,71.586c19.37,19.5239,46.9913,32.1262,74.2905,28.7899
			c-8.1577-15.885-16.3392-31.8106-26.2617-46.6574c-26.8862-40.2292-65.4261-70.9878-103.3289-101.0652"/>
	</g>
	<g>
		<g>
			<g>
				<path class="st8" d="M1324.0715,339.2021c-12.9224-10.6785-26.6057-20.3539-40.9812-28.9774
					c-5.1799-3.1073-10.416,4.6988-5.2225,7.8143c14.3755,8.6234,28.059,18.2989,40.9813,28.9774
					C1323.5164,350.8733,1328.692,343.0204,1324.0715,339.2021L1324.0715,339.2021z"/>
			</g>
		</g>
		<g>
			<g>
				<path class="st8" d="M1275.1813,232.9638c-2.6826,42.8853,22.2471,79.7704,45.8915,113.1751
					c3.7305,5.2704,12.5048,0.2237,8.7332-5.1048c-22.6033-31.9341-47.0789-67.0117-44.5105-108.0703
					C1285.702,226.4637,1275.5863,226.4881,1275.1813,232.9638L1275.1813,232.9638z"/>
			</g>
		</g>
		<g>
			<path class="st1" d="M1279.2217,227.7219c-5.2003-9.9357-13.8719-17.7102-23.4446-23.552
				c-4.6146-2.816-9.6415-5.2808-15.0358-5.6344c-5.3944-0.3536-11.2323,1.8094-13.9845,6.4624
				c-3.5211,5.9533-0.8346,14.0361,4.314,18.655c5.1484,4.6189,12.114,6.5487,18.859,8.0803
				c10.2841,2.3354,21.0935,4.0698,31.2919,1.3841"/>
		</g>
		<g>
			<path class="st1" d="M1282.4172,232.1273c8.2789-14.6214,11.7911-31.8925,9.8805-48.5862
				c-0.8899-7.7736-3.1404-15.7998-8.6812-21.3242c-5.5408-5.5245-15.0833-7.5832-21.3177-2.8554
				c-3.4211,2.5945-5.3601,6.7746-6.0895,11.006c-1.3728,7.9641,1.1083,16.0626,4.0293,23.5977
				c4.8721,12.5685,11.0614,24.6259,18.4336,35.9111"/>
		</g>
		<g>
			<path class="st1" d="M1285.9445,267.6523c0.0352-14.8643,5.6927-29.6481,15.5901-40.7383
				c3.1072-3.4816,6.6892-6.657,10.9635-8.5295c4.2744-1.8724,9.3285-2.3184,13.5913-0.4199
				c7.7653,3.4584,10.5369,13.7928,7.9271,21.8829c-2.6096,8.09-9.2125,14.2257-16.0747,19.2426
				c-8.322,6.0841-17.4196,11.1061-27.0024,14.906"/>
		</g>
		<g>
			<path class="st1" d="M1297.6825,294.8082c8.3665-12.9639,20.803-23.2589,35.1016-29.0568
				c2.0834-0.8448,4.275-1.6079,6.5205-1.4932c3.9845,0.2035,7.2628,3.0651,10.1927,5.7731
				c1.6523,1.5271,3.3513,3.1192,4.2314,5.1898c1.2279,2.8888,0.6279,6.315-0.9403,9.0341
				c-1.5681,2.7191-3.9979,4.8332-6.5303,6.6881c-12.5964,9.2271-28.9801,13.1101-44.3779,10.5175"/>
		</g>
		<g>
			<path class="st1" d="M1281.0181,309.7714c-1.6185-9.5184-5.7045-18.8568-12.8103-25.3935
				c-7.1057-6.5367-17.4794-9.8716-26.7617-7.215c-1.421,0.4067-2.8528,0.976-3.8766,2.0421
				c-1.2969,1.3505-1.7477,3.2827-2.1042,5.1208c-0.5349,2.757-0.9753,5.5976-0.4785,8.3617
				c0.7577,4.2165,3.6519,7.8065,7.1234,10.3167s7.5143,4.0875,11.5077,5.6382c5.3488,2.0771,10.6976,4.1543,16.0464,6.2314
				c3.2985,1.2809,6.8566,2.5827,10.2942,1.7438"/>
		</g>
		<g>
			<g>
				<path class="st9" d="M1273.7913,181.0377c-0.255,0.0398-0.1354-0.1895-0.1311,0.0784c0.0052,0.3275,0.4073,1.1835,0.4674,1.5788
					c0.0935,0.6148-0.2288,2.505,0.111,2.9623c0.1135,0.1527,1.9321-1.8563,2.0266-1.2883
					c-0.0477-0.287-0.7103-0.9045-0.8149-1.3433c-0.2021,0.5168-0.1302,0.3975,0.2157-0.3578
					c0.276-0.6199,0.533-1.2475,0.7708-1.8829c0.6841-2.5452-0.0155-5.0019-1.8007-6.8943
					c-4.4757-4.7447-11.6183,2.4168-7.1519,7.1518c0.1201,0.1272,0.2402,0.2545,0.3602,0.3818
					c-0.4335-0.7438-0.8671-1.4877-1.3005-2.2315c-0.1301-0.3384,0.3901-1.0319,0.0651-0.9783
					c-0.2024,0.0335-0.757,1.7099-0.8082,1.8705c-0.3832,1.2026-0.4966,2.5029-0.4025,3.7549
					c0.2003,2.6632,1.4231,5.2072,3.219,7.1678c3.6487,3.983,10.0444,4.7125,13.7615,0.431
					c2.8433-3.2751,2.4019-9.4282,0.986-13.2713c-1.9656-5.3355-6.7843-7.7379-12.2621-6.8823
					c-2.7008,0.4218-4.1967,3.8024-3.5321,6.2207C1268.3622,180.3864,1271.0825,181.4607,1273.7913,181.0377L1273.7913,181.0377z"/>
			</g>
		</g>
		<g>
			<g>
				<path class="st9" d="M1245.922,218.7743c1.3739-0.5306,2.5284-0.7628,3.9485-0.3664c0.6768,0.1889,1.3018,0.4592,1.8696,0.888
					c0.1208,0.0911,0.9294,1.0178,1.0182,1.0527c0.7545,0.2973,3.1533-1.7298,2.299-2.525c-0.3508-0.3264-1.5-0.5063-1.9929-0.7878
					c-1.271-0.7262-1.6777-1.2244-1.8701-2.6091c-0.3762-2.7078-3.8344-4.1879-6.2208-3.5321
					c-2.916,0.8013-3.9094,3.5045-3.5321,6.2207c1.2058,8.6804,18.6302,16.7758,21.3677,5.1459
					c1.1354-4.8244-2.3553-9.4696-6.2523-11.8766c-3.8906-2.4031-9.0419-3.0166-13.3235-1.3632
					c-2.5463,0.9833-4.3074,3.3992-3.532,6.2208C1240.37,217.6758,1243.3602,219.7635,1245.922,218.7743L1245.922,218.7743z"/>
			</g>
		</g>
		<g>
			<g>
				<path class="st9" d="M1254.0104,295.5682c0.1793,0.0285,2.0127,0.4214,1.0266,0.1968c0.8016,0.1826,0.1371,0.1767-0.132-0.2893
					c-1.3656-2.3663,3.3357-3.7741,3.593-2.6792c0.0104,0.0441-0.9065-0.7369-1.1407-0.9593
					c-0.2584-0.2401-0.5039-0.4927-0.7366-0.7578c0.2034,0.2615,0.212,0.2479,0.0261-0.041
					c-0.1741-0.2993-0.1763-0.3033-0.0062-0.0121c0.0505,0.2025,0.0438,0.4032-0.0201,0.6023c-0.345,2.185-3.1705,1.864-4.3518,0.84
					c2.0626,1.7879,5.1237,2.028,7.1517,0c1.8275-1.8276,2.0726-5.3552,0-7.1518c-4.2617-3.6941-10.9884-2.0197-12.5527,3.623
					c-1.4005,5.0521,2.1246,9.8102,6.2295,12.3622c4.8496,3.0147,10.8041-0.0922,11.599-5.6073
					c0.709-4.9176-3.2938-9.1317-7.9971-9.8794c-2.6941-0.4283-5.4407,0.6927-6.2208,3.5321
					C1249.8173,291.7534,1251.2972,295.1369,1254.0104,295.5682L1254.0104,295.5682z"/>
			</g>
		</g>
		<g>
			<g>
				<path class="st9" d="M1312.1975,241.9325c-1.5558-1.0229-0.5037-2.0823-1.1191-0.7228
					c-0.2672,0.5901-0.5426,1.2089-0.9052,1.7491c0.0221-0.0329-0.6324,1.0343-0.7452,0.8903
					c-0.1984-0.2534,0.9495-0.1276,0.9712-0.1211c0.9614,0.2866,0.829,1.7617,1.2758,1.9927
					c-0.067-0.0346,0.5604-0.9565,0.6365-1.0542c0.8912-1.1458,2.1141-1.9277,3.3743-2.6009
					c5.7434-3.0679,0.6404-11.8021-5.1047-8.7333c-3.8195,2.0402-7.6923,5.6401-8.7284,10.0026
					c-1.2356,5.203,2.251,10.2109,7.7008,10.397c9.5443,0.3259,16.3848-14.8543,7.7489-20.5326
					c-2.2828-1.501-5.5918-0.4548-6.9189,1.8142C1308.9401,237.4808,1309.9092,240.4279,1312.1975,241.9325L1312.1975,241.9325z"/>
			</g>
		</g>
		<g>
			<g>
				<path class="st9" d="M1329.974,284.9752c0.5725-0.2344,0.8611-0.2362,0.1105-0.1962c0.1195-0.0064,0.6938,0.3401,0.6947,0.3904
					c-0.1639-0.1651-0.3279-0.3304-0.4918-0.4955c-0.0316-0.5809-0.0632-1.1618-0.0947-1.7427
					c0.0306,0.0062-0.5518,0.4884-0.5776,0.4924c-0.5485,0.0849-1.0134,0.3826-1.6232,0.3699
					c0.1982,0.0042-1.0306-0.0657-0.8093-0.1154c-0.9589,0.2154-0.2092-1.779,0.2671,0.9779c0,0.8963,0,1.7925,0,2.6888
					c0.2842-1.2418,3.3545-2.6313,4.4857-3.1457c2.4865-1.1305,3.0925-4.7336,1.8143-6.919
					c-1.4948-2.5556-4.4233-2.9491-6.9191-1.8142c-4.2192,1.9185-9.6294,6.0519-9.2242,11.2068
					c0.4734,6.0209,8.2845,7.8744,13.1791,6.9445c5.192-0.9864,10.4135-5.8686,9.1635-11.571
					c-1.1318-5.163-7.6688-8.8691-12.6636-6.8237c-2.5258,1.0342-4.3179,3.3614-3.5321,6.2208
					C1324.4104,283.8344,1327.4312,286.0165,1329.974,284.9752L1329.974,284.9752z"/>
			</g>
		</g>
	</g>
	<g>
		<path class="st3" d="M553.1442,222.3519c-7.8923,18.272-13.9777,37.416-16.7605,57.124
			c-1.8444,13.0614-2.2297,26.2793-2.6125,39.4647c-0.3287,11.3239-0.6565,22.6806,0.379,33.9619
			c2.2317,24.3128,10.7686,47.7101,22.0701,69.352s25.3542,41.7076,39.3641,61.7031c1.385-1.0814,1.3953-3.1437,1.1951-4.8894
			c-2.343-20.4238-15.7265-37.6521-23.4354-56.7097c-7.5195-18.5891-9.592-39.3443-5.8966-59.0533
			c2.7436-14.6327,8.5346-28.4853,13.1381-42.6433s8.0613-29.1319,5.9171-43.8643c-3.0791-21.1551-17.3853-39.1529-33.9867-52.6219"
			/>
	</g>
	<g>
		<path class="st10" d="M568.0509,424.177c-4.161-26.7675-4.8471-54.073-2.0356-81.0156
			c0.7068-6.7733,1.6674-13.6439,4.5315-19.8224c2.0936-4.5165,5.1364-8.5135,7.7874-12.7271
			c3.2486-5.1632,5.932-10.7037,7.6932-16.5442c4.2216-13.9991,2.9934-28.9576,3.1202-43.5789
			c0.1269-14.6213,2.0089-30.147,11.1437-41.5642c-0.4509,9.867-0.8943,19.8443,0.9828,29.5416
			c1.6251,8.3949,4.9458,16.3495,7.5393,24.4975c8.1074,25.4708,9.0148,53.191,2.5906,79.1375
			c-1.4891,6.0142-3.3671,11.945-5.8883,17.6047c-2.4178,5.4278-5.4124,10.576-8.4007,15.7119
			c-3.9341,6.7614-7.8683,13.5229-11.8024,20.2843c-5.5952,9.6163-11.1996,19.2469-17.6141,28.3371"/>
	</g>
	<g>
		<g>
			<g>
				<path class="st7" d="M1066.765,377.5426c-10.8385-5.5612-20.6626-13.0922-28.8481-22.1144
					c-6.5414-7.2101-12.011-15.3214-17.157-23.5855c-5.7578-9.2464-11.1924-18.8422-14.1982-29.3119
					c-3.0058-10.4696-3.4232-21.987,0.7294-32.0569c0.5745-1.393,1.3694-2.8798,2.7921-3.376
					c1.1416-0.3982,2.3947-0.0488,3.5471,0.3172c7.2028,2.2874,14.2049,5.2061,20.9,8.7115
					c-9.9731-9.3401-14.1049-24.4531-10.2706-37.5681c0.4994-1.7082,1.1423-3.4172,2.2806-4.7853
					c1.2528-1.5056,3.026-2.4966,4.8621-3.1787c9.3953-3.4903,21.1003,1.5807,24.98,10.8221
					c0.2617-6.9071,2.6313-13.7203,6.7124-19.2989c3.5259-4.8199,8.6639-8.8582,14.6097-9.4161
					c8.0826-0.7583,15.72,5.3818,18.5604,12.9869c2.8406,7.605,1.6509,16.2008-1.2042,23.8004
					c-2.8552,7.5996-7.2693,14.4949-11.0625,21.6724c7.2448-3.703,14.6432-7.1053,22.1699-10.1949
					c2.7943-1.1471,6.1989-2.1912,8.6431-0.4165c1.4828,1.0766,2.1669,2.9246,2.6514,4.6918
					c2.6501,9.6631,1.6737,19.9063,0.5649,29.8646c-0.9941,8.9302-2.0867,17.8908-4.4888,26.5492
					c-6.6637,24.02-23.7806,44.9419-46.0049,56.2313"/>
			</g>
			<g>
				<path class="st4" d="M1058.6909,277.3065c3.3998,9.1296,6.4622,18.373,8.9899,27.7869
					c2.5232,9.4103,4.6587,18.9538,6.1992,28.6375c1.5406,9.6802,2.3025,19.5224,2.0498,29.3548
					c-0.0979,2.456-0.2181,4.9124-0.39,7.3637c-0.2479,2.4469-0.5421,4.889-0.8824,7.3216
					c-0.4192,2.4253-0.8943,4.8402-1.4265,7.2385c-0.6417,2.3836-1.2742,4.7613-2.0999,7.0927
					c-0.2742,0.7746-1.1246,1.1803-1.8993,0.906c-0.5881-0.2083-0.9635-0.7487-0.9901-1.3359l-0.0021-0.0562
					c-0.1083-2.4522-0.0234-4.8582,0.0522-7.2582c0.0166-2.4076,0.0898-4.7987,0.2192-7.1794
					c0.0398-2.3896,0.1261-4.7697,0.2587-7.1449c0.0413-2.3812,0.1344-4.7572,0.2495-7.1336
					c0.2673-9.5103,0.22-19.0454-0.3424-28.5999c-0.5634-9.5511-1.8256-19.1007-3.9628-28.4703
					c-2.1328-9.366-4.9932-18.5899-8.7473-27.4389c-0.3163-0.7456,0.0317-1.6064,0.7772-1.9227
					c0.7456-0.3163,1.6063,0.0317,1.9226,0.7773C1058.6743,277.2636,1058.6838,277.2878,1058.6909,277.3065z"/>
			</g>
		</g>
	</g>
	<g>
		<g>
			<path class="st1" d="M646.3438,330.8449c9.5851-4.1871,19.2245-8.4034,27.9531-14.1669
				c8.7286-5.7635,16.5852-13.2111,21.3412-22.527c2.9279-5.7349,4.6238-12.0949,4.9404-18.5262
				c0.0538-1.094,0.0549-2.2476-0.4715-3.2081c-1.4059-2.5654-5.1857-2.0474-7.9763-1.1693
				c-4.8712,1.5329-9.7424,3.0657-14.6136,4.5986c6.064-4.3145,12.6544-9.4674,13.617-16.847
				c0.743-5.6952-2.1942-11.2861-5.9941-15.5929c-0.6538-0.7411-1.4914-1.5191-2.4733-1.4078
				c-0.7089,0.0804-1.2734,0.6104-1.7705,1.1221c-5.8837,6.0562-10.2697,13.5567-12.6627,21.6542
				c3.377-8.3656-1.1867-19.0519-9.5651-22.3971c-3.6717-1.466-8.3007-1.4451-11.1308,1.3156
				c-1.5087,1.4717-2.3134,3.5195-2.8357,5.5614c-1.3852,5.4145-1.0403,11.2577,0.9723,16.4716
				c-3.8317-5.1107-7.6633-10.2216-11.4949-15.3324c-0.3516-0.469-0.7524-0.9707-1.3254-1.0943
				c-0.5544-0.1196-1.1122,0.1506-1.6047,0.4319c-8.5557,4.886-12.8066,15.3018-12.7043,25.1539
				c0.1022,9.8521,3.8729,19.2812,8.1395,28.1622c4.649,9.677,10.0377,19.1448,17.4594,26.9021"/>
		</g>
		<g>
			<path class="st4" d="M658.6663,271.8927c-2.6341,5.7603-4.6863,11.7839-6.262,17.9142
				c-1.5784,6.1327-2.5839,12.3999-3.1289,18.6809c-0.5449,6.2832-0.7498,12.5629-0.747,18.8322
				c0.0325,1.5674,0.0505,3.1342,0.0343,4.7033c0.044,1.5669,0.0574,3.1363,0.0402,4.711c0.0418,1.5705,0.0464,3.1468,0.0134,4.733
				c0.0062,1.5823,0.0182,3.1686-0.0978,4.7819l-0.0026,0.0363c-0.0388,0.5401-0.5081,0.9465-1.0482,0.9076
				c-0.4102-0.0294-0.7431-0.3079-0.8626-0.6764c-0.5014-1.5508-0.8746-3.1284-1.254-4.7102
				c-0.3066-1.5894-0.5757-3.1888-0.8075-4.7939c-0.1799-1.6085-0.3292-3.2225-0.4478-4.8387
				c-0.0684-1.6178-0.103-3.238-0.1227-4.8575c0.0128-6.4811,0.6939-12.9502,1.8854-19.2982
				c1.1912-6.3505,2.7719-12.5977,4.6054-18.7502c1.8365-6.1547,4.0222-12.1874,6.4279-18.139
				c0.1998-0.4948,0.7629-0.7339,1.2578-0.5341c0.4948,0.1998,0.734,0.763,0.5341,1.2578
				C658.6786,271.865,658.6718,271.8807,658.6663,271.8927z"/>
		</g>
	</g>
	<g>
		<g>
			<path class="st5" d="M966.7306,233.6704c-4.0712-5.5366-12.4229-6.5052-18.704-3.7163s-10.7916,8.4775-14.2916,14.3918
				c-1.8636,3.1494-3.5545,6.5609-3.6782,10.2182c-0.259,7.6577,6.9366,14.1794,14.5576,14.9732
				c7.6208,0.7938,15.1159-3.0345,20.6412-8.3429c3.3054-3.1755,6.1163-6.9729,7.5628-11.3222s1.4246-9.2916-0.6513-13.3781"/>
		</g>
		<g>
			<path class="st5" d="M973.9896,284.6394c-3.2826-2.2396-6.8102-4.2105-10.6566-5.2089s-8.0566-0.9612-11.6688,0.695
				c-3.0941,1.4186-5.5591,3.9106-7.7651,6.5027c-2.4936,2.93-4.8193,6.2069-5.4863,9.996
				c-1.0421,5.9207,2.4923,12.1428,7.8088,14.9491c5.3164,2.8063,11.9938,2.4113,17.3515-0.3157
				c5.3576-2.7269,9.4507-7.5659,12.0458-12.9886c1.6772-3.5044,2.7883-7.4946,1.8742-11.2707"/>
		</g>
		<g>
			<path class="st5" d="M906.4351,219.0609c-4.5501-2.4802-10.1807-3.0705-15.0151-1.204
				c-4.8344,1.8666-8.6972,6.2804-9.5256,11.3959c-0.3835,2.368-0.1416,4.7998,0.3567,7.1463
				c2.0063,9.4462,8.903,18.2181,18.2889,20.4897c2.5223,0.6104,5.1999,0.745,7.7022,0.0569
				c1.8866-0.5188,3.6282-1.4917,5.1755-2.6893c5.6152-4.3464,8.5736-11.8801,7.4161-18.8859
				c-1.1574-7.0058-6.3818-13.1877-13.0966-15.497"/>
		</g>
		<g>
			<path class="st5" d="M907.5311,275.0764c-4.6619-3.8205-10.5763-6.229-16.6035-6.201
				c-6.0272,0.028-12.1046,2.6294-15.8884,7.3209c-3.7841,4.6915-5.007,11.4674-2.632,17.007
				c1.2008,2.801,3.22,5.1907,5.5162,7.1942c5.7207,4.9917,13.8212,7.7432,21.0984,5.5785
				c5.9437-1.7681,10.7408-6.7331,12.6782-12.6238c1.9373-5.8907,1.0998-12.5529-1.8876-17.987"/>
		</g>
		<g>
			<g>
				<path class="st6" d="M920.1678,266.6825c-1.2238,17.7266,0.9736,35.3458,2.2015,53.0056
					c1.1894,17.1054,0.2656,33.9171-1.4573,50.9542c-3.4266,33.884-8.5266,67.738-19.4339,100.1111
					c-1.81,5.3721,6.6757,7.6772,8.4752,2.3365c10.9828-32.5971,16.0849-66.7262,19.5842-100.8397
					c1.8022-17.5704,2.8481-34.9118,1.6208-52.5621c-1.2278-17.6598-3.4253-35.279-2.2016-53.0056
					C929.3467,261.0372,920.5558,261.0614,920.1678,266.6825L920.1678,266.6825z"/>
			</g>
		</g>
	</g>
	<g>
		<path class="st4" d="M712.5786,222.4886c-0.1824,6.8513-0.3647,13.7026-0.5471,20.5539
			c-0.3203,12.032-0.6373,24.1281,1.0016,36.0523c3.2167,23.4035,13.915,45.8878,12.7006,69.4801
			c-0.3182,6.1827-1.46,12.337-1.1739,18.5213c0.6115,13.223,8.0242,25.7325,18.7299,33.5175
			c10.7057,7.7851,24.4089,10.9904,37.5991,9.8764c-9.4253-6.7045-19.1658-13.7558-24.7241-23.8994
			c-7.0045-12.7828-6.2106-28.2018-6.124-42.7777c0.0562-9.4635-0.2651-18.9293-0.9631-28.3672
			c-0.3727-5.0403-0.8611-10.1155-2.3533-14.9442c-1.6786-5.432-4.5754-10.3903-7.3137-15.3729
			c-10.8829-19.803-19.6028-40.7938-25.955-62.479"/>
	</g>
	<g>
		<path class="st3" d="M713.4868,222.3965c12.5701,11.27,29.3051,23.5348,39.9552,36.6342
			c3.1607,3.8876,6.1681,7.9712,8.1374,12.5783c6.7803,15.8622,0.12,34.1188,1.8619,51.2812
			c1.4005,13.7993,8.2262,26.5553,10.066,40.3029c1.0712,8.0046,0.4225,16.135,0.8901,24.1974
			c0.4675,8.0625,2.2228,16.4183,7.3465,22.6607c-5.9394-1.1181-14.6947-4.5072-18.4998-9.2027
			c-13.7545-16.973-18.9709-31.3145-23.1727-52.7531c-4.0947-20.8922-3.3367-50.1772-12.7758-69.2601
			c-2.3562-4.7634-5.3978-9.1922-7.3564-14.1324c-2.2684-5.7213-3.0027-11.9158-3.7169-18.0288
			C715.2734,238.5528,712.3184,230.4892,713.4868,222.3965"/>
	</g>
	<g>
		<g>
			<path class="st1" d="M1593.3623,334.0577c-3.6005-15.4598-7.2297-31.0088-13.4192-45.6259
				c-6.1896-14.6172-15.1331-28.3982-27.7209-38.0686c-7.7491-5.9531-16.7714-10.2407-26.281-12.4894
				c-1.6176-0.3825-3.3386-0.7029-4.9175-0.1826c-4.2164,1.3895-4.4875,7.1728-3.948,11.5795
				c0.942,7.6925,1.8839,15.3849,2.8257,23.0773c-4.7633-10.2405-10.6322-21.4982-21.3785-24.9732
				c-8.2935-2.6818-17.4475,0.1569-24.924,4.6377c-1.2864,0.771-2.6788,1.8059-2.7839,3.3019
				c-0.0759,1.08,0.5592,2.0687,1.1854,2.9519c7.4122,10.4526,17.3933,19.0695,28.8157,24.8771
				c-11.5507-7.3501-28.7578-3.4916-36.064,8.087c-3.2018,5.0741-4.4491,11.9875-1.1112,16.9731
				c1.7794,2.6579,4.613,4.4243,7.5156,5.7678c7.6971,3.5626,16.512,4.6619,24.8481,3.0988
				c-8.6847,4.306-17.3696,8.6121-26.0546,12.9182c-0.7969,0.3951-1.6562,0.8546-1.999,1.6755
				c-0.3317,0.7942-0.0824,1.7013,0.2012,2.5139c4.928,14.1168,19.2966,23.3371,34.0265,25.9059
				c14.73,2.5687,29.8422-0.4536,44.2731-4.3673c15.7244-4.2645,31.3413-9.6906,44.967-18.6228"/>
		</g>
		<g>
			<path class="st4" d="M1508.7952,299.3862c7.8683,5.5219,16.2899,10.2482,25.0027,14.2926
				c8.7155,4.0494,17.79,7.2809,27.0121,9.8293c9.2255,2.5483,18.5399,4.5888,27.8959,6.3163
				c2.348,0.3844,4.6908,0.7902,7.0281,1.2478c2.3502,0.3672,4.6958,0.7807,7.041,1.2414c2.3551,0.3713,4.7086,0.7999,7.0663,1.2872
				c2.363,0.428,4.7335,0.8481,7.1085,1.4668l0.0536,0.0139c0.7952,0.2071,1.2721,1.0196,1.0652,1.8149
				c-0.1577,0.6038-0.6649,1.0239-1.2477,1.1005c-2.4526,0.3198-4.9103,0.441-7.3754,0.5701
				c-2.4563,0.0187-4.9172-0.0217-7.3765-0.1191c-2.4502-0.1758-4.8995-0.3988-7.3442-0.6682
				c-2.4331-0.3445-4.8605-0.7406-7.2823-1.1587c-9.6678-1.8093-19.1333-4.6124-28.2771-8.1438
				c-9.1475-3.5316-18.0332-7.6159-26.7078-12.0514c-8.6769-4.4405-17.0756-9.3683-25.2922-14.6022
				c-0.6831-0.4349-0.8845-1.3413-0.4496-2.0246s1.3414-0.8845,2.0245-0.4496
				C1508.7572,299.3603,1508.7788,299.3748,1508.7952,299.3862z"/>
		</g>
	</g>
	<g>
		<g>
			<path class="st5" d="M1527.1746,133.4287c-6.7932-1.0399-13.3865,4.1772-15.8593,10.5894
				c-2.4727,6.4121-1.6437,13.6244,0.0599,20.2822c0.9072,3.5452,2.1219,7.1538,4.6193,9.8288
				c5.2286,5.6008,14.9286,5.1293,20.8813,0.3051c5.9525-4.8243,8.5496-12.8297,8.7072-20.4902
				c0.0942-4.5825-0.6006-9.2558-2.6511-13.3551s-5.5588-7.5804-9.9154-9.0046"/>
		</g>
		<g>
			<path class="st5" d="M1568.3314,164.3585c-3.9052,0.7355-7.7938,1.834-11.2206,3.846c-3.4269,2.012-6.3793,5.0138-7.7644,8.7384
				c-1.1865,3.1903-1.1693,6.6954-0.8981,10.0884c0.3065,3.8351,0.9769,7.7973,3.183,10.9493
				c3.447,4.9253,10.3448,6.8294,16.0895,5.0576c5.7446-1.7719,10.1896-6.7704,12.0529-12.486
				c1.8633-5.7157,1.3392-12.0319-0.6571-17.7024c-1.2902-3.6646-3.324-7.2729-6.6393-9.2984"/>
		</g>
		<g>
			<path class="st5" d="M1637.7004,234.7063c-4.9868-1.1864-10.3893,1.0871-13.7856,4.9265s-4.9882,9.0076-5.3783,14.1188
				c-0.39,5.1112,0.3262,10.2349,1.0406,15.3109c0.4357,3.0942,1.1913,6.6574,3.9822,8.0626
				c1.054,0.5307,2.2611,0.6599,3.4401,0.7093c5.802,0.2426,11.6664-1.2902,16.6078-4.3407c1.7129-1.0575,3.3412-2.3176,4.5054-3.96
				c2.1494-3.0324,2.47-6.9664,2.5059-10.6831c0.0377-3.9077-0.1584-7.8177-0.5869-11.7019
				c-0.3215-2.9156-0.799-5.8914-2.2432-8.4444c-1.4441-2.553-4.0469-4.6309-6.9795-4.6912"/>
		</g>
		<g>
			<path class="st5" d="M1474.1914,165.7051c-4.972,1.461-9.3728,5.0226-11.4739,9.7598
				c-2.1012,4.7371-1.7146,10.5897,1.3146,14.7944c1.4021,1.9463,3.2919,3.4959,5.3027,4.8038
				c8.0953,5.2652,19.1741,6.5972,27.4198,1.571c2.2159-1.3508,4.2054-3.1478,5.4895-5.4031
				c0.968-1.7003,1.5127-3.6195,1.761-5.5603c0.901-7.0434-2.3303-14.4642-8.1005-18.6028
				c-5.77-4.1386-13.8351-4.8199-20.2178-1.7082"/>
		</g>
		<g>
			<path class="st5" d="M1514.5544,204.5609c-5.9983,0.5917-11.8848,3.0676-16.1293,7.347
				c-4.2445,4.2793-6.7056,10.4148-6.067,16.4082c0.6385,5.9934,4.562,11.6516,10.1572,13.8924
				c2.829,1.133,5.9464,1.3967,8.9869,1.1914c7.5752-0.5114,15.2507-4.2896,18.8694-10.9641
				c2.9556-5.4515,2.8405-12.3543,0.0481-17.8911c-2.7926-5.5368-8.0934-9.6584-14.0474-11.3916"/>
		</g>
		<g>
			<path class="st5" d="M1587.14,273.3668c-5.3668,0.6331-10.8339,1.2936-15.7504,3.5366
				c-4.9165,2.2431-9.2832,6.3672-10.4152,11.6513c-0.4587,2.1419-0.3716,4.3618-0.1766,6.5436
				c0.2025,2.2668,0.5299,4.5617,1.4764,6.6314c2.9177,6.3798,10.7125,8.8376,17.7067,9.3824
				c7.3053,0.5688,15.3938-0.5011,20.4365-5.8172c4.478-4.7207,5.5182-12.1589,3.1689-18.2267
				c-2.3494-6.0679-7.7357-10.7019-13.8717-12.8669"/>
		</g>
		<g>
			<path class="st5" d="M1558.9672,244.1888c-7.5494-3.1534-16.6095-3.3309-23.6538,0.83
				c-7.0444,4.1609-11.3701,13.0801-9.0125,20.9147c0.4824,1.6033,1.2264,3.1433,2.3069,4.4225
				c1.6763,1.9845,4.0543,3.232,6.4398,4.2603c7.3287,3.1591,16.1373,4.5881,23.0753,0.644
				c5.0706-2.8825,8.4412-8.5422,8.5603-14.3737c0.1191-5.8314-3.0175-11.624-7.9661-14.7113"/>
		</g>
		<g>
			<path class="st5" d="M1601.1587,198.1437c-6.3687,0.8472-12.3376,4.372-16.1549,9.5398
				c-1.1447,1.5497-2.116,3.2748-2.4822,5.1663c-0.269,1.3901-0.203,2.8204-0.1348,4.2347
				c0.2554,5.2952,0.6694,10.9795,4.0005,15.1035c2.5203,3.1201,6.4111,4.8805,10.3505,5.6339
				c2.2538,0.431,4.637,0.5578,6.7982-0.2129c2.4462-0.8722,4.353-2.7905,6.1139-4.6993c2.8605-3.1013,5.6587-6.4932,6.6896-10.5844
				c0.7626-3.0275,0.4957-6.2077,0.1995-9.3158c-0.353-3.7026-0.7803-7.5279-2.6431-10.7471
				c-1.863-3.2192-5.5653-5.6789-9.2069-4.9218"/>
		</g>
		<g>
			<g>
				<path class="st6" d="M1517.5642,189.6932c17.1915,19.7885,39.4799,34.2011,57.255,53.4114
					c18.3964,19.8815,35.2582,41.8553,50.392,64.302c8.6311,12.8018,16.5272,26.0807,23.38,39.9206
					c2.5099,5.069,10.0933,0.6213,7.5892-4.4361c-12.1858-24.6104-27.736-47.2755-44.5203-68.9493
					c-8.3766-10.8165-16.9338-21.5515-25.947-31.8468c-8.8307-10.0869-18.6151-19.0649-28.8171-27.7368
					c-11.5144-9.7874-23.1774-19.4388-33.1169-30.8799C1520.0629,179.2007,1513.8685,185.4392,1517.5642,189.6932
					L1517.5642,189.6932z"/>
			</g>
		</g>
	</g>
	<g>
		<g>
			<path class="st7" d="M1723.2252,332.2473c-11.9502-2.3659-23.4666-6.9046-33.8177-13.3276
				c-8.2722-5.133-15.7616-11.4272-22.9821-17.9573c-8.0786-7.3064-15.9429-15.0374-21.7122-24.2766
				c-5.7693-9.2392-9.3381-20.1976-8.1151-31.0213c0.1692-1.4972,0.5245-3.1454,1.756-4.0138
				c0.988-0.6967,2.2889-0.7054,3.4974-0.6705c7.5541,0.2183,15.089,1.0986,22.49,2.6275
				c-12.1573-6.2371-20.2863-19.6309-20.2068-33.2946c0.0103-1.7797,0.1584-3.5996,0.8766-5.228
				c0.7904-1.7921,2.2227-3.2325,3.8003-4.3933c8.0731-5.9397,20.7214-4.2834,26.9932,3.5347
				c-1.6482-6.7127-1.2435-13.9148,1.1459-20.4008c2.0643-5.6037,5.8936-10.8994,11.4565-13.071
				c7.5626-2.952,16.594,0.8508,21.4165,7.3815c4.8226,6.5306,6.0428,15.122,5.3878,23.2139
				c-0.6549,8.0917-3.0023,15.9351-4.6753,23.8791c5.9469-5.5526,12.1243-10.8584,18.511-15.899
				c2.3712-1.8713,5.3572-3.8116,8.1953-2.7776c1.7217,0.6273,2.8876,2.2159,3.8396,3.7816
				c5.2054,8.5617,7.0837,18.6784,8.7566,28.5576c1.5001,8.8592,2.9141,17.7748,2.986,26.7598
				c0.1993,24.9264-10.5035,49.7491-28.7659,66.7154"/>
		</g>
		<g>
			<path class="st4" d="M1687.8949,238.0972c5.7795,7.8425,11.266,15.8873,16.2853,24.2429
				c5.0139,8.3535,9.6919,16.9416,13.8361,25.8283c4.1437,8.8831,7.583,18.1364,10.0439,27.659
				c0.5815,2.3882,1.1415,4.783,1.6505,7.187c0.4347,2.4207,0.8234,4.8495,1.165,7.2819c0.2643,2.447,0.4712,4.8995,0.6193,7.3517
				c0.0387,2.4681,0.0847,4.9282-0.068,7.3968c-0.0505,0.8202-0.7566,1.444-1.577,1.3933
				c-0.6226-0.0385-1.1323-0.4548-1.3193-1.0121l-0.0175-0.0535c-0.7786-2.3279-1.3584-4.6644-1.9458-6.9928
				c-0.6462-2.3193-1.2335-4.6383-1.7637-6.9628c-0.6189-2.3085-1.1908-4.6204-1.7168-6.9405
				c-0.6151-2.3007-1.1788-4.6107-1.7218-6.9272c-2.3584-9.2172-5.0264-18.3715-8.1948-27.4028
				c-3.1686-9.028-7.0083-17.8621-11.6398-26.2827c-4.6265-8.4182-9.9133-16.4997-15.9568-23.9751
				c-0.5089-0.6298-0.411-1.5531,0.2186-2.0623c0.63-0.5092,1.5533-0.4113,2.0623,0.2185
				C1687.8674,238.0604,1687.8832,238.0811,1687.8949,238.0972z"/>
		</g>
	</g>
	<g>
		<path class="st3" d="M1706.3243,139.0788c11.626,11.5715,22.6245,23.7324,32.6589,36.7205
			c9.9906,13.0038,19.3647,26.5789,27.563,40.9612c8.2081,14.3629,15.0293,29.6348,19.7869,45.5702
			c0.5613,2.0005,1.1154,4.0035,1.6376,6.0149c0.5435,2.0057,1.0474,4.0216,1.5393,6.039
			c0.8192,4.0774,1.5471,8.1724,2.1818,12.2736c0.4688,4.1361,0.8242,8.2826,1.0623,12.425
			c0.0465,4.1725,0.0095,8.3393-0.3413,12.504c-0.1365,1.6137-1.5547,2.8115-3.1686,2.6754
			c-1.168-0.0985-2.1183-0.8692-2.5024-1.8995l-0.0497-0.1356c-1.4369-3.8756-2.5593-7.7491-3.5979-11.6169
			c-1.2086-3.841-2.2999-7.6777-3.2784-11.5248c-1.166-3.8097-2.2386-7.6256-3.2205-11.4591
			c-0.5819-1.8945-1.1519-3.7905-1.6827-5.6967c-0.5516-1.9004-1.0709-3.8095-1.5845-5.7207
			c-4.5187-15.1668-9.6919-30.1833-15.976-44.8607c-6.2935-14.6576-13.9106-28.8773-23.196-41.9858
			c-9.2397-13.1232-19.8047-25.3914-31.7825-36.0983c-1.1855-1.0597-1.2875-2.8798-0.2278-4.0653
			c1.0594-1.1855,2.8795-1.2875,4.0649-0.2278C1706.2472,139.0041,1706.2903,139.0451,1706.3243,139.0788z"/>
	</g>
</g>
<g id="Layer_2">
	<g id="flower4">
		<g>
			<path class="st0" d="M1675.3099,99.3473c-5.4-5.6972-16.3813-4.0327-19.8506,3.009c-0.5598,1.1364-0.9589,2.3845-1.8063,3.3262
				c-0.9598,1.0666-2.3615,1.5956-3.5892,2.3382c-5.5302,3.345-6.8823,11.9422-2.646,16.8233
				c1.8615,2.1448,4.7325,4.0044,4.6483,6.843c-0.0623,2.0979-1.774,3.7047-3.0941,5.3363
				c-1.874,2.3159-3.1332,5.1248-3.6154,8.0648c-0.6241,3.8049,0.9532,8.7111,4.7852,9.1392
				c1.5516,0.1734,3.2572-0.4387,4.6124,0.3368c1.5403,0.8815,1.7153,2.9921,2.5808,4.5414
				c1.4037,2.5128,4.7246,3.4185,7.5499,2.8695c2.8254-0.549,5.277-2.2369,7.6367-3.885
				c3.3544,7.6096,12.3979,13.3411,20.0919,10.1851c1.8523-0.7599,3.4932-1.9632,5.3268-2.7673
				c3.2916-1.4432,7.1053-1.5593,10.2089-3.3719c4.8617-2.8395,6.5881-9.9485,3.5703-14.7016
				c3.7009-1.5974,7.4811-3.4049,10.0509-6.5103c2.5701-3.1054,3.5765-7.865,1.2948-11.1879
				c-0.5845-0.8512-1.3854-1.6494-1.469-2.6785c-0.0745-0.9173,0.447-1.7607,0.7601-2.6263
				c1.2904-3.568-1.0326-7.4589-3.8542-9.9954s-6.2853-4.4633-8.4019-7.6123c-1.9066-2.8368-2.499-6.352-4.0664-9.3893
				c-1.5673-3.0373-4.8717-5.7585-8.1427-4.767c-0.9757,0.2957-1.9769,0.9081-2.9397,0.5728
				c-1.0414-0.3626-1.4161-1.6121-2.1284-2.4538c-1.6807-1.9859-4.8273-1.4056-7.3171-0.6511
				c-2.4907,0.7548-5.042,1.5399-7.1056,3.1258c-2.0637,1.5859-3.5676,4.1698-3.1339,6.736"/>
		</g>
		<g>
			<path class="st6" d="M1675.6384,123.4381c1.8306-5.0999,8.1384-8.2062,13.1788-6.2175
				c5.0405,1.9886,7.4635,8.9554,4.4652,13.4687c-1.0767,1.6207-2.6577,2.8275-4.2085,4.0027
				c-1.6444,1.2462-3.4255,2.5444-5.4863,2.6484c-2.4414,0.1232-4.7091-1.542-5.9312-3.6591
				c-1.222-2.1172-1.574-4.6186-1.7316-7.0581"/>
		</g>
	</g>
	<g id="flower3">
		<g>
			<path class="st6" d="M814.0282,191.4118c2.0068-7.5889,12.4414-11.3942,18.8624-6.8784
				c1.0363,0.7288,1.9849,1.6326,3.1801,2.0527c1.3538,0.4757,2.8373,0.2678,4.2708,0.3307
				c6.4569,0.2835,11.7661,7.1792,10.3893,13.494c-0.605,2.7747-2.2328,5.7834-0.7977,8.2339
				c1.0607,1.8111,3.3332,2.4003,5.2741,3.199c2.7551,1.1337,5.2069,2.9948,7.0398,5.3434
				c2.3721,3.0397,3.3407,8.1013,0.1833,10.3146c-1.2786,0.8963-3.0687,1.177-3.8859,2.5073
				c-0.929,1.5122-0.0706,3.4482-0.0871,5.2229c-0.0269,2.8781-2.5067,5.2654-5.2493,6.1385
				c-2.7425,0.8732-5.7032,0.5675-8.5643,0.2528c0.7054,8.2861-4.482,17.6524-12.747,18.5724
				c-1.99,0.2215-4.0068-0.0478-6.0015,0.1261c-3.5804,0.3119-6.9829,2.0388-10.5754,1.9365
				c-5.6279-0.1604-10.5519-5.5708-10.183-11.1889c-4.0136,0.3729-8.1975,0.5995-11.9417-0.8932
				c-3.7443-1.4926-6.9099-5.1867-6.5011-9.1968c0.1047-1.0272,0.4249-2.1117,0.0047-3.0548
				c-0.3746-0.8406-1.2367-1.3307-1.9264-1.94c-2.8433-2.5123-2.6706-7.0405-1.4109-10.6194s3.3752-6.9307,3.7225-10.709
				c0.3129-3.4036-0.853-6.7724-0.9341-10.1894c-0.0811-3.4169,1.5138-7.3894,4.8596-8.0878
				c0.998-0.2084,2.1702-0.1511,2.8542-0.907c0.7399-0.8176,0.4696-2.0936,0.691-3.1739c0.5226-2.5486,3.562-3.5482,6.1087-4.0801
				c2.5477-0.5321,5.163-1.0665,7.7344-0.6645c2.5714,0.4021,5.1302,1.9483,5.9802,4.4083"/>
		</g>
		<g>
			<path class="st4" d="M825.2923,212.7096c-4.0521-3.5975-11.0769-3.2985-14.5463,0.8636
				c-3.4695,4.1621-2.2551,11.4375,2.5403,13.9603c1.722,0.9059,3.6881,1.2068,5.6124,1.4944
				c2.0407,0.305,4.2263,0.59,6.0844-0.3068c2.2015-1.0626,3.3929-3.6112,3.45-6.0552c0.0572-2.4439-0.8336-4.8077-1.8651-7.024"/>
		</g>
	</g>
	<g id="flower2">
		<g>
			<path class="st3" d="M609.1713,212.8107c-0.9481,7.637-10.5826,12.7104-17.416,9.171c-1.1028-0.5713-2.1436-1.3241-3.3601-1.5744
				c-1.3777-0.2836-2.7917,0.1142-4.1926,0.2423c-6.3099,0.5766-12.3773-5.4216-11.8731-11.7377
				c0.2216-2.7753,1.4059-5.9128-0.3116-8.1041c-1.2694-1.6194-3.5547-1.8919-5.5456-2.4117
				c-2.826-0.7378-5.4534-2.2222-7.5439-4.2618c-2.7056-2.6398-4.3143-7.4292-1.5392-9.9958
				c1.1237-1.0394,2.8257-1.5483,3.444-2.9486c0.703-1.5916-0.3865-3.359-0.6046-5.0852c-0.3537-2.7995,1.7402-5.4458,4.2894-6.6559
				c2.549-1.2101,5.4655-1.3038,8.2863-1.3756c-1.7787-7.9564,2.0247-17.7396,9.9324-19.7239
				c1.9037-0.4778,3.8987-0.4824,5.8134-0.9144c3.437-0.7755,6.5145-2.9021,10.0179-3.2766
				c5.4883-0.5868,10.9857,4.0193,11.3686,9.5257c3.8498-0.8919,7.8842-1.664,11.7186-0.708
				c3.8343,0.956,7.397,4.1268,7.5289,8.0763c0.0338,1.0116-0.134,2.1075,0.3986,2.9683c0.4748,0.7673,1.377,1.1296,2.1273,1.6305
				c3.0936,2.0653,3.5234,6.487,2.772,10.13c-0.7514,3.643-2.3644,7.1781-2.2031,10.8943c0.1452,3.3477,1.7224,6.4664,2.252,9.7751
				c0.5297,3.3086-0.4955,7.3781-3.6536,8.498c-0.942,0.3341-2.0883,0.4331-2.6531,1.2577
				c-0.6108,0.8919-0.1798,2.0958-0.2524,3.1744c-0.1713,2.5448-2.9921,3.9169-5.3958,4.7697
				c-2.4047,0.8531-4.8748,1.7174-7.4258,1.6661c-2.5511-0.0512-5.2407-1.2157-6.3911-3.4933"/>
		</g>
		<g>
			<path class="st7" d="M595.4186,193.6075c4.4109,2.96,11.1959,1.7426,14.0168-2.7584c2.8212-4.5011,0.6814-11.4084-4.3099-13.2263
				c-1.7923-0.6528-3.7419-0.6857-5.6493-0.7111c-2.0226-0.027-4.1834-0.0155-5.8702,1.1009
				c-1.9984,1.3228-2.8195,3.9559-2.5526,6.3375s1.4442,4.5604,2.7386,6.5774"/>
		</g>
	</g>
	<g id="flower1">
		<g>
			<path class="st4" d="M105.4773,99.3473c5.4001-5.6972,16.3815-4.0327,19.8506,3.009c0.5599,1.1364,0.9589,2.3845,1.8063,3.3262
				c0.9598,1.0666,2.3615,1.5956,3.5892,2.3382c5.5301,3.345,6.8823,11.9422,2.6461,16.8233
				c-1.8615,2.1448-4.7326,4.0044-4.6484,6.843c0.0623,2.0979,1.774,3.7047,3.0941,5.3363c1.874,2.3159,3.1331,5.1248,3.6153,8.0648
				c0.624,3.8049-0.9532,8.7111-4.7851,9.1392c-1.5518,0.1734-3.2572-0.4387-4.6123,0.3368
				c-1.5403,0.8815-1.7154,2.9921-2.5809,4.5414c-1.4037,2.5128-4.7246,3.4185-7.55,2.8695
				c-2.8254-0.5489-5.2769-2.2369-7.6366-3.885c-3.3544,7.6096-12.3979,13.3411-20.0919,10.1851
				c-1.8524-0.7599-3.4932-1.9632-5.3269-2.7673c-3.2915-1.4432-7.1053-1.5593-10.2088-3.3719
				c-4.8617-2.8395-6.5882-9.9485-3.5705-14.7016c-3.7008-1.5974-7.4809-3.4049-10.0509-6.5103
				c-2.5699-3.1054-3.5765-7.865-1.2948-11.1879c0.5844-0.8512,1.3854-1.6494,1.469-2.6785
				c0.0744-0.9173-0.4471-1.7607-0.7601-2.6263c-1.2904-3.568,1.0326-7.4589,3.8542-9.9954
				c2.8216-2.5366,6.2853-4.4633,8.4019-7.6123c1.9067-2.8368,2.499-6.352,4.0664-9.3893c1.5674-3.0374,4.8718-5.7585,8.1428-4.767
				c0.9756,0.2957,1.9769,0.9081,2.9397,0.5728c1.0414-0.3626,1.416-1.6121,2.1284-2.4538
				c1.6807-1.9859,4.8273-1.4056,7.3171-0.6511c2.4908,0.7548,5.0421,1.5399,7.1057,3.1258
				c2.0637,1.5859,3.5676,4.1698,3.1338,6.736"/>
		</g>
		<g>
			<path class="st3" d="M105.1489,123.4381c-1.8306-5.0999-8.1385-8.2062-13.1789-6.2175
				c-5.0404,1.9886-7.4635,8.9554-4.4651,13.4687c1.0766,1.6207,2.6577,2.8275,4.2084,4.0027
				c1.6445,1.2462,3.4256,2.5444,5.4864,2.6484c2.4414,0.1232,4.7091-1.542,5.9312-3.6591c1.2221-2.1172,1.574-4.6186,1.7316-7.0581
				"/>
		</g>
	</g>
</g>
</svg>
