<svg id="Layer_1" xmlns="http://www.w3.org/2000/svg" viewBox="0 0 1300 265.7103">
<style type="text/css">
	.st0{fill:#ff9c6e}
  .st1{fill:#212d50}
  .st2{fill:#faa76c}
  .st3{fill:#f09a82}
  .st4{fill:#71b1fc}
  .st5{fill:#a5cafa}
  .st6{fill:#9b6fef}

  #salmon1{
    animation-name: salmonBounce;
    animation-duration: 2s;
    animation-delay: 3.85s;
    transform-origin: 500px 260px;
    animation-timing-function: linear;    
  }
	#salmon2{
		animation-name: salmonBounce;
    animation-duration: 2s;
    animation-delay: 3.85s;
    transform-origin: 833px 260px;
    animation-timing-function: linear;  
	}
  @keyframes salmonBounce{
    33%{
      transform: skew(-0.02turn, 8deg);
    }
    66%{
      transform: skew(0.01turn, 5deg);      
    }
  }


  #orange1{
    animation-name: orangeBounce;
    animation-duration: 2s;
    animation-delay: 4s;
    transform-origin: 80px 254px; 
    <!-- animation-iteration-count: 2; -->
  }
	#orange2{
		animation-name: orangeBounce;
		animation-duration: 2s;
		animation-delay: 4s;
		transform-origin: 323px 254px;
    <!-- animation-iteration-count: 2;   -->
  }
	#orange3{
		animation-name: orangeBounce;
		animation-duration: 2s;
		animation-delay: 4s;
		transform-origin: 590px 254px;
    <!-- animation-iteration-count: 2;   -->
  }
	#orange4{
		animation-name: orangeBounce;
		animation-duration: 2s;
		animation-delay: 4s;
		transform-origin: 1115px 254px;
    <!-- animation-iteration-count: 2;   -->
  }
	@keyframes orangeBounce{
    33%{
      transform: skew(0.02turn, 5deg);
    }
    66%{
      transform: skew(-0.01turn, 8deg);      
    }
  }


  #pink1{
    animation-name: pinkBounce;
		animation-duration: 1s;
		animation-delay: 3.85s;
		transform-origin: 262px 253px;  
  }
  #pink2{
    animation-name: pinkBounce;
		animation-duration: 1s;
		animation-delay: 3.85s;
		transform-origin: 535px 254px;  
  }
  #pink3{
    animation-name: pinkBounce;
		animation-duration: 1s;
		animation-delay: 3.85s;
		transform-origin: 975px 255px;  
  }
  #pink4{
    animation-name: pinkBounce;
		animation-duration: 1s;
		animation-delay: 3.85s;
		transform-origin: 1233px 257px;  
  }
  @keyframes pinkBounce{
    33%{
      transform: skew(0.01turn, 3deg);
    }
    66%{
      transform: skew(-0.01turn, 2deg);      
    }
  }


  #blue1{
    animation-name: blueBounce;
		animation-duration: 1s;
		animation-delay: 3.25s;
		transform-origin: 193px 257px;
    animation-iteration-count: 2;  
  }
  #blue2{
    animation-name: blueBounce;
		animation-duration: 1s;
		animation-delay: 3.25s;
		transform-origin: 705px 265px;
    animation-iteration-count: 2;  
  }
  #blue3{
    animation-name: blueBounce;
		animation-duration: 1s;
		animation-delay: 3.25s;
		transform-origin: 780px 255px;
    animation-iteration-count: 2;  
  }
  #blue4{
    animation-name: blueBounce;
		animation-duration: 1s;
		animation-delay: 3.25s;
		transform-origin: 900px 259px;
    animation-iteration-count: 2;  
  }
  #blue5{
    animation-name: blueBounce;
		animation-duration: 1s;
		animation-delay: 3.25s;
		transform-origin: 1038px 265px;
    animation-iteration-count: 2;  
  }
  @keyframes blueBounce{
    33%{
      transform: skew(0.005turn, 0.1deg);
    }
    66%{
      transform: skew(-0.01turn, 0.3deg);      
    }
  }


  #violet1{
    animation-name: violetBounce;
		animation-duration: 0.75s;
		animation-delay: 2.75s;
		transform-origin: 159px 261px;
    animation-timing-function: linear;  
  }
  #violet2{
    animation-name: violetBounce;
		animation-duration: 0.75s;
		animation-delay: 2.75s;
		transform-origin: 384px 258px;
    animation-timing-function: linear;  
  }
  #violet3{
    animation-name: violetBounce;
		animation-duration: 0.75s;
		animation-delay: 2.75s;
		transform-origin: 625px 261px;
    animation-timing-function: linear;  
  }
  #violet4{
    animation-name: violetBounce;
		animation-duration: 0.75s;
		animation-delay: 2.75s;
		transform-origin: 1154px 261px;
    animation-timing-function: linear;  
  }
  @keyframes violetBounce{
    33%{
      transform: skew(0.005turn, 0.05deg);
    }
    66%{
      transform: skew(-0.005turn, 0.05deg);      
    }
  }
</style>
  <g id="salmon2">
    <path class="st0" d="M833.5 257.3771c30.9587-.7625 72.5287-23.9078 71.7613-59.3435-.4167-19.2158-12.7453-37.8027-8.4218-56.5305 4.825-20.8998 27.9588-32.1373 37.9333-51.1265 7.7936-14.8373 6.6037-33.147.4373-48.731S918.4025 12.7064 907.4739 0c-1.745 14.2717-13.1027 25.4364-25.0184 33.4825-11.9158 8.0461-25.2666 14.4245-34.9243 25.0759-12.6753 13.9796-17.3124 34.7855-11.7733 52.8246 2.6749 8.7112 7.5823 17.133 6.9444 26.2233-1.0823 15.421-16.7397 24.7364-28.4133 34.8707-12.2744 10.6558-21.737 25.4044-22.966 41.6124-1.2289 16.2079 7.1588 33.5592 22.0747 40.0183 6.2794 2.7191 13.2614 3.4379 20.1023 3.2694z"/>
    <path class="st1" d="M911.3781 30.1626c-4.4913 13.7174-12.4697 25.867-18.4164 38.9444-5.1648 11.3577-9.2695 23.1614-12.9243 35.0811-7.471 24.366-13.0895 49.3692-22.6181 73.0648-5.546 13.7919-12.5381 27.0208-21.6865 38.7766-.8047 1.034.643 2.5021 1.4565 1.4566 32.4443-41.691 35.5795-96.6298 56.0074-143.8584 6.2766-14.5111 15.2295-27.8351 20.1676-42.9174.4135-1.2629-1.5749-1.804-1.9862-.5477zm-29.6207 35.1486c-1.2625-5.0331-3.1569-9.8073-5.6774-14.3418-.6442-1.159-2.424-.1212-1.7787 1.0398 2.4374 4.3852 4.2493 8.9842 5.4697 13.8497.3223 1.285 2.3096.7406 1.9864-.5477zM870.334 83.1138c-3.078-4.666-6.6062-8.9689-10.5905-12.8904-.9457-.9308-2.4033.5248-1.4566 1.4566 3.8597 3.799 7.2859 7.9524 10.2684 12.4734.7269 1.102 2.5114.0713 1.7787-1.0396zm-6.1412 21.2932l-14.239-4.394c-1.2697-.3918-1.8127 1.5961-.5477 1.9864l14.239 4.394c1.2696.3919 1.8127-1.596.5477-1.9864zm56.0786-46.5824c-4.6448 1.3584-9.0618 3.2358-13.2628 5.6387-1.1505.6581-.114 2.4387 1.0397 1.7787 4.0503-2.3167 8.2916-4.121 12.7708-5.431 1.2696-.3713.7294-2.3598-.5477-1.9864zm-12.2881 26.7989l12.4504 1.7919c1.2968.1866 1.8568-1.798.5476-1.9864l-12.4504-1.7919c-1.2966-.1867-1.8567 1.7979-.5476 1.9864zm-14.6276 13.0253c3.6293 2.8189 7.8519 4.3003 12.4588 4.2486 1.3247-.0149 1.3282-2.0749 0-2.06-4.0251.0452-7.8118-1.1673-11.0021-3.6452-1.0347-.8035-2.5029.6441-1.4567 1.4566zm-54.7497 80.2674c.2598-2.954-.8455-5.8045-2.9878-7.8463-.9597-.9146-2.4187.5398-1.4567 1.4566 1.7903 1.7063 2.6005 3.9335 2.3845 6.3896-.1161 1.3205 1.9447 1.3127 2.06.0001zm-6.8201 15.2883c-2.1259-3.2174-4.5231-6.2259-7.1906-9.0108-.9188-.9593-2.3741.4987-1.4566 1.4566 2.5479 2.6601 4.8376 5.5205 6.8684 8.594.7277 1.1012 2.5124.0705 1.7788-1.0398zm-11.9204 14.8818l-9.1371-3.512c-1.2383-.476-1.7743 1.5148-.5476 1.9865l9.1371 3.512c1.2384.4759 1.7743-1.515.5476-1.9865zm66.9132-42.4767c-2.7642 1.853-5.7527 3.0224-9.0364 3.5514-1.3054.2103-.7513 2.1957.5476 1.9864 3.4351-.5534 6.6393-1.8224 9.5285-3.7591 1.0957-.7344.0657-2.5196-1.0397-1.7787zm.9759 18.7618c-4.2866 3.1928-9.2122 4.6189-14.5425 4.1905-1.3216-.1062-1.3146 1.9543 0 2.06 5.6312.4526 11.0505-1.0964 15.5822-4.4718 1.0512-.7829.0253-2.5719-1.0397-1.7787zm-5.9671 25.8028c-6.6033.5184-12.8077-1.2441-18.1596-5.1454-1.0727-.7818-2.1017 1.0047-1.0397 1.7787 5.6115 4.0905 12.2767 5.9701 19.1993 5.4267 1.313-.1031 1.3241-2.1639 0-2.06z"/>
  </g>
  <g id="salmon1">
    <path class="st0" d="M500.1178 257.4892c-30.9281 1.5745-74.1252-18.3696-76.0326-53.7623-1.0338-19.1925 9.8578-38.6563 4.1342-57.0046-6.3875-20.4764-30.3029-29.9371-41.6812-48.1201-8.8903-14.2073-9.0849-32.5545-4.1114-48.5592s14.5772-30.1245 24.5164-43.6189c2.8165 14.0994 14.9837 24.3758 27.4724 31.5002s26.2825 12.4778 36.7161 22.3705c13.6935 12.9838 19.8867 33.3807 15.7238 51.7862-2.0103 8.8881-6.2685 17.6561-4.9468 26.6723 2.2422 15.2954 18.5576 23.4034 30.9623 32.6285 13.0432 9.6998 23.5911 23.6927 26.0389 39.7618 2.4479 16.069-4.6073 34.0035-18.9937 41.5692-6.0563 3.1852-12.9644 4.4284-19.7984 4.7764z"/>
    <path class="st1" d="M403.3623 37.4171c5.5042 13.3185 14.2706 24.8235 21.2177 37.3688 6.449 11.646 11.6926 23.9098 16.4849 36.3157 9.2841 24.0335 16.9121 48.8189 28.6385 71.8361 6.4218 12.605 14.1495 24.5074 23.67 34.9995.8928.9839 2.3461-.4764 1.4566-1.4566-34.8589-38.4163-42.355-92.1401-65.459-137.0864-7.4406-14.4749-17.7885-27.4408-24.0223-42.5246-.4992-1.2082-2.4932-.6787-1.9864.5475zm36.1543 32.6647c.8493-4.9397 2.2916-9.6749 4.3907-14.2299.5511-1.1959-1.2239-2.2437-1.7788-1.0397-2.1728 4.715-3.7183 9.6031-4.5984 14.722-.2229 1.2965 1.7619 1.8535 1.9865.5476zm12.5446 17.3895c2.6357-4.734 5.7188-9.1403 9.2822-13.2239.8682-.995-.5831-2.4578-1.4566-1.4566-3.6761 4.2126-6.884 8.7549-9.6043 13.6408-.6455 1.1594 1.1331 2.1995 1.7787 1.0397zm6.5361 21.7612l13.867-5.4554c1.2196-.4799.6885-2.4728-.5476-1.9864l-13.867 5.4554c-1.2197.4799-.6886 2.4728.5476 1.9864zm-60.5258-42.179c4.5634.9681 8.9359 2.4281 13.151 4.4335 1.1909.5666 2.2375-1.2089 1.0398-1.7787-4.3709-2.0795-8.9062-3.6363-13.6432-4.6412-1.2931-.2743-1.8458 1.7111-.5476 1.9864zm14.1243 21.8286l-12.2798 2.7258c-1.2936.2872-.7462 2.2736.5476 1.9864l12.2798-2.7258c1.2936-.2872.7463-2.2736-.5476-1.9864zm14.6807 12.4484c-2.9909 2.7084-6.641 4.2594-10.6712 4.5187-1.3164.0847-1.3259 2.1453 0 2.06 4.5869-.2951 8.7188-2.0351 12.1278-5.1221.9849-.8917-.4756-2.345-1.4566-1.4566zm64.1772 76.9577c-.3778-2.2946.3247-4.5775 1.8769-6.2982.886-.9822-.5664-2.4436-1.4566-1.4566-2.0834 2.3097-2.9106 5.2416-2.4066 8.3024.2149 1.305 2.2002.7514 1.9863-.5476zm7.7489 16.053c1.7936-3.2163 3.8454-6.2537 6.1845-9.099.8354-1.0163-.6138-2.4819-1.4566-1.4566-2.4506 2.981-4.6267 6.1449-6.5067 9.516-.6463 1.1589 1.1323 2.1989 1.7788 1.0396zm12.0613 14.8283l8.8461-4.1911c1.1973-.5673.1531-2.3439-1.0398-1.7787l-8.8461 4.1911c-1.1974.5673-.1531 2.3438 1.0398 1.7787zm-71.7652-37.3527c3.1231 1.7637 6.4801 2.7803 10.0515 3.0854 1.3208.1128 1.3132-1.9478 0-2.06-3.2084-.2741-6.2097-1.2217-9.0117-2.8041-1.156-.6528-2.1954 1.1261-1.0398 1.7787zm.4417 18.7819c4.8971 3.0923 10.4315 4.1741 16.1398 3.2867 1.306-.203.7514-2.1884-.5476-1.9864-5.1602.8022-10.1509-.2995-14.5524-3.0789-1.1242-.7101-2.1591 1.0717-1.0398 1.7786zm8.9451 25.5209c7.0641.0201 13.5823-2.4055 18.9559-6.9814 1.0108-.8607-.4523-2.312-1.4566-1.4566-4.967 4.2296-10.9843 6.3966-17.4993 6.378-1.3257-.0038-1.3275 2.0562 0 2.06z"/>
  </g>
  <g id="orange3">
    <path class="st2" d="M610.7567 254.9218c-12.445 5.0425-28.9494 2.7218-41.156-.9661-3.7641-1.1372-7.5402-2.3853-10.8918-4.4416-3.9224-2.4064-7.1069-5.8207-10.2391-9.1919-8.8492-9.5237-13.6965-15.4607-13.1324-28.8145.4638-10.9771 5.6271-21.8113 14.7488-28.1862 4.9971-3.4922 11.0054-5.7693 14.8926-10.4656 9.0001-10.8735 2.0404-26.8415-1.2452-40.5688-8.1132-33.8977 13.3574-72.2212 46.5027-83.0039-4.2438 10.2599.1583 22.1607 6.6664 31.1562 6.5082 8.9955 15.0881 16.4469 20.7941 25.9715 11.2521 18.7823 8.9005 44.7194-5.546 61.1717-5.7833 6.5862-13.6647 12.5729-14.5415 21.2939-1.0128 10.0738 7.8151 18.19 11.3052 27.694 5.072 13.8114-2.8624 30.6591-15.6849 37.2223a30.9932 30.9932 0 0 1-2.4729 1.129z"/>
    <path class="st1" d="M596.8663 83.3399c-8.6169 17.8095-3.0926 37.5698-.7051 56.1483 1.3071 10.1723 1.6978 20.4264-1.1462 30.3872-3.0319 10.619-8.675 20.2728-11.76 30.8701-2.9327 10.0744-3.5595 21.2037 1.9346 30.5239.6728 1.1412 2.4542.106 1.7788-1.0397-11.3466-19.2482 4.0901-40.2759 9.6837-58.6255 5.601-18.3736.282-36.8986-1.7729-55.3629-1.2054-10.8311-1.0698-21.8673 3.7658-31.8617.575-1.1882-1.2008-2.2341-1.7787-1.0397zm12.9466 34.6749c2.7684-2.3268 4.9879-5.175 6.5699-8.4272.5776-1.1873-1.1983-2.2329-1.7788-1.0398-1.5134 3.1111-3.5997 5.7845-6.2479 8.0102-1.016.8542.4477 2.3049 1.4568 1.4568zm5.0518 14.7148c2.7826 1.1137 5.793 1.1612 8.615.1584 1.2405-.4408.7061-2.4319-.5476-1.9864-2.5244.897-5.0358.8357-7.5197-.1584-1.2306-.4926-1.7652 1.4991-.5477 1.9864zm-2.5648 20.557c2.2481 3.4217 5.4297 5.905 9.2888 7.2686 1.2524.4426 1.7911-1.547.5476-1.9864-3.3322-1.1775-6.1179-3.3694-8.0577-6.3219-.7249-1.1035-2.5094-.0726-1.7787 1.0397zM578.96 104.9533c1.6644 2.8667 3.9976 5.2149 6.8514 6.901 1.144.6759 2.1815-1.1042 1.0398-1.7787-2.5597-1.5123-4.6197-3.591-6.1124-6.1619-.6654-1.1462-2.4465-.1102-1.7788 1.0396zm-4.0898 19.4577c2.7238 2.3329 5.9436 3.6456 9.5255 3.8686 1.3239.0824 1.319-1.9779 0-2.06-3.009-.1873-5.7767-1.3021-8.0688-3.2652-1.0019-.8581-2.4656.5925-1.4567 1.4566z"/>
    <path class="st1" d="M578.3723 146.7513c3.3481.1644 6.5085-1.081 8.8694-3.4543.9361-.9409-.52-2.3982-1.4566-1.4566-2.0068 2.0173-4.5768 2.9902-7.4128 2.851-1.3251-.0653-1.3217 1.995 0 2.0599zm17.8772 54.4937c4.5755-.866 8.8099-2.6575 12.6171-5.3384 1.0757-.7574.0475-2.5444-1.0397-1.7787-3.6816 2.5925-7.7008 4.2934-12.125 5.1308-1.301.2462-.7501 2.2319.5476 1.9863zm3.3081 12.9552l10.4312 2.1716c1.2936.2693 1.8468-1.716.5476-1.9864l-10.4312-2.1717c-1.2937-.2693-1.8468 1.716-.5476 1.9865zm-2.9493 15.3048l9.4658 4.6101c1.1871.5782 2.2327-1.1978 1.0398-1.7787l-9.4658-4.6102c-1.1872-.5781-2.2328 1.1978-1.0398 1.7788zm-28.7153-39.4844l7.1797 5.8187c1.0211.8275 2.4873-.6214 1.4566-1.4566l-7.1797-5.8187c-1.021-.8276-2.4872.6213-1.4566 1.4566zm-3.2791 16.2091l7.8864 4.4546c1.1558.6528 2.1953-1.1261 1.0398-1.7787l-7.8865-4.4546c-1.1559-.6529-2.1953 1.1261-1.0397 1.7787zm.0287 23.6891c4.3409-.2652 8.2521-1.8836 11.5118-4.762.9957-.8793-.4658-2.3316-1.4566-1.4566-2.8364 2.5046-6.2781 3.9278-10.0552 4.1586-1.3172.0805-1.3263 2.141 0 2.06z"/>
  </g>
  <g id="orange1">
    <path class="st2" d="M120.926 234.1845c-6.6574 9.407-19.658 15.3732-30.1862 18.3613-3.2466.9214-6.5531 1.7682-9.9272 1.8346-3.9486.0776-7.831-.9149-11.6555-1.9001-10.8046-2.7836-17.0568-4.8288-22.8333-14.7394-4.7484-8.1467-6.0348-18.3665-2.3957-27.1971 1.9935-4.8376 5.2806-9.2654 5.9146-14.4591 1.4679-12.025-10.9559-20.3402-19.6872-28.7379-21.5604-20.7368-23.7936-58.3719-4.8366-81.513 1.6849 9.379 10.3769 15.9397 19.2454 19.4259 8.8685 3.4861 18.519 4.897 27.0529 9.1369 16.8286 8.361 27.1409 28.1919 24.321 46.7703-1.1289 7.4374-4.0514 15.4131-.6463 22.1208 3.9333 7.7482 14.0708 9.5246 20.9941 14.7759 10.061 7.6312 12.1298 23.4794 5.9039 34.16a26.492 26.492 0 0 1-1.2639 1.9609z"/>
    <path class="st1" d="M31.2831 116.5979c1.8859 15.7549 13.4699 27.0999 23.3735 38.5163 5.648 6.5108 11.1533 13.4331 14.2389 21.5758 3.8038 10.0377 3.9129 20.9684 6.9529 31.2041 2.5607 8.6223 7.2576 16.9493 15.5319 21.1415 1.1799.5978 2.2238-1.1788 1.0398-1.7787-11.004-5.575-14.6892-18.1007-16.7105-29.3777-2.0362-11.3595-3.7387-22.2638-10.1746-32.1089-10.5483-16.1359-29.7516-28.7858-32.1918-49.1721-.1557-1.3004-2.2176-1.316-2.0601-.0003zm25.6892 19.1812c.9186-3.0003 1.2138-6.061.8617-9.1805-.147-1.3025-2.2087-1.3174-2.06 0 .3324 2.9447.0799 5.798-.7881 8.6328-.389 1.2706 1.5988 1.8137 1.9864.5477zm10.3469 8.3572c2.6598-.491 4.8872-1.9613 6.5182-4.0948.8048-1.0528-.9835-2.08-1.7787-1.0397-1.3056 1.7078-3.1921 2.7614-5.2871 3.1481-1.3019.2403-.7505 2.226.5476 1.9864zm7.5369 15.9951c3.2871 1.4398 6.7017 1.7947 10.2077.9975 1.2922-.2938.7453-2.2803-.5476-1.9864-2.9214.6642-5.8694.4152-8.6204-.7898-1.2027-.5269-2.2525 1.2475-1.0397 1.7787zM28.382 140.646c2.5772 1.306 5.3382 1.9466 8.2283 1.8585 1.3225-.0404 1.3282-2.1005 0-2.06-2.5306.0772-4.9283-.4318-7.1886-1.5772-1.1798-.5979-2.2238 1.1787-1.0397 1.7787zm6.0887 15.9816c3.1028.4231 6.0524-.0803 8.8022-1.6003 1.1605-.6415.1226-2.4212-1.0397-1.7787-2.2232 1.2289-4.6872 1.7373-7.2149 1.3927-1.2963-.1768-1.8572 1.8078-.5476 1.9863z"/>
    <path class="st1" d="M47.4747 171.1641c2.5133-1.4262 4.2981-3.8324 4.896-6.6638.2732-1.2933-1.7122-1.846-1.9864-.5476-.4934 2.3363-1.8691 4.2522-3.9493 5.4326-1.1529.6543-.1161 2.4347 1.0397 1.7788zm38.1815 31.0899c2.9921-2.8139 5.2387-6.1631 6.7799-9.9659.4978-1.2281-1.4941-1.7623-1.9864-.5476-1.4032 3.4624-3.5322 6.5009-6.2501 9.0569-.9678.9101.491 2.3648 1.4566 1.4566zm8.3311 7.8406l8.5432-3.2615c1.2262-.4682.6941-2.4604-.5476-1.9865l-8.5432 3.2615c-1.2263.4682-.6942 2.4606.5476 1.9865zm4.9086 12.4227l8.9748-1.0524c1.301-.1526 1.3163-2.2144 0-2.06l-8.9748 1.0524c-1.3009.1526-1.3163 2.2144 0 2.06zm-38.8092-15.2131l7.8826.8796c1.3155.1468 1.3051-1.9144 0-2.06l-7.8826-.8796c-1.3155-.1467-1.3051 1.9144 0 2.06zm4.9116 13.2114l7.7615-.4334c1.3182-.0736 1.3268-2.1341 0-2.06l-7.7615.4334c-1.3181.0736-1.3267 2.134 0 2.06zm11.0703 17.1026c3.0372-2.2041 5.1813-5.2127 6.1999-8.8324.3597-1.2782-1.6273-1.8239-1.9864-.5476-.8643 3.0719-2.6649 5.723-5.2531 7.6013-1.0629.7711-.0359 2.5591 1.0396 1.7787z"/>
  </g>
  <g id="orange2">
    <path class="st2" d="M345.5954 254.6297c-13.3943 5.4272-31.1576 2.9295-44.2953-1.0397-4.0513-1.224-8.1154-2.5672-11.7227-4.7804-4.2216-2.59-7.649-6.2648-11.0203-9.893-9.5241-10.2501-14.7413-16.6401-14.1341-31.0124.4991-11.8145 6.0563-23.475 15.8738-30.3363 5.3782-3.7587 11.8448-6.2094 16.0286-11.2639 9.6866-11.7029 2.1961-28.889-1.3402-43.6634-8.7321-36.4834 14.3762-77.7301 50.0498-89.3353-4.5675 11.0425.1703 23.851 7.1749 33.5327 7.0045 9.6817 16.239 17.7014 22.3802 27.9525 12.1104 20.2149 9.5794 48.1305-5.9691 65.8377-6.2244 7.0886-14.707 13.5319-15.6506 22.9182-1.0901 10.8422 8.4112 19.5774 12.1676 29.8064 5.4587 14.865-3.0807 32.9977-16.8813 40.0615a33.1914 33.1914 0 0 1-2.6613 1.2154z"/>
    <path class="st1" d="M330.7134 69.9995c-9.3671 19.3181-3.2133 40.8412-.6721 60.9898 1.4124 11.1986 1.6453 22.3908-1.6545 33.2975-3.3387 11.0351-9.1656 21.1457-12.3674 32.2264-3.1082 10.7566-3.7568 22.6844 2.1268 32.6203.6749 1.1399 2.4564.1047 1.7787-1.0397-12.0542-20.3567 3.9142-42.7545 10.0915-62.1161 6.4333-20.1641.6561-40.363-1.5961-60.6804-1.2906-11.6425-1.1363-23.517 4.072-34.2581.5758-1.1878-1.2-2.2336-1.7789-1.0397zm13.8106 37.2247c2.9753-2.5007 5.3586-5.559 7.0588-9.0541.5776-1.1873-1.1983-2.2329-1.7788-1.0398-1.6313 3.3536-3.8821 6.2379-6.7367 8.6372-1.016.8541.4477 2.3048 1.4567 1.4567zm5.5137 15.8171c2.9835 1.1941 6.2046 1.2457 9.2303.1706 1.2405-.4408.706-2.4319-.5476-1.9864-2.7285.9696-5.4501.9041-8.1351-.1706-1.2306-.4926-1.7653 1.499-.5476 1.9864zm-2.7136 22.161c2.4079 3.6648 5.817 6.3263 9.9503 7.787 1.2524.4426 1.7911-1.547.5476-1.9864-3.6065-1.2745-6.6195-3.6445-8.7192-6.8403-.7249-1.1034-2.5095-.0725-1.7787 1.0397zm-35.883-52.0199c1.7848 3.074 4.2857 5.5911 7.3458 7.3992 1.1439.6759 2.1815-1.1042 1.0397-1.7787-2.7662-1.6344-4.9937-3.8817-6.6068-6.6602-.6654-1.1461-2.4463-.1102-1.7787 1.0397zm-4.414 20.9259c2.9149 2.4966 6.3633 3.9021 10.1965 4.1407 1.3239.0824 1.319-1.9779 0-2.06-3.2607-.203-6.2561-1.4101-8.7398-3.5374-1.002-.858-2.4656.5926-1.4567 1.4567z"/>
    <path class="st1" d="M310.7407 138.1296c3.5837.176 6.9632-1.1544 9.4904-3.6948.9361-.9409-.52-2.3982-1.4566-1.4566-2.1738 2.1852-4.9616 3.2423-8.0338 3.0914-1.3251-.0651-1.3217 1.9951 0 2.06zm19.22 58.6532c4.9188-.931 9.4679-2.8557 13.5606-5.7377 1.0757-.7574.0475-2.5444-1.0397-1.7787-3.967 2.7935-8.3013 4.6278-13.0686 5.5301-1.3009.2462-.75 2.232.5477 1.9863zm3.6021 13.9434l11.2269 2.3373c1.2936.2693 1.8468-1.716.5476-1.9864l-11.2269-2.3373c-1.2936-.2693-1.8467 1.7159-.5476 1.9864zm-3.1553 16.4802l10.1878 4.9618c1.1871.5781 2.2327-1.1977 1.0397-1.7787l-10.1878-4.9618c-1.1871-.5782-2.2327 1.1976-1.0397 1.7787zm-30.8898-42.4839l7.7274 6.2625c1.0211.8275 2.4873-.6214 1.4566-1.4566l-7.7274-6.2625c-1.021-.8276-2.4873.6212-1.4566 1.4566zm-3.5452 17.4332l8.488 4.7944c1.1559.6529 2.1953-1.1261 1.0397-1.7787-2.8293-1.5981-5.6587-3.1962-8.4879-4.7944-1.1559-.6529-2.1953 1.126-1.0398 1.7787zm-.0087 25.4853c4.6503-.2841 8.8423-2.0186 12.3344-5.1022.9957-.8793-.4658-2.3316-1.4566-1.4566-3.0692 2.7102-6.7906 4.2491-10.8777 4.4988-1.3173.0805-1.3264 2.141-.0001 2.06z"/>
  </g>
  <g id="orange4">
    <path class="st2" d="M1136.1648 254.9218c-12.4451 5.0425-28.9495 2.7218-41.156-.9661-3.7642-1.1372-7.5403-2.3853-10.8918-4.4416-3.9225-2.4064-7.1069-5.8207-10.2393-9.1919-8.8491-9.5237-13.6965-15.4607-13.1324-28.8145.4637-10.9771 5.6271-21.8113 14.7488-28.1862 4.9971-3.4922 11.0055-5.7693 14.8927-10.4656 9.0001-10.8735 2.0404-26.8415-1.2451-40.5688-8.1134-33.8977 13.3573-72.2212 46.5026-83.0039-4.2438 10.2599.1582 22.1607 6.6664 31.1562s15.0881 16.4469 20.7941 25.9715c11.2521 18.7823 8.9005 44.7194-5.546 61.1717-5.7833 6.5862-13.6647 12.5729-14.5415 21.2939-1.0128 10.0738 7.8151 18.19 11.3053 27.694 5.0719 13.8114-2.8624 30.6591-15.6849 37.2223a30.9579 30.9579 0 0 1-2.4729 1.129z"/>
    <path class="st1" d="M1122.2745 83.3399c-8.6169 17.8095-3.0925 37.5698-.7052 56.1483 1.3071 10.1723 1.6978 20.4264-1.1462 30.3872-3.0317 10.619-8.675 20.2728-11.7599 30.8701-2.9327 10.0744-3.5594 21.2037 1.9346 30.5239.6727 1.1412 2.4541.106 1.7788-1.0397-11.3466-19.2482 4.0901-40.2759 9.6837-58.6255 5.601-18.3736.282-36.8986-1.7728-55.3629-1.2054-10.8311-1.0698-21.8673 3.7657-31.8617.575-1.1882-1.2008-2.2341-1.7787-1.0397zm12.9464 34.6749c2.7686-2.3268 4.9879-5.175 6.5699-8.4272.5776-1.1873-1.1982-2.2329-1.7787-1.0398-1.5134 3.1111-3.5997 5.7845-6.2478 8.0102-1.0159.8542.4477 2.3049 1.4566 1.4568zm5.0519 14.7148c2.7827 1.1137 5.793 1.1612 8.615.1584 1.2405-.4408.7061-2.4319-.5476-1.9864-2.5244.897-5.0358.8357-7.5198-.1584-1.2306-.4926-1.7652 1.4991-.5476 1.9864zm-2.5648 20.557c2.248 3.4217 5.4297 5.905 9.2888 7.2686 1.2523.4426 1.791-1.547.5476-1.9864-3.3322-1.1775-6.1178-3.3694-8.0577-6.3219-.725-1.1035-2.5095-.0726-1.7787 1.0397zm-33.34-48.3333c1.6644 2.8667 3.9977 5.2149 6.8514 6.901 1.1439.6759 2.1815-1.1042 1.0397-1.7787-2.5596-1.5123-4.6196-3.591-6.1123-6.1619-.6654-1.1462-2.4464-.1102-1.7788 1.0396zm-4.0897 19.4577c2.7238 2.3329 5.9436 3.6456 9.5254 3.8686 1.324.0824 1.319-1.9779 0-2.06-3.009-.1873-5.7767-1.3021-8.0688-3.2652-1.002-.8581-2.4655.5925-1.4566 1.4566z"/>
    <path class="st1" d="M1103.7804 146.7513c3.3481.1644 6.5084-1.081 8.8694-3.4543.9362-.9409-.52-2.3982-1.4565-1.4566-2.007 2.0173-4.5769 2.9902-7.4128 2.851-1.3253-.0653-1.3219 1.995-.0001 2.0599zm17.8772 54.4937c4.5754-.866 8.8099-2.6575 12.6171-5.3384 1.0756-.7574.0475-2.5444-1.0397-1.7787-3.6816 2.5925-7.7008 4.2934-12.125 5.1308-1.301.2462-.7501 2.2319.5476 1.9863zm3.308 12.9552l10.4313 2.1716c1.2936.2693 1.8468-1.716.5476-1.9864l-10.4312-2.1717c-1.2937-.2693-1.8468 1.716-.5477 1.9865zm-2.9492 15.3048l9.4658 4.6101c1.1871.5782 2.2327-1.1978 1.0398-1.7787l-9.4658-4.6102c-1.1873-.5781-2.2327 1.1978-1.0398 1.7788zm-28.7153-39.4844l7.1797 5.8187c1.0211.8275 2.4873-.6214 1.4567-1.4566l-7.1797-5.8187c-1.0211-.8276-2.4873.6213-1.4567 1.4566zm-3.2791 16.2091l7.8864 4.4546c1.1559.6528 2.1953-1.1261 1.0398-1.7787l-7.8865-4.4546c-1.1558-.6529-2.1955 1.1261-1.0397 1.7787zm.0287 23.6891c4.3409-.2652 8.2521-1.8836 11.5118-4.762.9957-.8793-.4658-2.3316-1.4567-1.4566-2.8363 2.5046-6.2782 3.9278-10.0552 4.1586-1.3171.0805-1.3262 2.141.0001 2.06z"/>
  </g>
  <g id="pink2">
    <path class="st3" d="M576.564 229.5765c-13.7198 28.927-60.5569 33.6925-80.2189 7.9474-6.9144-9.054-8.7338-23.0015-1.5157-32.2431 7.0081-8.9728 11.9129-16.3347 10.9796-28.7873-.856-11.4213-7.7299-21.3439-13.5603-31.2022-5.8303-9.8584-10.9513-21.4151-7.9146-32.4587 4.9579-18.0308 24.1852-26.1444 34.0222-40.9076l23.3726 18.0587c11.3738 8.788 23.9777 20.3558 22.1174 34.6081-1.8176 13.9253-17.3552 26.4878-11.3336 39.1746 2.3109 4.8688 7.2524 7.8042 11.4147 11.2278 15.5356 12.7785 21.2569 36.4074 12.6366 54.5823z"/>
    <path class="st1" d="M518.6351 93.9621c-2.2536 11.0056-2.7676 22.2681-1.3395 33.4208 1.4545 11.3584 5.2911 21.9458 9.1693 32.6516 8.1194 22.4136 11.2874 45.6667 7.5899 69.3425-.2025 1.2969 1.7822 1.8557 1.9865.5476 3.4431-22.0469 1.412-44.4156-5.8398-65.51-3.81-11.0827-8.3466-21.8827-10.3146-33.5023-2.0439-12.0681-1.7181-24.4242.7346-36.4026.2649-1.294-1.7203-1.8475-1.9864-.5476zm12.9967 18.5562c2.2775-1.9025 4.2087-4.1406 5.7835-6.6548.7057-1.1268-1.0759-2.1619-1.7787-1.0398-1.4858 2.3722-3.3141 4.4442-5.4614 6.238-1.0186.8507.4453 2.3013 1.4566 1.4566zm5.7782 16.1702c3.2451-1.4033 6.2241-3.2093 9.0083-5.3845 1.0436-.8153-.4233-2.2639-1.4566-1.4566-2.6373 2.0604-5.5217 3.7349-8.5914 5.0624-1.2137.5247-.1658 2.3 1.0397 1.7787zm-2.9322 22.0694c2.7397.0098 5.3674.4767 7.9486 1.3898 1.2522.443 1.791-1.5466.5476-1.9864-2.75-.9728-5.5804-1.453-8.4963-1.4634-1.3257-.0046-1.3274 2.0553.0001 2.06zm-34.9373-43.0306c1.9326 2.621 4.4203 4.532 7.4513 5.7225 1.2344.4848 1.7696-1.5065.5476-1.9864a14.1543 14.1543 0 0 1-6.2202-4.7758c-.7784-1.0556-2.5669-.0293-1.7787 1.0397zm-1.5365 15.811c2.4976 3.631 6.9789 5.2857 11.2242 4.0025 1.2657-.3825.7263-2.3715-.5476-1.9864-3.3246 1.0049-6.9133-.1707-8.8978-3.0558-.7466-1.0854-2.5327-.0563-1.7788 1.0397zm6.4066 23.0024c3.4537-.5158 5.9964-3.3944 6.4278-6.7903.1666-1.3116-1.8949-1.2995-2.06 0-.3228 2.5407-2.4507 4.4358-4.9154 4.8039-1.3066.1951-.7514 2.1804.5476 1.9864zm41.1584 46.7271l7.1549-4.8154c1.0941-.7364.0642-2.5217-1.0397-1.7787l-7.155 4.8154c-1.094.7363-.0642 2.5217 1.0398 1.7787zm3.8911 15.2091c2.629 1.6268 5.5221 2.5242 8.6047 2.7212 1.3237.0846 1.3186-1.9757 0-2.06-2.7278-.1743-5.2424-1.0027-7.5649-2.4399-1.1306-.6997-2.1663 1.0816-1.0398 1.7787zm-4.4068 13.292l7.3535 6.0303c1.0172.8341 2.4828-.6151 1.4566-1.4566l-7.3535-6.0303c-1.017-.8342-2.4827.6151-1.4566 1.4566zm-28.5758-35.436l8.1545 2.8094c1.2561.4327 1.7957-1.5565.5476-1.9865l-8.1545-2.8094c-1.256-.4327-1.7956 1.5565-.5476 1.9865zm-.4447 15.4383l7.6112-2.5297c1.2519-.4161.7154-2.4062-.5476-1.9864l-7.6112 2.5297c-1.2519.4161-.7154 2.4062.5476 1.9864zm8.1045 11.3347c-1.3288 1.7959-2.9554 3.3479-4.7993 4.6069-1.0884.7431-.0591 2.529 1.0397 1.7787 2.1541-1.4707 3.9879-3.2503 5.5384-5.3458.789-1.0667-.9981-2.0951-1.7788-1.0398z"/>
  </g>
  <g id="pink4">
    <path class="st3" d="M1264.3224 248.4641c-19.7568 19.0965-58.8237 8.7825-66.8458-17.8376-2.8209-9.3617-.0713-21.1161 8.5182-26.3611 8.3395-5.0924 14.5029-9.5258 17.5132-19.8117 2.761-9.4341.2347-19.4813-1.4724-29.1618-1.7073-9.6806-2.3317-20.5112 3.4425-28.4665 9.4277-12.9885 27.3243-13.7011 39.6849-22.5912l13.3242 21.5654c6.4839 10.4944 13.1166 23.5935 7.3185 34.4819-5.6649 10.6384-21.9409 16.0392-20.9341 28.0498.3864 4.6093 3.47 8.4597 5.78 12.4669 8.6226 14.957 6.0841 35.6675-6.3292 47.6659z"/>
    <path class="st1" d="M1258.5586 122.0226c-4.9507 7.8807-8.6882 16.4679-10.9248 25.51-2.408 9.7346-2.5942 19.5937-2.7061 29.5664-.2313 20.6409-4.6709 40.2995-14.8704 58.369-.6525 1.156 1.1265 2.1955 1.7788 1.0397 9.344-16.5541 14.4565-35.0295 15.0518-54.024.337-10.7574-.1154-21.4737 2.1888-32.0656 2.1157-9.7258 5.9707-18.9352 11.2605-27.3559.7074-1.1258-1.0743-2.1608-1.7786-1.0396zm4.9209 19.0202c2.4209-.8506 4.6656-2.0305 6.7096-3.585 1.0415-.7921.0164-2.5819-1.0398-1.7787-1.8994 1.4446-3.9642 2.5857-6.2174 3.3773-1.2426.4365-.7078 2.4274.5476 1.9864zm-.2982 14.7058c3.0427-.1534 6.0109-.6697 8.9205-1.576 1.2617-.393.7231-2.3823-.5476-1.9864-2.7351.852-5.5107 1.3582-8.3729 1.5025-1.3195.0665-1.3273 2.1269 0 2.0599zm-8.8334 16.852c2.0913.7891 4.0135 1.921 5.7205 3.364 1.0065.851 2.4708-.5993 1.4565-1.4566-1.9921-1.6842-4.1888-2.973-6.6294-3.8938-1.2418-.4686-1.7783 1.522-.5476 1.9864zm-15.2335-45.1603c.7404 2.608 2.1581 4.9171 4.1715 6.7357.9817.8866 2.4431-.5658 1.4567-1.4566-1.7606-1.5902-2.9935-3.5432-3.6418-5.8266-.3615-1.2733-2.3499-.7322-1.9865.5475h.0001zm-6.0087 12.2382c.9056 3.7426 4.1915 6.3986 8.0104 6.6294 1.3241.08 1.3195-1.9803 0-2.06-2.9214-.1766-5.3414-2.2967-6.0239-5.117-.3117-1.2879-2.2986-.7426-1.9865.5476zm-1.8707 20.4021c2.9691.6172 6.0237-.7207 7.4701-3.4181.6263-1.1682-1.1514-2.2098-1.7788-1.0397-.9939 1.8536-3.059 2.9047-5.1437 2.4714-1.2937-.269-1.8469 1.7163-.5476 1.9864zm19.2749 49.9765c2.4008-.5694 4.8015-1.1387 7.2021-1.7082 1.2894-.3058.7435-2.2926-.5476-1.9865l-7.2021 1.7082c-1.2894.3059-.7435 2.2928.5476 1.9865zm-1.7943 13.2342c1.6228 2.1178 3.641 3.7923 6.0854 4.8839 1.2002.536 2.2493-1.2386 1.0397-1.7787-2.0992-.9374-3.9425-2.3127-5.3464-4.1449-.7953-1.0381-2.5855-.0132-1.7787 1.0397zm-7.4351 9.5402l4.0868 7.065c.6636 1.1472 2.4445.1111 1.7788-1.0397l-4.0868-7.065c-.6634-1.1472-2.4444-.1111-1.7788 1.0397zm-12.3812-37.2387l5.7029 4.7193c1.014.8392 2.4794-.6104 1.4567-1.4566l-5.7029-4.7193c-1.0142-.8392-2.4794.6103-1.4567 1.4566zm-4.7305 12.4049l6.8784.2659c1.3258.0512 1.3235-2.0089 0-2.06l-6.8784-.2659c-1.3258-.0512-1.3236 2.0088 0 2.06zm3.046 11.2006c-1.684 1.0833-3.4651 1.8531-5.4091 2.3333-1.2864.3178-.7415 2.3049.5477 1.9865 2.0997-.5187 4.0822-1.3709 5.9011-2.541 1.1115-.7149.0797-2.4988-1.0397-1.7788z"/>
  </g>
  <g id="pink1">
    <path class="st3" d="M308.7946 227.3512c-14.7664 31.1335-65.176 36.2625-86.3378 8.5536-7.4418-9.7447-9.4001-24.756-1.6314-34.7026 7.5427-9.6572 12.8216-17.5807 11.8171-30.9831-.9213-12.2925-8.3195-22.972-14.5946-33.5823-6.2751-10.6105-11.7867-23.0486-8.5183-34.9345 5.3362-19.4062 26.03-28.1386 36.6173-44.028l25.1554 19.4362c12.2414 9.4583 25.8067 21.9085 23.8045 37.2481-1.9562 14.9875-18.679 28.5082-12.1982 42.1628 2.4871 5.2402 7.8056 8.3996 12.2854 12.0842 16.7206 13.753 22.8783 39.1843 13.6006 58.7456z"/>
    <path class="st1" d="M246.5226 81.4133c-2.4147 11.762-2.9772 23.8167-1.4658 35.7386 1.5396 12.145 5.5898 23.48 9.7451 34.9248 8.8154 24.2804 12.3321 49.4166 8.3167 75.0806-.2029 1.2969 1.7818 1.8556 1.9864.5476 3.7599-24.0302 1.4152-48.3306-6.5686-71.2831-4.1068-11.8067-8.886-23.3535-10.9052-35.7632-2.0901-12.8453-1.7374-25.9584.878-38.6976.2655-1.2941-1.7197-1.8475-1.9866-.5477zm13.8568 19.8951c2.4464-2.0435 4.5209-4.446 6.2124-7.1466.7057-1.1267-1.0759-2.1619-1.7787-1.0397-1.6027 2.5586-3.5742 4.795-5.8903 6.7296-1.0185.8509.4454 2.3014 1.4566 1.4567zm6.2348 17.3914c3.4859-1.5075 6.6886-3.4462 9.6795-5.783 1.0437-.8153-.4234-2.2639-1.4566-1.4566-2.8441 2.222-5.952 4.0292-9.2626 5.4609-1.2135.5248-.1657 2.3 1.0397 1.7787zm-3.1162 23.7421c2.9552.0106 5.7916.5137 8.5758 1.4987 1.2522.443 1.791-1.5466.5476-1.9864-2.9538-1.0449-5.9915-1.561-9.1235-1.5722-1.3256-.0048-1.3274 2.0552.0001 2.0599zM225.9637 96.168c2.0668 2.803 4.7311 4.8497 7.9728 6.1229 1.2344.4848 1.7696-1.5065.5476-1.9864a15.3285 15.3285 0 0 1-6.7416-5.1762c-.7785-1.0557-2.567-.0294-1.7788 1.0397zm-1.6537 17.0169c2.6685 3.8795 7.4577 5.6422 11.9916 4.2717 1.2657-.3825.7263-2.3715-.5476-1.9864-3.6137 1.0923-7.5096-.1912-9.6653-3.325-.7465-1.0854-2.5326-.0563-1.7787 1.0397zm6.8066 24.7209c3.6799-.5496 6.4001-3.6099 6.8604-7.2325.1666-1.3116-1.8949-1.2995-2.06 0-.3516 2.7675-2.6573 4.8442-5.348 5.2461-1.3067.1951-.7514 2.1804.5476 1.9864zm44.2791 50.2993l7.7007-5.1828c1.0941-.7364.0642-2.5217-1.0397-1.7787l-7.7007 5.1828c-1.0941.7363-.0643 2.5216 1.0397 1.7787zm4.2671 16.3691c2.8177 1.7435 5.9175 2.7069 9.2213 2.918 1.3238.0846 1.3187-1.9757 0-2.06-2.9499-.1885-5.6697-1.0825-8.1816-2.6368-1.1304-.6995-2.1661 1.0818-1.0397 1.7788zm-4.7269 14.3182l7.9144 6.4902c1.0172.8341 2.4829-.6151 1.4566-1.4566l-7.9144-6.4902c-1.0171-.8342-2.4828.6151-1.4566 1.4566zm-30.7902-38.1592l8.7766 3.0237c1.256.4327 1.7956-1.5565.5476-1.9864l-8.7765-3.0237c-1.2561-.4328-1.7957 1.5564-.5477 1.9864zm-.5204 16.6159l8.1917-2.7226c1.2519-.4161.7154-2.4062-.5476-1.9865l-8.1917 2.7226c-1.2519.4163-.7154 2.4064.5476 1.9865zm8.8114 12.3147c-1.4387 1.9444-3.1971 3.6233-5.1935 4.9865-1.0884.7431-.0591 2.5289 1.0397 1.7787 2.3064-1.5747 4.2723-3.4815 5.9326-5.7254.7891-1.0666-.9981-2.095-1.7788-1.0398z"/>
  </g>
  <g id="pink3">
    <path class="st3" d="M928.8461 225.6064c17.0018 35.8467 75.0428 41.7521 99.4083 9.8485 8.5682-11.2199 10.8231-28.5038 1.8782-39.9561-8.6844-11.1192-14.7625-20.2422-13.606-35.6735 1.0607-14.1534 9.579-26.4496 16.804-38.6662 7.2251-12.2167 13.571-26.5378 9.8079-40.2232-6.144-22.344-29.9706-32.3985-42.1608-50.6933L972.014 52.6212c-14.0946 10.8901-29.7134 25.2251-27.4081 42.8869 2.2524 17.2564 21.5068 32.824 14.0448 48.5457-2.8637 6.0335-8.9872 9.6711-14.1453 13.9137-19.2518 15.8351-26.3418 45.1163-15.6594 67.6389h.0001z"/>
    <path class="st1" d="M998.4084 58.1645c4.6702 22.6548 2.5845 45.4357-4.8771 67.2379-3.6254 10.5931-7.8886 20.9627-10.7759 31.7978-2.8124 10.5535-4.5584 21.3965-5.2387 32.2965-.761 12.1943-.112 24.4105 1.7835 36.4757.2051 1.3058 2.1904.7514 1.9864-.5476-3.5359-22.5079-2.4144-45.6507 3.4552-67.6769 2.8874-10.8355 7.1505-21.2044 10.7759-31.7978 3.563-10.4108 6.113-21.0595 7.075-32.0367 1.0644-12.1459.2622-24.3628-2.1978-36.2965-.2675-1.2976-2.2536-.7485-1.9865.5476zm-12.2509 20.751c-2.6766-2.2358-4.9544-4.8233-6.8063-7.78-.7022-1.121-2.4852-.0882-1.7788 1.0397 1.9409 3.0987 4.3215 5.8521 7.1285 8.1969 1.0108.8444 2.4756-.6054 1.4566-1.4566zm-7.6272 19.6777c-3.8251-1.6543-7.4105-3.7447-10.6964-6.3119-1.0328-.8069-2.5007.6409-1.4567 1.4566 3.4324 2.6816 7.113 4.904 11.1134 6.634 1.2042.5208 2.2545-1.2533 1.0397-1.7787zm2.4696 27.0339c-3.5936.0128-7.0739.6057-10.4632 1.8046-1.2412.4391-.7067 2.4301.5477 1.9864 3.2184-1.1385 6.5004-1.7189 9.9155-1.7311 1.3254-.0046 1.328-2.0646 0-2.0599zm41.3033-52.1818c-2.003 2.7165-4.7145 4.7977-7.8554 6.0315-1.22.4792-.6888 2.4721.5476 1.9864 3.6914-1.4499 6.733-3.7863 9.0865-6.9782.7875-1.0679-.9995-2.0965-1.7787-1.0397zm1.904 19.5931c-2.5212 3.6653-7.0736 5.1789-11.3045 3.9001-1.2717-.3844-1.8153 1.6032-.5476 1.9864 5.1496 1.5566 10.5977-.4369 13.6308-4.8467.7531-1.095-1.0313-2.1263-1.7787-1.0398zm-5.3346 27.4449c-3.1732-.4739-5.859-2.9388-6.2722-6.1906-.1648-1.2973-2.2269-1.3138-2.06 0 .5218 4.107 3.6217 7.5553 7.7845 8.177 1.297.1937 1.8564-1.7909.5477-1.9864zm-50.453 58.1374l-8.8665-5.9674c-1.1028-.7422-2.135 1.0415-1.0397 1.7787l8.8665 5.9674c1.1028.7423 2.1351-1.0416 1.0397-1.7787zm-7.15 18.8472c-2.9139 1.8031-6.0748 2.8384-9.4989 3.0573-1.3165.0841-1.326 2.1447 0 2.06 3.7763-.2413 7.3182-1.3457 10.5386-3.3385 1.1253-.6963.0919-2.479-1.0397-1.7788zm4.9941 16.8323l-9.1125 7.4728c-1.0258.8412.4391 2.2911 1.4567 1.4566l9.1125-7.4728c1.0256-.8412-.4392-2.291-1.4567-1.4566zm36.4292-44.5059l-10.1052 3.4815c-1.246.4293-.7106 2.4199.5476 1.9865l10.1052-3.4815c1.246-.4294.7105-2.42-.5476-1.9865zm1.7773 19.1314l-9.4319-3.1348c-1.2609-.4191-1.8016 1.5696-.5476 1.9865l9.4319 3.1348c1.2609.419 1.8016-1.5697.5476-1.9865zm-12.6478 17.4341c1.8947 2.5607 4.143 4.7394 6.7748 6.5362 1.0977.7494 2.1292-1.0348 1.0397-1.7787-2.3223-1.5856-4.3625-3.5357-6.0358-5.7973-.78-1.054-2.5687-.0278-1.7787 1.0398z"/>
  </g>
  <g id="blue3">
    <path class="st4" d="M742.9692 231.5169c13.7198 28.927 60.5569 33.6925 80.2189 7.9474 6.9143-9.054 8.7338-23.0015 1.5157-32.2431-7.0081-8.9728-11.9129-16.3347-10.9796-28.7873.856-11.4213 7.7299-21.3439 13.5601-31.2022 5.8305-9.8584 10.9513-21.4151 7.9146-32.4587-4.9579-18.0308-24.1852-26.1444-34.0222-40.9076l-23.3726 18.0587c-11.3738 8.788-23.9777 20.3558-22.1174 34.6082 1.8176 13.9253 17.3552 26.4878 11.3336 39.1746-2.3109 4.8688-7.2524 7.8042-11.4147 11.2278-15.5352 12.7784-21.2565 36.4072-12.6364 54.5822z"/>
    <path class="st1" d="M798.9118 96.4501c2.4536 11.9826 2.7714 24.3302.7346 36.4026-1.9603 11.6194-6.5053 22.4216-10.3146 33.5023-7.2516 21.0942-9.2828 43.4632-5.8398 65.5099.204 1.3059 2.1893.7514 1.9865-.5476-3.6974-23.6756-.5295-46.9291 7.5898-69.3425 3.8785-10.7066 7.712-21.2929 9.1693-32.6516 1.4308-11.152.914-22.4158-1.3394-33.4208-.2656-1.2978-2.2517-.7485-1.9864.5477zm-9.5536 16.5519c-2.1474-1.7937-3.9756-3.8659-5.4615-6.238-.7021-1.121-2.4852-.0882-1.7787 1.0398 1.5748 2.5142 3.5059 4.7523 5.7835 6.6548 1.0109.8444 2.4756-.6054 1.4567-1.4566zm-6.1951 15.8482c-3.0698-1.3275-5.9541-3.002-8.5915-5.0625-1.0328-.8069-2.5007.6409-1.4565 1.4566 2.7839 2.175 5.7632 3.9812 9.0083 5.3845 1.2041.5209 2.2545-1.2533 1.0397-1.7786zm1.8925 21.7881c-2.9159.0104-5.7464.4906-8.4963 1.4634-1.2412.4391-.7067 2.4301.5477 1.9864 2.5817-.9133 5.2092-1.38 7.9487-1.3898 1.3252-.0047 1.3279-2.0647-.0001-2.06zm33.1584-42.0103a14.1522 14.1522 0 0 1-6.2202 4.7758c-1.2199.4792-.6888 2.4721.5477 1.9864 3.0311-1.1905 5.5189-3.1016 7.4514-5.7225.7873-1.0679-.9996-2.0965-1.7789-1.0397zm1.5365 15.811c-1.9846 2.8851-5.5731 4.0607-8.8978 3.0558-1.2717-.3844-1.8153 1.6032-.5476 1.9864 4.2443 1.283 8.7269-.372 11.2241-4.0025.7531-1.0949-1.0313-2.1263-1.7787-1.0397zm-4.0802 22.0556c-2.4646-.368-4.5927-2.2631-4.9155-4.8039-.1648-1.2973-2.2269-1.3138-2.06 0 .4314 3.3959 2.9741 6.2745 6.4279 6.7903 1.2968.1937 1.8563-1.7909.5476-1.9864zm-40.6663 46.9348l-7.155-4.8154c-1.1027-.7422-2.1349 1.0416-1.0397 1.7787l7.155 4.8155c1.1028.7422 2.1349-1.0416 1.0397-1.7788zm-5.9705 15.2091c-2.3209 1.4361-4.8371 2.2657-7.5649 2.44-1.3165.0841-1.326 2.1447 0 2.06 3.0822-.1969 5.9755-1.0943 8.6046-2.7212 1.1252-.6964.092-2.4791-1.0397-1.7788zm3.9898 13.6141l-7.3535 6.0303c-1.0257.8412.4391 2.291 1.4567 1.4566l7.3535-6.0303c1.0256-.8411-.4392-2.2911-1.4567-1.4566zm29.4848-35.9658l-8.1545 2.8094c-1.246.4292-.7106 2.4199.5476 1.9864l8.1545-2.8094c1.246-.4293.7106-2.4199-.5476-1.9864zm1.54 15.4384l-7.6112-2.5297c-1.2609-.4191-1.8016 1.5696-.5476 1.9865l7.6112 2.5297c1.2608.4189 1.8016-1.5698.5476-1.9865zm-10.4309 14.3607c1.5505 2.0956 3.3843 3.8753 5.5383 5.3458 1.0977.7494 2.1292-1.0348 1.0397-1.7787-1.8439-1.2589-3.4706-2.811-4.7993-4.6069-.7799-1.054-2.5686-.0277-1.7787 1.0398z"/>
  </g>
  <g id="blue1">
    <path class="st4" d="M178.2988 255.1016c12.4901 4.9298 28.9728 2.4598 41.1456-1.3383 3.7536-1.1712 7.5183-2.4535 10.8513-4.5399 3.9004-2.4418 7.0539-5.8849 10.1556-9.2841 8.7626-9.6033 13.5561-15.584 12.8712-28.9321-.563-10.9725-5.8242-21.7595-15.0032-28.0517-5.0284-3.4469-11.0571-5.6695-14.9867-10.3305-9.0981-10.7916-2.2832-26.822.8781-40.5785 7.8063-33.9697-14.0101-72.0974-47.2517-82.5798 4.3364 10.2211.0422 22.1611-6.3842 31.2153-6.4264 9.0541-14.9387 16.5827-20.5583 26.1585-11.0816 18.8833-8.4955 44.7981 6.0993 61.119 5.8426 6.5336 13.7778 12.4487 14.7335 21.1615 1.104 10.0642-7.6503 18.2599-11.0542 27.7951-4.9467 13.8567 3.1396 30.6319 16.021 37.0789a30.906 30.906 0 0 0 2.4827 1.1066z"/>
    <path class="st1" d="M188.8622 84.4488c8.7294 17.6334 2.8861 37.7512.7974 56.2141-1.03 9.1047-1.2981 18.3789.9478 27.3309 2.4822 9.8941 7.4791 18.8796 11.0581 28.3764 4.0614 10.777 6.2468 23.3468.2018 33.817-.6641 1.1502 1.1153 2.1888 1.7787 1.0397 10.7891-18.6871-2.2607-38.8086-8.7401-56.4036-3.7004-10.0486-4.4881-20.218-3.5291-30.8253.9054-10.0148 2.9531-19.8897 3.8103-29.9099.9014-10.5361.209-21.0737-4.5462-30.6791-.5881-1.1881-2.3655-.1455-1.7787 1.0398zm-9.4082 32.2797c-2.6684-2.2019-4.7804-4.8544-6.3219-7.952-.5907-1.1869-2.3682-.1447-1.7787 1.0397 1.6113 3.2375 3.8544 6.0669 6.6441 8.3688 1.0148.8377 2.4803-.6117 1.4565-1.4565zm-6.9252 14.2393c-2.476 1.0171-4.9866 1.1052-7.5179.2314-1.2558-.4335-1.7953 1.5557-.5476 1.9864 2.8314.9774 5.841.9073 8.6132-.2314 1.2094-.4968.6797-2.4906-.5477-1.9864zm1.524 21.4851c-1.9124 2.9689-4.6739 5.1923-7.9958 6.4002-1.2361.4494-.7025 2.4409.5476 1.9865 3.8459-1.3983 7.0092-3.904 9.2269-7.3468.72-1.118-1.0624-2.1519-1.7787-1.0399zm32.9013-48.6329c-1.4693 2.5842-3.5067 4.6846-6.053 6.2203-1.1339.6838-.0996 2.4658 1.0397 1.7787 2.8382-1.7117 5.1534-4.0774 6.792-6.9594.6562-1.154-1.1228-2.1932-1.7787-1.0396zm4.5858 19.0015c-2.2728 1.9826-5.0272 3.13-8.0362 3.3447-1.3148.0938-1.325 2.1545 0 2.06 3.5784-.2553 6.7892-1.5898 9.4928-3.9481 1.001-.873-.4611-2.325-1.4566-1.4566z"/>
    <path class="st1" d="M209.6939 144.5826c-2.833.1648-5.4159-.7781-7.441-2.7772-.9444-.9323-2.402.5234-1.4566 1.4566 2.3821 2.3516 5.5496 3.5753 8.8976 3.3806 1.3178-.0767 1.3266-2.1372 0-2.06zm-16.8355 54.7244c-4.4315-.7973-8.4669-2.4596-12.1718-5.0186-1.0934-.7553-2.1245 1.0294-1.0397 1.7787 3.8315 2.6465 8.0811 4.4018 12.6638 5.2263 1.2963.2332 1.8525-1.7517.5477-1.9864zm-4.286 12.9895l-10.4112 2.2659c-1.2948.2818-.7468 2.2681.5476 1.9864l10.4112-2.2659c1.2949-.2817.747-2.2681-.5476-1.9864zm2.5965 15.4874l-9.4237 4.6956c-1.1866.5913-.1445 2.3688 1.0397 1.7787l9.4237-4.6956c1.1867-.5913.1444-2.3687-1.0397-1.7787zm27.9414-39.4186l-7.1268 5.8834c-1.0232.8447.4413 2.2948 1.4566 1.4566l7.1268-5.8834c1.0232-.8446-.4413-2.2947-1.4566-1.4566zm3.8412 15.8548l-7.8458 4.5258c-1.148.6622-.1119 2.443 1.0397 1.7787l7.8458-4.5258c1.1481-.6621.1118-2.4429-1.0397-1.7787zm1.224 23.4025c-3.777-.1965-7.2345-1.5806-10.0951-4.0609-.9974-.8648-2.4605.5863-1.4566 1.4566 3.2845 2.8478 7.2073 4.4382 11.5517 4.6643 1.325.0689 1.3212-1.9913 0-2.06z"/>
  </g>
  <g id="blue2">
    <path class="st5" d="M667.5538 250.5698c9.5967 9.392 25.7455 13.5146 38.438 14.74 3.9139.3779 7.8811.6578 11.7626.0288 4.5424-.736 8.7852-2.6848 12.9633-4.6134 11.8035-5.4483 18.5428-9.099 23.0936-21.6661 3.7408-10.3305 3.08-22.3139-2.9364-31.676-3.2958-5.1287-7.989-9.5174-9.8008-15.3383-4.195-13.4772 8.3087-25.6046 16.5624-37.055 20.3817-28.2749 15.078-71.8817-11.4869-94.4468.0283 11.1029-8.5643 20.4395-18.0017 26.2885-9.4374 5.8491-20.2047 9.4827-29.101 16.1258-17.5433 13.1002-25.2205 37.9864-18.1064 58.6932 2.848 8.2894 7.8644 16.8211 5.3627 25.2216-2.8898 9.7034-14.139 13.8578-20.9778 21.3237-9.9381 10.8495-8.9983 29.4483.3699 40.3904.59.6882 1.2101 1.35 1.8585 1.9836z"/>
    <path class="st1" d="M743.5302 97.2686c1.1791 18.8569-10.9065 34.5737-19.8503 50.0761-4.3782 7.5886-8.4099 15.5648-10.3042 24.1774-2.463 11.1976-1.0684 22.6918-1.4925 34.0388-.4255 11.3834-3.2696 23.9108-12.8393 31.1334-1.045.7888-.0197 2.5783 1.0398 1.7787 17.8651-13.4833 12.7811-38.0525 14.046-57.3329 1.384-21.0999 15.0988-37.0345 24.3362-55.129 4.5751-8.9618 7.7605-18.5706 7.1245-28.7425-.0825-1.3168-2.1431-1.3261-2.0602 0zm-21.2579 26.098c-1.55-2.9883-2.4412-6.1584-2.666-9.5173-.088-1.3158-2.1487-1.3256-2.06 0 .2492 3.7235 1.229 7.2443 2.9471 10.557.6107 1.1773 2.3889.1367 1.7789-1.0397zm-11.9786 10.557c-2.5556-.0148-4.8932-.9001-6.7945-2.6162-.982-.8863-2.4433.5661-1.4567 1.4566 2.3029 2.0785 5.1448 3.2016 8.2512 3.2196 1.3258.0076 1.3273-2.0524 0-2.06zm-6.7052 20.335c-3.0424 2.0575-6.4124 3.0151-10.0845 2.8507-1.3254-.0593-1.3226 2.0008 0 2.06 3.9951.1788 7.8108-.8912 11.1241-3.132 1.0923-.7386.0626-2.5241-1.0396-1.7787zm49.2008-32.0457c-2.4475 1.8663-5.1862 3.0229-8.2311 3.4758-1.3066.1944-.7513 2.1796.5477 1.9864 3.1956-.4753 6.1536-1.7242 8.723-3.6835 1.0406-.7933.0154-2.5832-1.0396-1.7787zm-3.1338 19.3172c-2.9866.9759-5.9694.9595-8.945-.0421-1.2593-.4239-1.7996 1.5651-.5476 1.9864 3.2931 1.1085 6.7386 1.1209 10.0402.0421 1.2547-.4099.7176-2.3998-.5476-1.9864z"/>
    <path class="st1" d="M739.2657 160.8631c-2.5287-.8778-4.6013-2.8022-5.6139-5.2895-.4933-1.2116-2.487-.6817-1.9864.5476 1.304 3.2028 3.7773 5.5913 7.0527 6.7282 1.2549.4357 1.7942-1.5536.5476-1.9863zm-36.752 43.8601c-3.6854-2.3766-6.7428-5.4654-9.0858-9.172-.7065-1.1177-2.4899-.0853-1.7789 1.0397 2.5321 4.0057 5.8423 7.3428 9.8249 9.911 1.1175.7206 2.1515-1.0619 1.0398-1.7787zm-8.7339 10.4156l-10.4743-1.9536c-1.2958-.2417-1.8512 1.7433-.5476 1.9865l10.4742 1.9536c1.2959.2416 1.8513-1.7434.5477-1.9865zm-3.6264 15.2437l-10.5075.6689c-1.3165.0838-1.326 2.1444 0 2.06l10.5075-.6689c1.3166-.0839 1.326-2.1444 0-2.06zm41.0337-25.5104l-8.8519 2.6553c-1.2667.3799-.7271 2.3688.5476 1.9865l8.8519-2.6553c1.2666-.38.7271-2.3688-.5476-1.9865zm-2.596 16.1333l-8.9874 1.1249c-1.298.1625-1.3143 2.2245 0 2.06l8.9874-1.1249c1.298-.1625 1.3143-2.2246 0-2.06zm-7.971 22.1105c-3.505-1.6691-6.2172-4.3592-7.9114-7.8527-.5784-1.1925-2.3553-.1492-1.7787 1.0397 1.8297 3.7727 4.8645 6.7889 8.6505 8.5918 1.1907.567 2.2372-1.2085 1.0396-1.7788z"/>
  </g>
  <g id="blue5">
    <path class="st5" d="M1000.0051 250.5698c9.5966 9.392 25.7455 13.5146 38.438 14.74 3.9139.3779 7.8811.6578 11.7626.0288 4.5425-.736 8.7854-2.6848 12.9634-4.6134 11.8035-5.4483 18.5428-9.099 23.0936-21.6661 3.7408-10.3305 3.08-22.3139-2.9364-31.676-3.2959-5.1287-7.9889-9.5174-9.8008-15.3383-4.1951-13.4772 8.3086-25.6046 16.5624-37.055 20.3816-28.2749 15.078-71.8817-11.4869-94.4468.0283 11.1029-8.5643 20.4395-18.0017 26.2885-9.4375 5.8491-20.2047 9.4827-29.101 16.1258-17.5433 13.1002-25.2206 37.9864-18.1066 58.6932 2.848 8.2894 7.8645 16.8211 5.3629 25.2216-2.8898 9.7034-14.139 13.8578-20.9778 21.3237-9.9382 10.8495-8.9984 29.4483.3699 40.3904.59.6882 1.2101 1.35 1.8584 1.9836z"/>
    <path class="st1" d="M1075.9814 97.2686c1.1792 18.8569-10.9065 34.5737-19.8503 50.0761-4.3782 7.5886-8.4098 15.5648-10.3042 24.1774-2.463 11.1976-1.0684 22.6918-1.4924 34.0388-.4254 11.3834-3.2697 23.9108-12.8394 31.1334-1.045.7888-.0197 2.5783 1.0398 1.7787 17.865-13.4833 12.7811-38.0525 14.0459-57.3329 1.3839-21.0999 15.0989-37.0345 24.3362-55.129 4.5751-8.9618 7.7605-18.5706 7.1245-28.7425-.0824-1.3168-2.1429-1.3261-2.0601 0zm-21.2578 26.098c-1.5499-2.9883-2.441-6.1584-2.6659-9.5173-.088-1.3158-2.1488-1.3256-2.0599 0 .2491 3.7235 1.2289 7.2443 2.9471 10.557.6106 1.1773 2.3891.1367 1.7787-1.0397zm-11.9785 10.557c-2.5558-.0148-4.8933-.9001-6.7946-2.6162-.9819-.8863-2.4432.5661-1.4567 1.4566 2.3029 2.0785 5.1448 3.2016 8.2512 3.2196 1.3258.0076 1.3274-2.0524.0001-2.06zm-6.7052 20.335c-3.0425 2.0575-6.4124 3.0151-10.0846 2.8507-1.3254-.0593-1.3225 2.0008 0 2.06 3.9951.1788 7.8107-.8912 11.1243-3.132 1.0922-.7386.0625-2.5241-1.0397-1.7787zm49.2008-32.0457c-2.4475 1.8663-5.1863 3.0229-8.2311 3.4758-1.3068.1944-.7513 2.1796.5476 1.9864 3.1957-.4753 6.1537-1.7242 8.7231-3.6835 1.0404-.7933.0154-2.5832-1.0396-1.7787zm-3.1339 19.3172c-2.9866.9759-5.9692.9595-8.9451-.0421-1.2592-.4239-1.7994 1.5651-.5476 1.9864 3.2932 1.1085 6.7388 1.1209 10.0404.0421 1.2547-.4099.7177-2.3998-.5477-1.9864z"/>
    <path class="st1" d="M1071.717 160.8631c-2.5288-.8778-4.6012-2.8022-5.6139-5.2895-.4934-1.2116-2.4869-.6817-1.9865.5476 1.3041 3.2028 3.7773 5.5913 7.0526 6.7282 1.2552.4357 1.7946-1.5536.5479-1.9863h-.0001zm-36.752 43.8601c-3.6853-2.3766-6.7427-5.4654-9.0857-9.172-.7064-1.1177-2.4899-.0853-1.7787 1.0397 2.532 4.0057 5.8423 7.3428 9.8247 9.911 1.1174.7206 2.1514-1.0619 1.0397-1.7787zm-8.7339 10.4156l-10.4741-1.9536c-1.2959-.2417-1.8513 1.7433-.5477 1.9865l10.4742 1.9536c1.2959.2416 1.8513-1.7434.5476-1.9865zm-3.6264 15.2437l-10.5074.6689c-1.3166.0838-1.326 2.1444 0 2.06l10.5074-.6689c1.3166-.0839 1.326-2.1444 0-2.06zm41.0337-25.5104l-8.8519 2.6553c-1.2666.3799-.7269 2.3688.5477 1.9865l8.8518-2.6553c1.2666-.38.7271-2.3688-.5476-1.9865zm-2.5959 16.1333l-8.9874 1.1249c-1.2981.1625-1.3143 2.2245 0 2.06l8.9874-1.1249c1.298-.1625 1.3142-2.2246 0-2.06zm-7.9711 22.1105c-3.505-1.6691-6.2172-4.3592-7.9114-7.8527-.5784-1.1925-2.3553-.1492-1.7787 1.0397 1.8295 3.7727 4.8645 6.7889 8.6504 8.5918 1.1908.567 2.2373-1.2085 1.0397-1.7788z"/>
  </g>
  <g id="blue4">
    <path class="st5" d="M915.8323 258.5485c21.9417-5.4271 47.9142-28.4784 41.7775-53.6097-3.3282-13.6279-15.0458-24.9286-14.919-38.9564.1415-15.6548 14.8546-27.3122 18.967-42.4178 3.2133-11.8028-.5228-24.663-7.3755-34.7958s-16.5426-17.9714-26.3349-25.3023c1.0078 10.4456-5.3248 20.1935-12.5469 27.807-7.2222 7.6135-15.7302 14.2649-20.9323 23.3789-6.8275 11.9617-6.8499 27.52-.0569 39.5012 3.2804 5.7858 8.106 11.0133 9.0853 17.5919 1.6614 11.16-8.027 20.2684-14.7472 29.3318-7.066 9.5298-11.4828 21.5327-9.8018 33.2767 1.6809 11.744 10.3953 22.7858 22.0437 25.0358 4.9037.9471 9.9927.3579 14.841-.8413z"/>
    <path class="st1" d="M935.2086 84.3836c-1.3267 12.9936-6.3196 25.345-8.4025 38.2336-1.8429 11.4036-2.5834 22.9455-3.2341 34.4673-1.3693 24.2454-2.371 49.1914-12.9266 71.5307-.5633 1.1921 1.2122 2.2389 1.7788 1.0397 10.3754-21.9581 11.743-46.3347 13.075-70.1969.6987-12.5172 1.398-25.0761 3.4848-37.4548 2.1369-12.6753 6.9767-24.8108 8.2845-37.6196.1346-1.3176-1.9262-1.3082-2.0599 0zm-15.0599 29.5138c-1.6991-3.4079-3.8284-6.5281-6.3565-9.3742-.8822-.9932-2.3348.468-1.4567 1.4566 2.4143 2.7181 4.413 5.7052 6.0344 8.9573.5916 1.1865 2.3692.1444 1.7788-1.0397zm-5.3805 14.439c-2.9457-2.8551-6.1651-5.3757-9.6414-7.5533-1.1267-.7058-2.1618 1.0758-1.0397 1.7787 3.331 2.0866 6.4023 4.4959 9.2244 7.2311.9524.9233 2.4107-.5318 1.4567-1.4565zm-1.2325 16.0813l-10.8402-.8851c-1.3214-.1079-1.3142 1.9527 0 2.06l10.8402.8851c1.3214.108 1.3143-1.9526 0-2.06zm32.4851-41.9876c-3.1146 1.7055-5.9867 3.7678-8.6113 6.1587-.9822.8947.4778 2.3482 1.4566 1.4566 2.4984-2.2757 5.2312-4.2139 8.1945-5.8365 1.163-.6369.1247-2.4164-1.0398-1.7788zm-4.3228 21.5397l9.1551-.687c1.3138-.0986 1.3245-2.1594 0-2.06l-9.1551.687c-1.3138.0986-1.3245 2.1594 0 2.06zm-8.5235 11.5661c3.1199 1.4673 6.4113 1.8403 9.7757 1.0661 1.2914-.2972.7449-2.2839-.5476-1.9864-2.7917.6424-5.5916.363-8.1884-.8584-1.1928-.561-2.2398 1.2143-1.0397 1.7787zm-25.9422 65.744c-.2954-2.3294-1.5165-4.3221-3.5472-5.5381-1.1401-.6828-2.1772 1.0976-1.0397 1.7787 1.3503.8085 2.3265 2.1792 2.527 3.7594.1645 1.2974 2.2265 1.3138 2.0599 0zm-2.568 11.5905c-2.0392-1.9737-4.2469-3.7483-6.6064-5.325-1.1053-.7386-2.1379 1.045-1.0397 1.7787 2.2161 1.4809 4.2746 3.1495 6.1895 5.0029.9531.9225 2.4114-.5325 1.4566-1.4566zm-6.0884 12.4609l-7.0652-1.0614c-1.2969-.1948-1.8562 1.7898-.5476 1.9865l7.0652 1.0614c1.2968.1947 1.8563-1.7899.5476-1.9865zm40.5305-40.7595c-1.5775 1.6594-3.4496 2.9635-5.5837 3.8042-1.2194.4804-.6883 2.4733.5476 1.9865 2.473-.9742 4.6583-2.4043 6.4927-4.334.9133-.9608-.5409-2.4198-1.4566-1.4567zm3.655 13.2161c-2.5046 2.9122-5.7945 4.6805-9.5961 5.1977-1.3076.1778-.7508 2.163.5477 1.9864 4.1141-.5596 7.7992-2.5813 10.505-5.7274.8604-1.0004-.5903-2.4639-1.4566-1.4567zm-.0757 19.2463c-4.481 1.3463-9.0424 1.1448-13.3516-.7165-1.2043-.5202-2.2547 1.2539-1.0397 1.7787 4.8253 2.0842 9.8922 2.4405 14.939.9241 1.2665-.3804.7269-2.3692-.5477-1.9863z"/>
  </g>
  <g id="violet3">
    <path class="st6" d="M643.0591 260.4911c26.483-6.5502 57.8312-34.3726 50.4243-64.7053-4.017-16.4485-18.1599-30.088-18.0068-47.0193.1708-18.8949 17.929-32.965 22.8926-51.1971 3.8784-14.2457-.631-29.7676-8.902-41.9975s-19.9664-21.691-31.7855-30.5392c1.2164 12.6076-6.4268 24.373-15.1439 33.5622-8.7169 9.1893-18.9858 17.2174-25.2645 28.2176-8.2405 14.4374-8.2676 33.2158-.0687 47.6769 3.9592 6.9833 9.7837 13.2928 10.9657 21.2329 2.0052 13.4699-9.6884 24.4633-17.7996 35.4026-8.5285 11.5023-13.8593 25.9894-11.8305 40.1641 2.0289 14.1747 12.5468 27.5018 26.6061 30.2174 5.9188 1.1432 12.061.432 17.9128-1.0153z"/>
    <path class="st1" d="M666.659 50.2791c-1.2465 12.4145-5.6634 24.165-8.2889 36.302-2.3096 10.6763-3.6078 21.5484-4.4999 32.4263-1.8749 22.8596-1.8604 45.9402-5.7177 68.6028-2.1646 12.7167-5.6353 25.1802-11.1694 36.8599-.5647 1.1917 1.2108 2.2383 1.7788 1.0397 20.0092-42.2288 12.1401-90.2466 20.8832-134.924 2.6469-13.5251 7.6919-26.5398 9.074-40.3066.1322-1.318-1.9287-1.3088-2.0601-.0001zM648.0848 86.009c-2.0428-4.0973-4.5994-7.8494-7.6388-11.2712-.8822-.9932-2.3347.468-1.4566 1.4566 2.926 3.2942 5.3516 6.913 7.3166 10.8543.5916 1.1865 2.3692.1443 1.7788-1.0397zm-6.4608 17.4706c-3.5428-3.434-7.4125-6.4641-11.5936-9.0832-1.1268-.7058-2.1619 1.0758-1.0398 1.7787 4.0352 2.5277 7.7581 5.4475 11.1767 8.7611.9525.9232 2.4108-.5318 1.4567-1.4566zm-1.3368 19.4722l-13.0837-1.0683c-1.3214-.1079-1.3142 1.9527 0 2.06l13.0837 1.0683c1.3214.1079 1.3144-1.9527 0-2.06zm39.3161-50.707c-3.744 2.05-7.1957 4.5261-10.3506 7.4-.9822.8947.4779 2.3482 1.4566 1.4566 3.0285-2.7587 6.3416-5.1109 9.9336-7.0779 1.1633-.6369.125-2.4164-1.0396-1.7787zm-5.325 25.6004l11.05-.8292c1.3138-.0986 1.3246-2.1594 0-2.06l-11.05.8292c-1.3138.0986-1.3246 2.1595 0 2.06zm-10.1801 13.9892c3.7118 1.7457 7.6331 2.1861 11.6348 1.2652 1.2914-.2972.7448-2.2839-.5476-1.9864-3.4287.789-6.8591.442-10.0474-1.0575-1.1928-.5611-2.2397 1.2142-1.0398 1.7787zm-31.6322 79.5351c-.3469-2.7344-1.7949-5.0745-4.1758-6.5002-1.1403-.6828-2.1772 1.0976-1.0398 1.7787 1.7004 1.0182 2.9038 2.7366 3.1556 4.7215.1646 1.2974 2.2266 1.3138 2.06 0zm-3.037 14.1403c-2.4487-2.3699-5.0975-4.5006-7.9306-6.3938-1.1053-.7387-2.1378 1.045-1.0397 1.7787 2.6895 1.7972 5.1896 3.8223 7.5137 6.0716.953.9225 2.4114-.5325 1.4566-1.4565zm-7.2545 15.0946l-8.5276-1.2811c-1.2968-.1948-1.8562 1.7899-.5476 1.9865l8.5276 1.2811c1.2969.1948 1.8562-1.7899.5476-1.9865zm49.1265-49.2503c-1.9306 2.0307-4.2228 3.6179-6.8335 4.6463-1.2194.4804-.6883 2.4733.5476 1.9865 2.9501-1.1622 5.5547-2.8749 7.7425-5.1761.9134-.9608-.5409-2.4199-1.4566-1.4567zm4.4117 15.9514c-3.0438 3.539-7.0562 5.6998-11.6763 6.3283-1.3076.1778-.7507 2.163.5476 1.9864 4.9345-.6711 9.3398-3.0843 12.5853-6.858.8604-1.0004-.5904-2.4639-1.4566-1.4567zm-.1857 23.2846c-5.4678 1.6428-11.0238 1.3837-16.2792-.8862-1.2045-.5202-2.2548 1.2539-1.0398 1.7787 5.7708 2.4925 11.8336 2.9065 17.8666 1.0939 1.2665-.3805.727-2.3693-.5476-1.9864z"/>
  </g>
  <g id="violet4">
    <path class="st6" d="M1172.9047 260.1185c26.8401-4.8856 59.8628-30.6982 54.3624-61.4338-2.983-16.6671-16.2476-31.1622-15.0387-48.051 1.3491-18.8474 19.9504-31.7824 26.0417-49.6693 4.7595-13.976 1.2271-29.749-6.2649-42.471s-18.5745-22.8942-29.8186-32.4625c.4275 12.6588-7.9346 23.9246-17.2079 32.5522s-20.0228 15.9995-26.9756 26.5867c-9.1251 13.8952-10.3235 32.6354-3.0427 47.5797 3.516 7.2167 8.9355 13.8772 9.6199 21.8756 1.1611 13.5688-11.1954 23.8113-19.9731 34.2234-9.2295 10.9479-15.4536 25.0742-14.3129 39.3478 1.1406 14.2736 10.8068 28.2309 24.6693 31.8182 5.8358 1.5102 12.0104 1.1836 17.9411.104z"/>
    <path class="st1" d="M1209.6063 51.5786c-2.0291 12.3778-7.1625 23.8809-10.5643 35.8909-3.0925 10.9173-5.0981 22.109-6.6917 33.3332-3.1599 22.2571-4.6519 44.8171-9.7876 66.7539-2.9576 12.6334-7.2197 24.9097-13.5096 36.2867-.6418 1.1611 1.1366 2.2014 1.7788 1.0397 22.3391-40.4062 17.8439-88.2722 28.8596-131.873 3.4777-13.7655 9.597-26.8278 11.9012-40.8836.2127-1.2971-1.7719-1.8549-1.9864-.5478zm-20.8321 34.6546c-1.7867-4.2248-4.1095-8.1053-6.9342-11.7162-.816-1.0432-2.2646.4238-1.4567 1.4566 2.71 3.464 4.9 7.2509 6.6121 11.2992.5145 1.2171 2.2895.1683 1.7788-1.0396zm-7.5514 17.0433c-3.3223-3.6513-7.0031-6.9016-11.0149-9.7761-1.0795-.7734-2.1091 1.0125-1.0397 1.7787 3.8694 2.7724 7.3951 5.9341 10.5979 9.454.8942.9827 2.3475-.4774 1.4567-1.4566zm-2.2953 19.4325l-12.9917-1.8824c-1.2966-.1879-1.8566 1.7967-.5476 1.9864l12.9917 1.8824c1.2966.1879 1.8567-1.7967.5476-1.9864zm42.1366-48.1598c-3.8708 1.8175-7.448 4.0789-10.7823 6.7532-1.0342.8294.4318 2.2787 1.4565 1.4566 3.1936-2.5613 6.6615-4.6921 10.3655-6.4311 1.1991-.563.1545-2.3395-1.0397-1.7787zm-6.7909 25.1897l11.0801-.1384c1.3247-.0165 1.3282-2.0766 0-2.06l-11.0801.1384c-1.3246.0166-1.3283 2.0766 0 2.06zm-11.0427 13.359c3.5906 1.9782 7.5046 2.6126 11.5413 1.9392 1.3047-.2177.7513-2.2031-.5476-1.9864-3.4722.5793-6.8776-.0366-9.9539-1.7315-1.1619-.6402-2.2024 1.1381-1.0398 1.7787zm-36.5845 77.3087c-.1796-2.7627-1.5398-5.1483-3.8186-6.7179-1.0945-.7538-2.1257 1.0308-1.0397 1.7787 1.6476 1.1349 2.6686 2.9443 2.7983 4.9392.0856 1.3162 2.1462 1.3258 2.0601 0h-.0001zm-3.9592 13.9406c-2.2986-2.5224-4.8134-4.7954-7.5267-6.8633-1.0541-.8034-2.0813.9848-1.0397 1.7787 2.5693 1.9582 4.9346 4.1543 7.1099 6.5412.8947.982 2.3482-.4781 1.4565-1.4566zm-8.1994 14.6406l-8.431-1.8105c-1.2926-.2776-1.8451 1.7078-.5476 1.9865l8.431 1.8105c1.2929.2775 1.8452-1.7079.5476-1.9865zm52.1177-46.0269c-2.0634 1.9129-4.449 3.3143-7.1257 4.1821-1.2557.4072-.7185 2.3969.5477 1.9865 3.0159-.9779 5.7095-2.5563 8.0347-4.712.9742-.9032-.4851-2.3573-1.4567-1.4566zm3.408 16.1955c-3.1876 3.262-7.2333 5.1843-11.79 5.5219-1.3141.0973-1.3247 2.1581 0 2.06 5.0894-.377 9.6748-2.4701 13.2467-6.1253.9272-.9487-.5281-2.4067-1.4567-1.4566zm-1.6534 23.1989c-5.5575 1.3076-11.1005.6444-16.1842-1.9493-1.1786-.6013-2.2223 1.1754-1.0397 1.7787 5.5897 2.8519 11.6637 3.594 17.7716 2.157 1.2901-.3035.7438-2.2903-.5477-1.9864z"/>
  </g>
  <g id="violet1">
    <path class="st6" d="M141.6497 260.4911c-26.483-6.5502-57.8312-34.3726-50.4242-64.7053 4.017-16.4485 18.1599-30.088 18.0068-47.0193-.1708-18.8949-17.929-32.965-22.8927-51.1971-3.8784-14.2457.6311-29.7676 8.902-41.9975s19.9664-21.691 31.7855-30.5392c-1.2164 12.6076 6.4268 24.373 15.1438 33.5622 8.717 9.1893 18.9858 17.2174 25.2645 28.2176 8.2406 14.4374 8.2677 33.2158.0687 47.6769-3.9593 6.9833-9.7837 13.2928-10.9657 21.2329-2.0052 13.4699 9.6884 24.4633 17.7995 35.4026 8.5285 11.5023 13.8594 25.9894 11.8305 40.1641-2.0289 14.1747-12.5468 27.5018-26.6061 30.2174-5.9186 1.1432-12.0608.432-17.9126-1.0153z"/>
    <path class="st1" d="M115.9898 50.2791c1.2271 12.2223 5.4435 23.7732 8.1099 35.7009 2.6023 11.6408 3.9543 23.5148 4.8666 35.3953 1.7393 22.6496 1.8481 45.5014 5.8021 67.9287 2.2047 12.5052 5.7336 24.7145 11.1786 36.2059.5673 1.1974 2.3439.1531 1.7787-1.0397-19.7157-41.6093-12.1129-89.1852-20.4532-133.2762-2.5983-13.7362-7.8217-26.96-9.2228-40.9147-.131-1.3068-2.1924-1.3203-2.0599-.0002zm22.413 36.7696c1.965-3.9413 4.3907-7.5602 7.3166-10.8543.8778-.9882-.5741-2.4502-1.4566-1.4566-3.0395 3.4219-5.5958 7.1738-7.6387 11.2712-.5898 1.1829 1.1864 2.2275 1.7787 1.0397zm6.1386 17.8875c3.4189-3.3138 7.1417-6.2336 11.1767-8.7611 1.1209-.7022.0881-2.4852-1.0397-1.7787-4.1812 2.6192-8.0508 5.6493-11.5936 9.0832-.9537.9244.5038 2.3802 1.4566 1.4566zm-.1198 20.0756l13.0838-1.0683c1.3121-.1071 1.3235-2.1681 0-2.06l-13.0838 1.0683c-1.3121.1071-1.3236 2.1681 0 2.06zm-40.3559-50.9883c3.5925 1.9672 6.9051 4.3191 9.9336 7.0779.9783.8912 2.4392-.5615 1.4566-1.4566-3.155-2.874-6.6066-5.3499-10.3505-7.4-1.1634-.637-2.2041 1.1411-1.0397 1.7787zm6.3648 21.7617l-11.05-.8292c-1.3224-.0992-1.316 1.9613 0 2.06l11.05.8292c1.3224.0993 1.316-1.9612 0-2.06zm9.1403 14.2704c-3.1888 1.4997-6.6169 1.847-10.0474 1.0575-1.2903-.2969-1.8411 1.6888-.5476 1.9864 4.0011.9208 7.9224.4809 11.6348-1.2652 1.1987-.5638.1542-2.3402-1.0398-1.7787zm34.732 81.3139c.2519-1.986 1.4549-3.7031 3.1555-4.7214 1.1362-.6804.1016-2.4622-1.0397-1.7787-2.3819 1.4263-3.829 3.7656-4.1758 6.5002-.1664 1.3116 1.8952 1.2994 2.06-.0001zm2.4337 15.5969c2.3242-2.2495 4.8242-4.2744 7.5137-6.0717 1.0969-.733.0667-2.5181-1.0398-1.7787-2.8331 1.8932-5.4819 4.0239-7.9306 6.3938-.9544.9236.5032 2.3793 1.4567 1.4566zm6.3454 15.6245l8.5276-1.2811c1.3065-.1963.7514-2.1815-.5476-1.9865l-8.5276 1.2811c-1.3066.1963-.7514 2.1815.5476 1.9865zm-51.1308-49.7802c2.1877 2.3012 4.7921 4.0138 7.7425 5.1762 1.2338.486 1.7689-1.5053.5476-1.9865-2.6113-1.0287-4.9029-2.6156-6.8335-4.6463-.9152-.9628-2.3703.4955-1.4566 1.4566zm-4.4115 15.9515c3.2453 3.7734 7.6506 6.1868 12.5853 6.858 1.2964.1763 1.8573-1.8083.5476-1.9864-4.6214-.6286-8.6338-2.7907-11.6763-6.3283-.8659-1.0068-2.3174.4559-1.4566 1.4567zm1.0945 23.8143c6.0324 1.8125 12.095 1.399 17.8666-1.0939 1.2137-.5242.1658-2.2994-1.0398-1.7787-5.2483 2.2669-10.8151 2.528-16.2793.8862-1.2723-.3823-1.816 1.6053-.5475 1.9864z"/>
  </g>
  <g id="violet2">
    <path class="st6" d="M364.9429 254.3354c12.0827 5.8579 28.7047 4.6384 41.1293 1.7693 3.8314-.8847 7.6819-1.8793 11.1628-3.7084 4.0735-2.1405 7.4778-5.336 10.827-8.4915 9.4621-8.9149 14.693-14.517 15.017-27.8788.2663-10.9837-4.1661-22.1368-12.8443-29.1035-4.7541-3.8164-10.598-6.4875-14.1647-11.4315-8.2581-11.4472-.2533-26.9178 3.9366-40.3966 10.3466-33.2841-8.5315-72.9488-40.8876-85.909 3.5531 10.5191-1.6296 22.1012-8.7208 30.6447s-16.147 15.4085-22.473 24.5332c-12.4745 17.9935-11.8507 44.0296 1.4713 61.4049 5.3332 6.9558 12.7995 13.4526 13.0952 22.2127.3415 10.1189-9.0059 17.6308-13.1195 26.882-5.9779 13.4441.8199 30.7815 13.1783 38.1818a30.9958 30.9958 0 0 0 2.3924 1.2907z"/>
    <path class="st1" d="M388.2825 84.7882c7.4711 18.481.0147 38.1404-3.4474 56.6454-1.637 8.7496-2.5631 17.6989-1.1171 26.5437 1.7052 10.4301 6.2365 20.0826 9.1325 30.1864 3.1279 10.913 4.1418 23.3594-2.5685 33.1718-.7502 1.0971 1.0341 2.1286 1.7787 1.0397 12.0698-17.6495.7329-38.6975-4.4141-56.544-3.0381-10.5344-3.0675-20.9046-1.2208-31.6501 1.7024-9.9055 4.4803-19.596 6.0463-29.527 1.6165-10.2519 1.7418-20.6549-2.2033-30.4135-.4904-1.2134-2.4839-.6832-1.9863.5476zm-11.8022 31.5985c-2.4173-2.3283-4.3141-5.0605-5.584-8.1717-.4943-1.2111-2.4879-.6812-1.9864.5476 1.4079 3.4493 3.4276 6.4934 6.1138 9.0807.955.92 2.4136-.5348 1.4566-1.4566zm-8.0025 13.7511c-2.4191.7862-4.9161.7418-7.2664-.2738-1.2043-.5204-2.2547 1.2537-1.0398 1.7787 2.8619 1.2367 5.8735 1.4501 8.8537.4815 1.2556-.408.7184-2.3978-.5475-1.9864zm-.0672 21.5866c-2.1363 2.8184-5.0954 4.7767-8.4898 5.7309-1.2743.3582-.7329 2.3464.5476 1.9864 3.9522-1.1111 7.2471-3.4141 9.7209-6.6776.8008-1.0564-.9871-2.0839-1.7787-1.0397zm36.4763-46.0124c-1.6615 2.4649-3.8827 4.3787-6.5319 5.7171-1.1835.5979-.1419 2.3757 1.0398 1.7787 2.9661-1.4984 5.416-3.7043 7.2709-6.4561.7428-1.1022-1.041-2.1343-1.7788-1.0397zm3.3326 19.1196c-2.5151 1.8745-5.3506 2.8436-8.4948 2.8342-1.3256-.0039-1.3275 2.056 0 2.06 3.4701.0103 6.7484-1.0391 9.5344-3.1155 1.0509-.7832.025-2.5721-1.0396-1.7787z"/>
    <path class="st1" d="M404.508 146.4966c-2.8451-.0495-5.3231-1.2455-7.1854-3.3847-.8721-1.0017-2.324.4604-1.4566 1.4566 2.2029 2.5304 5.2953 3.9299 8.6421 3.988 1.326.0232 1.3262-2.0368-.0001-2.0599zm-20.9121 53.278c-4.2555-1.0987-8.1241-3.0114-11.5415-5.7798-1.0212-.8272-2.4875.6216-1.4566 1.4566 3.6959 2.9939 7.843 5.1199 12.4506 6.3095 1.2842.3317 1.8321-1.6547.5475-1.9863zm-5.2552 12.6705l-10.5524 1.4741c-1.3073.1826-.751 2.1678.5476 1.9864l10.5524-1.4741c1.3074-.1826.751-2.1678-.5476-1.9864zm1.6739 15.5541l-9.7511 3.9713c-1.2116.4934-.6816 2.487.5476 1.9864l9.7511-3.9713c1.2116-.4934.6816-2.487-.5476-1.9864zm30.8093-37.2395l-7.5502 5.329c-1.0747.7585-.0466 2.5455 1.0398 1.7787l7.5502-5.329c1.0746-.7585.0466-2.5455-1.0398-1.7787zm2.4143 16.2443l-8.1649 3.9209c-1.1946.5737-.1509 2.3505 1.0398 1.7787l8.1649-3.921c1.1944-.5736.1507-2.3504-1.0398-1.7786zm-.554 23.3884c-3.7548-.4768-7.0829-2.1827-9.7352-4.8649-.9336-.9441-2.3901.5126-1.4566 1.4566 3.0595 3.094 6.8865 4.9216 11.1919 5.4683 1.3115.1666 1.2994-1.895-.0001-2.06z"/>
  </g>
</svg>
