<svg id="Layer_1" xmlns="http://www.w3.org/2000/svg" viewBox="0 0 255 548">
  <style>
    .st0{fill:#a5cafa}.st2{fill:#325ada}.st6{fill:#6610ef}.st9{fill:#f09a82}.st12{fill:#9b6fef}
  </style>
  <path class="st0" d="M220.309 409.7447c-5.4278 2.8181-12.4756.3061-16.3924-4.3909-3.9168-4.6969-5.2797-11.0121-5.7471-17.11-.2489-3.2471-.2566-6.6355 1.0833-9.6036 2.8055-6.2147 11.1149-8.5901 17.5105-6.226 6.3956 2.3641 10.8727 8.3683 13.1951 14.7792 1.3893 3.835 2.1395 7.972 1.5833 12.0128-.5563 4.0408-2.5178 7.9774-5.7824 10.4229M246.1528 371.9141c-3.5013.4965-7.0925.6822-10.5555-.0339s-6.8093-2.4019-9.0412-5.1448c-1.9118-2.3495-2.8993-5.3083-3.6406-8.2453-.838-3.3197-1.4055-6.8504-.4474-10.1374 1.4971-5.1361 6.766-8.7126 12.1138-8.8614 5.3478-.1489 10.5226 2.7931 13.7267 7.0774 3.2041 4.2842 4.5679 9.757 4.5064 15.1066-.0398 3.4572-.7224 7.0794-2.9373 9.7341M166.4312 397.6888c-4.6078.19-9.3346-1.5537-12.4594-4.9453-3.1248-3.3916-4.472-8.4344-3.1211-12.8438.6254-2.0411 1.775-3.8871 3.0959-5.5642 5.3172-6.7513 14.2731-11.0406 22.6589-9.1618 2.2536.5049 4.4439 1.4508 6.1707 2.9844 1.3019 1.1562 2.3094 2.6179 3.0734 4.1826 2.7727 5.6783 2.1707 12.8558-1.5091 17.993-3.6797 5.1371-10.2818 8.0168-16.5503 7.2188M189.3405 353.4054c-5.2242 1.2159-10.8928.812-15.6931-1.5811-4.8003-2.3932-8.6281-6.8604-9.8032-12.0939-1.1751-5.2335.514-11.1234 4.5889-14.6113 2.0603-1.7635 4.6121-2.8768 7.2332-3.573 6.5301-1.7343 14.0787-.7443 19.0362 3.8463 4.0491 3.7494 5.9254 9.5997 5.1546 15.064-.7707 5.4644-4.0599 10.453-8.5822 13.6156M230.8442 274.6708c-4.7038 1.0005-9.5001 2.0067-14.2846 1.5217-4.7846-.485-9.6434-2.7124-12.1078-6.8421-.9989-1.6739-1.56-3.5697-2.0194-5.4641-.4773-1.9683-.8574-3.9958-.6513-6.0107.6353-6.2106 6.5018-10.5101 12.2405-12.9684 5.9939-2.5676 13.1163-3.978 18.8857-.9393 5.1233 2.6984 8.1261 8.6695 7.8807 14.4548-.2454 5.7852-3.4602 11.2302-8.0124 14.8088M215.4419 307.3136c-5.4609 4.8155-13.0455 7.5549-20.1716 6.0619-7.1261-1.493-13.3211-7.7732-13.5736-15.0497-.0517-1.4891.1351-2.9997.68-4.3864.8454-2.1516 2.4929-3.8828 4.2094-5.4312 5.2733-4.7572 12.2883-8.4794 19.2626-7.1387 5.0972.9799 9.5556 4.786 11.3229 9.6664 1.7673 4.8804.7797 10.6587-2.5082 14.675M264.1607 334.058c-5.6093 1.1064-11.6472-.1579-16.3414-3.4218-1.4077-.9788-2.7194-2.155-3.5687-3.6444-.6241-1.0945-.9774-2.3188-1.3241-3.5302-1.2983-4.5355-2.5742-9.4444-.9458-13.8721 1.232-3.3498 4.0078-5.9457 7.1124-7.7066 1.7761-1.0074 3.7484-1.7955 5.7901-1.7639 2.3107.0358 4.4662 1.1074 6.4957 2.2127 3.2972 1.7959 6.6249 3.8546 8.6631 7.0078 1.5082 2.3334 2.1924 5.0899 2.831 7.7938.7609 3.2213 1.4944 6.5672.8445 9.8127-.6498 3.2455-3.0668 6.3767-6.3521 6.7796"/>
  <path d="M203.0481 367.7466c5.7118-13.89 13.9713-26.4877 21.5454-39.394 7.6247-12.9926 13.6341-26.5209 18.9336-40.6063 11.133-29.5897 20.9793-59.8109 25.2099-91.2455.5997-4.456-6.2224-6.3848-6.8283-1.8825-4.2303 31.4326-14.0722 61.6593-25.2099 91.2455-5.5209 14.6657-12.0075 28.4899-20.0199 41.9568-7.3847 12.412-14.9504 24.6471-20.4592 38.0435-1.7317 4.2114 5.1163 6.0461 6.8284 1.8825z" fill="#faa76c"/>
  <g>
    <path d="M126.1999 450.2392c.8665-7.3405.3977-14.8366-1.3766-22.012-1.4179-5.7343-3.6524-11.2336-6.0733-16.6217-2.7087-6.0285-5.7026-12.0126-9.9586-17.0691s-9.9154-9.1637-16.3922-10.4796c-.8959-.182-1.9138-.2848-2.6451.2639-.5868.4402-.8348 1.1896-1.0404 1.8938a78.7335 78.7335 0 0 0-2.6844 13.4739c-1.3295-8.1833-7.5431-15.378-15.4458-17.8846-1.0293-.3265-2.1076-.5809-3.1818-.4705-1.1822.1215-2.2813.6793-3.2461 1.3732-4.937 3.5509-6.3436 11.162-3.0019 16.243-3.5673-2.2054-7.8005-3.3172-11.9911-3.1494-3.6205.145-7.393 1.3662-9.6858 4.1721-3.1169 3.8142-2.6086 9.7384.2605 13.7423s7.6009 6.3133 12.3945 7.4467c4.7936 1.1335 9.7599 1.2435 14.6584 1.7617a178.457 178.457 0 0 0-12.6362 7.7162c-1.5232 1.0192-3.2011 2.3805-3.1343 4.2121.0405 1.1111.7398 2.0809 1.4658 2.9229 3.9701 4.6043 9.4594 7.5786 14.8501 10.3897 4.8341 2.5209 9.7167 5.0027 14.8902 6.7226 14.3524 4.7714 30.6815 3.2298 43.8873-4.1434" fill="#71b1fc"/>
    <path class="st6" d="M80.1187 411.1121c3.1453 4.9012 6.8555 9.4277 10.8516 13.6528 4.0017 4.2263 8.4321 8.0269 13.0864 11.47 4.6572 3.4447 9.4602 6.6235 14.3125 9.7009a93.9927 93.9927 0 0 1 3.6577 2.282 86.501 86.501 0 0 1 3.6448 2.3225c1.2307.7496 2.4275 1.5715 3.6287 2.4017 1.2107.8108 2.4263 1.624 3.5901 2.578l.0342.028c.4968.4075.5696 1.1407.1621 1.6377-.2827.3448-.7236.4848-1.1323.4025-1.4885-.3032-2.9248-.7474-4.3662-1.1939-1.405-.5198-2.814-1.0478-4.1895-1.6481a92.8324 92.8324 0 0 1-4.0276-1.9978 101.7847 101.7847 0 0 1-3.8601-2.3013c-5.0654-3.2057-9.7483-6.9908-14.0667-11.1139-4.3215-4.1248-8.3577-8.496-12.2373-12.9713-3.8855-4.4765-7.4722-9.1818-10.9612-13.967-.3699-.5066-.259-1.217.2476-1.5867s1.217-.2589 1.5869.2477c.0126.0173.0268.0384.0383.0562z"/>
  </g>
  <g>
    <path class="st2" d="M101.5366 84.6944c2.5751-37.0098 28.7068-65.7233 52.6438-91.6389 3.6031-3.901-2.225-9.7577-5.8418-5.8418C122.737 14.9315 96.0208 45.2325 93.275 84.6944c-.3692 5.3062 7.894 5.2831 8.2616 0z"/>
    <path class="st2" d="M108.3401 13.2707c14.1106-7.7093 28.7188-14.3599 43.819-19.8878 4.9521-1.8129 2.8127-9.8001-2.1963-7.9665-15.7631 5.7705-31.0608 12.672-45.7925 20.7206-4.6671 2.55-.5025 9.6865 4.1698 7.1337z"/>
    <path class="st12" d="M95.87 89.3078c-5.8669 8.3585-14.6134 14.3564-23.9456 18.503-4.4987 1.9989-9.3282 3.6319-14.2407 3.3154-4.9126-.3165-9.929-2.9578-11.8656-7.4836-2.4778-5.7906.9008-12.7724 6.0941-16.3362s11.7104-4.4853 17.9814-5.0733c9.5614-.8966 19.5263-1.1885 28.4183 2.4385"/>
    <path class="st12" d="M99.2746 85.7065c5.7522 14.1784 6.8879 30.1874 3.1949 45.0358-1.7197 6.9143-4.6979 13.8963-10.3521 18.2316s-14.5134 5.0694-19.5855.0655c-2.7834-2.746-4.0415-6.749-4.2013-10.6557-.3008-7.3531 2.894-14.3732 6.4197-20.8329a176.4802 176.4802 0 0 1 20.8775-30.2534M106.6469 54.0447c-1.7203 13.426 1.6457 27.442 9.2755 38.6226 2.3953 3.51 5.2553 6.7995 8.8942 8.994 3.6389 2.1945 8.1499 3.193 12.2229 1.9811 7.4194-2.2075 11.1402-11.2123 9.7372-18.8249-1.4029-7.6126-6.6418-13.9311-12.2467-19.27a111.1208 111.1208 0 0 0-22.6251-16.6423M120.4468 30.9077c6.0265 12.692 16.0427 23.4538 28.2702 30.3744 1.7818 1.0085 3.6708 1.9558 5.7118 2.1169 3.6219.2859 6.9193-1.9116 9.8842-4.0114 1.6719-1.1841 3.3938-2.4215 4.4325-4.1874 1.4492-2.4637 1.3114-5.6282.2158-8.2683s-3.0404-4.8355-5.1082-6.8088c-10.2865-9.8165-24.6226-15.2537-38.8317-14.7277M107.1632 15.4323c-2.5834 8.4039-7.3736 16.3545-14.5603 21.4193-7.1866 5.0648-16.9467 6.8534-25.0151 3.3604-1.2352-.5347-2.461-1.2176-3.2597-2.3009-1.0118-1.3723-1.1912-3.1701-1.2965-4.8719-.1579-2.5525-.2209-5.1693.5534-7.6067 1.1812-3.718 4.2177-6.6185 7.6482-8.4759s7.2668-2.8051 11.0555-3.7347l15.2237-3.7353c3.1293-.7678 6.4957-1.5238 9.5007-.3612"/>
    <path class="st12" d="M103.3071 12.1089c-13.3192 3.2209-27.6798 1.9665-40.2389-3.5149-2.6-1.1348-5.2969-2.6158-6.5169-5.1769-1.1359-2.3844-.7427-5.1937-.1558-7.7687.665-2.9175 1.5947-5.8735 3.522-8.1625 2.485-2.9513 6.4054-4.4424 10.2605-4.596 3.855-.1536 7.6663.9066 11.2421 2.3553 11.546 4.6777 21.3018 13.6327 26.9489 24.7368"/>
    <path class="st9" d="M82.5771 139.0495c4.2124 1.2329 8.6136-.5981 10.6732-4.4919 1.8075-3.4172 2.9758-9.0326.4904-12.3196-2.9045-3.8414-8.257-3.3701-11.6329-.5016-1.5208 1.2922-2.7453 3.0863-3.2859 5.0208-.2971 1.0631-.3842 2.1559-.2767 3.2482.0505.5124.1349 1.0147.2654 1.5103.4633 1.7594-.0858.048.8454-.7124-1.7293 1.4121-1.4658 4.376 0 5.8418 1.71 1.71 4.1082 1.4156 5.8418 0 1.6691-1.3629 2.1717-3.6977 1.7466-5.7426-.0893-.4294-.481-2.088-.5494-1.6352.1237-.8201.8051-.9056 1.1097-1.54.1403-.2922.1663.0342.1699-.0881.0017-.0592-1.0699-.8965-1.0759-.8914-.269.2314-.329 2.0251-.4326 2.4424-.1463.5894-.2899 1.3884-.7428 1.8382-.4684.4652-.4192.2098-.9498.0545-5.113-1.4962-7.2966 6.4739-2.1964 7.9666zM60.8735 101.2736c3.6592 1.9821 7.9257 2.3172 11.807.7554 3.8482-1.5485 7.4772-5.0303 7.2644-9.4811-.2568-5.3705-5.8452-6.4756-10.1088-5.4519-4.1932 1.0068-7.8827 3.7695-9.0688 8.0264-1.4293 5.1296 6.5392 7.3188 7.9665 2.1963.3515-1.2616 3.334-3.1138 4.4379-2.3129l-1.4819-1.4819c-.4056-.5633.4739-.6834-.1091-.4979-.2128.0677-.4846.5083-.6562.6485-.5404.4416-1.2009.7078-1.8592.8962-1.3822.3957-2.7615.2521-4.0219-.4307-4.6758-2.5328-8.8515 4.5977-4.1699 7.1336zM81.7414 33.7663c4.0962-.1141 8.5192-2.7091 8.5818-7.2606.0613-4.4608-4.0428-8.0739-8.4553-6.5675-3.7834 1.2916-7.6444 4.936-7.5962 9.1677.0546 4.805 5.4314 8.6583 9.7848 5.7787 1.8586-1.2294 2.6525-3.6504 1.4819-5.6517-1.08-1.8465-3.7827-2.7181-5.6517-1.4819 1.5535-1.0275 1.7175.7389 2.6339 1.1883.4296.2107-.828.8678.2069-.0091-.3245.275.5793-.4125.2345-.1764.3212-.2199 1.4913-.7214 1.644-1.0432-.3014.6352-1.9733-.1523-2.3248-.6993-.2046-.3184-.2611-.7013-.1558-1.0687.0344-.177.1057-.337.2139-.4799.2938-.2191.2298-.1988-.1921.0608.3236-.16.2482-.1604-.2261-.001.3876-.0391.3276-.045-.1798-.0178-2.2309.0621-4.1308 1.8541-4.1308 4.1308.0001 2.1904 1.8907 4.1932 4.1309 4.1308zM71.8947 4.2543c3.6282 2.8739 8.8339 4.3907 12.5765.7384 1.5721-1.5341 2.451-3.6495 2.2951-5.8439-.1831-2.5775-1.8339-4.3654-3.8401-5.7894-3.4839-2.4728-8.9513-5.826-12.7434-2.1382C66.2376-4.942 68.5853.31 72.0825 3.367c1.6788 1.4675 4.1898 1.652 5.8418 0 1.4981-1.4981 1.6867-4.3674 0-5.8418-.316-.2762-1.2155-1.4411-1.5643-1.5227l-.08-.1791c.2975 1.2355-.4724 1.8757-2.3099 1.9205.2252.2811 1.265.6214 1.5496.7724.7265.3855 1.4358.8013 2.1303 1.2415.0241.0153 1.3821.8898 1.3115.9563-.275.259-.3764-2.1262-.1429-1.7396-.0336-.0556-.8277-.3605-1.082-.562-1.7471-1.3839-4.1363-1.7055-5.8418 0-1.4369 1.4369-1.7583 4.4491-.0001 5.8418zM131.1956 88.1736c8.0516-3.9077 2.4834-18.1774-5.4443-18.3313-4.57-.0887-7.6964 3.8053-7.0746 8.2269.5807 4.1297 3.6379 7.4593 6.9052 9.7938 1.8162 1.2978 4.5983.3191 5.6517-1.4819 1.2141-2.0758.3385-4.3509-1.4819-5.6517-.9405-.672-1.7907-1.5685-2.3707-2.5734.0584.1011-.7543-1.2548-.5704-1.1995 1.0487.3156-1.3667 1.2428-1.3563 1.1212.008-.0942.6072.9159.7351 1.2203.1462.3476.3668 1.9017.614 2.0448a2.184 2.184 0 0 1 .0015.2317c.2725-.1714.3462-.3496.2209-.5345-2.0068.974-2.5462 3.8322-1.4819 5.6517 1.1986 2.0491 3.6374 2.4594 5.6517 1.4819zM144.572 51.4042c4.0298 2.3936 10.4744.5938 12.0533-4.0588 1.64-4.8325-2.0524-9.3304-6.4143-10.9584-3.8438-1.4346-9.9814-.8735-11.9356 3.2791-2.2699 4.8233 3.3197 9.8117 6.9455 12.0675 4.5272 2.8166 8.6797-4.3277 4.1698-7.1336-.7923-.4929-1.4552-.9951-2.1135-1.6624-.2656-.2693-.5036-.6342-.7923-.8721-.7761-.6396.0028-1.1728-.4512.2902l-1.0623 1.8228c.6416-.6955 2.4854-.1559 3.1416.2899.6235.4237.7943.9935 1.0183-.2138.1765-.9512.4887.1667-.3129-.0607-.0687-.0195.0237.1361-.0765.0766-4.582-2.7214-8.7422 4.4179-4.1699 7.1337z"/>
  </g>
  <g>
    <path class="st12" d="M259.7888-12.9012c11.9563 42.2608 15.6406 89.2953-3.654 128.7496-18.7898 38.4221-57.9946 67.2237-64.7927 109.4505-1.7593-11.3895-11.8763-19.5746-16.2349-30.2431-3.5121-8.5967-3.0687-18.2461-2.1818-27.4901 3.18-33.145 11.7838-66.7 31.5894-93.4663 10.3234-13.9516 23.3681-25.6415 34.5964-38.8757 11.2283-13.2343 20.8951-28.7805 22.4077-46.0702"/>
    <path class="st0" d="M112.9084 163.9524c5.6919-16.6036 9.6554-33.746 14.8263-50.5192 9.8771-32.0386 24.631-63.3559 48.3504-87.0502s57.4592-38.9059 90.7195-34.6898C256.7733 11.013 246.7129 30.382 234.536 48.4264 201.5411 97.32 154.3918 134.605 108.0231 171.0629"/>
  </g>
  <g>
    <path class="st0" d="M94.4924 216.9432c14.1321-9.3348 27.1028-20.4148 38.8455-32.6021 2.8843-3.0992 5.7085-6.2517 8.5493-9.38 2.7134-3.2462 5.3853-6.5229 8.0376-9.8059 2.5293-3.3875 5.0254-6.7928 7.5015-10.2022l7.0005-10.5255 6.5479-10.7819c2.019-3.6883 4.1084-7.3237 6.1567-10.9783 1.9043-3.7369 3.8813-7.4266 5.8184-11.1355 1.7905-3.7845 3.6201-7.5443 5.481-11.2899 1.6816-3.8295 3.3975-7.6403 5.2002-11.4195a320.0079 320.0079 0 0 1 5.0869-11.4953 265.8687 265.8687 0 0 1 5.0664-11.5753c1.6177-3.8972 3.3125-7.7878 5.2793-11.64l.0562-.1103c.6553-1.2833 2.2271-1.7925 3.5103-1.1373.9819.5015 1.5098 1.5458 1.4097 2.5807-.4302 4.3455-1.1328 8.6525-1.9116 12.9529a277.4998 277.4998 0 0 1-3.2256 12.6688 343.4375 343.4375 0 0 1-4.2769 12.3552c-1.666 4.0256-3.418 8.02-5.2061 11.9951-1.9453 3.9002-3.9214 7.7865-5.938 11.6474-2.1982 3.7644-4.355 7.5485-6.5859 11.2845-2.4058 3.6331-4.7695 7.2857-7.2046 10.885l-7.7427 10.4858-8.1914 10.1078c-2.8789 3.2441-5.7383 6.4918-8.5649 9.7577-2.9849 3.1332-5.9512 6.2718-8.8755 9.4415-3.0698 3.0372-6.1572 6.0491-9.1841 9.115-12.4341 11.953-25.7573 22.9016-39.7043 33.0352-1.1509.8369-2.7622.5825-3.5991-.5684s-.5825-2.7623.5684-3.5992a2.8625 2.8625 0 0 1 .0949-.066z"/>
  </g>
  <g>
    <path class="st6" d="M59.1438 258.0164c-6.5185 5.0789-17.6861 1.6157-20.1872-6.2603-.4036-1.2711-.6223-2.633-1.3559-3.7467-.8309-1.2615-2.2065-2.0329-3.3673-2.9994-5.2289-4.3532-5.2814-13.5146-.1028-17.9275 2.2755-1.9391 5.557-3.4221 5.9167-6.39.2658-2.1934-1.2626-4.1356-2.3795-6.0419-1.5855-2.7059-2.4534-5.828-2.492-8.9639-.0499-4.0587 2.365-8.9167 6.4209-8.7584 1.6425.0641 3.3211.9699 4.8539.3763 1.7422-.6748 2.257-2.844 3.402-4.3202 1.857-2.3942 5.4563-2.8135 8.3106-1.7968 2.8543 1.0167 5.1399 3.1599 7.3363 5.2472 4.6907-7.3917 15.0069-11.9322 22.5177-7.4347 1.8083 1.0828 3.3265 2.594 5.1084 3.7198 3.1985 2.0209 7.1498 2.7428 10.0944 5.1186 4.6128 3.7216 5.2894 11.3932 1.3993 15.8648 3.6003 2.2458 7.2499 4.723 9.4354 8.3602 2.1855 3.6372 2.4831 8.7499-.4156 11.8489-.7425.7938-1.702 1.4984-1.9511 2.5564-.2221.9431.1879 1.9031.3773 2.8533.7808 3.9171-2.2503 7.6008-5.5869 9.7963-3.3366 2.1955-7.2455 3.6551-9.9447 6.5991-2.4316 2.6521-3.6021 6.2176-5.7122 9.132-2.1101 2.9144-5.9783 5.2259-9.2266 3.6783-.9689-.4616-1.9145-1.2567-2.9695-1.0595-1.141.2133-1.7279 1.4548-2.602 2.2186-2.0623 1.8021-5.2459.7022-7.7186-.4754-2.4736-1.1781-5.0053-2.3974-6.9034-4.3733-1.8981-1.9759-3.0562-4.9023-2.2003-7.5051"/>
    <path class="st0" d="M63.2823 232.9935c1.1017 5.5967 7.1777 9.8241 12.7373 8.5485s9.1797-8.1449 6.7702-13.3152c-.8652-1.8566-2.3206-3.3618-3.7495-4.8294-1.5153-1.5563-3.1646-3.1882-5.2931-3.6212-2.5218-.513-5.1445.8628-6.7501 2.8739s-2.3662 4.5592-2.9147 7.0735"/>
  </g>
  <g>
    <path d="M171.2928 477.0213c.8497-6.8448 9.4848-11.3919 15.6094-8.2196.9884.512 1.9213 1.1867 3.0116 1.4111 1.2349.2541 2.5021-.1024 3.7576-.2172 5.6553-.5168 11.0934 4.8593 10.6415 10.5202-.1986 2.4874-1.2601 5.2995.2793 7.2634 1.1377 1.4514 3.186 1.6956 4.9703 2.1615 2.5328.6613 4.8877 1.9917 6.7613 3.8198 2.4249 2.366 3.8668 6.6585 1.3796 8.9589-1.0072.9316-2.5326 1.3877-3.0869 2.6427-.63 1.4265.3465 3.0106.5419 4.5576.317 2.5091-1.5598 4.8809-3.8445 5.9655s-4.8986 1.1685-7.4268 1.233c1.5942 7.131-1.8147 15.8995-8.902 17.678-1.7064.4282-3.4943.4323-5.2104.8195-3.0805.695-5.8387 2.601-8.9787 2.9368-4.919.5259-9.8461-3.6024-10.1893-8.5375-3.4504.7994-7.0664 1.4914-10.503.6346-3.4366-.8568-6.6297-3.6987-6.748-7.2385-.0303-.9067.1201-1.8889-.3572-2.6603-.4255-.6877-1.2341-1.0124-1.9067-1.4614-2.7727-1.851-3.1579-5.8141-2.4844-9.0792.6735-3.2651 2.119-6.4336 1.9746-9.7643-.1301-3.0004-1.5437-5.7956-2.0184-8.7611s.4441-6.6127 3.2746-7.6165c.8443-.2994 1.8717-.3882 2.3779-1.1273.5475-.7993.1612-1.8784.2263-2.8451.1536-2.2808 2.6817-3.5106 4.8361-4.2749 2.1553-.7646 4.3691-1.5392 6.6555-1.4933 2.2864.0459 4.6971 1.0896 5.7281 3.1309" fill="#ff9c6e"/>
    <path class="st2" d="M183.6189 494.2325c-3.9534-2.653-10.0344-1.5619-12.5629 2.4723-2.5285 4.0341-.6107 10.225 3.8629 11.8544 1.6064.5851 3.3538.6146 5.0633.6374 1.8128.0242 3.7495.0139 5.2612-.9868 1.7911-1.1856 2.5271-3.5455 2.2878-5.6801-.2393-2.1346-1.2943-4.0874-2.4545-5.8951"/>
  </g>
</svg>
