<svg xmlns="http://www.w3.org/2000/svg" viewBox="0 0 73.3292 70.341">
  <path d="M56.542 8.4145c-4.4771-1.2534-9.181-1.6922-13.8127-1.2885-3.7015.3226-7.3365 1.1756-10.9205 2.1552-4.0101 1.0961-8.0203 2.3737-11.5769 4.526s-6.6602 5.2691-8.1087 9.1657c-.2004.539-.3633 1.1615-.0936 1.6694.2164.4075.6579.6346 1.0755.831a49.5243 49.5243 0 0 0 8.1115 2.9804c-5.2148.0292-10.2908 3.1897-12.6182 7.8564-.3031.6078-.5663 1.2531-.6023 1.9314-.0396.7465.1999 1.4838.5372 2.1509 1.7258 3.4138 6.3184 5.0291 9.8013 3.4474-1.7179 2.002-2.8211 4.5243-3.125 7.1447-.2626 2.264.129 4.7272 1.6492 6.4253 2.0667 2.3084 5.7975 2.5695 8.5651 1.1766 2.7675-1.393 4.6635-4.1085 5.8347-6.9769 1.1712-2.8684 1.7233-5.9439 2.5224-8.9374a112.229 112.229 0 0 0 3.5643 8.6038c.485 1.0458 1.1675 2.2211 2.3122 2.3579.6944.083 1.3652-.257 1.9591-.6262 3.2479-2.0187 5.6308-5.1401 7.9027-8.2162 2.0373-2.7585 4.0551-5.5509 5.6278-8.5983 4.3629-8.4541 4.9953-18.7514 1.6996-27.6759" fill="#9b6fef"/>
  <path d="M27.304 32.326c3.3762-1.3217 6.5007-3.2198 9.4001-5.379 2.9164-2.1446 5.4769-4.7534 7.7965-7.4982 2.3151-2.7589 4.4995-5.5287 6.8083-8.163.5574-.6768 1.1337-1.3354 1.7587-1.9572a21.9127 21.9127 0 0 1 1.9148-1.8476c.6536-.6089 1.3641-1.1818 2.1367-1.7237.7521-.5565 1.5499-1.0915 2.5099-1.5409l.0831-.0389c.9866-.4619 2.1608-.0365 2.6226.95.1475.315.2035.6578.1807.9818-.0796 1.0762-.3214 2.0667-.609 3.0358a21.6492 21.6492 0 0 1-1.1414 2.7403 25.8563 25.8563 0 0 1-1.5172 2.4992c-.5684.7867-1.1854 1.5366-1.8215 2.2682-2.5615 2.9169-5.6284 5.3633-8.8904 7.445-3.2574 2.0958-6.5996 3.9524-9.8583 5.858-3.2755 1.8909-6.5985 3.6281-9.8877 5.4857-.8307.4723-1.8871.1818-2.3594-.649-.4724-.8307-.1819-1.8871.6489-2.3594a1.9825 1.9825 0 0 1 .2246-.1071z" fill="#6610ef"/>
</svg>
