<svg xmlns="http://www.w3.org/2000/svg" viewBox="0 0 88.207 72.9957">
  <path d="M66.5614 12.0007c-.445 7.6307-.8962 15.3059-2.6386 22.7483-1.7424 7.4424-4.86 14.7131-10.0431 20.331-3.1907 3.4584-7.1216 6.2305-11.4506 8.0749-.7364.3137-1.5269.6064-2.3186.4886-2.1145-.3147-2.7159-3.037-2.82-5.1722l-.5454-11.1821c-1.4233 5.2489-3.2882 11.0709-8.1037 13.5983-3.7164 1.9505-8.2925 1.3517-12.2066-.1635-.6735-.2607-1.4188-.638-1.591-1.3394-.1243-.5063.0963-1.0274.3213-1.4977 2.663-5.5661 6.6951-10.471 11.6408-14.1606-4.8805 4.4321-13.3614 4.0075-17.7749-.8898-1.9342-2.1462-3.0912-5.3249-1.9147-7.9637.6272-1.4067 1.8274-2.4766 3.095-3.3514 3.3614-2.3197 7.4545-3.5619 11.5382-3.5016L8.3296 24.0193c-.4105-.1224-.8559-.2702-1.0856-.6317-.2223-.3498-.1782-.8006-.11-1.2094 1.1846-7.1018 7.2495-12.6518 14.0295-15.0747s14.1984-2.224 21.3664-1.5464c7.8105.7384 15.6649 2.0368 22.861 5.1617" fill="#f09a82"/>
  <path d="M27.5893 33.6036c3.6078-3.0772 7.1707-6.1699 10.8896-9.12 3.717-2.9438 7.4849-5.8895 11.4534-8.6457 3.9669-2.7492 8.2297-5.1395 12.7756-6.8248 1.1388-.4123 2.2877-.8002 3.4536-1.1295a40.1029 40.1029 0 0 1 3.5684-.7388 33.0531 33.0531 0 0 1 3.6661-.2774c1.2429.0224 2.4895.0952 3.7581.3502 1.0197.2049 1.6802 1.1976 1.4752 2.2173a1.876 1.876 0 0 1-.6743 1.1031l-.0657.052c-.998.7914-2.0181 1.4007-3.0419 1.9596-1.0154.5916-2.0375 1.1141-3.0728 1.5705a35.1251 35.1251 0 0 1-3.1021 1.3432c-1.0321.4413-2.0813.8237-3.1406 1.1822-4.1925 1.548-8.4456 2.9913-12.6987 4.6286-4.2517 1.6304-8.4088 3.6245-12.2505 6.1286-3.8396 2.4978-7.4696 5.3612-10.6156 8.7029-.6544.6951-1.7483.728-2.4434.0737s-.728-1.7483-.0737-2.4434a1.8792 1.8792 0 0 1 .1393-.1323z" fill="#6610ef"/>
</svg>
