<svg id="Layer_1" xmlns="http://www.w3.org/2000/svg" viewBox="0 0 1296 600">
  <style>
        .st1{
      fill:#6610ef
    }
    .st3{
      fill:#71b1fc
    }


    #tl-leaf{
      animation-name: tlCaer;
      animation-duration: 10s;
      animation-fill-mode: forwards;
      animation-timing-function: cubic-bezier(.54,.19,.75,.96);

      
      transform-origin: 264px 47px;
    }
    @keyframes tlCaer{
      35%{
        transform: translate(80px, 65px) rotate(-160deg) ;
      }
      65%{
        transform: translate(-10px, 275px) rotate(15deg) ;
      }
      85%{
        transform: translate(120px, 350px) rotate(180deg) ;
      }
      100%{
        transform: translate(10px, 520px) rotate(-120deg) ;
      }

    }


    #bl-leaf{
      animation-name: blCaer;
      animation-duration: 10s;
      animation-fill-mode: forwards;
      animation-timing-function: cubic-bezier(.54,.19,.75,.96);
      animation-delay: .25s;

      transform-origin: 128px 193px;
    }
    @keyframes blCaer{
      35%{
        transform: translate(120px, 20px) rotate(-60deg) ;
      }
      65%{
        transform: translate(20px, 150px) rotate(10deg) ;
      }
      85%{
        transform: translate(100px, 270px) rotate(-25deg) ;
      }
      100%{
        transform: translate(-10px, 380px) rotate(-25deg) ;
      }
    
    }

    #tr-leaf{
      animation-name: trCaer;
      animation-duration: 10s;
      animation-fill-mode: forwards;
      animation-timing-function: cubic-bezier(.54,.25,.75,.96);
  animation-delay: .25s;
      transform-origin: 1057px 101px;
    }
    @keyframes trCaer{
      35%{
        transform: translate(120px, 40px) rotate(-160deg) ;
      }
      65%{
        transform: translate(-10px, 120px) rotate(120deg) ;
      }
      85%{
        transform: translate(180px, 270px) rotate(-125deg) ;
      }
      100%{
        transform: translate(-20px, 475px) rotate(55deg) ;
      }
    
    }


    #br-leaf{
      animation-name: brCaer;
      animation-duration: 10s;
      animation-fill-mode: forwards;
      animation-timing-function: cubic-bezier(.54,.19,.75,.96);

      transform-origin: 1235px 165px;
    }
    @keyframes brCaer{
      35%{
        transform: translate(-120px, 20px) rotate(60deg) ;
      }
      65%{
        transform: translate(60px, 100px) rotate(10deg) ;
      }
      85%{
        transform: translate(-200px, 270px) rotate(25deg) ;
      }
      100%{
        transform: translate(10px, 410px) rotate(55deg) ;
      }
    
    }
  </style>
  <g id="tl-leaf">
    <path d="M264.4736 47.6924c-.3048 5.2266-.6139 10.4837-1.8073 15.5813-1.1935 5.0976-3.3288 10.0776-6.8789 13.9256-2.1855 2.3688-4.8779 4.2676-7.843 5.5309-.5044.2149-1.0459.4154-1.5881.3347-1.4483-.2156-1.8602-2.0802-1.9315-3.5427l-.3736-7.6591c-.9749 3.5952-2.2523 7.5829-5.5506 9.3141-2.5455 1.336-5.6799.9258-8.3608-.112-.4613-.1786-.9718-.437-1.0898-.9174-.0851-.3468.0659-.7037.2201-1.0258 1.824-3.8125 4.5858-7.172 7.9733-9.6992-3.3429 3.0357-9.1518 2.7449-12.1748-.6095-1.3248-1.47-2.1173-3.6472-1.3115-5.4546.4296-.9635 1.2517-1.6963 2.1199-2.2955 2.3024-1.5889 5.1059-2.4397 7.903-2.3984l-9.1919-2.7401c-.2811-.0838-.5862-.1851-.7436-.4327-.1523-.2396-.1221-.5484-.0753-.8284.8114-4.8644 4.9655-8.6657 9.6094-10.3253s9.7251-1.5233 14.6347-1.0592c5.3497.5057 10.7295 1.3951 15.6584 3.5355" fill="#f09a82"/>
    <path class="st1" d="M237.78 62.4892c2.4711-2.1077 4.9114-4.226 7.4587-6.2467 2.546-2.0163 5.1267-4.034 7.8449-5.9218 2.7155-1.8872 5.6396-3.5134 8.7506-4.6746.78-.2824 1.5669-.5481 2.3655-.7737a27.512 27.512 0 0 1 2.4441-.5061c1.6569-.2222 3.3481-.2885 5.0851.0498.6971.1358 1.1522.811 1.0164 1.5081a1.2811 1.2811 0 0 1-.4521.7529l-.0606.049c-.6814.5513-1.386.9442-2.0836 1.3422-.6954.4052-1.3955.7631-2.1047 1.0757a24.0522 24.0522 0 0 1-2.1247.92c-.707.3022-1.4256.5642-2.1511.8097-2.8745 1.0535-5.783 2.053-8.6979 3.1704-2.9121 1.1168-5.7595 2.4826-8.3909 4.1977-2.6299 1.7108-5.1162 3.6721-7.2711 5.961-.4482.4761-1.1975.4987-1.6736.0505-.4761-.4482-.4987-1.1975-.0505-1.6736a1.329 1.329 0 0 1 .0955-.0905z"/>
  </g>
  <g id="br-leaf">
    <path d="M1235.879 165.2135a26.8719 26.8719 0 0 0-9.5524-.891c-2.5598.2231-5.0736.813-7.5522 1.4904-2.7732.758-5.5465 1.6416-8.0061 3.13s-4.606 3.6439-5.6077 6.3387c-.1385.3728-.2512.8033-.0648 1.1545.1497.2818.4551.4389.7438.5747a34.2407 34.2407 0 0 0 5.6096 2.0611c-3.6063.0202-7.1167 2.2058-8.7262 5.4332-.2097.4204-.3916.8666-.4165 1.3357-.0275.5162.1382 1.0261.3715 1.4875 1.1935 2.3608 4.3696 3.478 6.7782 2.3841-1.188 1.3845-1.951 3.1288-2.1611 4.941-.1816 1.5657.0891 3.2691 1.1405 4.4435 1.4292 1.5964 4.0094 1.777 5.9233.8137 1.9138-.9633 3.225-2.8413 4.035-4.825.8099-1.9837 1.1918-4.1106 1.7444-6.1808a77.6354 77.6354 0 0 0 2.4648 5.9501c.3354.7233.8075 1.536 1.599 1.6307.4802.0574.9442-.1777 1.355-.4331 2.2461-1.396 3.8939-3.5547 5.4651-5.682 1.4091-1.9076 2.8044-3.8388 3.892-5.9463 3.0172-5.8465 3.4546-12.9678 1.1754-19.1396" fill="#9b6fef"/>
    <path class="st1" d="M1215.6592 181.7498c2.333-.9175 4.4967-2.2245 6.5007-3.7199 2.0087-1.4951 3.7905-3.2825 5.3905-5.187 1.6047-1.9037 3.1136-3.8214 4.7096-5.6437.3855-.468.7841-.9235 1.2163-1.3535a15.1407 15.1407 0 0 1 1.3242-1.2777c.452-.4211.9434-.8173 1.4777-1.192.5331-.3759 1.064-.7603 1.7357-1.0656l.0836-.038c.6818-.3099 1.4857-.0084 1.7957.6734.0985.2168.1345.452.1168.6737-.1233 1.4815-.6036 2.7795-1.2104 3.9945a17.894 17.894 0 0 1-1.0492 1.7284c-.3931.5441-.8198 1.0627-1.2598 1.5686-1.7721 2.0167-3.8949 3.7064-6.147 5.1502-2.257 1.4431-4.5571 2.7437-6.8188 4.0496-2.2664 1.3056-4.5615 2.5125-6.838 3.7937-.575.3257-1.3051.1237-1.6307-.4513-.3258-.575-.1237-1.3051.4513-1.6308a1.3162 1.3162 0 0 1 .1518-.0726z"/>
  </g>
  <g id="bl-leaf">
    <path class="st3" d="M128.7665 193.0705c1.1207-4.3799 1.4444-8.9625.9507-13.4565-.3946-3.5914-1.3032-7.1066-2.3339-10.5695-1.1532-3.8745-2.483-7.7452-4.6531-11.1558-2.1701-3.4106-5.268-6.3597-9.0879-7.6827-.5284-.183-1.1371-.3278-1.625-.0545-.3914.2193-.6026.6535-.7843 1.0637a48.154 48.154 0 0 0-2.7202 7.9509c-.1423-5.069-3.3258-9.9347-7.9135-12.0953-.5976-.2814-1.2306-.5231-1.8908-.5433-.7266-.0222-1.4381.2268-2.0793.5692-3.281 1.7524-4.7511 6.2525-3.1373 9.6039-1.9838-1.6263-4.4601-2.6437-7.0142-2.8819-2.2067-.2058-4.5928.2287-6.2104 1.7438-2.1989 2.0596-2.3713 5.6923-.9566 8.3524 1.4147 2.6601 4.096 4.4439 6.9102 5.5198 2.8142 1.0759 5.8161 1.5454 8.7438 2.2569a109.1739 109.1739 0 0 0-8.2865 3.6531c-1.0061.4944-2.1337 1.1836-2.2418 2.2994-.0655.6769.2797 1.3215.6516 1.8909 2.0335 3.1134 5.1201 5.3617 8.1602 7.5032 2.7262 1.9204 5.4851 3.8209 8.482 5.2832 8.3142 4.0567 18.3388 4.4464 26.9428 1.0474"/>
    <path class="st1" d="M104.2983 165.4632c1.4669 3.2305 3.3461 6.2674 5.457 9.1128 2.115 2.8468 4.554 5.44 7.1597 7.8115 2.6061 2.3746 5.2892 4.6061 7.9529 6.8427a38.1374 38.1374 0 0 1 2.0037 1.6735 35.41 35.41 0 0 1 1.9596 1.7431 30.125 30.125 0 0 1 1.9105 1.847c.626.6407 1.2594 1.2793 1.8276 2.0403l.0263.0352c.358.4795.2595 1.1585-.2201 1.5164-.2642.1972-.5935.2548-.8917.1875-.9377-.2162-1.8101-.555-2.6899-.8917a32.0405 32.0405 0 0 1-2.5009-1.2423 39.2855 39.2855 0 0 1-2.3412-1.4983 42.9832 42.9832 0 0 1-2.1823-1.7149c-2.8394-2.377-5.3422-5.1367-7.5639-8.078-2.2222-2.9445-4.2532-5.9922-6.2107-9.06-1.9615-3.0692-3.7574-6.2209-5.5269-9.4009-.276-.4948-.0986-1.1197.3962-1.3958.4948-.276 1.1198-.0986 1.3958.3962.0135.024.0271.0512.0383.0757z"/>
  </g>
  <g id="tr-leaf">
    <path class="st3" d="M1057.9064 101.8701a28.1151 28.1151 0 0 0 10.0343-.2548c2.6318-.5482 5.1705-1.4716 7.6619-2.4818 2.7875-1.1302 5.5596-2.3909 7.9309-4.2412 2.3715-1.8503 4.335-4.3549 5.0426-7.2784.0979-.4044.1617-.8656-.0754-1.2074-.1903-.2743-.5269-.3997-.8438-.5051a35.8261 35.8261 0 0 0-6.0825-1.4481c3.7441-.4667 7.1211-3.1712 8.3943-6.723.1659-.4626.2998-.9487.2677-1.4391-.0353-.5397-.2705-1.049-.5698-1.4995-1.5316-2.3052-4.9694-3.0733-7.3365-1.6392 1.0631-1.5852 1.6403-3.4917 1.6346-5.4004-.0049-1.6491-.4967-3.3854-1.7341-4.4754-1.6821-1.4819-4.385-1.3506-6.2544-.1133-1.8693 1.2373-2.9994 3.3504-3.5957 5.5114-.5964 2.161-.7302 4.4178-1.0485 6.6369a81.2533 81.2533 0 0 0-3.2961-5.877c-.4379-.7099-1.0287-1.496-1.8628-1.4965-.5061-.0003-.9589.3014-1.3541.6174-2.161 1.7279-3.6062 4.1743-4.9757 6.5785-1.228 2.156-2.4391 4.3348-3.3085 6.6587-2.4121 6.447-1.9865 13.8994 1.1442 20.0297"/>
    <path class="st1" d="M1076.7501 82.0023c-2.3011 1.2747-4.4009 2.8922-6.3246 4.6787-1.9277 1.7867-3.6117 3.8244-5.1047 5.965-1.4941 2.1428-2.8926 4.3011-4.3346 6.4154-1.446 2.1231-2.9235 4.1702-5.1392 5.989l-.0133.0109c-.4763.391-1.1793.3218-1.5703-.1545a1.1179 1.1179 0 0 1-.2516-.7703c.1661-2.9642 1.411-5.53 2.9897-7.8114 1.5828-2.2903 3.5115-4.3286 5.6106-6.1403 2.1001-1.8139 4.2755-3.4889 6.4382-5.1399 2.1667-1.6512 4.3887-3.1967 6.6047-4.7758.4612-.33 1.1025-.2236 1.4325.2376s.2236 1.1025-.2375 1.4325a1.0993 1.0993 0 0 1-.0999.0631z"/>
  </g>
</svg>
