<?xml version="1.0" encoding="utf-8"?>
<!-- Generator: Adobe Illustrator 23.0.1, SVG Export Plug-In . SVG Version: 6.00 Build 0)  -->
<svg version="1.1" id="Layer_1" xmlns="http://www.w3.org/2000/svg" xmlns:xlink="http://www.w3.org/1999/xlink" x="0px" y="0px"
	 viewBox="0 0 1775.3959 339.9411" style="enable-background:new 0 0 1775.3959 339.9411;" xml:space="preserve">
<style type="text/css">
	.st0{fill:#A5CAFA;}
	.st1{fill:#1177D0;}
	.st2{fill:#325ADA;}
	.st3{fill:#FF9C6E;}
	.st4{fill:#212D50;}
	.st5{fill:#6C757D;}
	.st6{fill:#6610EF;}
	.st7{fill:#6536CA;}
	.st8{fill:#FAA76C;}
	.st9{fill:#F09A82;}
	.st10{fill:#1856C3;}
	.st11{fill:#71B1FC;}
	.st12{fill:#9B6FEF;}
	.st13{fill:#F8F9FA;}
	.st14{fill:#EEEEEE;}
	.st15{fill-rule:evenodd;clip-rule:evenodd;fill:#F5BD5C;}
	.st16{fill-rule:evenodd;clip-rule:evenodd;fill:#B3D1DB;}
	.st17{fill-rule:evenodd;clip-rule:evenodd;fill:#73C4B8;}
	.st18{fill-rule:evenodd;clip-rule:evenodd;fill:#DE614A;}
	.st19{fill-rule:evenodd;clip-rule:evenodd;fill:#C9C729;}
	.st20{fill-rule:evenodd;clip-rule:evenodd;fill:#ACB8DE;}
	.st21{fill:#DE614A;}
	.st22{fill:url(#);}
	.st23{clip-path:url(#SVGID_2_);}
	.st24{fill:#FFD7E1;stroke:#FFFFFF;stroke-width:0.5;stroke-miterlimit:10;}
	.st25{fill:#745DCC;stroke:#FFFFFF;stroke-width:0.5;stroke-miterlimit:10;}
	.st26{fill:#FF9CAF;stroke:#FFFFFF;stroke-width:0.5;stroke-miterlimit:10;}
	.st27{fill:#CC6981;stroke:#FFFFFF;stroke-width:0.5;stroke-miterlimit:10;}
	.st28{fill:#F4CBD6;stroke:#FFFFFF;stroke-width:0.5;stroke-miterlimit:10;}
	.st29{fill:#473D84;stroke:#FFFFFF;stroke-width:0.5;stroke-miterlimit:10;}
	.st30{fill:#433D7A;stroke:#FFFFFF;stroke-width:0.5;stroke-miterlimit:10;}
	.st31{fill:#F74D6A;stroke:#FFFFFF;stroke-width:0.5;stroke-miterlimit:10;}
	.st32{fill:#CC3F5E;stroke:#FFFFFF;stroke-width:0.5;stroke-miterlimit:10;}
	.st33{fill:#FFFFFF;stroke:#FFFFFF;stroke-width:0.5;stroke-miterlimit:10;}
	.st34{fill:#6455BF;stroke:#FFFFFF;stroke-width:0.5;stroke-miterlimit:10;}
	.st35{fill:#FFFFFF;}
	.st36{fill:#AABFAD;}
	.st37{fill:none;}
	.st38{fill:#9A6FEE;}
	.st39{fill:#90D1F3;}
	.st40{fill:#0D529E;}
	.st41{fill:#FCBF29;}
	.st42{fill:#FFB954;}
	.st43{fill:#FEDA9B;}
	.st44{fill:#72D8FF;}
	.st45{fill:#FF5D5D;}
	.st46{fill:#4DBAF6;}
	.st47{fill:#D8D8E4;}
	.st48{fill:#C9F3FF;}
	.st49{fill:#F7F7F7;}
	.st50{fill:#C2CEE9;}
	.st51{fill:#FFA3BF;}
	.st52{fill:#FADE76;}
	.st53{fill:#FFC954;}
	.st54{fill:#FEE4BB;}
	.st55{fill:#262E30;}
	.st56{fill:#FF99BB;}
	.st57{fill-rule:evenodd;clip-rule:evenodd;fill:#C1EE92;}
	.st58{fill-rule:evenodd;clip-rule:evenodd;fill:#67E5DD;}
	.st59{fill-rule:evenodd;clip-rule:evenodd;fill:#FF5D5D;}
	.st60{clip-path:url(#SVGID_4_);fill-rule:evenodd;clip-rule:evenodd;fill:#FF8E8E;}
	.st61{clip-path:url(#SVGID_4_);fill-rule:evenodd;clip-rule:evenodd;}
	.st62{fill-rule:evenodd;clip-rule:evenodd;}
	.st63{fill:#1856C2;}
	.st64{fill:#6536C9;}
	.st65{fill:#325AD9;}
</style>
<g>
	<g>
		<path class="st63" d="M1158.6649,211.0185c14.5859,13.2386,29.1719,26.4771,43.7579,39.7157
			c9.1049,8.2639,18.3563,16.7061,24.5406,27.3336c10.4049,17.8803,11.244,40.4315,23.228,57.2942
			c9.7708,13.7484,25.5002,21.7127,38.9186,31.9319c15.8628,12.0808,28.734,27.5775,41.4567,42.9302
			c6.3468,7.6587,12.7708,15.4397,16.8457,24.5133c3.4586,7.7013,5.105,16.0737,6.6226,24.3784
			c11.4363,62.5831,17.0647,126.2264,16.7894,189.8452c-14.6315-72.9641-65.4795-133.3262-120.7559-183.1495
			c-11.4272-10.2999-23.282-20.4889-31.6138-33.4213c-6.5295-10.1349-10.6591-21.6039-14.4174-33.0593
			c-9.7393-29.6859-17.3622-60.066-22.7916-90.8333c-2.9767-16.8685-5.302-33.8854-9.6226-50.4607
			c-5.912-22.6807-15.5591-44.3833-28.4349-63.9685"/>
	</g>
	<g>
		<path class="st9" d="M1142.5386,192.071c-6.452,27.8001-3.6033,56.8559-6.5455,85.2429
			c-3.6982,35.6811-16.5624,70.5709-14.4814,106.3828c3.0754,52.9274,38.946,99.3438,82.4609,129.6295
			c23.4144,16.296,49.2028,28.8964,72.9886,44.6453c37.9532,25.1293,70.5669,58.2817,95.0709,96.6416
			c7.8671-13.0651,3.7271-29.7654-0.8978-44.2981c-15.0707-47.3557-33.8337-95.165-68.1503-131.1103
			c-24.0695-25.2118-55.0474-43.7417-75.788-71.756c-22.8921-30.9203-30.9089-70.0088-39.3333-107.5473
			s-18.7197-76.5572-44.7291-104.9055"/>
	</g>
	<g>
		<path class="st64" d="M263.6544,465.6574c-13.7776-47.8784-18.1962-101.2139,3.4904-146.0677
			c21.1192-43.6802,65.4452-76.5511,72.9421-124.4862c2.0536,12.9109,13.5716,22.1444,18.57,34.2242
			c4.0278,9.7339,3.5738,20.6821,2.6148,31.1727c-3.4388,37.6147-13.028,75.722-35.3588,106.1856
			c-11.6396,15.8787-26.3776,29.2056-39.0473,44.2751c-12.6697,15.0696-23.5563,32.7539-25.1842,52.3744"/>
	</g>
	<g>
		<path class="st0" d="M429.3712,264.294c-6.3723,18.8635-10.7812,38.3294-16.5616,57.3826
			c-11.0413,36.3936-27.6185,71.994-54.4044,98.9926c-26.7859,26.9986-64.9819,44.4257-102.7327,39.8121
			c11.2809-21.9666,22.5947-43.9893,36.316-64.5201c37.1797-55.631,90.4745-98.1655,142.8882-139.7579"/>
	</g>
	<g>
		<g>
			<path class="st9" d="M112.0434,377.4026c4.2386-18.1992,8.5109-36.5032,15.7971-53.7103
				c7.2862-17.2072,17.8144-33.4301,32.6328-44.8139c9.1222-7.0079,19.743-12.0552,30.9376-14.7024
				c1.9043-0.4503,3.9303-0.8274,5.7888-0.215c4.9637,1.6357,5.2827,8.4438,4.6476,13.6312
				c-1.1088,9.0555-2.2176,18.1109-3.3264,27.1663c5.6073-12.055,12.5163-25.3075,25.1666-29.3982
				c9.763-3.157,20.5392,0.1847,29.3402,5.4594c1.5143,0.9076,3.1535,2.1259,3.2773,3.887
				c0.0893,1.2714-0.6583,2.4352-1.3956,3.4749c-8.7255,12.3047-20.4752,22.4484-33.9215,29.285
				c13.5974-8.6525,33.8533-4.1103,42.4541,9.52c3.7691,5.9732,5.2375,14.1115,1.3082,19.9806
				c-2.0948,3.1288-5.4303,5.2082-8.8473,6.7898c-9.0609,4.1938-19.4376,5.4879-29.251,3.6479
				c10.2237,5.069,20.4474,10.1381,30.6712,15.2071c0.9381,0.4651,1.9498,1.0061,2.3533,1.9724
				c0.3904,0.9349,0.097,2.0027-0.2368,2.9593c-5.801,16.6182-22.7157,27.4722-40.0557,30.4961s-35.1297-0.534-52.1176-5.1411
				c-18.5107-5.0201-36.8946-11.4076-52.9346-21.9225"/>
		</g>
		<g>
			<path class="st6" d="M213.5137,339.4569c-9.6726,6.1613-19.5591,11.9624-29.7737,17.1896
				c-10.2117,5.2213-20.6719,10.0294-31.4402,14.1867c-10.7639,4.157-21.9062,7.4568-33.2871,9.5868
				c-2.8516,0.4921-5.7087,0.9583-8.573,1.364c-2.8777,0.3172-5.7615,0.5797-8.6455,0.7866
				c-2.895,0.1147-5.792,0.1622-8.6838,0.1402c-2.9019-0.1519-5.7947-0.2947-8.6819-0.6711
				c-0.9592-0.1251-1.6355-1.0041-1.5103-1.9633c0.0947-0.7284,0.6245-1.2936,1.2939-1.4688l0.0642-0.0162
				c2.7964-0.7282,5.5869-1.2229,8.3684-1.7267c2.7754-0.5737,5.5459-1.0782,8.3184-1.5153
				c2.7607-0.5424,5.5217-1.0291,8.2886-1.4614c2.7515-0.5387,5.5095-1.0164,8.2734-1.4689
				c11.0139-2.0336,21.9785-4.4356,32.8386-7.4355c10.8562-2.9998,21.5386-6.8039,31.7983-11.5709
				c10.2566-4.761,20.1704-10.3248,29.4329-16.8251c0.7805-0.5477,1.8572-0.359,2.4048,0.4214s0.3591,1.857-0.4214,2.4047
				C213.5592,339.4272,213.5335,339.4442,213.5137,339.4569z"/>
		</g>
		<g>
			<g>
				<path class="st11" d="M230.9888,141.2243c7.9969-1.2241,15.7585,4.9174,18.6694,12.4657
					c2.9109,7.5482,1.9349,16.0385-0.0706,23.876c-1.0679,4.1734-2.498,8.4214-5.4377,11.5704
					c-6.1551,6.5932-17.5738,6.0382-24.5812,0.3592s-10.0647-15.103-10.2501-24.1208c-0.1109-5.3945,0.7071-10.8958,3.1209-15.7215
					s6.5438-8.9236,11.6724-10.6001"/>
			</g>
			<g>
				<path class="st11" d="M182.5395,177.6345c4.5971,0.8658,9.1748,2.159,13.2088,4.5275c4.034,2.3685,7.5095,5.9022,9.1401,10.2867
					c1.3967,3.7556,1.3764,7.8818,1.0572,11.8759c-0.3608,4.5146-1.1501,9.1789-3.747,12.8894
					c-4.0578,5.798-12.1778,8.0395-18.9404,5.9538c-6.7625-2.0858-11.9951-7.97-14.1885-14.6984s-1.5765-14.1638,0.7736-20.8391
					c1.5188-4.3139,3.9129-8.5616,7.8157-10.946"/>
			</g>
			<g>
				<path class="st11" d="M100.879,260.4471c5.8705-1.3966,12.2303,1.2797,16.2284,5.7994
					c3.9982,4.5197,5.8719,10.6037,6.3312,16.6205c0.4592,6.0168-0.3839,12.0484-1.2251,18.0238
					c-0.5127,3.6425-1.4022,7.837-4.6877,9.4912c-1.2407,0.6247-2.6618,0.7769-4.0497,0.835
					c-6.8301,0.2856-13.7335-1.5188-19.5504-5.1098c-2.0165-1.2449-3.9333-2.7283-5.3038-4.6617
					c-2.5303-3.5697-2.9077-8.2007-2.9499-12.576c-0.0444-4.6001,0.1865-9.2029,0.6908-13.7754
					c0.3786-3.4322,0.9405-6.9353,2.6407-9.9407c1.7001-3.0054,4.764-5.4514,8.2162-5.5224"/>
			</g>
			<g>
				<path class="st11" d="M293.3601,179.2197c5.853,1.7198,11.0335,5.9126,13.507,11.4891s2.0184,12.4661-1.5475,17.4158
					c-1.6507,2.2912-3.8752,4.1153-6.2425,5.655c-9.5296,6.1981-22.5714,7.7662-32.2781,1.8494
					c-2.6086-1.5901-4.9506-3.7056-6.4621-6.3605c-1.1396-2.0016-1.7807-4.2608-2.073-6.5455
					c-1.0607-8.2914,2.7432-17.0271,9.5356-21.899s16.2866-5.674,23.8002-2.0109"/>
			</g>
			<g>
				<path class="st11" d="M245.8452,224.9603c7.061,0.6966,13.9906,3.6111,18.9872,8.6488
					c4.9966,5.0376,7.8936,12.2602,7.142,19.3156c-0.7516,7.0554-5.3702,13.7161-11.9569,16.354
					c-3.3304,1.3338-7,1.6442-10.5794,1.4025c-8.9173-0.602-17.953-5.0497-22.2128-12.9068
					c-3.4792-6.4174-3.3439-14.5434-0.0566-21.0612s9.5274-11.3697,16.5364-13.41"/>
			</g>
			<g>
				<path class="st11" d="M160.3981,305.9578c6.3177,0.7453,12.7536,1.5228,18.5412,4.1633s10.928,7.4954,12.2605,13.7158
					c0.5401,2.5214,0.4375,5.1346,0.208,7.703c-0.2384,2.6685-0.6237,5.37-1.738,7.8064
					c-3.4347,7.5102-12.6107,10.4036-20.8441,11.0448c-8.5997,0.6696-18.1213-0.5899-24.0576-6.8479
					c-5.2715-5.5572-6.496-14.3133-3.7305-21.4563c2.7656-7.143,9.1064-12.5981,16.3296-15.1468"/>
			</g>
			<g>
				<path class="st11" d="M193.5629,271.6099c8.8871-3.7121,19.5525-3.9211,27.8451,0.9771
					c8.2926,4.8982,13.3847,15.3978,10.6093,24.6205c-0.568,1.8874-1.4438,3.7003-2.7157,5.2061
					c-1.9732,2.3361-4.7727,3.8047-7.5809,5.0152c-8.6273,3.7188-18.9967,5.4011-27.1639,0.7581
					c-5.969-3.3933-9.9369-10.0558-10.0772-16.9205s3.5521-13.6837,9.3775-17.318"/>
			</g>
			<g>
				<path class="st11" d="M143.8955,217.4061c7.497,0.9973,14.5237,5.1467,19.0173,11.2301c1.3475,1.8243,2.491,3.8551,2.922,6.0817
					c0.3168,1.6364,0.2391,3.3202,0.1588,4.985c-0.3008,6.2334-0.7881,12.9249-4.7095,17.7797
					c-2.9667,3.6729-7.547,5.7453-12.1844,6.6322c-2.6531,0.5074-5.4586,0.6566-8.0029-0.2506
					c-2.8794-1.0267-5.1244-3.2849-7.1971-5.532c-3.3675-3.6508-6.6614-7.6437-7.8748-12.4598
					c-0.8979-3.5639-0.5837-7.3077-0.2349-10.9664c0.4156-4.3587,0.9184-8.8618,3.1114-12.6514
					c2.193-3.7896,6.5514-6.6851,10.8381-5.7939"/>
			</g>
			<g>
				<g>
					<path class="st3" d="M234.986,200.1421c-20.6352,23.7524-47.4485,41.0064-68.6387,64.2235
						c-21.4831,23.5381-41.3346,49.3072-59.1904,75.6886c-10.3576,15.303-19.8305,31.1826-28.0323,47.747
						c-2.945,5.9477,5.9761,11.1958,8.9339,5.2221c14.2132-28.7051,32.2948-55.251,51.9074-80.512
						c9.8759-12.7201,19.9593-25.366,30.6377-37.425c10.2455-11.57,21.6171-21.8542,33.3818-31.8444
						c13.3382-11.3264,26.8085-22.5371,38.3166-35.7837C246.6507,202.4526,239.3626,195.1044,234.986,200.1421L234.986,200.1421z"/>
				</g>
			</g>
		</g>
		<g>
			<g>
				<path class="st65" d="M59.3419,375.2713c14.0675-2.7851,27.6245-8.128,39.8098-15.6891
					c9.7379-6.0425,18.5545-13.452,27.0542-21.1392c9.5101-8.601,18.7679-17.7018,25.5594-28.5782s10.9927-23.7764,9.553-36.5179
					c-0.1992-1.7625-0.6175-3.7027-2.0671-4.725c-1.1631-0.8202-2.6945-0.8304-4.1171-0.7893
					c-8.8926,0.257-17.7626,1.2932-26.475,3.0931c14.3115-7.3423,23.8807-23.1093,23.7872-39.1941
					c-0.0122-2.0951-0.1866-4.2374-1.032-6.1543c-0.9304-2.1096-2.6165-3.8053-4.4737-5.1717
					c-9.5036-6.9921-24.3931-5.0424-31.7759,4.161c1.9401-7.9021,1.4639-16.3804-1.3489-24.0156
					c-2.4302-6.5966-6.9379-12.8307-13.4867-15.387c-8.9025-3.4751-19.5342,1.0016-25.2113,8.6894
					c-5.6771,7.6877-7.1135,17.8015-6.3425,27.3271c0.771,9.5255,3.5344,18.7586,5.5038,28.1102
					c-7.0006-6.5365-14.2727-12.7824-21.7911-18.7161c-2.7912-2.2029-6.3063-4.487-9.6473-3.2697
					c-2.0268,0.7385-3.3993,2.6085-4.5199,4.4517c-6.1277,10.0787-8.339,21.988-10.3082,33.6177
					c-1.7659,10.429-3.4305,20.9243-3.5151,31.5014c-0.2346,29.3431,12.3647,58.5641,33.8629,78.5367"/>
			</g>
			<g>
				<path class="st6" d="M103.6646,266.5477c-7.1138,8.7999-13.3376,18.3134-18.7837,28.2232
					c-5.4524,9.9126-9.9727,20.3121-13.7024,30.9397c-3.73,10.6316-6.8706,21.408-9.647,32.2583
					c-0.6392,2.7269-1.303,5.4462-2.0271,8.1546c-0.6191,2.7311-1.292,5.4528-2.0205,8.1703
					c-0.6243,2.7364-1.3157,5.4662-2.0764,8.1965c-0.6914,2.7408-1.3743,5.4914-2.2905,8.2318l-0.0208,0.0616
					c-0.3066,0.9174-1.2991,1.4125-2.2166,1.1057c-0.6965-0.2329-1.1494-0.8626-1.1929-1.5532
					c-0.1794-2.906-0.1257-5.8018-0.0803-8.7074c0.1743-2.8867,0.4185-5.7737,0.7292-8.6543
					c0.4021-2.8634,0.8599-5.7226,1.3716-8.5722c0.5991-2.83,1.2581-5.6491,1.9426-8.4605
					c2.8975-11.21,6.9458-22.1028,11.8237-32.5599c4.8787-10.4613,10.3855-20.5711,16.2878-30.4048
					c5.9084-9.8362,12.3672-19.3063,19.1707-28.5385c0.5654-0.7677,1.646-0.9316,2.4138-0.3663
					c0.7676,0.5654,0.9316,1.646,0.3662,2.4137C103.6981,266.5052,103.6793,266.5294,103.6646,266.5477z"/>
			</g>
		</g>
	</g>
	<g>
		<path class="st0" d="M91.6314,152.8031c-14.1001,12.604-26.5371,27.046-37.4141,42.4945
			c-10.9309,15.4311-19.8975,32.1704-27.3064,49.4252c-7.3975,17.278-13.4873,34.9552-18.8069,52.8095
			c-0.6045,2.2498-1.2153,4.4972-1.8652,6.7343c-0.6248,2.244-1.2954,4.4759-1.9805,6.7061
			c-1.1562,4.5127-2.4185,9.0048-3.7915,13.4895c-1.1516,4.5288-2.4363,9.0453-3.8589,13.5669
			c-1.2231,4.5531-2.5444,9.1129-4.2358,13.6753l-0.0579,0.1559c-0.6626,1.7875-2.6489,2.6993-4.4363,2.0367
			c-1.2942-0.4798-2.1289-1.6569-2.2397-2.9465c-0.4133-4.9026-0.4568-9.8077-0.4019-14.7196
			c0.28-4.8763,0.6987-9.7575,1.2502-14.6265c0.7468-4.8279,1.6042-9.6485,2.5684-14.4483c0.5793-2.3749,1.1726-4.748,1.812-7.1091
			c0.6147-2.3679,1.2671-4.7257,1.9277-7.0807c5.6008-18.759,13.6306-36.7369,23.2927-53.6447
			c9.6514-16.9307,20.6865-32.9111,32.4468-48.2191c11.8125-15.2895,24.7598-29.6051,38.446-43.227
			c1.3259-1.3212,3.4719-1.3174,4.7932,0.0085c1.321,1.3259,1.3174,3.4719-0.0085,4.7931
			C91.7244,152.7174,91.6732,152.7653,91.6314,152.8031z"/>
	</g>
	<g>
		<g>
			<path class="st6" d="M123.49,101.104c6.3569-6.7067,19.2841-4.7472,23.3679,3.5422c0.6591,1.3378,1.1288,2.807,2.1264,3.9156
				c1.1299,1.2556,2.7799,1.8783,4.2252,2.7525c6.51,3.9377,8.1018,14.0582,3.1149,19.8042
				c-2.1913,2.5248-5.5712,4.7139-5.472,8.0555c0.0733,2.4696,2.0883,4.3611,3.6424,6.2818
				c2.206,2.7263,3.6883,6.0329,4.2559,9.4938c0.7346,4.4791-1.1221,10.2546-5.633,10.7586
				c-1.8267,0.2041-3.8343-0.5164-5.4296,0.3965c-1.8132,1.0377-2.0193,3.5223-3.0382,5.3461
				c-1.6524,2.958-5.5618,4.0242-8.8878,3.3779c-3.326-0.6462-6.2119-2.6333-8.9897-4.5734
				c-3.9488,8.9579-14.5947,15.705-23.652,11.9898c-2.1806-0.8945-4.1122-2.3111-6.2708-3.2576
				c-3.8747-1.6989-8.3643-1.8356-12.0177-3.9694c-5.7231-3.3426-7.7556-11.7113-4.2031-17.3066
				c-4.3566-1.8804-8.8064-4.0082-11.8318-7.6638c-3.0253-3.6556-4.2102-9.2586-1.5242-13.1703
				c0.688-1.002,1.6309-1.9416,1.7293-3.1531c0.0876-1.0798-0.5263-2.0727-0.8948-3.0916
				c-1.5191-4.2002,1.2156-8.7805,4.5371-11.7665c3.3216-2.986,7.399-5.2542,9.8906-8.9611
				c2.2445-3.3394,2.9418-7.4775,4.7869-11.053c1.8451-3.5756,5.735-6.7788,9.5856-5.6116c1.1485,0.3481,2.3272,1.069,3.4606,0.6743
				c1.2259-0.4269,1.6669-1.8977,2.5055-2.8886c1.9785-2.3378,5.6826-1.6546,8.6136-0.7665
				c2.9322,0.8885,5.9355,1.8127,8.3648,3.6796c2.4294,1.8669,4.1997,4.9086,3.6891,7.9296"/>
		</g>
		<g>
			<path class="st0" d="M123.1034,129.4634c-2.155-6.0035-9.5806-9.6603-15.5141-7.3192
				c-5.9335,2.341-8.7859,10.5422-5.2563,15.8552c1.2674,1.9078,3.1286,3.3285,4.9541,4.7119
				c1.9359,1.467,4.0326,2.9953,6.4585,3.1177c2.874,0.145,5.5435-1.8152,6.9821-4.3075c1.4386-2.4923,1.8529-5.437,2.0384-8.3087"
				/>
		</g>
	</g>
	<g>
		<path class="st6" d="M901.8987,243.6634c-6.3291,17.8217-10.3176,36.4589-12.4543,55.2311
			c-2.1924,18.7828-2.0339,37.7719-0.2612,56.4661c1.7939,18.7091,4.9265,37.1417,8.8203,55.3601
			c0.5483,2.2641,1.0898,4.5293,1.5925,6.804c0.5278,2.2687,1.0093,4.549,1.4778,6.8345c1.1494,4.5144,2.1958,9.0617,3.1414,13.6555
			c1.1611,4.5264,2.1997,9.1058,3.1194,13.7558c1.1101,4.5819,2.1372,9.2169,2.8408,14.0316l0.0239,0.1646
			c0.2759,1.8863-1.03,3.639-2.9163,3.9146c-1.3657,0.1996-2.6626-0.4332-3.3784-1.5116c-2.7136-4.1039-5.104-8.3875-7.4111-12.7242
			c-2.0925-4.4134-4.0659-8.8975-5.9167-13.4346c-1.6597-4.5948-3.219-9.2361-4.6746-13.9104
			c-0.6304-2.3618-1.2478-4.7288-1.8188-7.1073c-0.5962-2.3726-1.1543-4.7546-1.7039-7.138
			c-4.0806-19.1472-5.6553-38.7738-5.2842-58.2441c0.3503-19.4852,2.3711-38.8001,5.3503-57.8727
			c3.0339-19.0813,7.5308-37.8523,13.0088-56.3688c0.53-1.7952,2.4148-2.8209,4.2102-2.291c1.7952,0.53,2.8208,2.4149,2.291,4.2101
			C901.9393,243.5435,901.9175,243.6101,901.8987,243.6634z"/>
	</g>
	<g>
		<g>
			<path class="st6" d="M905.0643,183.0189c2.3623-8.9336,14.6459-13.4131,22.2045-8.0972
				c1.2199,0.8579,2.3366,1.9219,3.7436,2.4164c1.5936,0.56,3.3401,0.3152,5.0276,0.3893
				c7.601,0.3337,13.8509,8.4513,12.2302,15.885c-0.7122,3.2664-2.6285,6.8081-0.939,9.6929
				c1.2486,2.132,3.9238,2.8256,6.2086,3.7658c3.2432,1.3346,6.1295,3.5254,8.2872,6.2902
				c2.7925,3.5783,3.9327,9.5368,0.2159,12.1422c-1.5051,1.0551-3.6124,1.3855-4.5745,2.9516
				c-1.0936,1.7801-0.083,4.0592-0.1025,6.1483c-0.0316,3.3881-2.9509,6.1983-6.1794,7.2262s-6.7138,0.668-10.0818,0.2976
				c0.8304,9.7543-5.2762,20.7802-15.0057,21.8632c-2.3425,0.2607-4.7168-0.0562-7.0649,0.1484
				c-4.2149,0.3672-8.2202,2.4001-12.4493,2.2796c-6.6251-0.1888-12.4216-6.5579-11.9873-13.1714
				c-4.7248,0.439-9.65,0.7057-14.0577-1.0515c-4.4078-1.7571-8.1343-6.1057-7.653-10.8264
				c0.1233-1.2092,0.5001-2.4859,0.0055-3.5961c-0.4409-0.9896-1.4558-1.5665-2.2677-2.2838
				c-3.3471-2.9574-3.1438-8.288-1.6609-12.5011c1.4829-4.2131,3.9733-8.1588,4.3821-12.6065
				c0.3683-4.0067-1.0042-7.9724-1.0997-11.9948c-0.0955-4.0224,1.782-8.6987,5.7207-9.5209
				c1.1748-0.2453,2.5547-0.1779,3.36-1.0677c0.871-0.9624,0.5528-2.4646,0.8135-3.7363c0.6152-3.0002,4.1932-4.1769,7.1911-4.8031
				c2.9991-0.6264,6.0778-1.2555,9.1048-0.7822c3.027,0.4733,6.0392,2.2935,7.0398,5.1894"/>
		</g>
		<g>
			<path class="st0" d="M918.3242,208.0904c-4.77-4.2349-13.0396-3.883-17.1238,1.0166
				c-4.0842,4.8996-2.6546,13.4641,2.9905,16.4339c2.0271,1.0664,4.3416,1.4206,6.6068,1.7592
				c2.4023,0.359,4.9751,0.6946,7.1625-0.3612c2.5916-1.2509,3.9941-4.2511,4.0613-7.1281
				c0.0673-2.8769-0.9813-5.6596-2.1955-8.2686"/>
		</g>
	</g>
	<g>
		<g>
			<g>
				<path class="st2" d="M459.4146,256.6366c3.0235,48.3333-25.7892,89.6271-52.3974,127.2192
					c-4.4353,6.2663,5.8844,12.2204,10.2807,6.0093c27.8337-39.3236,57.1809-82.7444,54.0229-133.2285
					C470.8448,249.026,458.9351,248.9721,459.4146,256.6366L459.4146,256.6366z"/>
			</g>
		</g>
		<g>
			<path class="st9" d="M466.5645,250.4659c6.1219-11.6962,16.33-20.8482,27.5988-27.7251
				c5.4322-3.315,11.3497-6.2165,17.6999-6.6328c6.3502-0.4164,13.2226,2.13,16.4623,7.6075
				c4.1451,7.0082,0.9825,16.5232-5.0782,21.9605s-14.2606,7.709-22.2007,9.5121c-12.1064,2.7492-24.8311,4.7908-36.8364,1.6294"/>
		</g>
		<g>
			<path class="st9" d="M462.8028,255.6519c-9.746-17.2122-13.8806-37.5435-11.6312-57.1951
				c1.0474-9.151,3.6967-18.5993,10.2193-25.1026c6.5226-6.5034,17.756-8.9269,25.095-3.3612
				c4.0274,3.0542,6.3099,7.975,7.1685,12.9561c1.616,9.3753-1.3046,18.9086-4.7432,27.779
				c-5.7354,14.7955-13.0213,28.9894-21.6997,42.2742"/>
		</g>
		<g>
			<path class="st9" d="M458.6506,297.4716c-0.0414-17.4981-6.7015-34.9015-18.3526-47.9567
				c-3.6577-4.0985-7.8744-7.8366-12.9061-10.0408s-10.9814-2.7292-15.9995-0.4943c-9.1412,4.0712-12.404,16.2367-9.3318,25.7602
				c3.0721,9.5236,10.8449,16.7463,18.9231,22.6522c9.7965,7.1621,20.5061,13.074,31.787,17.5472"/>
		</g>
		<g>
			<path class="st9" d="M444.8325,329.4391c-9.8488-15.261-24.489-27.3801-41.321-34.2053
				c-2.4527-0.9945-5.0327-1.8928-7.6759-1.7578c-4.6906,0.2396-8.5498,3.6082-11.9989,6.796
				c-1.945,1.7977-3.9451,3.6719-4.9812,6.1094c-1.4454,3.4007-0.7392,7.434,1.1069,10.6349
				c1.8461,3.2009,4.7065,5.6896,7.6873,7.8732c14.8285,10.8621,34.1152,15.4331,52.2413,12.3811"/>
		</g>
		<g>
			<path class="st9" d="M464.4497,347.0537c1.9053-11.205,6.7154-22.198,15.0801-29.8929
				c8.3648-7.6949,20.5766-11.6208,31.5036-8.4934c1.6728,0.4788,3.3583,1.149,4.5635,2.404
				c1.5267,1.5898,2.0574,3.8643,2.4771,6.0281c0.6296,3.2455,1.1482,6.5894,0.5634,9.8433
				c-0.892,4.9636-4.299,9.1897-8.3856,12.1447c-4.0866,2.955-8.8457,4.8117-13.5468,6.6373
				c-6.2966,2.4452-12.5931,4.8904-18.8897,7.3355c-3.8829,1.5078-8.0716,3.0403-12.1182,2.0528"/>
		</g>
		<g>
			<g>
				<path class="st38" d="M476.1223,184.0288c-6.2581-0.9773-11.8949,1.6393-14.279,7.7158
					c-1.8011,4.5908-2.4308,12.0516,1.0048,16.0089c4.2565,4.9027,11.5688,4.2478,15.9078-0.2054
					c2.1075-2.1629,3.5566-4.9584,3.9751-7.9485c0.2233-1.5951,0.187-3.1808-0.2411-4.7476
					c-0.1788-0.6541-0.4431-1.7674-0.9021-2.2759c-0.7108-0.7875,0.5314-0.8784-0.0991,0.7617
					c-0.5103,0.8756-1.0206,1.7513-1.531,2.6269c0.1413-0.1498,0.2827-0.2996,0.424-0.4495c5.2556-5.5716-3.148-14.0068-8.419-8.419
					c-2.1014,2.2277-2.925,5.1197-2.1197,8.1159c0.28,0.7479,0.5824,1.4868,0.9073,2.2165c0.4072,0.8891,0.4919,1.0294,0.254,0.4212
					c-0.1233,0.5165-0.9033,1.2435-0.9595,1.5813c0.1113-0.6686,2.2522,1.6964,2.3858,1.5166
					c0.3999-0.5383,0.0205-2.7634,0.1306-3.4872c0.088-0.5784,0.2206-1.3858,0.5503-1.8585
					c0.323-0.4631-0.1157-0.0863-0.1544-0.0923c3.1728,0.4955,6.403-0.8095,7.3231-4.1579
					C481.0565,188.5265,479.3177,184.5278,476.1223,184.0288L476.1223,184.0288z"/>
			</g>
		</g>
		<g>
			<g>
				<path class="st38" d="M508.9297,228.452c-4.95-1.9114-10.7751-1.2287-15.3449,1.3955
					c-4.7608,2.7338-9.0617,8.4203-7.6994,14.1904c3.2329,13.6922,23.7341,4.1618,25.1537-6.0577
					c0.4418-3.1804-0.7727-6.3929-4.1579-7.323c-2.783-0.7647-6.8778,0.9528-7.3231,4.1579
					c-0.2264,1.63-0.7053,2.2165-2.2016,3.0714c-0.5802,0.3315-1.933,0.5431-2.346,0.9274
					c-1.0058,0.9361,1.8181,3.3224,2.7063,2.9724c0.1043-0.0411,1.0563-1.1319,1.1985-1.2392
					c0.6685-0.5047,1.4043-0.8229,2.201-1.0453c1.6716-0.4666,3.0307-0.1933,4.6481,0.4313
					c3.0001,1.1585,6.5317-1.2779,7.323-4.1579C514.0115,232.4128,511.9407,229.6147,508.9297,228.452L508.9297,228.452z"/>
			</g>
		</g>
		<g>
			<g>
				<path class="st38" d="M493.0778,318.8529c-5.2191,0.8297-9.8435,5.3461-9.5205,10.8387
					c0.3991,6.7855,7.8268,11.1992,13.7605,7.392c4.6947-3.0121,8.903-8.348,7.3925-14.2525
					c-1.7357-6.7849-9.6613-9.0506-14.8361-4.5651c-2.4308,2.107-2.1594,6.2596,0,8.419c2.4109,2.4109,5.9822,2.1122,8.419,0
					c-1.4164,1.2278-4.6874,1.5663-5.123-0.9888c-0.0688-0.404,0.1254-0.6464,0.1246-0.9626
					c-0.3894,0.5973-0.431,0.7026-0.1248,0.316c-0.2738,0.3121-0.5628,0.6095-0.867,0.8921
					c-0.2758,0.2617-1.3552,1.1812-1.343,1.1293c0.3192-1.3584,5.3937,0.2693,4.3047,2.9301
					c-0.3022,0.7384-1.1265,0.7686-0.2304,0.5645c-1.1608,0.2644,0.9975-0.1981,1.2085-0.2317
					c3.1778-0.5052,4.9419-4.4702,4.1579-7.3231C499.4708,319.6263,496.265,318.3462,493.0778,318.8529L493.0778,318.8529z"/>
			</g>
		</g>
		<g>
			<g>
				<path class="st38" d="M421.7364,256.9138c-10.1467,6.6718-2.1245,24.5877,9.1219,24.1708
					c6.2075-0.2301,10.4356-5.8464,9.147-11.8826c-1.1326-5.3055-5.7384-9.6649-10.3566-12.1317
					c-6.7565-3.6091-12.7776,6.6653-6.0093,10.2807c1.4799,0.7905,2.9296,1.7119,3.9722,3.0617
					c0.0394,0.0511,0.8098,1.2118,0.7493,1.241c0.4982-0.2407,0.3968-2.0163,1.5018-2.3458
					c0.0256-0.0076,1.3776-0.1521,1.1432,0.1426c-0.0918,0.1154-0.931-1.1286-0.8772-1.0479
					c-0.4253-0.6381-0.7506-1.3635-1.0656-2.059c-0.7247-1.6004,0.5139-0.3533-1.3175,0.8509
					c2.6835-1.7644,3.8195-5.2662,2.1357-8.145C428.3214,256.3824,424.4346,255.1397,421.7364,256.9138L421.7364,256.9138z"/>
			</g>
		</g>
		<g>
			<g>
				<path class="st38" d="M409.9846,306.3829c-5.7514-2.3552-13.2284,1.7727-14.8183,7.6153
					c-1.8468,6.7867,4.4692,12.9107,10.698,14.0388c5.6839,1.0294,14.0127-0.8327,15.4078-7.3837
					c1.3493-6.3359-5.7231-11.6971-10.7523-13.9838c-2.9247-1.3299-6.4062-0.837-8.145,2.1357
					c-1.4949,2.5558-0.8052,6.8078,2.1357,8.145c1.3226,0.6014,4.9474,2.247,5.2806,3.7031c0-1.0551,0-2.1101,0-3.1652
					c0.3378-1.9553,1.542-0.8239-0.2099-1.0191c-0.8222-0.0916-1.5554-0.3016-2.3392-0.4318
					c0.2049,0.034-0.7284-0.4377-0.6049-0.4709c0.2052-0.0552-0.5021,2.0916-0.4761,2.2345c0.12,0.6614-0.4499-0.1269,0.4367-0.1322
					c0.0946-0.0006-1.6788-0.5829,0.2216,0.1953c2.9766,1.2189,6.5439-1.3221,7.3231-4.1579
					C415.0802,310.2932,412.9723,307.6064,409.9846,306.3829L409.9846,306.3829z"/>
			</g>
		</g>
	</g>
	<g>
		<path class="st64" d="M1505.3192,467.4167c13.7777-47.8784,18.1962-101.2139-3.4904-146.0677
			c-21.1191-43.6802-65.4452-76.5511-72.9421-124.4862c-2.0536,12.9108-13.5715,22.1443-18.5701,34.2242
			c-4.0277,9.7339-3.5739,20.6821-2.6147,31.1727c3.4387,37.6147,13.028,75.722,35.3588,106.1856
			c11.6396,15.8787,26.3776,29.2056,39.0472,44.2751c12.6698,15.0696,23.5564,32.7539,25.1843,52.3744"/>
	</g>
	<g>
		<path class="st0" d="M1339.6025,266.0533c6.3722,18.8635,10.7811,38.3294,16.5615,57.3826
			c11.0414,36.3936,27.6185,71.994,54.4044,98.9926c26.7859,26.9986,64.9819,44.4257,102.7327,39.8121
			c-11.2809-21.9666-22.5947-43.9893-36.316-64.5201c-37.1796-55.631-90.4745-98.1655-142.8882-139.7579"/>
	</g>
	<g>
		<g>
			<g>
				<path class="st2" d="M1297.6528,258.3959c-3.158,50.4841,26.1891,93.9049,54.0229,133.2285
					c4.3915,6.2043,14.7205,0.2633,10.2806-6.0093c-26.6084-37.5925-55.4208-78.8855-52.3973-127.2192
					C1310.0377,250.7441,1298.1296,250.7727,1297.6528,258.3959L1297.6528,258.3959z"/>
			</g>
		</g>
		<g>
			<path class="st9" d="M1302.4092,252.2252c-6.1218-11.6962-16.33-20.8482-27.5988-27.7251
				c-5.4323-3.315-11.3497-6.2165-17.7-6.6328s-13.2225,2.13-16.4623,7.6075c-4.1451,7.0082-0.9825,16.5232,5.0782,21.9605
				c6.0608,5.4373,14.2605,7.709,22.2007,9.5121c12.1063,2.7492,24.8311,4.7909,36.8364,1.6294"/>
		</g>
		<g>
			<path class="st9" d="M1306.1709,257.4112c9.746-17.2122,13.8805-37.5435,11.6312-57.1951
				c-1.0475-9.151-3.6968-18.5993-10.2194-25.1026c-6.5225-6.5034-17.7559-8.9269-25.095-3.3613
				c-4.0273,3.0542-6.3098,7.975-7.1685,12.9561c-1.6161,9.3753,1.3047,18.9087,4.7432,27.779
				c5.7355,14.7955,13.0214,28.9894,21.6998,42.2742"/>
		</g>
		<g>
			<path class="st9" d="M1310.3231,299.2308c0.0414-17.4981,6.7014-34.9015,18.3525-47.9567
				c3.6577-4.0985,7.8744-7.8366,12.9061-10.0408c5.0317-2.2042,10.9813-2.7292,15.9995-0.4943
				c9.1411,4.0712,12.4039,16.2367,9.3318,25.7603c-3.0721,9.5235-10.845,16.7463-18.9231,22.6522
				c-9.7965,7.1621-20.5061,13.074-31.787,17.5472"/>
		</g>
		<g>
			<path class="st9" d="M1324.1411,331.1984c9.8489-15.261,24.489-27.3801,41.321-34.2053
				c2.4526-0.9945,5.0326-1.8928,7.6759-1.7578c4.6906,0.2396,8.5498,3.6082,11.9989,6.796
				c1.9451,1.7977,3.9451,3.6719,4.9812,6.1094c1.4454,3.4007,0.7391,7.434-1.1069,10.6349
				c-1.8461,3.2009-4.7064,5.6896-7.6874,7.8732c-14.8284,10.8621-34.1151,15.4331-52.2412,12.3811"/>
		</g>
		<g>
			<path class="st9" d="M1304.5239,348.813c-1.9054-11.205-6.7153-22.198-15.0802-29.8929
				c-8.3647-7.6949-20.5765-11.6208-31.5035-8.4934c-1.6729,0.4788-3.3584,1.149-4.5635,2.404
				c-1.5267,1.5898-2.0574,3.8643-2.4772,6.0281c-0.6296,3.2455-1.1482,6.5894-0.5634,9.8433
				c0.892,4.9636,4.299,9.1897,8.3856,12.1447c4.0867,2.955,8.8457,4.8117,13.5468,6.6372
				c6.2965,2.4452,12.5931,4.8904,18.8896,7.3355c3.8829,1.5079,8.0715,3.0403,12.1182,2.0528"/>
		</g>
		<g>
			<g>
				<path class="st38" d="M1296.0166,197.269c-0.3003,0.0469-0.1594-0.2231-0.1544,0.0923
					c0.0062,0.3855,0.4795,1.3932,0.5503,1.8585c0.1101,0.7237-0.2693,2.9489,0.1306,3.4872
					c0.1335,0.1798,2.2744-2.1852,2.3857-1.5166c-0.0563-0.3378-0.8362-1.0648-0.9595-1.5813
					c-0.2379,0.6083-0.1532,0.4679,0.254-0.4212c0.3248-0.7298,0.6273-1.4686,0.9072-2.2165
					c0.8054-2.9962-0.0182-5.8882-2.1196-8.1159c-5.2688-5.5854-13.677,2.845-8.4191,8.419
					c0.1414,0.1498,0.2827,0.2996,0.424,0.4494c-0.5103-0.8756-1.0206-1.7513-1.5309-2.6269
					c-0.1532-0.3984,0.4592-1.2148,0.0765-1.1516c-0.2383,0.0394-0.8911,2.0129-0.9514,2.2019
					c-0.451,1.4157-0.5846,2.9464-0.4738,4.4202c0.2357,3.1351,1.6752,6.1299,3.7893,8.4378
					c4.2952,4.6888,11.8242,5.5475,16.1998,0.5074c3.3472-3.8554,2.8275-11.0988,1.1608-15.6229
					c-2.3138-6.2809-7.9865-9.1089-14.4348-8.1018c-3.1793,0.4965-4.9403,4.4762-4.158,7.323
					C1289.6255,196.5023,1292.8279,197.767,1296.0166,197.269L1296.0166,197.269z"/>
			</g>
		</g>
		<g>
			<g>
				<path class="st38" d="M1263.2091,241.6922c1.6174-0.6246,2.9766-0.898,4.6482-0.4313c0.7966,0.2224,1.5323,0.5406,2.2009,1.0453
					c0.1422,0.1073,1.0941,1.1981,1.1985,1.2392c0.8883,0.35,3.7122-2.0363,2.7063-2.9724c-0.413-0.3843-1.7657-0.596-2.3459-0.9274
					c-1.4962-0.8549-1.9751-1.4414-2.2015-3.0714c-0.4429-3.1876-4.5137-4.93-7.3231-4.1579
					c-3.4326,0.9433-4.6021,4.1255-4.1578,7.323c1.4194,10.2185,21.9313,19.7483,25.1537,6.0577
					c1.3367-5.6792-2.7726-11.1475-7.3601-13.981c-4.58-2.8289-10.644-3.5511-15.6842-1.6048
					c-2.9974,1.1575-5.0707,4.0015-4.1578,7.3231C1256.6733,240.399,1260.1935,242.8567,1263.2091,241.6922L1263.2091,241.6922z"/>
			</g>
		</g>
		<g>
			<g>
				<path class="st38" d="M1272.7307,332.0931c0.2111,0.0335,2.3694,0.4961,1.2085,0.2317c0.9437,0.215,0.1614,0.208-0.1553-0.3406
					c-1.6077-2.7856,3.9268-4.4428,4.2296-3.1539c0.0122,0.0519-1.0671-0.8675-1.3429-1.1293
					c-0.3042-0.2826-0.5931-0.58-0.8671-0.8921c0.2394,0.3079,0.2496,0.2918,0.0308-0.0483
					c-0.205-0.3523-0.2075-0.357-0.0073-0.0142c0.0594,0.2383,0.0515,0.4746-0.0237,0.709
					c-0.4061,2.5722-3.7324,2.1942-5.1229,0.9888c2.4281,2.1047,6.0315,2.3874,8.4189,0c2.1514-2.1514,2.4398-6.3041,0-8.419
					c-5.0168-4.3487-12.9354-2.3776-14.777,4.265c-1.6487,5.9473,2.5011,11.5485,7.3334,14.5526
					c5.7089,3.5489,12.7184-0.1085,13.6542-6.6008c0.8346-5.7889-3.8774-10.7498-9.4141-11.6299
					c-3.1715-0.5042-6.4047,0.8155-7.3231,4.1579C1267.7946,327.6023,1269.5369,331.5854,1272.7307,332.0931L1272.7307,332.0931z"/>
			</g>
		</g>
		<g>
			<g>
				<path class="st38" d="M1341.2279,268.9538c-1.8314-1.2042-0.5928-2.4513-1.3174-0.8509
					c-0.3146,0.6946-0.6387,1.4231-1.0656,2.059c0.026-0.0388-0.7445,1.2176-0.8773,1.048
					c-0.2335-0.2983,1.1178-0.1502,1.1433-0.1426c1.1318,0.3374,0.976,2.0739,1.5018,2.3458
					c-0.0789-0.0407,0.6598-1.126,0.7493-1.241c1.0491-1.3488,2.4886-2.2693,3.9722-3.0618
					c6.7611-3.6115,0.7538-13.8933-6.0093-10.2807c-4.4962,2.4017-9.0553,6.6395-10.2749,11.775
					c-1.4546,6.1249,2.6498,12.0202,9.0653,12.2393c11.2354,0.3837,19.288-17.4863,9.1218-24.1708
					c-2.6873-1.767-6.5826-0.5354-8.1449,2.1357C1337.3933,263.7133,1338.5342,267.1826,1341.2279,268.9538L1341.2279,268.9538z"/>
			</g>
		</g>
		<g>
			<g>
				<path class="st38" d="M1362.1543,319.6231c0.674-0.276,1.0137-0.2781,0.13-0.231c0.1407-0.0075,0.8168,0.4004,0.8177,0.4596
					c-0.193-0.1944-0.386-0.3889-0.579-0.5833c-0.0371-0.6838-0.0743-1.3676-0.1115-2.0515
					c0.036,0.0073-0.6495,0.5749-0.6801,0.5796c-0.6456,0.0999-1.193,0.4504-1.9106,0.4355
					c0.2333,0.0049-1.2134-0.0774-0.9528-0.1359c-1.1288,0.2535-0.2463-2.0942,0.3143,1.1512c0,1.0551,0,2.1101,0,3.1652
					c0.3346-1.4618,3.949-3.0976,5.2806-3.7031c2.927-1.3308,3.6405-5.5723,2.1357-8.145c-1.7596-3.0084-5.207-3.4716-8.145-2.1357
					c-4.9669,2.2584-11.3357,7.1243-10.8586,13.1925c0.5573,7.0878,9.7524,9.2697,15.5142,8.175
					c6.1121-1.1612,12.2587-6.9084,10.7871-13.6212c-1.3323-6.0778-9.0276-10.4406-14.9073-8.0328
					c-2.9733,1.2175-5.083,3.957-4.158,7.3231C1355.6049,318.2802,1359.1609,320.8489,1362.1543,319.6231L1362.1543,319.6231z"/>
			</g>
		</g>
	</g>
	<g>
		<path class="st0" d="M541.871,219.9776c-15.1774,35.1385-26.8802,71.9541-32.2318,109.8543
			c-3.5468,25.1181-4.288,50.5372-5.0241,75.8938c-0.6322,21.7768-1.2625,43.6168,0.7288,65.3116
			c4.2917,46.7556,20.7089,91.7505,42.4426,133.3696c21.7336,41.6191,48.7583,80.2072,75.7003,118.6602
			c2.6635-2.0796,2.6833-6.0456,2.2982-9.4028c-4.5056-39.2766-30.2433-72.4082-45.0683-109.0575
			c-14.4606-35.7485-18.4461-75.6624-11.3396-113.5644c5.2761-28.1399,16.4128-54.7796,25.2657-82.0067
			c8.8529-27.2271,15.5026-56.023,11.379-84.3547c-5.9214-40.6831-33.4333-75.2944-65.3593-101.1963"/>
	</g>
	<g>
		<path class="st8" d="M570.5378,608.1041c-8.002-51.476-9.3214-103.9869-3.9147-155.7998
			c1.3593-13.0257,3.2065-26.2383,8.7144-38.1202c4.0261-8.6857,9.8776-16.3722,14.9758-24.4752
			c6.2473-9.9293,11.4078-20.5842,14.7947-31.8158c8.1184-26.9214,5.7565-55.688,6.0005-83.8059s3.8633-57.9752,21.4302-79.9314
			c-0.8671,18.975-1.7198,38.1623,1.8901,56.8109c3.1251,16.144,9.5112,31.4415,14.4987,47.1106
			c15.5912,48.9825,17.3363,102.2907,4.982,152.188c-2.8636,11.5659-6.4753,22.9712-11.3237,33.8553
			c-4.6497,10.4381-10.4086,20.3385-16.1553,30.2152c-7.5656,13.0028-15.1313,26.0056-22.6969,39.0084
			c-10.76,18.4929-21.5377,37.0134-33.8735,54.4945"/>
	</g>
	<g>
		<g>
			<g>
				<path class="st65" d="M1099.3955,428.5925c-12.759-6.5466-24.3239-15.412-33.9597-26.0328
					c-7.7006-8.4877-14.1393-18.0362-20.1971-27.7646c-6.778-10.8848-13.1757-22.1808-16.714-34.5056
					c-3.5385-12.3247-4.0298-25.8828,0.8586-37.737c0.6763-1.6398,1.6121-3.3901,3.2869-3.9742
					c1.3439-0.4687,2.819-0.0574,4.1755,0.3734c8.479,2.6927,16.7219,6.1285,24.6033,10.2551
					c-11.7404-10.9951-16.6041-28.7859-12.0906-44.2247c0.5879-2.0109,1.3447-4.0227,2.6848-5.6332
					c1.4747-1.7724,3.5621-2.939,5.7235-3.7419c11.0601-4.1087,24.8391,1.8608,29.4061,12.7397
					c0.3081-8.131,3.0977-16.1514,7.9019-22.7185c4.1506-5.6739,10.1991-10.4278,17.1984-11.0845
					c9.5149-0.8927,18.5054,6.3354,21.8492,15.288s1.9434,19.0714-1.4177,28.0176s-8.5573,17.0632-13.0226,25.5125
					c8.5284-4.3591,17.2378-8.3642,26.0981-12.0013c3.2894-1.3503,7.2972-2.5795,10.1746-0.4903
					c1.7455,1.2674,2.5508,3.4428,3.1212,5.5231c3.1196,11.3753,1.9702,23.4335,0.665,35.1563
					c-1.1704,10.5125-2.4564,21.0609-5.2842,31.2534c-7.8445,28.2761-27.9944,52.9051-54.1565,66.1949"/>
			</g>
			<g>
				<path class="st6" d="M1089.8907,310.5956c4.0022,10.7473,7.6072,21.6285,10.5828,32.7104
					c2.9702,11.0777,5.4841,22.3122,7.2976,33.7118c1.8137,11.3954,2.7104,22.9815,2.4131,34.5561
					c-0.1152,2.8912-0.2568,5.7829-0.4592,8.6685c-0.2917,2.8805-0.6382,5.7553-1.0388,8.6189
					c-0.4934,2.855-1.0527,5.6978-1.6792,8.5211c-0.7554,2.8059-1.5,5.6049-2.4719,8.3495
					c-0.3228,0.9119-1.324,1.3894-2.2358,1.0665c-0.6924-0.2452-1.1343-0.8814-1.1655-1.5726l-0.0024-0.0662
					c-0.1274-2.8867-0.0276-5.719,0.0615-8.5443c0.0195-2.8342,0.1057-5.649,0.2581-8.4515
					c0.0469-2.813,0.1484-5.6148,0.3044-8.4109c0.0486-2.8031,0.1582-5.6001,0.2937-8.3976
					c0.3147-11.1955,0.259-22.42-0.4031-33.6675c-0.6631-11.2435-2.1489-22.4852-4.6648-33.515
					c-2.5107-11.0255-5.8779-21.8838-10.2974-32.3008c-0.3723-0.8777,0.0374-1.891,0.915-2.2634
					c0.8777-0.3723,1.8909,0.0373,2.2632,0.915C1089.8712,310.5451,1089.8824,310.5736,1089.8907,310.5956z"/>
			</g>
		</g>
	</g>
	<g>
		<g>
			<path class="st9" d="M707.0339,417.6915c17.1237-7.4802,34.3444-15.0126,49.938-25.309
				c15.5936-10.2964,29.6293-23.6014,38.126-40.2442c5.2305-10.2454,8.2604-21.6074,8.8259-33.0969
				c0.0962-1.9544,0.0982-4.0153-0.8422-5.7312c-2.5118-4.5831-9.2642-3.6577-14.2495-2.089
				c-8.7024,2.7385-17.4047,5.4769-26.1071,8.2154c10.8331-7.7078,22.6068-16.9134,24.3266-30.097
				c1.3273-10.1745-3.9199-20.1625-10.7084-27.8565c-1.168-1.3239-2.6643-2.7139-4.4185-2.515
				c-1.2665,0.1436-2.2748,1.0905-3.1629,2.0047c-10.5111,10.8193-18.3468,24.2189-22.6219,38.685
				c6.0331-14.9451-2.12-34.036-17.088-40.0122c-6.5594-2.619-14.8291-2.5816-19.885,2.3503
				c-2.6953,2.6292-4.1328,6.2875-5.066,9.9354c-2.4746,9.6729-1.8584,20.1118,1.737,29.4264
				c-6.8452-9.1303-13.6903-18.2607-20.5355-27.3911c-0.6282-0.8378-1.3442-1.7342-2.3678-1.955
				c-0.9904-0.2137-1.9869,0.2691-2.8668,0.7715c-15.2848,8.7288-22.8789,27.3365-22.6962,44.9371
				c0.1827,17.6007,6.9189,34.4457,14.5411,50.3114c8.3054,17.2878,17.9322,34.2021,31.1909,48.0604"/>
		</g>
		<g>
			<path class="st6" d="M729.0479,312.3739c-4.7058,10.2908-8.3721,21.0518-11.187,32.0036
				c-2.8198,10.956-4.6162,22.1523-5.5898,33.3732c-0.9734,11.2249-1.3394,22.4435-1.3345,33.6435
				c0.0581,2.8001,0.0903,5.5992,0.0613,8.4025c0.0786,2.7993,0.1025,5.6029,0.0718,8.4161
				c0.0747,2.8057,0.083,5.6217,0.0239,8.4554c0.011,2.8267,0.0325,5.6606-0.1748,8.5428l-0.0046,0.0648
				c-0.0693,0.9649-0.9077,1.6909-1.8726,1.6215c-0.7327-0.0526-1.3276-0.5501-1.541-1.2083
				c-0.8958-2.7704-1.5625-5.5889-2.2402-8.4147c-0.5479-2.8395-1.0286-5.6967-1.4426-8.5642
				c-0.3215-2.8736-0.5881-5.7569-0.8-8.6443c-0.1223-2.8901-0.1841-5.7846-0.2192-8.6779
				c0.0229-11.5784,1.2397-23.1353,3.3682-34.4761c2.1279-11.3451,4.9519-22.5057,8.2275-33.497
				c3.2808-10.9953,7.1855-21.7726,11.4834-32.4051c0.3569-0.884,1.363-1.3112,2.2471-0.9542
				c0.884,0.357,1.3113,1.3631,0.9541,2.2471C729.0699,312.3245,729.0577,312.3525,729.0479,312.3739z"/>
		</g>
	</g>
	<g>
		<g>
			<path class="st11" d="M1033.3307,256.5805c-4.7926-6.5176-14.6241-7.6579-22.0181-4.3748
				c-7.394,3.2831-12.7038,9.9796-16.8239,16.9419c-2.1939,3.7074-4.1843,7.7234-4.33,12.0288
				c-0.3049,9.0146,8.1658,16.6918,17.137,17.6263c8.9712,0.9345,17.7943-3.5722,24.2986-9.8212
				c3.891-3.7382,7.2001-8.2084,8.9028-13.3284c1.7028-5.12,1.677-10.938-0.7667-15.7486"/>
		</g>
		<g>
			<path class="st11" d="M1041.876,316.5806c-3.8643-2.6364-8.017-4.9566-12.5448-6.1318s-9.4841-1.1315-13.7363,0.8181
				c-3.6423,1.67-6.5441,4.6035-9.141,7.6549c-2.9354,3.4491-5.6733,7.3067-6.4584,11.7672
				c-1.2267,6.9698,2.9339,14.2943,9.1924,17.5979c6.2585,3.3036,14.119,2.8385,20.426-0.3716
				c6.3069-3.2101,11.1252-8.9066,14.1802-15.2901c1.9744-4.1254,3.2823-8.8226,2.2063-13.2677"/>
		</g>
		<g>
			<path class="st11" d="M962.3515,239.3823c-5.3563-2.9197-11.9846-3.6146-17.6756-1.4173s-10.2382,7.3932-11.2134,13.4151
				c-0.4515,2.7876-0.1667,5.6503,0.4199,8.4126c2.3618,11.1199,10.4804,21.4462,21.5294,24.1202
				c2.9693,0.7186,6.1213,0.877,9.067,0.067c2.2208-0.6107,4.2711-1.756,6.0925-3.1658
				c6.6102-5.1165,10.0928-13.9851,8.7302-22.2323c-1.3625-8.2472-7.5126-15.5244-15.4172-18.2429"/>
		</g>
		<g>
			<path class="st11" d="M963.6417,305.3232c-5.4879-4.4974-12.4503-7.3327-19.5455-7.2998s-14.2493,3.0953-18.7037,8.6181
				c-4.4545,5.5228-5.8942,13.4993-3.0984,20.0205c1.4136,3.2973,3.7905,6.1104,6.4936,8.469
				c6.7343,5.8762,16.2702,9.1152,24.8368,6.5669c6.9969-2.0814,12.644-7.9261,14.9246-14.8606
				c2.2806-6.9345,1.2947-14.7772-2.222-21.1741"/>
		</g>
		<g>
			<g>
				<path class="st3" d="M978.5175,295.442c-1.4406,20.8675,1.1462,41.6087,2.5917,62.3976
					c1.4001,20.1363,0.3127,39.9268-1.7155,59.9827c-4.0337,39.8879-10.0374,79.7404-22.8774,117.8497
					c-2.1307,6.324,7.8586,9.0375,9.9769,2.7505c12.9289-38.373,18.935-78.5493,23.0543-118.7074
					c2.1216-20.6837,3.3528-41.0978,1.9081-61.8755c-1.4454-20.7889-4.0322-41.5301-2.5917-62.3976
					C989.3228,288.7964,978.9743,288.8249,978.5175,295.442L978.5175,295.442z"/>
			</g>
		</g>
	</g>
	<g>
		<path class="st6" d="M752.9432,180.636c-0.4347,16.3302-0.8694,32.6603-1.3041,48.9904
			c-0.7634,28.6785-1.519,57.5095,2.3875,85.9309c7.6672,55.7824,33.1667,109.3741,30.272,165.6065
			c-0.7585,14.7365-3.4799,29.4053-2.7981,44.1456c1.4576,31.517,19.1257,61.3336,44.6429,79.8893
			c25.5173,18.5558,58.1789,26.1957,89.6177,23.5405c-22.4653-15.9803-45.6818-32.7871-58.93-56.9645
			c-16.6953-30.468-14.8031-67.2192-14.5967-101.961c0.134-22.5564-0.632-45.1182-2.2955-67.6136
			c-0.8884-12.0135-2.0524-24.1105-5.6091-35.6198c-4.0009-12.9472-10.9055-24.7654-17.4321-36.6414
			c-25.9395-47.2007-46.7237-97.2324-61.8641-148.9193"/>
	</g>
	<g>
		<path class="st0" d="M755.108,180.4165c29.9609,26.8621,69.8489,56.0954,95.2336,87.3179
			c7.5336,9.2661,14.7017,18.9994,19.3955,29.9804c16.1608,37.8078,0.2861,81.3225,4.4378,122.2292
			c3.3381,32.8907,19.6073,63.2948,23.9925,96.0623c2.5533,19.079,1.0071,38.458,2.1215,57.6748
			c1.1144,19.2169,5.2982,39.1331,17.5105,54.0121c-14.1566-2.665-35.025-10.743-44.0945-21.9348
			c-32.784-40.4553-45.2174-74.6384-55.2324-125.7374c-9.7597-49.7967-7.9532-119.5979-30.4511-165.0821
			c-5.616-11.3537-12.8657-21.9098-17.5342-33.6848c-5.4069-13.6369-7.1569-28.4014-8.8593-42.9719
			C759.3664,218.9251,752.3229,199.7053,755.108,180.4165"/>
	</g>
	<g>
		<g>
			<path class="st63" d="M603.6668,338.9001c-1.116,8.9902-12.4577,14.9626-20.5019,10.796
				c-1.2982-0.6725-2.5234-1.5587-3.9555-1.8534c-1.6219-0.3338-3.2863,0.1345-4.9354,0.2852
				c-7.4279,0.6788-14.5705-6.3823-13.9769-13.8175c0.2608-3.2671,1.655-6.9605-0.3669-9.54
				c-1.4943-1.9063-4.1846-2.2271-6.5282-2.839c-3.3267-0.8685-6.4197-2.6159-8.8806-5.017
				c-3.185-3.1076-5.0788-8.7455-1.812-11.7669c1.3229-1.2235,3.3264-1.8226,4.0543-3.471c0.8275-1.8736-0.455-3.9542-0.7117-5.9862
				c-0.4164-3.2955,2.0486-6.4107,5.0494-7.8352c3.0007-1.4245,6.4339-1.5348,9.7545-1.6194
				c-2.0938-9.3662,2.3835-20.8829,11.6923-23.2188c2.2411-0.5624,4.5895-0.5679,6.8435-1.0764
				c4.046-0.9129,7.6687-3.4163,11.7929-3.8572c6.4608-0.6908,12.9322,4.7315,13.383,11.2135
				c4.5319-1.05,9.2812-1.9589,13.795-0.8335c4.5137,1.1254,8.7077,4.858,8.863,9.5073c0.0398,1.1909-0.1578,2.4809,0.4692,3.4942
				c0.5589,0.9032,1.6209,1.3297,2.5043,1.9194c3.6418,2.4312,4.1477,7.6364,3.2631,11.9249
				c-0.8846,4.2885-2.7833,8.45-2.5935,12.8247c0.1709,3.9409,2.0275,7.6122,2.651,11.5071s-0.5833,8.6854-4.301,10.0038
				c-1.1089,0.3933-2.4583,0.5099-3.1232,1.4806c-0.7191,1.0499-0.2117,2.4672-0.2972,3.7369
				c-0.2017,2.9957-3.5222,4.6109-6.3519,5.6148c-2.8308,1.0043-5.7385,2.0217-8.7416,1.9613
				c-3.0031-0.0603-6.1694-1.4311-7.5235-4.1122"/>
		</g>
		<g>
			<path class="st0" d="M587.4774,316.2943c5.1925,3.4845,13.1796,2.0514,16.5005-3.2472
				c3.321-5.2986,0.8021-13.4299-5.0736-15.5699c-2.1099-0.7685-4.405-0.8072-6.6503-0.8371
				c-2.381-0.0318-4.9246-0.0183-6.9103,1.296c-2.3525,1.5572-3.3191,4.6568-3.0048,7.4604
				c0.3143,2.8036,1.7001,5.3685,3.2239,7.7428"/>
		</g>
	</g>
	<g>
		<g>
			<path class="st9" d="M1653.1744,377.4026c-4.2385-18.1992-8.5109-36.5032-15.797-53.7103
				c-7.2863-17.2072-17.8145-33.4301-32.6328-44.8139c-9.1222-7.0079-19.743-12.0552-30.9376-14.7024
				c-1.9043-0.4503-3.9303-0.8274-5.7888-0.215c-4.9636,1.6357-5.2827,8.4438-4.6476,13.6312
				c1.1089,9.0555,2.2177,18.1109,3.3264,27.1663c-5.6073-12.055-12.5162-25.3075-25.1666-29.3982
				c-9.7629-3.157-20.5391,0.1847-29.3402,5.4594c-1.5143,0.9076-3.1534,2.1259-3.2772,3.887
				c-0.0894,1.2714,0.6583,2.4352,1.3955,3.4749c8.7256,12.3047,20.4752,22.4484,33.9215,29.285
				c-13.5974-8.6525-33.8534-4.1103-42.4541,9.52c-3.7692,5.9732-5.2375,14.1115-1.3081,19.9806
				c2.0947,3.1288,5.4303,5.2082,8.8473,6.7898c9.0609,4.1938,19.4376,5.4879,29.251,3.6479
				c-10.2236,5.069-20.4474,10.1381-30.6711,15.2071c-0.9381,0.4651-1.9498,1.0061-2.3533,1.9724
				c-0.3904,0.9349-0.097,2.0027,0.2368,2.9593c5.8011,16.6182,22.7158,27.4722,40.0557,30.4961
				c17.34,3.0238,35.1298-0.534,52.1177-5.1411c18.5106-5.0201,36.8947-11.4076,52.9347-21.9225"/>
		</g>
		<g>
			<path class="st6" d="M1553.6229,336.5876c9.2625,6.5003,19.1763,12.0641,29.4329,16.8251
				c10.2598,4.7669,20.9421,8.571,31.7983,11.5709c10.8601,2.9999,21.825,5.4019,32.8386,7.4355
				c2.7642,0.4525,5.522,0.9302,8.2734,1.4689c2.7666,0.4323,5.5278,0.919,8.2886,1.4614c2.7725,0.4371,5.543,0.9416,8.3184,1.5153
				c2.7817,0.5038,5.5723,0.9984,8.3682,1.7267l0.063,0.0164c0.936,0.2438,1.4976,1.2003,1.2539,2.1365
				c-0.1855,0.7108-0.7827,1.2053-1.4688,1.2955c-2.8872,0.3764-5.7803,0.5192-8.6821,0.6711
				c-2.8916,0.022-5.7886-0.0255-8.6836-0.1402c-2.8843-0.2069-5.7676-0.4695-8.6455-0.7866
				c-2.8643-0.4056-5.7217-0.8718-8.5728-1.364c-11.3809-2.1299-22.5234-5.4297-33.2874-9.5868
				c-10.7683-4.1573-21.2285-8.9654-31.4402-14.1867c-10.2144-5.2273-20.1011-11.0283-29.7737-17.1896
				c-0.8042-0.512-1.0413-1.579-0.5293-2.3833c0.512-0.8043,1.5791-1.0412,2.3833-0.5292
				C1553.5782,336.5571,1553.6036,336.5742,1553.6229,336.5876z"/>
		</g>
		<g>
			<g>
				<path class="st11" d="M1534.2291,141.2243c-7.9969-1.2241-15.7584,4.9174-18.6693,12.4657s-1.9349,16.0385,0.0706,23.876
					c1.0679,4.1734,2.4979,8.4214,5.4376,11.5704c6.1552,6.5932,17.5739,6.0382,24.5813,0.3592
					c7.0073-5.6791,10.0646-15.103,10.25-24.1208c0.111-5.3945-0.707-10.8958-3.1208-15.7215s-6.5438-8.9236-11.6724-10.6001"/>
			</g>
			<g>
				<path class="st11" d="M1582.6785,177.6345c-4.597,0.8658-9.1748,2.159-13.2087,4.5275
					c-4.0341,2.3685-7.5096,5.9022-9.1401,10.2867c-1.3967,3.7556-1.3765,7.8818-1.0573,11.8759
					c0.3608,4.5146,1.15,9.1789,3.7469,12.8894c4.0579,5.798,12.1779,8.0395,18.9404,5.9538
					c6.7626-2.0858,11.995-7.97,14.1885-14.6984s1.5765-14.1638-0.7736-20.8391c-1.5187-4.3139-3.913-8.5616-7.8157-10.946"/>
			</g>
			<g>
				<path class="st11" d="M1664.339,260.4471c-5.8705-1.3966-12.2302,1.2797-16.2284,5.7994s-5.8719,10.6037-6.3312,16.6205
					s0.3839,12.0484,1.225,18.0238c0.5128,3.6425,1.4023,7.837,4.6877,9.4912c1.2407,0.6247,2.6619,0.7769,4.0497,0.835
					c6.8301,0.2856,13.7335-1.5188,19.5504-5.1098c2.0165-1.2449,3.9332-2.7283,5.3037-4.6617
					c2.5303-3.5697,2.9077-8.2007,2.95-12.576c0.0443-4.6001-0.1865-9.2029-0.6909-13.7754
					c-0.3785-3.4322-0.9406-6.9353-2.6406-9.9407c-1.7001-3.0054-4.764-5.4514-8.2162-5.5224"/>
			</g>
			<g>
				<path class="st11" d="M1471.8579,179.2197c-5.853,1.7198-11.0336,5.9126-13.507,11.4891
					c-2.4735,5.5765-2.0184,12.4661,1.5475,17.4158c1.6506,2.2912,3.8752,4.1153,6.2424,5.655
					c9.5297,6.1981,22.5714,7.7662,32.2782,1.8494c2.6086-1.5901,4.9506-3.7056,6.4622-6.3605
					c1.1395-2.0016,1.7808-4.2608,2.073-6.5455c1.0607-8.2914-2.7432-17.0271-9.5356-21.899s-16.2866-5.674-23.8002-2.0109"/>
			</g>
			<g>
				<path class="st11" d="M1519.3728,224.9603c-7.061,0.6966-13.9906,3.6111-18.9872,8.6488
					c-4.9966,5.0376-7.8937,12.2602-7.142,19.3156c0.7516,7.0554,5.3702,13.7161,11.9569,16.354
					c3.3303,1.3338,7,1.6442,10.5793,1.4025c8.9174-0.602,17.953-5.0497,22.2128-12.9068
					c3.4792-6.4174,3.3439-14.5434,0.0566-21.0612c-3.2874-6.5178-9.5275-11.3697-16.5364-13.41"/>
			</g>
			<g>
				<path class="st11" d="M1604.8198,305.9578c-6.3177,0.7453-12.7535,1.5228-18.5413,4.1633
					c-5.7876,2.6405-10.928,7.4954-12.2605,13.7158c-0.54,2.5214-0.4375,5.1346-0.208,7.703c0.2384,2.6685,0.6238,5.37,1.738,7.8064
					c3.4347,7.5102,12.6107,10.4036,20.8441,11.0448c8.5997,0.6696,18.1213-0.5899,24.0576-6.8479
					c5.2715-5.5572,6.496-14.3133,3.7305-21.4563c-2.7656-7.143-9.1063-12.5981-16.3296-15.1468"/>
			</g>
			<g>
				<path class="st11" d="M1571.655,271.6099c-8.8871-3.7121-19.5525-3.9211-27.8451,0.9771s-13.3848,15.3978-10.6094,24.6205
					c0.568,1.8874,1.4438,3.7003,2.7157,5.2061c1.9733,2.3361,4.7727,3.8047,7.5809,5.0152
					c8.6273,3.7188,18.9967,5.4011,27.1639,0.7581c5.969-3.3933,9.9369-10.0558,10.0771-16.9205s-3.5521-13.6837-9.3776-17.318"/>
			</g>
			<g>
				<path class="st11" d="M1621.3224,217.4061c-7.4971,0.9973-14.5237,5.1467-19.0173,11.2301
					c-1.3475,1.8243-2.491,3.8551-2.922,6.0817c-0.3168,1.6364-0.239,3.3202-0.1587,4.985
					c0.3007,6.2334,0.7881,12.9249,4.7094,17.7797c2.9668,3.6729,7.5471,5.7453,12.1844,6.6322
					c2.6531,0.5074,5.4586,0.6566,8.0028-0.2506c2.8795-1.0267,5.1244-3.2849,7.1971-5.532
					c3.3674-3.6508,6.6614-7.6437,7.8749-12.4598c0.8978-3.5639,0.5836-7.3077,0.2349-10.9664
					c-0.4155-4.3587-0.9185-8.8618-3.1115-12.6514c-2.1931-3.7896-6.5514-6.6851-10.8381-5.7939"/>
			</g>
			<g>
				<g>
					<path class="st3" d="M1522.9159,207.4582c20.2377,23.2948,46.4752,40.2612,67.4,62.8753
						c21.656,23.4043,41.5055,49.2716,59.3208,75.6956c10.1604,15.0702,19.4557,30.7019,27.5227,46.9941
						c2.9546,5.9672,11.8817,0.7314,8.934-5.2221c-14.345-28.9711-32.6505-55.6522-52.4088-81.1664
						c-9.8607-12.7331-19.9343-25.3702-30.5446-37.4897c-10.3954-11.8742-21.9135-22.443-33.9232-32.6514
						c-13.5546-11.5216-27.2841-22.8832-38.9849-36.3515C1525.8573,195.1065,1518.5653,202.4505,1522.9159,207.4582
						L1522.9159,207.4582z"/>
				</g>
			</g>
		</g>
		<g>
			<g>
				<path class="st65" d="M1705.876,375.2713c-14.0675-2.7851-27.6245-8.128-39.8098-15.6891
					c-9.7379-6.0425-18.5544-13.452-27.0542-21.1392c-9.5101-8.601-18.7678-17.7018-25.5593-28.5782
					c-6.7916-10.8763-10.9928-23.7764-9.553-36.5179c0.1991-1.7625,0.6174-3.7027,2.067-4.725
					c1.1631-0.8202,2.6946-0.8304,4.1172-0.7893c8.8926,0.257,17.7626,1.2932,26.475,3.0931
					c-14.3115-7.3423-23.8807-23.1093-23.7872-39.1941c0.0121-2.0951,0.1865-4.2374,1.032-6.1543
					c0.9304-2.1096,2.6165-3.8053,4.4736-5.1717c9.5035-6.9921,24.3931-5.0424,31.776,4.161
					c-1.9402-7.9021-1.4639-16.3804,1.3489-24.0156c2.4302-6.5966,6.9379-12.8307,13.4866-15.387
					c8.9026-3.4751,19.5343,1.0016,25.2113,8.6894c5.6771,7.6877,7.1135,17.8015,6.3425,27.3271
					c-0.771,9.5255-3.5344,18.7586-5.5038,28.1102c7.0006-6.5365,14.2726-12.7824,21.791-18.7161
					c2.7913-2.2029,6.3064-4.487,9.6473-3.2697c2.0267,0.7385,3.3993,2.6085,4.5199,4.4517
					c6.1278,10.0787,8.339,21.988,10.3082,33.6177c1.7659,10.429,3.4304,20.9243,3.515,31.5014
					c0.2346,29.3431-12.3646,58.5641-33.8629,78.5367"/>
			</g>
			<g>
				<path class="st6" d="M1664.2855,264.4388c6.8037,9.2321,13.2622,18.7023,19.1709,28.5385
					c5.9023,9.8337,11.4092,19.9435,16.2876,30.4048c4.8779,10.4571,8.9268,21.3499,11.8237,32.5599
					c0.6846,2.8114,1.3438,5.6305,1.9429,8.4605c0.5117,2.8496,0.9692,5.7088,1.3716,8.5722
					c0.311,2.8806,0.5547,5.7676,0.729,8.6543c0.0454,2.9055,0.0996,5.8014-0.0801,8.7074
					c-0.0596,0.9655-0.8906,1.6999-1.8564,1.6402c-0.7329-0.0453-1.333-0.5354-1.5532-1.1914l-0.0205-0.063
					c-0.9165-2.7404-1.5991-5.4909-2.2905-8.2318c-0.7607-2.7303-1.4521-5.4602-2.0762-8.1965
					c-0.7285-2.7175-1.4019-5.4391-2.021-8.1703c-0.7241-2.7084-1.3877-5.4277-2.0269-8.1546
					c-2.7764-10.8504-5.917-21.6267-9.647-32.2583c-3.73-10.6276-8.25-21.0271-13.7021-30.9397
					c-5.4463-9.9098-11.6699-19.4233-18.7842-28.2232c-0.5991-0.7414-0.4839-1.8283,0.2573-2.4277
					c0.7417-0.5994,1.8286-0.4842,2.4277,0.2572C1664.2533,264.3956,1664.2719,264.4199,1664.2855,264.4388z"/>
			</g>
		</g>
	</g>
	<g>
		<path class="st0" d="M1678.2377,147.8755c13.686,13.6219,26.6333,27.9375,38.4458,43.227
			c11.7607,15.308,22.7959,31.2884,32.4468,48.2191c9.6626,16.9078,17.6924,34.8857,23.293,53.6447
			c0.6606,2.355,1.313,4.7129,1.9277,7.0807c0.6396,2.3611,1.2329,4.7342,1.812,7.1091c0.9644,4.7998,1.8213,9.6204,2.5684,14.4483
			c0.5518,4.869,0.9702,9.7502,1.2505,14.6265c0.0547,4.9119,0.0112,9.817-0.4019,14.7196c-0.1606,1.8996-1.8301,3.3097-3.73,3.1495
			c-1.375-0.116-2.4937-1.0232-2.9458-2.2361l-0.0586-0.1596c-1.6914-4.5623-3.0127-9.1222-4.2354-13.6753
			c-1.4229-4.5216-2.7075-9.0381-3.8594-13.5669c-1.3726-4.4847-2.6353-8.9768-3.791-13.4895
			c-0.6851-2.2302-1.356-4.4621-1.981-6.7061c-0.6494-2.2371-1.2607-4.4845-1.8652-6.7343
			c-5.3193-17.8542-11.4092-35.5315-18.8066-52.8095c-7.4087-17.2548-16.3755-33.9941-27.3062-49.4252
			c-10.877-15.4485-23.314-29.8905-37.4141-42.4945c-1.3955-1.2475-1.5156-3.3901-0.2681-4.7856
			c1.2471-1.3955,3.3896-1.5156,4.7852-0.2681C1678.1469,147.7875,1678.1976,147.8358,1678.2377,147.8755z"/>
	</g>
	<g>
		<g>
			<path class="st6" d="M1641.7279,101.104c-6.3569-6.7067-19.2841-4.7472-23.3679,3.5422
				c-0.6591,1.3378-1.1288,2.807-2.1263,3.9156c-1.1299,1.2556-2.7799,1.8783-4.2252,2.7525
				c-6.51,3.9377-8.1018,14.0582-3.1149,19.8042c2.1913,2.5248,5.5712,4.7139,5.4719,8.0555
				c-0.0732,2.4696-2.0883,4.3611-3.6423,6.2818c-2.2061,2.7263-3.6884,6.0329-4.256,9.4938
				c-0.7346,4.4791,1.1222,10.2546,5.6331,10.7586c1.8267,0.2041,3.8344-0.5164,5.4297,0.3965
				c1.8132,1.0377,2.0193,3.5223,3.0381,5.3461c1.6525,2.958,5.5618,4.0242,8.8878,3.3779s6.2119-2.6333,8.9897-4.5734
				c3.9487,8.9579,14.5947,15.705,23.652,11.9898c2.1805-0.8945,4.1122-2.3111,6.2708-3.2576
				c3.8748-1.6989,8.3643-1.8356,12.0177-3.9694c5.7231-3.3426,7.7555-11.7113,4.203-17.3066
				c4.3567-1.8804,8.8065-4.0082,11.8318-7.6638c3.0254-3.6556,4.2102-9.2586,1.5242-13.1703
				c-0.688-1.002-1.6309-1.9416-1.7292-3.1531c-0.0876-1.0798,0.5262-2.0727,0.8948-3.0916
				c1.519-4.2002-1.2156-8.7805-4.5371-11.7665c-3.3217-2.986-7.399-5.2542-9.8906-8.9611
				c-2.2445-3.3394-2.9418-7.4775-4.7869-11.053s-5.735-6.7788-9.5856-5.6116c-1.1486,0.3481-2.3271,1.069-3.4606,0.6743
				c-1.2258-0.4269-1.667-1.8977-2.5055-2.8886c-1.9785-2.3378-5.6826-1.6546-8.6136-0.7665
				c-2.9321,0.8885-5.9354,1.8127-8.3647,3.6796s-4.1997,4.9086-3.6892,7.9296"/>
		</g>
		<g>
			<path class="st0" d="M1642.1145,129.4634c2.155-6.0035,9.5806-9.6603,15.514-7.3192c5.9336,2.341,8.786,10.5422,5.2563,15.8552
				c-1.2675,1.9078-3.1285,3.3285-4.9541,4.7119c-1.9358,1.467-4.0326,2.9953-6.4585,3.1177
				c-2.874,0.145-5.5435-1.8152-6.9821-4.3075c-1.4386-2.4923-1.8529-5.437-2.0385-8.3087"/>
		</g>
	</g>
</g>
</svg>
