<?xml version="1.0" encoding="utf-8"?>
<!-- Generator: Adobe Illustrator 23.0.1, SVG Export Plug-In . SVG Version: 6.00 Build 0)  -->
<svg version="1.1" id="Layer_1" xmlns="http://www.w3.org/2000/svg" xmlns:xlink="http://www.w3.org/1999/xlink" x="0px" y="0px"
	 viewBox="0 0 500 262" style="enable-background:new 0 0 500 262;" xml:space="preserve">
<style type="text/css">
	.st0{fill:#EEEEEE;}
	.st1{fill:#212D50;}
	.st2{fill:#6536CA;}
	.st3{fill:none;stroke:#949494;stroke-width:0.2856;stroke-miterlimit:10;}
	.st4{fill:#A5CAFA;}
	.st5{fill:#FAA76C;}
	.st6{fill:#325ADA;}
	.st7{fill:#9B6FEF;}
	.st8{fill:#F09A82;}
	.st9{fill:#6610EF;}
	.st10{fill:#FCCAA7;}
	.st11{fill:none;stroke:#808080;stroke-width:0.2756;stroke-miterlimit:10;}
	.st12{fill:none;stroke:#808080;stroke-width:0.3028;stroke-miterlimit:10;}
	.st13{fill:#6C757D;}
	.st14{fill:none;stroke:#6536CA;stroke-width:0.2954;stroke-miterlimit:10;}
	.st15{fill:#FF9C6E;}
</style>
<rect x="-3" y="-4" class="st0" width="506" height="269"/>
<g>
	<g>
		<g>
			<path class="st1" d="M114.937,120.4961c1.1934,0.8906,1.79,2.5234,1.79,4.8984c0,2.3384-0.5815,3.9834-1.7446,4.9346
				c-1.1636,0.9512-2.6719,1.4268-4.5259,1.4268h-3.7803v-12.5957h3.5078C112.1587,119.1602,113.7432,119.6055,114.937,120.4961z
				 M109.6567,121.3232v8.2695h0.9814c0.9814,0,1.7266-0.3057,2.2358-0.9175c0.5088-0.6118,0.7632-1.7056,0.7632-3.2808
				c0-1.0786-0.127-1.9146-0.3818-2.5083c-0.2544-0.5938-0.5996-1.0024-1.0356-1.2271c-0.4365-0.2241-0.9756-0.3359-1.6177-0.3359
				H109.6567z"/>
			<path class="st1" d="M121.0981,117.479c0.3208,0.3091,0.4814,0.6997,0.4814,1.1724s-0.1606,0.8633-0.4814,1.1724
				c-0.3213,0.3091-0.73,0.4634-1.2271,0.4634s-0.9028-0.1543-1.2178-0.4634s-0.4722-0.6997-0.4722-1.1724
				s0.1572-0.8633,0.4722-1.1724s0.7207-0.4634,1.2178-0.4634S120.7769,117.1699,121.0981,117.479z M121.3252,122.1045v9.6514
				h-2.8716v-9.6514H121.3252z"/>
			<path class="st1" d="M128.9229,122.1045c0.6055,0.2065,1.1387,0.4971,1.5991,0.8726l-1.0542,1.6177
				c-0.7876-0.4966-1.5811-0.7451-2.3809-0.7451c-0.3755,0-0.6636,0.0635-0.8633,0.1909c-0.2002,0.127-0.2998,0.3062-0.2998,0.5361
				c0,0.1816,0.0454,0.3301,0.1362,0.4453s0.2754,0.2334,0.5542,0.3545s0.709,0.2666,1.2905,0.436
				c1.0059,0.2905,1.7539,0.6694,2.2446,1.1357c0.4907,0.4668,0.7363,1.1118,0.7363,1.936c0,0.6543-0.188,1.2207-0.5635,1.6992
				c-0.376,0.479-0.8906,0.8452-1.5449,1.0996s-1.3813,0.3818-2.1812,0.3818c-0.812,0-1.5664-0.1274-2.2627-0.3818
				c-0.6973-0.2544-1.2876-0.6055-1.7725-1.0542l1.3999-1.563c0.8115,0.6304,1.6655,0.9453,2.5625,0.9453
				c0.436,0,0.7783-0.0791,1.0269-0.2363c0.2485-0.1577,0.3726-0.3818,0.3726-0.6729c0-0.23-0.0483-0.4116-0.1455-0.5449
				c-0.0967-0.1333-0.2847-0.2573-0.563-0.3726c-0.2793-0.1152-0.7212-0.2573-1.3271-0.4272
				c-0.957-0.2788-1.6719-0.6665-2.1445-1.1631c-0.4727-0.4971-0.709-1.1147-0.709-1.854c0-0.5571,0.1606-1.0571,0.4819-1.4995
				c0.3208-0.4424,0.7812-0.7935,1.3813-1.0542c0.5996-0.2607,1.293-0.3906,2.0811-0.3906
				C127.6685,121.7959,128.3164,121.8989,128.9229,122.1045z"/>
			<path class="st1" d="M140.7183,127.7754h-5.98c0.0967,0.812,0.3271,1.3813,0.6909,1.7085
				c0.3633,0.3271,0.8662,0.4907,1.5083,0.4907c0.3877,0,0.7637-0.0693,1.127-0.209c0.3633-0.1392,0.7573-0.3545,1.1816-0.645
				l1.1812,1.5991c-1.127,0.897-2.3809,1.3452-3.7622,1.3452c-1.563,0-2.7627-0.4604-3.5986-1.3813
				c-0.8364-0.9209-1.2544-2.1567-1.2544-3.708c0-0.9814,0.1758-1.8628,0.5273-2.6445c0.3511-0.7812,0.8662-1.3994,1.5449-1.854
				c0.6782-0.4541,1.4902-0.6812,2.4355-0.6812c1.3931,0,2.4834,0.436,3.2715,1.3086c0.7876,0.8721,1.1812,2.084,1.1812,3.6348
				C140.7725,127.1392,140.7544,127.4844,140.7183,127.7754z M137.9556,125.9214c-0.0244-1.478-0.5454-2.2173-1.5635-2.2173
				c-0.4966,0-0.8813,0.1816-1.1538,0.5454c-0.2729,0.3633-0.4395,0.9634-0.5,1.7993h3.2173V125.9214z"/>
			<path class="st1" d="M150.0054,122.5591c0.4727,0.5088,0.709,1.2241,0.709,2.1445v7.0522h-2.8716v-6.5615
				c0-0.4844-0.0757-0.8208-0.2271-1.0088c-0.1519-0.1875-0.3789-0.2817-0.6816-0.2817c-0.5815,0-1.1392,0.4185-1.6724,1.2544
				v6.5977h-2.8716v-9.6514h2.5083l0.1997,1.145c0.4121-0.4844,0.8569-0.8477,1.3359-1.0903
				c0.4785-0.2422,1.0146-0.3633,1.6084-0.3633C148.8789,121.7959,149.5332,122.0503,150.0054,122.5591z M146.9702,120.0874
				c-0.1938-0.085-0.4062-0.2061-0.6362-0.3638c-0.3027-0.2183-0.5513-0.3271-0.7451-0.3271c-0.2061,0-0.3789,0.0635-0.5181,0.1909
				c-0.1392,0.127-0.2876,0.3301-0.4453,0.6089l-1.4355-0.6909c0.2422-0.6299,0.5659-1.145,0.9722-1.5449
				c0.4058-0.3999,0.8633-0.5996,1.3726-0.5996c0.2783,0,0.5176,0.0454,0.7178,0.1362c0.1997,0.0908,0.4209,0.2153,0.6636,0.3726
				c0.1694,0.1094,0.3057,0.188,0.4087,0.2363c0.103,0.0488,0.209,0.0728,0.3179,0.0728c0.1938,0,0.3608-0.0635,0.5-0.1909
				c0.1392-0.127,0.2876-0.3301,0.4453-0.6089l1.436,0.709c-0.2544,0.6426-0.585,1.1572-0.9907,1.5449
				c-0.4062,0.3877-0.8633,0.5815-1.3721,0.5815C147.3945,120.2144,147.1641,120.1719,146.9702,120.0874z"/>
			<path class="st1" d="M160.7021,129.7563c0.1025,0.1699,0.2695,0.2974,0.4995,0.3818l-0.5996,1.8721
				c-0.5938-0.0483-1.0786-0.1787-1.4541-0.3906c-0.376-0.2119-0.6665-0.5483-0.8726-1.0088
				c-0.6299,0.9697-1.5991,1.4541-2.9082,1.4541c-0.957,0-1.7207-0.2788-2.29-0.8359c-0.5693-0.5576-0.854-1.2847-0.854-2.1812
				c0-1.0542,0.3877-1.8599,1.1631-2.4175c0.7754-0.5571,1.8965-0.8359,3.3623-0.8359h0.9819v-0.418
				c0-0.5698-0.1216-0.9604-0.3638-1.1724c-0.2427-0.2119-0.6665-0.3184-1.2725-0.3184c-0.3149,0-0.6968,0.0454-1.145,0.1362
				c-0.4482,0.0913-0.9087,0.2153-1.3813,0.3726l-0.6543-1.8901c0.606-0.23,1.2271-0.4058,1.8633-0.5269s1.2266-0.1816,1.772-0.1816
				c1.3813,0,2.3931,0.2847,3.0352,0.854c0.6421,0.5698,0.9634,1.4238,0.9634,2.563v3.7441
				C160.5474,129.3203,160.5986,129.5869,160.7021,129.7563z M157.7305,129.084v-1.7085h-0.709
				c-0.6543,0-1.1421,0.1152-1.4634,0.3452c-0.3208,0.2305-0.4814,0.5879-0.4814,1.0728c0,0.3877,0.1001,0.6875,0.2998,0.8994
				c0.2002,0.2124,0.4756,0.3184,0.8271,0.3184C156.8579,130.0112,157.3667,129.7021,157.7305,129.084z"/>
			<path class="st1" d="M171.4888,118.2695v13.4863h-2.5444l-0.1455-1.127c-0.6787,0.9575-1.5933,1.436-2.7446,1.436
				c-1.1992,0-2.1113-0.4604-2.7354-1.3813s-0.936-2.1812-0.936-3.7808c0-0.9814,0.1636-1.8599,0.4907-2.6353
				s0.791-1.3813,1.3906-1.8174c0.5996-0.4365,1.2871-0.6543,2.063-0.6543c0.9204,0,1.6841,0.3027,2.29,0.9087v-4.7441
				L171.4888,118.2695z M168.6172,128.8657v-4.1621c-0.2305-0.2783-0.4634-0.4844-0.6997-0.6177s-0.5063-0.2002-0.8091-0.2002
				c-0.5332,0-0.957,0.2485-1.272,0.7451c-0.3154,0.4971-0.4727,1.2607-0.4727,2.2905c0,1.1265,0.1362,1.9146,0.4087,2.3628
				c0.2729,0.4482,0.6636,0.6724,1.1724,0.6724C167.6113,129.9565,168.1689,129.5928,168.6172,128.8657z"/>
			<path class="st1" d="M181.3945,123.1499c0.8359,0.9028,1.2539,2.166,1.2539,3.7896c0,1.0298-0.1904,1.9297-0.5723,2.6987
				c-0.3818,0.77-0.9272,1.3667-1.6357,1.7905c-0.709,0.4238-1.5483,0.6362-2.5176,0.6362c-1.4663,0-2.6201-0.4512-3.4624-1.354
				s-1.2632-2.166-1.2632-3.7896c0-1.0298,0.1909-1.9297,0.5728-2.6992c0.3813-0.7695,0.9268-1.3662,1.6357-1.7905
				c0.709-0.4238,1.5479-0.6357,2.5171-0.6357C179.4014,121.7959,180.5586,122.2471,181.3945,123.1499z M176.6143,124.6401
				c-0.2905,0.4907-0.436,1.2515-0.436,2.2812c0,1.0542,0.1421,1.8237,0.4272,2.3081c0.2842,0.4849,0.7236,0.7271,1.3174,0.7271
				c0.5815,0,1.0181-0.2456,1.3086-0.7363c0.291-0.4907,0.4365-1.251,0.4365-2.2808c0-1.0542-0.1426-1.8237-0.4272-2.3086
				c-0.2847-0.4844-0.7241-0.7271-1.3179-0.7271C177.3413,123.9038,176.9053,124.1494,176.6143,124.6401z"/>
			<path class="st1" d="M190.5552,121.9595l-0.4546,2.7808c-0.3633-0.085-0.6543-0.1274-0.8721-0.1274
				c-0.5698,0-1.0029,0.1973-1.2998,0.5908c-0.2969,0.394-0.5303,0.9844-0.6997,1.772v4.7803h-2.8716v-9.6514h2.5083l0.2363,1.8721
				c0.2178-0.666,0.5479-1.1904,0.9902-1.5718c0.4424-0.3818,0.9424-0.5728,1.4995-0.5728
				C189.9434,121.832,190.2642,121.8745,190.5552,121.9595z"/>
			<path class="st1" d="M198.8345,129.7563c0.1025,0.1699,0.2695,0.2974,0.4995,0.3818l-0.5996,1.8721
				c-0.5938-0.0483-1.0786-0.1787-1.4541-0.3906c-0.376-0.2119-0.6665-0.5483-0.8726-1.0088
				c-0.6299,0.9697-1.5991,1.4541-2.9082,1.4541c-0.957,0-1.7207-0.2788-2.29-0.8359c-0.5693-0.5576-0.854-1.2847-0.854-2.1812
				c0-1.0542,0.3877-1.8599,1.1631-2.4175c0.7754-0.5571,1.8965-0.8359,3.3623-0.8359h0.9819v-0.418
				c0-0.5698-0.1216-0.9604-0.3638-1.1724c-0.2427-0.2119-0.6665-0.3184-1.2725-0.3184c-0.3149,0-0.6968,0.0454-1.145,0.1362
				c-0.4482,0.0913-0.9087,0.2153-1.3813,0.3726l-0.6543-1.8901c0.606-0.23,1.2271-0.4058,1.8633-0.5269s1.2266-0.1816,1.772-0.1816
				c1.3813,0,2.3931,0.2847,3.0352,0.854c0.6421,0.5698,0.9634,1.4238,0.9634,2.563v3.7441
				C198.6797,129.3203,198.731,129.5869,198.8345,129.7563z M195.8628,129.084v-1.7085h-0.709
				c-0.6543,0-1.1421,0.1152-1.4634,0.3452c-0.3208,0.2305-0.4814,0.5879-0.4814,1.0728c0,0.3877,0.1001,0.6875,0.2998,0.8994
				c0.2002,0.2124,0.4756,0.3184,0.8271,0.3184C194.9902,130.0112,195.499,129.7021,195.8628,129.084z"/>
			<path class="st1" d="M214.165,122.668c-0.6299,0.2544-1.5571,0.3818-2.7808,0.3818c0.6299,0.2666,1.0903,0.5938,1.3813,0.9814
				c0.291,0.3882,0.436,0.8906,0.436,1.5088c0,0.6177-0.1636,1.1719-0.4907,1.6631c-0.3271,0.4907-0.7969,0.8755-1.4087,1.1538
				c-0.6118,0.2788-1.3296,0.418-2.1538,0.418c-0.3877,0-0.7573-0.0361-1.1084-0.1089c-0.0972,0.0483-0.1729,0.1245-0.2271,0.2271
				c-0.0547,0.103-0.082,0.209-0.082,0.3184c0,0.1816,0.0698,0.3242,0.209,0.4268c0.1392,0.1035,0.4209,0.1548,0.8452,0.1548h1.4541
				c0.7388,0,1.3872,0.1211,1.9448,0.3633c0.5571,0.2427,0.9873,0.5757,1.2905,1c0.3027,0.4243,0.4541,0.9023,0.4541,1.4355
				c0,1.0059-0.4331,1.7905-1.2993,2.354c-0.8667,0.5635-2.1177,0.8452-3.7534,0.8452c-1.1753,0-2.1025-0.1245-2.7808-0.3726
				c-0.6787-0.2485-1.1543-0.5972-1.4268-1.0454s-0.4092-1.0117-0.4092-1.6904h2.5811c0,0.291,0.0576,0.521,0.1729,0.6909
				c0.1147,0.1694,0.3237,0.2969,0.627,0.3818c0.3027,0.0845,0.7388,0.127,1.3086,0.127c0.7876,0,1.333-0.0938,1.6357-0.2817
				s0.4546-0.4575,0.4546-0.8086c0-0.291-0.1152-0.5215-0.3457-0.6909c-0.23-0.1699-0.5752-0.2544-1.0356-0.2544h-1.3994
				c-0.9941,0-1.7358-0.1787-2.2266-0.5361s-0.7363-0.8149-0.7363-1.3721c0-0.3516,0.103-0.6938,0.3091-1.0269
				c0.2061-0.3335,0.4844-0.6089,0.8359-0.8271c-0.606-0.3271-1.0449-0.7119-1.3179-1.1543
				c-0.2725-0.4419-0.4087-0.9785-0.4087-1.6084c0-1.0786,0.3877-1.9355,1.1631-2.5718s1.7993-0.9541,3.0718-0.9541
				c0.9692,0.0244,1.7905-0.0728,2.4629-0.291s1.3657-0.5391,2.0811-0.9634L214.165,122.668z M207.958,124.1133
				c-0.2607,0.2847-0.3906,0.6753-0.3906,1.1719c0,0.5215,0.1299,0.9243,0.3906,1.209s0.6152,0.4272,1.0635,0.4272
				c0.4727,0,0.833-0.1392,1.0815-0.4185c0.248-0.2783,0.3726-0.6963,0.3726-1.2539c0-1.042-0.4849-1.563-1.4541-1.563
				C208.5732,123.686,208.2188,123.8286,207.958,124.1133z"/>
			<path class="st1" d="M221.4897,121.9595l-0.4546,2.7808c-0.3633-0.085-0.6543-0.1274-0.8721-0.1274
				c-0.5698,0-1.0029,0.1973-1.2998,0.5908c-0.2969,0.394-0.5303,0.9844-0.6997,1.772v4.7803h-2.8716v-9.6514h2.5083l0.2363,1.8721
				c0.2178-0.666,0.5479-1.1904,0.9902-1.5718c0.4424-0.3818,0.9424-0.5728,1.4995-0.5728
				C220.8779,121.832,221.1987,121.8745,221.4897,121.9595z"/>
			<path class="st1" d="M229.7686,129.7563c0.1025,0.1699,0.2695,0.2974,0.4995,0.3818l-0.5996,1.8721
				c-0.5938-0.0483-1.0786-0.1787-1.4541-0.3906c-0.376-0.2119-0.6665-0.5483-0.8726-1.0088
				c-0.6299,0.9697-1.5991,1.4541-2.9082,1.4541c-0.957,0-1.7207-0.2788-2.29-0.8359c-0.5693-0.5576-0.854-1.2847-0.854-2.1812
				c0-1.0542,0.3877-1.8599,1.1631-2.4175c0.7754-0.5571,1.8965-0.8359,3.3623-0.8359h0.9819v-0.418
				c0-0.5698-0.1216-0.9604-0.3638-1.1724c-0.2427-0.2119-0.6665-0.3184-1.2725-0.3184c-0.3149,0-0.6968,0.0454-1.145,0.1362
				c-0.4482,0.0913-0.9087,0.2153-1.3813,0.3726l-0.6543-1.8901c0.606-0.23,1.2271-0.4058,1.8633-0.5269s1.2266-0.1816,1.772-0.1816
				c1.3813,0,2.3931,0.2847,3.0352,0.854c0.6421,0.5698,0.9634,1.4238,0.9634,2.563v3.7441
				C229.6138,129.3203,229.665,129.5869,229.7686,129.7563z M227.0513,116.5791l1.127,2.145l-4.2896,1.7266l-0.7998-1.4722
				L227.0513,116.5791z M226.7969,129.084v-1.7085h-0.709c-0.6543,0-1.1421,0.1152-1.4634,0.3452
				c-0.3208,0.2305-0.4814,0.5879-0.4814,1.0728c0,0.3877,0.1001,0.6875,0.2998,0.8994c0.2002,0.2124,0.4756,0.3184,0.8271,0.3184
				C225.9243,130.0112,226.4331,129.7021,226.7969,129.084z"/>
			<path class="st1" d="M239.519,118.6875l-0.7993,1.8359c-0.7153-0.291-1.4058-0.436-2.0723-0.436
				c-0.5576,0-0.9424,0.0967-1.1543,0.2905s-0.3179,0.5273-0.3179,0.9995v0.7271h5.3618v9.6514h-2.8716v-7.6519h-2.4902v7.6519
				h-2.8716v-7.6519h-1.4722v-1.9995h1.4722v-0.8359c0-0.9932,0.3271-1.793,0.9814-2.3989s1.666-0.9092,3.0352-0.9092
				C237.459,117.9604,238.5254,118.2031,239.519,118.6875z"/>
			<path class="st1" d="M248.7705,122.0864c0.5332,0.1938,1.0361,0.4907,1.5088,0.8906l-1.2358,1.7085
				c-0.606-0.4604-1.2178-0.6904-1.8359-0.6904c-0.6421,0-1.127,0.2358-1.4541,0.7085s-0.4907,1.2358-0.4907,2.29
				c0,1.0181,0.1636,1.7393,0.4907,2.1631c0.3271,0.4243,0.7998,0.6362,1.418,0.6362c0.3271,0,0.624-0.0513,0.8906-0.1548
				c0.2661-0.1025,0.5874-0.269,0.9634-0.4995l1.2539,1.7812c-0.9575,0.7632-2.042,1.145-3.2534,1.145
				c-0.9814,0-1.8296-0.209-2.5444-0.627c-0.7153-0.4185-1.2666-1.0059-1.6543-1.7632s-0.5815-1.645-0.5815-2.6626
				c0-1.0181,0.1938-1.9204,0.5815-2.7085c0.3877-0.7871,0.939-1.4023,1.6543-1.8447c0.7148-0.4419,1.5449-0.6631,2.4897-0.6631
				C247.6377,121.7959,248.2373,121.8926,248.7705,122.0864z"/>
			<path class="st1" d="M259.1401,129.7563c0.1025,0.1699,0.2695,0.2974,0.4995,0.3818l-0.5996,1.8721
				c-0.5938-0.0483-1.0786-0.1787-1.4541-0.3906c-0.376-0.2119-0.6665-0.5483-0.8726-1.0088
				c-0.6299,0.9697-1.5991,1.4541-2.9082,1.4541c-0.957,0-1.7207-0.2788-2.29-0.8359c-0.5693-0.5576-0.854-1.2847-0.854-2.1812
				c0-1.0542,0.3877-1.8599,1.1631-2.4175c0.7754-0.5571,1.8965-0.8359,3.3623-0.8359h0.9819v-0.418
				c0-0.5698-0.1216-0.9604-0.3638-1.1724c-0.2427-0.2119-0.6665-0.3184-1.2725-0.3184c-0.3149,0-0.6968,0.0454-1.145,0.1362
				c-0.4482,0.0913-0.9087,0.2153-1.3813,0.3726l-0.6543-1.8901c0.606-0.23,1.2271-0.4058,1.8633-0.5269s1.2266-0.1816,1.772-0.1816
				c1.3813,0,2.3931,0.2847,3.0352,0.854c0.6421,0.5698,0.9634,1.4238,0.9634,2.563v3.7441
				C258.9854,129.3203,259.0366,129.5869,259.1401,129.7563z M256.1685,129.084v-1.7085h-0.709
				c-0.6543,0-1.1421,0.1152-1.4634,0.3452c-0.3208,0.2305-0.4814,0.5879-0.4814,1.0728c0,0.3877,0.1001,0.6875,0.2998,0.8994
				c0.2002,0.2124,0.4756,0.3184,0.8271,0.3184C255.2959,130.0112,255.8047,129.7021,256.1685,129.084z"/>
			<path class="st2" d="M268.2275,117.479c0.3208,0.3091,0.4814,0.6997,0.4814,1.1724s-0.1606,0.8633-0.4814,1.1724
				c-0.3213,0.3091-0.73,0.4634-1.2271,0.4634s-0.9028-0.1543-1.2178-0.4634s-0.4722-0.6997-0.4722-1.1724
				s0.1572-0.8633,0.4722-1.1724s0.7207-0.4634,1.2178-0.4634S267.9062,117.1699,268.2275,117.479z M268.4546,122.1045v9.6514
				h-2.8716v-9.6514H268.4546z"/>
			<path class="st2" d="M278.3237,122.5591c0.4727,0.5088,0.709,1.2241,0.709,2.1445v7.0522h-2.8716v-6.5615
				c0-0.4844-0.0757-0.8208-0.2271-1.0088c-0.1519-0.1875-0.3789-0.2817-0.6816-0.2817c-0.5815,0-1.1392,0.4185-1.6724,1.2544
				v6.5977h-2.8716v-9.6514h2.5083l0.1997,1.145c0.4121-0.4844,0.8569-0.8477,1.3359-1.0903
				c0.4785-0.2422,1.0146-0.3633,1.6084-0.3633C277.1973,121.7959,277.8516,122.0503,278.3237,122.5591z"/>
			<path class="st2" d="M289.8472,118.2695v13.4863h-2.5444l-0.1455-1.127c-0.6787,0.9575-1.5933,1.436-2.7446,1.436
				c-1.1992,0-2.1113-0.4604-2.7354-1.3813s-0.936-2.1812-0.936-3.7808c0-0.9814,0.1636-1.8599,0.4907-2.6353
				s0.791-1.3813,1.3906-1.8174c0.5996-0.4365,1.2871-0.6543,2.063-0.6543c0.9204,0,1.6841,0.3027,2.29,0.9087v-4.7441
				L289.8472,118.2695z M286.9756,128.8657v-4.1621c-0.2305-0.2783-0.4634-0.4844-0.6997-0.6177s-0.5063-0.2002-0.8091-0.2002
				c-0.5332,0-0.957,0.2485-1.272,0.7451c-0.3154,0.4971-0.4727,1.2607-0.4727,2.2905c0,1.1265,0.1362,1.9146,0.4087,2.3628
				c0.2729,0.4482,0.6636,0.6724,1.1724,0.6724C285.9697,129.9565,286.5273,129.5928,286.9756,128.8657z"/>
			<path class="st2" d="M300.4619,127.7754h-5.98c0.0967,0.812,0.3271,1.3813,0.6909,1.7085
				c0.3633,0.3271,0.8662,0.4907,1.5083,0.4907c0.3877,0,0.7637-0.0693,1.127-0.209c0.3633-0.1392,0.7573-0.3545,1.1816-0.645
				l1.1812,1.5991c-1.127,0.897-2.3809,1.3452-3.7622,1.3452c-1.563,0-2.7627-0.4604-3.5986-1.3813
				c-0.8364-0.9209-1.2544-2.1567-1.2544-3.708c0-0.9814,0.1758-1.8628,0.5273-2.6445c0.3511-0.7812,0.8662-1.3994,1.5449-1.854
				c0.6782-0.4541,1.4902-0.6812,2.4355-0.6812c1.3931,0,2.4834,0.436,3.2715,1.3086c0.7876,0.8721,1.1812,2.084,1.1812,3.6348
				C300.5161,127.1392,300.498,127.4844,300.4619,127.7754z M297.6992,125.9214c-0.0244-1.478-0.5454-2.2173-1.5635-2.2173
				c-0.4966,0-0.8813,0.1816-1.1538,0.5454c-0.2729,0.3633-0.4395,0.9634-0.5,1.7993h3.2173V125.9214z"/>
			<path class="st2" d="M310.2944,123.1406c0.5938,0.897,0.8906,2.1509,0.8906,3.7622c0,0.9937-0.1543,1.8813-0.4634,2.6631
				c-0.3091,0.7812-0.7544,1.3936-1.3359,1.8354c-0.5815,0.4424-1.2603,0.6636-2.0356,0.6636c-0.9697,0-1.751-0.333-2.3447-0.9995
				v4.4165l-2.8716,0.3091v-13.6865h2.5264l0.1455,1.0728c0.3755-0.4727,0.8057-0.8208,1.2905-1.0454
				c0.4844-0.2241,0.9814-0.3359,1.4902-0.3359C308.7979,121.7959,309.7007,122.2441,310.2944,123.1406z M308.2041,126.9395
				c0-1.1392-0.127-1.9297-0.3813-2.3721c-0.2544-0.4419-0.6362-0.6636-1.145-0.6636c-0.3271,0-0.6333,0.0972-0.918,0.291
				s-0.5361,0.4727-0.7544,0.8359v4.0713c0.3877,0.5698,0.8784,0.8545,1.4722,0.8545
				C307.6289,129.9565,308.2041,128.9507,308.2041,126.9395z"/>
			<path class="st2" d="M321.3452,127.7754h-5.98c0.0967,0.812,0.3271,1.3813,0.6909,1.7085
				c0.3633,0.3271,0.8662,0.4907,1.5083,0.4907c0.3877,0,0.7637-0.0693,1.127-0.209c0.3633-0.1392,0.7573-0.3545,1.1816-0.645
				l1.1812,1.5991c-1.127,0.897-2.3809,1.3452-3.7622,1.3452c-1.563,0-2.7627-0.4604-3.5986-1.3813
				c-0.8364-0.9209-1.2544-2.1567-1.2544-3.708c0-0.9814,0.1758-1.8628,0.5273-2.6445c0.3511-0.7812,0.8662-1.3994,1.5449-1.854
				c0.6782-0.4541,1.4902-0.6812,2.4355-0.6812c1.3931,0,2.4834,0.436,3.2715,1.3086c0.7876,0.8721,1.1812,2.084,1.1812,3.6348
				C321.3994,127.1392,321.3813,127.4844,321.3452,127.7754z M318.5825,125.9214c-0.0244-1.478-0.5454-2.2173-1.5635-2.2173
				c-0.4966,0-0.8813,0.1816-1.1538,0.5454c-0.2729,0.3633-0.4395,0.9634-0.5,1.7993h3.2173V125.9214z"/>
			<path class="st2" d="M330.6323,122.5591c0.4727,0.5088,0.709,1.2241,0.709,2.1445v7.0522h-2.8716v-6.5615
				c0-0.4844-0.0757-0.8208-0.2271-1.0088c-0.1519-0.1875-0.3789-0.2817-0.6816-0.2817c-0.5815,0-1.1392,0.4185-1.6724,1.2544
				v6.5977h-2.8716v-9.6514h2.5083l0.1997,1.145c0.4121-0.4844,0.8569-0.8477,1.3359-1.0903
				c0.4785-0.2422,1.0146-0.3633,1.6084-0.3633C329.5059,121.7959,330.1602,122.0503,330.6323,122.5591z"/>
			<path class="st2" d="M342.1558,118.2695v13.4863h-2.5444l-0.1455-1.127c-0.6787,0.9575-1.5933,1.436-2.7446,1.436
				c-1.1992,0-2.1113-0.4604-2.7354-1.3813s-0.936-2.1812-0.936-3.7808c0-0.9814,0.1636-1.8599,0.4907-2.6353
				s0.791-1.3813,1.3906-1.8174c0.5996-0.4365,1.2871-0.6543,2.063-0.6543c0.9204,0,1.6841,0.3027,2.29,0.9087v-4.7441
				L342.1558,118.2695z M339.2842,128.8657v-4.1621c-0.2305-0.2783-0.4634-0.4844-0.6997-0.6177s-0.5063-0.2002-0.8091-0.2002
				c-0.5332,0-0.957,0.2485-1.272,0.7451c-0.3154,0.4971-0.4727,1.2607-0.4727,2.2905c0,1.1265,0.1362,1.9146,0.4087,2.3628
				c0.2729,0.4482,0.6636,0.6724,1.1724,0.6724C338.2783,129.9565,338.8359,129.5928,339.2842,128.8657z"/>
			<path class="st2" d="M347.0542,117.479c0.3208,0.3091,0.4814,0.6997,0.4814,1.1724s-0.1606,0.8633-0.4814,1.1724
				c-0.3213,0.3091-0.73,0.4634-1.2271,0.4634s-0.9028-0.1543-1.2178-0.4634s-0.4722-0.6997-0.4722-1.1724
				s0.1572-0.8633,0.4722-1.1724s0.7207-0.4634,1.2178-0.4634S346.7329,117.1699,347.0542,117.479z M347.2812,122.1045v9.6514
				h-2.8716v-9.6514H347.2812z"/>
			<path class="st2" d="M357.896,127.7754h-5.98c0.0967,0.812,0.3271,1.3813,0.6909,1.7085
				c0.3633,0.3271,0.8662,0.4907,1.5083,0.4907c0.3877,0,0.7637-0.0693,1.127-0.209c0.3633-0.1392,0.7573-0.3545,1.1816-0.645
				l1.1812,1.5991c-1.127,0.897-2.3809,1.3452-3.7622,1.3452c-1.563,0-2.7627-0.4604-3.5986-1.3813
				c-0.8364-0.9209-1.2544-2.1567-1.2544-3.708c0-0.9814,0.1758-1.8628,0.5273-2.6445c0.3511-0.7812,0.8662-1.3994,1.5449-1.854
				c0.6782-0.4541,1.4902-0.6812,2.4355-0.6812c1.3931,0,2.4834,0.436,3.2715,1.3086c0.7876,0.8721,1.1812,2.084,1.1812,3.6348
				C357.9502,127.1392,357.9321,127.4844,357.896,127.7754z M355.1333,125.9214c-0.0244-1.478-0.5454-2.2173-1.5635-2.2173
				c-0.4966,0-0.8813,0.1816-1.1538,0.5454c-0.2729,0.3633-0.4395,0.9634-0.5,1.7993h3.2173V125.9214z"/>
			<path class="st2" d="M367.1831,122.5591c0.4727,0.5088,0.709,1.2241,0.709,2.1445v7.0522h-2.8716v-6.5615
				c0-0.4844-0.0757-0.8208-0.2271-1.0088c-0.1519-0.1875-0.3789-0.2817-0.6816-0.2817c-0.5815,0-1.1392,0.4185-1.6724,1.2544
				v6.5977h-2.8716v-9.6514h2.5083l0.1997,1.145c0.4121-0.4844,0.8569-0.8477,1.3359-1.0903
				c0.4785-0.2422,1.0146-0.3633,1.6084-0.3633C366.0566,121.7959,366.7109,122.0503,367.1831,122.5591z"/>
			<path class="st2" d="M376.1074,131.3013c-0.3516,0.2427-0.7603,0.4307-1.2266,0.5635c-0.4668,0.1333-0.9302,0.2002-1.3906,0.2002
				c-2.1084-0.0122-3.1626-1.1753-3.1626-3.4897v-4.4712h-1.3633v-1.9995h1.3633v-2.0898l2.8721-0.3271v2.417h2.2173l-0.3091,1.9995
				h-1.9082v4.4346c0,0.4487,0.0723,0.77,0.2178,0.9634c0.1455,0.1943,0.3755,0.291,0.6909,0.291
				c0.3271,0,0.6724-0.103,1.0356-0.3091L376.1074,131.3013z"/>
			<path class="st2" d="M385.105,127.7754h-5.98c0.0967,0.812,0.3271,1.3813,0.6909,1.7085
				c0.3633,0.3271,0.8662,0.4907,1.5083,0.4907c0.3877,0,0.7637-0.0693,1.127-0.209c0.3633-0.1392,0.7573-0.3545,1.1816-0.645
				l1.1812,1.5991c-1.127,0.897-2.3809,1.3452-3.7622,1.3452c-1.563,0-2.7627-0.4604-3.5986-1.3813
				c-0.8364-0.9209-1.2544-2.1567-1.2544-3.708c0-0.9814,0.1758-1.8628,0.5273-2.6445c0.3511-0.7812,0.8662-1.3994,1.5449-1.854
				c0.6782-0.4541,1.4902-0.6812,2.4355-0.6812c1.3931,0,2.4834,0.436,3.2715,1.3086c0.7876,0.8721,1.1812,2.084,1.1812,3.6348
				C385.1592,127.1392,385.1411,127.4844,385.105,127.7754z M382.3423,125.9214c-0.0244-1.478-0.5454-2.2173-1.5635-2.2173
				c-0.4966,0-0.8813,0.1816-1.1538,0.5454c-0.2729,0.3633-0.4395,0.9634-0.5,1.7993h3.2173V125.9214z"/>
			<path class="st1" d="M390.4121,117.0337v16.6304h-2.6719v-16.6304H390.4121z"/>
			<path class="st1" d="M106.8125,143.897c0.5332,0.1938,1.0361,0.4907,1.5088,0.8906l-1.2358,1.7085
				c-0.606-0.4604-1.2178-0.6904-1.8359-0.6904c-0.6421,0-1.127,0.2358-1.4541,0.7085s-0.4907,1.2358-0.4907,2.29
				c0,1.0181,0.1636,1.7393,0.4907,2.1631c0.3271,0.4243,0.7998,0.6362,1.418,0.6362c0.3271,0,0.624-0.0513,0.8906-0.1548
				c0.2661-0.1025,0.5874-0.269,0.9634-0.4995l1.2539,1.7812c-0.9575,0.7632-2.042,1.145-3.2534,1.145
				c-0.9814,0-1.8296-0.209-2.5444-0.627c-0.7153-0.4185-1.2666-1.0059-1.6543-1.7632s-0.5815-1.645-0.5815-2.6626
				c0-1.0181,0.1938-1.9204,0.5815-2.7085c0.3877-0.7871,0.939-1.4023,1.6543-1.8447c0.7148-0.4419,1.5449-0.6631,2.4897-0.6631
				C105.6797,143.6064,106.2793,143.7031,106.8125,143.897z"/>
			<path class="st1" d="M116.8276,144.9604c0.8359,0.9028,1.2539,2.166,1.2539,3.7896c0,1.0298-0.1904,1.9297-0.5723,2.6987
				c-0.3818,0.77-0.9272,1.3667-1.6357,1.7905c-0.709,0.4238-1.5483,0.6362-2.5176,0.6362c-1.4663,0-2.6201-0.4512-3.4624-1.354
				s-1.2632-2.166-1.2632-3.7896c0-1.0298,0.1909-1.9297,0.5728-2.6992c0.3813-0.7695,0.9268-1.3662,1.6357-1.7905
				c0.709-0.4238,1.5479-0.6357,2.5171-0.6357C114.8345,143.6064,115.9917,144.0576,116.8276,144.9604z M112.0474,146.4507
				c-0.2905,0.4907-0.436,1.2515-0.436,2.2812c0,1.0542,0.1421,1.8237,0.4272,2.3081c0.2842,0.4849,0.7236,0.7271,1.3174,0.7271
				c0.5815,0,1.0181-0.2456,1.3086-0.7363c0.291-0.4907,0.4365-1.251,0.4365-2.2808c0-1.0542-0.1426-1.8237-0.4272-2.3086
				c-0.2847-0.4844-0.7241-0.7271-1.3179-0.7271C112.7744,145.7144,112.3384,145.96,112.0474,146.4507z"/>
			<path class="st1" d="M127.4053,144.3696c0.4727,0.5088,0.709,1.2241,0.709,2.1445v7.0522h-2.8716v-6.5615
				c0-0.4844-0.0757-0.8208-0.2271-1.0088c-0.1519-0.1875-0.3789-0.2817-0.6816-0.2817c-0.5815,0-1.1392,0.4185-1.6724,1.2544
				v6.5977H119.79v-9.6514h2.5083l0.1997,1.145c0.4121-0.4844,0.8569-0.8477,1.3359-1.0903
				c0.4785-0.2422,1.0146-0.3633,1.6084-0.3633C126.2788,143.6064,126.9331,143.8608,127.4053,144.3696z"/>
			<path class="st1" d="M142.7095,144.9604c0.6177,0.9028,0.9268,2.166,0.9268,3.7896c0,0.9937-0.1543,1.8784-0.4634,2.6533
				c-0.3091,0.7759-0.7515,1.3813-1.3267,1.8179c-0.5757,0.436-1.2573,0.6543-2.0449,0.6543c-0.521,0-0.9966-0.1094-1.4268-0.3271
				c-0.4302-0.2183-0.7969-0.521-1.0996-0.9087l-0.1455,0.9268h-2.5444v-13.4863l2.8716-0.3091v5.1255
				c0.291-0.3999,0.6636-0.7148,1.1177-0.9448c0.4546-0.23,0.9482-0.3452,1.4814-0.3452
				C141.2065,143.6064,142.0913,144.0576,142.7095,144.9604z M140.6553,148.75c0-1.1514-0.1333-1.9448-0.3994-2.3809
				c-0.2671-0.4365-0.6543-0.6548-1.1636-0.6548c-0.6421,0-1.1875,0.376-1.6357,1.127v4.0171
				c0.1816,0.2905,0.4028,0.5181,0.6636,0.6816c0.2603,0.1636,0.542,0.2451,0.8452,0.2451
				C140.0923,151.7852,140.6553,150.7734,140.6553,148.75z"/>
			<path class="st1" d="M153.0786,151.5669c0.1025,0.1699,0.2695,0.2974,0.4995,0.3818l-0.5996,1.8721
				c-0.5938-0.0483-1.0786-0.1787-1.4541-0.3906c-0.376-0.2119-0.6665-0.5483-0.8726-1.0088
				c-0.6299,0.9697-1.5991,1.4541-2.9082,1.4541c-0.957,0-1.7207-0.2788-2.29-0.8359c-0.5693-0.5576-0.854-1.2847-0.854-2.1812
				c0-1.0542,0.3877-1.8599,1.1631-2.4175c0.7754-0.5571,1.8965-0.8359,3.3623-0.8359h0.9819v-0.418
				c0-0.5698-0.1216-0.9604-0.3638-1.1724c-0.2427-0.2119-0.6665-0.3184-1.2725-0.3184c-0.3149,0-0.6968,0.0454-1.145,0.1362
				c-0.4482,0.0913-0.9087,0.2153-1.3813,0.3726l-0.6543-1.8901c0.606-0.23,1.2271-0.4058,1.8633-0.5269s1.2266-0.1816,1.772-0.1816
				c1.3813,0,2.3931,0.2847,3.0352,0.854c0.6421,0.5698,0.9634,1.4238,0.9634,2.563v3.7441
				C152.9238,151.1309,152.9751,151.3975,153.0786,151.5669z M150.1069,150.8945v-1.7085h-0.709
				c-0.6543,0-1.1421,0.1152-1.4634,0.3452c-0.3208,0.2305-0.4814,0.5879-0.4814,1.0728c0,0.3877,0.1001,0.6875,0.2998,0.8994
				c0.2002,0.2124,0.4756,0.3184,0.8271,0.3184C149.2344,151.8218,149.7432,151.5127,150.1069,150.8945z"/>
			<path class="st1" d="M160.376,143.915c0.6055,0.2065,1.1387,0.4971,1.5991,0.8726l-1.0542,1.6177
				c-0.7876-0.4966-1.5811-0.7451-2.3809-0.7451c-0.3755,0-0.6636,0.0635-0.8633,0.1909c-0.2002,0.127-0.2998,0.3062-0.2998,0.5361
				c0,0.1816,0.0454,0.3301,0.1362,0.4453s0.2754,0.2334,0.5542,0.3545s0.709,0.2666,1.2905,0.436
				c1.0059,0.2905,1.7539,0.6694,2.2446,1.1357c0.4907,0.4668,0.7363,1.1118,0.7363,1.936c0,0.6543-0.188,1.2207-0.5635,1.6992
				c-0.376,0.479-0.8906,0.8452-1.5449,1.0996s-1.3813,0.3818-2.1812,0.3818c-0.812,0-1.5664-0.1274-2.2627-0.3818
				c-0.6973-0.2544-1.2876-0.6055-1.7725-1.0542l1.3999-1.563c0.8115,0.6304,1.6655,0.9453,2.5625,0.9453
				c0.436,0,0.7783-0.0791,1.0269-0.2363c0.2485-0.1577,0.3726-0.3818,0.3726-0.6729c0-0.23-0.0483-0.4116-0.1455-0.5449
				c-0.0967-0.1333-0.2847-0.2573-0.563-0.3726c-0.2793-0.1152-0.7212-0.2573-1.3271-0.4272
				c-0.957-0.2788-1.6719-0.6665-2.1445-1.1631c-0.4727-0.4971-0.709-1.1147-0.709-1.854c0-0.5571,0.1606-1.0571,0.4819-1.4995
				c0.3208-0.4424,0.7812-0.7935,1.3813-1.0542c0.5996-0.2607,1.293-0.3906,2.0811-0.3906
				C159.1216,143.6064,159.7695,143.7095,160.376,143.915z"/>
			<path class="st1" d="M172.1714,149.5859h-5.98c0.0967,0.812,0.3271,1.3813,0.6909,1.7085
				c0.3633,0.3271,0.8662,0.4907,1.5083,0.4907c0.3877,0,0.7637-0.0693,1.127-0.209c0.3633-0.1392,0.7573-0.3545,1.1816-0.645
				l1.1812,1.5991c-1.127,0.897-2.3809,1.3452-3.7622,1.3452c-1.563,0-2.7627-0.4604-3.5986-1.3813
				c-0.8364-0.9209-1.2544-2.1567-1.2544-3.708c0-0.9814,0.1758-1.8628,0.5273-2.6445c0.3511-0.7812,0.8662-1.3994,1.5449-1.854
				c0.6782-0.4541,1.4902-0.6812,2.4355-0.6812c1.3931,0,2.4834,0.436,3.2715,1.3086c0.7876,0.8721,1.1812,2.084,1.1812,3.6348
				C172.2256,148.9497,172.2075,149.2949,172.1714,149.5859z M169.4087,147.7319c-0.0244-1.478-0.5454-2.2173-1.5635-2.2173
				c-0.4966,0-0.8813,0.1816-1.1538,0.5454c-0.2729,0.3633-0.4395,0.9634-0.5,1.7993h3.2173V147.7319z"/>
			<path class="st1" d="M186.5117,149.5859h-5.98c0.0967,0.812,0.3271,1.3813,0.6909,1.7085
				c0.3633,0.3271,0.8662,0.4907,1.5083,0.4907c0.3877,0,0.7637-0.0693,1.127-0.209c0.3633-0.1392,0.7573-0.3545,1.1816-0.645
				l1.1812,1.5991c-1.127,0.897-2.3809,1.3452-3.7622,1.3452c-1.563,0-2.7627-0.4604-3.5986-1.3813
				c-0.8364-0.9209-1.2544-2.1567-1.2544-3.708c0-0.9814,0.1758-1.8628,0.5273-2.6445c0.3511-0.7812,0.8662-1.3994,1.5449-1.854
				c0.6782-0.4541,1.4902-0.6812,2.4355-0.6812c1.3931,0,2.4834,0.436,3.2715,1.3086c0.7876,0.8721,1.1812,2.084,1.1812,3.6348
				C186.5659,148.9497,186.5479,149.2949,186.5117,149.5859z M183.749,147.7319c-0.0244-1.478-0.5454-2.2173-1.5635-2.2173
				c-0.4966,0-0.8813,0.1816-1.1538,0.5454c-0.2729,0.3633-0.4395,0.9634-0.5,1.7993h3.2173V147.7319z"/>
			<path class="st1" d="M195.7988,144.3696c0.4727,0.5088,0.709,1.2241,0.709,2.1445v7.0522h-2.8716v-6.5615
				c0-0.4844-0.0757-0.8208-0.2271-1.0088c-0.1519-0.1875-0.3789-0.2817-0.6816-0.2817c-0.5815,0-1.1392,0.4185-1.6724,1.2544
				v6.5977h-2.8716v-9.6514h2.5083l0.1997,1.145c0.4121-0.4844,0.8569-0.8477,1.3359-1.0903
				c0.4785-0.2422,1.0146-0.3633,1.6084-0.3633C194.6724,143.6064,195.3267,143.8608,195.7988,144.3696z"/>
			<path class="st1" d="M211.7847,147.8228c0.5269,0.4609,0.7905,1.1514,0.7905,2.0723c0,1.3447-0.4819,2.293-1.4448,2.8442
				c-0.9634,0.5518-2.3115,0.8271-4.0444,0.8271h-4.0527v-12.5957h3.562c1.769,0,3.1201,0.2515,4.0532,0.7544
				s1.3994,1.3237,1.3994,2.4629c0,0.7393-0.2212,1.3359-0.6631,1.79c-0.4424,0.4546-0.9907,0.7607-1.645,0.918
				C210.5757,147.0537,211.2573,147.3628,211.7847,147.8228z M206.0137,143.0791v2.9263h1.1089
				c1.2598,0,1.8901-0.5088,1.8901-1.5269c0-0.5088-0.1699-0.8691-0.5088-1.0815c-0.3394-0.2114-0.8789-0.3179-1.6177-0.3179
				H206.0137z M208.8945,151.0493c0.4058-0.2363,0.6089-0.6758,0.6089-1.3179c0-1.1631-0.7271-1.7451-2.1812-1.7451h-1.3086v3.417
				h1.0908C207.8916,151.4033,208.4883,151.2852,208.8945,151.0493z"/>
			<path class="st1" d="M222.335,153.5664h-2.4902l-0.127-1.2178c-0.7031,1.0181-1.6787,1.5269-2.9263,1.5269
				c-0.8848,0-1.5542-0.2666-2.0083-0.7998c-0.4546-0.5332-0.6816-1.2783-0.6816-2.2358v-6.9248h2.8716v6.5615
				c0,0.4727,0.0757,0.8027,0.2271,0.9907s0.3848,0.2817,0.6997,0.2817c0.606,0,1.127-0.3755,1.5635-1.127v-6.707h2.8716V153.5664z"
				/>
			<path class="st1" d="M232.9497,149.5859h-5.98c0.0967,0.812,0.3271,1.3813,0.6909,1.7085
				c0.3633,0.3271,0.8662,0.4907,1.5083,0.4907c0.3877,0,0.7637-0.0693,1.127-0.209c0.3633-0.1392,0.7573-0.3545,1.1816-0.645
				l1.1812,1.5991c-1.127,0.897-2.3809,1.3452-3.7622,1.3452c-1.563,0-2.7627-0.4604-3.5986-1.3813
				c-0.8364-0.9209-1.2544-2.1567-1.2544-3.708c0-0.9814,0.1758-1.8628,0.5273-2.6445c0.3511-0.7812,0.8662-1.3994,1.5449-1.854
				c0.6782-0.4541,1.4902-0.6812,2.4355-0.6812c1.3931,0,2.4834,0.436,3.2715,1.3086c0.7876,0.8721,1.1812,2.084,1.1812,3.6348
				C233.0039,148.9497,232.9858,149.2949,232.9497,149.5859z M230.187,147.7319c-0.0244-1.478-0.5454-2.2173-1.5635-2.2173
				c-0.4966,0-0.8813,0.1816-1.1538,0.5454c-0.2729,0.3633-0.4395,0.9634-0.5,1.7993h3.2173V147.7319z"/>
			<path class="st1" d="M242.2368,144.3696c0.4727,0.5088,0.709,1.2241,0.709,2.1445v7.0522h-2.8716v-6.5615
				c0-0.4844-0.0757-0.8208-0.2271-1.0088c-0.1519-0.1875-0.3789-0.2817-0.6816-0.2817c-0.5815,0-1.1392,0.4185-1.6724,1.2544
				v6.5977h-2.8716v-9.6514h2.5083l0.1997,1.145c0.4121-0.4844,0.8569-0.8477,1.3359-1.0903
				c0.4785-0.2422,1.0146-0.3633,1.6084-0.3633C241.1104,143.6064,241.7646,143.8608,242.2368,144.3696z"/>
			<path class="st1" d="M252.7607,144.9604c0.8359,0.9028,1.2539,2.166,1.2539,3.7896c0,1.0298-0.1904,1.9297-0.5723,2.6987
				c-0.3818,0.77-0.9272,1.3667-1.6357,1.7905c-0.709,0.4238-1.5483,0.6362-2.5176,0.6362c-1.4663,0-2.6201-0.4512-3.4624-1.354
				s-1.2632-2.166-1.2632-3.7896c0-1.0298,0.1909-1.9297,0.5728-2.6992c0.3813-0.7695,0.9268-1.3662,1.6357-1.7905
				c0.709-0.4238,1.5479-0.6357,2.5171-0.6357C250.7676,143.6064,251.9248,144.0576,252.7607,144.9604z M247.9805,146.4507
				c-0.2905,0.4907-0.436,1.2515-0.436,2.2812c0,1.0542,0.1421,1.8237,0.4272,2.3081c0.2842,0.4849,0.7236,0.7271,1.3174,0.7271
				c0.5815,0,1.0181-0.2456,1.3086-0.7363c0.291-0.4907,0.4365-1.251,0.4365-2.2808c0-1.0542-0.1426-1.8237-0.4272-2.3086
				c-0.2847-0.4844-0.7241-0.7271-1.3179-0.7271C248.7075,145.7144,248.2715,145.96,247.9805,146.4507z"/>
			<path class="st1" d="M261.0674,143.915c0.6055,0.2065,1.1387,0.4971,1.5991,0.8726l-1.0542,1.6177
				c-0.7876-0.4966-1.5811-0.7451-2.3809-0.7451c-0.3755,0-0.6636,0.0635-0.8633,0.1909c-0.2002,0.127-0.2998,0.3062-0.2998,0.5361
				c0,0.1816,0.0454,0.3301,0.1362,0.4453s0.2754,0.2334,0.5542,0.3545s0.709,0.2666,1.2905,0.436
				c1.0059,0.2905,1.7539,0.6694,2.2446,1.1357c0.4907,0.4668,0.7363,1.1118,0.7363,1.936c0,0.6543-0.188,1.2207-0.5635,1.6992
				c-0.376,0.479-0.8906,0.8452-1.5449,1.0996s-1.3813,0.3818-2.1812,0.3818c-0.812,0-1.5664-0.1274-2.2627-0.3818
				c-0.6973-0.2544-1.2876-0.6055-1.7725-1.0542l1.3999-1.563c0.8115,0.6304,1.6655,0.9453,2.5625,0.9453
				c0.436,0,0.7783-0.0791,1.0269-0.2363c0.2485-0.1577,0.3726-0.3818,0.3726-0.6729c0-0.23-0.0483-0.4116-0.1455-0.5449
				c-0.0967-0.1333-0.2847-0.2573-0.563-0.3726c-0.2793-0.1152-0.7212-0.2573-1.3271-0.4272
				c-0.957-0.2788-1.6719-0.6665-2.1445-1.1631c-0.4727-0.4971-0.709-1.1147-0.709-1.854c0-0.5571,0.1606-1.0571,0.4819-1.4995
				c0.3208-0.4424,0.7812-0.7935,1.3813-1.0542c0.5996-0.2607,1.293-0.3906,2.0811-0.3906
				C259.813,143.6064,260.4609,143.7095,261.0674,143.915z"/>
			<path class="st1" d="M275.498,153.5664l-0.6543-2.708h-3.6714l-0.6362,2.708h-3.0898l3.7988-12.5957h3.6167l3.7988,12.5957
				H275.498z M271.6812,148.6953h2.6538l-1.3271-5.5615L271.6812,148.6953z"/>
			<path class="st1" d="M282.1777,139.2896c0.3208,0.3091,0.4814,0.6997,0.4814,1.1724s-0.1606,0.8633-0.4814,1.1724
				c-0.3213,0.3091-0.73,0.4634-1.2271,0.4634s-0.9028-0.1543-1.2178-0.4634s-0.4722-0.6997-0.4722-1.1724
				s0.1572-0.8633,0.4722-1.1724s0.7207-0.4634,1.2178-0.4634S281.8564,138.9805,282.1777,139.2896z M282.4048,143.915v9.6514
				h-2.8716v-9.6514H282.4048z"/>
			<path class="st1" d="M290.8564,143.77l-0.4546,2.7808c-0.3633-0.085-0.6543-0.1274-0.8721-0.1274
				c-0.5698,0-1.0029,0.1973-1.2998,0.5908c-0.2969,0.394-0.5303,0.9844-0.6997,1.772v4.7803h-2.8716v-9.6514h2.5083l0.2363,1.8721
				c0.2178-0.666,0.5479-1.1904,0.9902-1.5718c0.4424-0.3818,0.9424-0.5728,1.4995-0.5728
				C290.2446,143.6426,290.5654,143.6851,290.8564,143.77z"/>
			<path class="st1" d="M299.7622,149.5859h-5.98c0.0967,0.812,0.3271,1.3813,0.6909,1.7085
				c0.3633,0.3271,0.8662,0.4907,1.5083,0.4907c0.3877,0,0.7637-0.0693,1.127-0.209c0.3633-0.1392,0.7573-0.3545,1.1816-0.645
				l1.1812,1.5991c-1.127,0.897-2.3809,1.3452-3.7622,1.3452c-1.563,0-2.7627-0.4604-3.5986-1.3813
				c-0.8364-0.9209-1.2544-2.1567-1.2544-3.708c0-0.9814,0.1758-1.8628,0.5273-2.6445c0.3511-0.7812,0.8662-1.3994,1.5449-1.854
				c0.6782-0.4541,1.4902-0.6812,2.4355-0.6812c1.3931,0,2.4834,0.436,3.2715,1.3086c0.7876,0.8721,1.1812,2.084,1.1812,3.6348
				C299.8164,148.9497,299.7983,149.2949,299.7622,149.5859z M296.9995,147.7319c-0.0244-1.478-0.5454-2.2173-1.5635-2.2173
				c-0.4966,0-0.8813,0.1816-1.1538,0.5454c-0.2729,0.3633-0.4395,0.9634-0.5,1.7993h3.2173V147.7319z"/>
			<path class="st1" d="M306.7778,143.915c0.6055,0.2065,1.1387,0.4971,1.5991,0.8726l-1.0542,1.6177
				c-0.7876-0.4966-1.5811-0.7451-2.3809-0.7451c-0.3755,0-0.6636,0.0635-0.8633,0.1909c-0.2002,0.127-0.2998,0.3062-0.2998,0.5361
				c0,0.1816,0.0454,0.3301,0.1362,0.4453s0.2754,0.2334,0.5542,0.3545s0.709,0.2666,1.2905,0.436
				c1.0059,0.2905,1.7539,0.6694,2.2446,1.1357c0.4907,0.4668,0.7363,1.1118,0.7363,1.936c0,0.6543-0.188,1.2207-0.5635,1.6992
				c-0.376,0.479-0.8906,0.8452-1.5449,1.0996s-1.3813,0.3818-2.1812,0.3818c-0.812,0-1.5664-0.1274-2.2627-0.3818
				c-0.6973-0.2544-1.2876-0.6055-1.7725-1.0542l1.3999-1.563c0.8115,0.6304,1.6655,0.9453,2.5625,0.9453
				c0.436,0,0.7783-0.0791,1.0269-0.2363c0.2485-0.1577,0.3726-0.3818,0.3726-0.6729c0-0.23-0.0483-0.4116-0.1455-0.5449
				c-0.0967-0.1333-0.2847-0.2573-0.563-0.3726c-0.2793-0.1152-0.7212-0.2573-1.3271-0.4272
				c-0.957-0.2788-1.6719-0.6665-2.1445-1.1631c-0.4727-0.4971-0.709-1.1147-0.709-1.854c0-0.5571,0.1606-1.0571,0.4819-1.4995
				c0.3208-0.4424,0.7812-0.7935,1.3813-1.0542c0.5996-0.2607,1.293-0.3906,2.0811-0.3906
				C305.5234,143.6064,306.1714,143.7095,306.7778,143.915z"/>
			<path class="st1" d="M312.4297,151.0581c0.3149,0.3154,0.4727,0.7031,0.4727,1.1631c0,0.2671-0.0425,0.5337-0.1274,0.7998
				c-0.085,0.2666-0.2363,0.6421-0.4541,1.127l-1.145,2.6357h-1.6177l0.7812-3.1992c-0.23-0.1572-0.4087-0.3545-0.5361-0.5908
				c-0.127-0.2358-0.1909-0.4932-0.1909-0.7725c0-0.46,0.1577-0.8477,0.4727-1.1631c0.3149-0.3149,0.709-0.4727,1.1816-0.4727
				C311.7271,150.5854,312.1147,150.7432,312.4297,151.0581z"/>
			<path class="st1" d="M325.5703,153.5664l-0.6543-2.708h-3.6714l-0.6362,2.708h-3.0898l3.7988-12.5957h3.6167l3.7988,12.5957
				H325.5703z M321.7534,148.6953h2.6538l-1.3271-5.5615L321.7534,148.6953z"/>
			<path class="st1" d="M335.8032,143.77l-0.4546,2.7808c-0.3633-0.085-0.6543-0.1274-0.8721-0.1274
				c-0.5698,0-1.0029,0.1973-1.2998,0.5908c-0.2969,0.394-0.5303,0.9844-0.6997,1.772v4.7803h-2.8716v-9.6514h2.5083l0.2363,1.8721
				c0.2178-0.666,0.5479-1.1904,0.9902-1.5718c0.4424-0.3818,0.9424-0.5728,1.4995-0.5728
				C335.1914,143.6426,335.5122,143.6851,335.8032,143.77z"/>
			<path class="st1" d="M345.5635,144.4785c-0.6299,0.2544-1.5571,0.3818-2.7808,0.3818c0.6299,0.2666,1.0903,0.5938,1.3813,0.9814
				c0.291,0.3882,0.436,0.8906,0.436,1.5088c0,0.6177-0.1636,1.1719-0.4907,1.6631c-0.3271,0.4907-0.7969,0.8755-1.4087,1.1538
				c-0.6118,0.2788-1.3296,0.418-2.1538,0.418c-0.3877,0-0.7573-0.0361-1.1084-0.1089c-0.0972,0.0483-0.1729,0.1245-0.2271,0.2271
				c-0.0547,0.103-0.082,0.209-0.082,0.3184c0,0.1816,0.0698,0.3242,0.209,0.4268c0.1392,0.1035,0.4209,0.1548,0.8452,0.1548h1.4541
				c0.7388,0,1.3872,0.1211,1.9448,0.3633c0.5571,0.2427,0.9873,0.5757,1.2905,1c0.3027,0.4243,0.4541,0.9023,0.4541,1.4355
				c0,1.0059-0.4331,1.7905-1.2993,2.354c-0.8667,0.5635-2.1177,0.8452-3.7534,0.8452c-1.1753,0-2.1025-0.1245-2.7808-0.3726
				c-0.6787-0.2485-1.1543-0.5972-1.4268-1.0454s-0.4092-1.0117-0.4092-1.6904h2.5811c0,0.291,0.0576,0.521,0.1729,0.6909
				c0.1147,0.1694,0.3237,0.2969,0.627,0.3818c0.3027,0.0845,0.7388,0.127,1.3086,0.127c0.7876,0,1.333-0.0938,1.6357-0.2817
				s0.4546-0.4575,0.4546-0.8086c0-0.291-0.1152-0.5215-0.3457-0.6909c-0.23-0.1699-0.5752-0.2544-1.0356-0.2544h-1.3994
				c-0.9941,0-1.7358-0.1787-2.2266-0.5361s-0.7363-0.8149-0.7363-1.3721c0-0.3516,0.103-0.6938,0.3091-1.0269
				c0.2061-0.3335,0.4844-0.6089,0.8359-0.8271c-0.606-0.3271-1.0449-0.7119-1.3179-1.1543
				c-0.2725-0.4419-0.4087-0.9785-0.4087-1.6084c0-1.0786,0.3877-1.9355,1.1631-2.5718s1.7993-0.9541,3.0718-0.9541
				c0.9692,0.0244,1.7905-0.0728,2.4629-0.291s1.3657-0.5391,2.0811-0.9634L345.5635,144.4785z M339.3564,145.9238
				c-0.2607,0.2847-0.3906,0.6753-0.3906,1.1719c0,0.5215,0.1299,0.9243,0.3906,1.209s0.6152,0.4272,1.0635,0.4272
				c0.4727,0,0.833-0.1392,1.0815-0.4185c0.248-0.2783,0.3726-0.6963,0.3726-1.2539c0-1.042-0.4849-1.563-1.4541-1.563
				C339.9717,145.4966,339.6172,145.6392,339.3564,145.9238z"/>
			<path class="st1" d="M354.6514,149.5859h-5.98c0.0967,0.812,0.3271,1.3813,0.6909,1.7085
				c0.3633,0.3271,0.8662,0.4907,1.5083,0.4907c0.3877,0,0.7637-0.0693,1.127-0.209c0.3633-0.1392,0.7573-0.3545,1.1816-0.645
				l1.1812,1.5991c-1.127,0.897-2.3809,1.3452-3.7622,1.3452c-1.563,0-2.7627-0.4604-3.5986-1.3813
				c-0.8364-0.9209-1.2544-2.1567-1.2544-3.708c0-0.9814,0.1758-1.8628,0.5273-2.6445c0.3511-0.7812,0.8662-1.3994,1.5449-1.854
				c0.6782-0.4541,1.4902-0.6812,2.4355-0.6812c1.3931,0,2.4834,0.436,3.2715,1.3086c0.7876,0.8721,1.1812,2.084,1.1812,3.6348
				C354.7056,148.9497,354.6875,149.2949,354.6514,149.5859z M351.8887,147.7319c-0.0244-1.478-0.5454-2.2173-1.5635-2.2173
				c-0.4966,0-0.8813,0.1816-1.1538,0.5454c-0.2729,0.3633-0.4395,0.9634-0.5,1.7993h3.2173V147.7319z"/>
			<path class="st1" d="M363.9385,144.3696c0.4727,0.5088,0.709,1.2241,0.709,2.1445v7.0522h-2.8716v-6.5615
				c0-0.4844-0.0757-0.8208-0.2271-1.0088c-0.1519-0.1875-0.3789-0.2817-0.6816-0.2817c-0.5815,0-1.1392,0.4185-1.6724,1.2544
				v6.5977h-2.8716v-9.6514h2.5083l0.1997,1.145c0.4121-0.4844,0.8569-0.8477,1.3359-1.0903
				c0.4785-0.2422,1.0146-0.3633,1.6084-0.3633C362.812,143.6064,363.4663,143.8608,363.9385,144.3696z"/>
			<path class="st1" d="M372.8628,153.1118c-0.3516,0.2427-0.7603,0.4307-1.2266,0.5635c-0.4668,0.1333-0.9302,0.2002-1.3906,0.2002
				c-2.1084-0.0122-3.1626-1.1753-3.1626-3.4897v-4.4712h-1.3633v-1.9995h1.3633v-2.0898l2.8721-0.3271v2.417h2.2173l-0.3091,1.9995
				h-1.9082v4.4346c0,0.4487,0.0723,0.77,0.2178,0.9634c0.1455,0.1943,0.3755,0.291,0.6909,0.291
				c0.3271,0,0.6724-0.103,1.0356-0.3091L372.8628,153.1118z"/>
			<path class="st1" d="M376.4707,139.2896c0.3208,0.3091,0.4814,0.6997,0.4814,1.1724s-0.1606,0.8633-0.4814,1.1724
				c-0.3213,0.3091-0.73,0.4634-1.2271,0.4634s-0.9028-0.1543-1.2178-0.4634s-0.4722-0.6997-0.4722-1.1724
				s0.1572-0.8633,0.4722-1.1724s0.7207-0.4634,1.2178-0.4634S376.1494,138.9805,376.4707,139.2896z M376.6978,143.915v9.6514
				h-2.8716v-9.6514H376.6978z"/>
			<path class="st1" d="M386.5669,144.3696c0.4727,0.5088,0.709,1.2241,0.709,2.1445v7.0522h-2.8716v-6.5615
				c0-0.4844-0.0757-0.8208-0.2271-1.0088c-0.1519-0.1875-0.3789-0.2817-0.6816-0.2817c-0.5815,0-1.1392,0.4185-1.6724,1.2544
				v6.5977h-2.8716v-9.6514h2.5083l0.1997,1.145c0.4121-0.4844,0.8569-0.8477,1.3359-1.0903
				c0.4785-0.2422,1.0146-0.3633,1.6084-0.3633C385.4404,143.6064,386.0947,143.8608,386.5669,144.3696z"/>
			<path class="st1" d="M397.2637,151.5669c0.1025,0.1699,0.2695,0.2974,0.4995,0.3818l-0.5996,1.8721
				c-0.5938-0.0483-1.0786-0.1787-1.4541-0.3906c-0.376-0.2119-0.6665-0.5483-0.8726-1.0088
				c-0.6299,0.9697-1.5991,1.4541-2.9082,1.4541c-0.957,0-1.7207-0.2788-2.29-0.8359c-0.5693-0.5576-0.854-1.2847-0.854-2.1812
				c0-1.0542,0.3877-1.8599,1.1631-2.4175c0.7754-0.5571,1.8965-0.8359,3.3623-0.8359h0.9819v-0.418
				c0-0.5698-0.1216-0.9604-0.3638-1.1724c-0.2427-0.2119-0.6665-0.3184-1.2725-0.3184c-0.3149,0-0.6968,0.0454-1.145,0.1362
				c-0.4482,0.0913-0.9087,0.2153-1.3813,0.3726l-0.6543-1.8901c0.606-0.23,1.2271-0.4058,1.8633-0.5269s1.2266-0.1816,1.772-0.1816
				c1.3813,0,2.3931,0.2847,3.0352,0.854c0.6421,0.5698,0.9634,1.4238,0.9634,2.563v3.7441
				C397.1089,151.1309,397.1602,151.3975,397.2637,151.5669z M394.292,150.8945v-1.7085h-0.709
				c-0.6543,0-1.1421,0.1152-1.4634,0.3452c-0.3208,0.2305-0.4814,0.5879-0.4814,1.0728c0,0.3877,0.1001,0.6875,0.2998,0.8994
				c0.2002,0.2124,0.4756,0.3184,0.8271,0.3184C393.4194,151.8218,393.9282,151.5127,394.292,150.8945z"/>
		</g>
		<g>
			<path class="st1" d="M206.0215,102.7607v-3.3545h-3.0117v3.3545h-0.9868V95.605h0.9868v2.9912h3.0117V95.605h0.9868v7.1558
				H206.0215z"/>
			<path class="st1" d="M213.5044,97.9312c0.4263,0.5127,0.6392,1.2085,0.6392,2.0879c0,0.5674-0.0972,1.0679-0.291,1.5005
				c-0.1938,0.4331-0.4741,0.7686-0.8413,1.0073c-0.3672,0.2393-0.8032,0.3584-1.3086,0.3584c-0.7686,0-1.3677-0.2559-1.7969-0.7686
				c-0.4292-0.5122-0.644-1.208-0.644-2.0874c0-0.5679,0.0972-1.0679,0.291-1.501c0.1938-0.4326,0.4741-0.7686,0.8413-1.0073
				c0.3667-0.2388,0.8066-0.3584,1.3188-0.3584C212.4814,97.1626,213.0786,97.4189,213.5044,97.9312z M210.29,100.0293
				c0,1.3916,0.4707,2.0874,1.4126,2.0874c0.9414,0,1.4126-0.6992,1.4126-2.0977c0-1.3921-0.4673-2.0879-1.4023-2.0879
				C210.7642,97.9312,210.29,98.6309,210.29,100.0293z"/>
			<path class="st1" d="M216.5996,102.5684c-0.2046-0.2109-0.3066-0.5068-0.3066-0.8877v-6.5952l0.9556-0.1143v6.6885
				c0,0.1523,0.0259,0.2632,0.0781,0.3325c0.0518,0.0693,0.1401,0.104,0.2646,0.104c0.1313,0,0.2495-0.021,0.353-0.0625
				l0.2495,0.6646c-0.2285,0.125-0.4814,0.187-0.7583,0.187C217.0825,102.8853,216.8037,102.7798,216.5996,102.5684z"/>
			<path class="st1" d="M223.7612,101.9766c0.0762,0.1074,0.1904,0.189,0.3428,0.2441l-0.2183,0.6646
				c-0.2842-0.0347-0.5127-0.1143-0.6855-0.2388c-0.1733-0.1245-0.3013-0.3184-0.3843-0.5815
				c-0.3672,0.5469-0.9106,0.8203-1.6304,0.8203c-0.54,0-0.9663-0.1519-1.2778-0.457c-0.3115-0.3042-0.4673-0.7026-0.4673-1.1943
				c0-0.5815,0.2095-1.0283,0.6284-1.3398s1.0127-0.4673,1.7812-0.4673h0.8413V99.022c0-0.3877-0.0938-0.665-0.2803-0.8311
				c-0.187-0.166-0.4746-0.2495-0.8623-0.2495c-0.4014,0-0.8931,0.0972-1.4746,0.291l-0.2393-0.6958
				c0.6787-0.2495,1.3091-0.374,1.8906-0.374c0.6436,0,1.125,0.1577,1.4434,0.4727s0.478,0.7632,0.478,1.3452v2.5029
				C223.647,101.7051,223.6851,101.8691,223.7612,101.9766z M222.6914,101.3169v-1.2563h-0.7168
				c-1.0107,0-1.5161,0.3735-1.5161,1.1216c0,0.3257,0.0796,0.5713,0.2388,0.7373s0.3945,0.2495,0.7061,0.2495
				C221.9502,102.1689,222.3799,101.8848,222.6914,101.3169z"/>
			<path class="st1" d="M227.0015,101.6494c0.1382,0.1387,0.2075,0.3081,0.2075,0.5088c0,0.2148-0.062,0.4609-0.187,0.7378
				l-0.6958,1.5889h-0.6855l0.4155-1.7241c-0.0898-0.0693-0.1611-0.1558-0.2129-0.2598c-0.0518-0.1035-0.0776-0.2178-0.0776-0.3428
				c0-0.2007,0.0688-0.3701,0.2075-0.5088c0.1382-0.1382,0.3081-0.2075,0.5088-0.2075
				C226.6899,101.4419,226.8628,101.5112,227.0015,101.6494z"/>
			<path class="st1" d="M235.2168,97.3184c0.2974,0.104,0.5815,0.2598,0.8516,0.4673l-0.4053,0.6025
				c-0.249-0.1592-0.4863-0.2769-0.7114-0.353s-0.4619-0.1143-0.7114-0.1143c-0.3115,0-0.5571,0.064-0.7373,0.1919
				c-0.1802,0.1284-0.27,0.3032-0.27,0.5249s0.0845,0.3945,0.2544,0.519c0.1694,0.1245,0.4761,0.2461,0.9194,0.3638
				c0.6089,0.1523,1.0645,0.3599,1.3657,0.623c0.3008,0.2632,0.4517,0.623,0.4517,1.0801c0,0.54-0.2095,0.9521-0.6284,1.2358
				c-0.4189,0.2842-0.9297,0.4258-1.5317,0.4258c-0.8311,0-1.52-0.2388-2.0669-0.7163l0.5088-0.582
				c0.4639,0.3535,0.9761,0.5298,1.5371,0.5298c0.3599,0,0.6455-0.0742,0.8569-0.2231c0.2109-0.1489,0.3169-0.3516,0.3169-0.6074
				c0-0.187-0.0381-0.3379-0.1143-0.4521c-0.0767-0.1143-0.208-0.2144-0.395-0.3013c-0.1865-0.0864-0.4604-0.1777-0.8203-0.2749
				c-0.5815-0.1523-1.0024-0.3564-1.2617-0.6128c-0.2598-0.2563-0.3896-0.5815-0.3896-0.9766c0-0.2837,0.0845-0.5415,0.2544-0.7734
				c0.1694-0.2319,0.4053-0.4121,0.7065-0.54c0.3008-0.1284,0.6387-0.1924,1.0122-0.1924
				C234.583,97.1626,234.9189,97.2148,235.2168,97.3184z"/>
			<path class="st1" d="M242.0454,97.9312c0.4263,0.5127,0.6392,1.2085,0.6392,2.0879c0,0.5674-0.0972,1.0679-0.291,1.5005
				c-0.1938,0.4331-0.4741,0.7686-0.8413,1.0073c-0.3672,0.2393-0.8032,0.3584-1.3086,0.3584c-0.7686,0-1.3677-0.2559-1.7969-0.7686
				c-0.4292-0.5122-0.644-1.208-0.644-2.0874c0-0.5679,0.0972-1.0679,0.291-1.501c0.1938-0.4326,0.4741-0.7686,0.8413-1.0073
				c0.3667-0.2388,0.8066-0.3584,1.3188-0.3584C241.0225,97.1626,241.6196,97.4189,242.0454,97.9312z M238.8311,100.0293
				c0,1.3916,0.4707,2.0874,1.4126,2.0874c0.9414,0,1.4126-0.6992,1.4126-2.0977c0-1.3921-0.4673-2.0879-1.4023-2.0879
				C239.3052,97.9312,238.8311,98.6309,238.8311,100.0293z"/>
			<path class="st1" d="M247.0361,102.792c-0.2148,0.6367-0.5142,1.1406-0.8984,1.5112c-0.3843,0.3701-0.9331,0.5933-1.646,0.6699
				l-0.104-0.748c0.3599-0.062,0.6475-0.1523,0.8618-0.27c0.2148-0.1177,0.3862-0.2686,0.5142-0.4517
				c0.1279-0.1836,0.2476-0.4312,0.3584-0.7427h-0.3218l-1.8384-5.4736h1.0176l1.4644,4.7778l1.4336-4.7778h0.9863L247.0361,102.792
				z"/>
			<path class="st1" d="M258.6787,95.605l-2.2852,7.1558h-1.0591l-2.3057-7.1558h1.0591l1.7969,6.0859l1.7969-6.0859H258.6787z"/>
			<path class="st1" d="M261.3066,94.8467c0.1245,0.1245,0.1865,0.2803,0.1865,0.4673s-0.062,0.3413-0.1865,0.4624
				c-0.125,0.1211-0.2876,0.1816-0.4883,0.1816c-0.1938,0-0.353-0.0605-0.478-0.1816c-0.1245-0.1211-0.1865-0.2754-0.1865-0.4624
				s0.062-0.3428,0.1865-0.4673c0.125-0.1245,0.2842-0.187,0.478-0.187C261.019,94.6597,261.1816,94.7222,261.3066,94.8467z
				 M261.3066,97.2871v5.4736h-0.9556v-5.4736H261.3066z"/>
			<path class="st1" d="M266.79,97.3027c0.27,0.0938,0.5298,0.2441,0.7788,0.4521l-0.457,0.6021
				c-0.1938-0.1382-0.3823-0.2402-0.5659-0.3062s-0.3862-0.0986-0.6074-0.0986c-0.4434,0-0.7881,0.1763-1.0337,0.5298
				c-0.2456,0.353-0.3687,0.876-0.3687,1.5679c0,0.6929,0.1211,1.2031,0.3638,1.5322c0.2422,0.3286,0.5884,0.4932,1.0386,0.4932
				c0.2144,0,0.4116-0.0327,0.5918-0.0986s0.3809-0.1714,0.6025-0.3169l0.436,0.6235c-0.4985,0.4014-1.0557,0.6021-1.6719,0.6021
				c-0.7412,0-1.3242-0.249-1.75-0.7476c-0.4263-0.4985-0.6392-1.1875-0.6392-2.0669c0-0.5815,0.0972-1.0903,0.291-1.5269
				c0.1938-0.436,0.4688-0.7754,0.8257-1.0176c0.3564-0.2427,0.7808-0.3638,1.2725-0.3638
				C266.2222,97.1626,266.52,97.2095,266.79,97.3027z"/>
			<path class="st1" d="M272.2529,102.5117c-0.3604,0.249-0.7686,0.3735-1.2256,0.3735c-0.4639,0-0.8257-0.1333-1.0854-0.3999
				c-0.2598-0.2661-0.3896-0.6523-0.3896-1.1577v-3.3027h-0.9556v-0.7378h0.9556v-1.2358l0.9556-0.1143v1.3501h1.2983l-0.104,0.7378
				h-1.1943v3.2612c0,0.2837,0.0503,0.4897,0.1509,0.6177c0.1001,0.1284,0.2681,0.1924,0.5034,0.1924
				c0.2148,0,0.457-0.0728,0.7271-0.2183L272.2529,102.5117z"/>
			<path class="st1" d="M277.5547,97.9312c0.4263,0.5127,0.6392,1.2085,0.6392,2.0879c0,0.5674-0.0972,1.0679-0.291,1.5005
				c-0.1938,0.4331-0.4741,0.7686-0.8413,1.0073c-0.3672,0.2393-0.8032,0.3584-1.3086,0.3584c-0.7686,0-1.3677-0.2559-1.7969-0.7686
				c-0.4292-0.5122-0.644-1.208-0.644-2.0874c0-0.5679,0.0972-1.0679,0.291-1.501c0.1938-0.4326,0.4741-0.7686,0.8413-1.0073
				c0.3667-0.2388,0.8066-0.3584,1.3188-0.3584C276.5317,97.1626,277.1289,97.4189,277.5547,97.9312z M274.3403,100.0293
				c0,1.3916,0.4707,2.0874,1.4126,2.0874c0.9414,0,1.4126-0.6992,1.4126-2.0977c0-1.3921-0.4673-2.0879-1.4023-2.0879
				C274.8145,97.9312,274.3403,98.6309,274.3403,100.0293z"/>
			<path class="st1" d="M283.314,97.2251l-0.1768,0.9346c-0.166-0.0415-0.3257-0.062-0.4775-0.062
				c-0.3394,0-0.6128,0.1245-0.8208,0.3735c-0.2075,0.2495-0.3701,0.6372-0.4878,1.1636v3.126h-0.9556v-5.4736h0.8203l0.0938,1.1113
				c0.145-0.4082,0.3423-0.7163,0.5918-0.9243c0.249-0.2075,0.54-0.3115,0.8726-0.3115
				C282.9673,97.1626,283.1475,97.1836,283.314,97.2251z"/>
			<path class="st1" d="M285.9834,94.8467c0.1245,0.1245,0.1865,0.2803,0.1865,0.4673s-0.062,0.3413-0.1865,0.4624
				c-0.125,0.1211-0.2876,0.1816-0.4883,0.1816c-0.1938,0-0.353-0.0605-0.478-0.1816c-0.1245-0.1211-0.1865-0.2754-0.1865-0.4624
				s0.062-0.3428,0.1865-0.4673c0.125-0.1245,0.2842-0.187,0.478-0.187C285.6958,94.6597,285.8584,94.7222,285.9834,94.8467z
				 M285.9834,97.2871v5.4736h-0.9556v-5.4736H285.9834z"/>
			<path class="st1" d="M292.3809,101.9766c0.0762,0.1074,0.1904,0.189,0.3428,0.2441l-0.2183,0.6646
				c-0.2842-0.0347-0.5127-0.1143-0.6855-0.2388c-0.1733-0.1245-0.3013-0.3184-0.3843-0.5815
				c-0.3672,0.5469-0.9106,0.8203-1.6304,0.8203c-0.54,0-0.9663-0.1519-1.2778-0.457c-0.3115-0.3042-0.4673-0.7026-0.4673-1.1943
				c0-0.5815,0.2095-1.0283,0.6284-1.3398s1.0127-0.4673,1.7812-0.4673h0.8413V99.022c0-0.3877-0.0938-0.665-0.2803-0.8311
				c-0.187-0.166-0.4746-0.2495-0.8623-0.2495c-0.4014,0-0.8931,0.0972-1.4746,0.291l-0.2393-0.6958
				c0.6787-0.2495,1.3091-0.374,1.8906-0.374c0.6436,0,1.125,0.1577,1.4434,0.4727s0.478,0.7632,0.478,1.3452v2.5029
				C292.2666,101.7051,292.3047,101.8691,292.3809,101.9766z M291.311,101.3169v-1.2563h-0.7168
				c-1.0107,0-1.5161,0.3735-1.5161,1.1216c0,0.3257,0.0796,0.5713,0.2388,0.7373s0.3945,0.2495,0.7061,0.2495
				C290.5698,102.1689,290.9995,101.8848,291.311,101.3169z"/>
			<path class="st1" d="M295.6313,101.6494c0.1382,0.1387,0.2075,0.3081,0.2075,0.5088c0,0.2012-0.0693,0.3726-0.2075,0.5142
				c-0.1387,0.1421-0.3115,0.2129-0.5195,0.2129c-0.2007,0-0.3701-0.0708-0.5088-0.2129c-0.1387-0.1416-0.2075-0.313-0.2075-0.5142
				c0-0.2007,0.0688-0.3701,0.2075-0.5088c0.1387-0.1382,0.3081-0.2075,0.5088-0.2075
				C295.3198,101.4419,295.4927,101.5112,295.6313,101.6494z M295.6313,95.605l-0.104,4.7671h-0.8413l-0.1143-4.7671H295.6313z"/>
		</g>
	</g>
</g>
<line class="st3" x1="62.8073" y1="230.4803" x2="439.4507" y2="230.4803"/>
<g>
	<g>
		<path class="st4" d="M490.6494,118.8936c-1.5499,0.8047-3.5624,0.0874-4.6809-1.2538c-1.1184-1.3412-1.5076-3.1445-1.6411-4.8858
			c-0.071-0.9272-0.0733-1.8948,0.3094-2.7423c0.8011-1.7746,3.1739-2.4529,5.0002-1.7778
			c1.8263,0.6751,3.1047,2.3896,3.7679,4.2202c0.3967,1.0951,0.611,2.2764,0.4521,3.4303c-0.1588,1.1539-0.719,2.278-1.6512,2.9763"
			/>
	</g>
	<g>
		<path class="st4" d="M498.0291,108.0909c-0.9998,0.1418-2.0253,0.1948-3.0142-0.0097c-0.9889-0.2045-1.9444-0.6859-2.5818-1.4691
			c-0.5459-0.6709-0.8279-1.5158-1.0396-2.3545c-0.2393-0.9479-0.4013-1.9562-0.1277-2.8948
			c0.4275-1.4666,1.932-2.4879,3.4591-2.5304c1.5271-0.0425,3.0048,0.7976,3.9197,2.021c0.9149,1.2234,1.3044,2.7861,1.2868,4.3137
			c-0.0114,0.9872-0.2063,2.0215-0.8388,2.7796"/>
	</g>
	<g>
		<path class="st4" d="M475.2645,115.451c-1.3158,0.0543-2.6655-0.4437-3.5578-1.4121c-0.8923-0.9685-1.277-2.4085-0.8912-3.6676
			c0.1786-0.5828,0.5068-1.11,0.884-1.5889c1.5183-1.9278,4.0757-3.1527,6.4703-2.6162c0.6436,0.1442,1.269,0.4143,1.7621,0.8522
			c0.3718,0.3302,0.6595,0.7476,0.8776,1.1943c0.7917,1.6214,0.6198,3.671-0.4309,5.1379c-1.0508,1.4669-2.936,2.2892-4.726,2.0613"
			/>
	</g>
	<g>
		<path class="st4" d="M481.8062,102.8057c-1.4918,0.3472-3.1104,0.2319-4.4812-0.4515s-2.4638-1.959-2.7993-3.4534
			c-0.3356-1.4944,0.1468-3.1763,1.3104-4.1723c0.5883-0.5036,1.317-0.8215,2.0655-1.0203
			c1.8647-0.4952,4.0202-0.2125,5.4358,1.0983c1.1562,1.0707,1.692,2.7412,1.4719,4.3016c-0.2201,1.5604-1.1593,2.9849-2.4507,3.888
			"/>
	</g>
	<g>
		<path class="st4" d="M493.6577,80.3229c-1.3432,0.2857-2.7128,0.573-4.079,0.4345c-1.3662-0.1385-2.7537-0.7745-3.4574-1.9538
			c-0.2852-0.478-0.4455-1.0193-0.5767-1.5603c-0.1363-0.562-0.2448-1.141-0.186-1.7164c0.1814-1.7735,1.8566-3.0012,3.4953-3.7031
			c1.7116-0.7332,3.7454-1.1359,5.3929-0.2682c1.463,0.7705,2.3204,2.4756,2.2503,4.1276c-0.0701,1.652-0.9881,3.2068-2.288,4.2287"
			/>
	</g>
	<g>
		<path class="st4" d="M489.2596,89.6441c-1.5594,1.3751-3.7252,2.1573-5.76,1.731c-2.0349-0.4263-3.8039-2.2197-3.876-4.2975
			c-0.0148-0.4252,0.0386-0.8566,0.1942-1.2526c0.2414-0.6144,0.7119-1.1087,1.202-1.5509
			c1.5058-1.3584,3.5089-2.4213,5.5005-2.0385c1.4555,0.2798,2.7286,1.3667,3.2333,2.7603
			c0.5046,1.3936,0.2226,3.0436-0.7162,4.1905"/>
	</g>
	<g>
		<path class="st4" d="M503.1713,97.281c-1.6017,0.3159-3.3259-0.0451-4.6663-0.9771c-0.402-0.2795-0.7765-0.6154-1.019-1.0407
			c-0.1782-0.3126-0.2791-0.6622-0.3781-1.0081c-0.3707-1.2951-0.735-2.6969-0.2701-3.9612
			c0.3518-0.9566,1.1444-1.6978,2.0309-2.2006c0.5072-0.2877,1.0704-0.5127,1.6534-0.5037
			c0.6598,0.0102,1.2753,0.3162,1.8549,0.6319c0.9416,0.5128,1.8918,1.1007,2.4738,2.0011c0.4307,0.6663,0.626,1.4534,0.8084,2.2255
			c0.2173,0.9198,0.4267,1.8753,0.2411,2.802c-0.1855,0.9268-0.8757,1.8209-1.8139,1.9359"/>
	</g>
	<g>
		<g>
			<path class="st5" d="M485.6186,107.1424c3.3032-7.6773,8.314-14.3614,11.3263-22.2082
				c3.3543-8.7377,6.202-17.6464,7.5332-26.9329c0.1825-1.2728-1.7656-1.8226-1.9499-0.5375
				c-1.2455,8.6879-3.8232,17.0025-6.8832,25.2088c-3.111,8.3432-8.2829,15.3388-11.7725,23.4493
				C483.3637,107.3045,485.1052,108.3357,485.6186,107.1424L485.6186,107.1424z"/>
		</g>
	</g>
</g>
<g>
	<g>
		<g>
			<path class="st6" d="M456.7337,26.0747c0.9905-10.6567,8.0807-18.631,15.0325-26.1677c1.0281-1.1146-0.6361-2.787-1.6682-1.6681
				c-7.4301,8.0552-14.6689,16.4898-15.7235,27.8358C454.2341,27.5857,456.5941,27.5761,456.7337,26.0747L456.7337,26.0747z"/>
		</g>
	</g>
	<g>
		<g>
			<path class="st6" d="M458.6764,5.6795c4.0387-2.1945,8.1991-4.0887,12.5126-5.679c1.4125-0.5208,0.8018-2.8017-0.6272-2.2748
				c-4.5015,1.6597-8.8601,3.626-13.0761,5.9168C456.1513,4.3676,457.3408,6.4053,458.6764,5.6795L458.6764,5.6795z"/>
		</g>
	</g>
	<g>
		<path class="st7" d="M455.1156,27.3921c-1.6753,2.3868-4.1729,4.0995-6.8377,5.2836c-1.2846,0.5708-2.6637,1.0371-4.0665,0.9467
			c-1.4028-0.0904-2.8353-0.8446-3.3883-2.137c-0.7076-1.6535,0.2572-3.6472,1.7402-4.6648
			c1.4829-1.0176,3.3439-1.2808,5.1346-1.4487c2.7303-0.256,5.5758-0.3394,8.1149,0.6963"/>
	</g>
	<g>
		<path class="st7" d="M456.0877,26.3637c1.6425,4.0487,1.9669,8.6201,0.9123,12.8601c-0.4911,1.9744-1.3415,3.9681-2.9561,5.2061
			c-1.6146,1.2379-4.1443,1.4476-5.5927,0.0187c-0.7948-0.7841-1.1541-1.9272-1.1997-3.0428
			c-0.0859-2.0997,0.8264-4.1043,1.8332-5.9489c1.6793-3.0767,3.6809-5.9773,5.9616-8.6389"/>
	</g>
	<g>
		<path class="st7" d="M458.1929,17.3226c-0.4912,3.8338,0.4699,7.8361,2.6487,11.0288c0.684,1.0023,1.5007,1.9416,2.5397,2.5683
			c1.0391,0.6266,2.3272,0.9118,3.4903,0.5657c2.1186-0.6304,3.1811-3.2017,2.7805-5.3755s-1.8965-3.978-3.4971-5.5026
			c-1.941-1.8488-4.1177-3.4499-6.4607-4.7522"/>
	</g>
	<g>
		<path class="st7" d="M462.1335,10.7158c1.7209,3.6242,4.581,6.6973,8.0726,8.6735c0.5088,0.288,1.0482,0.5585,1.631,0.6045
			c1.0342,0.0816,1.9758-0.5459,2.8224-1.1455c0.4774-0.3381,0.9691-0.6915,1.2657-1.1957c0.4138-0.7035,0.3745-1.6071,0.0616-2.361
			s-0.8682-1.3808-1.4586-1.9443c-2.9373-2.8031-7.031-4.3557-11.0885-4.2055"/>
	</g>
	<g>
		<path class="st7" d="M458.3404,6.2968c-0.7377,2.3998-2.1056,4.6701-4.1577,6.1163s-4.8392,1.957-7.1431,0.9596
			c-0.3527-0.1527-0.7027-0.3477-0.9308-0.657c-0.2889-0.3919-0.3401-0.9052-0.3702-1.3912
			c-0.0451-0.7289-0.0631-1.4761,0.158-2.1721c0.3373-1.0617,1.2044-1.8899,2.184-2.4203s2.0751-0.801,3.1569-1.0664
			c1.4491-0.3555,2.8981-0.7111,4.3472-1.0666c0.8936-0.2192,1.8549-0.4351,2.713-0.1031"/>
	</g>
	<g>
		<path class="st7" d="M457.2392,5.3478c-3.8033,0.9197-7.904,0.5615-11.4903-1.0037c-0.7424-0.324-1.5125-0.7469-1.8609-1.4783
			c-0.3243-0.6809-0.2121-1.4831-0.0445-2.2184c0.1899-0.8331,0.4554-1.6772,1.0057-2.3308
			c0.7096-0.8427,1.8291-1.2685,2.9299-1.3124c1.1008-0.0439,2.1891,0.2589,3.2102,0.6726c3.297,1.3357,6.0828,3.8928,7.6953,7.0636
			"/>
	</g>
	<g>
		<g>
			<path class="st8" d="M451.3197,41.5959c1.2029,0.3521,2.4596-0.1708,3.0478-1.2827c0.5161-0.9758,0.8497-2.5793,0.14-3.5179
				c-0.8294-1.0969-2.3578-0.9623-3.3218-0.1432c-0.4343,0.369-0.7839,0.8813-0.9383,1.4337
				c-0.0848,0.3036-0.1097,0.6156-0.079,0.9275c0.0144,0.1463,0.0385,0.2897,0.0758,0.4313
				c0.1323,0.5024-0.0245,0.0137,0.2414-0.2034c-0.4938,0.4032-0.4186,1.2496,0,1.6681c0.4883,0.4883,1.1731,0.4042,1.6681,0
				c0.4766-0.3892,0.6201-1.0559,0.4987-1.6398c-0.0255-0.1226-0.1374-0.5962-0.1569-0.4669
				c0.0353-0.2342,0.2299-0.2586,0.3169-0.4397c0.0401-0.0834,0.0475,0.0098,0.0485-0.0252
				c0.0005-0.0169-0.3055-0.256-0.3072-0.2545c-0.0768,0.0661-0.094,0.5783-0.1235,0.6974
				c-0.0418,0.1683-0.0828,0.3965-0.2121,0.5249c-0.1338,0.1328-0.1197,0.0599-0.2712,0.0156
				C450.4869,38.8938,449.8634,41.1697,451.3197,41.5959L451.3197,41.5959z"/>
		</g>
	</g>
	<g>
		<g>
			<path class="st8" d="M445.1222,30.8089c1.0449,0.566,2.2632,0.6617,3.3715,0.2157c1.0988-0.4422,2.1351-1.4364,2.0743-2.7073
				c-0.0733-1.5336-1.6691-1.8491-2.8866-1.5568c-1.1974,0.2875-2.2509,1.0764-2.5896,2.2919
				c-0.4081,1.4648,1.8673,2.0899,2.2748,0.6271c0.1004-0.3603,0.952-0.8892,1.2672-0.6605
				c-0.1411-0.1411-0.2821-0.2821-0.4232-0.4232c-0.1158-0.1608,0.1353-0.1952-0.0311-0.1422
				c-0.0608,0.0193-0.1384,0.1451-0.1874,0.1852c-0.1543,0.1261-0.3429,0.2021-0.5309,0.2559
				c-0.3947,0.113-0.7886,0.072-1.1485-0.123C444.9778,28.0487,443.7854,30.0848,445.1222,30.8089L445.1222,30.8089z"/>
		</g>
	</g>
	<g>
		<g>
			<path class="st8" d="M451.0811,11.5321c1.1623-0.0362,2.3999-0.7542,2.4492-2.0374c0.0481-1.251-1.0967-2.3157-2.347-1.9346
				c-1.1146,0.3398-2.2583,1.4344-2.232,2.6603c0.0296,1.3776,1.5467,2.4319,2.7909,1.631
				c0.5351-0.3445,0.7546-1.0472,0.4232-1.6139c-0.3116-0.5327-1.076-0.7694-1.6139-0.4232
				c0.2603-0.1676,0.6712,0.0406,0.7465,0.3209c0.149,0.5544-0.0154,0.1353-0.0236,0.1314c-0.0205-0.01,0.6298-0.5279,0.6134-0.4594
				c-0.0844,0.3533-0.6686-0.2118-0.6938-0.2916c-0.0305-0.0965,0.0019-0.1626,0.008-0.2568
				c0.0027-0.0422,0.0717-0.1026,0.0727-0.1177c0.0618-0.0211,0.0253-0.0112-0.1096,0.0296
				c0.0928-0.0034,0.0648-0.0026-0.0841,0.0023C449.5666,9.2202,449.56,11.5795,451.0811,11.5321L451.0811,11.5321z"/>
		</g>
	</g>
	<g>
		<g>
			<path class="st8" d="M448.2694,3.1049c1.036,0.8207,2.5225,1.2538,3.5912,0.2109c0.4489-0.4381,0.6999-1.0421,0.6554-1.6687
				c-0.0523-0.736-0.5237-1.2466-1.0966-1.6532c-0.9948-0.7061-2.5561-1.6636-3.6389-0.6106
				c-1.1266,1.0956-0.4562,2.5953,0.5424,3.4682c0.4794,0.419,1.1964,0.4717,1.6682,0c0.4278-0.4278,0.4816-1.2471,0-1.6681
				c-0.0902-0.0789-0.3471-0.4115-0.4467-0.4348c-0.0076-0.0171-0.0152-0.0341-0.0229-0.0512
				c0.085,0.3528-0.1349,0.5356-0.6596,0.5484c0.0643,0.0803,0.3612,0.1774,0.4425,0.2206c0.2075,0.1101,0.41,0.2288,0.6083,0.3545
				c0.0069,0.0044,0.3947,0.2541,0.3745,0.2731c-0.0785,0.074-0.1075-0.6071-0.0408-0.4967
				c-0.0096-0.0159-0.2363-0.1029-0.309-0.1605c-0.4989-0.3952-1.1811-0.487-1.6681,0
				C447.8591,1.847,447.7673,2.7072,448.2694,3.1049L448.2694,3.1049z"/>
		</g>
	</g>
	<g>
		<g>
			<path class="st8" d="M465.2029,27.0682c2.2992-1.1159,0.7091-5.1906-1.5546-5.2345c-1.305-0.0253-2.1977,1.0866-2.0202,2.3492
				c0.1658,1.1792,1.0388,2.13,1.9718,2.7966c0.5186,0.3706,1.313,0.0911,1.6139-0.4232c0.3467-0.5928,0.0967-1.2424-0.4232-1.6139
				c-0.2686-0.1919-0.5114-0.4479-0.677-0.7348c0.0167,0.0289-0.2154-0.3583-0.1629-0.3425
				c0.2995,0.0901-0.3903,0.3549-0.3873,0.3202c0.0023-0.0269,0.1734,0.2615,0.2099,0.3485
				c0.0417,0.0993,0.1047,0.543,0.1753,0.5839c0.0013,0.0221,0.0015,0.0441,0.0005,0.0662
				c0.0778-0.0489,0.0988-0.0998,0.0631-0.1526c-0.573,0.2781-0.7271,1.0943-0.4232,1.6139
				C463.9313,27.2302,464.6277,27.3473,465.2029,27.0682L465.2029,27.0682z"/>
		</g>
	</g>
	<g>
		<g>
			<path class="st8" d="M469.0225,16.5686c1.1507,0.6835,2.991,0.1696,3.4418-1.159c0.4683-1.3799-0.5861-2.6643-1.8316-3.1292
				c-1.0976-0.4097-2.8502-0.2494-3.4083,0.9364c-0.6482,1.3773,0.948,2.8017,1.9833,3.4459
				c1.2928,0.8043,2.4785-1.2358,1.1907-2.037c-0.2262-0.1408-0.4155-0.2841-0.6035-0.4747
				c-0.0758-0.0769-0.1438-0.1811-0.2262-0.249c-0.2216-0.1826,0.0008-0.3349-0.1288,0.0829
				c-0.1011,0.1735-0.2022,0.347-0.3033,0.5205c0.1832-0.1986,0.7097-0.0445,0.8971,0.0828c0.178,0.121,0.2268,0.2837,0.2908-0.061
				c0.0504-0.2716,0.1396,0.0476-0.0894-0.0173c-0.0196-0.0056,0.0068,0.0389-0.0219,0.0219
				C468.9048,13.7545,467.7169,15.7931,469.0225,16.5686L469.0225,16.5686z"/>
		</g>
	</g>
</g>
<g>
	<g>
		<path class="st7" d="M501.9229-1.7939c3.4142,12.0677,4.4662,25.4985-1.0434,36.7647
			c-5.3655,10.9715-16.5605,19.1959-18.5017,31.2538c-0.5024-3.2523-3.3913-5.5896-4.6359-8.636
			c-1.0029-2.4548-0.8763-5.2102-0.623-7.8498c0.9081-9.4646,3.3649-19.0463,9.0204-26.6895
			c2.9479-3.9839,6.6728-7.322,9.8791-11.101c3.2063-3.7791,5.9666-8.2183,6.3986-13.1555"/>
	</g>
	<g>
		<path class="st4" d="M459.9809,48.707c1.6253-4.7412,2.7571-9.6362,4.2337-14.4259c2.8204-9.1487,7.0334-18.0914,13.8065-24.8574
			s16.4076-11.1097,25.9052-9.9057c-2.8644,5.5168-5.7372,11.0476-9.2144,16.2003c-9.4218,13.9617-22.8853,24.6085-36.126,35.0191"
			/>
	</g>
</g>
<g>
	<path class="st4" d="M454.7222,63.8387c4.0386-2.6623,7.7287-5.8415,11.0896-9.3124c3.3625-3.4753,6.3123-7.3306,8.8803-11.3946
		c2.5934-4.0511,4.8091-8.3041,6.8579-12.6156c2.0317-4.3316,3.8273-8.7292,5.8882-13.1742
		c0.172-0.3745,0.6151-0.5386,0.9895-0.3666c0.2944,0.1353,0.4583,0.442,0.4315,0.7473c-0.4639,4.9795-2.0532,9.7734-4.1783,14.2679
		c-2.108,4.515-4.8203,8.7245-7.841,12.6524c-3.0462,3.915-6.3973,7.5561-9.9389,10.9743
		c-3.5428,3.4224-7.3611,6.5334-11.3405,9.4305c-0.3284,0.2393-0.7886,0.1671-1.0279-0.1614s-0.1671-0.7886,0.1613-1.0279
		C454.7024,63.8521,454.7135,63.8445,454.7222,63.8387z"/>
</g>
<g>
	<g>
		<path class="st9" d="M444.6283,75.5672c-1.8614,1.4503-5.0503,0.4613-5.7645-1.7877c-0.1152-0.363-0.1777-0.7519-0.3872-1.0699
			c-0.2372-0.3602-0.63-0.5805-0.9615-0.8565c-1.4931-1.2431-1.5081-3.8591-0.0294-5.1192
			c0.6498-0.5537,1.5868-0.9772,1.6895-1.8247c0.0759-0.6263-0.3605-1.1809-0.6795-1.7253
			c-0.4528-0.7727-0.7006-1.6642-0.7116-2.5597c-0.0143-1.159,0.6754-2.5462,1.8335-2.501c0.469,0.0183,0.9483,0.277,1.386,0.1074
			c0.4975-0.1927,0.6445-0.8121,0.9715-1.2336c0.5303-0.6837,1.558-0.8034,2.3731-0.5131c0.8151,0.2903,1.4677,0.9023,2.0949,1.4983
			c1.3394-2.1107,4.2852-3.4073,6.43-2.123c0.5164,0.3092,0.9499,0.7407,1.4587,1.0622c0.9133,0.5771,2.0417,0.7832,2.8825,1.4616
			c1.3172,1.0627,1.5104,3.2533,0.3996,4.5302c1.0281,0.6413,2.0702,1.3486,2.6943,2.3873s0.709,2.4986-0.1187,3.3835
			c-0.212,0.2267-0.486,0.4279-0.5572,0.73c-0.0634,0.2693,0.0536,0.5434,0.1077,0.8148c0.223,1.1185-0.6426,2.1704-1.5953,2.7974
			c-0.9528,0.6269-2.069,1.0437-2.8398,1.8844c-0.6944,0.7573-1.0286,1.7755-1.6311,2.6077
			c-0.6025,0.8322-1.7071,1.4922-2.6347,1.0504c-0.2767-0.1318-0.5467-0.3589-0.848-0.3025
			c-0.3258,0.0609-0.4934,0.4154-0.743,0.6335c-0.5889,0.5146-1.498,0.2005-2.204-0.1358
			c-0.7064-0.3364-1.4293-0.6846-1.9713-1.2488c-0.542-0.5642-0.8727-1.3999-0.6283-2.1431"/>
	</g>
	<g>
		<path class="st4" d="M445.8101,68.4218c0.3146,1.5982,2.0496,2.8053,3.6372,2.441c1.5876-0.3642,2.6213-2.3258,1.9332-3.8022
			c-0.2471-0.5301-0.6626-0.96-1.0707-1.379c-0.4327-0.4444-0.9037-0.9104-1.5114-1.034c-0.7201-0.1465-1.469,0.2464-1.9275,0.8206
			s-0.6757,1.3019-0.8323,2.0199"/>
	</g>
</g>
<g>
	<path class="st7" d="M8.5322,187.132c0.8475,3.0419,1.6949,6.0837,2.5424,9.1256c0.529,1.8988,1.0626,3.8343,0.9935,5.8042
		c-0.1163,3.3143-1.9291,6.4449-1.7442,9.756c0.1507,2.6996,1.6039,5.1238,2.5509,7.6563c1.1196,2.9939,1.5415,6.1956,1.9556,9.365
		c0.2066,1.5811,0.4132,3.1853,0.1907,4.7643c-0.1888,1.3401-0.6808,2.6164-1.1845,3.8725
		c-3.7955,9.466-8.4693,18.5796-13.9419,27.1855c4.249-11.1471,2.5088-23.6789-0.7324-35.1596
		c-0.6701-2.3734-1.4076-4.7682-1.4329-7.2343c-0.0198-1.9326,0.3999-3.8411,0.8688-5.716
		c1.2151-4.8587,2.7766-9.6308,4.6688-14.2681c1.0374-2.5424,2.1758-5.0493,3.0058-7.6667
		c1.1358-3.5816,1.6814-7.3496,1.6081-11.1062"/>
</g>
<g>
	<path class="st8" d="M7.9635,183.1842c-3.2503,3.2197-5.3462,7.4042-8.1705,11.0034c-3.55,4.5239-8.2757,8.1574-11.053,13.1928
		c-4.1047,7.442-3.2046,16.8026,0.1104,24.6283c1.7838,4.2108,4.2052,8.1232,6.0861,12.2915
		c3.0012,6.6511,4.5926,13.9343,4.6392,21.2311c2.1833-1.1001,3.0485-3.7191,3.6628-6.0854
		c2.0016-7.711,3.5411-15.799,1.9572-23.6065c-1.1109-5.4762-3.7297-10.6362-4.1497-16.2081
		c-0.4635-6.1499,1.7886-12.1369,3.853-17.9484s4.0014-11.9837,2.8953-18.0511"/>
</g>
<g>
	<path class="st4" d="M41.8604,193.0812c-5.499,2.7222-10.7471,6.0097-15.3312,10.0884c-3.0381,2.7031-5.7644,5.7339-8.4835,8.7576
		c-2.3353,2.5968-4.6769,5.2015-6.6829,8.0603c-4.3233,6.1612-6.9817,13.3644-8.64,20.7061
		c-1.6583,7.3417-2.3555,14.8615-3.0488,22.3562c0.5413,0.0219,0.9549-0.4609,1.2559-0.9113
		c3.5217-5.269,3.8104-11.9883,5.7981-18.0061c1.9388-5.8699,5.5902-11.1629,10.389-15.0598
		c3.5628-2.8932,7.6866-4.9954,11.592-7.4061s7.7042-5.2417,10.1378-9.1331c3.4944-5.5878,3.7197-12.6719,2.5023-19.1489"/>
</g>
<g>
	<path class="st5" d="M50.157,218.7854c-4.3592,7.123-9.6426,13.6796-15.676,19.4535c-1.5168,1.4515-3.1126,2.8753-5.018,3.7569
		c-1.3928,0.6444-2.9052,0.9774-4.3687,1.4394c-1.7933,0.5661-3.529,1.3337-5.1077,2.3557c-3.784,2.4495-6.478,6.2114-9.4233,9.6236
		s-6.4837,6.6873-10.9079,7.5501c2.0735-2.2299,4.1672-4.4873,5.6596-7.1415c1.2919-2.2977,2.0973-4.8301,3.1123-7.2629
		c3.1728-7.6051,8.4869-14.3033,15.171-19.1226c1.5493-1.1171,3.1735-2.137,4.8948-2.9649c1.6508-0.794,3.3814-1.4073,5.1081-2.0189
		c2.2732-0.8052,4.5464-1.6104,6.8196-2.4156c3.233-1.1452,6.471-2.2919,9.7917-3.15"/>
</g>
<g>
	<path class="st9" d="M73.5694,244.3875c-2.6041-0.2762-5.2083-0.5525-7.8124-0.8288c-4.5733-0.4852-9.1711-0.971-13.7624-0.7066
		c-9.0114,0.5189-17.8985,3.9152-26.8481,2.7406c-2.3454-0.3078-4.6551-0.9285-7.0193-1.0062
		c-5.055-0.1662-10.0436,2.2797-13.332,6.1226s-4.9229,8.9656-4.8967,14.0233c2.8382-3.3877,5.818-6.885,9.8494-8.696
		c5.0804-2.2822,10.9294-1.5144,16.4787-1.0415c3.6029,0.3071,7.2181,0.4703,10.8341,0.4893
		c1.9311,0.0102,3.879-0.0227,5.7632-0.4453c2.1197-0.4754,4.0957-1.4292,6.0762-2.3218
		c7.8714-3.5476,16.1299-6.2354,24.5814-8.0004"/>
</g>
<g>
	<path class="st4" d="M73.577,244.7362c-4.6721,4.4477-9.8488,10.4519-15.1598,14.1131c-1.5762,1.0865-3.2224,2.1088-5.0366,2.7198
		c-6.2465,2.1038-12.9994-0.984-19.589-0.8386c-5.2984,0.117-10.3631,2.3319-15.655,2.6177
		c-3.0813,0.1664-6.1585-0.326-9.2436-0.3913c-3.0851-0.0653-6.3207,0.3511-8.8531,2.1143
		c0.6051-2.2286,2.1603-5.4612,4.0637-6.7688c6.8801-4.7268,12.5002-6.2808,20.7929-7.2342
		c8.0813-0.9291,19.213,0.2435,26.7665-2.7758c1.8855-0.7537,3.6642-1.7785,5.605-2.3755c2.2477-0.6914,4.6293-0.7841,6.9793-0.8716
		C67.3692,244.9291,70.5298,244.0469,73.577,244.7362"/>
</g>
</svg>
