<svg id="Layer_1" xmlns="http://www.w3.org/2000/svg" viewBox="0 0 500 262">
  <style>
    .st1{fill:#212d50}.st2{font-family:&apos;FiraSans-Bold&apos;}.st3{font-size:18.1755px}.st4{fill:#6536ca}.st5{font-family:&apos;FiraSans-Regular&apos;}.st6{font-size:10.386px}.st8{fill:#a5cafa}.st9{fill:#faa76c}.st10{fill:#325ada}.st11{fill:#9b6fef}.st12{fill:#f09a82}.st13{fill:#6610ef}
  </style>
  <path fill="#eee" d="M-3-4h506v269H-3z"/>
  <text transform="translate(105.4946 131.7559)">
    <tspan x="0" y="0" class="st1 st2 st3">Diseñado</tspan><tspan x="77.7354" y="0" class="st1 st2 st3">r</tspan><tspan x="84.3877" y="0" class="st1 st2 st3">a g</tspan><tspan x="108.6699" y="0" class="st1 st2 st3">r</tspan><tspan x="115.3218" y="0" class="st1 st2 st3">áfi</tspan><tspan x="136.1689" y="0" class="st1 st2 st3">c</tspan><tspan x="144.6934" y="0" class="st1 st2 st3">a </tspan><tspan x="158.9609" y="0" class="st4 st2 st3">independien</tspan><tspan x="263.4321" y="0" class="st4 st2 st3">t</tspan><tspan x="270.1206" y="0" class="st4 st2 st3">e</tspan><tspan x="280.1533" y="0" class="st1 st2 st3">| </tspan><tspan x="-5.7886" y="21.8105" class="st1 st2 st3">c</tspan><tspan x="2.5542" y="21.8105" class="st1 st2 st3">on </tspan><tspan x="27.9634" y="21.8105" class="st1 st2 st3">ba</tspan><tspan x="48.4106" y="21.8105" class="st1 st2 st3">se en Buenos Ai</tspan><tspan x="178.0361" y="21.8105" class="st1 st2 st3">r</tspan><tspan x="184.7793" y="21.8105" class="st1 st2 st3">es, A</tspan><tspan x="222.9834" y="21.8105" class="st1 st2 st3">r</tspan><tspan x="230.0537" y="21.8105" class="st1 st2 st3">g</tspan><tspan x="239.6685" y="21.8105" class="st1 st2 st3">entina</tspan>
  </text>
  <text transform="translate(200.9844 102.7607)">
    <tspan x="0" y="0" class="st1 st5 st6">Ho</tspan><tspan x="14.374" y="0" class="st1 st5 st6">l</tspan><tspan x="17.9888" y="0" class="st1 st5 st6">a, s</tspan><tspan x="36.2261" y="0" class="st1 st5 st6">o</tspan><tspan x="42.873" y="0" class="st1 st5 st6">y Vic</tspan><tspan x="67.519" y="0" class="st1 st5 st6">t</tspan><tspan x="71.7358" y="0" class="st1 st5 st6">oria!</tspan>
  </text>
  <path fill="none" stroke="#949494" stroke-width=".2856" stroke-miterlimit="10" d="M62.8073 230.4803h376.6434"/>
  <path class="st8" d="M490.6494 118.8936c-1.5499.8047-3.5624.0874-4.6809-1.2538-1.1184-1.3412-1.5076-3.1445-1.6411-4.8858-.071-.9272-.0733-1.8948.3094-2.7423.8011-1.7746 3.1739-2.4529 5.0002-1.7778 1.8263.6751 3.1047 2.3896 3.7679 4.2202.3967 1.0951.611 2.2764.4521 3.4303-.1588 1.1539-.719 2.278-1.6512 2.9763M498.0291 108.0909c-.9998.1418-2.0253.1948-3.0142-.0097-.9889-.2045-1.9444-.6859-2.5818-1.4691-.5459-.6709-.8279-1.5158-1.0396-2.3545-.2393-.9479-.4013-1.9562-.1277-2.8948.4275-1.4666 1.932-2.4879 3.4591-2.5304 1.5271-.0425 3.0048.7976 3.9197 2.021.9149 1.2234 1.3044 2.7861 1.2868 4.3137-.0114.9872-.2063 2.0215-.8388 2.7796M475.2645 115.451c-1.3158.0543-2.6655-.4437-3.5578-1.4121-.8923-.9685-1.277-2.4085-.8912-3.6676.1786-.5828.5068-1.11.884-1.5889 1.5183-1.9278 4.0757-3.1527 6.4703-2.6162.6436.1442 1.269.4143 1.7621.8522.3718.3302.6595.7476.8776 1.1943.7917 1.6214.6198 3.671-.4309 5.1379-1.0508 1.4669-2.936 2.2892-4.726 2.0613M481.8062 102.8057c-1.4918.3472-3.1104.2319-4.4812-.4515s-2.4638-1.959-2.7993-3.4534c-.3356-1.4944.1468-3.1763 1.3104-4.1723.5883-.5036 1.317-.8215 2.0655-1.0203 1.8647-.4952 4.0202-.2125 5.4358 1.0983 1.1562 1.0707 1.692 2.7412 1.4719 4.3016-.2201 1.5604-1.1593 2.9849-2.4507 3.888M493.6577 80.3229c-1.3432.2857-2.7128.573-4.079.4345-1.3662-.1385-2.7537-.7745-3.4574-1.9538-.2852-.478-.4455-1.0193-.5767-1.5603-.1363-.562-.2448-1.141-.186-1.7164.1814-1.7735 1.8566-3.0012 3.4953-3.7031 1.7116-.7332 3.7454-1.1359 5.3929-.2682 1.463.7705 2.3204 2.4756 2.2503 4.1276-.0701 1.652-.9881 3.2068-2.288 4.2287M489.2596 89.6441c-1.5594 1.3751-3.7252 2.1573-5.76 1.731-2.0349-.4263-3.8039-2.2197-3.876-4.2975-.0148-.4252.0386-.8566.1942-1.2526.2414-.6144.7119-1.1087 1.202-1.5509 1.5058-1.3584 3.5089-2.4213 5.5005-2.0385 1.4555.2798 2.7286 1.3667 3.2333 2.7603.5046 1.3936.2226 3.0436-.7162 4.1905M503.1713 97.281c-1.6017.3159-3.3259-.0451-4.6663-.9771-.402-.2795-.7765-.6154-1.019-1.0407-.1782-.3126-.2791-.6622-.3781-1.0081-.3707-1.2951-.735-2.6969-.2701-3.9612.3518-.9566 1.1444-1.6978 2.0309-2.2006.5072-.2877 1.0704-.5127 1.6534-.5037.6598.0102 1.2753.3162 1.8549.6319.9416.5128 1.8918 1.1007 2.4738 2.0011.4307.6663.626 1.4534.8084 2.2255.2173.9198.4267 1.8753.2411 2.802-.1855.9268-.8757 1.8209-1.8139 1.9359"/>
  <path class="st9" d="M485.6186 107.1424c3.3032-7.6773 8.314-14.3614 11.3263-22.2082 3.3543-8.7377 6.202-17.6464 7.5332-26.9329.1825-1.2728-1.7656-1.8226-1.9499-.5375-1.2455 8.6879-3.8232 17.0025-6.8832 25.2088-3.111 8.3432-8.2829 15.3388-11.7725 23.4493-.5088 1.1826 1.2327 2.2138 1.7461 1.0205z"/>
  <path class="st10" d="M456.7337 26.0747c.9905-10.6567 8.0807-18.631 15.0325-26.1677 1.0281-1.1146-.6361-2.787-1.6682-1.6681-7.4301 8.0552-14.6689 16.4898-15.7235 27.8358-.1404 1.511 2.2196 1.5014 2.3592 0z"/>
  <path class="st10" d="M458.6764 5.6795c4.0387-2.1945 8.1991-4.0887 12.5126-5.679 1.4125-.5208.8018-2.8017-.6272-2.2748-4.5015 1.6597-8.8601 3.626-13.0761 5.9168-1.3344.7251-.1449 2.7628 1.1907 2.037z"/>
  <path class="st11" d="M455.1156 27.3921c-1.6753 2.3868-4.1729 4.0995-6.8377 5.2836-1.2846.5708-2.6637 1.0371-4.0665.9467-1.4028-.0904-2.8353-.8446-3.3883-2.137-.7076-1.6535.2572-3.6472 1.7402-4.6648 1.4829-1.0176 3.3439-1.2808 5.1346-1.4487 2.7303-.256 5.5758-.3394 8.1149.6963"/>
  <path class="st11" d="M456.0877 26.3637c1.6425 4.0487 1.9669 8.6201.9123 12.8601-.4911 1.9744-1.3415 3.9681-2.9561 5.2061-1.6146 1.2379-4.1443 1.4476-5.5927.0187-.7948-.7841-1.1541-1.9272-1.1997-3.0428-.0859-2.0997.8264-4.1043 1.8332-5.9489a50.3922 50.3922 0 0 1 5.9616-8.6389M458.1929 17.3226c-.4912 3.8338.4699 7.8361 2.6487 11.0288.684 1.0023 1.5007 1.9416 2.5397 2.5683 1.0391.6266 2.3272.9118 3.4903.5657 2.1186-.6304 3.1811-3.2017 2.7805-5.3755s-1.8965-3.978-3.4971-5.5026a31.7316 31.7316 0 0 0-6.4607-4.7522M462.1335 10.7158c1.7209 3.6242 4.581 6.6973 8.0726 8.6735.5088.288 1.0482.5585 1.631.6045 1.0342.0816 1.9758-.5459 2.8224-1.1455.4774-.3381.9691-.6915 1.2657-1.1957.4138-.7035.3745-1.6071.0616-2.361s-.8682-1.3808-1.4586-1.9443c-2.9373-2.8031-7.031-4.3557-11.0885-4.2055M458.3404 6.2968c-.7377 2.3998-2.1056 4.6701-4.1577 6.1163s-4.8392 1.957-7.1431.9596c-.3527-.1527-.7027-.3477-.9308-.657-.2889-.3919-.3401-.9052-.3702-1.3912-.0451-.7289-.0631-1.4761.158-2.1721.3373-1.0617 1.2044-1.8899 2.184-2.4203s2.0751-.801 3.1569-1.0664l4.3472-1.0666c.8936-.2192 1.8549-.4351 2.713-.1031"/>
  <path class="st11" d="M457.2392 5.3478c-3.8033.9197-7.904.5615-11.4903-1.0037-.7424-.324-1.5125-.7469-1.8609-1.4783-.3243-.6809-.2121-1.4831-.0445-2.2184.1899-.8331.4554-1.6772 1.0057-2.3308.7096-.8427 1.8291-1.2685 2.9299-1.3124 1.1008-.0439 2.1891.2589 3.2102.6726 3.297 1.3357 6.0828 3.8928 7.6953 7.0636"/>
  <path class="st12" d="M451.3197 41.5959c1.2029.3521 2.4596-.1708 3.0478-1.2827.5161-.9758.8497-2.5793.14-3.5179-.8294-1.0969-2.3578-.9623-3.3218-.1432-.4343.369-.7839.8813-.9383 1.4337a2.5162 2.5162 0 0 0-.079.9275c.0144.1463.0385.2897.0758.4313.1323.5024-.0245.0137.2414-.2034-.4938.4032-.4186 1.2496 0 1.6681.4883.4883 1.1731.4042 1.6681 0 .4766-.3892.6201-1.0559.4987-1.6398-.0255-.1226-.1374-.5962-.1569-.4669.0353-.2342.2299-.2586.3169-.4397.0401-.0834.0475.0098.0485-.0252.0005-.0169-.3055-.256-.3072-.2545-.0768.0661-.094.5783-.1235.6974-.0418.1683-.0828.3965-.2121.5249-.1338.1328-.1197.0599-.2712.0156-1.46-.4273-2.0835 1.8486-.6272 2.2748zM445.1222 30.8089c1.0449.566 2.2632.6617 3.3715.2157 1.0988-.4422 2.1351-1.4364 2.0743-2.7073-.0733-1.5336-1.6691-1.8491-2.8866-1.5568-1.1974.2875-2.2509 1.0764-2.5896 2.2919-.4081 1.4648 1.8673 2.0899 2.2748.6271.1004-.3603.952-.8892 1.2672-.6605l-.4232-.4232c-.1158-.1608.1353-.1952-.0311-.1422-.0608.0193-.1384.1451-.1874.1852-.1543.1261-.3429.2021-.5309.2559-.3947.113-.7886.072-1.1485-.123-1.3349-.723-2.5273 1.3131-1.1905 2.0372zM451.0811 11.5321c1.1623-.0362 2.3999-.7542 2.4492-2.0374.0481-1.251-1.0967-2.3157-2.347-1.9346-1.1146.3398-2.2583 1.4344-2.232 2.6603.0296 1.3776 1.5467 2.4319 2.7909 1.631.5351-.3445.7546-1.0472.4232-1.6139-.3116-.5327-1.076-.7694-1.6139-.4232.2603-.1676.6712.0406.7465.3209.149.5544-.0154.1353-.0236.1314-.0205-.01.6298-.5279.6134-.4594-.0844.3533-.6686-.2118-.6938-.2916-.0305-.0965.0019-.1626.008-.2568.0027-.0422.0717-.1026.0727-.1177.0618-.0211.0253-.0112-.1096.0296.0928-.0034.0648-.0026-.0841.0023-1.5144.0472-1.521 2.4065.0001 2.3591zM448.2694 3.1049c1.036.8207 2.5225 1.2538 3.5912.2109.4489-.4381.6999-1.0421.6554-1.6687-.0523-.736-.5237-1.2466-1.0966-1.6532-.9948-.7061-2.5561-1.6636-3.6389-.6106-1.1266 1.0956-.4562 2.5953.5424 3.4682.4794.419 1.1964.4717 1.6682 0 .4278-.4278.4816-1.2471 0-1.6681-.0902-.0789-.3471-.4115-.4467-.4348a11.4873 11.4873 0 0 0-.0229-.0512c.085.3528-.1349.5356-.6596.5484.0643.0803.3612.1774.4425.2206.2075.1101.41.2288.6083.3545.0069.0044.3947.2541.3745.2731-.0785.074-.1075-.6071-.0408-.4967-.0096-.0159-.2363-.1029-.309-.1605-.4989-.3952-1.1811-.487-1.6681 0-.4102.4102-.502 1.2704.0001 1.6681zM465.2029 27.0682c2.2992-1.1159.7091-5.1906-1.5546-5.2345-1.305-.0253-2.1977 1.0866-2.0202 2.3492.1658 1.1792 1.0388 2.13 1.9718 2.7966.5186.3706 1.313.0911 1.6139-.4232.3467-.5928.0967-1.2424-.4232-1.6139-.2686-.1919-.5114-.4479-.677-.7348.0167.0289-.2154-.3583-.1629-.3425.2995.0901-.3903.3549-.3873.3202.0023-.0269.1734.2615.2099.3485.0417.0993.1047.543.1753.5839a.6356.6356 0 0 1 .0005.0662c.0778-.0489.0988-.0998.0631-.1526-.573.2781-.7271 1.0943-.4232 1.6139.3423.585 1.0387.7021 1.6139.423zM469.0225 16.5686c1.1507.6835 2.991.1696 3.4418-1.159.4683-1.3799-.5861-2.6643-1.8316-3.1292-1.0976-.4097-2.8502-.2494-3.4083.9364-.6482 1.3773.948 2.8017 1.9833 3.4459 1.2928.8043 2.4785-1.2358 1.1907-2.037-.2262-.1408-.4155-.2841-.6035-.4747-.0758-.0769-.1438-.1811-.2262-.249-.2216-.1826.0008-.3349-.1288.0829l-.3033.5205c.1832-.1986.7097-.0445.8971.0828.178.121.2268.2837.2908-.061.0504-.2716.1396.0476-.0894-.0173-.0196-.0056.0068.0389-.0219.0219-1.3084-.7773-2.4963 1.2613-1.1907 2.0368z"/>
  <g>
    <path class="st11" d="M501.9229-1.7939c3.4142 12.0677 4.4662 25.4985-1.0434 36.7647-5.3655 10.9715-16.5605 19.1959-18.5017 31.2538-.5024-3.2523-3.3913-5.5896-4.6359-8.636-1.0029-2.4548-.8763-5.2102-.623-7.8498.9081-9.4646 3.3649-19.0463 9.0204-26.6895 2.9479-3.9839 6.6728-7.322 9.8791-11.101 3.2063-3.7791 5.9666-8.2183 6.3986-13.1555"/>
    <path class="st8" d="M459.9809 48.707c1.6253-4.7412 2.7571-9.6362 4.2337-14.4259 2.8204-9.1487 7.0334-18.0914 13.8065-24.8574S494.4287-1.686 503.9263-.482c-2.8644 5.5168-5.7372 11.0476-9.2144 16.2003-9.4218 13.9617-22.8853 24.6085-36.126 35.0191"/>
  </g>
  <g>
    <path class="st8" d="M454.7222 63.8387c4.0386-2.6623 7.7287-5.8415 11.0896-9.3124 3.3625-3.4753 6.3123-7.3306 8.8803-11.3946 2.5934-4.0511 4.8091-8.3041 6.8579-12.6156 2.0317-4.3316 3.8273-8.7292 5.8882-13.1742a.7462.7462 0 0 1 .9895-.3666c.2944.1353.4583.442.4315.7473-.4639 4.9795-2.0532 9.7734-4.1783 14.2679-2.108 4.515-4.8203 8.7245-7.841 12.6524-3.0462 3.915-6.3973 7.5561-9.9389 10.9743-3.5428 3.4224-7.3611 6.5334-11.3405 9.4305-.3284.2393-.7886.1671-1.0279-.1614a.7357.7357 0 0 1 .1896-1.0476z"/>
  </g>
  <g>
    <path class="st13" d="M444.6283 75.5672c-1.8614 1.4503-5.0503.4613-5.7645-1.7877-.1152-.363-.1777-.7519-.3872-1.0699-.2372-.3602-.63-.5805-.9615-.8565-1.4931-1.2431-1.5081-3.8591-.0294-5.1192.6498-.5537 1.5868-.9772 1.6895-1.8247.0759-.6263-.3605-1.1809-.6795-1.7253a5.217 5.217 0 0 1-.7116-2.5597c-.0143-1.159.6754-2.5462 1.8335-2.501.469.0183.9483.277 1.386.1074.4975-.1927.6445-.8121.9715-1.2336.5303-.6837 1.558-.8034 2.3731-.5131.8151.2903 1.4677.9023 2.0949 1.4983 1.3394-2.1107 4.2852-3.4073 6.43-2.123.5164.3092.9499.7407 1.4587 1.0622.9133.5771 2.0417.7832 2.8825 1.4616 1.3172 1.0627 1.5104 3.2533.3996 4.5302 1.0281.6413 2.0702 1.3486 2.6943 2.3873s.709 2.4986-.1187 3.3835c-.212.2267-.486.4279-.5572.73-.0634.2693.0536.5434.1077.8148.223 1.1185-.6426 2.1704-1.5953 2.7974-.9528.6269-2.069 1.0437-2.8398 1.8844-.6944.7573-1.0286 1.7755-1.6311 2.6077-.6025.8322-1.7071 1.4922-2.6347 1.0504-.2767-.1318-.5467-.3589-.848-.3025-.3258.0609-.4934.4154-.743.6335-.5889.5146-1.498.2005-2.204-.1358-.7064-.3364-1.4293-.6846-1.9713-1.2488-.542-.5642-.8727-1.3999-.6283-2.1431"/>
    <path class="st8" d="M445.8101 68.4218c.3146 1.5982 2.0496 2.8053 3.6372 2.441 1.5876-.3642 2.6213-2.3258 1.9332-3.8022-.2471-.5301-.6626-.96-1.0707-1.379-.4327-.4444-.9037-.9104-1.5114-1.034-.7201-.1465-1.469.2464-1.9275.8206s-.6757 1.3019-.8323 2.0199"/>
  </g>
  <g>
    <path class="st11" d="M8.5322 187.132l2.5424 9.1256c.529 1.8988 1.0626 3.8343.9935 5.8042-.1163 3.3143-1.9291 6.4449-1.7442 9.756.1507 2.6996 1.6039 5.1238 2.5509 7.6563 1.1196 2.9939 1.5415 6.1956 1.9556 9.365.2066 1.5811.4132 3.1853.1907 4.7643-.1888 1.3401-.6808 2.6164-1.1845 3.8725A165.4341 165.4341 0 0 1-.1053 264.6614c4.249-11.1471 2.5088-23.6789-.7324-35.1596-.6701-2.3734-1.4076-4.7682-1.4329-7.2343-.0198-1.9326.3999-3.8411.8688-5.716a105.5909 105.5909 0 0 1 4.6688-14.2681c1.0374-2.5424 2.1758-5.0493 3.0058-7.6667a34.5893 34.5893 0 0 0 1.6081-11.1062"/>
  </g>
  <g>
    <path class="st12" d="M7.9635 183.1842c-3.2503 3.2197-5.3462 7.4042-8.1705 11.0034-3.55 4.5239-8.2757 8.1574-11.053 13.1928-4.1047 7.442-3.2046 16.8026.1104 24.6283 1.7838 4.2108 4.2052 8.1232 6.0861 12.2915 3.0012 6.6511 4.5926 13.9343 4.6392 21.2311 2.1833-1.1001 3.0485-3.7191 3.6628-6.0854 2.0016-7.711 3.5411-15.799 1.9572-23.6065-1.1109-5.4762-3.7297-10.6362-4.1497-16.2081-.4635-6.1499 1.7886-12.1369 3.853-17.9484s4.0014-11.9837 2.8953-18.0511"/>
  </g>
  <g>
    <path class="st8" d="M41.8604 193.0812c-5.499 2.7222-10.7471 6.0097-15.3312 10.0884-3.0381 2.7031-5.7644 5.7339-8.4835 8.7576-2.3353 2.5968-4.6769 5.2015-6.6829 8.0603-4.3233 6.1612-6.9817 13.3644-8.64 20.7061-1.6583 7.3417-2.3555 14.8615-3.0488 22.3562.5413.0219.9549-.4609 1.2559-.9113 3.5217-5.269 3.8104-11.9883 5.7981-18.0061 1.9388-5.8699 5.5902-11.1629 10.389-15.0598 3.5628-2.8932 7.6866-4.9954 11.592-7.4061s7.7042-5.2417 10.1378-9.1331c3.4944-5.5878 3.7197-12.6719 2.5023-19.1489"/>
  </g>
  <g>
    <path class="st9" d="M50.157 218.7854a97.1692 97.1692 0 0 1-15.676 19.4535c-1.5168 1.4515-3.1126 2.8753-5.018 3.7569-1.3928.6444-2.9052.9774-4.3687 1.4394-1.7933.5661-3.529 1.3337-5.1077 2.3557-3.784 2.4495-6.478 6.2114-9.4233 9.6236s-6.4837 6.6873-10.9079 7.5501c2.0735-2.2299 4.1672-4.4873 5.6596-7.1415 1.2919-2.2977 2.0973-4.8301 3.1123-7.2629 3.1728-7.6051 8.4869-14.3033 15.171-19.1226 1.5493-1.1171 3.1735-2.137 4.8948-2.9649 1.6508-.794 3.3814-1.4073 5.1081-2.0189l6.8196-2.4156c3.233-1.1452 6.471-2.2919 9.7917-3.15"/>
  </g>
  <g>
    <path class="st13" d="M73.5694 244.3875l-7.8124-.8288c-4.5733-.4852-9.1711-.971-13.7624-.7066-9.0114.5189-17.8985 3.9152-26.8481 2.7406-2.3454-.3078-4.6551-.9285-7.0193-1.0062-5.055-.1662-10.0436 2.2797-13.332 6.1226s-4.9229 8.9656-4.8967 14.0233c2.8382-3.3877 5.818-6.885 9.8494-8.696 5.0804-2.2822 10.9294-1.5144 16.4787-1.0415 3.6029.3071 7.2181.4703 10.8341.4893 1.9311.0102 3.879-.0227 5.7632-.4453 2.1197-.4754 4.0957-1.4292 6.0762-2.3218a119.1762 119.1762 0 0 1 24.5814-8.0004"/>
  </g>
  <g>
    <path class="st8" d="M73.577 244.7362c-4.6721 4.4477-9.8488 10.4519-15.1598 14.1131-1.5762 1.0865-3.2224 2.1088-5.0366 2.7198-6.2465 2.1038-12.9994-.984-19.589-.8386-5.2984.117-10.3631 2.3319-15.655 2.6177-3.0813.1664-6.1585-.326-9.2436-.3913-3.0851-.0653-6.3207.3511-8.8531 2.1143.6051-2.2286 2.1603-5.4612 4.0637-6.7688 6.8801-4.7268 12.5002-6.2808 20.7929-7.2342 8.0813-.9291 19.213.2435 26.7665-2.7758 1.8855-.7537 3.6642-1.7785 5.605-2.3755 2.2477-.6914 4.6293-.7841 6.9793-.8716 3.1219-.1162 6.2825-.9984 9.3297-.3091"/>
  </g>
</svg>
