<?xml version="1.0" encoding="utf-8"?>
<!-- Generator: Adobe Illustrator 23.0.1, SVG Export Plug-In . SVG Version: 6.00 Build 0)  -->
<svg version="1.1" id="Layer_1" xmlns="http://www.w3.org/2000/svg" xmlns:xlink="http://www.w3.org/1999/xlink" x="0px" y="0px"
	 viewBox="0 0 500 262" style="enable-background:new 0 0 500 262;" xml:space="preserve">
<style type="text/css">
	.st0{fill:#EEEEEE;}
	.st1{fill:#212D50;}
	.st2{font-family:'FiraSans-Bold';}
	.st3{font-size:18.1755px;}
	.st4{fill:#6536CA;}
	.st5{font-family:'FiraSans-Regular';}
	.st6{font-size:10.386px;}
	.st7{fill:none;stroke:#949494;stroke-width:0.2856;stroke-miterlimit:10;}
	.st8{fill:#A5CAFA;}
	.st9{fill:#FAA76C;}
	.st10{fill:#325ADA;}
	.st11{fill:#9B6FEF;}
	.st12{fill:#F09A82;}
	.st13{fill:#6610EF;}
</style>
<rect x="-3" y="-4" class="st0" width="506" height="269"/>
<g>
	<g>
		<text transform="matrix(1 0 0 1 105.4946 131.7559)"><tspan x="0" y="0" class="st1 st2 st3">Diseñado</tspan><tspan x="77.7354" y="0" class="st1 st2 st3">r</tspan><tspan x="84.3877" y="0" class="st1 st2 st3">a g</tspan><tspan x="108.6699" y="0" class="st1 st2 st3">r</tspan><tspan x="115.3218" y="0" class="st1 st2 st3">áfi</tspan><tspan x="136.1689" y="0" class="st1 st2 st3">c</tspan><tspan x="144.6934" y="0" class="st1 st2 st3">a </tspan><tspan x="158.9609" y="0" class="st4 st2 st3">independien</tspan><tspan x="263.4321" y="0" class="st4 st2 st3">t</tspan><tspan x="270.1206" y="0" class="st4 st2 st3">e</tspan><tspan x="280.1533" y="0" class="st1 st2 st3">| </tspan><tspan x="-5.7886" y="21.8105" class="st1 st2 st3">c</tspan><tspan x="2.5542" y="21.8105" class="st1 st2 st3">on </tspan><tspan x="27.9634" y="21.8105" class="st1 st2 st3">ba</tspan><tspan x="48.4106" y="21.8105" class="st1 st2 st3">se en Buenos Ai</tspan><tspan x="178.0361" y="21.8105" class="st1 st2 st3">r</tspan><tspan x="184.7793" y="21.8105" class="st1 st2 st3">es, A</tspan><tspan x="222.9834" y="21.8105" class="st1 st2 st3">r</tspan><tspan x="230.0537" y="21.8105" class="st1 st2 st3">g</tspan><tspan x="239.6685" y="21.8105" class="st1 st2 st3">entina</tspan></text>
		<text transform="matrix(1 0 0 1 200.9844 102.7607)"><tspan x="0" y="0" class="st1 st5 st6">Ho</tspan><tspan x="14.374" y="0" class="st1 st5 st6">l</tspan><tspan x="17.9888" y="0" class="st1 st5 st6">a, s</tspan><tspan x="36.2261" y="0" class="st1 st5 st6">o</tspan><tspan x="42.873" y="0" class="st1 st5 st6">y Vic</tspan><tspan x="67.519" y="0" class="st1 st5 st6">t</tspan><tspan x="71.7358" y="0" class="st1 st5 st6">oria!</tspan></text>
	</g>
</g>
<line class="st7" x1="62.8073" y1="230.4803" x2="439.4507" y2="230.4803"/>
<g>
	<g>
		<path class="st8" d="M490.6494,118.8936c-1.5499,0.8047-3.5624,0.0874-4.6809-1.2538c-1.1184-1.3412-1.5076-3.1445-1.6411-4.8858
			c-0.071-0.9272-0.0733-1.8948,0.3094-2.7423c0.8011-1.7746,3.1739-2.4529,5.0002-1.7778
			c1.8263,0.6751,3.1047,2.3896,3.7679,4.2202c0.3967,1.0951,0.611,2.2764,0.4521,3.4303c-0.1588,1.1539-0.719,2.278-1.6512,2.9763"
			/>
	</g>
	<g>
		<path class="st8" d="M498.0291,108.0909c-0.9998,0.1418-2.0253,0.1948-3.0142-0.0097c-0.9889-0.2045-1.9444-0.6859-2.5818-1.4691
			c-0.5459-0.6709-0.8279-1.5158-1.0396-2.3545c-0.2393-0.9479-0.4013-1.9562-0.1277-2.8948
			c0.4275-1.4666,1.932-2.4879,3.4591-2.5304c1.5271-0.0425,3.0048,0.7976,3.9197,2.021c0.9149,1.2234,1.3044,2.7861,1.2868,4.3137
			c-0.0114,0.9872-0.2063,2.0215-0.8388,2.7796"/>
	</g>
	<g>
		<path class="st8" d="M475.2645,115.451c-1.3158,0.0543-2.6655-0.4437-3.5578-1.4121c-0.8923-0.9685-1.277-2.4085-0.8912-3.6676
			c0.1786-0.5828,0.5068-1.11,0.884-1.5889c1.5183-1.9278,4.0757-3.1527,6.4703-2.6162c0.6436,0.1442,1.269,0.4143,1.7621,0.8522
			c0.3718,0.3302,0.6595,0.7476,0.8776,1.1943c0.7917,1.6214,0.6198,3.671-0.4309,5.1379c-1.0508,1.4669-2.936,2.2892-4.726,2.0613"
			/>
	</g>
	<g>
		<path class="st8" d="M481.8062,102.8057c-1.4918,0.3472-3.1104,0.2319-4.4812-0.4515s-2.4638-1.959-2.7993-3.4534
			c-0.3356-1.4944,0.1468-3.1763,1.3104-4.1723c0.5883-0.5036,1.317-0.8215,2.0655-1.0203
			c1.8647-0.4952,4.0202-0.2125,5.4358,1.0983c1.1562,1.0707,1.692,2.7412,1.4719,4.3016c-0.2201,1.5604-1.1593,2.9849-2.4507,3.888
			"/>
	</g>
	<g>
		<path class="st8" d="M493.6577,80.3229c-1.3432,0.2857-2.7128,0.573-4.079,0.4345c-1.3662-0.1385-2.7537-0.7745-3.4574-1.9538
			c-0.2852-0.478-0.4455-1.0193-0.5767-1.5603c-0.1363-0.562-0.2448-1.141-0.186-1.7164c0.1814-1.7735,1.8566-3.0012,3.4953-3.7031
			c1.7116-0.7332,3.7454-1.1359,5.3929-0.2682c1.463,0.7705,2.3204,2.4756,2.2503,4.1276c-0.0701,1.652-0.9881,3.2068-2.288,4.2287"
			/>
	</g>
	<g>
		<path class="st8" d="M489.2596,89.6441c-1.5594,1.3751-3.7252,2.1573-5.76,1.731c-2.0349-0.4263-3.8039-2.2197-3.876-4.2975
			c-0.0148-0.4252,0.0386-0.8566,0.1942-1.2526c0.2414-0.6144,0.7119-1.1087,1.202-1.5509
			c1.5058-1.3584,3.5089-2.4213,5.5005-2.0385c1.4555,0.2798,2.7286,1.3667,3.2333,2.7603
			c0.5046,1.3936,0.2226,3.0436-0.7162,4.1905"/>
	</g>
	<g>
		<path class="st8" d="M503.1713,97.281c-1.6017,0.3159-3.3259-0.0451-4.6663-0.9771c-0.402-0.2795-0.7765-0.6154-1.019-1.0407
			c-0.1782-0.3126-0.2791-0.6622-0.3781-1.0081c-0.3707-1.2951-0.735-2.6969-0.2701-3.9612
			c0.3518-0.9566,1.1444-1.6978,2.0309-2.2006c0.5072-0.2877,1.0704-0.5127,1.6534-0.5037
			c0.6598,0.0102,1.2753,0.3162,1.8549,0.6319c0.9416,0.5128,1.8918,1.1007,2.4738,2.0011c0.4307,0.6663,0.626,1.4534,0.8084,2.2255
			c0.2173,0.9198,0.4267,1.8753,0.2411,2.802c-0.1855,0.9268-0.8757,1.8209-1.8139,1.9359"/>
	</g>
	<g>
		<g>
			<path class="st9" d="M485.6186,107.1424c3.3032-7.6773,8.314-14.3614,11.3263-22.2082
				c3.3543-8.7377,6.202-17.6464,7.5332-26.9329c0.1825-1.2728-1.7656-1.8226-1.9499-0.5375
				c-1.2455,8.6879-3.8232,17.0025-6.8832,25.2088c-3.111,8.3432-8.2829,15.3388-11.7725,23.4493
				C483.3637,107.3045,485.1052,108.3357,485.6186,107.1424L485.6186,107.1424z"/>
		</g>
	</g>
</g>
<g>
	<g>
		<g>
			<path class="st10" d="M456.7337,26.0747c0.9905-10.6567,8.0807-18.631,15.0325-26.1677c1.0281-1.1146-0.6361-2.787-1.6682-1.6681
				c-7.4301,8.0552-14.6689,16.4898-15.7235,27.8358C454.2341,27.5857,456.5941,27.5761,456.7337,26.0747L456.7337,26.0747z"/>
		</g>
	</g>
	<g>
		<g>
			<path class="st10" d="M458.6764,5.6795c4.0387-2.1945,8.1991-4.0887,12.5126-5.679c1.4125-0.5208,0.8018-2.8017-0.6272-2.2748
				c-4.5015,1.6597-8.8601,3.626-13.0761,5.9168C456.1513,4.3676,457.3408,6.4053,458.6764,5.6795L458.6764,5.6795z"/>
		</g>
	</g>
	<g>
		<path class="st11" d="M455.1156,27.3921c-1.6753,2.3868-4.1729,4.0995-6.8377,5.2836c-1.2846,0.5708-2.6637,1.0371-4.0665,0.9467
			c-1.4028-0.0904-2.8353-0.8446-3.3883-2.137c-0.7076-1.6535,0.2572-3.6472,1.7402-4.6648
			c1.4829-1.0176,3.3439-1.2808,5.1346-1.4487c2.7303-0.256,5.5758-0.3394,8.1149,0.6963"/>
	</g>
	<g>
		<path class="st11" d="M456.0877,26.3637c1.6425,4.0487,1.9669,8.6201,0.9123,12.8601c-0.4911,1.9744-1.3415,3.9681-2.9561,5.2061
			c-1.6146,1.2379-4.1443,1.4476-5.5927,0.0187c-0.7948-0.7841-1.1541-1.9272-1.1997-3.0428
			c-0.0859-2.0997,0.8264-4.1043,1.8332-5.9489c1.6793-3.0767,3.6809-5.9773,5.9616-8.6389"/>
	</g>
	<g>
		<path class="st11" d="M458.1929,17.3226c-0.4912,3.8338,0.4699,7.8361,2.6487,11.0288c0.684,1.0023,1.5007,1.9416,2.5397,2.5683
			c1.0391,0.6266,2.3272,0.9118,3.4903,0.5657c2.1186-0.6304,3.1811-3.2017,2.7805-5.3755s-1.8965-3.978-3.4971-5.5026
			c-1.941-1.8488-4.1177-3.4499-6.4607-4.7522"/>
	</g>
	<g>
		<path class="st11" d="M462.1335,10.7158c1.7209,3.6242,4.581,6.6973,8.0726,8.6735c0.5088,0.288,1.0482,0.5585,1.631,0.6045
			c1.0342,0.0816,1.9758-0.5459,2.8224-1.1455c0.4774-0.3381,0.9691-0.6915,1.2657-1.1957c0.4138-0.7035,0.3745-1.6071,0.0616-2.361
			s-0.8682-1.3808-1.4586-1.9443c-2.9373-2.8031-7.031-4.3557-11.0885-4.2055"/>
	</g>
	<g>
		<path class="st11" d="M458.3404,6.2968c-0.7377,2.3998-2.1056,4.6701-4.1577,6.1163s-4.8392,1.957-7.1431,0.9596
			c-0.3527-0.1527-0.7027-0.3477-0.9308-0.657c-0.2889-0.3919-0.3401-0.9052-0.3702-1.3912
			c-0.0451-0.7289-0.0631-1.4761,0.158-2.1721c0.3373-1.0617,1.2044-1.8899,2.184-2.4203s2.0751-0.801,3.1569-1.0664
			c1.4491-0.3555,2.8981-0.7111,4.3472-1.0666c0.8936-0.2192,1.8549-0.4351,2.713-0.1031"/>
	</g>
	<g>
		<path class="st11" d="M457.2392,5.3478c-3.8033,0.9197-7.904,0.5615-11.4903-1.0037c-0.7424-0.324-1.5125-0.7469-1.8609-1.4783
			c-0.3243-0.6809-0.2121-1.4831-0.0445-2.2184c0.1899-0.8331,0.4554-1.6772,1.0057-2.3308
			c0.7096-0.8427,1.8291-1.2685,2.9299-1.3124c1.1008-0.0439,2.1891,0.2589,3.2102,0.6726c3.297,1.3357,6.0828,3.8928,7.6953,7.0636
			"/>
	</g>
	<g>
		<g>
			<path class="st12" d="M451.3197,41.5959c1.2029,0.3521,2.4596-0.1708,3.0478-1.2827c0.5161-0.9758,0.8497-2.5793,0.14-3.5179
				c-0.8294-1.0969-2.3578-0.9623-3.3218-0.1432c-0.4343,0.369-0.7839,0.8813-0.9383,1.4337
				c-0.0848,0.3036-0.1097,0.6156-0.079,0.9275c0.0144,0.1463,0.0385,0.2897,0.0758,0.4313
				c0.1323,0.5024-0.0245,0.0137,0.2414-0.2034c-0.4938,0.4032-0.4186,1.2496,0,1.6681c0.4883,0.4883,1.1731,0.4042,1.6681,0
				c0.4766-0.3892,0.6201-1.0559,0.4987-1.6398c-0.0255-0.1226-0.1374-0.5962-0.1569-0.4669
				c0.0353-0.2342,0.2299-0.2586,0.3169-0.4397c0.0401-0.0834,0.0475,0.0098,0.0485-0.0252
				c0.0005-0.0169-0.3055-0.256-0.3072-0.2545c-0.0768,0.0661-0.094,0.5783-0.1235,0.6974
				c-0.0418,0.1683-0.0828,0.3965-0.2121,0.5249c-0.1338,0.1328-0.1197,0.0599-0.2712,0.0156
				C450.4869,38.8938,449.8634,41.1697,451.3197,41.5959L451.3197,41.5959z"/>
		</g>
	</g>
	<g>
		<g>
			<path class="st12" d="M445.1222,30.8089c1.0449,0.566,2.2632,0.6617,3.3715,0.2157c1.0988-0.4422,2.1351-1.4364,2.0743-2.7073
				c-0.0733-1.5336-1.6691-1.8491-2.8866-1.5568c-1.1974,0.2875-2.2509,1.0764-2.5896,2.2919
				c-0.4081,1.4648,1.8673,2.0899,2.2748,0.6271c0.1004-0.3603,0.952-0.8892,1.2672-0.6605
				c-0.1411-0.1411-0.2821-0.2821-0.4232-0.4232c-0.1158-0.1608,0.1353-0.1952-0.0311-0.1422
				c-0.0608,0.0193-0.1384,0.1451-0.1874,0.1852c-0.1543,0.1261-0.3429,0.2021-0.5309,0.2559
				c-0.3947,0.113-0.7886,0.072-1.1485-0.123C444.9778,28.0487,443.7854,30.0848,445.1222,30.8089L445.1222,30.8089z"/>
		</g>
	</g>
	<g>
		<g>
			<path class="st12" d="M451.0811,11.5321c1.1623-0.0362,2.3999-0.7542,2.4492-2.0374c0.0481-1.251-1.0967-2.3157-2.347-1.9346
				c-1.1146,0.3398-2.2583,1.4344-2.232,2.6603c0.0296,1.3776,1.5467,2.4319,2.7909,1.631
				c0.5351-0.3445,0.7546-1.0472,0.4232-1.6139c-0.3116-0.5327-1.076-0.7694-1.6139-0.4232
				c0.2603-0.1676,0.6712,0.0406,0.7465,0.3209c0.149,0.5544-0.0154,0.1353-0.0236,0.1314c-0.0205-0.01,0.6298-0.5279,0.6134-0.4594
				c-0.0844,0.3533-0.6686-0.2118-0.6938-0.2916c-0.0305-0.0965,0.0019-0.1626,0.008-0.2568
				c0.0027-0.0422,0.0717-0.1026,0.0727-0.1177c0.0618-0.0211,0.0253-0.0112-0.1096,0.0296
				c0.0928-0.0034,0.0648-0.0026-0.0841,0.0023C449.5666,9.2202,449.56,11.5795,451.0811,11.5321L451.0811,11.5321z"/>
		</g>
	</g>
	<g>
		<g>
			<path class="st12" d="M448.2694,3.1049c1.036,0.8207,2.5225,1.2538,3.5912,0.2109c0.4489-0.4381,0.6999-1.0421,0.6554-1.6687
				c-0.0523-0.736-0.5237-1.2466-1.0966-1.6532c-0.9948-0.7061-2.5561-1.6636-3.6389-0.6106
				c-1.1266,1.0956-0.4562,2.5953,0.5424,3.4682c0.4794,0.419,1.1964,0.4717,1.6682,0c0.4278-0.4278,0.4816-1.2471,0-1.6681
				c-0.0902-0.0789-0.3471-0.4115-0.4467-0.4348c-0.0076-0.0171-0.0152-0.0341-0.0229-0.0512
				c0.085,0.3528-0.1349,0.5356-0.6596,0.5484c0.0643,0.0803,0.3612,0.1774,0.4425,0.2206c0.2075,0.1101,0.41,0.2288,0.6083,0.3545
				c0.0069,0.0044,0.3947,0.2541,0.3745,0.2731c-0.0785,0.074-0.1075-0.6071-0.0408-0.4967
				c-0.0096-0.0159-0.2363-0.1029-0.309-0.1605c-0.4989-0.3952-1.1811-0.487-1.6681,0
				C447.8591,1.847,447.7673,2.7072,448.2694,3.1049L448.2694,3.1049z"/>
		</g>
	</g>
	<g>
		<g>
			<path class="st12" d="M465.2029,27.0682c2.2992-1.1159,0.7091-5.1906-1.5546-5.2345c-1.305-0.0253-2.1977,1.0866-2.0202,2.3492
				c0.1658,1.1792,1.0388,2.13,1.9718,2.7966c0.5186,0.3706,1.313,0.0911,1.6139-0.4232c0.3467-0.5928,0.0967-1.2424-0.4232-1.6139
				c-0.2686-0.1919-0.5114-0.4479-0.677-0.7348c0.0167,0.0289-0.2154-0.3583-0.1629-0.3425
				c0.2995,0.0901-0.3903,0.3549-0.3873,0.3202c0.0023-0.0269,0.1734,0.2615,0.2099,0.3485
				c0.0417,0.0993,0.1047,0.543,0.1753,0.5839c0.0013,0.0221,0.0015,0.0441,0.0005,0.0662
				c0.0778-0.0489,0.0988-0.0998,0.0631-0.1526c-0.573,0.2781-0.7271,1.0943-0.4232,1.6139
				C463.9313,27.2302,464.6277,27.3473,465.2029,27.0682L465.2029,27.0682z"/>
		</g>
	</g>
	<g>
		<g>
			<path class="st12" d="M469.0225,16.5686c1.1507,0.6835,2.991,0.1696,3.4418-1.159c0.4683-1.3799-0.5861-2.6643-1.8316-3.1292
				c-1.0976-0.4097-2.8502-0.2494-3.4083,0.9364c-0.6482,1.3773,0.948,2.8017,1.9833,3.4459
				c1.2928,0.8043,2.4785-1.2358,1.1907-2.037c-0.2262-0.1408-0.4155-0.2841-0.6035-0.4747
				c-0.0758-0.0769-0.1438-0.1811-0.2262-0.249c-0.2216-0.1826,0.0008-0.3349-0.1288,0.0829
				c-0.1011,0.1735-0.2022,0.347-0.3033,0.5205c0.1832-0.1986,0.7097-0.0445,0.8971,0.0828c0.178,0.121,0.2268,0.2837,0.2908-0.061
				c0.0504-0.2716,0.1396,0.0476-0.0894-0.0173c-0.0196-0.0056,0.0068,0.0389-0.0219,0.0219
				C468.9048,13.7545,467.7169,15.7931,469.0225,16.5686L469.0225,16.5686z"/>
		</g>
	</g>
</g>
<g>
	<g>
		<path class="st11" d="M501.9229-1.7939c3.4142,12.0677,4.4662,25.4985-1.0434,36.7647
			c-5.3655,10.9715-16.5605,19.1959-18.5017,31.2538c-0.5024-3.2523-3.3913-5.5896-4.6359-8.636
			c-1.0029-2.4548-0.8763-5.2102-0.623-7.8498c0.9081-9.4646,3.3649-19.0463,9.0204-26.6895
			c2.9479-3.9839,6.6728-7.322,9.8791-11.101c3.2063-3.7791,5.9666-8.2183,6.3986-13.1555"/>
	</g>
	<g>
		<path class="st8" d="M459.9809,48.707c1.6253-4.7412,2.7571-9.6362,4.2337-14.4259c2.8204-9.1487,7.0334-18.0914,13.8065-24.8574
			s16.4076-11.1097,25.9052-9.9057c-2.8644,5.5168-5.7372,11.0476-9.2144,16.2003c-9.4218,13.9617-22.8853,24.6085-36.126,35.0191"
			/>
	</g>
</g>
<g>
	<path class="st8" d="M454.7222,63.8387c4.0386-2.6623,7.7287-5.8415,11.0896-9.3124c3.3625-3.4753,6.3123-7.3306,8.8803-11.3946
		c2.5934-4.0511,4.8091-8.3041,6.8579-12.6156c2.0317-4.3316,3.8273-8.7292,5.8882-13.1742
		c0.172-0.3745,0.6151-0.5386,0.9895-0.3666c0.2944,0.1353,0.4583,0.442,0.4315,0.7473c-0.4639,4.9795-2.0532,9.7734-4.1783,14.2679
		c-2.108,4.515-4.8203,8.7245-7.841,12.6524c-3.0462,3.915-6.3973,7.5561-9.9389,10.9743
		c-3.5428,3.4224-7.3611,6.5334-11.3405,9.4305c-0.3284,0.2393-0.7886,0.1671-1.0279-0.1614s-0.1671-0.7886,0.1613-1.0279
		C454.7024,63.8521,454.7135,63.8445,454.7222,63.8387z"/>
</g>
<g>
	<g>
		<path class="st13" d="M444.6283,75.5672c-1.8614,1.4503-5.0503,0.4613-5.7645-1.7877c-0.1152-0.363-0.1777-0.7519-0.3872-1.0699
			c-0.2372-0.3602-0.63-0.5805-0.9615-0.8565c-1.4931-1.2431-1.5081-3.8591-0.0294-5.1192
			c0.6498-0.5537,1.5868-0.9772,1.6895-1.8247c0.0759-0.6263-0.3605-1.1809-0.6795-1.7253
			c-0.4528-0.7727-0.7006-1.6642-0.7116-2.5597c-0.0143-1.159,0.6754-2.5462,1.8335-2.501c0.469,0.0183,0.9483,0.277,1.386,0.1074
			c0.4975-0.1927,0.6445-0.8121,0.9715-1.2336c0.5303-0.6837,1.558-0.8034,2.3731-0.5131c0.8151,0.2903,1.4677,0.9023,2.0949,1.4983
			c1.3394-2.1107,4.2852-3.4073,6.43-2.123c0.5164,0.3092,0.9499,0.7407,1.4587,1.0622c0.9133,0.5771,2.0417,0.7832,2.8825,1.4616
			c1.3172,1.0627,1.5104,3.2533,0.3996,4.5302c1.0281,0.6413,2.0702,1.3486,2.6943,2.3873s0.709,2.4986-0.1187,3.3835
			c-0.212,0.2267-0.486,0.4279-0.5572,0.73c-0.0634,0.2693,0.0536,0.5434,0.1077,0.8148c0.223,1.1185-0.6426,2.1704-1.5953,2.7974
			c-0.9528,0.6269-2.069,1.0437-2.8398,1.8844c-0.6944,0.7573-1.0286,1.7755-1.6311,2.6077
			c-0.6025,0.8322-1.7071,1.4922-2.6347,1.0504c-0.2767-0.1318-0.5467-0.3589-0.848-0.3025
			c-0.3258,0.0609-0.4934,0.4154-0.743,0.6335c-0.5889,0.5146-1.498,0.2005-2.204-0.1358
			c-0.7064-0.3364-1.4293-0.6846-1.9713-1.2488c-0.542-0.5642-0.8727-1.3999-0.6283-2.1431"/>
	</g>
	<g>
		<path class="st8" d="M445.8101,68.4218c0.3146,1.5982,2.0496,2.8053,3.6372,2.441c1.5876-0.3642,2.6213-2.3258,1.9332-3.8022
			c-0.2471-0.5301-0.6626-0.96-1.0707-1.379c-0.4327-0.4444-0.9037-0.9104-1.5114-1.034c-0.7201-0.1465-1.469,0.2464-1.9275,0.8206
			s-0.6757,1.3019-0.8323,2.0199"/>
	</g>
</g>
<g>
	<path class="st11" d="M8.5322,187.132c0.8475,3.0419,1.6949,6.0837,2.5424,9.1256c0.529,1.8988,1.0626,3.8343,0.9935,5.8042
		c-0.1163,3.3143-1.9291,6.4449-1.7442,9.756c0.1507,2.6996,1.6039,5.1238,2.5509,7.6563c1.1196,2.9939,1.5415,6.1956,1.9556,9.365
		c0.2066,1.5811,0.4132,3.1853,0.1907,4.7643c-0.1888,1.3401-0.6808,2.6164-1.1845,3.8725
		c-3.7955,9.466-8.4693,18.5796-13.9419,27.1855c4.249-11.1471,2.5088-23.6789-0.7324-35.1596
		c-0.6701-2.3734-1.4076-4.7682-1.4329-7.2343c-0.0198-1.9326,0.3999-3.8411,0.8688-5.716
		c1.2151-4.8587,2.7766-9.6308,4.6688-14.2681c1.0374-2.5424,2.1758-5.0493,3.0058-7.6667
		c1.1358-3.5816,1.6814-7.3496,1.6081-11.1062"/>
</g>
<g>
	<path class="st12" d="M7.9635,183.1842c-3.2503,3.2197-5.3462,7.4042-8.1705,11.0034c-3.55,4.5239-8.2757,8.1574-11.053,13.1928
		c-4.1047,7.442-3.2046,16.8026,0.1104,24.6283c1.7838,4.2108,4.2052,8.1232,6.0861,12.2915
		c3.0012,6.6511,4.5926,13.9343,4.6392,21.2311c2.1833-1.1001,3.0485-3.7191,3.6628-6.0854
		c2.0016-7.711,3.5411-15.799,1.9572-23.6065c-1.1109-5.4762-3.7297-10.6362-4.1497-16.2081
		c-0.4635-6.1499,1.7886-12.1369,3.853-17.9484s4.0014-11.9837,2.8953-18.0511"/>
</g>
<g>
	<path class="st8" d="M41.8604,193.0812c-5.499,2.7222-10.7471,6.0097-15.3312,10.0884c-3.0381,2.7031-5.7644,5.7339-8.4835,8.7576
		c-2.3353,2.5968-4.6769,5.2015-6.6829,8.0603c-4.3233,6.1612-6.9817,13.3644-8.64,20.7061
		c-1.6583,7.3417-2.3555,14.8615-3.0488,22.3562c0.5413,0.0219,0.9549-0.4609,1.2559-0.9113
		c3.5217-5.269,3.8104-11.9883,5.7981-18.0061c1.9388-5.8699,5.5902-11.1629,10.389-15.0598
		c3.5628-2.8932,7.6866-4.9954,11.592-7.4061s7.7042-5.2417,10.1378-9.1331c3.4944-5.5878,3.7197-12.6719,2.5023-19.1489"/>
</g>
<g>
	<path class="st9" d="M50.157,218.7854c-4.3592,7.123-9.6426,13.6796-15.676,19.4535c-1.5168,1.4515-3.1126,2.8753-5.018,3.7569
		c-1.3928,0.6444-2.9052,0.9774-4.3687,1.4394c-1.7933,0.5661-3.529,1.3337-5.1077,2.3557c-3.784,2.4495-6.478,6.2114-9.4233,9.6236
		s-6.4837,6.6873-10.9079,7.5501c2.0735-2.2299,4.1672-4.4873,5.6596-7.1415c1.2919-2.2977,2.0973-4.8301,3.1123-7.2629
		c3.1728-7.6051,8.4869-14.3033,15.171-19.1226c1.5493-1.1171,3.1735-2.137,4.8948-2.9649c1.6508-0.794,3.3814-1.4073,5.1081-2.0189
		c2.2732-0.8052,4.5464-1.6104,6.8196-2.4156c3.233-1.1452,6.471-2.2919,9.7917-3.15"/>
</g>
<g>
	<path class="st13" d="M73.5694,244.3875c-2.6041-0.2762-5.2083-0.5525-7.8124-0.8288c-4.5733-0.4852-9.1711-0.971-13.7624-0.7066
		c-9.0114,0.5189-17.8985,3.9152-26.8481,2.7406c-2.3454-0.3078-4.6551-0.9285-7.0193-1.0062
		c-5.055-0.1662-10.0436,2.2797-13.332,6.1226s-4.9229,8.9656-4.8967,14.0233c2.8382-3.3877,5.818-6.885,9.8494-8.696
		c5.0804-2.2822,10.9294-1.5144,16.4787-1.0415c3.6029,0.3071,7.2181,0.4703,10.8341,0.4893
		c1.9311,0.0102,3.879-0.0227,5.7632-0.4453c2.1197-0.4754,4.0957-1.4292,6.0762-2.3218
		c7.8714-3.5476,16.1299-6.2354,24.5814-8.0004"/>
</g>
<g>
	<path class="st8" d="M73.577,244.7362c-4.6721,4.4477-9.8488,10.4519-15.1598,14.1131c-1.5762,1.0865-3.2224,2.1088-5.0366,2.7198
		c-6.2465,2.1038-12.9994-0.984-19.589-0.8386c-5.2984,0.117-10.3631,2.3319-15.655,2.6177
		c-3.0813,0.1664-6.1585-0.326-9.2436-0.3913c-3.0851-0.0653-6.3207,0.3511-8.8531,2.1143
		c0.6051-2.2286,2.1603-5.4612,4.0637-6.7688c6.8801-4.7268,12.5002-6.2808,20.7929-7.2342
		c8.0813-0.9291,19.213,0.2435,26.7665-2.7758c1.8855-0.7537,3.6642-1.7785,5.605-2.3755c2.2477-0.6914,4.6293-0.7841,6.9793-0.8716
		C67.3692,244.9291,70.5298,244.0469,73.577,244.7362"/>
</g>
</svg>
