<svg id="Layer_1" xmlns="http://www.w3.org/2000/svg" viewBox="0 0 500 262">
  <style>
    .st1{fill:#212d50}.st2{fill:#6536ca}.st4{fill:#a5cafa}.st5{fill:#faa76c}.st6{fill:#325ada}.st7{fill:#9b6fef}.st8{fill:#f09a82}.st9{fill:#6610ef}
  </style>
  <path fill="#eee" d="M-3-4h506v269H-3z"/>
  <path class="st1" d="M114.937 120.4961c1.1934.8906 1.79 2.5234 1.79 4.8984 0 2.3384-.5815 3.9834-1.7446 4.9346-1.1636.9512-2.6719 1.4268-4.5259 1.4268h-3.7803v-12.5957h3.5078c1.9747 0 3.5592.4453 4.753 1.3359zm-5.2803.8271v8.2695h.9814c.9814 0 1.7266-.3057 2.2358-.9175.5088-.6118.7632-1.7056.7632-3.2808 0-1.0786-.127-1.9146-.3818-2.5083-.2544-.5938-.5996-1.0024-1.0356-1.2271-.4365-.2241-.9756-.3359-1.6177-.3359h-.9453zM121.0981 117.479c.3208.3091.4814.6997.4814 1.1724s-.1606.8633-.4814 1.1724c-.3213.3091-.73.4634-1.2271.4634s-.9028-.1543-1.2178-.4634-.4722-.6997-.4722-1.1724.1572-.8633.4722-1.1724.7207-.4634 1.2178-.4634.9059.1543 1.2271.4634zm.2271 4.6255v9.6514h-2.8716v-9.6514h2.8716zM128.9229 122.1045c.6055.2065 1.1387.4971 1.5991.8726l-1.0542 1.6177c-.7876-.4966-1.5811-.7451-2.3809-.7451-.3755 0-.6636.0635-.8633.1909-.2002.127-.2998.3062-.2998.5361 0 .1816.0454.3301.1362.4453s.2754.2334.5542.3545.709.2666 1.2905.436c1.0059.2905 1.7539.6694 2.2446 1.1357.4907.4668.7363 1.1118.7363 1.936 0 .6543-.188 1.2207-.5635 1.6992-.376.479-.8906.8452-1.5449 1.0996s-1.3813.3818-2.1812.3818c-.812 0-1.5664-.1274-2.2627-.3818-.6973-.2544-1.2876-.6055-1.7725-1.0542l1.3999-1.563c.8115.6304 1.6655.9453 2.5625.9453.436 0 .7783-.0791 1.0269-.2363.2485-.1577.3726-.3818.3726-.6729 0-.23-.0483-.4116-.1455-.5449-.0967-.1333-.2847-.2573-.563-.3726-.2793-.1152-.7212-.2573-1.3271-.4272-.957-.2788-1.6719-.6665-2.1445-1.1631-.4727-.4971-.709-1.1147-.709-1.854 0-.5571.1606-1.0571.4819-1.4995.3208-.4424.7812-.7935 1.3813-1.0542.5996-.2607 1.293-.3906 2.0811-.3906.6906.0001 1.3385.1031 1.945.3087zM140.7183 127.7754h-5.98c.0967.812.3271 1.3813.6909 1.7085.3633.3271.8662.4907 1.5083.4907.3877 0 .7637-.0693 1.127-.209.3633-.1392.7573-.3545 1.1816-.645l1.1812 1.5991c-1.127.897-2.3809 1.3452-3.7622 1.3452-1.563 0-2.7627-.4604-3.5986-1.3813-.8364-.9209-1.2544-2.1567-1.2544-3.708 0-.9814.1758-1.8628.5273-2.6445.3511-.7812.8662-1.3994 1.5449-1.854.6782-.4541 1.4902-.6812 2.4355-.6812 1.3931 0 2.4834.436 3.2715 1.3086.7876.8721 1.1812 2.084 1.1812 3.6348 0 .3999-.0181.7451-.0542 1.0361zm-2.7627-1.854c-.0244-1.478-.5454-2.2173-1.5635-2.2173-.4966 0-.8813.1816-1.1538.5454-.2729.3633-.4395.9634-.5 1.7993h3.2173v-.1274zM150.0054 122.5591c.4727.5088.709 1.2241.709 2.1445v7.0522h-2.8716v-6.5615c0-.4844-.0757-.8208-.2271-1.0088-.1519-.1875-.3789-.2817-.6816-.2817-.5815 0-1.1392.4185-1.6724 1.2544v6.5977h-2.8716v-9.6514h2.5083l.1997 1.145c.4121-.4844.8569-.8477 1.3359-1.0903.4785-.2422 1.0146-.3633 1.6084-.3633.8365 0 1.4908.2544 1.963.7632zm-3.0352-2.4717c-.1938-.085-.4062-.2061-.6362-.3638-.3027-.2183-.5513-.3271-.7451-.3271-.2061 0-.3789.0635-.5181.1909-.1392.127-.2876.3301-.4453.6089l-1.4355-.6909c.2422-.6299.5659-1.145.9722-1.5449.4058-.3999.8633-.5996 1.3726-.5996.2783 0 .5176.0454.7178.1362.1997.0908.4209.2153.6636.3726.1694.1094.3057.188.4087.2363a.7343.7343 0 0 0 .3179.0728c.1938 0 .3608-.0635.5-.1909.1392-.127.2876-.3301.4453-.6089l1.436.709c-.2544.6426-.585 1.1572-.9907 1.5449-.4062.3877-.8633.5815-1.3721.5815-.2668 0-.4972-.0425-.6911-.127zM160.7021 129.7563c.1025.1699.2695.2974.4995.3818l-.5996 1.8721c-.5938-.0483-1.0786-.1787-1.4541-.3906-.376-.2119-.6665-.5483-.8726-1.0088-.6299.9697-1.5991 1.4541-2.9082 1.4541-.957 0-1.7207-.2788-2.29-.8359-.5693-.5576-.854-1.2847-.854-2.1812 0-1.0542.3877-1.8599 1.1631-2.4175.7754-.5571 1.8965-.8359 3.3623-.8359h.9819v-.418c0-.5698-.1216-.9604-.3638-1.1724-.2427-.2119-.6665-.3184-1.2725-.3184-.3149 0-.6968.0454-1.145.1362-.4482.0913-.9087.2153-1.3813.3726l-.6543-1.8901c.606-.23 1.2271-.4058 1.8633-.5269s1.2266-.1816 1.772-.1816c1.3813 0 2.3931.2847 3.0352.854.6421.5698.9634 1.4238.9634 2.563v3.7441c0 .3634.0512.63.1547.7994zm-2.9716-.6723v-1.7085h-.709c-.6543 0-1.1421.1152-1.4634.3452-.3208.2305-.4814.5879-.4814 1.0728 0 .3877.1001.6875.2998.8994.2002.2124.4756.3184.8271.3184.6543-.0001 1.1631-.3092 1.5269-.9273zM171.4888 118.2695v13.4863h-2.5444l-.1455-1.127c-.6787.9575-1.5933 1.436-2.7446 1.436-1.1992 0-2.1113-.4604-2.7354-1.3813s-.936-2.1812-.936-3.7808c0-.9814.1636-1.8599.4907-2.6353s.791-1.3813 1.3906-1.8174c.5996-.4365 1.2871-.6543 2.063-.6543.9204 0 1.6841.3027 2.29.9087v-4.7441l2.8716.3092zm-2.8716 10.5962v-4.1621c-.2305-.2783-.4634-.4844-.6997-.6177s-.5063-.2002-.8091-.2002c-.5332 0-.957.2485-1.272.7451-.3154.4971-.4727 1.2607-.4727 2.2905 0 1.1265.1362 1.9146.4087 2.3628.2729.4482.6636.6724 1.1724.6724.6665 0 1.2241-.3637 1.6724-1.0908zM181.3945 123.1499c.8359.9028 1.2539 2.166 1.2539 3.7896 0 1.0298-.1904 1.9297-.5723 2.6987-.3818.77-.9272 1.3667-1.6357 1.7905-.709.4238-1.5483.6362-2.5176.6362-1.4663 0-2.6201-.4512-3.4624-1.354s-1.2632-2.166-1.2632-3.7896c0-1.0298.1909-1.9297.5728-2.6992.3813-.7695.9268-1.3662 1.6357-1.7905.709-.4238 1.5479-.6357 2.5171-.6357 1.4786 0 2.6358.4512 3.4717 1.354zm-4.7802 1.4902c-.2905.4907-.436 1.2515-.436 2.2812 0 1.0542.1421 1.8237.4272 2.3081.2842.4849.7236.7271 1.3174.7271.5815 0 1.0181-.2456 1.3086-.7363.291-.4907.4365-1.251.4365-2.2808 0-1.0542-.1426-1.8237-.4272-2.3086-.2847-.4844-.7241-.7271-1.3179-.7271-.5816.0001-1.0176.2457-1.3086.7364zM190.5552 121.9595l-.4546 2.7808c-.3633-.085-.6543-.1274-.8721-.1274-.5698 0-1.0029.1973-1.2998.5908-.2969.394-.5303.9844-.6997 1.772v4.7803h-2.8716v-9.6514h2.5083l.2363 1.8721c.2178-.666.5479-1.1904.9902-1.5718.4424-.3818.9424-.5728 1.4995-.5728.3517-.0001.6725.0424.9635.1274zM198.8345 129.7563c.1025.1699.2695.2974.4995.3818l-.5996 1.8721c-.5938-.0483-1.0786-.1787-1.4541-.3906-.376-.2119-.6665-.5483-.8726-1.0088-.6299.9697-1.5991 1.4541-2.9082 1.4541-.957 0-1.7207-.2788-2.29-.8359-.5693-.5576-.854-1.2847-.854-2.1812 0-1.0542.3877-1.8599 1.1631-2.4175.7754-.5571 1.8965-.8359 3.3623-.8359h.9819v-.418c0-.5698-.1216-.9604-.3638-1.1724-.2427-.2119-.6665-.3184-1.2725-.3184-.3149 0-.6968.0454-1.145.1362-.4482.0913-.9087.2153-1.3813.3726l-.6543-1.8901c.606-.23 1.2271-.4058 1.8633-.5269s1.2266-.1816 1.772-.1816c1.3813 0 2.3931.2847 3.0352.854.6421.5698.9634 1.4238.9634 2.563v3.7441c-.0001.3634.0512.63.1547.7994zm-2.9717-.6723v-1.7085h-.709c-.6543 0-1.1421.1152-1.4634.3452-.3208.2305-.4814.5879-.4814 1.0728 0 .3877.1001.6875.2998.8994.2002.2124.4756.3184.8271.3184.6543-.0001 1.1631-.3092 1.5269-.9273zM214.165 122.668c-.6299.2544-1.5571.3818-2.7808.3818.6299.2666 1.0903.5938 1.3813.9814.291.3882.436.8906.436 1.5088 0 .6177-.1636 1.1719-.4907 1.6631-.3271.4907-.7969.8755-1.4087 1.1538-.6118.2788-1.3296.418-2.1538.418-.3877 0-.7573-.0361-1.1084-.1089-.0972.0483-.1729.1245-.2271.2271-.0547.103-.082.209-.082.3184 0 .1816.0698.3242.209.4268.1392.1035.4209.1548.8452.1548h1.4541c.7388 0 1.3872.1211 1.9448.3633.5571.2427.9873.5757 1.2905 1 .3027.4243.4541.9023.4541 1.4355 0 1.0059-.4331 1.7905-1.2993 2.354-.8667.5635-2.1177.8452-3.7534.8452-1.1753 0-2.1025-.1245-2.7808-.3726-.6787-.2485-1.1543-.5972-1.4268-1.0454s-.4092-1.0117-.4092-1.6904h2.5811c0 .291.0576.521.1729.6909.1147.1694.3237.2969.627.3818.3027.0845.7388.127 1.3086.127.7876 0 1.333-.0938 1.6357-.2817s.4546-.4575.4546-.8086c0-.291-.1152-.5215-.3457-.6909-.23-.1699-.5752-.2544-1.0356-.2544h-1.3994c-.9941 0-1.7358-.1787-2.2266-.5361s-.7363-.8149-.7363-1.3721c0-.3516.103-.6938.3091-1.0269.2061-.3335.4844-.6089.8359-.8271-.606-.3271-1.0449-.7119-1.3179-1.1543-.2725-.4419-.4087-.9785-.4087-1.6084 0-1.0786.3877-1.9355 1.1631-2.5718s1.7993-.9541 3.0718-.9541c.9692.0244 1.7905-.0728 2.4629-.291s1.3657-.5391 2.0811-.9634l.6724 2.1264zm-6.207 1.4453c-.2607.2847-.3906.6753-.3906 1.1719 0 .5215.1299.9243.3906 1.209s.6152.4272 1.0635.4272c.4727 0 .833-.1392 1.0815-.4185.248-.2783.3726-.6963.3726-1.2539 0-1.042-.4849-1.563-1.4541-1.563-.4483 0-.8027.1426-1.0635.4273zM221.4897 121.9595l-.4546 2.7808c-.3633-.085-.6543-.1274-.8721-.1274-.5698 0-1.0029.1973-1.2998.5908-.2969.394-.5303.9844-.6997 1.772v4.7803h-2.8716v-9.6514h2.5083l.2363 1.8721c.2178-.666.5479-1.1904.9902-1.5718.4424-.3818.9424-.5728 1.4995-.5728.3517-.0001.6725.0424.9635.1274zM229.7686 129.7563c.1025.1699.2695.2974.4995.3818l-.5996 1.8721c-.5938-.0483-1.0786-.1787-1.4541-.3906-.376-.2119-.6665-.5483-.8726-1.0088-.6299.9697-1.5991 1.4541-2.9082 1.4541-.957 0-1.7207-.2788-2.29-.8359-.5693-.5576-.854-1.2847-.854-2.1812 0-1.0542.3877-1.8599 1.1631-2.4175.7754-.5571 1.8965-.8359 3.3623-.8359h.9819v-.418c0-.5698-.1216-.9604-.3638-1.1724-.2427-.2119-.6665-.3184-1.2725-.3184-.3149 0-.6968.0454-1.145.1362-.4482.0913-.9087.2153-1.3813.3726l-.6543-1.8901c.606-.23 1.2271-.4058 1.8633-.5269s1.2266-.1816 1.772-.1816c1.3813 0 2.3931.2847 3.0352.854.6421.5698.9634 1.4238.9634 2.563v3.7441c-.0001.3634.0511.63.1547.7994zm-2.7173-13.1772l1.127 2.145-4.2896 1.7266-.7998-1.4722 3.9624-2.3994zm-.2544 12.5049v-1.7085h-.709c-.6543 0-1.1421.1152-1.4634.3452-.3208.2305-.4814.5879-.4814 1.0728 0 .3877.1001.6875.2998.8994.2002.2124.4756.3184.8271.3184.6543-.0001 1.1631-.3092 1.5269-.9273zM239.519 118.6875l-.7993 1.8359c-.7153-.291-1.4058-.436-2.0723-.436-.5576 0-.9424.0967-1.1543.2905s-.3179.5273-.3179.9995v.7271h5.3618v9.6514h-2.8716v-7.6519h-2.4902v7.6519h-2.8716v-7.6519h-1.4722v-1.9995h1.4722v-.8359c0-.9932.3271-1.793.9814-2.3989s1.666-.9092 3.0352-.9092c1.1388-.0001 2.2052.2426 3.1988.727zM248.7705 122.0864c.5332.1938 1.0361.4907 1.5088.8906l-1.2358 1.7085c-.606-.4604-1.2178-.6904-1.8359-.6904-.6421 0-1.127.2358-1.4541.7085s-.4907 1.2358-.4907 2.29c0 1.0181.1636 1.7393.4907 2.1631.3271.4243.7998.6362 1.418.6362.3271 0 .624-.0513.8906-.1548.2661-.1025.5874-.269.9634-.4995l1.2539 1.7812c-.9575.7632-2.042 1.145-3.2534 1.145-.9814 0-1.8296-.209-2.5444-.627-.7153-.4185-1.2666-1.0059-1.6543-1.7632s-.5815-1.645-.5815-2.6626c0-1.0181.1938-1.9204.5815-2.7085.3877-.7871.939-1.4023 1.6543-1.8447.7148-.4419 1.5449-.6631 2.4897-.6631.6664.0002 1.266.0969 1.7992.2907zM259.1401 129.7563c.1025.1699.2695.2974.4995.3818l-.5996 1.8721c-.5938-.0483-1.0786-.1787-1.4541-.3906-.376-.2119-.6665-.5483-.8726-1.0088-.6299.9697-1.5991 1.4541-2.9082 1.4541-.957 0-1.7207-.2788-2.29-.8359-.5693-.5576-.854-1.2847-.854-2.1812 0-1.0542.3877-1.8599 1.1631-2.4175.7754-.5571 1.8965-.8359 3.3623-.8359h.9819v-.418c0-.5698-.1216-.9604-.3638-1.1724-.2427-.2119-.6665-.3184-1.2725-.3184-.3149 0-.6968.0454-1.145.1362-.4482.0913-.9087.2153-1.3813.3726l-.6543-1.8901c.606-.23 1.2271-.4058 1.8633-.5269s1.2266-.1816 1.772-.1816c1.3813 0 2.3931.2847 3.0352.854.6421.5698.9634 1.4238.9634 2.563v3.7441c0 .3634.0512.63.1547.7994zm-2.9716-.6723v-1.7085h-.709c-.6543 0-1.1421.1152-1.4634.3452-.3208.2305-.4814.5879-.4814 1.0728 0 .3877.1001.6875.2998.8994.2002.2124.4756.3184.8271.3184.6543-.0001 1.1631-.3092 1.5269-.9273z"/>
  <path class="st2" d="M268.2275 117.479c.3208.3091.4814.6997.4814 1.1724s-.1606.8633-.4814 1.1724c-.3213.3091-.73.4634-1.2271.4634s-.9028-.1543-1.2178-.4634-.4722-.6997-.4722-1.1724.1572-.8633.4722-1.1724.7207-.4634 1.2178-.4634.9058.1543 1.2271.4634zm.2271 4.6255v9.6514h-2.8716v-9.6514h2.8716zM278.3237 122.5591c.4727.5088.709 1.2241.709 2.1445v7.0522h-2.8716v-6.5615c0-.4844-.0757-.8208-.2271-1.0088-.1519-.1875-.3789-.2817-.6816-.2817-.5815 0-1.1392.4185-1.6724 1.2544v6.5977h-2.8716v-9.6514h2.5083l.1997 1.145c.4121-.4844.8569-.8477 1.3359-1.0903.4785-.2422 1.0146-.3633 1.6084-.3633.8366 0 1.4909.2544 1.963.7632zM289.8472 118.2695v13.4863h-2.5444l-.1455-1.127c-.6787.9575-1.5933 1.436-2.7446 1.436-1.1992 0-2.1113-.4604-2.7354-1.3813s-.936-2.1812-.936-3.7808c0-.9814.1636-1.8599.4907-2.6353s.791-1.3813 1.3906-1.8174c.5996-.4365 1.2871-.6543 2.063-.6543.9204 0 1.6841.3027 2.29.9087v-4.7441l2.8716.3092zm-2.8716 10.5962v-4.1621c-.2305-.2783-.4634-.4844-.6997-.6177s-.5063-.2002-.8091-.2002c-.5332 0-.957.2485-1.272.7451-.3154.4971-.4727 1.2607-.4727 2.2905 0 1.1265.1362 1.9146.4087 2.3628.2729.4482.6636.6724 1.1724.6724.6665 0 1.2241-.3637 1.6724-1.0908zM300.4619 127.7754h-5.98c.0967.812.3271 1.3813.6909 1.7085.3633.3271.8662.4907 1.5083.4907.3877 0 .7637-.0693 1.127-.209.3633-.1392.7573-.3545 1.1816-.645l1.1812 1.5991c-1.127.897-2.3809 1.3452-3.7622 1.3452-1.563 0-2.7627-.4604-3.5986-1.3813-.8364-.9209-1.2544-2.1567-1.2544-3.708 0-.9814.1758-1.8628.5273-2.6445.3511-.7812.8662-1.3994 1.5449-1.854.6782-.4541 1.4902-.6812 2.4355-.6812 1.3931 0 2.4834.436 3.2715 1.3086.7876.8721 1.1812 2.084 1.1812 3.6348 0 .3999-.0181.7451-.0542 1.0361zm-2.7627-1.854c-.0244-1.478-.5454-2.2173-1.5635-2.2173-.4966 0-.8813.1816-1.1538.5454-.2729.3633-.4395.9634-.5 1.7993h3.2173v-.1274zM310.2944 123.1406c.5938.897.8906 2.1509.8906 3.7622 0 .9937-.1543 1.8813-.4634 2.6631-.3091.7812-.7544 1.3936-1.3359 1.8354-.5815.4424-1.2603.6636-2.0356.6636-.9697 0-1.751-.333-2.3447-.9995v4.4165l-2.8716.3091v-13.6865h2.5264l.1455 1.0728c.3755-.4727.8057-.8208 1.2905-1.0454.4844-.2241.9814-.3359 1.4902-.3359 1.2115-.0001 2.1143.4481 2.708 1.3446zm-2.0903 3.7989c0-1.1392-.127-1.9297-.3813-2.3721-.2544-.4419-.6362-.6636-1.145-.6636-.3271 0-.6333.0972-.918.291s-.5361.4727-.7544.8359v4.0713c.3877.5698.8784.8545 1.4722.8545 1.1513 0 1.7265-1.0058 1.7265-3.017zM321.3452 127.7754h-5.98c.0967.812.3271 1.3813.6909 1.7085.3633.3271.8662.4907 1.5083.4907.3877 0 .7637-.0693 1.127-.209.3633-.1392.7573-.3545 1.1816-.645l1.1812 1.5991c-1.127.897-2.3809 1.3452-3.7622 1.3452-1.563 0-2.7627-.4604-3.5986-1.3813-.8364-.9209-1.2544-2.1567-1.2544-3.708 0-.9814.1758-1.8628.5273-2.6445.3511-.7812.8662-1.3994 1.5449-1.854.6782-.4541 1.4902-.6812 2.4355-.6812 1.3931 0 2.4834.436 3.2715 1.3086.7876.8721 1.1812 2.084 1.1812 3.6348 0 .3999-.0181.7451-.0542 1.0361zm-2.7627-1.854c-.0244-1.478-.5454-2.2173-1.5635-2.2173-.4966 0-.8813.1816-1.1538.5454-.2729.3633-.4395.9634-.5 1.7993h3.2173v-.1274zM330.6323 122.5591c.4727.5088.709 1.2241.709 2.1445v7.0522h-2.8716v-6.5615c0-.4844-.0757-.8208-.2271-1.0088-.1519-.1875-.3789-.2817-.6816-.2817-.5815 0-1.1392.4185-1.6724 1.2544v6.5977h-2.8716v-9.6514h2.5083l.1997 1.145c.4121-.4844.8569-.8477 1.3359-1.0903.4785-.2422 1.0146-.3633 1.6084-.3633.8366 0 1.4909.2544 1.963.7632zM342.1558 118.2695v13.4863h-2.5444l-.1455-1.127c-.6787.9575-1.5933 1.436-2.7446 1.436-1.1992 0-2.1113-.4604-2.7354-1.3813s-.936-2.1812-.936-3.7808c0-.9814.1636-1.8599.4907-2.6353s.791-1.3813 1.3906-1.8174c.5996-.4365 1.2871-.6543 2.063-.6543.9204 0 1.6841.3027 2.29.9087v-4.7441l2.8716.3092zm-2.8716 10.5962v-4.1621c-.2305-.2783-.4634-.4844-.6997-.6177s-.5063-.2002-.8091-.2002c-.5332 0-.957.2485-1.272.7451-.3154.4971-.4727 1.2607-.4727 2.2905 0 1.1265.1362 1.9146.4087 2.3628.2729.4482.6636.6724 1.1724.6724.6665 0 1.2241-.3637 1.6724-1.0908zM347.0542 117.479c.3208.3091.4814.6997.4814 1.1724s-.1606.8633-.4814 1.1724c-.3213.3091-.73.4634-1.2271.4634s-.9028-.1543-1.2178-.4634-.4722-.6997-.4722-1.1724.1572-.8633.4722-1.1724.7207-.4634 1.2178-.4634.9058.1543 1.2271.4634zm.227 4.6255v9.6514h-2.8716v-9.6514h2.8716zM357.896 127.7754h-5.98c.0967.812.3271 1.3813.6909 1.7085.3633.3271.8662.4907 1.5083.4907.3877 0 .7637-.0693 1.127-.209.3633-.1392.7573-.3545 1.1816-.645l1.1812 1.5991c-1.127.897-2.3809 1.3452-3.7622 1.3452-1.563 0-2.7627-.4604-3.5986-1.3813-.8364-.9209-1.2544-2.1567-1.2544-3.708 0-.9814.1758-1.8628.5273-2.6445.3511-.7812.8662-1.3994 1.5449-1.854.6782-.4541 1.4902-.6812 2.4355-.6812 1.3931 0 2.4834.436 3.2715 1.3086.7876.8721 1.1812 2.084 1.1812 3.6348 0 .3999-.0181.7451-.0542 1.0361zm-2.7627-1.854c-.0244-1.478-.5454-2.2173-1.5635-2.2173-.4966 0-.8813.1816-1.1538.5454-.2729.3633-.4395.9634-.5 1.7993h3.2173v-.1274zM367.1831 122.5591c.4727.5088.709 1.2241.709 2.1445v7.0522h-2.8716v-6.5615c0-.4844-.0757-.8208-.2271-1.0088-.1519-.1875-.3789-.2817-.6816-.2817-.5815 0-1.1392.4185-1.6724 1.2544v6.5977h-2.8716v-9.6514h2.5083l.1997 1.145c.4121-.4844.8569-.8477 1.3359-1.0903.4785-.2422 1.0146-.3633 1.6084-.3633.8365 0 1.4908.2544 1.963.7632zM376.1074 131.3013c-.3516.2427-.7603.4307-1.2266.5635-.4668.1333-.9302.2002-1.3906.2002-2.1084-.0122-3.1626-1.1753-3.1626-3.4897v-4.4712h-1.3633v-1.9995h1.3633v-2.0898l2.8721-.3271v2.417h2.2173l-.3091 1.9995h-1.9082v4.4346c0 .4487.0723.77.2178.9634.1455.1943.3755.291.6909.291.3271 0 .6724-.103 1.0356-.3091l.9634 1.8172zM385.105 127.7754h-5.98c.0967.812.3271 1.3813.6909 1.7085.3633.3271.8662.4907 1.5083.4907.3877 0 .7637-.0693 1.127-.209.3633-.1392.7573-.3545 1.1816-.645l1.1812 1.5991c-1.127.897-2.3809 1.3452-3.7622 1.3452-1.563 0-2.7627-.4604-3.5986-1.3813-.8364-.9209-1.2544-2.1567-1.2544-3.708 0-.9814.1758-1.8628.5273-2.6445.3511-.7812.8662-1.3994 1.5449-1.854.6782-.4541 1.4902-.6812 2.4355-.6812 1.3931 0 2.4834.436 3.2715 1.3086.7876.8721 1.1812 2.084 1.1812 3.6348 0 .3999-.0181.7451-.0542 1.0361zm-2.7627-1.854c-.0244-1.478-.5454-2.2173-1.5635-2.2173-.4966 0-.8813.1816-1.1538.5454-.2729.3633-.4395.9634-.5 1.7993h3.2173v-.1274z"/>
  <path class="st1" d="M390.4121 117.0337v16.6304h-2.6719v-16.6304h2.6719zM106.8125 143.897c.5332.1938 1.0361.4907 1.5088.8906l-1.2358 1.7085c-.606-.4604-1.2178-.6904-1.8359-.6904-.6421 0-1.127.2358-1.4541.7085s-.4907 1.2358-.4907 2.29c0 1.0181.1636 1.7393.4907 2.1631.3271.4243.7998.6362 1.418.6362.3271 0 .624-.0513.8906-.1548.2661-.1025.5874-.269.9634-.4995l1.2539 1.7812c-.9575.7632-2.042 1.145-3.2534 1.145-.9814 0-1.8296-.209-2.5444-.627-.7153-.4185-1.2666-1.0059-1.6543-1.7632s-.5815-1.645-.5815-2.6626c0-1.0181.1938-1.9204.5815-2.7085.3877-.7871.939-1.4023 1.6543-1.8447.7148-.4419 1.5449-.6631 2.4897-.6631.6664.0001 1.266.0968 1.7992.2907zM116.8276 144.9604c.8359.9028 1.2539 2.166 1.2539 3.7896 0 1.0298-.1904 1.9297-.5723 2.6987-.3818.77-.9272 1.3667-1.6357 1.7905-.709.4238-1.5483.6362-2.5176.6362-1.4663 0-2.6201-.4512-3.4624-1.354s-1.2632-2.166-1.2632-3.7896c0-1.0298.1909-1.9297.5728-2.6992.3813-.7695.9268-1.3662 1.6357-1.7905.709-.4238 1.5479-.6357 2.5171-.6357 1.4786 0 2.6358.4512 3.4717 1.354zm-4.7802 1.4903c-.2905.4907-.436 1.2515-.436 2.2812 0 1.0542.1421 1.8237.4272 2.3081.2842.4849.7236.7271 1.3174.7271.5815 0 1.0181-.2456 1.3086-.7363.291-.4907.4365-1.251.4365-2.2808 0-1.0542-.1426-1.8237-.4272-2.3086-.2847-.4844-.7241-.7271-1.3179-.7271-.5816.0001-1.0176.2457-1.3086.7364zM127.4053 144.3696c.4727.5088.709 1.2241.709 2.1445v7.0522h-2.8716v-6.5615c0-.4844-.0757-.8208-.2271-1.0088-.1519-.1875-.3789-.2817-.6816-.2817-.5815 0-1.1392.4185-1.6724 1.2544v6.5977H119.79v-9.6514h2.5083l.1997 1.145c.4121-.4844.8569-.8477 1.3359-1.0903.4785-.2422 1.0146-.3633 1.6084-.3633.8365 0 1.4908.2544 1.963.7632zM142.7095 144.9604c.6177.9028.9268 2.166.9268 3.7896 0 .9937-.1543 1.8784-.4634 2.6533-.3091.7759-.7515 1.3813-1.3267 1.8179-.5757.436-1.2573.6543-2.0449.6543-.521 0-.9966-.1094-1.4268-.3271-.4302-.2183-.7969-.521-1.0996-.9087l-.1455.9268h-2.5444v-13.4863l2.8716-.3091v5.1255c.291-.3999.6636-.7148 1.1177-.9448.4546-.23.9482-.3452 1.4814-.3452 1.1508-.0002 2.0356.451 2.6538 1.3538zm-2.0542 3.7896c0-1.1514-.1333-1.9448-.3994-2.3809-.2671-.4365-.6543-.6548-1.1636-.6548-.6421 0-1.1875.376-1.6357 1.127v4.0171c.1816.2905.4028.5181.6636.6816.2603.1636.542.2451.8452.2451 1.1269.0001 1.6899-1.0117 1.6899-3.0351zM153.0786 151.5669c.1025.1699.2695.2974.4995.3818l-.5996 1.8721c-.5938-.0483-1.0786-.1787-1.4541-.3906-.376-.2119-.6665-.5483-.8726-1.0088-.6299.9697-1.5991 1.4541-2.9082 1.4541-.957 0-1.7207-.2788-2.29-.8359-.5693-.5576-.854-1.2847-.854-2.1812 0-1.0542.3877-1.8599 1.1631-2.4175.7754-.5571 1.8965-.8359 3.3623-.8359h.9819v-.418c0-.5698-.1216-.9604-.3638-1.1724-.2427-.2119-.6665-.3184-1.2725-.3184-.3149 0-.6968.0454-1.145.1362-.4482.0913-.9087.2153-1.3813.3726l-.6543-1.8901c.606-.23 1.2271-.4058 1.8633-.5269s1.2266-.1816 1.772-.1816c1.3813 0 2.3931.2847 3.0352.854.6421.5698.9634 1.4238.9634 2.563v3.7441c-.0001.3634.0512.63.1547.7994zm-2.9717-.6724v-1.7085h-.709c-.6543 0-1.1421.1152-1.4634.3452-.3208.2305-.4814.5879-.4814 1.0728 0 .3877.1001.6875.2998.8994.2002.2124.4756.3184.8271.3184.6544 0 1.1632-.3091 1.5269-.9273zM160.376 143.915c.6055.2065 1.1387.4971 1.5991.8726l-1.0542 1.6177c-.7876-.4966-1.5811-.7451-2.3809-.7451-.3755 0-.6636.0635-.8633.1909-.2002.127-.2998.3062-.2998.5361 0 .1816.0454.3301.1362.4453s.2754.2334.5542.3545.709.2666 1.2905.436c1.0059.2905 1.7539.6694 2.2446 1.1357.4907.4668.7363 1.1118.7363 1.936 0 .6543-.188 1.2207-.5635 1.6992-.376.479-.8906.8452-1.5449 1.0996s-1.3813.3818-2.1812.3818c-.812 0-1.5664-.1274-2.2627-.3818-.6973-.2544-1.2876-.6055-1.7725-1.0542l1.3999-1.563c.8115.6304 1.6655.9453 2.5625.9453.436 0 .7783-.0791 1.0269-.2363.2485-.1577.3726-.3818.3726-.6729 0-.23-.0483-.4116-.1455-.5449-.0967-.1333-.2847-.2573-.563-.3726-.2793-.1152-.7212-.2573-1.3271-.4272-.957-.2788-1.6719-.6665-2.1445-1.1631-.4727-.4971-.709-1.1147-.709-1.854 0-.5571.1606-1.0571.4819-1.4995.3208-.4424.7812-.7935 1.3813-1.0542.5996-.2607 1.293-.3906 2.0811-.3906.6906.0001 1.3385.1032 1.945.3087zM172.1714 149.5859h-5.98c.0967.812.3271 1.3813.6909 1.7085.3633.3271.8662.4907 1.5083.4907.3877 0 .7637-.0693 1.127-.209.3633-.1392.7573-.3545 1.1816-.645l1.1812 1.5991c-1.127.897-2.3809 1.3452-3.7622 1.3452-1.563 0-2.7627-.4604-3.5986-1.3813-.8364-.9209-1.2544-2.1567-1.2544-3.708 0-.9814.1758-1.8628.5273-2.6445.3511-.7812.8662-1.3994 1.5449-1.854.6782-.4541 1.4902-.6812 2.4355-.6812 1.3931 0 2.4834.436 3.2715 1.3086.7876.8721 1.1812 2.084 1.1812 3.6348 0 .3999-.0181.7451-.0542 1.0361zm-2.7627-1.854c-.0244-1.478-.5454-2.2173-1.5635-2.2173-.4966 0-.8813.1816-1.1538.5454-.2729.3633-.4395.9634-.5 1.7993h3.2173v-.1274zM186.5117 149.5859h-5.98c.0967.812.3271 1.3813.6909 1.7085.3633.3271.8662.4907 1.5083.4907.3877 0 .7637-.0693 1.127-.209.3633-.1392.7573-.3545 1.1816-.645l1.1812 1.5991c-1.127.897-2.3809 1.3452-3.7622 1.3452-1.563 0-2.7627-.4604-3.5986-1.3813-.8364-.9209-1.2544-2.1567-1.2544-3.708 0-.9814.1758-1.8628.5273-2.6445.3511-.7812.8662-1.3994 1.5449-1.854.6782-.4541 1.4902-.6812 2.4355-.6812 1.3931 0 2.4834.436 3.2715 1.3086.7876.8721 1.1812 2.084 1.1812 3.6348 0 .3999-.018.7451-.0542 1.0361zm-2.7627-1.854c-.0244-1.478-.5454-2.2173-1.5635-2.2173-.4966 0-.8813.1816-1.1538.5454-.2729.3633-.4395.9634-.5 1.7993h3.2173v-.1274zM195.7988 144.3696c.4727.5088.709 1.2241.709 2.1445v7.0522h-2.8716v-6.5615c0-.4844-.0757-.8208-.2271-1.0088-.1519-.1875-.3789-.2817-.6816-.2817-.5815 0-1.1392.4185-1.6724 1.2544v6.5977h-2.8716v-9.6514h2.5083l.1997 1.145c.4121-.4844.8569-.8477 1.3359-1.0903.4785-.2422 1.0146-.3633 1.6084-.3633.8366 0 1.4909.2544 1.963.7632zM211.7847 147.8228c.5269.4609.7905 1.1514.7905 2.0723 0 1.3447-.4819 2.293-1.4448 2.8442-.9634.5518-2.3115.8271-4.0444.8271h-4.0527v-12.5957h3.562c1.769 0 3.1201.2515 4.0532.7544s1.3994 1.3237 1.3994 2.4629c0 .7393-.2212 1.3359-.6631 1.79-.4424.4546-.9907.7607-1.645.918.8359.1577 1.5175.4668 2.0449.9268zm-5.771-4.7437v2.9263h1.1089c1.2598 0 1.8901-.5088 1.8901-1.5269 0-.5088-.1699-.8691-.5088-1.0815-.3394-.2114-.8789-.3179-1.6177-.3179h-.8725zm2.8808 7.9702c.4058-.2363.6089-.6758.6089-1.3179 0-1.1631-.7271-1.7451-2.1812-1.7451h-1.3086v3.417h1.0908c.7872 0 1.3839-.1181 1.7901-.354zM222.335 153.5664h-2.4902l-.127-1.2178c-.7031 1.0181-1.6787 1.5269-2.9263 1.5269-.8848 0-1.5542-.2666-2.0083-.7998-.4546-.5332-.6816-1.2783-.6816-2.2358v-6.9248h2.8716v6.5615c0 .4727.0757.8027.2271.9907s.3848.2817.6997.2817c.606 0 1.127-.3755 1.5635-1.127v-6.707h2.8716v9.6514zM232.9497 149.5859h-5.98c.0967.812.3271 1.3813.6909 1.7085.3633.3271.8662.4907 1.5083.4907.3877 0 .7637-.0693 1.127-.209.3633-.1392.7573-.3545 1.1816-.645l1.1812 1.5991c-1.127.897-2.3809 1.3452-3.7622 1.3452-1.563 0-2.7627-.4604-3.5986-1.3813-.8364-.9209-1.2544-2.1567-1.2544-3.708 0-.9814.1758-1.8628.5273-2.6445.3511-.7812.8662-1.3994 1.5449-1.854.6782-.4541 1.4902-.6812 2.4355-.6812 1.3931 0 2.4834.436 3.2715 1.3086.7876.8721 1.1812 2.084 1.1812 3.6348 0 .3999-.0181.7451-.0542 1.0361zm-2.7627-1.854c-.0244-1.478-.5454-2.2173-1.5635-2.2173-.4966 0-.8813.1816-1.1538.5454-.2729.3633-.4395.9634-.5 1.7993h3.2173v-.1274zM242.2368 144.3696c.4727.5088.709 1.2241.709 2.1445v7.0522h-2.8716v-6.5615c0-.4844-.0757-.8208-.2271-1.0088-.1519-.1875-.3789-.2817-.6816-.2817-.5815 0-1.1392.4185-1.6724 1.2544v6.5977h-2.8716v-9.6514h2.5083l.1997 1.145c.4121-.4844.8569-.8477 1.3359-1.0903.4785-.2422 1.0146-.3633 1.6084-.3633.8366 0 1.4908.2544 1.963.7632zM252.7607 144.9604c.8359.9028 1.2539 2.166 1.2539 3.7896 0 1.0298-.1904 1.9297-.5723 2.6987-.3818.77-.9272 1.3667-1.6357 1.7905-.709.4238-1.5483.6362-2.5176.6362-1.4663 0-2.6201-.4512-3.4624-1.354s-1.2632-2.166-1.2632-3.7896c0-1.0298.1909-1.9297.5728-2.6992.3813-.7695.9268-1.3662 1.6357-1.7905.709-.4238 1.5479-.6357 2.5171-.6357 1.4786 0 2.6358.4512 3.4717 1.354zm-4.7802 1.4903c-.2905.4907-.436 1.2515-.436 2.2812 0 1.0542.1421 1.8237.4272 2.3081.2842.4849.7236.7271 1.3174.7271.5815 0 1.0181-.2456 1.3086-.7363.291-.4907.4365-1.251.4365-2.2808 0-1.0542-.1426-1.8237-.4272-2.3086-.2847-.4844-.7241-.7271-1.3179-.7271-.5816.0001-1.0176.2457-1.3086.7364zM261.0674 143.915c.6055.2065 1.1387.4971 1.5991.8726l-1.0542 1.6177c-.7876-.4966-1.5811-.7451-2.3809-.7451-.3755 0-.6636.0635-.8633.1909-.2002.127-.2998.3062-.2998.5361 0 .1816.0454.3301.1362.4453s.2754.2334.5542.3545.709.2666 1.2905.436c1.0059.2905 1.7539.6694 2.2446 1.1357.4907.4668.7363 1.1118.7363 1.936 0 .6543-.188 1.2207-.5635 1.6992-.376.479-.8906.8452-1.5449 1.0996s-1.3813.3818-2.1812.3818c-.812 0-1.5664-.1274-2.2627-.3818-.6973-.2544-1.2876-.6055-1.7725-1.0542l1.3999-1.563c.8115.6304 1.6655.9453 2.5625.9453.436 0 .7783-.0791 1.0269-.2363.2485-.1577.3726-.3818.3726-.6729 0-.23-.0483-.4116-.1455-.5449-.0967-.1333-.2847-.2573-.563-.3726-.2793-.1152-.7212-.2573-1.3271-.4272-.957-.2788-1.6719-.6665-2.1445-1.1631-.4727-.4971-.709-1.1147-.709-1.854 0-.5571.1606-1.0571.4819-1.4995.3208-.4424.7812-.7935 1.3813-1.0542.5996-.2607 1.293-.3906 2.0811-.3906.6906.0001 1.3385.1032 1.945.3087zM275.498 153.5664l-.6543-2.708h-3.6714l-.6362 2.708h-3.0898l3.7988-12.5957h3.6167l3.7988 12.5957h-3.1626zm-3.8168-4.8711h2.6538l-1.3271-5.5615-1.3267 5.5615zM282.1777 139.2896c.3208.3091.4814.6997.4814 1.1724s-.1606.8633-.4814 1.1724c-.3213.3091-.73.4634-1.2271.4634s-.9028-.1543-1.2178-.4634-.4722-.6997-.4722-1.1724.1572-.8633.4722-1.1724.7207-.4634 1.2178-.4634.9058.1543 1.2271.4634zm.2271 4.6254v9.6514h-2.8716v-9.6514h2.8716zM290.8564 143.77l-.4546 2.7808c-.3633-.085-.6543-.1274-.8721-.1274-.5698 0-1.0029.1973-1.2998.5908-.2969.394-.5303.9844-.6997 1.772v4.7803h-2.8716v-9.6514h2.5083l.2363 1.8721c.2178-.666.5479-1.1904.9902-1.5718.4424-.3818.9424-.5728 1.4995-.5728.3517 0 .6725.0425.9635.1274zM299.7622 149.5859h-5.98c.0967.812.3271 1.3813.6909 1.7085.3633.3271.8662.4907 1.5083.4907.3877 0 .7637-.0693 1.127-.209.3633-.1392.7573-.3545 1.1816-.645l1.1812 1.5991c-1.127.897-2.3809 1.3452-3.7622 1.3452-1.563 0-2.7627-.4604-3.5986-1.3813-.8364-.9209-1.2544-2.1567-1.2544-3.708 0-.9814.1758-1.8628.5273-2.6445.3511-.7812.8662-1.3994 1.5449-1.854.6782-.4541 1.4902-.6812 2.4355-.6812 1.3931 0 2.4834.436 3.2715 1.3086.7876.8721 1.1812 2.084 1.1812 3.6348 0 .3999-.0181.7451-.0542 1.0361zm-2.7627-1.854c-.0244-1.478-.5454-2.2173-1.5635-2.2173-.4966 0-.8813.1816-1.1538.5454-.2729.3633-.4395.9634-.5 1.7993h3.2173v-.1274zM306.7778 143.915c.6055.2065 1.1387.4971 1.5991.8726l-1.0542 1.6177c-.7876-.4966-1.5811-.7451-2.3809-.7451-.3755 0-.6636.0635-.8633.1909-.2002.127-.2998.3062-.2998.5361 0 .1816.0454.3301.1362.4453s.2754.2334.5542.3545.709.2666 1.2905.436c1.0059.2905 1.7539.6694 2.2446 1.1357.4907.4668.7363 1.1118.7363 1.936 0 .6543-.188 1.2207-.5635 1.6992-.376.479-.8906.8452-1.5449 1.0996s-1.3813.3818-2.1812.3818c-.812 0-1.5664-.1274-2.2627-.3818-.6973-.2544-1.2876-.6055-1.7725-1.0542l1.3999-1.563c.8115.6304 1.6655.9453 2.5625.9453.436 0 .7783-.0791 1.0269-.2363.2485-.1577.3726-.3818.3726-.6729 0-.23-.0483-.4116-.1455-.5449-.0967-.1333-.2847-.2573-.563-.3726-.2793-.1152-.7212-.2573-1.3271-.4272-.957-.2788-1.6719-.6665-2.1445-1.1631-.4727-.4971-.709-1.1147-.709-1.854 0-.5571.1606-1.0571.4819-1.4995.3208-.4424.7812-.7935 1.3813-1.0542.5996-.2607 1.293-.3906 2.0811-.3906.6906.0001 1.3386.1032 1.945.3087zM312.4297 151.0581c.3149.3154.4727.7031.4727 1.1631 0 .2671-.0425.5337-.1274.7998-.085.2666-.2363.6421-.4541 1.127l-1.145 2.6357h-1.6177l.7812-3.1992c-.23-.1572-.4087-.3545-.5361-.5908-.127-.2358-.1909-.4932-.1909-.7725 0-.46.1577-.8477.4727-1.1631.3149-.3149.709-.4727 1.1816-.4727.4604 0 .848.1578 1.163.4727zM325.5703 153.5664l-.6543-2.708h-3.6714l-.6362 2.708h-3.0898l3.7988-12.5957h3.6167l3.7988 12.5957h-3.1626zm-3.8169-4.8711h2.6538l-1.3271-5.5615-1.3267 5.5615zM335.8032 143.77l-.4546 2.7808c-.3633-.085-.6543-.1274-.8721-.1274-.5698 0-1.0029.1973-1.2998.5908-.2969.394-.5303.9844-.6997 1.772v4.7803h-2.8716v-9.6514h2.5083l.2363 1.8721c.2178-.666.5479-1.1904.9902-1.5718.4424-.3818.9424-.5728 1.4995-.5728.3517 0 .6725.0425.9635.1274zM345.5635 144.4785c-.6299.2544-1.5571.3818-2.7808.3818.6299.2666 1.0903.5938 1.3813.9814.291.3882.436.8906.436 1.5088 0 .6177-.1636 1.1719-.4907 1.6631-.3271.4907-.7969.8755-1.4087 1.1538-.6118.2788-1.3296.418-2.1538.418-.3877 0-.7573-.0361-1.1084-.1089-.0972.0483-.1729.1245-.2271.2271-.0547.103-.082.209-.082.3184 0 .1816.0698.3242.209.4268.1392.1035.4209.1548.8452.1548h1.4541c.7388 0 1.3872.1211 1.9448.3633.5571.2427.9873.5757 1.2905 1 .3027.4243.4541.9023.4541 1.4355 0 1.0059-.4331 1.7905-1.2993 2.354-.8667.5635-2.1177.8452-3.7534.8452-1.1753 0-2.1025-.1245-2.7808-.3726-.6787-.2485-1.1543-.5972-1.4268-1.0454s-.4092-1.0117-.4092-1.6904h2.5811c0 .291.0576.521.1729.6909.1147.1694.3237.2969.627.3818.3027.0845.7388.127 1.3086.127.7876 0 1.333-.0938 1.6357-.2817s.4546-.4575.4546-.8086c0-.291-.1152-.5215-.3457-.6909-.23-.1699-.5752-.2544-1.0356-.2544h-1.3994c-.9941 0-1.7358-.1787-2.2266-.5361s-.7363-.8149-.7363-1.3721c0-.3516.103-.6938.3091-1.0269.2061-.3335.4844-.6089.8359-.8271-.606-.3271-1.0449-.7119-1.3179-1.1543-.2725-.4419-.4087-.9785-.4087-1.6084 0-1.0786.3877-1.9355 1.1631-2.5718s1.7993-.9541 3.0718-.9541c.9692.0244 1.7905-.0728 2.4629-.291s1.3657-.5391 2.0811-.9634l.6724 2.1264zm-6.2071 1.4453c-.2607.2847-.3906.6753-.3906 1.1719 0 .5215.1299.9243.3906 1.209s.6152.4272 1.0635.4272c.4727 0 .833-.1392 1.0815-.4185.248-.2783.3726-.6963.3726-1.2539 0-1.042-.4849-1.563-1.4541-1.563-.4482.0001-.8027.1427-1.0635.4273zM354.6514 149.5859h-5.98c.0967.812.3271 1.3813.6909 1.7085.3633.3271.8662.4907 1.5083.4907.3877 0 .7637-.0693 1.127-.209.3633-.1392.7573-.3545 1.1816-.645l1.1812 1.5991c-1.127.897-2.3809 1.3452-3.7622 1.3452-1.563 0-2.7627-.4604-3.5986-1.3813-.8364-.9209-1.2544-2.1567-1.2544-3.708 0-.9814.1758-1.8628.5273-2.6445.3511-.7812.8662-1.3994 1.5449-1.854.6782-.4541 1.4902-.6812 2.4355-.6812 1.3931 0 2.4834.436 3.2715 1.3086.7876.8721 1.1812 2.084 1.1812 3.6348 0 .3999-.0181.7451-.0542 1.0361zm-2.7627-1.854c-.0244-1.478-.5454-2.2173-1.5635-2.2173-.4966 0-.8813.1816-1.1538.5454-.2729.3633-.4395.9634-.5 1.7993h3.2173v-.1274zM363.9385 144.3696c.4727.5088.709 1.2241.709 2.1445v7.0522h-2.8716v-6.5615c0-.4844-.0757-.8208-.2271-1.0088-.1519-.1875-.3789-.2817-.6816-.2817-.5815 0-1.1392.4185-1.6724 1.2544v6.5977h-2.8716v-9.6514h2.5083l.1997 1.145c.4121-.4844.8569-.8477 1.3359-1.0903.4785-.2422 1.0146-.3633 1.6084-.3633.8365 0 1.4908.2544 1.963.7632zM372.8628 153.1118c-.3516.2427-.7603.4307-1.2266.5635-.4668.1333-.9302.2002-1.3906.2002-2.1084-.0122-3.1626-1.1753-3.1626-3.4897v-4.4712h-1.3633v-1.9995h1.3633v-2.0898l2.8721-.3271v2.417h2.2173l-.3091 1.9995h-1.9082v4.4346c0 .4487.0723.77.2178.9634.1455.1943.3755.291.6909.291.3271 0 .6724-.103 1.0356-.3091l.9634 1.8172zM376.4707 139.2896c.3208.3091.4814.6997.4814 1.1724s-.1606.8633-.4814 1.1724c-.3213.3091-.73.4634-1.2271.4634s-.9028-.1543-1.2178-.4634-.4722-.6997-.4722-1.1724.1572-.8633.4722-1.1724.7207-.4634 1.2178-.4634.9058.1543 1.2271.4634zm.2271 4.6254v9.6514h-2.8716v-9.6514h2.8716zM386.5669 144.3696c.4727.5088.709 1.2241.709 2.1445v7.0522h-2.8716v-6.5615c0-.4844-.0757-.8208-.2271-1.0088-.1519-.1875-.3789-.2817-.6816-.2817-.5815 0-1.1392.4185-1.6724 1.2544v6.5977h-2.8716v-9.6514h2.5083l.1997 1.145c.4121-.4844.8569-.8477 1.3359-1.0903.4785-.2422 1.0146-.3633 1.6084-.3633.8365 0 1.4908.2544 1.963.7632zM397.2637 151.5669c.1025.1699.2695.2974.4995.3818l-.5996 1.8721c-.5938-.0483-1.0786-.1787-1.4541-.3906-.376-.2119-.6665-.5483-.8726-1.0088-.6299.9697-1.5991 1.4541-2.9082 1.4541-.957 0-1.7207-.2788-2.29-.8359-.5693-.5576-.854-1.2847-.854-2.1812 0-1.0542.3877-1.8599 1.1631-2.4175.7754-.5571 1.8965-.8359 3.3623-.8359h.9819v-.418c0-.5698-.1216-.9604-.3638-1.1724-.2427-.2119-.6665-.3184-1.2725-.3184-.3149 0-.6968.0454-1.145.1362-.4482.0913-.9087.2153-1.3813.3726l-.6543-1.8901c.606-.23 1.2271-.4058 1.8633-.5269s1.2266-.1816 1.772-.1816c1.3813 0 2.3931.2847 3.0352.854.6421.5698.9634 1.4238.9634 2.563v3.7441c-.0001.3634.0512.63.1547.7994zm-2.9717-.6724v-1.7085h-.709c-.6543 0-1.1421.1152-1.4634.3452-.3208.2305-.4814.5879-.4814 1.0728 0 .3877.1001.6875.2998.8994.2002.2124.4756.3184.8271.3184.6543 0 1.1631-.3091 1.5269-.9273z"/>
  <g>
    <path class="st1" d="M206.0215 102.7607v-3.3545h-3.0117v3.3545h-.9868V95.605h.9868v2.9912h3.0117V95.605h.9868v7.1558h-.9868zM213.5044 97.9312c.4263.5127.6392 1.2085.6392 2.0879 0 .5674-.0972 1.0679-.291 1.5005-.1938.4331-.4741.7686-.8413 1.0073-.3672.2393-.8032.3584-1.3086.3584-.7686 0-1.3677-.2559-1.7969-.7686-.4292-.5122-.644-1.208-.644-2.0874 0-.5679.0972-1.0679.291-1.501.1938-.4326.4741-.7686.8413-1.0073.3667-.2388.8066-.3584 1.3188-.3584.7685 0 1.3657.2563 1.7915.7686zm-3.2144 2.0981c0 1.3916.4707 2.0874 1.4126 2.0874.9414 0 1.4126-.6992 1.4126-2.0977 0-1.3921-.4673-2.0879-1.4023-2.0879-.9487.0001-1.4229.6998-1.4229 2.0982zM216.5996 102.5684c-.2046-.2109-.3066-.5068-.3066-.8877v-6.5952l.9556-.1143v6.6885c0 .1523.0259.2632.0781.3325.0518.0693.1401.104.2646.104.1313 0 .2495-.021.353-.0625l.2495.6646c-.2285.125-.4814.187-.7583.187-.353 0-.6318-.1055-.8359-.3169zM223.7612 101.9766c.0762.1074.1904.189.3428.2441l-.2183.6646c-.2842-.0347-.5127-.1143-.6855-.2388-.1733-.1245-.3013-.3184-.3843-.5815-.3672.5469-.9106.8203-1.6304.8203-.54 0-.9663-.1519-1.2778-.457-.3115-.3042-.4673-.7026-.4673-1.1943 0-.5815.2095-1.0283.6284-1.3398s1.0127-.4673 1.7812-.4673h.8413v-.4049c0-.3877-.0938-.665-.2803-.8311-.187-.166-.4746-.2495-.8623-.2495-.4014 0-.8931.0972-1.4746.291l-.2393-.6958c.6787-.2495 1.3091-.374 1.8906-.374.6436 0 1.125.1577 1.4434.4727s.478.7632.478 1.3452v2.5029c.0002.2217.0383.3857.1144.4932zm-1.0698-.6597v-1.2563h-.7168c-1.0107 0-1.5161.3735-1.5161 1.1216 0 .3257.0796.5713.2388.7373s.3945.2495.7061.2495c.5468-.0001.9765-.2842 1.288-.8521zM227.0015 101.6494c.1382.1387.2075.3081.2075.5088 0 .2148-.062.4609-.187.7378l-.6958 1.5889h-.6855l.4155-1.7241a.7415.7415 0 0 1-.2129-.2598c-.0518-.1035-.0776-.2178-.0776-.3428 0-.2007.0688-.3701.2075-.5088.1382-.1382.3081-.2075.5088-.2075.2079 0 .3808.0693.5195.2075zM235.2168 97.3184c.2974.104.5815.2598.8516.4673l-.4053.6025c-.249-.1592-.4863-.2769-.7114-.353s-.4619-.1143-.7114-.1143c-.3115 0-.5571.064-.7373.1919-.1802.1284-.27.3032-.27.5249s.0845.3945.2544.519c.1694.1245.4761.2461.9194.3638.6089.1523 1.0645.3599 1.3657.623.3008.2632.4517.623.4517 1.0801 0 .54-.2095.9521-.6284 1.2358-.4189.2842-.9297.4258-1.5317.4258-.8311 0-1.52-.2388-2.0669-.7163l.5088-.582c.4639.3535.9761.5298 1.5371.5298.3599 0 .6455-.0742.8569-.2231.2109-.1489.3169-.3516.3169-.6074 0-.187-.0381-.3379-.1143-.4521-.0767-.1143-.208-.2144-.395-.3013-.1865-.0864-.4604-.1777-.8203-.2749-.5815-.1523-1.0024-.3564-1.2617-.6128-.2598-.2563-.3896-.5815-.3896-.9766 0-.2837.0845-.5415.2544-.7734.1694-.2319.4053-.4121.7065-.54.3008-.1284.6387-.1924 1.0122-.1924.3739-.0001.7098.0521 1.0077.1557zM242.0454 97.9312c.4263.5127.6392 1.2085.6392 2.0879 0 .5674-.0972 1.0679-.291 1.5005-.1938.4331-.4741.7686-.8413 1.0073-.3672.2393-.8032.3584-1.3086.3584-.7686 0-1.3677-.2559-1.7969-.7686-.4292-.5122-.644-1.208-.644-2.0874 0-.5679.0972-1.0679.291-1.501.1938-.4326.4741-.7686.8413-1.0073.3667-.2388.8066-.3584 1.3188-.3584.7686 0 1.3657.2563 1.7915.7686zm-3.2143 2.0981c0 1.3916.4707 2.0874 1.4126 2.0874.9414 0 1.4126-.6992 1.4126-2.0977 0-1.3921-.4673-2.0879-1.4023-2.0879-.9488.0001-1.4229.6998-1.4229 2.0982zM247.0361 102.792c-.2148.6367-.5142 1.1406-.8984 1.5112-.3843.3701-.9331.5933-1.646.6699l-.104-.748c.3599-.062.6475-.1523.8618-.27.2148-.1177.3862-.2686.5142-.4517.1279-.1836.2476-.4312.3584-.7427h-.3218l-1.8384-5.4736h1.0176l1.4644 4.7778 1.4336-4.7778h.9863l-1.8277 5.5049zM258.6787 95.605l-2.2852 7.1558h-1.0591l-2.3057-7.1558h1.0591l1.7969 6.0859 1.7969-6.0859h.9971zM261.3066 94.8467c.1245.1245.1865.2803.1865.4673s-.062.3413-.1865.4624c-.125.1211-.2876.1816-.4883.1816-.1938 0-.353-.0605-.478-.1816-.1245-.1211-.1865-.2754-.1865-.4624s.062-.3428.1865-.4673c.125-.1245.2842-.187.478-.187.2007 0 .3633.0625.4883.187zm0 2.4404v5.4736h-.9556v-5.4736h.9556zM266.79 97.3027c.27.0938.5298.2441.7788.4521l-.457.6021c-.1938-.1382-.3823-.2402-.5659-.3062s-.3862-.0986-.6074-.0986c-.4434 0-.7881.1763-1.0337.5298-.2456.353-.3687.876-.3687 1.5679 0 .6929.1211 1.2031.3638 1.5322.2422.3286.5884.4932 1.0386.4932.2144 0 .4116-.0327.5918-.0986s.3809-.1714.6025-.3169l.436.6235c-.4985.4014-1.0557.6021-1.6719.6021-.7412 0-1.3242-.249-1.75-.7476-.4263-.4985-.6392-1.1875-.6392-2.0669 0-.5815.0972-1.0903.291-1.5269.1938-.436.4688-.7754.8257-1.0176.3564-.2427.7808-.3638 1.2725-.3638.3253.0001.6231.047.8931.1402zM272.2529 102.5117c-.3604.249-.7686.3735-1.2256.3735-.4639 0-.8257-.1333-1.0854-.3999-.2598-.2661-.3896-.6523-.3896-1.1577v-3.3027h-.9556v-.7378h.9556v-1.2358l.9556-.1143v1.3501h1.2983l-.104.7378h-1.1943v3.2612c0 .2837.0503.4897.1509.6177.1001.1284.2681.1924.5034.1924.2148 0 .457-.0728.7271-.2183l.3636.6338zM277.5547 97.9312c.4263.5127.6392 1.2085.6392 2.0879 0 .5674-.0972 1.0679-.291 1.5005-.1938.4331-.4741.7686-.8413 1.0073-.3672.2393-.8032.3584-1.3086.3584-.7686 0-1.3677-.2559-1.7969-.7686-.4292-.5122-.644-1.208-.644-2.0874 0-.5679.0972-1.0679.291-1.501.1938-.4326.4741-.7686.8413-1.0073.3667-.2388.8066-.3584 1.3188-.3584.7685 0 1.3657.2563 1.7915.7686zm-3.2144 2.0981c0 1.3916.4707 2.0874 1.4126 2.0874.9414 0 1.4126-.6992 1.4126-2.0977 0-1.3921-.4673-2.0879-1.4023-2.0879-.9487.0001-1.4229.6998-1.4229 2.0982zM283.314 97.2251l-.1768.9346c-.166-.0415-.3257-.062-.4775-.062-.3394 0-.6128.1245-.8208.3735-.2075.2495-.3701.6372-.4878 1.1636v3.126h-.9556v-5.4736h.8203l.0938 1.1113c.145-.4082.3423-.7163.5918-.9243.249-.2075.54-.3115.8726-.3115.1933-.0001.3735.0209.54.0624zM285.9834 94.8467c.1245.1245.1865.2803.1865.4673s-.062.3413-.1865.4624c-.125.1211-.2876.1816-.4883.1816-.1938 0-.353-.0605-.478-.1816-.1245-.1211-.1865-.2754-.1865-.4624s.062-.3428.1865-.4673c.125-.1245.2842-.187.478-.187.2007 0 .3633.0625.4883.187zm0 2.4404v5.4736h-.9556v-5.4736h.9556zM292.3809 101.9766c.0762.1074.1904.189.3428.2441l-.2183.6646c-.2842-.0347-.5127-.1143-.6855-.2388-.1733-.1245-.3013-.3184-.3843-.5815-.3672.5469-.9106.8203-1.6304.8203-.54 0-.9663-.1519-1.2778-.457-.3115-.3042-.4673-.7026-.4673-1.1943 0-.5815.2095-1.0283.6284-1.3398s1.0127-.4673 1.7812-.4673h.8413v-.4049c0-.3877-.0938-.665-.2803-.8311-.187-.166-.4746-.2495-.8623-.2495-.4014 0-.8931.0972-1.4746.291l-.2393-.6958c.6787-.2495 1.3091-.374 1.8906-.374.6436 0 1.125.1577 1.4434.4727s.478.7632.478 1.3452v2.5029c.0001.2217.0382.3857.1144.4932zm-1.0699-.6597v-1.2563h-.7168c-1.0107 0-1.5161.3735-1.5161 1.1216 0 .3257.0796.5713.2388.7373s.3945.2495.7061.2495c.5468-.0001.9765-.2842 1.288-.8521zM295.6313 101.6494c.1382.1387.2075.3081.2075.5088 0 .2012-.0693.3726-.2075.5142-.1387.1421-.3115.2129-.5195.2129-.2007 0-.3701-.0708-.5088-.2129-.1387-.1416-.2075-.313-.2075-.5142 0-.2007.0688-.3701.2075-.5088.1387-.1382.3081-.2075.5088-.2075.208 0 .3809.0693.5195.2075zm0-6.0444l-.104 4.7671h-.8413l-.1143-4.7671h1.0596z"/>
  </g>
  <path fill="none" stroke="#949494" stroke-width=".2856" stroke-miterlimit="10" d="M62.8073 230.4803h376.6434"/>
  <g>
    <path class="st4" d="M490.6494 118.8936c-1.5499.8047-3.5624.0874-4.6809-1.2538-1.1184-1.3412-1.5076-3.1445-1.6411-4.8858-.071-.9272-.0733-1.8948.3094-2.7423.8011-1.7746 3.1739-2.4529 5.0002-1.7778 1.8263.6751 3.1047 2.3896 3.7679 4.2202.3967 1.0951.611 2.2764.4521 3.4303-.1588 1.1539-.719 2.278-1.6512 2.9763M498.0291 108.0909c-.9998.1418-2.0253.1948-3.0142-.0097-.9889-.2045-1.9444-.6859-2.5818-1.4691-.5459-.6709-.8279-1.5158-1.0396-2.3545-.2393-.9479-.4013-1.9562-.1277-2.8948.4275-1.4666 1.932-2.4879 3.4591-2.5304 1.5271-.0425 3.0048.7976 3.9197 2.021.9149 1.2234 1.3044 2.7861 1.2868 4.3137-.0114.9872-.2063 2.0215-.8388 2.7796M475.2645 115.451c-1.3158.0543-2.6655-.4437-3.5578-1.4121-.8923-.9685-1.277-2.4085-.8912-3.6676.1786-.5828.5068-1.11.884-1.5889 1.5183-1.9278 4.0757-3.1527 6.4703-2.6162.6436.1442 1.269.4143 1.7621.8522.3718.3302.6595.7476.8776 1.1943.7917 1.6214.6198 3.671-.4309 5.1379-1.0508 1.4669-2.936 2.2892-4.726 2.0613M481.8062 102.8057c-1.4918.3472-3.1104.2319-4.4812-.4515s-2.4638-1.959-2.7993-3.4534c-.3356-1.4944.1468-3.1763 1.3104-4.1723.5883-.5036 1.317-.8215 2.0655-1.0203 1.8647-.4952 4.0202-.2125 5.4358 1.0983 1.1562 1.0707 1.692 2.7412 1.4719 4.3016-.2201 1.5604-1.1593 2.9849-2.4507 3.888M493.6577 80.3229c-1.3432.2857-2.7128.573-4.079.4345-1.3662-.1385-2.7537-.7745-3.4574-1.9538-.2852-.478-.4455-1.0193-.5767-1.5603-.1363-.562-.2448-1.141-.186-1.7164.1814-1.7735 1.8566-3.0012 3.4953-3.7031 1.7116-.7332 3.7454-1.1359 5.3929-.2682 1.463.7705 2.3204 2.4756 2.2503 4.1276-.0701 1.652-.9881 3.2068-2.288 4.2287M489.2596 89.6441c-1.5594 1.3751-3.7252 2.1573-5.76 1.731-2.0349-.4263-3.8039-2.2197-3.876-4.2975-.0148-.4252.0386-.8566.1942-1.2526.2414-.6144.7119-1.1087 1.202-1.5509 1.5058-1.3584 3.5089-2.4213 5.5005-2.0385 1.4555.2798 2.7286 1.3667 3.2333 2.7603.5046 1.3936.2226 3.0436-.7162 4.1905M503.1713 97.281c-1.6017.3159-3.3259-.0451-4.6663-.9771-.402-.2795-.7765-.6154-1.019-1.0407-.1782-.3126-.2791-.6622-.3781-1.0081-.3707-1.2951-.735-2.6969-.2701-3.9612.3518-.9566 1.1444-1.6978 2.0309-2.2006.5072-.2877 1.0704-.5127 1.6534-.5037.6598.0102 1.2753.3162 1.8549.6319.9416.5128 1.8918 1.1007 2.4738 2.0011.4307.6663.626 1.4534.8084 2.2255.2173.9198.4267 1.8753.2411 2.802-.1855.9268-.8757 1.8209-1.8139 1.9359"/>
    <path class="st5" d="M485.6186 107.1424c3.3032-7.6773 8.314-14.3614 11.3263-22.2082 3.3543-8.7377 6.202-17.6464 7.5332-26.9329.1825-1.2728-1.7656-1.8226-1.9499-.5375-1.2455 8.6879-3.8232 17.0025-6.8832 25.2088-3.111 8.3432-8.2829 15.3388-11.7725 23.4493-.5088 1.1826 1.2327 2.2138 1.7461 1.0205z"/>
  </g>
  <g>
    <path class="st6" d="M456.7337 26.0747c.9905-10.6567 8.0807-18.631 15.0325-26.1677 1.0281-1.1146-.6361-2.787-1.6682-1.6681-7.4301 8.0552-14.6689 16.4898-15.7235 27.8358-.1404 1.511 2.2196 1.5014 2.3592 0z"/>
    <path class="st6" d="M458.6764 5.6795c4.0387-2.1945 8.1991-4.0887 12.5126-5.679 1.4125-.5208.8018-2.8017-.6272-2.2748-4.5015 1.6597-8.8601 3.626-13.0761 5.9168-1.3344.7251-.1449 2.7628 1.1907 2.037z"/>
    <path class="st7" d="M455.1156 27.3921c-1.6753 2.3868-4.1729 4.0995-6.8377 5.2836-1.2846.5708-2.6637 1.0371-4.0665.9467-1.4028-.0904-2.8353-.8446-3.3883-2.137-.7076-1.6535.2572-3.6472 1.7402-4.6648 1.4829-1.0176 3.3439-1.2808 5.1346-1.4487 2.7303-.256 5.5758-.3394 8.1149.6963"/>
    <path class="st7" d="M456.0877 26.3637c1.6425 4.0487 1.9669 8.6201.9123 12.8601-.4911 1.9744-1.3415 3.9681-2.9561 5.2061-1.6146 1.2379-4.1443 1.4476-5.5927.0187-.7948-.7841-1.1541-1.9272-1.1997-3.0428-.0859-2.0997.8264-4.1043 1.8332-5.9489a50.3922 50.3922 0 0 1 5.9616-8.6389M458.1929 17.3226c-.4912 3.8338.4699 7.8361 2.6487 11.0288.684 1.0023 1.5007 1.9416 2.5397 2.5683 1.0391.6266 2.3272.9118 3.4903.5657 2.1186-.6304 3.1811-3.2017 2.7805-5.3755s-1.8965-3.978-3.4971-5.5026a31.7316 31.7316 0 0 0-6.4607-4.7522M462.1335 10.7158c1.7209 3.6242 4.581 6.6973 8.0726 8.6735.5088.288 1.0482.5585 1.631.6045 1.0342.0816 1.9758-.5459 2.8224-1.1455.4774-.3381.9691-.6915 1.2657-1.1957.4138-.7035.3745-1.6071.0616-2.361s-.8682-1.3808-1.4586-1.9443c-2.9373-2.8031-7.031-4.3557-11.0885-4.2055M458.3404 6.2968c-.7377 2.3998-2.1056 4.6701-4.1577 6.1163s-4.8392 1.957-7.1431.9596c-.3527-.1527-.7027-.3477-.9308-.657-.2889-.3919-.3401-.9052-.3702-1.3912-.0451-.7289-.0631-1.4761.158-2.1721.3373-1.0617 1.2044-1.8899 2.184-2.4203s2.0751-.801 3.1569-1.0664l4.3472-1.0666c.8936-.2192 1.8549-.4351 2.713-.1031"/>
    <path class="st7" d="M457.2392 5.3478c-3.8033.9197-7.904.5615-11.4903-1.0037-.7424-.324-1.5125-.7469-1.8609-1.4783-.3243-.6809-.2121-1.4831-.0445-2.2184.1899-.8331.4554-1.6772 1.0057-2.3308.7096-.8427 1.8291-1.2685 2.9299-1.3124 1.1008-.0439 2.1891.2589 3.2102.6726 3.297 1.3357 6.0828 3.8928 7.6953 7.0636"/>
    <path class="st8" d="M451.3197 41.5959c1.2029.3521 2.4596-.1708 3.0478-1.2827.5161-.9758.8497-2.5793.14-3.5179-.8294-1.0969-2.3578-.9623-3.3218-.1432-.4343.369-.7839.8813-.9383 1.4337a2.5162 2.5162 0 0 0-.079.9275c.0144.1463.0385.2897.0758.4313.1323.5024-.0245.0137.2414-.2034-.4938.4032-.4186 1.2496 0 1.6681.4883.4883 1.1731.4042 1.6681 0 .4766-.3892.6201-1.0559.4987-1.6398-.0255-.1226-.1374-.5962-.1569-.4669.0353-.2342.2299-.2586.3169-.4397.0401-.0834.0475.0098.0485-.0252.0005-.0169-.3055-.256-.3072-.2545-.0768.0661-.094.5783-.1235.6974-.0418.1683-.0828.3965-.2121.5249-.1338.1328-.1197.0599-.2712.0156-1.46-.4273-2.0835 1.8486-.6272 2.2748zM445.1222 30.8089c1.0449.566 2.2632.6617 3.3715.2157 1.0988-.4422 2.1351-1.4364 2.0743-2.7073-.0733-1.5336-1.6691-1.8491-2.8866-1.5568-1.1974.2875-2.2509 1.0764-2.5896 2.2919-.4081 1.4648 1.8673 2.0899 2.2748.6271.1004-.3603.952-.8892 1.2672-.6605l-.4232-.4232c-.1158-.1608.1353-.1952-.0311-.1422-.0608.0193-.1384.1451-.1874.1852-.1543.1261-.3429.2021-.5309.2559-.3947.113-.7886.072-1.1485-.123-1.3349-.723-2.5273 1.3131-1.1905 2.0372zM451.0811 11.5321c1.1623-.0362 2.3999-.7542 2.4492-2.0374.0481-1.251-1.0967-2.3157-2.347-1.9346-1.1146.3398-2.2583 1.4344-2.232 2.6603.0296 1.3776 1.5467 2.4319 2.7909 1.631.5351-.3445.7546-1.0472.4232-1.6139-.3116-.5327-1.076-.7694-1.6139-.4232.2603-.1676.6712.0406.7465.3209.149.5544-.0154.1353-.0236.1314-.0205-.01.6298-.5279.6134-.4594-.0844.3533-.6686-.2118-.6938-.2916-.0305-.0965.0019-.1626.008-.2568.0027-.0422.0717-.1026.0727-.1177.0618-.0211.0253-.0112-.1096.0296.0928-.0034.0648-.0026-.0841.0023-1.5144.0472-1.521 2.4065.0001 2.3591zM448.2694 3.1049c1.036.8207 2.5225 1.2538 3.5912.2109.4489-.4381.6999-1.0421.6554-1.6687-.0523-.736-.5237-1.2466-1.0966-1.6532-.9948-.7061-2.5561-1.6636-3.6389-.6106-1.1266 1.0956-.4562 2.5953.5424 3.4682.4794.419 1.1964.4717 1.6682 0 .4278-.4278.4816-1.2471 0-1.6681-.0902-.0789-.3471-.4115-.4467-.4348a11.4873 11.4873 0 0 0-.0229-.0512c.085.3528-.1349.5356-.6596.5484.0643.0803.3612.1774.4425.2206.2075.1101.41.2288.6083.3545.0069.0044.3947.2541.3745.2731-.0785.074-.1075-.6071-.0408-.4967-.0096-.0159-.2363-.1029-.309-.1605-.4989-.3952-1.1811-.487-1.6681 0-.4102.4102-.502 1.2704.0001 1.6681zM465.2029 27.0682c2.2992-1.1159.7091-5.1906-1.5546-5.2345-1.305-.0253-2.1977 1.0866-2.0202 2.3492.1658 1.1792 1.0388 2.13 1.9718 2.7966.5186.3706 1.313.0911 1.6139-.4232.3467-.5928.0967-1.2424-.4232-1.6139-.2686-.1919-.5114-.4479-.677-.7348.0167.0289-.2154-.3583-.1629-.3425.2995.0901-.3903.3549-.3873.3202.0023-.0269.1734.2615.2099.3485.0417.0993.1047.543.1753.5839a.6356.6356 0 0 1 .0005.0662c.0778-.0489.0988-.0998.0631-.1526-.573.2781-.7271 1.0943-.4232 1.6139.3423.585 1.0387.7021 1.6139.423zM469.0225 16.5686c1.1507.6835 2.991.1696 3.4418-1.159.4683-1.3799-.5861-2.6643-1.8316-3.1292-1.0976-.4097-2.8502-.2494-3.4083.9364-.6482 1.3773.948 2.8017 1.9833 3.4459 1.2928.8043 2.4785-1.2358 1.1907-2.037-.2262-.1408-.4155-.2841-.6035-.4747-.0758-.0769-.1438-.1811-.2262-.249-.2216-.1826.0008-.3349-.1288.0829l-.3033.5205c.1832-.1986.7097-.0445.8971.0828.178.121.2268.2837.2908-.061.0504-.2716.1396.0476-.0894-.0173-.0196-.0056.0068.0389-.0219.0219-1.3084-.7773-2.4963 1.2613-1.1907 2.0368z"/>
  </g>
  <g>
    <path class="st7" d="M501.9229-1.7939c3.4142 12.0677 4.4662 25.4985-1.0434 36.7647-5.3655 10.9715-16.5605 19.1959-18.5017 31.2538-.5024-3.2523-3.3913-5.5896-4.6359-8.636-1.0029-2.4548-.8763-5.2102-.623-7.8498.9081-9.4646 3.3649-19.0463 9.0204-26.6895 2.9479-3.9839 6.6728-7.322 9.8791-11.101 3.2063-3.7791 5.9666-8.2183 6.3986-13.1555"/>
    <path class="st4" d="M459.9809 48.707c1.6253-4.7412 2.7571-9.6362 4.2337-14.4259 2.8204-9.1487 7.0334-18.0914 13.8065-24.8574S494.4287-1.686 503.9263-.482c-2.8644 5.5168-5.7372 11.0476-9.2144 16.2003-9.4218 13.9617-22.8853 24.6085-36.126 35.0191"/>
  </g>
  <g>
    <path class="st4" d="M454.7222 63.8387c4.0386-2.6623 7.7287-5.8415 11.0896-9.3124 3.3625-3.4753 6.3123-7.3306 8.8803-11.3946 2.5934-4.0511 4.8091-8.3041 6.8579-12.6156 2.0317-4.3316 3.8273-8.7292 5.8882-13.1742a.7462.7462 0 0 1 .9895-.3666c.2944.1353.4583.442.4315.7473-.4639 4.9795-2.0532 9.7734-4.1783 14.2679-2.108 4.515-4.8203 8.7245-7.841 12.6524-3.0462 3.915-6.3973 7.5561-9.9389 10.9743-3.5428 3.4224-7.3611 6.5334-11.3405 9.4305-.3284.2393-.7886.1671-1.0279-.1614a.7357.7357 0 0 1 .1896-1.0476z"/>
  </g>
  <g>
    <path class="st9" d="M444.6283 75.5672c-1.8614 1.4503-5.0503.4613-5.7645-1.7877-.1152-.363-.1777-.7519-.3872-1.0699-.2372-.3602-.63-.5805-.9615-.8565-1.4931-1.2431-1.5081-3.8591-.0294-5.1192.6498-.5537 1.5868-.9772 1.6895-1.8247.0759-.6263-.3605-1.1809-.6795-1.7253a5.217 5.217 0 0 1-.7116-2.5597c-.0143-1.159.6754-2.5462 1.8335-2.501.469.0183.9483.277 1.386.1074.4975-.1927.6445-.8121.9715-1.2336.5303-.6837 1.558-.8034 2.3731-.5131.8151.2903 1.4677.9023 2.0949 1.4983 1.3394-2.1107 4.2852-3.4073 6.43-2.123.5164.3092.9499.7407 1.4587 1.0622.9133.5771 2.0417.7832 2.8825 1.4616 1.3172 1.0627 1.5104 3.2533.3996 4.5302 1.0281.6413 2.0702 1.3486 2.6943 2.3873s.709 2.4986-.1187 3.3835c-.212.2267-.486.4279-.5572.73-.0634.2693.0536.5434.1077.8148.223 1.1185-.6426 2.1704-1.5953 2.7974-.9528.6269-2.069 1.0437-2.8398 1.8844-.6944.7573-1.0286 1.7755-1.6311 2.6077-.6025.8322-1.7071 1.4922-2.6347 1.0504-.2767-.1318-.5467-.3589-.848-.3025-.3258.0609-.4934.4154-.743.6335-.5889.5146-1.498.2005-2.204-.1358-.7064-.3364-1.4293-.6846-1.9713-1.2488-.542-.5642-.8727-1.3999-.6283-2.1431"/>
    <path class="st4" d="M445.8101 68.4218c.3146 1.5982 2.0496 2.8053 3.6372 2.441 1.5876-.3642 2.6213-2.3258 1.9332-3.8022-.2471-.5301-.6626-.96-1.0707-1.379-.4327-.4444-.9037-.9104-1.5114-1.034-.7201-.1465-1.469.2464-1.9275.8206s-.6757 1.3019-.8323 2.0199"/>
  </g>
  <g>
    <path class="st7" d="M8.5322 187.132l2.5424 9.1256c.529 1.8988 1.0626 3.8343.9935 5.8042-.1163 3.3143-1.9291 6.4449-1.7442 9.756.1507 2.6996 1.6039 5.1238 2.5509 7.6563 1.1196 2.9939 1.5415 6.1956 1.9556 9.365.2066 1.5811.4132 3.1853.1907 4.7643-.1888 1.3401-.6808 2.6164-1.1845 3.8725A165.4341 165.4341 0 0 1-.1053 264.6614c4.249-11.1471 2.5088-23.6789-.7324-35.1596-.6701-2.3734-1.4076-4.7682-1.4329-7.2343-.0198-1.9326.3999-3.8411.8688-5.716a105.5909 105.5909 0 0 1 4.6688-14.2681c1.0374-2.5424 2.1758-5.0493 3.0058-7.6667a34.5893 34.5893 0 0 0 1.6081-11.1062"/>
  </g>
  <g>
    <path class="st8" d="M7.9635 183.1842c-3.2503 3.2197-5.3462 7.4042-8.1705 11.0034-3.55 4.5239-8.2757 8.1574-11.053 13.1928-4.1047 7.442-3.2046 16.8026.1104 24.6283 1.7838 4.2108 4.2052 8.1232 6.0861 12.2915 3.0012 6.6511 4.5926 13.9343 4.6392 21.2311 2.1833-1.1001 3.0485-3.7191 3.6628-6.0854 2.0016-7.711 3.5411-15.799 1.9572-23.6065-1.1109-5.4762-3.7297-10.6362-4.1497-16.2081-.4635-6.1499 1.7886-12.1369 3.853-17.9484s4.0014-11.9837 2.8953-18.0511"/>
  </g>
  <g>
    <path class="st4" d="M41.8604 193.0812c-5.499 2.7222-10.7471 6.0097-15.3312 10.0884-3.0381 2.7031-5.7644 5.7339-8.4835 8.7576-2.3353 2.5968-4.6769 5.2015-6.6829 8.0603-4.3233 6.1612-6.9817 13.3644-8.64 20.7061-1.6583 7.3417-2.3555 14.8615-3.0488 22.3562.5413.0219.9549-.4609 1.2559-.9113 3.5217-5.269 3.8104-11.9883 5.7981-18.0061 1.9388-5.8699 5.5902-11.1629 10.389-15.0598 3.5628-2.8932 7.6866-4.9954 11.592-7.4061s7.7042-5.2417 10.1378-9.1331c3.4944-5.5878 3.7197-12.6719 2.5023-19.1489"/>
  </g>
  <g>
    <path class="st5" d="M50.157 218.7854a97.1692 97.1692 0 0 1-15.676 19.4535c-1.5168 1.4515-3.1126 2.8753-5.018 3.7569-1.3928.6444-2.9052.9774-4.3687 1.4394-1.7933.5661-3.529 1.3337-5.1077 2.3557-3.784 2.4495-6.478 6.2114-9.4233 9.6236s-6.4837 6.6873-10.9079 7.5501c2.0735-2.2299 4.1672-4.4873 5.6596-7.1415 1.2919-2.2977 2.0973-4.8301 3.1123-7.2629 3.1728-7.6051 8.4869-14.3033 15.171-19.1226 1.5493-1.1171 3.1735-2.137 4.8948-2.9649 1.6508-.794 3.3814-1.4073 5.1081-2.0189l6.8196-2.4156c3.233-1.1452 6.471-2.2919 9.7917-3.15"/>
  </g>
  <g>
    <path class="st9" d="M73.5694 244.3875l-7.8124-.8288c-4.5733-.4852-9.1711-.971-13.7624-.7066-9.0114.5189-17.8985 3.9152-26.8481 2.7406-2.3454-.3078-4.6551-.9285-7.0193-1.0062-5.055-.1662-10.0436 2.2797-13.332 6.1226s-4.9229 8.9656-4.8967 14.0233c2.8382-3.3877 5.818-6.885 9.8494-8.696 5.0804-2.2822 10.9294-1.5144 16.4787-1.0415 3.6029.3071 7.2181.4703 10.8341.4893 1.9311.0102 3.879-.0227 5.7632-.4453 2.1197-.4754 4.0957-1.4292 6.0762-2.3218a119.1762 119.1762 0 0 1 24.5814-8.0004"/>
  </g>
  <g>
    <path class="st4" d="M73.577 244.7362c-4.6721 4.4477-9.8488 10.4519-15.1598 14.1131-1.5762 1.0865-3.2224 2.1088-5.0366 2.7198-6.2465 2.1038-12.9994-.984-19.589-.8386-5.2984.117-10.3631 2.3319-15.655 2.6177-3.0813.1664-6.1585-.326-9.2436-.3913-3.0851-.0653-6.3207.3511-8.8531 2.1143.6051-2.2286 2.1603-5.4612 4.0637-6.7688 6.8801-4.7268 12.5002-6.2808 20.7929-7.2342 8.0813-.9291 19.213.2435 26.7665-2.7758 1.8855-.7537 3.6642-1.7785 5.605-2.3755 2.2477-.6914 4.6293-.7841 6.9793-.8716 3.1219-.1162 6.2825-.9984 9.3297-.3091"/>
  </g>
</svg>
