<?xml version="1.0" encoding="utf-8"?>
<!-- Generator: Adobe Illustrator 23.0.1, SVG Export Plug-In . SVG Version: 6.00 Build 0)  -->
<svg version="1.1" id="Layer_1" xmlns="http://www.w3.org/2000/svg" xmlns:xlink="http://www.w3.org/1999/xlink" x="0px" y="0px"
	 viewBox="0 0 500 262" style="enable-background:new 0 0 500 262;" xml:space="preserve">
<style type="text/css">
	.st0{fill:#EEEEEE;}
	.st1{fill:none;stroke:#949494;stroke-width:0.2856;stroke-miterlimit:10;}
	.st2{fill:#A5CAFA;}
	.st3{fill:#FAA76C;}
	.st4{fill:#325ADA;}
	.st5{fill:#9B6FEF;}
	.st6{fill:#F09A82;}
	.st7{fill:#6610EF;}
	.st8{fill:#FCCAA7;}
	.st9{fill:none;stroke:#808080;stroke-width:0.2756;stroke-miterlimit:10;}
	.st10{fill:none;stroke:#808080;stroke-width:0.3028;stroke-miterlimit:10;}
	.st11{fill:none;stroke:#6536CA;stroke-width:0.2954;stroke-miterlimit:10;}
	.st12{fill:#212D50;}
	.st13{fill:#6536CA;}
	.st14{fill:#FF9C6E;}
</style>
<rect x="-13.0656" y="0.0199" class="st2" width="523.4124" height="269.9801"/>
<line class="st11" x1="53.6901" y1="148.9563" x2="443.2956" y2="148.9563"/>
<g>
	<g>
		<path class="st12" d="M75.751,126.0098c1.1934,0.8799,1.79,2.4785,1.79,4.7939c0,2.2803-0.5732,3.8877-1.7188,4.8203
			c-1.1465,0.9336-2.688,1.4004-4.626,1.4004h-4.1646v-12.335h3.9521C72.9688,124.6895,74.5576,125.1299,75.751,126.0098z
			 M70.6826,127.2588v7.1963h0.7266c0.5669,0,1.022-0.1123,1.3647-0.3369c0.3423-0.2246,0.5962-0.5996,0.7617-1.126
			c0.1655-0.5254,0.2485-1.2549,0.2485-2.1885c0-0.9219-0.0859-1.6396-0.2573-2.1533s-0.4282-0.874-0.771-1.0811
			s-0.7856-0.3105-1.3291-0.3105H70.6826z"/>
		<path class="st12" d="M88.1924,133.2852h-5.7422c0.0947,0.6377,0.2925,1.0664,0.5938,1.2842
			c0.3013,0.2197,0.7354,0.3281,1.3027,0.3281c0.3306,0,0.6675-0.0674,1.0103-0.2031c0.3423-0.1357,0.7207-0.3457,1.1343-0.6299
			l1.418,1.9141c-1.1465,0.9336-2.4458,1.4004-3.8994,1.4004c-1.6777,0-2.9478-0.4639-3.8101-1.3916
			c-0.8628-0.9268-1.2939-2.1533-1.2939-3.6768c0-0.9453,0.1802-1.8047,0.5405-2.5791c0.3604-0.7734,0.895-1.3877,1.604-1.8428
			s1.5654-0.6826,2.5698-0.6826c0.9331,0,1.7485,0.1953,2.4458,0.585c0.6968,0.3896,1.2373,0.957,1.6216,1.7012
			c0.3838,0.7441,0.5757,1.6367,0.5757,2.6758C88.2632,132.4639,88.2397,132.8359,88.1924,133.2852z M84.8076,131.1758
			c-0.0122-0.5547-0.0977-0.9863-0.2573-1.2939c-0.1592-0.3066-0.4458-0.4609-0.8594-0.4609c-0.3901,0-0.6821,0.1367-0.8774,0.4082
			c-0.1948,0.2715-0.3218,0.7617-0.3809,1.4707h2.375V131.1758z"/>
		<path class="st12" d="M95.7329,127.5342c0.644,0.2188,1.1846,0.5166,1.6221,0.8945l-1.2407,1.8965
			c-0.3428-0.2129-0.709-0.3809-1.0991-0.5049c-0.3896-0.124-0.7739-0.1865-1.1519-0.1865c-0.5317,0-0.7974,0.1416-0.7974,0.4258
			c0,0.1182,0.0352,0.2158,0.1064,0.292c0.0708,0.0771,0.2393,0.1719,0.5049,0.2842c0.2661,0.1123,0.6938,0.2568,1.2852,0.4336
			c0.9448,0.2959,1.645,0.6709,2.1001,1.126c0.4546,0.4551,0.6821,1.0957,0.6821,1.9229c0,0.6377-0.1924,1.2051-0.5762,1.7012
			s-0.9155,0.8799-1.5947,1.1523c-0.6797,0.2715-1.4507,0.4072-2.313,0.4072c-0.8271,0-1.604-0.1328-2.3306-0.3984
			c-0.7266-0.2666-1.3379-0.6357-1.834-1.1084l1.6655-1.8428c0.3545,0.2832,0.7417,0.5107,1.1611,0.6826
			c0.4189,0.1709,0.8354,0.2568,1.2495,0.2568c0.3188,0,0.564-0.0508,0.7354-0.1504c0.1709-0.1006,0.2568-0.2451,0.2568-0.4346
			c0-0.165-0.0386-0.293-0.1152-0.3809c-0.0767-0.0889-0.2334-0.1777-0.4697-0.2656c-0.2363-0.0889-0.6499-0.2217-1.2402-0.3994
			c-1.8315-0.543-2.7471-1.5654-2.7471-3.0654c0-0.5791,0.1621-1.0996,0.4873-1.5596c0.3247-0.4609,0.7974-0.8271,1.418-1.0996
			c0.6201-0.2715,1.3613-0.4072,2.2241-0.4072C94.4185,127.2061,95.0889,127.3154,95.7329,127.5342z"/>
		<path class="st12" d="M107.2974,128.4639l-1.4531,2.0381c-0.5439-0.4365-1.0991-0.6553-1.666-0.6553
			c-0.5439,0-0.9453,0.1895-1.2051,0.5674c-0.2603,0.3779-0.3901,1.0273-0.3901,1.9492c0,0.8857,0.1328,1.4922,0.3989,1.8164
			c0.2656,0.3252,0.6523,0.4873,1.1606,0.4873c0.2715,0,0.5259-0.0439,0.7622-0.1328s0.5317-0.2451,0.8862-0.4697l1.5063,2.1445
			c-0.957,0.7803-2.0737,1.1699-3.3496,1.1699c-1.0278,0-1.9204-0.21-2.6763-0.6289c-0.7563-0.4199-1.3354-1.0107-1.7368-1.7725
			c-0.4019-0.7617-0.6025-1.6338-0.6025-2.6143c0-0.9922,0.2036-1.8789,0.6113-2.6582c0.4077-0.7803,0.9839-1.3916,1.728-1.835
			c0.7446-0.4424,1.6069-0.6641,2.5874-0.6641C105.2061,127.2061,106.3521,127.626,107.2974,128.4639z"/>
		<path class="st12" d="M116.9385,137.0244h-3.0659l-0.124-1.0283c-0.6499,0.9219-1.5835,1.3828-2.8003,1.3828
			c-0.8862,0-1.5479-0.2656-1.9849-0.7979c-0.4375-0.5312-0.6558-1.2695-0.6558-2.2148v-6.8057h3.5093v6.3447
			c0,0.3428,0.0498,0.582,0.1504,0.7178c0.1001,0.1357,0.2451,0.2041,0.4341,0.2041c0.1655,0,0.3398-0.0654,0.5229-0.1953
			s0.3516-0.3252,0.5054-0.585v-6.4863h3.5088V137.0244z"/>
		<path class="st12" d="M127.7314,128.5439c0.5908,0.8926,0.8862,2.1475,0.8862,3.7666c0,0.9688-0.1509,1.8369-0.4521,2.6045
			c-0.3013,0.7686-0.7383,1.3711-1.3115,1.8076c-0.5732,0.4375-1.249,0.6562-2.0288,0.6562c-0.5083,0-0.9722-0.1035-1.3916-0.3105
			c-0.4194-0.2061-0.771-0.4932-1.0542-0.8594l-0.124,0.8154h-3.1196v-13.1855l3.5093-0.3545v4.9092
			c0.2598-0.3545,0.6143-0.6406,1.0635-0.8594c0.4487-0.2188,0.9214-0.3281,1.418-0.3281
			C126.272,127.2061,127.1406,127.6523,127.7314,128.5439z M124.6919,134.2949c0.2188-0.3896,0.3281-1.0518,0.3281-1.9844
			c0-1.0166-0.0977-1.7021-0.2925-2.0566s-0.4756-0.5312-0.8418-0.5312c-0.4849,0-0.8979,0.2959-1.2407,0.8857v3.5801
			c0.2715,0.4609,0.644,0.6914,1.1167,0.6914C124.1631,134.8799,124.4731,134.6846,124.6919,134.2949z"/>
		<path class="st12" d="M137.1597,127.4189l-0.5493,3.3848c-0.3188-0.0947-0.6084-0.1416-0.8682-0.1416
			c-0.52,0-0.9072,0.1709-1.1611,0.5137s-0.458,0.8564-0.6113,1.542v4.3066h-3.5093v-9.4639h3.0664l0.2832,1.7725
			c0.2012-0.626,0.52-1.1289,0.957-1.5068s0.9155-0.5674,1.4355-0.5674C136.5098,127.2588,136.8291,127.3125,137.1597,127.4189z"/>
		<path class="st12" d="M141.3955,121.8535l1.3115,2.5527l-4.4487,1.7539l-0.939-1.7539L141.3955,121.8535z M141.9448,127.5605
			v9.4639h-3.5093v-9.4639H141.9448z"/>
		<path class="st12" d="M156.6724,128.4639l-1.4531,2.0381c-0.5439-0.4365-1.0991-0.6553-1.666-0.6553
			c-0.5439,0-0.9453,0.1895-1.2051,0.5674c-0.2603,0.3779-0.3901,1.0273-0.3901,1.9492c0,0.8857,0.1328,1.4922,0.3989,1.8164
			c0.2656,0.3252,0.6523,0.4873,1.1606,0.4873c0.2715,0,0.5259-0.0439,0.7622-0.1328s0.5317-0.2451,0.8862-0.4697l1.5063,2.1445
			c-0.957,0.7803-2.0737,1.1699-3.3496,1.1699c-1.0278,0-1.9204-0.21-2.6763-0.6289c-0.7563-0.4199-1.3354-1.0107-1.7368-1.7725
			c-0.4019-0.7617-0.6025-1.6338-0.6025-2.6143c0-0.9922,0.2036-1.8789,0.6113-2.6582c0.4077-0.7803,0.9839-1.3916,1.728-1.835
			c0.7446-0.4424,1.6069-0.6641,2.5874-0.6641C154.5811,127.2061,155.7271,127.626,156.6724,128.4639z"/>
		<path class="st12" d="M165.5957,128.5352c0.8687,0.8857,1.3027,2.1445,1.3027,3.7754c0,1.0156-0.1982,1.9082-0.5938,2.6758
			c-0.396,0.7686-0.96,1.3584-1.6924,1.7725c-0.7329,0.4131-1.5952,0.6201-2.5879,0.6201c-1.5122,0-2.7026-0.4434-3.5708-1.3291
			c-0.8687-0.8867-1.3027-2.1445-1.3027-3.7754c0-1.0156,0.1978-1.9072,0.5938-2.6758c0.3955-0.7676,0.96-1.3584,1.6924-1.7725
			c0.7324-0.4131,1.5952-0.6201,2.5874-0.6201C163.5371,127.2061,164.7275,127.6494,165.5957,128.5352z M161.0498,130.3252
			c-0.2012,0.4014-0.3013,1.0518-0.3013,1.9492c0,0.9336,0.1001,1.5986,0.3013,1.9941c0.2007,0.3955,0.5259,0.5938,0.9746,0.5938
			c0.4492,0,0.7739-0.2012,0.9751-0.6025c0.2007-0.4014,0.3013-1.0518,0.3013-1.9492c0-0.9336-0.1006-1.5986-0.3013-1.9941
			c-0.2012-0.3955-0.5259-0.5938-0.9751-0.5938C161.5757,129.7227,161.2505,129.9238,161.0498,130.3252z"/>
		<path class="st12" d="M181.4219,127.959c0.4429,0.5029,0.6646,1.1963,0.6646,2.083v6.9824h-3.5093v-6.3447
			c0-0.3428-0.0415-0.582-0.124-0.7178s-0.2007-0.2041-0.3545-0.2041c-0.1772,0-0.3486,0.0801-0.5137,0.2393
			c-0.1655,0.1602-0.3193,0.3936-0.4609,0.7002v6.3271h-3.5093v-6.3447c0-0.3428-0.0415-0.582-0.124-0.7178
			s-0.2007-0.2041-0.3545-0.2041c-0.1772,0-0.3486,0.0801-0.5137,0.2393c-0.1655,0.1602-0.3193,0.3936-0.4609,0.7002v6.3271h-3.5093
			v-9.4639h3.0664l0.248,0.957c0.3779-0.4609,0.7886-0.7949,1.2314-1.001c0.4434-0.207,0.9482-0.3105,1.5156-0.3105
			c0.4961,0,0.9272,0.1182,1.2935,0.3545s0.644,0.5732,0.833,1.0098c0.4019-0.4717,0.8271-0.8174,1.2764-1.0361
			c0.4487-0.2188,0.9683-0.3281,1.5596-0.3281C180.3965,127.2061,180.9785,127.457,181.4219,127.959z"/>
		<path class="st12" d="M192.1973,128.5352c0.8687,0.8857,1.3027,2.1445,1.3027,3.7754c0,1.0156-0.1982,1.9082-0.5938,2.6758
			c-0.396,0.7686-0.96,1.3584-1.6924,1.7725c-0.7329,0.4131-1.5952,0.6201-2.5879,0.6201c-1.5122,0-2.7026-0.4434-3.5708-1.3291
			c-0.8687-0.8867-1.3027-2.1445-1.3027-3.7754c0-1.0156,0.1978-1.9072,0.5938-2.6758c0.3955-0.7676,0.96-1.3584,1.6924-1.7725
			c0.7324-0.4131,1.5952-0.6201,2.5874-0.6201C190.1387,127.2061,191.3291,127.6494,192.1973,128.5352z M187.6514,130.3252
			c-0.2012,0.4014-0.3013,1.0518-0.3013,1.9492c0,0.9336,0.1001,1.5986,0.3013,1.9941c0.2007,0.3955,0.5259,0.5938,0.9746,0.5938
			c0.4492,0,0.7739-0.2012,0.9751-0.6025c0.2007-0.4014,0.3013-1.0518,0.3013-1.9492c0-0.9336-0.1006-1.5986-0.3013-1.9941
			c-0.2012-0.3955-0.5259-0.5938-0.9751-0.5938C188.1772,129.7227,187.8521,129.9238,187.6514,130.3252z"/>
		<path class="st12" d="M212.6313,127.959c0.4429,0.5029,0.6646,1.1963,0.6646,2.083v6.9824h-3.5093v-6.3447
			c0-0.3428-0.0415-0.582-0.124-0.7178s-0.2007-0.2041-0.3545-0.2041c-0.1772,0-0.3486,0.0801-0.5137,0.2393
			c-0.1655,0.1602-0.3193,0.3936-0.4609,0.7002v6.3271h-3.5093v-6.3447c0-0.3428-0.0415-0.582-0.124-0.7178
			s-0.2007-0.2041-0.3545-0.2041c-0.1772,0-0.3486,0.0801-0.5137,0.2393c-0.1655,0.1602-0.3193,0.3936-0.4609,0.7002v6.3271h-3.5093
			v-9.4639h3.0664l0.248,0.957c0.3779-0.4609,0.7886-0.7949,1.2314-1.001c0.4434-0.207,0.9482-0.3105,1.5156-0.3105
			c0.4961,0,0.9272,0.1182,1.2935,0.3545s0.644,0.5732,0.833,1.0098c0.4019-0.4717,0.8271-0.8174,1.2764-1.0361
			c0.4487-0.2188,0.9683-0.3281,1.5596-0.3281C211.606,127.2061,212.188,127.457,212.6313,127.959z"/>
		<path class="st12" d="M218.5684,122.873c0.3726,0.3604,0.5586,0.8057,0.5586,1.3379c0,0.5312-0.186,0.9775-0.5586,1.3379
			c-0.3721,0.3604-0.8418,0.541-1.4087,0.541c-0.5674,0-1.0371-0.1807-1.4092-0.541s-0.5581-0.8066-0.5581-1.3379
			c0-0.5322,0.186-0.9775,0.5581-1.3379s0.8418-0.541,1.4092-0.541C217.7266,122.332,218.1963,122.5127,218.5684,122.873z
			 M218.9141,127.5605v9.4639h-3.5093v-9.4639H218.9141z"/>
		<path class="st12" d="M232.3472,136.5635c-0.3662,0.2598-0.8125,0.4609-1.3379,0.6025c-0.5259,0.1416-1.0254,0.2129-1.4976,0.2129
			c-1.1699-0.0117-2.0356-0.3398-2.5967-0.9834c-0.561-0.6445-0.8418-1.5977-0.8418-2.8623v-3.5977h-1.1343v-2.375h1.1343v-1.9854
			l3.5093-0.4072v2.3926h2.127l-0.3545,2.375h-1.7725v3.5625c0,0.4131,0.0649,0.7061,0.1948,0.877s0.313,0.2568,0.5493,0.2568
			c0.2954,0,0.5908-0.082,0.8862-0.248L232.3472,136.5635z"/>
		<path class="st12" d="M240.2334,127.4189l-0.5493,3.3848c-0.3188-0.0947-0.6084-0.1416-0.8682-0.1416
			c-0.52,0-0.9072,0.1709-1.1611,0.5137s-0.458,0.8564-0.6113,1.542v4.3066h-3.5093v-9.4639h3.0664l0.2832,1.7725
			c0.2012-0.626,0.52-1.1289,0.957-1.5068s0.9155-0.5674,1.4355-0.5674C239.5835,127.2588,239.9028,127.3125,240.2334,127.4189z"/>
		<path class="st12" d="M249.2012,134.6943c0.0825,0.1592,0.2305,0.2803,0.4434,0.3633l-0.709,2.25
			c-0.6382-0.0469-1.1582-0.168-1.5596-0.3633c-0.4019-0.1943-0.7329-0.5107-0.9927-0.9482
			c-0.6143,0.9219-1.5654,1.3828-2.853,1.3828c-0.9336,0-1.687-0.2812-2.2598-0.8418c-0.5732-0.5615-0.8599-1.2852-0.8599-2.1709
			c0-1.0518,0.3901-1.8555,1.1699-2.4102c0.7798-0.5557,1.9141-0.833,3.4028-0.833h0.6733v-0.2305
			c0-0.4727-0.0947-0.792-0.2837-0.957c-0.189-0.166-0.5493-0.248-1.0811-0.248c-0.2832,0-0.6465,0.0439-1.0898,0.1328
			c-0.4429,0.0889-0.895,0.21-1.356,0.3633l-0.7617-2.2334c0.5786-0.2363,1.208-0.4189,1.8872-0.5488s1.2969-0.1953,1.8521-0.1953
			c1.4888,0,2.5698,0.2861,3.2432,0.8594c0.6738,0.5732,1.0103,1.4502,1.0103,2.6318v3.2607
			C249.0771,134.2891,249.1187,134.5342,249.2012,134.6943z M245.2051,134.7559c0.1826-0.1064,0.3335-0.2422,0.4517-0.4072v-1.4004
			h-0.3721c-0.4961,0-0.8628,0.0889-1.0986,0.2656c-0.2368,0.1777-0.3545,0.4492-0.3545,0.8154
			c0,0.2715,0.0708,0.4873,0.2124,0.6465c0.1421,0.1602,0.3306,0.2393,0.5674,0.2393
			C244.8237,134.915,245.0215,134.8623,245.2051,134.7559z"/>
		<path class="st12" d="M259.959,128.5439c0.5908,0.8926,0.8862,2.1475,0.8862,3.7666c0,0.9688-0.1509,1.8369-0.4521,2.6045
			c-0.3013,0.7686-0.7383,1.3711-1.3115,1.8076c-0.5732,0.4375-1.249,0.6562-2.0288,0.6562c-0.5083,0-0.9722-0.1035-1.3916-0.3105
			c-0.4194-0.2061-0.771-0.4932-1.0542-0.8594l-0.124,0.8154h-3.1196v-13.1855l3.5093-0.3545v4.9092
			c0.2598-0.3545,0.6143-0.6406,1.0635-0.8594c0.4487-0.2188,0.9214-0.3281,1.418-0.3281
			C258.4995,127.2061,259.3682,127.6523,259.959,128.5439z M256.9194,134.2949c0.2188-0.3896,0.3281-1.0518,0.3281-1.9844
			c0-1.0166-0.0977-1.7021-0.2925-2.0566s-0.4756-0.5312-0.8418-0.5312c-0.4849,0-0.8979,0.2959-1.2407,0.8857v3.5801
			c0.2715,0.4609,0.644,0.6914,1.1167,0.6914C256.3906,134.8799,256.7007,134.6846,256.9194,134.2949z"/>
		<path class="st12" d="M270.8232,134.6943c0.0825,0.1592,0.2305,0.2803,0.4434,0.3633l-0.709,2.25
			c-0.6382-0.0469-1.1582-0.168-1.5596-0.3633c-0.4019-0.1943-0.7329-0.5107-0.9927-0.9482
			c-0.6143,0.9219-1.5654,1.3828-2.853,1.3828c-0.9336,0-1.687-0.2812-2.2598-0.8418c-0.5732-0.5615-0.8599-1.2852-0.8599-2.1709
			c0-1.0518,0.3901-1.8555,1.1699-2.4102c0.7798-0.5557,1.9141-0.833,3.4028-0.833h0.6733v-0.2305
			c0-0.4727-0.0947-0.792-0.2837-0.957c-0.189-0.166-0.5493-0.248-1.0811-0.248c-0.2832,0-0.6465,0.0439-1.0898,0.1328
			c-0.4429,0.0889-0.895,0.21-1.356,0.3633l-0.7617-2.2334c0.5786-0.2363,1.208-0.4189,1.8872-0.5488s1.2969-0.1953,1.8521-0.1953
			c1.4888,0,2.5698,0.2861,3.2432,0.8594c0.6738,0.5732,1.0103,1.4502,1.0103,2.6318v3.2607
			C270.6992,134.2891,270.7407,134.5342,270.8232,134.6943z M266.8271,134.7559c0.1826-0.1064,0.3335-0.2422,0.4517-0.4072v-1.4004
			h-0.3721c-0.4961,0-0.8628,0.0889-1.0986,0.2656c-0.2368,0.1777-0.3545,0.4492-0.3545,0.8154
			c0,0.2715,0.0708,0.4873,0.2124,0.6465c0.1421,0.1602,0.3306,0.2393,0.5674,0.2393
			C266.4458,134.915,266.6436,134.8623,266.8271,134.7559z"/>
		<path class="st12" d="M276.3174,135.6602c0,1.5352-0.3784,2.708-1.1343,3.5176c-0.7563,0.8096-1.8076,1.4326-3.1548,1.8701
			l-1.2051-2.5527c0.4609-0.2119,0.8271-0.4189,1.0991-0.6201c0.2715-0.2012,0.4873-0.4609,0.6465-0.7793
			c0.1597-0.3193,0.2393-0.7266,0.2393-1.2236v-8.3115h3.5093V135.6602z M275.9717,122.873
			c0.3726,0.3604,0.5586,0.8057,0.5586,1.3379c0,0.5312-0.186,0.9775-0.5586,1.3379c-0.3721,0.3604-0.8418,0.541-1.4087,0.541
			c-0.5674,0-1.0371-0.1807-1.4092-0.541s-0.5581-0.8066-0.5581-1.3379c0-0.5322,0.186-0.9775,0.5581-1.3379
			s0.8418-0.541,1.4092-0.541C275.1299,122.332,275.5996,122.5127,275.9717,122.873z"/>
		<path class="st12" d="M286.5166,128.5352c0.8687,0.8857,1.3027,2.1445,1.3027,3.7754c0,1.0156-0.1982,1.9082-0.5938,2.6758
			c-0.396,0.7686-0.96,1.3584-1.6924,1.7725c-0.7329,0.4131-1.5952,0.6201-2.5879,0.6201c-1.5122,0-2.7026-0.4434-3.5708-1.3291
			c-0.8687-0.8867-1.3027-2.1445-1.3027-3.7754c0-1.0156,0.1978-1.9072,0.5938-2.6758c0.3955-0.7676,0.96-1.3584,1.6924-1.7725
			c0.7324-0.4131,1.5952-0.6201,2.5874-0.6201C284.458,127.2061,285.6484,127.6494,286.5166,128.5352z M281.9707,130.3252
			c-0.2012,0.4014-0.3013,1.0518-0.3013,1.9492c0,0.9336,0.1001,1.5986,0.3013,1.9941c0.2007,0.3955,0.5259,0.5938,0.9746,0.5938
			c0.4492,0,0.7739-0.2012,0.9751-0.6025c0.2007-0.4014,0.3013-1.0518,0.3013-1.9492c0-0.9336-0.1006-1.5986-0.3013-1.9941
			c-0.2012-0.3955-0.5259-0.5938-0.9751-0.5938C282.4966,129.7227,282.1714,129.9238,281.9707,130.3252z"/>
		<path class="st12" d="M302.7681,128.5352c0.5967,0.8857,0.895,2.127,0.895,3.7217c0,0.9814-0.1567,1.8584-0.4697,2.6318
			c-0.313,0.7744-0.7563,1.3828-1.3291,1.8252c-0.5732,0.4434-1.2319,0.665-1.9761,0.665c-0.8979,0-1.6304-0.3135-2.1978-0.9395
			v4.2539l-3.5093,0.3545v-13.4873h3.1196l0.1416,0.9219c0.3779-0.4492,0.8003-0.7744,1.2671-0.9756
			c0.4668-0.2002,0.9365-0.3008,1.4092-0.3008C301.2881,127.2061,302.1714,127.6494,302.7681,128.5352z M300.0654,132.3105
			c0-0.7207-0.0474-1.2705-0.1421-1.6484s-0.2212-0.6289-0.3809-0.7529c-0.1597-0.125-0.3633-0.1865-0.6113-0.1865
			c-0.4961,0-0.9102,0.2959-1.2407,0.8857v3.6162c0.1533,0.2363,0.313,0.4043,0.4785,0.5049s0.3545,0.1504,0.5674,0.1504
			C299.6221,134.8799,300.0654,134.0234,300.0654,132.3105z"/>
		<path class="st12" d="M314.0488,137.0244h-3.0659l-0.124-1.0283c-0.6499,0.9219-1.5835,1.3828-2.8003,1.3828
			c-0.8862,0-1.5479-0.2656-1.9849-0.7979c-0.4375-0.5312-0.6558-1.2695-0.6558-2.2148v-6.8057h3.5093v6.3447
			c0,0.3428,0.0498,0.582,0.1504,0.7178c0.1001,0.1357,0.2451,0.2041,0.4341,0.2041c0.1655,0,0.3398-0.0654,0.5229-0.1953
			s0.3516-0.3252,0.5054-0.585v-6.4863h3.5088V137.0244z"/>
		<path class="st12" d="M325.0898,133.2852h-5.7422c0.0947,0.6377,0.2925,1.0664,0.5938,1.2842
			c0.3013,0.2197,0.7354,0.3281,1.3027,0.3281c0.3306,0,0.6675-0.0674,1.0103-0.2031c0.3423-0.1357,0.7207-0.3457,1.1343-0.6299
			l1.418,1.9141c-1.1465,0.9336-2.4458,1.4004-3.8994,1.4004c-1.6777,0-2.9478-0.4639-3.8101-1.3916
			c-0.8628-0.9268-1.2939-2.1533-1.2939-3.6768c0-0.9453,0.1802-1.8047,0.5405-2.5791c0.3604-0.7734,0.895-1.3877,1.604-1.8428
			s1.5654-0.6826,2.5698-0.6826c0.9331,0,1.7485,0.1953,2.4458,0.585c0.6968,0.3896,1.2373,0.957,1.6216,1.7012
			c0.3838,0.7441,0.5757,1.6367,0.5757,2.6758C325.1606,132.4639,325.1372,132.8359,325.0898,133.2852z M321.7051,131.1758
			c-0.0122-0.5547-0.0977-0.9863-0.2573-1.2939c-0.1592-0.3066-0.4458-0.4609-0.8594-0.4609c-0.3901,0-0.6821,0.1367-0.8774,0.4082
			c-0.1948,0.2715-0.3218,0.7617-0.3809,1.4707h2.375V131.1758z"/>
		<path class="st12" d="M335.9893,123.8389v13.1855h-3.1196l-0.124-0.9746c-0.6733,0.8857-1.5654,1.3291-2.6758,1.3291
			c-1.1938,0-2.0913-0.4551-2.6938-1.3643c-0.6025-0.9102-0.9038-2.168-0.9038-3.7754c0-0.9688,0.165-1.834,0.4961-2.5967
			c0.3306-0.7617,0.7944-1.3584,1.3911-1.79c0.5967-0.4307,1.2852-0.6465,2.0649-0.6465c0.8149,0,1.5,0.248,2.0557,0.7441v-4.4658
			L335.9893,123.8389z M332.48,134.0293v-3.793c-0.1655-0.1768-0.3311-0.3096-0.4961-0.3984
			c-0.1655-0.0889-0.3486-0.1328-0.5498-0.1328c-0.4136,0-0.7441,0.2041-0.9922,0.6113s-0.3721,1.0605-0.3721,1.958
			c0,1.04,0.103,1.7314,0.3101,2.0742c0.2065,0.3428,0.499,0.5137,0.877,0.5137C331.7534,134.8623,332.1611,134.585,332.48,134.0293
			z"/>
		<path class="st12" d="M347.0303,133.2852h-5.7422c0.0947,0.6377,0.2925,1.0664,0.5938,1.2842
			c0.3013,0.2197,0.7354,0.3281,1.3027,0.3281c0.3306,0,0.6675-0.0674,1.0103-0.2031c0.3423-0.1357,0.7207-0.3457,1.1343-0.6299
			l1.418,1.9141c-1.1465,0.9336-2.4458,1.4004-3.8994,1.4004c-1.6777,0-2.9478-0.4639-3.8101-1.3916
			c-0.8628-0.9268-1.2939-2.1533-1.2939-3.6768c0-0.9453,0.1802-1.8047,0.5405-2.5791c0.3604-0.7734,0.895-1.3877,1.604-1.8428
			s1.5654-0.6826,2.5698-0.6826c0.9331,0,1.7485,0.1953,2.4458,0.585c0.6968,0.3896,1.2373,0.957,1.6216,1.7012
			c0.3838,0.7441,0.5757,1.6367,0.5757,2.6758C347.1011,132.4639,347.0776,132.8359,347.0303,133.2852z M343.6455,131.1758
			c-0.0122-0.5547-0.0977-0.9863-0.2573-1.2939c-0.1592-0.3066-0.4458-0.4609-0.8594-0.4609c-0.3901,0-0.6821,0.1367-0.8774,0.4082
			c-0.1948,0.2715-0.3218,0.7617-0.3809,1.4707h2.375V131.1758z"/>
		<path class="st12" d="M361.6865,134.6943c0.0825,0.1592,0.2305,0.2803,0.4434,0.3633l-0.709,2.25
			c-0.6382-0.0469-1.1582-0.168-1.5596-0.3633c-0.4019-0.1943-0.7329-0.5107-0.9927-0.9482
			c-0.6143,0.9219-1.5654,1.3828-2.853,1.3828c-0.9336,0-1.687-0.2812-2.2598-0.8418c-0.5732-0.5615-0.8599-1.2852-0.8599-2.1709
			c0-1.0518,0.3901-1.8555,1.1699-2.4102c0.7798-0.5557,1.9141-0.833,3.4028-0.833h0.6733v-0.2305
			c0-0.4727-0.0947-0.792-0.2837-0.957c-0.189-0.166-0.5493-0.248-1.0811-0.248c-0.2832,0-0.6465,0.0439-1.0898,0.1328
			c-0.4429,0.0889-0.895,0.21-1.356,0.3633l-0.7617-2.2334c0.5786-0.2363,1.208-0.4189,1.8872-0.5488s1.2969-0.1953,1.8521-0.1953
			c1.4888,0,2.5698,0.2861,3.2432,0.8594c0.6738,0.5732,1.0103,1.4502,1.0103,2.6318v3.2607
			C361.5625,134.2891,361.604,134.5342,361.6865,134.6943z M357.6904,134.7559c0.1826-0.1064,0.3335-0.2422,0.4517-0.4072v-1.4004
			H357.77c-0.4961,0-0.8628,0.0889-1.0986,0.2656c-0.2368,0.1777-0.3545,0.4492-0.3545,0.8154c0,0.2715,0.0708,0.4873,0.2124,0.6465
			c0.1421,0.1602,0.3306,0.2393,0.5674,0.2393C357.3091,134.915,357.5068,134.8623,357.6904,134.7559z"/>
		<path class="st12" d="M369.6621,137.0068c-0.4019,1.3115-1.0869,2.3037-2.0557,2.9775c-0.9692,0.6729-2.2451,1.0332-3.8281,1.0811
			l-0.3726-2.3926c0.9097-0.0947,1.5864-0.2598,2.0293-0.4961c0.4434-0.2373,0.7891-0.6211,1.0371-1.1523h-1.2051l-2.6938-9.4639
			h3.7217l1.1875,7.3193l1.4707-7.3193h3.6157L369.6621,137.0068z"/>
		<path class="st12" d="M382.2983,137.0244h-3.0659l-0.124-1.0283c-0.6499,0.9219-1.5835,1.3828-2.8003,1.3828
			c-0.8862,0-1.5479-0.2656-1.9849-0.7979c-0.4375-0.5312-0.6558-1.2695-0.6558-2.2148v-6.8057h3.5093v6.3447
			c0,0.3428,0.0498,0.582,0.1504,0.7178c0.1001,0.1357,0.2451,0.2041,0.4341,0.2041c0.1655,0,0.3398-0.0654,0.5229-0.1953
			s0.3516-0.3252,0.5054-0.585v-6.4863h3.5088V137.0244z"/>
		<path class="st12" d="M393.6587,123.8389v13.1855h-3.1196l-0.124-0.9746c-0.6733,0.8857-1.5654,1.3291-2.6758,1.3291
			c-1.1938,0-2.0913-0.4551-2.6938-1.3643c-0.6025-0.9102-0.9038-2.168-0.9038-3.7754c0-0.9688,0.165-1.834,0.4961-2.5967
			c0.3306-0.7617,0.7944-1.3584,1.3911-1.79c0.5967-0.4307,1.2852-0.6465,2.0649-0.6465c0.8149,0,1.5,0.248,2.0557,0.7441v-4.4658
			L393.6587,123.8389z M390.1494,134.0293v-3.793c-0.1655-0.1768-0.3311-0.3096-0.4961-0.3984
			c-0.1655-0.0889-0.3486-0.1328-0.5498-0.1328c-0.4136,0-0.7441,0.2041-0.9922,0.6113s-0.3721,1.0605-0.3721,1.958
			c0,1.04,0.103,1.7314,0.3101,2.0742c0.2065,0.3428,0.499,0.5137,0.877,0.5137
			C389.4229,134.8623,389.8306,134.585,390.1494,134.0293z"/>
		<path class="st12" d="M404.168,134.6943c0.0825,0.1592,0.2305,0.2803,0.4434,0.3633l-0.709,2.25
			c-0.6382-0.0469-1.1582-0.168-1.5596-0.3633c-0.4019-0.1943-0.7329-0.5107-0.9927-0.9482
			c-0.6143,0.9219-1.5654,1.3828-2.853,1.3828c-0.9336,0-1.687-0.2812-2.2598-0.8418c-0.5732-0.5615-0.8599-1.2852-0.8599-2.1709
			c0-1.0518,0.3901-1.8555,1.1699-2.4102c0.7798-0.5557,1.9141-0.833,3.4028-0.833h0.6733v-0.2305
			c0-0.4727-0.0947-0.792-0.2837-0.957c-0.189-0.166-0.5493-0.248-1.0811-0.248c-0.2832,0-0.6465,0.0439-1.0898,0.1328
			c-0.4429,0.0889-0.895,0.21-1.356,0.3633l-0.7617-2.2334c0.5786-0.2363,1.208-0.4189,1.8872-0.5488s1.2969-0.1953,1.8521-0.1953
			c1.4888,0,2.5698,0.2861,3.2432,0.8594c0.6738,0.5732,1.0103,1.4502,1.0103,2.6318v3.2607
			C404.0439,134.2891,404.0854,134.5342,404.168,134.6943z M400.1719,134.7559c0.1826-0.1064,0.3335-0.2422,0.4517-0.4072v-1.4004
			h-0.3721c-0.4961,0-0.8628,0.0889-1.0986,0.2656c-0.2368,0.1777-0.3545,0.4492-0.3545,0.8154
			c0,0.2715,0.0708,0.4873,0.2124,0.6465c0.1421,0.1602,0.3306,0.2393,0.5674,0.2393
			C399.7905,134.915,399.9883,134.8623,400.1719,134.7559z"/>
		<path class="st12" d="M413.0293,127.4189l-0.5493,3.3848c-0.3188-0.0947-0.6084-0.1416-0.8682-0.1416
			c-0.52,0-0.9072,0.1709-1.1611,0.5137s-0.458,0.8564-0.6113,1.542v4.3066h-3.5093v-9.4639h3.0664l0.2832,1.7725
			c0.2012-0.626,0.52-1.1289,0.957-1.5068s0.9155-0.5674,1.4355-0.5674C412.3794,127.2588,412.6987,127.3125,413.0293,127.4189z"/>
		<path class="st12" d="M420.9331,136.5635c-0.3662,0.2598-0.8125,0.4609-1.3379,0.6025c-0.5259,0.1416-1.0254,0.2129-1.4976,0.2129
			c-1.1699-0.0117-2.0356-0.3398-2.5967-0.9834c-0.561-0.6445-0.8418-1.5977-0.8418-2.8623v-3.5977h-1.1343v-2.375h1.1343v-1.9854
			l3.5093-0.4072v2.3926h2.127l-0.3545,2.375h-1.7725v3.5625c0,0.4131,0.0649,0.7061,0.1948,0.877s0.313,0.2568,0.5493,0.2568
			c0.2954,0,0.5908-0.082,0.8862-0.248L420.9331,136.5635z"/>
		<path class="st12" d="M430.6099,133.2852h-5.7422c0.0947,0.6377,0.2925,1.0664,0.5938,1.2842
			c0.3013,0.2197,0.7354,0.3281,1.3027,0.3281c0.3306,0,0.6675-0.0674,1.0103-0.2031c0.3423-0.1357,0.7207-0.3457,1.1343-0.6299
			l1.418,1.9141c-1.1465,0.9336-2.4458,1.4004-3.8994,1.4004c-1.6777,0-2.9478-0.4639-3.8101-1.3916
			c-0.8628-0.9268-1.2939-2.1533-1.2939-3.6768c0-0.9453,0.1802-1.8047,0.5405-2.5791c0.3604-0.7734,0.895-1.3877,1.604-1.8428
			s1.5654-0.6826,2.5698-0.6826c0.9331,0,1.7485,0.1953,2.4458,0.585c0.6968,0.3896,1.2373,0.957,1.6216,1.7012
			c0.3838,0.7441,0.5757,1.6367,0.5757,2.6758C430.6807,132.4639,430.6572,132.8359,430.6099,133.2852z M427.2251,131.1758
			c-0.0122-0.5547-0.0977-0.9863-0.2573-1.2939c-0.1592-0.3066-0.4458-0.4609-0.8594-0.4609c-0.3901,0-0.6821,0.1367-0.8774,0.4082
			c-0.1948,0.2715-0.3218,0.7617-0.3809,1.4707h2.375V131.1758z"/>
	</g>
</g>
<g>
	<g>
		<g>
			<path class="st13" d="M140.4683,167.7627l-0.1133,0.8936h-1.2119v4.0195H137.98v-4.0195h-1.2686v-0.8936H140.4683z"/>
			<path class="st13" d="M143.9351,169.3193c0.3262,0.3516,0.4893,0.8447,0.4893,1.4775c0,0.4023-0.0742,0.7529-0.2231,1.0527
				c-0.1489,0.3008-0.3618,0.5332-0.6382,0.6982c-0.2764,0.166-0.6035,0.248-0.9819,0.248c-0.5718,0-1.022-0.1758-1.3501-0.5273
				c-0.3286-0.3525-0.4927-0.8447-0.4927-1.4785c0-0.4014,0.0742-0.7529,0.2231-1.0527s0.3613-0.5332,0.6382-0.6982
				c0.2764-0.165,0.6035-0.248,0.9814-0.248C143.1577,168.791,143.6094,168.9668,143.9351,169.3193z M142.0708,169.9004
				c-0.1133,0.1914-0.1699,0.4883-0.1699,0.8896c0,0.4111,0.0552,0.7109,0.1665,0.9004c0.1108,0.1895,0.2822,0.2832,0.5137,0.2832
				c0.2271,0,0.397-0.0957,0.5107-0.2871c0.1133-0.1914,0.1699-0.4873,0.1699-0.8896c0-0.4111-0.0557-0.7109-0.1665-0.9004
				c-0.1113-0.1885-0.2822-0.2832-0.5142-0.2832C142.3545,169.6133,142.1841,169.709,142.0708,169.9004z"/>
			<path class="st13" d="M148.8901,167.416v5.2598h-0.9927l-0.0566-0.4395c-0.2646,0.373-0.6216,0.5596-1.0703,0.5596
				c-0.4678,0-0.8237-0.1787-1.0669-0.5381c-0.2437-0.3594-0.3652-0.8506-0.3652-1.4746c0-0.3828,0.064-0.7256,0.1914-1.0283
				c0.1279-0.3018,0.3086-0.5391,0.5425-0.709s0.502-0.2549,0.8047-0.2549c0.3589,0,0.6567,0.1182,0.8931,0.3545v-1.8506
				L148.8901,167.416z M147.77,171.5488v-1.624c-0.0898-0.1084-0.1807-0.1885-0.2729-0.2402
				c-0.0923-0.0527-0.1973-0.0781-0.3154-0.0781c-0.208,0-0.3735,0.0967-0.4961,0.29c-0.123,0.1943-0.1846,0.4922-0.1846,0.8936
				c0,0.4395,0.0532,0.7471,0.1597,0.9219s0.2588,0.2617,0.457,0.2617C147.3779,171.9736,147.5952,171.832,147.77,171.5488z"/>
			<path class="st13" d="M153.1792,169.3193c0.3262,0.3516,0.4893,0.8447,0.4893,1.4775c0,0.4023-0.0742,0.7529-0.2231,1.0527
				c-0.1489,0.3008-0.3618,0.5332-0.6382,0.6982c-0.2764,0.166-0.6035,0.248-0.9819,0.248c-0.5718,0-1.022-0.1758-1.3501-0.5273
				c-0.3286-0.3525-0.4927-0.8447-0.4927-1.4785c0-0.4014,0.0742-0.7529,0.2231-1.0527s0.3613-0.5332,0.6382-0.6982
				c0.2764-0.165,0.6035-0.248,0.9814-0.248C152.4019,168.791,152.8535,168.9668,153.1792,169.3193z M151.3149,169.9004
				c-0.1133,0.1914-0.1699,0.4883-0.1699,0.8896c0,0.4111,0.0552,0.7109,0.1665,0.9004c0.1108,0.1895,0.2822,0.2832,0.5137,0.2832
				c0.2271,0,0.397-0.0957,0.5107-0.2871c0.1133-0.1914,0.1699-0.4873,0.1699-0.8896c0-0.4111-0.0557-0.7109-0.1665-0.9004
				c-0.1113-0.1885-0.2822-0.2832-0.5142-0.2832C151.5986,169.6133,151.4282,169.709,151.3149,169.9004z"/>
			<path class="st13" d="M156.8442,168.9111c0.2358,0.0811,0.4438,0.1943,0.6235,0.3408l-0.4111,0.6309
				c-0.3071-0.1943-0.6167-0.291-0.9287-0.291c-0.1465,0-0.2588,0.0254-0.3364,0.0742c-0.0781,0.0498-0.1172,0.1201-0.1172,0.21
				c0,0.0703,0.0176,0.1289,0.0532,0.1729c0.0356,0.0459,0.1074,0.0918,0.2163,0.1387c0.1084,0.0469,0.2764,0.1045,0.5034,0.1699
				c0.3921,0.1133,0.6841,0.2617,0.8755,0.4434s0.2871,0.4336,0.2871,0.7549c0,0.2549-0.0737,0.4766-0.2197,0.6631
				c-0.147,0.1865-0.3477,0.3291-0.603,0.4287c-0.2549,0.0996-0.5386,0.1484-0.8506,0.1484c-0.3164,0-0.6108-0.0488-0.8823-0.1484
				c-0.272-0.0996-0.5024-0.2363-0.6914-0.4111l0.5459-0.6094c0.3164,0.2451,0.6499,0.3682,0.9995,0.3682
				c0.1704,0,0.3037-0.0303,0.4004-0.0918c0.0972-0.0615,0.1455-0.1494,0.1455-0.2627c0-0.0898-0.019-0.1602-0.0566-0.2129
				c-0.0381-0.0518-0.1113-0.0996-0.2197-0.1445c-0.1089-0.0449-0.2812-0.1006-0.5176-0.167
				c-0.3735-0.1084-0.6523-0.2598-0.8364-0.4541c-0.1846-0.1934-0.2764-0.4346-0.2764-0.7227c0-0.2178,0.0625-0.4121,0.1875-0.585
				c0.1255-0.1729,0.3052-0.3096,0.5391-0.4111s0.5044-0.1523,0.8115-0.1523C156.355,168.791,156.6074,168.8311,156.8442,168.9111z"
				/>
			<path class="st13" d="M159.7485,167.5215v2.7939h-0.6406v-2.1572l-0.5991,0.3672l-0.2852-0.4336l0.9424-0.5703H159.7485z"/>
			<path class="st13" d="M162.2119,167.9883h-1.0127v0.5869c0.1294-0.0605,0.2671-0.0908,0.4131-0.0908
				c0.1543,0,0.2925,0.0361,0.4136,0.1074c0.1211,0.0723,0.2163,0.1768,0.2852,0.3145s0.1035,0.2998,0.1035,0.4873
				c0,0.1963-0.0449,0.3691-0.1348,0.5186c-0.0894,0.1504-0.2173,0.2666-0.3843,0.3496c-0.1665,0.083-0.3589,0.124-0.5767,0.124
				c-0.3774,0-0.687-0.1406-0.9297-0.4219l0.3638-0.3389c0.1514,0.1797,0.332,0.2686,0.5415,0.2686
				c0.1431,0,0.2539-0.042,0.3325-0.1279c0.0786-0.085,0.1177-0.208,0.1177-0.3682c0-0.3105-0.1309-0.4668-0.3926-0.4668
				c-0.0552,0-0.1089,0.0078-0.1611,0.0234c-0.0522,0.0146-0.1104,0.04-0.1733,0.0762h-0.4424v-1.5088h1.7109L162.2119,167.9883z"/>
		</g>
	</g>
	<g>
		<g>
			<path class="st12" d="M182.7563,167.791l-0.0776,0.5391h-1.8931v1.5947h1.6445v0.5391h-1.6445v1.6729h2.0273v0.5391h-2.7007
				v-4.8848H182.7563z"/>
			<path class="st12" d="M187.0454,167.4365v5.2393h-0.5742l-0.064-0.5176c-0.123,0.1895-0.2764,0.3369-0.4609,0.4434
				c-0.1841,0.1064-0.3896,0.1592-0.6167,0.1592c-0.4443,0-0.79-0.1748-1.0386-0.5244c-0.248-0.3496-0.3721-0.8203-0.3721-1.4111
				c0-0.3828,0.0591-0.7227,0.1772-1.0205s0.2881-0.5303,0.5103-0.6982s0.4824-0.252,0.7798-0.252
				c0.3828,0,0.7188,0.1543,1.0068,0.4609v-1.9561L187.0454,167.4365z M185.9819,172.1055c0.1416-0.0928,0.2788-0.2305,0.4111-0.415
				v-1.8291c-0.123-0.1602-0.2539-0.2822-0.3936-0.3652c-0.1392-0.082-0.2964-0.124-0.4712-0.124
				c-0.2886,0-0.5117,0.1211-0.6699,0.3613c-0.1587,0.2412-0.2378,0.6006-0.2378,1.0781c0,0.4814,0.0732,0.8408,0.2202,1.0771
				c0.146,0.2363,0.3564,0.3545,0.6309,0.3545C185.6699,172.2432,185.8403,172.1973,185.9819,172.1055z"/>
			<path class="st12" d="M189.4697,167.2734c0.085,0.0859,0.1274,0.1914,0.1274,0.3193s-0.0425,0.2334-0.1274,0.3154
				c-0.085,0.083-0.1963,0.124-0.333,0.124c-0.1323,0-0.2412-0.041-0.3262-0.124c-0.085-0.082-0.1279-0.1875-0.1279-0.3154
				s0.043-0.2334,0.1279-0.3193c0.085-0.085,0.1938-0.127,0.3262-0.127C189.2734,167.1465,189.3848,167.1885,189.4697,167.2734z
				 M189.4697,168.9395v3.7363h-0.6523v-3.7363H189.4697z"/>
			<path class="st12" d="M193.1274,172.5059c-0.2456,0.1699-0.5244,0.2549-0.8364,0.2549c-0.3169,0-0.5635-0.0908-0.7407-0.2725
				c-0.1772-0.1826-0.2661-0.4453-0.2661-0.791v-2.2539h-0.6519v-0.5039h0.6519v-0.8428l0.6523-0.0781v0.9209h0.8862l-0.0708,0.5039
				h-0.8154v2.2256c0,0.1943,0.0342,0.335,0.103,0.4219c0.0684,0.0879,0.1831,0.1309,0.3438,0.1309
				c0.1465,0,0.312-0.0488,0.4961-0.1484L193.1274,172.5059z"/>
			<path class="st12" d="M196.7466,169.3789c0.291,0.3506,0.436,0.8252,0.436,1.4258c0,0.3867-0.0659,0.7285-0.1982,1.0244
				c-0.1323,0.2949-0.3237,0.5244-0.5742,0.6875s-0.5483,0.2441-0.8936,0.2441c-0.5244,0-0.9331-0.1748-1.2261-0.5244
				c-0.2935-0.3496-0.4395-0.8252-0.4395-1.4248c0-0.3877,0.0659-0.7295,0.1982-1.0244c0.1323-0.2959,0.3237-0.5244,0.5742-0.6875
				s0.5508-0.2451,0.9004-0.2451C196.0483,168.8545,196.4561,169.0293,196.7466,169.3789z M194.5527,170.8115
				c0,0.9502,0.3213,1.4248,0.9639,1.4248c0.6431,0,0.9644-0.4775,0.9644-1.4316c0-0.9502-0.3188-1.4258-0.957-1.4258
				C194.8765,169.3789,194.5527,169.8564,194.5527,170.8115z"/>
			<path class="st12" d="M200.6777,168.8975l-0.1206,0.6377c-0.1133-0.0283-0.2222-0.042-0.3262-0.042
				c-0.2314,0-0.418,0.085-0.5601,0.2549c-0.1416,0.1699-0.2529,0.4346-0.333,0.7939v2.1338h-0.6523v-3.7363h0.5601l0.064,0.7588
				c0.0991-0.2783,0.2339-0.4893,0.4038-0.6309c0.1704-0.1416,0.3687-0.2129,0.5957-0.2129
				C200.4414,168.8545,200.5645,168.8691,200.6777,168.8975z"/>
			<path class="st12" d="M202.4995,167.2734c0.085,0.0859,0.1274,0.1914,0.1274,0.3193s-0.0425,0.2334-0.1274,0.3154
				c-0.085,0.083-0.1963,0.124-0.333,0.124c-0.1323,0-0.2412-0.041-0.3262-0.124c-0.085-0.082-0.1279-0.1875-0.1279-0.3154
				s0.043-0.2334,0.1279-0.3193c0.085-0.085,0.1938-0.127,0.3262-0.127C202.3032,167.1465,202.4146,167.1885,202.4995,167.2734z
				 M202.4995,168.9395v3.7363h-0.6523v-3.7363H202.4995z"/>
			<path class="st12" d="M206.8662,172.1406c0.0518,0.0732,0.1299,0.1289,0.2339,0.167l-0.1489,0.4531
				c-0.1938-0.0234-0.3496-0.0781-0.4678-0.1631s-0.2056-0.2168-0.2622-0.3965c-0.2505,0.373-0.6216,0.5596-1.1133,0.5596
				c-0.3687,0-0.6592-0.1035-0.8716-0.3115c-0.2129-0.208-0.3193-0.4795-0.3193-0.8154c0-0.3975,0.1431-0.7021,0.4292-0.915
				c0.2856-0.2119,0.6909-0.3184,1.2158-0.3184h0.5742v-0.2764c0-0.2646-0.064-0.4541-0.1914-0.5674
				c-0.1279-0.1133-0.3237-0.1699-0.5884-0.1699c-0.2744,0-0.6099,0.0664-1.0068,0.1982l-0.1631-0.4746
				c0.4634-0.1709,0.8931-0.2559,1.29-0.2559c0.4399,0,0.7681,0.1074,0.9854,0.3232c0.2178,0.2148,0.3262,0.5205,0.3262,0.918v1.708
				C206.7881,171.9551,206.814,172.0674,206.8662,172.1406z M206.1362,171.6904v-0.8574h-0.4893
				c-0.6899,0-1.0352,0.2549-1.0352,0.7656c0,0.2217,0.0542,0.3896,0.1631,0.5029s0.2695,0.1699,0.4819,0.1699
				C205.6304,172.2715,205.9233,172.0781,206.1362,171.6904z"/>
			<path class="st12" d="M208.6562,172.5449c-0.1396-0.1445-0.209-0.3467-0.209-0.6064v-4.502l0.6519-0.0771v4.5654
				c0,0.1035,0.0181,0.1787,0.0532,0.2266c0.0356,0.0469,0.0957,0.0703,0.1807,0.0703c0.0898,0,0.1704-0.0137,0.2412-0.042
				l0.1704,0.4531c-0.1562,0.0859-0.3286,0.1279-0.5176,0.1279C208.9858,172.7607,208.7954,172.6885,208.6562,172.5449z"/>
		</g>
	</g>
	<g>
		<g>
			<path class="st12" d="M234.5508,167.791v4.8848h-0.6733v-4.8848H234.5508z"/>
			<path class="st12" d="M236.5322,172.5449c-0.1396-0.1445-0.209-0.3467-0.209-0.6064v-4.502l0.6519-0.0771v4.5654
				c0,0.1035,0.0181,0.1787,0.0532,0.2266c0.0356,0.0469,0.0957,0.0703,0.1807,0.0703c0.0898,0,0.1704-0.0137,0.2412-0.042
				l0.1704,0.4531c-0.1562,0.0859-0.3286,0.1279-0.5176,0.1279C236.8618,172.7607,236.6714,172.6885,236.5322,172.5449z"/>
			<path class="st12" d="M241.6401,172.6758h-0.5601l-0.0498-0.5811c-0.1416,0.2314-0.3047,0.4004-0.4893,0.5068
				c-0.1841,0.1064-0.4087,0.1592-0.6733,0.1592c-0.3262,0-0.5815-0.0996-0.7656-0.2979c-0.1846-0.1982-0.2764-0.4795-0.2764-0.8438
				v-2.6797h0.6519v2.6094c0,0.2549,0.0449,0.4355,0.1348,0.542s0.2363,0.1592,0.4395,0.1592c0.3643,0,0.6758-0.2148,0.936-0.6445
				v-2.666h0.6523V172.6758z"/>
			<path class="st12" d="M245.1138,168.9609c0.2031,0.0713,0.397,0.1777,0.5811,0.3193l-0.2764,0.4111
				c-0.1699-0.1084-0.332-0.1895-0.4858-0.2412c-0.1533-0.0518-0.3154-0.0781-0.4854-0.0781c-0.2129,0-0.3804,0.0439-0.5034,0.1309
				c-0.123,0.0879-0.1841,0.207-0.1841,0.3584s0.0576,0.2695,0.1733,0.3545s0.3252,0.168,0.6274,0.248
				c0.416,0.1045,0.7266,0.2461,0.9321,0.4258s0.3086,0.4248,0.3086,0.7373c0,0.3682-0.1431,0.6494-0.4287,0.8428
				c-0.2861,0.1943-0.6348,0.291-1.0459,0.291c-0.5669,0-1.0376-0.1631-1.4106-0.4893l0.3472-0.3965
				c0.3169,0.2412,0.6665,0.3613,1.0493,0.3613c0.2456,0,0.4409-0.0508,0.585-0.1523s0.2163-0.2402,0.2163-0.415
				c0-0.127-0.0264-0.2305-0.0781-0.3086c-0.0522-0.0771-0.1416-0.1465-0.2695-0.2051c-0.1274-0.0596-0.3145-0.1221-0.5601-0.1875
				c-0.397-0.1045-0.6841-0.2441-0.8613-0.4189s-0.2656-0.3965-0.2656-0.666c0-0.1943,0.0576-0.3701,0.1738-0.5283
				c0.1157-0.1582,0.2764-0.2812,0.4819-0.3682c0.2056-0.0879,0.436-0.1318,0.6909-0.1318
				C244.6812,168.8545,244.9102,168.8906,245.1138,168.9609z"/>
			<path class="st12" d="M249.0337,172.5059c-0.2456,0.1699-0.5244,0.2549-0.8364,0.2549c-0.3169,0-0.5635-0.0908-0.7407-0.2725
				c-0.1772-0.1826-0.2661-0.4453-0.2661-0.791v-2.2539h-0.6519v-0.5039h0.6519v-0.8428l0.6523-0.0781v0.9209h0.8862l-0.0708,0.5039
				h-0.8154v2.2256c0,0.1943,0.0342,0.335,0.103,0.4219c0.0684,0.0879,0.1831,0.1309,0.3438,0.1309
				c0.1465,0,0.312-0.0488,0.4961-0.1484L249.0337,172.5059z"/>
			<path class="st12" d="M252.1245,168.8975l-0.1206,0.6377c-0.1133-0.0283-0.2222-0.042-0.3262-0.042
				c-0.2314,0-0.418,0.085-0.5601,0.2549c-0.1416,0.1699-0.2529,0.4346-0.333,0.7939v2.1338h-0.6523v-3.7363h0.5601l0.064,0.7588
				c0.0991-0.2783,0.2339-0.4893,0.4038-0.6309c0.1704-0.1416,0.3687-0.2129,0.5957-0.2129
				C251.8882,168.8545,252.0112,168.8691,252.1245,168.8975z"/>
			<path class="st12" d="M255.6406,172.1406c0.0518,0.0732,0.1299,0.1289,0.2339,0.167l-0.1489,0.4531
				c-0.1938-0.0234-0.3496-0.0781-0.4678-0.1631s-0.2056-0.2168-0.2622-0.3965c-0.2505,0.373-0.6216,0.5596-1.1133,0.5596
				c-0.3687,0-0.6592-0.1035-0.8716-0.3115c-0.2129-0.208-0.3193-0.4795-0.3193-0.8154c0-0.3975,0.1431-0.7021,0.4292-0.915
				c0.2856-0.2119,0.6909-0.3184,1.2158-0.3184h0.5742v-0.2764c0-0.2646-0.064-0.4541-0.1914-0.5674
				c-0.1279-0.1133-0.3237-0.1699-0.5884-0.1699c-0.2744,0-0.6099,0.0664-1.0068,0.1982l-0.1631-0.4746
				c0.4634-0.1709,0.8931-0.2559,1.29-0.2559c0.4399,0,0.7681,0.1074,0.9854,0.3232c0.2178,0.2148,0.3262,0.5205,0.3262,0.918v1.708
				C255.5625,171.9551,255.5884,172.0674,255.6406,172.1406z M254.9106,171.6904v-0.8574h-0.4893
				c-0.6899,0-1.0352,0.2549-1.0352,0.7656c0,0.2217,0.0542,0.3896,0.1631,0.5029s0.2695,0.1699,0.4819,0.1699
				C254.4048,172.2715,254.6978,172.0781,254.9106,171.6904z"/>
			<path class="st12" d="M259.2983,168.9502c0.1846,0.0645,0.3618,0.167,0.5317,0.3086l-0.312,0.4111
				c-0.1323-0.0947-0.2607-0.1641-0.3862-0.209c-0.125-0.0449-0.2632-0.0674-0.4146-0.0674c-0.3027,0-0.5376,0.1201-0.7056,0.3613
				c-0.1675,0.2412-0.2515,0.5977-0.2515,1.0703s0.0825,0.8213,0.248,1.0459s0.4019,0.3369,0.709,0.3369
				c0.1465,0,0.2812-0.0225,0.4038-0.0674c0.123-0.0449,0.2603-0.1172,0.4116-0.2158l0.2974,0.4248
				c-0.3403,0.2744-0.7207,0.4111-1.1411,0.4111c-0.5059,0-0.9038-0.1699-1.1948-0.5107c-0.2905-0.3398-0.4355-0.8096-0.4355-1.4102
				c0-0.3975,0.0659-0.7441,0.1982-1.042s0.3203-0.5293,0.5635-0.6953c0.2437-0.165,0.5327-0.248,0.8687-0.248
				C258.9111,168.8545,259.1143,168.8867,259.2983,168.9502z"/>
			<path class="st12" d="M261.7939,167.2734c0.085,0.0859,0.1274,0.1914,0.1274,0.3193s-0.0425,0.2334-0.1274,0.3154
				c-0.085,0.083-0.1963,0.124-0.333,0.124c-0.1323,0-0.2412-0.041-0.3262-0.124c-0.085-0.082-0.1279-0.1875-0.1279-0.3154
				s0.043-0.2334,0.1279-0.3193c0.085-0.085,0.1938-0.127,0.3262-0.127C261.5977,167.1465,261.709,167.1885,261.7939,167.2734z
				 M261.7939,168.9395v3.7363h-0.6523v-3.7363H261.7939z"/>
			<path class="st12" d="M266.1924,169.3789c0.291,0.3506,0.436,0.8252,0.436,1.4258c0,0.3867-0.0659,0.7285-0.1982,1.0244
				c-0.1323,0.2949-0.3237,0.5244-0.5742,0.6875s-0.5483,0.2441-0.8936,0.2441c-0.5244,0-0.9331-0.1748-1.2261-0.5244
				c-0.2935-0.3496-0.4395-0.8252-0.4395-1.4248c0-0.3877,0.0659-0.7295,0.1982-1.0244c0.1323-0.2959,0.3237-0.5244,0.5742-0.6875
				s0.5508-0.2451,0.9004-0.2451C265.4941,168.8545,265.9019,169.0293,266.1924,169.3789z M263.9985,170.8115
				c0,0.9502,0.3213,1.4248,0.9639,1.4248c0.6431,0,0.9644-0.4775,0.9644-1.4316c0-0.9502-0.3188-1.4258-0.957-1.4258
				C264.3223,169.3789,263.9985,169.8564,263.9985,170.8115z M265.5225,166.9971l0.291,0.5459l-1.5029,0.6104l-0.1987-0.3477
				L265.5225,166.9971z"/>
			<path class="st12" d="M270.687,169.1592c0.1914,0.2041,0.2871,0.4824,0.2871,0.8369v2.6797h-0.6523v-2.5879
				c0-0.2646-0.0493-0.4512-0.1484-0.5596c-0.0996-0.1084-0.2461-0.1631-0.4399-0.1631c-0.1982,0-0.373,0.0566-0.5244,0.1699
				s-0.293,0.2764-0.4253,0.4893v2.6514h-0.6523v-3.7363h0.5601l0.0566,0.5537c0.1323-0.1992,0.2969-0.3545,0.4927-0.4688
				c0.1963-0.1133,0.4126-0.1699,0.6489-0.1699C270.23,168.8545,270.4956,168.9561,270.687,169.1592z"/>
		</g>
	</g>
	<g>
		<g>
			<path class="st12" d="M297.5317,167.791l-0.9922,4.8848h-0.8652l-0.8999-4.0908l-0.9077,4.0908h-0.8433l-0.9927-4.8848h0.6592
				l0.7871,4.2959l0.9429-4.2959h0.7158l0.9644,4.2959l0.8149-4.2959H297.5317z"/>
			<path class="st12" d="M301.5444,171.0312h-2.3823c0.0283,0.4111,0.1323,0.7139,0.312,0.9072
				c0.1797,0.1943,0.4111,0.291,0.6948,0.291c0.1797,0,0.3447-0.0264,0.4961-0.0781s0.3096-0.1348,0.4751-0.248l0.2837,0.3896
				c-0.397,0.3115-0.832,0.4678-1.3047,0.4678c-0.5195,0-0.9248-0.1699-1.2158-0.5107c-0.2905-0.3398-0.4355-0.8076-0.4355-1.4033
				c0-0.3877,0.0625-0.7314,0.1875-1.0312c0.1255-0.2998,0.3052-0.5352,0.5391-0.7051c0.2339-0.1709,0.5093-0.2559,0.8257-0.2559
				c0.4961,0,0.8765,0.1631,1.1416,0.4893c0.2646,0.3262,0.397,0.7773,0.397,1.3545
				C301.5586,170.8066,301.5537,170.918,301.5444,171.0312z M300.9131,170.5068c0-0.3691-0.0732-0.6504-0.2197-0.8438
				c-0.1465-0.1943-0.3662-0.291-0.6592-0.291c-0.5342,0-0.8247,0.3926-0.8721,1.1768h1.751V170.5068z"/>
			<path class="st12" d="M305.748,169.3691c0.2505,0.3428,0.376,0.8213,0.376,1.4355c0,0.3867-0.0591,0.7285-0.1772,1.0244
				c-0.1182,0.2949-0.2886,0.5244-0.5103,0.6875c-0.2227,0.1631-0.4824,0.2441-0.7798,0.2441c-0.3926,0-0.7231-0.165-0.9927-0.4961
				l-0.064,0.4111h-0.5742v-5.2393l0.6523-0.0771v2.0479c0.2695-0.3682,0.6216-0.5527,1.0562-0.5527
				C305.1597,168.8545,305.4976,169.0264,305.748,169.3691z M305.1777,171.8926c0.1631-0.2344,0.2446-0.5967,0.2446-1.0879
				c0-0.5059-0.0757-0.8711-0.2271-1.0957s-0.3662-0.3369-0.645-0.3369c-0.3311,0-0.6216,0.1943-0.8721,0.5811v1.7871
				c0.0991,0.1553,0.2207,0.2783,0.3652,0.3682c0.144,0.0898,0.2964,0.1348,0.457,0.1348
				C304.7886,172.2432,305.0146,172.126,305.1777,171.8926z"/>
		</g>
	</g>
	<g>
		<g>
			<path class="st12" d="M329.0464,170.4502c0.208,0.1797,0.312,0.458,0.312,0.8359c0,0.9268-0.645,1.3896-1.9355,1.3896h-1.3467
				v-4.8848h1.1553c0.6191,0,1.0928,0.1025,1.4214,0.3057s0.4927,0.5127,0.4927,0.9277c0,0.2842-0.0884,0.5205-0.2656,0.709
				c-0.1772,0.1895-0.3936,0.3096-0.6489,0.3623C328.5669,170.1523,328.8384,170.2705,329.0464,170.4502z M326.7495,168.3232v1.5381
				h0.7373c0.2837,0,0.5161-0.0684,0.6982-0.2051c0.1821-0.1377,0.2729-0.3311,0.2729-0.582c0-0.2832-0.0957-0.4795-0.2871-0.5879
				s-0.481-0.1631-0.8682-0.1631H326.7495z M328.334,171.96c0.2104-0.1182,0.3154-0.3428,0.3154-0.6738
				c0-0.3213-0.1016-0.5527-0.3047-0.6943c-0.2036-0.1416-0.4678-0.2129-0.7939-0.2129h-0.8013v1.7578h0.6733
				C327.8198,172.1367,328.1235,172.0781,328.334,171.96z"/>
			<path class="st12" d="M332.7681,168.8975l-0.1206,0.6377c-0.1133-0.0283-0.2222-0.042-0.3262-0.042
				c-0.2314,0-0.418,0.085-0.5601,0.2549c-0.1416,0.1699-0.2529,0.4346-0.333,0.7939v2.1338h-0.6523v-3.7363h0.5601l0.064,0.7588
				c0.0991-0.2783,0.2339-0.4893,0.4038-0.6309c0.1704-0.1416,0.3687-0.2129,0.5957-0.2129
				C332.5317,168.8545,332.6548,168.8691,332.7681,168.8975z"/>
			<path class="st12" d="M336.2842,172.1406c0.0518,0.0732,0.1299,0.1289,0.2339,0.167l-0.1489,0.4531
				c-0.1938-0.0234-0.3496-0.0781-0.4678-0.1631s-0.2056-0.2168-0.2622-0.3965c-0.2505,0.373-0.6216,0.5596-1.1133,0.5596
				c-0.3687,0-0.6592-0.1035-0.8716-0.3115c-0.2129-0.208-0.3193-0.4795-0.3193-0.8154c0-0.3975,0.1431-0.7021,0.4292-0.915
				c0.2856-0.2119,0.6909-0.3184,1.2158-0.3184h0.5742v-0.2764c0-0.2646-0.064-0.4541-0.1914-0.5674
				c-0.1279-0.1133-0.3237-0.1699-0.5884-0.1699c-0.2744,0-0.6099,0.0664-1.0068,0.1982l-0.1631-0.4746
				c0.4634-0.1709,0.8931-0.2559,1.29-0.2559c0.4399,0,0.7681,0.1074,0.9854,0.3232c0.2178,0.2148,0.3262,0.5205,0.3262,0.918v1.708
				C336.2061,171.9551,336.2319,172.0674,336.2842,172.1406z M335.5542,171.6904v-0.8574h-0.4893
				c-0.6899,0-1.0352,0.2549-1.0352,0.7656c0,0.2217,0.0542,0.3896,0.1631,0.5029s0.2695,0.1699,0.4819,0.1699
				C335.0483,172.2715,335.3413,172.0781,335.5542,171.6904z"/>
			<path class="st12" d="M340.5269,169.1592c0.1914,0.2041,0.2871,0.4824,0.2871,0.8369v2.6797h-0.6523v-2.5879
				c0-0.2646-0.0493-0.4512-0.1484-0.5596c-0.0996-0.1084-0.2461-0.1631-0.4399-0.1631c-0.1982,0-0.373,0.0566-0.5244,0.1699
				s-0.293,0.2764-0.4253,0.4893v2.6514h-0.6523v-3.7363h0.5601l0.0566,0.5537c0.1323-0.1992,0.2969-0.3545,0.4927-0.4688
				c0.1963-0.1133,0.4126-0.1699,0.6489-0.1699C340.0698,168.8545,340.3354,168.9561,340.5269,169.1592z"/>
			<path class="st12" d="M345.4434,167.4365v5.2393h-0.5742l-0.064-0.5176c-0.123,0.1895-0.2764,0.3369-0.4609,0.4434
				c-0.1841,0.1064-0.3896,0.1592-0.6167,0.1592c-0.4443,0-0.79-0.1748-1.0386-0.5244c-0.248-0.3496-0.3721-0.8203-0.3721-1.4111
				c0-0.3828,0.0591-0.7227,0.1772-1.0205s0.2881-0.5303,0.5103-0.6982s0.4824-0.252,0.7798-0.252
				c0.3828,0,0.7188,0.1543,1.0068,0.4609v-1.9561L345.4434,167.4365z M344.3799,172.1055c0.1416-0.0928,0.2788-0.2305,0.4111-0.415
				v-1.8291c-0.123-0.1602-0.2539-0.2822-0.3936-0.3652c-0.1392-0.082-0.2964-0.124-0.4712-0.124
				c-0.2886,0-0.5117,0.1211-0.6699,0.3613c-0.1587,0.2412-0.2378,0.6006-0.2378,1.0781c0,0.4814,0.0732,0.8408,0.2202,1.0771
				c0.146,0.2363,0.3564,0.3545,0.6309,0.3545C344.0679,172.2432,344.2383,172.1973,344.3799,172.1055z"/>
			<path class="st12" d="M347.8677,167.2734c0.085,0.0859,0.1274,0.1914,0.1274,0.3193s-0.0425,0.2334-0.1274,0.3154
				c-0.085,0.083-0.1963,0.124-0.333,0.124c-0.1323,0-0.2412-0.041-0.3262-0.124c-0.085-0.082-0.1279-0.1875-0.1279-0.3154
				s0.043-0.2334,0.1279-0.3193c0.085-0.085,0.1938-0.127,0.3262-0.127C347.6714,167.1465,347.7827,167.1885,347.8677,167.2734z
				 M347.8677,168.9395v3.7363h-0.6523v-3.7363H347.8677z"/>
			<path class="st12" d="M352.1953,169.1592c0.1914,0.2041,0.2871,0.4824,0.2871,0.8369v2.6797h-0.6523v-2.5879
				c0-0.2646-0.0493-0.4512-0.1484-0.5596c-0.0996-0.1084-0.2461-0.1631-0.4399-0.1631c-0.1982,0-0.373,0.0566-0.5244,0.1699
				s-0.293,0.2764-0.4253,0.4893v2.6514h-0.6523v-3.7363h0.5601l0.0566,0.5537c0.1323-0.1992,0.2969-0.3545,0.4927-0.4688
				c0.1963-0.1133,0.4126-0.1699,0.6489-0.1699C351.7383,168.8545,352.0039,168.9561,352.1953,169.1592z"/>
			<path class="st12" d="M357.2324,169.1104c-0.1421,0.0469-0.2979,0.0771-0.4683,0.0918
				c-0.1699,0.0137-0.3779,0.0215-0.6235,0.0215c0.4395,0.1982,0.6592,0.5127,0.6592,0.9424c0,0.374-0.1274,0.6787-0.3828,0.915
				s-0.6025,0.3545-1.042,0.3545c-0.1704,0-0.3286-0.0244-0.4751-0.0713c-0.0566,0.0381-0.1016,0.0889-0.1348,0.1523
				s-0.0493,0.1289-0.0493,0.1953c0,0.2031,0.1626,0.3047,0.4888,0.3047h0.5957c0.2505,0,0.4727,0.0449,0.6665,0.1348
				c0.1934,0.0898,0.3438,0.2129,0.4502,0.3682c0.106,0.1562,0.1592,0.333,0.1592,0.5322c0,0.3633-0.1489,0.6436-0.4463,0.8398
				c-0.2979,0.1963-0.7329,0.2939-1.3047,0.2939c-0.4019,0-0.7192-0.041-0.9536-0.124c-0.2339-0.083-0.4004-0.207-0.4995-0.3721
				s-0.1489-0.3779-0.1489-0.6377h0.5884c0,0.1514,0.0283,0.2705,0.085,0.3574c0.0566,0.0879,0.1582,0.1543,0.3052,0.1992
				c0.146,0.0449,0.354,0.0674,0.6235,0.0674c0.3921,0,0.6724-0.0488,0.8403-0.1455c0.1675-0.0977,0.2515-0.2422,0.2515-0.4365
				c0-0.1748-0.0664-0.3066-0.1987-0.3965s-0.3164-0.1348-0.5527-0.1348h-0.5884c-0.3169,0-0.5566-0.0674-0.7197-0.2021
				s-0.2446-0.3037-0.2446-0.5068c0-0.123,0.0356-0.2412,0.1064-0.3545s0.1724-0.2148,0.3052-0.3047
				c-0.2178-0.1133-0.377-0.2539-0.4785-0.4219c-0.1021-0.168-0.1528-0.3721-0.1528-0.6133c0-0.25,0.063-0.4746,0.188-0.6738
				c0.125-0.1982,0.2979-0.3525,0.5176-0.4639s0.4644-0.167,0.7339-0.167c0.293,0.0049,0.5386-0.0059,0.7373-0.0312
				c0.1982-0.0264,0.3623-0.0615,0.4927-0.1064c0.1299-0.0449,0.2891-0.1104,0.4785-0.1953L357.2324,169.1104z M354.7617,169.5527
				c-0.1348,0.1543-0.2021,0.3564-0.2021,0.6064c0,0.2549,0.0684,0.46,0.2056,0.6133s0.3311,0.2305,0.5815,0.2305
				c0.2549,0,0.4502-0.0742,0.5845-0.2236c0.1348-0.1484,0.2021-0.3574,0.2021-0.627c0-0.5537-0.2671-0.8301-0.8008-0.8301
				C355.0864,169.3223,354.8965,169.3994,354.7617,169.5527z"/>
		</g>
	</g>
</g>
<g>
	<g>
		<path class="st4" d="M-18.83,1.9645C-8.6184,2.417,0.4649,4.2432,9.0983,9.9281c7.8783,5.1877,13.4292,12.7066,13.7679,22.3617
			c0.0688,1.9617,3.1263,1.9709,3.0571,0c-0.343-9.777-5.3388-17.7044-13.092-23.4673C3.3304,1.7606-7.195-0.577-18.83-1.0926
			C-20.797-1.1798-20.7928,1.8775-18.83,1.9645L-18.83,1.9645z"/>
	</g>
</g>
<g>
	<g>
		<path class="st4" d="M-8.1385,1.6194C3.9223,1.8169,15.3982,5.3422,25.6398,11.6898
			c8.8714,5.4984,16.8005,12.6661,26.3135,17.0978c11.9068,5.5468,27.9226,7.5698,36.7702-4.1288
			c1.2573-1.6625-1.5537-3.2781-2.7966-1.6347c-10.6511,14.0832-31.405,4.5152-42.7957-3.2043
			C35.1053,14.3806,27.5375,8.255,18.6266,4.2677C10.1702,0.4838,1.1137-1.4679-8.1385-1.6194
			C-10.2234-1.6535-10.2239,1.5852-8.1385,1.6194L-8.1385,1.6194z"/>
	</g>
</g>
<g>
	<g>
		<path class="st4" d="M51.4996,28.4171c2.0961,1.843,3.5734,3.665,4.7018,6.2454c0.8547,1.9546,1.5496,3.8857,2.727,5.6822
			c2.0132,3.0718,4.7345,5.4807,7.8999,7.3073c1.7071,0.9851,3.2484-1.6556,1.543-2.6397
			c-4.0914-2.3609-6.9712-5.7109-8.7797-10.0693c-1.4773-3.5603-3.0069-6.1172-5.9303-8.6876
			C52.189,24.9609,50.0186,27.1149,51.4996,28.4171L51.4996,28.4171z"/>
	</g>
</g>
<g>
	<path class="st5" d="M41.015,18.5326c-1.2699-2.4089-1.9564-5.2006-1.4863-7.8829c0.4701-2.6822,2.221-5.208,4.7551-6.2049
		c0.3879-0.1526,0.8062-0.2707,1.2183-0.2075c0.522,0.08,0.9543,0.4353,1.3493,0.7858c0.5926,0.5256,1.1783,1.0861,1.5411,1.7902
		c0.5534,1.0741,0.521,2.3743,0.1742,3.5317s-0.9816,2.2039-1.6099,3.2359c-0.8415,1.3824-1.683,2.7647-2.5244,4.1471
		c-0.5189,0.8525-1.0924,1.7541-2.006,2.1558"/>
</g>
<g>
	<path class="st5" d="M42.5877,18.4191c2.2189-3.618,5.6445-6.4814,9.5987-8.0236c0.8186-0.3193,1.7341-0.5837,2.5616-0.2883
		c0.7704,0.275,1.2982,0.9774,1.7322,1.6708c0.4917,0.7856,0.9338,1.6375,1.0112,2.5611c0.0997,1.1908-0.4347,2.3749-1.2471,3.2512
		c-0.8124,0.8763-1.8805,1.4767-2.9819,1.9403c-3.5562,1.4971-7.6543,1.6642-11.3206,0.4617"/>
</g>
<g>
	<g>
		<path class="st6" d="M42.5848,8.9547c-0.8951,0.9565-1.273,2.5099-0.2369,3.5293c0.9602,0.9447,2.6101,0.7762,3.2265-0.4573
			c0.5782-1.1571,0.5885-2.7946-0.3867-3.734c-1.0599-1.0211-3.0196-0.6027-3.3501,0.9077
			c-0.1476,0.6744,0.2024,1.3839,0.8936,1.5738c0.6399,0.1758,1.4254-0.2156,1.5738-0.8936
			c-0.0585,0.2672-0.4297,0.4303-0.6765,0.3678c0.4056,0.1027-0.3074-0.0982-0.2305-0.1466c0.0254-0.016-0.1226,0.7589-0.113,0.793
			c-0.0944-0.3369,0.7436-0.4496,0.9222-0.1497c0.0213,0.0782,0.0425,0.1565,0.0638,0.2347
			c-0.0273,0.0583-0.0262,0.0446,0.0035-0.041c-0.0416,0.0195,0.1575-0.2152,0.1197-0.1747
			C45.5186,9.5625,43.7129,7.7492,42.5848,8.9547L42.5848,8.9547z"/>
	</g>
</g>
<g>
	<g>
		<path class="st6" d="M51.1953,13.2771c-1.3534,0.1491-2.7134,0.8453-2.8929,2.3392c-0.2006,1.6691,1.1771,2.7241,2.7491,2.4781
			c1.3258-0.2074,3.3465-0.6555,3.3706-2.334c0.0245-1.702-1.6374-2.3412-3.0741-2.2476c-0.6896,0.0449-1.2794,0.5559-1.2794,1.2794
			c0,0.6578,0.5863,1.3246,1.2794,1.2794c0.0941-0.0061,0.5764,0.0334,0.6335-0.0148c0.0295,0.0024,0.0578,0.0097,0.0851,0.022
			c-0.2144-0.1077-0.2238-0.2788-0.0283-0.5134c0.2168-0.3475,0.212-0.4667-0.0145-0.3576
			c-0.1571,0.0546-0.3154,0.1054-0.475,0.1521c-0.2391,0.0701-0.4811,0.1336-0.7252,0.1836
			c-0.4642,0.0951-0.2617-0.0331-0.0805,0.2019c-0.223-0.2893,0.1861,0.245,0.077,0.2232c0.0054,0.0011,0.3091-0.1255,0.3752-0.1328
			c0.6867-0.0757,1.2794-0.5339,1.2794-1.2794C52.4747,13.9236,51.8865,13.201,51.1953,13.2771L51.1953,13.2771z"/>
	</g>
</g>
<g>
	<g>
		<path class="st14" d="M25.1204,26.3579c1.4867-1.5166,4.4498-1.0164,5.3562,0.9043c0.1463,0.31,0.2486,0.6494,0.4735,0.908
			c0.2548,0.2929,0.6316,0.4424,0.9603,0.6489c1.4808,0.9301,1.8075,3.2619,0.6393,4.5631c-0.5133,0.5717-1.2985,1.0617-1.2886,1.83
			c0.0073,0.5678,0.463,1.0103,0.8127,1.4576c0.4964,0.635,0.8242,1.4006,0.9413,2.1981c0.1515,1.0321-0.2975,2.3522-1.3361,2.4506
			c-0.4206,0.0398-0.8791-0.1335-1.2493,0.0701c-0.4207,0.2315-0.4777,0.8016-0.7188,1.2168
			c-0.3912,0.6734-1.2936,0.9033-2.0555,0.7419s-1.4173-0.6291-2.0482-1.0857c-0.9421,2.0433-3.4146,3.5526-5.4816,2.6638
			c-0.4977-0.214-0.936-0.547-1.4284-0.7728c-0.8838-0.4054-1.915-0.4542-2.7463-0.9586c-1.3023-0.7903-1.737-2.7212-0.899-3.9933
			c-0.9939-0.449-2.0082-0.9551-2.6893-1.8069c-0.6811-0.8518-0.9317-2.1439-0.2993-3.0324
			c0.162-0.2276,0.3823-0.4399,0.4096-0.7179c0.0243-0.2478-0.1129-0.4783-0.1937-0.7139
			c-0.3328-0.9711,0.3133-2.0131,1.0881-2.6864c0.7748-0.6734,1.7206-1.1788,2.3075-2.021c0.5287-0.7587,0.7049-1.707,1.1428-2.5215
			c0.4378-0.8145,1.3441-1.5356,2.2245-1.2525c0.2626,0.0844,0.5307,0.2546,0.7926,0.1683
			c0.2834-0.0934,0.3904-0.4297,0.5869-0.6541c0.4637-0.5296,1.3123-0.3583,1.9824-0.1428c0.6704,0.2155,1.357,0.4395,1.908,0.8779
			c0.551,0.4384,0.9461,1.1442,0.8171,1.8365"/>
	</g>
	<g>
		<path class="st4" d="M24.9219,32.8733c-0.472-1.3879-2.1643-2.257-3.5368-1.7419c-1.3726,0.515-2.0598,2.3886-1.2692,3.6232
			c0.2839,0.4433,0.7061,0.777,1.1202,1.1019c0.4392,0.3446,0.9151,0.7039,1.4721,0.7414c0.6599,0.0444,1.2809-0.3957,1.6211-0.9629
			c0.3402-0.5672,0.4468-1.2423,0.5006-1.9015"/>
	</g>
</g>
<g>
	<g>
		<path class="st6" d="M95.7333,27.3426c-0.1075,2.1211-2.6574,3.7111-4.6093,2.8742c-0.315-0.1351-0.6166-0.3214-0.9565-0.3658
			c-0.3849-0.0504-0.7661,0.0876-1.1491,0.1509c-1.7252,0.2855-3.5157-1.2436-3.5039-2.9921
			c0.0052-0.7683,0.2682-1.6557-0.2486-2.2243c-0.3819-0.4202-1.0164-0.4493-1.5749-0.5524
			c-0.7926-0.1463-1.5457-0.5021-2.162-1.0215c-0.7977-0.6722-1.3368-1.9581-0.6245-2.7203
			c0.2884-0.3087,0.7467-0.4829,0.8887-0.8808c0.1615-0.4522-0.1739-0.9168-0.2686-1.3875
			c-0.1536-0.7634,0.3696-1.5339,1.0469-1.9182c0.6773-0.3843,1.4781-0.4687,2.2531-0.5452
			c-0.6494-2.1542,0.2008-4.9234,2.3375-5.6285c0.5144-0.1698,1.0634-0.2111,1.5817-0.3685
			c0.9304-0.2825,1.7347-0.9297,2.6915-1.1032c1.4988-0.2718,3.1045,0.8856,3.3205,2.3934
			c1.0417-0.3229,2.1367-0.6164,3.2112-0.4304c1.0746,0.1861,2.1189,0.9872,2.2346,2.0717c0.0296,0.2778,0.0055,0.5828,0.1694,0.809
			c0.1461,0.2016,0.4017,0.2832,0.6183,0.406c0.893,0.5063,1.1001,1.7147,0.9665,2.7325s-0.5065,2.0233-0.3875,3.0429
			c0.1072,0.9185,0.604,1.7452,0.8163,2.6453c0.2123,0.9001,0.0119,2.0407-0.8349,2.4125c-0.2526,0.1109-0.5661,0.1612-0.705,0.3995
			c-0.1502,0.2578-0.0074,0.5805-0.0057,0.8788c0.004,0.7039-0.7448,1.1382-1.3893,1.4213
			c-0.6447,0.2831-1.3072,0.5706-2.0104,0.6078s-1.4669-0.2293-1.8293-0.8331"/>
	</g>
	<g>
		<path class="st7" d="M91.5621,22.3334c1.2736,0.7261,3.1166,0.2547,3.8027-1.0409c0.6861-1.2956-0.0417-3.1538-1.4521-3.5539
			c-0.5064-0.1437-1.0437-0.1135-1.5692-0.0822c-0.5573,0.0332-1.1518,0.0798-1.5936,0.421
			c-0.5235,0.4042-0.6966,1.1455-0.5752,1.7956s0.4891,1.2262,0.886,1.7553"/>
	</g>
</g>
<g>
	<path class="st5" d="M49.7212,27.5294c0.0353,4.3515-1.3021,8.7042-3.7748,12.2851c-0.3603,0.5218-0.7588,1.0411-1.3058,1.3617
		c-0.9708,0.569-2.1867,0.4022-3.2967,0.2175c-0.626-0.1041-1.273-0.2163-1.8011-0.5681c-0.7368-0.4908-1.1259-1.3914-1.1773-2.2752
		s0.194-1.7584,0.5037-2.5878c1.5405-4.1257,4.8013-7.5781,8.8325-9.3514"/>
</g>
<g>
	<g>
		<path class="st6" d="M43.5992,35.1433c0.3025-0.4583,0.0729-0.0368,0.0655-0.0772c-0.0613,0.0051-0.1227,0.007-0.184,0.0056
			c-0.1104-0.0035-0.0315,0.0634,0.2365,0.2007c0.0699-0.0036,0.0632-0.1002,0.1205-0.2036
			c0.1716-0.3101,0.6235-0.6191,0.9209-0.5023c-0.1882-0.1097-0.3764-0.2194-0.5646-0.329
			c-0.0585-0.1289-0.117-0.2579-0.1755-0.3868c0.0159,0.0397,0.0114,0.0806-0.0136,0.1227c-0.0697,0.1112-0.0887,0.3917-0.127,0.513
			c-0.0953,0.3023-0.2465,0.569-0.4152,0.8364c-0.8812,1.3968,1.3321,2.6822,2.2095,1.2915
			c0.7015-1.112,1.4733-3.1082,0.3311-4.1861c-1.0717-1.0114-3.0152-0.2466-3.8751,0.6846c-0.94,1.0179-1.3681,2.7233-0.3288,3.8374
			c1.1076,1.1872,3.1817,0.7384,4.0092-0.5154C46.7184,35.0565,44.5034,33.7734,43.5992,35.1433L43.5992,35.1433z"/>
	</g>
</g>
<g>
	<path class="st5" d="M16.6086,15.7778c-1.5902,3.8791-4.6405,7.1391-8.4054,8.9834c-1.182,0.579-2.4554,1.0275-3.7711,1.062
		c-1.3157,0.0345-2.6833-0.3866-3.5949-1.3359c-1.6606-1.7293-1.2854-4.7236,0.2568-6.5593s3.9195-2.7361,6.2457-3.3168
		c2.821-0.7041,5.7316-1.0484,8.6389-1.0217"/>
</g>
<g>
	<g>
		<path class="st6" d="M6.9888,19.9273c0.1477,0.2148-0.1539,0.1598,0.0158,0.1193c0.1246-0.0298,0.3275-0.3344,0.4275-0.4143
			c0.0958-0.0765,0.4213-0.2764,0.4151-0.2658c-0.0448,0.0767-0.4406-0.6816-0.1657-0.5159c-0.0166-0.01-0.1182,0.134-0.1818,0.1536
			c-0.4188,0.1289-0.7107,0.3766-1.1792,0.4268c-0.687,0.0735-1.2794,0.5354-1.2794,1.2794c0,0.6347,0.588,1.3534,1.2794,1.2794
			c1.245-0.1332,2.5695-0.5486,3.3697-1.5747c0.8508-1.091,0.6034-2.6165-0.6292-3.2968c-2.1622-1.1934-5.8562,1.8112-4.2817,4.1006
			c0.3911,0.5686,1.123,0.826,1.7505,0.459C7.0931,21.3483,7.3822,20.4994,6.9888,19.9273L6.9888,19.9273z"/>
	</g>
</g>
<g>
	<g>
		<path class="st7" d="M65.407,49.845c-1.4948-1.3415-1.1456-4.1618,0.6313-5.0982c0.2868-0.1511,0.6032-0.2619,0.8382-0.4852
			c0.2661-0.2529,0.3916-0.6151,0.573-0.9343c0.817-1.4378,3.0065-1.8436,4.2845-0.794c0.5616,0.4612,1.0572,1.1826,1.7827,1.1412
			c0.5361-0.0306,0.9352-0.4795,1.3433-0.8286c0.5793-0.4954,1.289-0.8371,2.0376-0.9809c0.9688-0.1861,2.2347,0.1831,2.3709,1.1602
			c0.0552,0.3957-0.0895,0.8362,0.1183,1.1774c0.2362,0.3878,0.7773,0.4179,1.1796,0.6285
			c0.6525,0.3415,0.9073,1.1846,0.7866,1.9111c-0.1207,0.7265-0.5354,1.3653-0.9405,1.9803
			c1.9697,0.8049,3.4987,3.0781,2.7451,5.068c-0.1814,0.4791-0.4778,0.9072-0.6707,1.3818
			c-0.3462,0.8519-0.3493,1.8282-0.7913,2.6346c-0.6924,1.2633-2.4987,1.7544-3.7354,1.0157
			c-0.3828,0.9577-0.8187,1.9371-1.5951,2.6161s-1.9867,0.9696-2.8525,0.4091c-0.2218-0.1436-0.4315-0.3429-0.6953-0.3571
			c-0.2351-0.0126-0.4472,0.1266-0.6664,0.2127c-0.9036,0.3549-1.915-0.2121-2.5834-0.9161
			c-0.6685-0.704-1.1854-1.5765-2.0056-2.0959c-0.7388-0.4679-1.6421-0.5949-2.4299-0.9746
			c-0.7878-0.3797-1.5068-1.2059-1.276-2.0495c0.0688-0.2516,0.2185-0.512,0.126-0.7559c-0.1-0.2638-0.4222-0.3509-0.6424-0.5273
			c-0.5196-0.416-0.3932-1.2249-0.2175-1.867c0.1757-0.6423,0.3587-1.3004,0.75-1.8392c0.3912-0.5389,1.0416-0.9416,1.7011-0.8485"
			/>
	</g>
	<g>
		<path class="st2" d="M71.5711,49.7611c-1.2917,0.5038-2.0422,2.1388-1.4984,3.4141c0.5438,1.2753,2.3426,1.8465,3.4761,1.0482
			c0.407-0.2867,0.7047-0.6995,0.9944-1.1043c0.3073-0.4293,0.6269-0.8939,0.6392-1.4217c0.0145-0.6253-0.4272-1.1937-0.9772-1.4915
			s-1.1923-0.3704-1.8173-0.3937"/>
	</g>
</g>
<g>
	<g>
		<path class="st4" d="M520.0018,0.4076c-11.6244-0.1906-22.3166,1.5402-32.1931,8.0238
			c-8.0938,5.3134-13.4765,12.9335-14.4125,22.6784c-0.188,1.9572,2.8704,1.9443,3.0571,0
			c0.9236-9.6152,7.021-16.7496,15.1774-21.4372c8.9678-5.154,18.1557-6.3755,28.3711-6.2079
			C521.9698,3.4969,521.9703,0.4398,520.0018,0.4076L520.0018,0.4076z"/>
	</g>
</g>
<g>
	<g>
		<path class="st4" d="M509.3564-0.7668c-9.7094-0.4305-19.3405,1.1616-28.3652,4.7991
			c-8.8756,3.5774-16.6331,9.1885-24.8505,13.9878c-11.7984,6.8908-32.5562,14.4361-42.1199,0.0231
			c-1.1472-1.7289-3.9535-0.1088-2.7966,1.6347c8.1099,12.2221,24.5189,11.0733,36.6539,6.165
			c9.1374-3.6959,17.0606-9.7754,25.61-14.5745c11.0593-6.208,23.1676-9.3595,35.8682-8.7963
			C511.4403,2.5644,511.4358-0.6746,509.3564-0.7668L509.3564-0.7668z"/>
	</g>
</g>
<g>
	<g>
		<path class="st4" d="M446.0105,23.3751c-3.229,2.5088-4.807,5.1057-6.6099,8.7176c-2.0323,4.0714-5.172,7.0721-9.2245,9.0934
			c-1.7607,0.8782-0.2141,3.5161,1.543,2.6397c3.4523-1.722,6.3965-4.1364,8.6197-7.3064c1.1888-1.695,1.9414-3.5473,2.8747-5.3791
			c1.2-2.3553,2.9006-4.0044,4.9586-5.6034C449.7239,24.3312,447.5464,22.1818,446.0105,23.3751L446.0105,23.3751z"/>
	</g>
</g>
<g>
	<path class="st5" d="M459.1694,16.37c1.4136-2.3274,2.2682-5.0724,1.9616-7.7782s-1.9011-5.3331-4.37-6.4819
		c-0.378-0.1759-0.7883-0.3191-1.2034-0.281c-0.5259,0.0482-0.9789,0.3766-1.3945,0.7025c-0.6234,0.4887-1.242,1.0127-1.6469,1.6935
		c-0.6176,1.0385-0.6641,2.3383-0.388,3.5146c0.276,1.1763,0.8461,2.2593,1.4106,3.3276c0.7561,1.4309,1.5122,2.8617,2.2683,4.2926
		c0.4662,0.8824,0.984,1.8172,1.8716,2.2735"/>
</g>
<g>
	<path class="st5" d="M457.6066,16.1613c-1.9954-3.7459-5.241-6.8118-9.0944-8.5909c-0.7977-0.3683-1.6955-0.6878-2.5394-0.4431
		c-0.7857,0.2278-1.3551,0.8969-1.8303,1.5627c-0.5385,0.7543-1.0314,1.5778-1.1646,2.495
		c-0.1718,1.1825,0.2899,2.3969,1.0476,3.3208c0.7578,0.924,1.7875,1.588,2.8587,2.1176c3.4588,1.71,7.5393,2.1253,11.2718,1.1474"
		/>
</g>
<g>
	<g>
		<path class="st6" d="M456.3208,8.4673c0.1794,0.2168-0.0802,0.0653,0.2196-0.1619c0.0777-0.0589,0.1669-0.0829,0.2641-0.0784
			c0.1533,0.0017,0.2695,0.0803,0.3484,0.236c0.2226,0.2844,0.2878,0.3077,0.1955,0.0702c0.0153-0.121-0.0549-0.2831-0.0634-0.404
			c-0.0041-0.0581-0.0373-0.2625-0.0302-0.2264c-0.0348-0.1764,0.2198-0.0887-0.0254-0.0389
			c-0.2053,0.0416-0.7443,0.1093-0.8009-0.254c0.1066,0.6833,0.9621,1.0617,1.5738,0.8936
			c0.7289-0.2003,1.0005-0.8885,0.8936-1.5738c-0.2378-1.5242-2.2033-1.9207-3.2693-1.0256
			c-1.0173,0.8542-1.1014,2.4208-0.6482,3.5989c0.5053,1.3135,2.0772,1.6498,3.1543,0.7956c1.2176-0.9656,0.87-2.5866-0.0027-3.6406
			c-0.441-0.5326-1.3531-0.4563-1.8094,0C455.7939,7.1849,455.8788,7.9334,456.3208,8.4673L456.3208,8.4673z"/>
	</g>
</g>
<g>
	<g>
		<path class="st6" d="M448.9089,13.0175c0.0844,0.0148,0.6031,0.2354,0.6488,0.231c0.0919-0.0088-0.1919,0.0755-0.0209-0.1491
			c0.0488-0.0641,0.1105-0.0788,0.1701-0.1607c0.1149-0.158,0.3423,0.0304,0.0202-0.1061
			c-0.1828-0.0775-0.4077-0.1105-0.5994-0.1716c-0.3853-0.1229-0.7782-0.2449-1.1008-0.494c0.153,0.153,0.306,0.306,0.459,0.459
			c0.1024,0.1444-0.1299,0.7148-0.2082,0.6129c0.0341,0.0444,0.7094,0.0383,0.8046,0.0503
			c0.6867,0.0868,1.2794-0.6502,1.2794-1.2794c0-0.7635-0.5907-1.1924-1.2794-1.2794c-1.3826-0.1748-3.0007,0.3733-3.1115,1.9878
			c-0.1147,1.6721,1.742,2.2708,3.076,2.5818c1.4268,0.3326,2.835-0.2843,3.0137-1.8592c0.1718-1.5145-1.0649-2.6434-2.4714-2.8908
			c-0.6798-0.1196-1.3786,0.183-1.5738,0.8936C447.8456,12.0613,448.2248,12.8971,448.9089,13.0175L448.9089,13.0175z"/>
	</g>
</g>
<g>
	<g>
		<path class="st14" d="M474.5602,25.1448c-1.392-1.604-4.38-1.2844-5.4012,0.5778c-0.1648,0.3005-0.2875,0.6331-0.5277,0.8776
			c-0.2721,0.2769-0.6572,0.4033-0.9979,0.5894c-1.5345,0.8385-2.002,3.1463-0.9148,4.5159
			c0.4777,0.6018,1.2317,1.1385,1.1753,1.9048c-0.0417,0.5663-0.5235,0.9803-0.8997,1.4057
			c-0.534,0.6038-0.9077,1.3481-1.0729,2.137c-0.2138,1.021,0.1543,2.3659,1.185,2.5271c0.4174,0.0653,0.8856-0.0799,1.2427,0.1458
			c0.4059,0.2565,0.4282,0.8291,0.6437,1.2582c0.3496,0.6958,1.2365,0.98,2.0067,0.8652c0.7702-0.1149,1.4529-0.542,2.1102-0.9595
			c0.8164,2.0966,3.1928,3.7532,5.3099,2.9914c0.5097-0.1834,0.9675-0.4892,1.4727-0.6848c0.9068-0.351,1.9391-0.3372,2.7994-0.7903
			c1.3478-0.7098,1.8988-2.6109,1.1395-3.9314c1.0193-0.3878,2.0625-0.8316,2.7939-1.6405c0.7315-0.8089,1.06-2.0835,0.4827-3.0087
			c-0.1479-0.237-0.3549-0.4623-0.3653-0.7414c-0.0092-0.2488,0.1417-0.4706,0.2366-0.7008
			c0.3911-0.9491-0.1906-2.0284-0.9232-2.7475c-0.7326-0.7191-1.646-1.281-2.1807-2.1573
			c-0.4817-0.7894-0.6001-1.7466-0.9877-2.5862c-0.3876-0.8396-1.2485-1.6143-2.1444-1.3851
			c-0.2672,0.0684-0.5451,0.222-0.8014,0.1199c-0.2772-0.1104-0.3636-0.4525-0.5462-0.6885
			c-0.4307-0.5567-1.2881-0.4372-1.9701-0.2628c-0.6822,0.1744-1.3811,0.3564-1.9577,0.7606
			c-0.5766,0.4042-1.0138,1.0847-0.927,1.7835"/>
	</g>
	<g>
		<path class="st4" d="M474.3632,31.6603c0.5553-1.3568,2.2971-2.1216,3.636-1.5242s1.9111,2.5092,1.0471,3.6935
			c-0.3102,0.4253-0.7519,0.7327-1.185,1.032c-0.4593,0.3173-0.9561,0.6471-1.5144,0.6508
			c-0.6614,0.0043-1.2545-0.4727-1.5598-1.0594c-0.3052-0.5868-0.3706-1.2671-0.3843-1.9283"/>
	</g>
</g>
<g>
	<g>
		<path class="st6" d="M404.2328,24.1757c-0.0214,2.1237,2.4274,3.8654,4.4265,3.1485c0.3226-0.1157,0.635-0.2834,0.9769-0.3071
			c0.3873-0.0269,0.7594,0.1339,1.1378,0.2204c1.7047,0.3896,3.5847-1.028,3.6789-2.7741c0.0414-0.7672-0.1672-1.6689,0.3831-2.2052
			c0.4067-0.3963,1.0418-0.3868,1.6055-0.4558c0.8-0.0979,1.5732-0.4074,2.22-0.8884c0.837-0.6226,1.4531-1.8734,0.7884-2.6775
			c-0.2692-0.3256-0.716-0.5273-0.8336-0.9331c-0.1338-0.4612,0.2292-0.9045,0.3523-1.3687
			c0.1996-0.7527-0.2759-1.5535-0.9286-1.9781c-0.6527-0.4247-1.447-0.5575-2.2159-0.6808
			c0.7789-2.1108,0.0981-4.9265-1.9918-5.7599c-0.5032-0.2006-1.0486-0.2752-1.5565-0.4637
			c-0.9116-0.3384-1.6751-1.0332-2.6196-1.2644c-1.4796-0.3622-3.1525,0.6956-3.4596,2.1876
			c-1.0202-0.3854-2.0953-0.7449-3.1792-0.6243c-1.0839,0.1206-2.1749,0.8569-2.3561,1.9323
			c-0.0464,0.2755-0.0408,0.5814-0.2181,0.7972c-0.1581,0.1924-0.4181,0.2583-0.6418,0.3678
			c-0.9221,0.4512-1.2021,1.6448-1.1305,2.6689s0.3829,2.0502,0.2022,3.0608c-0.1628,0.9103-0.7087,1.7054-0.9752,2.5909
			s-0.1356,2.0362,0.687,2.4586c0.2454,0.126,0.5553,0.1952,0.6794,0.4415c0.1343,0.2664-0.0278,0.5799-0.0476,0.8775
			c-0.0467,0.7023,0.6744,1.1813,1.3006,1.5029c0.6264,0.3217,1.2702,0.6489,1.9698,0.7286
			c0.6996,0.0797,1.4781-0.1399,1.8765-0.7206"/>
	</g>
	<g>
		<path class="st7" d="M408.7002,19.4288c-1.3153,0.6475-3.1263,0.0652-3.7325-1.2696c-0.6062-1.3348,0.2329-3.1455,1.6649-3.4593
			c0.5142-0.1127,1.0487-0.05,1.5713,0.0131c0.5542,0.0669,1.1448,0.1495,1.5651,0.5169c0.498,0.4353,0.6258,1.1856,0.4653,1.8272
			s-0.5626,1.1943-0.9908,1.6984"/>
	</g>
</g>
<g>
	<path class="st5" d="M449.9336,24.8222c-0.2992,4.3414,0.7718,8.7671,3.0228,12.4914c0.328,0.5427,0.6942,1.0852,1.2209,1.4384
		c0.9345,0.6269,2.1583,0.534,3.2775,0.4171c0.6311-0.066,1.2838-0.1387,1.8322-0.4579c0.7652-0.4452,1.2083-1.3205,1.3132-2.1996
		c0.1049-0.8791-0.087-1.767-0.3458-2.6136c-1.2874-4.2116-4.3329-7.8554-8.249-9.8699"/>
</g>
<g>
	<g>
		<path class="st6" d="M453.336,34.0167c0.7439,1.2912,2.7954,1.7468,3.9283,0.6871c1.1278-1.0551,0.7784-2.8122-0.1225-3.8808
			c-0.8257-0.9794-2.7409-1.8507-3.8509-0.8323c-1.1518,1.0568-0.464,3.0584,0.1703,4.2134
			c0.7928,1.4438,3.0033,0.1542,2.2095-1.2915c-0.1561-0.2842-0.265-0.5529-0.3449-0.8673
			c-0.0235-0.0925-0.0499-0.1897-0.0631-0.2845c-0.0122-0.095-0.0179-0.1902-0.0171-0.2858
			c0.0066-0.2151-0.0418-0.1068-0.1452,0.325c-0.1882,0.1097-0.3764,0.2194-0.5645,0.329c0.2721-0.0882,0.7039,0.3297,0.8192,0.5597
			c0.0288,0.0574,0.0411,0.2173,0.0656,0.2416c0.1116,0.1106-0.0982,0.0158,0.096-0.0869c0.5106-0.2698,0.2681-0.0586,0.0927-0.1198
			c-0.2259-0.0789-0.0982-0.058-0.0639,0.0015C454.7236,31.2987,452.5116,32.5859,453.336,34.0167L453.336,34.0167z"/>
	</g>
</g>
<g>
	<path class="st5" d="M483.698,15.1004c1.352,3.9684,4.199,7.4074,7.8451,9.4766c1.1447,0.6496,2.3885,1.1745,3.6997,1.2887
		s2.7018-0.2231,3.6693-1.1154c1.7624-1.6254,1.5695-4.637,0.1415-6.5628c-1.428-1.9258-3.7464-2.9688-6.033-3.6895
		c-2.7731-0.8739-5.6574-1.394-8.5611-1.5438"/>
</g>
<g>
	<g>
		<path class="st6" d="M495.0167,21.442c0.9086-1.1631,0.6274-2.4357-0.3245-3.4769c-0.8429-0.922-2.0437-1.5873-3.3043-1.1607
			c-1.3058,0.4419-1.8835,1.9145-1.2121,3.1279c0.61,1.1025,1.9573,1.7475,3.1522,1.9493c0.6806,0.1149,1.3777-0.1798,1.5738-0.8936
			c0.1687-0.6139-0.2085-1.4581-0.8936-1.5738c-0.4643-0.0784-0.9069-0.1944-1.3005-0.462
			c0.0812,0.0552-0.4085-0.2767-0.3204-0.2798c0.1888-0.0067-0.1627,0.5139-0.1624,0.523
			c-0.1335,0.0645-0.1105,0.0658,0.0689,0.0038c-0.0232,0.0084-0.0297,0.0226-0.0193,0.0425
			c0.0876,0.0606,0.1764,0.1166,0.2587,0.1834c0.1166,0.0948,0.2764,0.3714,0.4174,0.4227
			c0.2528,0.0919-0.1623,0.3217,0.2569-0.2149c-0.4249,0.544-0.5305,1.2788,0,1.8094
			C493.6497,21.8844,494.5889,21.9896,495.0167,21.442L495.0167,21.442z"/>
	</g>
</g>
<g>
	<g>
		<path class="st7" d="M432.9233,46.1454c1.5735-1.2484,1.3959-4.0847-0.3209-5.1271c-0.2771-0.1682-0.5862-0.298-0.8072-0.5351
			c-0.2503-0.2686-0.3536-0.6377-0.5153-0.9674c-0.7283-1.4847-2.8892-2.0225-4.2285-1.0524
			c-0.5885,0.4263-1.127,1.1163-1.8486,1.031c-0.5333-0.063-0.9044-0.5354-1.2906-0.9085
			c-0.5482-0.5297-1.2358-0.9137-1.9743-1.1027c-0.9557-0.2446-2.2417,0.0472-2.4369,1.0143
			c-0.079,0.3916,0.0386,0.8401-0.1895,1.168c-0.2593,0.3728-0.8012,0.37-1.2155,0.5558c-0.672,0.3013-0.9774,1.1274-0.901,1.8599
			c0.0764,0.7325,0.4516,1.3952,0.8186,2.0337c-2.0149,0.684-3.679,2.8602-3.0474,4.8922c0.152,0.4892,0.4219,0.9345,0.5856,1.4199
			c0.2939,0.8714,0.2378,1.846,0.6301,2.6778c0.6145,1.3029,2.3877,1.9027,3.6669,1.2404c0.324,0.9792,0.6997,1.9832,1.4335,2.708
			s1.9243,1.0883,2.8225,0.5814c0.2301-0.1298,0.4515-0.3161,0.7157-0.3142c0.2355,0.0016,0.4387,0.1535,0.6523,0.2527
			c0.8804,0.4091,1.9243-0.0956,2.6342-0.7578s1.2788-1.5017,2.129-1.9704c0.7659-0.4222,1.6751-0.4942,2.4845-0.8255
			s1.5772-1.1123,1.3979-1.9683c-0.0535-0.2553-0.187-0.5243-0.08-0.7621c0.1158-0.2573,0.4427-0.3247,0.6732-0.4873
			c0.5439-0.3838,0.4667-1.1988,0.3304-1.8503c-0.1364-0.6518-0.2792-1.3197-0.6371-1.8813
			c-0.3578-0.5616-0.9826-1.003-1.6465-0.9501"/>
	</g>
	<g>
		<path class="st2" d="M426.7757,45.6878c1.2587,0.5812,1.9088,2.2587,1.2886,3.4987s-2.4503,1.7011-3.5332,0.8354
			c-0.3889-0.3108-0.661-0.7409-0.9257-1.1626c-0.2807-0.4471-0.5715-0.9303-0.5517-1.4579
			c0.0234-0.625,0.4988-1.1656,1.0659-1.4295c0.5671-0.2639,1.2126-0.2974,1.8379-0.2828"/>
	</g>
</g>
</svg>
