<svg id="Layer_1" xmlns="http://www.w3.org/2000/svg" viewBox="0 0 500 262">
  <style>
    .st2{fill:#a5cafa}.st4{fill:#325ada}.st5{fill:#9b6fef}.st6{fill:#f09a82}.st7{fill:#6610ef}.st12{fill:#212d50}.st13{fill:#6536ca}.st14{fill:#ff9c6e}
  </style>
  <path class="st2" d="M-13.0656.0199h523.4124V270H-13.0656z"/>
  <path fill="none" stroke="#6536ca" stroke-width=".2954" stroke-miterlimit="10" d="M53.6901 148.9563h389.6055"/>
  <path class="st12" d="M75.751 126.0098c1.1934.8799 1.79 2.4785 1.79 4.7939 0 2.2803-.5732 3.8877-1.7188 4.8203-1.1465.9336-2.688 1.4004-4.626 1.4004h-4.1646v-12.335h3.9521c1.9851.0001 3.5739.4405 4.7673 1.3204zm-5.0684 1.249v7.1963h.7266c.5669 0 1.022-.1123 1.3647-.3369.3423-.2246.5962-.5996.7617-1.126.1655-.5254.2485-1.2549.2485-2.1885 0-.9219-.0859-1.6396-.2573-2.1533s-.4282-.874-.771-1.0811-.7856-.3105-1.3291-.3105h-.7441zM88.1924 133.2852h-5.7422c.0947.6377.2925 1.0664.5938 1.2842.3013.2197.7354.3281 1.3027.3281.3306 0 .6675-.0674 1.0103-.2031.3423-.1357.7207-.3457 1.1343-.6299l1.418 1.9141c-1.1465.9336-2.4458 1.4004-3.8994 1.4004-1.6777 0-2.9478-.4639-3.8101-1.3916-.8628-.9268-1.2939-2.1533-1.2939-3.6768 0-.9453.1802-1.8047.5405-2.5791.3604-.7734.895-1.3877 1.604-1.8428s1.5654-.6826 2.5698-.6826c.9331 0 1.7485.1953 2.4458.585.6968.3896 1.2373.957 1.6216 1.7012.3838.7441.5757 1.6367.5757 2.6758-.0001.2958-.0236.6678-.0709 1.1171zm-3.3848-2.1094c-.0122-.5547-.0977-.9863-.2573-1.2939-.1592-.3066-.4458-.4609-.8594-.4609-.3901 0-.6821.1367-.8774.4082-.1948.2715-.3218.7617-.3809 1.4707h2.375v-.1241zM95.7329 127.5342c.644.2188 1.1846.5166 1.6221.8945l-1.2407 1.8965a4.8696 4.8696 0 0 0-1.0991-.5049c-.3896-.124-.7739-.1865-1.1519-.1865-.5317 0-.7974.1416-.7974.4258 0 .1182.0352.2158.1064.292.0708.0771.2393.1719.5049.2842.2661.1123.6938.2568 1.2852.4336.9448.2959 1.645.6709 2.1001 1.126.4546.4551.6821 1.0957.6821 1.9229 0 .6377-.1924 1.2051-.5762 1.7012s-.9155.8799-1.5947 1.1523c-.6797.2715-1.4507.4072-2.313.4072-.8271 0-1.604-.1328-2.3306-.3984-.7266-.2666-1.3379-.6357-1.834-1.1084l1.6655-1.8428a4.7176 4.7176 0 0 0 1.1611.6826c.4189.1709.8354.2568 1.2495.2568.3188 0 .564-.0508.7354-.1504.1709-.1006.2568-.2451.2568-.4346 0-.165-.0386-.293-.1152-.3809-.0767-.0889-.2334-.1777-.4697-.2656-.2363-.0889-.6499-.2217-1.2402-.3994-1.8315-.543-2.7471-1.5654-2.7471-3.0654 0-.5791.1621-1.0996.4873-1.5596.3247-.4609.7974-.8271 1.418-1.0996.6201-.2715 1.3613-.4072 2.2241-.4072.6969 0 1.3673.1093 2.0113.3281zM107.2974 128.4639l-1.4531 2.0381c-.5439-.4365-1.0991-.6553-1.666-.6553-.5439 0-.9453.1895-1.2051.5674-.2603.3779-.3901 1.0273-.3901 1.9492 0 .8857.1328 1.4922.3989 1.8164.2656.3252.6523.4873 1.1606.4873.2715 0 .5259-.0439.7622-.1328s.5317-.2451.8862-.4697l1.5063 2.1445c-.957.7803-2.0737 1.1699-3.3496 1.1699-1.0278 0-1.9204-.21-2.6763-.6289-.7563-.4199-1.3354-1.0107-1.7368-1.7725-.4019-.7617-.6025-1.6338-.6025-2.6143 0-.9922.2036-1.8789.6113-2.6582.4077-.7803.9839-1.3916 1.728-1.835.7446-.4424 1.6069-.6641 2.5874-.6641 1.3473.0002 2.4933.4201 3.4386 1.258zM116.9385 137.0244h-3.0659l-.124-1.0283c-.6499.9219-1.5835 1.3828-2.8003 1.3828-.8862 0-1.5479-.2656-1.9849-.7979-.4375-.5312-.6558-1.2695-.6558-2.2148v-6.8057h3.5093v6.3447c0 .3428.0498.582.1504.7178.1001.1357.2451.2041.4341.2041.1655 0 .3398-.0654.5229-.1953s.3516-.3252.5054-.585v-6.4863h3.5088v9.4639zM127.7314 128.5439c.5908.8926.8862 2.1475.8862 3.7666 0 .9688-.1509 1.8369-.4521 2.6045-.3013.7686-.7383 1.3711-1.3115 1.8076-.5732.4375-1.249.6562-2.0288.6562-.5083 0-.9722-.1035-1.3916-.3105-.4194-.2061-.771-.4932-1.0542-.8594l-.124.8154h-3.1196v-13.1855l3.5093-.3545v4.9092c.2598-.3545.6143-.6406 1.0635-.8594.4487-.2188.9214-.3281 1.418-.3281 1.1454.0001 2.014.4463 2.6048 1.3379zm-3.0395 5.751c.2188-.3896.3281-1.0518.3281-1.9844 0-1.0166-.0977-1.7021-.2925-2.0566s-.4756-.5312-.8418-.5312c-.4849 0-.8979.2959-1.2407.8857v3.5801c.2715.4609.644.6914 1.1167.6914.4014 0 .7114-.1953.9302-.585zM137.1597 127.4189l-.5493 3.3848c-.3188-.0947-.6084-.1416-.8682-.1416-.52 0-.9072.1709-1.1611.5137s-.458.8564-.6113 1.542v4.3066h-3.5093v-9.4639h3.0664l.2832 1.7725c.2012-.626.52-1.1289.957-1.5068s.9155-.5674 1.4355-.5674c.3072 0 .6265.0537.9571.1601zM141.3955 121.8535l1.3115 2.5527-4.4487 1.7539-.939-1.7539 4.0762-2.5527zm.5493 5.707v9.4639h-3.5093v-9.4639h3.5093zM156.6724 128.4639l-1.4531 2.0381c-.5439-.4365-1.0991-.6553-1.666-.6553-.5439 0-.9453.1895-1.2051.5674-.2603.3779-.3901 1.0273-.3901 1.9492 0 .8857.1328 1.4922.3989 1.8164.2656.3252.6523.4873 1.1606.4873.2715 0 .5259-.0439.7622-.1328s.5317-.2451.8862-.4697l1.5063 2.1445c-.957.7803-2.0737 1.1699-3.3496 1.1699-1.0278 0-1.9204-.21-2.6763-.6289-.7563-.4199-1.3354-1.0107-1.7368-1.7725-.4019-.7617-.6025-1.6338-.6025-2.6143 0-.9922.2036-1.8789.6113-2.6582.4077-.7803.9839-1.3916 1.728-1.835.7446-.4424 1.6069-.6641 2.5874-.6641 1.3473.0002 2.4933.4201 3.4386 1.258zM165.5957 128.5352c.8687.8857 1.3027 2.1445 1.3027 3.7754 0 1.0156-.1982 1.9082-.5938 2.6758-.396.7686-.96 1.3584-1.6924 1.7725-.7329.4131-1.5952.6201-2.5879.6201-1.5122 0-2.7026-.4434-3.5708-1.3291-.8687-.8867-1.3027-2.1445-1.3027-3.7754 0-1.0156.1978-1.9072.5938-2.6758.3955-.7676.96-1.3584 1.6924-1.7725.7324-.4131 1.5952-.6201 2.5874-.6201 1.5127 0 2.7031.4433 3.5713 1.3291zm-4.5459 1.79c-.2012.4014-.3013 1.0518-.3013 1.9492 0 .9336.1001 1.5986.3013 1.9941.2007.3955.5259.5938.9746.5938.4492 0 .7739-.2012.9751-.6025.2007-.4014.3013-1.0518.3013-1.9492 0-.9336-.1006-1.5986-.3013-1.9941-.2012-.3955-.5259-.5938-.9751-.5938-.4487 0-.7739.2011-.9746.6025zM181.4219 127.959c.4429.5029.6646 1.1963.6646 2.083v6.9824h-3.5093v-6.3447c0-.3428-.0415-.582-.124-.7178s-.2007-.2041-.3545-.2041c-.1772 0-.3486.0801-.5137.2393-.1655.1602-.3193.3936-.4609.7002v6.3271h-3.5093v-6.3447c0-.3428-.0415-.582-.124-.7178s-.2007-.2041-.3545-.2041c-.1772 0-.3486.0801-.5137.2393-.1655.1602-.3193.3936-.4609.7002v6.3271h-3.5093v-9.4639h3.0664l.248.957c.3779-.4609.7886-.7949 1.2314-1.001.4434-.207.9482-.3105 1.5156-.3105.4961 0 .9272.1182 1.2935.3545s.644.5732.833 1.0098c.4019-.4717.8271-.8174 1.2764-1.0361.4487-.2188.9683-.3281 1.5596-.3281.7202 0 1.3022.2509 1.7456.7529zM192.1973 128.5352c.8687.8857 1.3027 2.1445 1.3027 3.7754 0 1.0156-.1982 1.9082-.5938 2.6758-.396.7686-.96 1.3584-1.6924 1.7725-.7329.4131-1.5952.6201-2.5879.6201-1.5122 0-2.7026-.4434-3.5708-1.3291-.8687-.8867-1.3027-2.1445-1.3027-3.7754 0-1.0156.1978-1.9072.5938-2.6758.3955-.7676.96-1.3584 1.6924-1.7725.7324-.4131 1.5952-.6201 2.5874-.6201 1.5127 0 2.7031.4433 3.5713 1.3291zm-4.5459 1.79c-.2012.4014-.3013 1.0518-.3013 1.9492 0 .9336.1001 1.5986.3013 1.9941.2007.3955.5259.5938.9746.5938.4492 0 .7739-.2012.9751-.6025.2007-.4014.3013-1.0518.3013-1.9492 0-.9336-.1006-1.5986-.3013-1.9941-.2012-.3955-.5259-.5938-.9751-.5938-.4488 0-.7739.2011-.9746.6025zM212.6313 127.959c.4429.5029.6646 1.1963.6646 2.083v6.9824h-3.5093v-6.3447c0-.3428-.0415-.582-.124-.7178s-.2007-.2041-.3545-.2041c-.1772 0-.3486.0801-.5137.2393-.1655.1602-.3193.3936-.4609.7002v6.3271h-3.5093v-6.3447c0-.3428-.0415-.582-.124-.7178s-.2007-.2041-.3545-.2041c-.1772 0-.3486.0801-.5137.2393-.1655.1602-.3193.3936-.4609.7002v6.3271h-3.5093v-9.4639h3.0664l.248.957c.3779-.4609.7886-.7949 1.2314-1.001.4434-.207.9482-.3105 1.5156-.3105.4961 0 .9272.1182 1.2935.3545s.644.5732.833 1.0098c.4019-.4717.8271-.8174 1.2764-1.0361.4487-.2188.9683-.3281 1.5596-.3281.7203 0 1.3023.2509 1.7456.7529zM218.5684 122.873c.3726.3604.5586.8057.5586 1.3379 0 .5312-.186.9775-.5586 1.3379-.3721.3604-.8418.541-1.4087.541-.5674 0-1.0371-.1807-1.4092-.541s-.5581-.8066-.5581-1.3379c0-.5322.186-.9775.5581-1.3379s.8418-.541 1.4092-.541c.5669 0 1.0366.1807 1.4087.541zm.3457 4.6875v9.4639h-3.5093v-9.4639h3.5093zM232.3472 136.5635c-.3662.2598-.8125.4609-1.3379.6025-.5259.1416-1.0254.2129-1.4976.2129-1.1699-.0117-2.0356-.3398-2.5967-.9834-.561-.6445-.8418-1.5977-.8418-2.8623v-3.5977h-1.1343v-2.375h1.1343v-1.9854l3.5093-.4072v2.3926h2.127l-.3545 2.375h-1.7725v3.5625c0 .4131.0649.7061.1948.877s.313.2568.5493.2568c.2954 0 .5908-.082.8862-.248l1.1344 2.1797zM240.2334 127.4189l-.5493 3.3848c-.3188-.0947-.6084-.1416-.8682-.1416-.52 0-.9072.1709-1.1611.5137s-.458.8564-.6113 1.542v4.3066h-3.5093v-9.4639h3.0664l.2832 1.7725c.2012-.626.52-1.1289.957-1.5068s.9155-.5674 1.4355-.5674c.3072 0 .6265.0537.9571.1601zM249.2012 134.6943c.0825.1592.2305.2803.4434.3633l-.709 2.25c-.6382-.0469-1.1582-.168-1.5596-.3633-.4019-.1943-.7329-.5107-.9927-.9482-.6143.9219-1.5654 1.3828-2.853 1.3828-.9336 0-1.687-.2812-2.2598-.8418-.5732-.5615-.8599-1.2852-.8599-2.1709 0-1.0518.3901-1.8555 1.1699-2.4102.7798-.5557 1.9141-.833 3.4028-.833h.6733v-.2305c0-.4727-.0947-.792-.2837-.957-.189-.166-.5493-.248-1.0811-.248-.2832 0-.6465.0439-1.0898.1328-.4429.0889-.895.21-1.356.3633l-.7617-2.2334c.5786-.2363 1.208-.4189 1.8872-.5488s1.2969-.1953 1.8521-.1953c1.4888 0 2.5698.2861 3.2432.8594.6738.5732 1.0103 1.4502 1.0103 2.6318v3.2607c0 .3311.0416.5762.1241.7363zm-3.9961.0616c.1826-.1064.3335-.2422.4517-.4072v-1.4004h-.3721c-.4961 0-.8628.0889-1.0986.2656-.2368.1777-.3545.4492-.3545.8154 0 .2715.0708.4873.2124.6465.1421.1602.3306.2393.5674.2393a1.1645 1.1645 0 0 0 .5937-.1592zM259.959 128.5439c.5908.8926.8862 2.1475.8862 3.7666 0 .9688-.1509 1.8369-.4521 2.6045-.3013.7686-.7383 1.3711-1.3115 1.8076-.5732.4375-1.249.6562-2.0288.6562-.5083 0-.9722-.1035-1.3916-.3105-.4194-.2061-.771-.4932-1.0542-.8594l-.124.8154h-3.1196v-13.1855l3.5093-.3545v4.9092c.2598-.3545.6143-.6406 1.0635-.8594.4487-.2188.9214-.3281 1.418-.3281 1.1453.0001 2.014.4463 2.6048 1.3379zm-3.0396 5.751c.2188-.3896.3281-1.0518.3281-1.9844 0-1.0166-.0977-1.7021-.2925-2.0566s-.4756-.5312-.8418-.5312c-.4849 0-.8979.2959-1.2407.8857v3.5801c.2715.4609.644.6914 1.1167.6914.4014 0 .7115-.1953.9302-.585zM270.8232 134.6943c.0825.1592.2305.2803.4434.3633l-.709 2.25c-.6382-.0469-1.1582-.168-1.5596-.3633-.4019-.1943-.7329-.5107-.9927-.9482-.6143.9219-1.5654 1.3828-2.853 1.3828-.9336 0-1.687-.2812-2.2598-.8418-.5732-.5615-.8599-1.2852-.8599-2.1709 0-1.0518.3901-1.8555 1.1699-2.4102.7798-.5557 1.9141-.833 3.4028-.833h.6733v-.2305c0-.4727-.0947-.792-.2837-.957-.189-.166-.5493-.248-1.0811-.248-.2832 0-.6465.0439-1.0898.1328-.4429.0889-.895.21-1.356.3633l-.7617-2.2334c.5786-.2363 1.208-.4189 1.8872-.5488s1.2969-.1953 1.8521-.1953c1.4888 0 2.5698.2861 3.2432.8594.6738.5732 1.0103 1.4502 1.0103 2.6318v3.2607c.0001.3311.0416.5762.1241.7363zm-3.9961.0616c.1826-.1064.3335-.2422.4517-.4072v-1.4004h-.3721c-.4961 0-.8628.0889-1.0986.2656-.2368.1777-.3545.4492-.3545.8154 0 .2715.0708.4873.2124.6465.1421.1602.3306.2393.5674.2393a1.164 1.164 0 0 0 .5937-.1592zM276.3174 135.6602c0 1.5352-.3784 2.708-1.1343 3.5176-.7563.8096-1.8076 1.4326-3.1548 1.8701l-1.2051-2.5527c.4609-.2119.8271-.4189 1.0991-.6201.2715-.2012.4873-.4609.6465-.7793.1597-.3193.2393-.7266.2393-1.2236v-8.3115h3.5093v8.0995zm-.3457-12.7872c.3726.3604.5586.8057.5586 1.3379 0 .5312-.186.9775-.5586 1.3379-.3721.3604-.8418.541-1.4087.541-.5674 0-1.0371-.1807-1.4092-.541s-.5581-.8066-.5581-1.3379c0-.5322.186-.9775.5581-1.3379s.8418-.541 1.4092-.541c.5669 0 1.0366.1807 1.4087.541zM286.5166 128.5352c.8687.8857 1.3027 2.1445 1.3027 3.7754 0 1.0156-.1982 1.9082-.5938 2.6758-.396.7686-.96 1.3584-1.6924 1.7725-.7329.4131-1.5952.6201-2.5879.6201-1.5122 0-2.7026-.4434-3.5708-1.3291-.8687-.8867-1.3027-2.1445-1.3027-3.7754 0-1.0156.1978-1.9072.5938-2.6758.3955-.7676.96-1.3584 1.6924-1.7725.7324-.4131 1.5952-.6201 2.5874-.6201 1.5127 0 2.7031.4433 3.5713 1.3291zm-4.5459 1.79c-.2012.4014-.3013 1.0518-.3013 1.9492 0 .9336.1001 1.5986.3013 1.9941.2007.3955.5259.5938.9746.5938.4492 0 .7739-.2012.9751-.6025.2007-.4014.3013-1.0518.3013-1.9492 0-.9336-.1006-1.5986-.3013-1.9941-.2012-.3955-.5259-.5938-.9751-.5938-.4487 0-.7739.2011-.9746.6025zM302.7681 128.5352c.5967.8857.895 2.127.895 3.7217 0 .9814-.1567 1.8584-.4697 2.6318-.313.7744-.7563 1.3828-1.3291 1.8252-.5732.4434-1.2319.665-1.9761.665-.8979 0-1.6304-.3135-2.1978-.9395v4.2539l-3.5093.3545v-13.4873h3.1196l.1416.9219c.3779-.4492.8003-.7744 1.2671-.9756.4668-.2002.9365-.3008 1.4092-.3008 1.1695.0001 2.0528.4434 2.6495 1.3292zm-2.7027 3.7753c0-.7207-.0474-1.2705-.1421-1.6484s-.2212-.6289-.3809-.7529c-.1597-.125-.3633-.1865-.6113-.1865-.4961 0-.9102.2959-1.2407.8857v3.6162c.1533.2363.313.4043.4785.5049s.3545.1504.5674.1504c.8858 0 1.3291-.8565 1.3291-2.5694zM314.0488 137.0244h-3.0659l-.124-1.0283c-.6499.9219-1.5835 1.3828-2.8003 1.3828-.8862 0-1.5479-.2656-1.9849-.7979-.4375-.5312-.6558-1.2695-.6558-2.2148v-6.8057h3.5093v6.3447c0 .3428.0498.582.1504.7178.1001.1357.2451.2041.4341.2041.1655 0 .3398-.0654.5229-.1953s.3516-.3252.5054-.585v-6.4863h3.5088v9.4639zM325.0898 133.2852h-5.7422c.0947.6377.2925 1.0664.5938 1.2842.3013.2197.7354.3281 1.3027.3281.3306 0 .6675-.0674 1.0103-.2031.3423-.1357.7207-.3457 1.1343-.6299l1.418 1.9141c-1.1465.9336-2.4458 1.4004-3.8994 1.4004-1.6777 0-2.9478-.4639-3.8101-1.3916-.8628-.9268-1.2939-2.1533-1.2939-3.6768 0-.9453.1802-1.8047.5405-2.5791.3604-.7734.895-1.3877 1.604-1.8428s1.5654-.6826 2.5698-.6826c.9331 0 1.7485.1953 2.4458.585.6968.3896 1.2373.957 1.6216 1.7012.3838.7441.5757 1.6367.5757 2.6758-.0001.2958-.0235.6678-.0709 1.1171zm-3.3847-2.1094c-.0122-.5547-.0977-.9863-.2573-1.2939-.1592-.3066-.4458-.4609-.8594-.4609-.3901 0-.6821.1367-.8774.4082-.1948.2715-.3218.7617-.3809 1.4707h2.375v-.1241zM335.9893 123.8389v13.1855h-3.1196l-.124-.9746c-.6733.8857-1.5654 1.3291-2.6758 1.3291-1.1938 0-2.0913-.4551-2.6938-1.3643-.6025-.9102-.9038-2.168-.9038-3.7754 0-.9688.165-1.834.4961-2.5967.3306-.7617.7944-1.3584 1.3911-1.79.5967-.4307 1.2852-.6465 2.0649-.6465.8149 0 1.5.248 2.0557.7441v-4.4658l3.5092.3546zm-3.5093 10.1904v-3.793c-.1655-.1768-.3311-.3096-.4961-.3984-.1655-.0889-.3486-.1328-.5498-.1328-.4136 0-.7441.2041-.9922.6113s-.3721 1.0605-.3721 1.958c0 1.04.103 1.7314.3101 2.0742.2065.3428.499.5137.877.5137.4965 0 .9042-.2773 1.2231-.833zM347.0303 133.2852h-5.7422c.0947.6377.2925 1.0664.5938 1.2842.3013.2197.7354.3281 1.3027.3281.3306 0 .6675-.0674 1.0103-.2031.3423-.1357.7207-.3457 1.1343-.6299l1.418 1.9141c-1.1465.9336-2.4458 1.4004-3.8994 1.4004-1.6777 0-2.9478-.4639-3.8101-1.3916-.8628-.9268-1.2939-2.1533-1.2939-3.6768 0-.9453.1802-1.8047.5405-2.5791.3604-.7734.895-1.3877 1.604-1.8428s1.5654-.6826 2.5698-.6826c.9331 0 1.7485.1953 2.4458.585.6968.3896 1.2373.957 1.6216 1.7012.3838.7441.5757 1.6367.5757 2.6758-.0001.2958-.0236.6678-.0709 1.1171zm-3.3848-2.1094c-.0122-.5547-.0977-.9863-.2573-1.2939-.1592-.3066-.4458-.4609-.8594-.4609-.3901 0-.6821.1367-.8774.4082-.1948.2715-.3218.7617-.3809 1.4707h2.375v-.1241zM361.6865 134.6943c.0825.1592.2305.2803.4434.3633l-.709 2.25c-.6382-.0469-1.1582-.168-1.5596-.3633-.4019-.1943-.7329-.5107-.9927-.9482-.6143.9219-1.5654 1.3828-2.853 1.3828-.9336 0-1.687-.2812-2.2598-.8418-.5732-.5615-.8599-1.2852-.8599-2.1709 0-1.0518.3901-1.8555 1.1699-2.4102.7798-.5557 1.9141-.833 3.4028-.833h.6733v-.2305c0-.4727-.0947-.792-.2837-.957-.189-.166-.5493-.248-1.0811-.248-.2832 0-.6465.0439-1.0898.1328-.4429.0889-.895.21-1.356.3633l-.7617-2.2334c.5786-.2363 1.208-.4189 1.8872-.5488s1.2969-.1953 1.8521-.1953c1.4888 0 2.5698.2861 3.2432.8594.6738.5732 1.0103 1.4502 1.0103 2.6318v3.2607c.0001.3311.0416.5762.1241.7363zm-3.9961.0616c.1826-.1064.3335-.2422.4517-.4072v-1.4004h-.3721c-.4961 0-.8628.0889-1.0986.2656-.2368.1777-.3545.4492-.3545.8154 0 .2715.0708.4873.2124.6465.1421.1602.3306.2393.5674.2393a1.1642 1.1642 0 0 0 .5937-.1592zM369.6621 137.0068c-.4019 1.3115-1.0869 2.3037-2.0557 2.9775-.9692.6729-2.2451 1.0332-3.8281 1.0811l-.3726-2.3926c.9097-.0947 1.5864-.2598 2.0293-.4961.4434-.2373.7891-.6211 1.0371-1.1523h-1.2051l-2.6938-9.4639h3.7217l1.1875 7.3193 1.4707-7.3193h3.6157l-2.9067 9.4463zM382.2983 137.0244h-3.0659l-.124-1.0283c-.6499.9219-1.5835 1.3828-2.8003 1.3828-.8862 0-1.5479-.2656-1.9849-.7979-.4375-.5312-.6558-1.2695-.6558-2.2148v-6.8057h3.5093v6.3447c0 .3428.0498.582.1504.7178.1001.1357.2451.2041.4341.2041.1655 0 .3398-.0654.5229-.1953s.3516-.3252.5054-.585v-6.4863h3.5088v9.4639zM393.6587 123.8389v13.1855h-3.1196l-.124-.9746c-.6733.8857-1.5654 1.3291-2.6758 1.3291-1.1938 0-2.0913-.4551-2.6938-1.3643-.6025-.9102-.9038-2.168-.9038-3.7754 0-.9688.165-1.834.4961-2.5967.3306-.7617.7944-1.3584 1.3911-1.79.5967-.4307 1.2852-.6465 2.0649-.6465.8149 0 1.5.248 2.0557.7441v-4.4658l3.5092.3546zm-3.5093 10.1904v-3.793c-.1655-.1768-.3311-.3096-.4961-.3984-.1655-.0889-.3486-.1328-.5498-.1328-.4136 0-.7441.2041-.9922.6113s-.3721 1.0605-.3721 1.958c0 1.04.103 1.7314.3101 2.0742.2065.3428.499.5137.877.5137.4966 0 .9043-.2773 1.2231-.833zM404.168 134.6943c.0825.1592.2305.2803.4434.3633l-.709 2.25c-.6382-.0469-1.1582-.168-1.5596-.3633-.4019-.1943-.7329-.5107-.9927-.9482-.6143.9219-1.5654 1.3828-2.853 1.3828-.9336 0-1.687-.2812-2.2598-.8418-.5732-.5615-.8599-1.2852-.8599-2.1709 0-1.0518.3901-1.8555 1.1699-2.4102.7798-.5557 1.9141-.833 3.4028-.833h.6733v-.2305c0-.4727-.0947-.792-.2837-.957-.189-.166-.5493-.248-1.0811-.248-.2832 0-.6465.0439-1.0898.1328-.4429.0889-.895.21-1.356.3633l-.7617-2.2334c.5786-.2363 1.208-.4189 1.8872-.5488s1.2969-.1953 1.8521-.1953c1.4888 0 2.5698.2861 3.2432.8594.6738.5732 1.0103 1.4502 1.0103 2.6318v3.2607c0 .3311.0415.5762.1241.7363zm-3.9961.0616c.1826-.1064.3335-.2422.4517-.4072v-1.4004h-.3721c-.4961 0-.8628.0889-1.0986.2656-.2368.1777-.3545.4492-.3545.8154 0 .2715.0708.4873.2124.6465.1421.1602.3306.2393.5674.2393a1.1645 1.1645 0 0 0 .5937-.1592zM413.0293 127.4189l-.5493 3.3848c-.3188-.0947-.6084-.1416-.8682-.1416-.52 0-.9072.1709-1.1611.5137s-.458.8564-.6113 1.542v4.3066h-3.5093v-9.4639h3.0664l.2832 1.7725c.2012-.626.52-1.1289.957-1.5068s.9155-.5674 1.4355-.5674c.3072 0 .6265.0537.9571.1601zM420.9331 136.5635c-.3662.2598-.8125.4609-1.3379.6025-.5259.1416-1.0254.2129-1.4976.2129-1.1699-.0117-2.0356-.3398-2.5967-.9834-.561-.6445-.8418-1.5977-.8418-2.8623v-3.5977h-1.1343v-2.375h1.1343v-1.9854l3.5093-.4072v2.3926h2.127l-.3545 2.375h-1.7725v3.5625c0 .4131.0649.7061.1948.877s.313.2568.5493.2568c.2954 0 .5908-.082.8862-.248l1.1344 2.1797zM430.6099 133.2852h-5.7422c.0947.6377.2925 1.0664.5938 1.2842.3013.2197.7354.3281 1.3027.3281.3306 0 .6675-.0674 1.0103-.2031.3423-.1357.7207-.3457 1.1343-.6299l1.418 1.9141c-1.1465.9336-2.4458 1.4004-3.8994 1.4004-1.6777 0-2.9478-.4639-3.8101-1.3916-.8628-.9268-1.2939-2.1533-1.2939-3.6768 0-.9453.1802-1.8047.5405-2.5791.3604-.7734.895-1.3877 1.604-1.8428s1.5654-.6826 2.5698-.6826c.9331 0 1.7485.1953 2.4458.585.6968.3896 1.2373.957 1.6216 1.7012.3838.7441.5757 1.6367.5757 2.6758-.0001.2958-.0236.6678-.0709 1.1171zm-3.3848-2.1094c-.0122-.5547-.0977-.9863-.2573-1.2939-.1592-.3066-.4458-.4609-.8594-.4609-.3901 0-.6821.1367-.8774.4082-.1948.2715-.3218.7617-.3809 1.4707h2.375v-.1241z"/>
  <g>
    <path class="st13" d="M140.4683 167.7627l-.1133.8936h-1.2119v4.0195H137.98v-4.0195h-1.2686v-.8936h3.7569zM143.9351 169.3193c.3262.3516.4893.8447.4893 1.4775 0 .4023-.0742.7529-.2231 1.0527-.1489.3008-.3618.5332-.6382.6982-.2764.166-.6035.248-.9819.248-.5718 0-1.022-.1758-1.3501-.5273-.3286-.3525-.4927-.8447-.4927-1.4785 0-.4014.0742-.7529.2231-1.0527s.3613-.5332.6382-.6982c.2764-.165.6035-.248.9814-.248.5766 0 1.0283.1758 1.354.5283zm-1.8643.5811c-.1133.1914-.1699.4883-.1699.8896 0 .4111.0552.7109.1665.9004.1108.1895.2822.2832.5137.2832.2271 0 .397-.0957.5107-.2871.1133-.1914.1699-.4873.1699-.8896 0-.4111-.0557-.7109-.1665-.9004-.1113-.1885-.2822-.2832-.5142-.2832-.2265 0-.3969.0957-.5102.2871zM148.8901 167.416v5.2598h-.9927l-.0566-.4395c-.2646.373-.6216.5596-1.0703.5596-.4678 0-.8237-.1787-1.0669-.5381-.2437-.3594-.3652-.8506-.3652-1.4746 0-.3828.064-.7256.1914-1.0283.1279-.3018.3086-.5391.5425-.709s.502-.2549.8047-.2549c.3589 0 .6567.1182.8931.3545v-1.8506l1.12.1211zm-1.1201 4.1328v-1.624c-.0898-.1084-.1807-.1885-.2729-.2402-.0923-.0527-.1973-.0781-.3154-.0781-.208 0-.3735.0967-.4961.29-.123.1943-.1846.4922-.1846.8936 0 .4395.0532.7471.1597.9219s.2588.2617.457.2617c.2602-.0001.4775-.1417.6523-.4249zM153.1792 169.3193c.3262.3516.4893.8447.4893 1.4775 0 .4023-.0742.7529-.2231 1.0527-.1489.3008-.3618.5332-.6382.6982-.2764.166-.6035.248-.9819.248-.5718 0-1.022-.1758-1.3501-.5273-.3286-.3525-.4927-.8447-.4927-1.4785 0-.4014.0742-.7529.2231-1.0527s.3613-.5332.6382-.6982c.2764-.165.6035-.248.9814-.248.5767 0 1.0283.1758 1.354.5283zm-1.8643.5811c-.1133.1914-.1699.4883-.1699.8896 0 .4111.0552.7109.1665.9004.1108.1895.2822.2832.5137.2832.2271 0 .397-.0957.5107-.2871.1133-.1914.1699-.4873.1699-.8896 0-.4111-.0557-.7109-.1665-.9004-.1113-.1885-.2822-.2832-.5142-.2832-.2265 0-.3969.0957-.5102.2871zM156.8442 168.9111c.2358.0811.4438.1943.6235.3408l-.4111.6309c-.3071-.1943-.6167-.291-.9287-.291-.1465 0-.2588.0254-.3364.0742-.0781.0498-.1172.1201-.1172.21 0 .0703.0176.1289.0532.1729.0356.0459.1074.0918.2163.1387.1084.0469.2764.1045.5034.1699.3921.1133.6841.2617.8755.4434s.2871.4336.2871.7549c0 .2549-.0737.4766-.2197.6631-.147.1865-.3477.3291-.603.4287-.2549.0996-.5386.1484-.8506.1484-.3164 0-.6108-.0488-.8823-.1484-.272-.0996-.5024-.2363-.6914-.4111l.5459-.6094c.3164.2451.6499.3682.9995.3682.1704 0 .3037-.0303.4004-.0918.0972-.0615.1455-.1494.1455-.2627 0-.0898-.019-.1602-.0566-.2129-.0381-.0518-.1113-.0996-.2197-.1445-.1089-.0449-.2812-.1006-.5176-.167-.3735-.1084-.6523-.2598-.8364-.4541-.1846-.1934-.2764-.4346-.2764-.7227 0-.2178.0625-.4121.1875-.585.1255-.1729.3052-.3096.5391-.4111s.5044-.1523.8115-.1523c.2695-.0002.5219.0399.7587.1199zM159.7485 167.5215v2.7939h-.6406v-2.1572l-.5991.3672-.2852-.4336.9424-.5703h.5825zM162.2119 167.9883h-1.0127v.5869a.9635.9635 0 0 1 .4131-.0908c.1543 0 .2925.0361.4136.1074.1211.0723.2163.1768.2852.3145s.1035.2998.1035.4873c0 .1963-.0449.3691-.1348.5186-.0894.1504-.2173.2666-.3843.3496-.1665.083-.3589.124-.5767.124-.3774 0-.687-.1406-.9297-.4219l.3638-.3389c.1514.1797.332.2686.5415.2686.1431 0 .2539-.042.3325-.1279.0786-.085.1177-.208.1177-.3682 0-.3105-.1309-.4668-.3926-.4668a.5596.5596 0 0 0-.1611.0234c-.0522.0146-.1104.04-.1733.0762h-.4424v-1.5088h1.7109l-.0742.4668z"/>
    <g>
      <path class="st12" d="M182.7563 167.791l-.0776.5391h-1.8931v1.5947h1.6445v.5391h-1.6445v1.6729h2.0273v.5391h-2.7007v-4.8848h2.6441zM187.0454 167.4365v5.2393h-.5742l-.064-.5176c-.123.1895-.2764.3369-.4609.4434-.1841.1064-.3896.1592-.6167.1592-.4443 0-.79-.1748-1.0386-.5244-.248-.3496-.3721-.8203-.3721-1.4111 0-.3828.0591-.7227.1772-1.0205s.2881-.5303.5103-.6982.4824-.252.7798-.252c.3828 0 .7188.1543 1.0068.4609v-1.9561l.6524.0771zm-1.0635 4.669c.1416-.0928.2788-.2305.4111-.415v-1.8291c-.123-.1602-.2539-.2822-.3936-.3652-.1392-.082-.2964-.124-.4712-.124-.2886 0-.5117.1211-.6699.3613-.1587.2412-.2378.6006-.2378 1.0781 0 .4814.0732.8408.2202 1.0771.146.2363.3564.3545.6309.3545.1983 0 .3687-.0459.5103-.1377zM189.4697 167.2734c.085.0859.1274.1914.1274.3193s-.0425.2334-.1274.3154c-.085.083-.1963.124-.333.124-.1323 0-.2412-.041-.3262-.124-.085-.082-.1279-.1875-.1279-.3154s.043-.2334.1279-.3193c.085-.085.1938-.127.3262-.127.1367.0001.2481.0421.333.127zm0 1.6661v3.7363h-.6523v-3.7363h.6523zM193.1274 172.5059c-.2456.1699-.5244.2549-.8364.2549-.3169 0-.5635-.0908-.7407-.2725-.1772-.1826-.2661-.4453-.2661-.791v-2.2539h-.6519v-.5039h.6519v-.8428l.6523-.0781v.9209h.8862l-.0708.5039h-.8154v2.2256c0 .1943.0342.335.103.4219.0684.0879.1831.1309.3438.1309.1465 0 .312-.0488.4961-.1484l.248.4325zM196.7466 169.3789c.291.3506.436.8252.436 1.4258 0 .3867-.0659.7285-.1982 1.0244-.1323.2949-.3237.5244-.5742.6875s-.5483.2441-.8936.2441c-.5244 0-.9331-.1748-1.2261-.5244-.2935-.3496-.4395-.8252-.4395-1.4248 0-.3877.0659-.7295.1982-1.0244.1323-.2959.3237-.5244.5742-.6875s.5508-.2451.9004-.2451c.5245 0 .9323.1748 1.2228.5244zm-2.1939 1.4326c0 .9502.3213 1.4248.9639 1.4248.6431 0 .9644-.4775.9644-1.4316 0-.9502-.3188-1.4258-.957-1.4258-.6475 0-.9713.4775-.9713 1.4326zM200.6777 168.8975l-.1206.6377a1.3453 1.3453 0 0 0-.3262-.042c-.2314 0-.418.085-.5601.2549-.1416.1699-.2529.4346-.333.7939v2.1338h-.6523v-3.7363h.5601l.064.7588c.0991-.2783.2339-.4893.4038-.6309.1704-.1416.3687-.2129.5957-.2129.1323 0 .2554.0146.3686.043zM202.4995 167.2734c.085.0859.1274.1914.1274.3193s-.0425.2334-.1274.3154c-.085.083-.1963.124-.333.124-.1323 0-.2412-.041-.3262-.124-.085-.082-.1279-.1875-.1279-.3154s.043-.2334.1279-.3193c.085-.085.1938-.127.3262-.127.1367.0001.2481.0421.333.127zm0 1.6661v3.7363h-.6523v-3.7363h.6523zM206.8662 172.1406c.0518.0732.1299.1289.2339.167l-.1489.4531c-.1938-.0234-.3496-.0781-.4678-.1631s-.2056-.2168-.2622-.3965c-.2505.373-.6216.5596-1.1133.5596-.3687 0-.6592-.1035-.8716-.3115-.2129-.208-.3193-.4795-.3193-.8154 0-.3975.1431-.7021.4292-.915.2856-.2119.6909-.3184 1.2158-.3184h.5742v-.2764c0-.2646-.064-.4541-.1914-.5674-.1279-.1133-.3237-.1699-.5884-.1699-.2744 0-.6099.0664-1.0068.1982l-.1631-.4746c.4634-.1709.8931-.2559 1.29-.2559.4399 0 .7681.1074.9854.3232.2178.2148.3262.5205.3262.918v1.708c0 .1515.0259.2638.0781.337zm-.73-.4502v-.8574h-.4893c-.6899 0-1.0352.2549-1.0352.7656 0 .2217.0542.3896.1631.5029s.2695.1699.4819.1699c.3737.0001.6666-.1933.8795-.581zM208.6562 172.5449c-.1396-.1445-.209-.3467-.209-.6064v-4.502l.6519-.0771v4.5654c0 .1035.0181.1787.0532.2266.0356.0469.0957.0703.1807.0703.0898 0 .1704-.0137.2412-.042l.1704.4531c-.1562.0859-.3286.1279-.5176.1279-.2412 0-.4316-.0722-.5708-.2158z"/>
    </g>
    <g>
      <path class="st12" d="M234.5508 167.791v4.8848h-.6733v-4.8848h.6733zM236.5322 172.5449c-.1396-.1445-.209-.3467-.209-.6064v-4.502l.6519-.0771v4.5654c0 .1035.0181.1787.0532.2266.0356.0469.0957.0703.1807.0703.0898 0 .1704-.0137.2412-.042l.1704.4531c-.1562.0859-.3286.1279-.5176.1279-.2412 0-.4316-.0722-.5708-.2158zM241.6401 172.6758h-.5601l-.0498-.5811c-.1416.2314-.3047.4004-.4893.5068-.1841.1064-.4087.1592-.6733.1592-.3262 0-.5815-.0996-.7656-.2979-.1846-.1982-.2764-.4795-.2764-.8438v-2.6797h.6519v2.6094c0 .2549.0449.4355.1348.542s.2363.1592.4395.1592c.3643 0 .6758-.2148.936-.6445v-2.666h.6523v3.7364zM245.1138 168.9609c.2031.0713.397.1777.5811.3193l-.2764.4111c-.1699-.1084-.332-.1895-.4858-.2412a1.5076 1.5076 0 0 0-.4854-.0781c-.2129 0-.3804.0439-.5034.1309-.123.0879-.1841.207-.1841.3584s.0576.2695.1733.3545.3252.168.6274.248c.416.1045.7266.2461.9321.4258s.3086.4248.3086.7373c0 .3682-.1431.6494-.4287.8428-.2861.1943-.6348.291-1.0459.291-.5669 0-1.0376-.1631-1.4106-.4893l.3472-.3965c.3169.2412.6665.3613 1.0493.3613.2456 0 .4409-.0508.585-.1523s.2163-.2402.2163-.415c0-.127-.0264-.2305-.0781-.3086-.0522-.0771-.1416-.1465-.2695-.2051-.1274-.0596-.3145-.1221-.5601-.1875-.397-.1045-.6841-.2441-.8613-.4189s-.2656-.3965-.2656-.666c0-.1943.0576-.3701.1738-.5283.1157-.1582.2764-.2812.4819-.3682.2056-.0879.436-.1318.6909-.1318.2554 0 .4844.0361.688.1064zM249.0337 172.5059c-.2456.1699-.5244.2549-.8364.2549-.3169 0-.5635-.0908-.7407-.2725-.1772-.1826-.2661-.4453-.2661-.791v-2.2539h-.6519v-.5039h.6519v-.8428l.6523-.0781v.9209h.8862l-.0708.5039h-.8154v2.2256c0 .1943.0342.335.103.4219.0684.0879.1831.1309.3438.1309.1465 0 .312-.0488.4961-.1484l.248.4325zM252.1245 168.8975l-.1206.6377a1.3453 1.3453 0 0 0-.3262-.042c-.2314 0-.418.085-.5601.2549-.1416.1699-.2529.4346-.333.7939v2.1338h-.6523v-3.7363h.5601l.064.7588c.0991-.2783.2339-.4893.4038-.6309.1704-.1416.3687-.2129.5957-.2129.1323 0 .2553.0146.3686.043zM255.6406 172.1406c.0518.0732.1299.1289.2339.167l-.1489.4531c-.1938-.0234-.3496-.0781-.4678-.1631s-.2056-.2168-.2622-.3965c-.2505.373-.6216.5596-1.1133.5596-.3687 0-.6592-.1035-.8716-.3115-.2129-.208-.3193-.4795-.3193-.8154 0-.3975.1431-.7021.4292-.915.2856-.2119.6909-.3184 1.2158-.3184h.5742v-.2764c0-.2646-.064-.4541-.1914-.5674-.1279-.1133-.3237-.1699-.5884-.1699-.2744 0-.6099.0664-1.0068.1982l-.1631-.4746c.4634-.1709.8931-.2559 1.29-.2559.4399 0 .7681.1074.9854.3232.2178.2148.3262.5205.3262.918v1.708c0 .1515.0259.2638.0781.337zm-.73-.4502v-.8574h-.4893c-.6899 0-1.0352.2549-1.0352.7656 0 .2217.0542.3896.1631.5029s.2695.1699.4819.1699c.3737.0001.6667-.1933.8795-.581zM259.2983 168.9502c.1846.0645.3618.167.5317.3086l-.312.4111c-.1323-.0947-.2607-.1641-.3862-.209-.125-.0449-.2632-.0674-.4146-.0674-.3027 0-.5376.1201-.7056.3613-.1675.2412-.2515.5977-.2515 1.0703s.0825.8213.248 1.0459.4019.3369.709.3369c.1465 0 .2812-.0225.4038-.0674.123-.0449.2603-.1172.4116-.2158l.2974.4248c-.3403.2744-.7207.4111-1.1411.4111-.5059 0-.9038-.1699-1.1948-.5107-.2905-.3398-.4355-.8096-.4355-1.4102 0-.3975.0659-.7441.1982-1.042s.3203-.5293.5635-.6953c.2437-.165.5327-.248.8687-.248.2222.0001.4254.0323.6094.0958zM261.7939 167.2734c.085.0859.1274.1914.1274.3193s-.0425.2334-.1274.3154c-.085.083-.1963.124-.333.124-.1323 0-.2412-.041-.3262-.124-.085-.082-.1279-.1875-.1279-.3154s.043-.2334.1279-.3193c.085-.085.1938-.127.3262-.127.1368.0001.2481.0421.333.127zm0 1.6661v3.7363h-.6523v-3.7363h.6523zM266.1924 169.3789c.291.3506.436.8252.436 1.4258 0 .3867-.0659.7285-.1982 1.0244-.1323.2949-.3237.5244-.5742.6875s-.5483.2441-.8936.2441c-.5244 0-.9331-.1748-1.2261-.5244-.2935-.3496-.4395-.8252-.4395-1.4248 0-.3877.0659-.7295.1982-1.0244.1323-.2959.3237-.5244.5742-.6875s.5508-.2451.9004-.2451c.5245 0 .9323.1748 1.2228.5244zm-2.1939 1.4326c0 .9502.3213 1.4248.9639 1.4248.6431 0 .9644-.4775.9644-1.4316 0-.9502-.3188-1.4258-.957-1.4258-.6475 0-.9713.4775-.9713 1.4326zm1.524-3.8144l.291.5459-1.5029.6104-.1987-.3477 1.4106-.8086zM270.687 169.1592c.1914.2041.2871.4824.2871.8369v2.6797h-.6523v-2.5879c0-.2646-.0493-.4512-.1484-.5596-.0996-.1084-.2461-.1631-.4399-.1631-.1982 0-.373.0566-.5244.1699s-.293.2764-.4253.4893v2.6514h-.6523v-3.7363h.5601l.0566.5537c.1323-.1992.2969-.3545.4927-.4688.1963-.1133.4126-.1699.6489-.1699.3402 0 .6058.1016.7972.3047z"/>
    </g>
    <g>
      <path class="st12" d="M297.5317 167.791l-.9922 4.8848h-.8652l-.8999-4.0908-.9077 4.0908h-.8433l-.9927-4.8848h.6592l.7871 4.2959.9429-4.2959h.7158l.9644 4.2959.8149-4.2959h.6167zM301.5444 171.0312h-2.3823c.0283.4111.1323.7139.312.9072.1797.1943.4111.291.6948.291.1797 0 .3447-.0264.4961-.0781s.3096-.1348.4751-.248l.2837.3896c-.397.3115-.832.4678-1.3047.4678-.5195 0-.9248-.1699-1.2158-.5107-.2905-.3398-.4355-.8076-.4355-1.4033 0-.3877.0625-.7314.1875-1.0312.1255-.2998.3052-.5352.5391-.7051.2339-.1709.5093-.2559.8257-.2559.4961 0 .8765.1631 1.1416.4893.2646.3262.397.7773.397 1.3545a4.1218 4.1218 0 0 1-.0143.3329zm-.6313-.5244c0-.3691-.0732-.6504-.2197-.8438-.1465-.1943-.3662-.291-.6592-.291-.5342 0-.8247.3926-.8721 1.1768h1.751v-.042zM305.748 169.3691c.2505.3428.376.8213.376 1.4355 0 .3867-.0591.7285-.1772 1.0244-.1182.2949-.2886.5244-.5103.6875-.2227.1631-.4824.2441-.7798.2441-.3926 0-.7231-.165-.9927-.4961l-.064.4111h-.5742v-5.2393l.6523-.0771v2.0479c.2695-.3682.6216-.5527 1.0562-.5527.4254.0001.7633.172 1.0137.5147zm-.5703 2.5235c.1631-.2344.2446-.5967.2446-1.0879 0-.5059-.0757-.8711-.2271-1.0957s-.3662-.3369-.645-.3369c-.3311 0-.6216.1943-.8721.5811v1.7871c.0991.1553.2207.2783.3652.3682.144.0898.2964.1348.457.1348.2883-.0001.5143-.1173.6774-.3507z"/>
    </g>
    <g>
      <path class="st12" d="M329.0464 170.4502c.208.1797.312.458.312.8359 0 .9268-.645 1.3896-1.9355 1.3896h-1.3467v-4.8848h1.1553c.6191 0 1.0928.1025 1.4214.3057s.4927.5127.4927.9277c0 .2842-.0884.5205-.2656.709-.1772.1895-.3936.3096-.6489.3623.3358.0567.6073.1749.8153.3546zm-2.2969-2.127v1.5381h.7373c.2837 0 .5161-.0684.6982-.2051.1821-.1377.2729-.3311.2729-.582 0-.2832-.0957-.4795-.2871-.5879s-.481-.1631-.8682-.1631h-.5531zm1.5845 3.6368c.2104-.1182.3154-.3428.3154-.6738 0-.3213-.1016-.5527-.3047-.6943-.2036-.1416-.4678-.2129-.7939-.2129h-.8013v1.7578h.6733c.397-.0001.7007-.0587.9112-.1768zM332.7681 168.8975l-.1206.6377a1.3453 1.3453 0 0 0-.3262-.042c-.2314 0-.418.085-.5601.2549-.1416.1699-.2529.4346-.333.7939v2.1338h-.6523v-3.7363h.5601l.064.7588c.0991-.2783.2339-.4893.4038-.6309.1704-.1416.3687-.2129.5957-.2129.1322 0 .2553.0146.3686.043zM336.2842 172.1406c.0518.0732.1299.1289.2339.167l-.1489.4531c-.1938-.0234-.3496-.0781-.4678-.1631s-.2056-.2168-.2622-.3965c-.2505.373-.6216.5596-1.1133.5596-.3687 0-.6592-.1035-.8716-.3115-.2129-.208-.3193-.4795-.3193-.8154 0-.3975.1431-.7021.4292-.915.2856-.2119.6909-.3184 1.2158-.3184h.5742v-.2764c0-.2646-.064-.4541-.1914-.5674-.1279-.1133-.3237-.1699-.5884-.1699-.2744 0-.6099.0664-1.0068.1982l-.1631-.4746c.4634-.1709.8931-.2559 1.29-.2559.4399 0 .7681.1074.9854.3232.2178.2148.3262.5205.3262.918v1.708c0 .1515.0258.2638.0781.337zm-.73-.4502v-.8574h-.4893c-.6899 0-1.0352.2549-1.0352.7656 0 .2217.0542.3896.1631.5029s.2695.1699.4819.1699c.3736.0001.6666-.1933.8795-.581zM340.5269 169.1592c.1914.2041.2871.4824.2871.8369v2.6797h-.6523v-2.5879c0-.2646-.0493-.4512-.1484-.5596-.0996-.1084-.2461-.1631-.4399-.1631-.1982 0-.373.0566-.5244.1699s-.293.2764-.4253.4893v2.6514h-.6523v-3.7363h.5601l.0566.5537c.1323-.1992.2969-.3545.4927-.4688.1963-.1133.4126-.1699.6489-.1699.3401 0 .6057.1016.7972.3047zM345.4434 167.4365v5.2393h-.5742l-.064-.5176c-.123.1895-.2764.3369-.4609.4434-.1841.1064-.3896.1592-.6167.1592-.4443 0-.79-.1748-1.0386-.5244-.248-.3496-.3721-.8203-.3721-1.4111 0-.3828.0591-.7227.1772-1.0205s.2881-.5303.5103-.6982.4824-.252.7798-.252c.3828 0 .7188.1543 1.0068.4609v-1.9561l.6524.0771zm-1.0635 4.669c.1416-.0928.2788-.2305.4111-.415v-1.8291c-.123-.1602-.2539-.2822-.3936-.3652-.1392-.082-.2964-.124-.4712-.124-.2886 0-.5117.1211-.6699.3613-.1587.2412-.2378.6006-.2378 1.0781 0 .4814.0732.8408.2202 1.0771.146.2363.3564.3545.6309.3545.1983 0 .3687-.0459.5103-.1377zM347.8677 167.2734c.085.0859.1274.1914.1274.3193s-.0425.2334-.1274.3154c-.085.083-.1963.124-.333.124-.1323 0-.2412-.041-.3262-.124-.085-.082-.1279-.1875-.1279-.3154s.043-.2334.1279-.3193c.085-.085.1938-.127.3262-.127.1367.0001.248.0421.333.127zm0 1.6661v3.7363h-.6523v-3.7363h.6523zM352.1953 169.1592c.1914.2041.2871.4824.2871.8369v2.6797h-.6523v-2.5879c0-.2646-.0493-.4512-.1484-.5596-.0996-.1084-.2461-.1631-.4399-.1631-.1982 0-.373.0566-.5244.1699s-.293.2764-.4253.4893v2.6514h-.6523v-3.7363h.5601l.0566.5537c.1323-.1992.2969-.3545.4927-.4688.1963-.1133.4126-.1699.6489-.1699.3402 0 .6058.1016.7972.3047zM357.2324 169.1104c-.1421.0469-.2979.0771-.4683.0918-.1699.0137-.3779.0215-.6235.0215.4395.1982.6592.5127.6592.9424 0 .374-.1274.6787-.3828.915s-.6025.3545-1.042.3545c-.1704 0-.3286-.0244-.4751-.0713-.0566.0381-.1016.0889-.1348.1523s-.0493.1289-.0493.1953c0 .2031.1626.3047.4888.3047h.5957c.2505 0 .4727.0449.6665.1348.1934.0898.3438.2129.4502.3682.106.1562.1592.333.1592.5322 0 .3633-.1489.6436-.4463.8398-.2979.1963-.7329.2939-1.3047.2939-.4019 0-.7192-.041-.9536-.124-.2339-.083-.4004-.207-.4995-.3721s-.1489-.3779-.1489-.6377h.5884c0 .1514.0283.2705.085.3574.0566.0879.1582.1543.3052.1992.146.0449.354.0674.6235.0674.3921 0 .6724-.0488.8403-.1455.1675-.0977.2515-.2422.2515-.4365 0-.1748-.0664-.3066-.1987-.3965s-.3164-.1348-.5527-.1348h-.5884c-.3169 0-.5566-.0674-.7197-.2021s-.2446-.3037-.2446-.5068c0-.123.0356-.2412.1064-.3545s.1724-.2148.3052-.3047c-.2178-.1133-.377-.2539-.4785-.4219-.1021-.168-.1528-.3721-.1528-.6133 0-.25.063-.4746.188-.6738.125-.1982.2979-.3525.5176-.4639s.4644-.167.7339-.167c.293.0049.5386-.0059.7373-.0312.1982-.0264.3623-.0615.4927-.1064.1299-.0449.2891-.1104.4785-.1953l.1911.5889zm-2.4707.4423c-.1348.1543-.2021.3564-.2021.6064 0 .2549.0684.46.2056.6133s.3311.2305.5815.2305c.2549 0 .4502-.0742.5845-.2236.1348-.1484.2021-.3574.2021-.627 0-.5537-.2671-.8301-.8008-.8301-.2461.0001-.436.0772-.5708.2305z"/>
    </g>
  </g>
  <g>
    <path class="st4" d="M-18.83 1.9645C-8.6184 2.417.4649 4.2432 9.0983 9.9281c7.8783 5.1877 13.4292 12.7066 13.7679 22.3617.0688 1.9617 3.1263 1.9709 3.0571 0-.343-9.777-5.3388-17.7044-13.092-23.4673C3.3304 1.7606-7.195-.577-18.83-1.0926c-1.967-.0872-1.9628 2.9701 0 3.0571z"/>
  </g>
  <g>
    <path class="st4" d="M-8.1385 1.6194c12.0608.1975 23.5367 3.7228 33.7783 10.0704 8.8714 5.4984 16.8005 12.6661 26.3135 17.0978 11.9068 5.5468 27.9226 7.5698 36.7702-4.1288 1.2573-1.6625-1.5537-3.2781-2.7966-1.6347-10.6511 14.0832-31.405 4.5152-42.7957-3.2043C35.1053 14.3806 27.5375 8.255 18.6266 4.2677 10.1702.4838 1.1137-1.4679-8.1385-1.6194c-2.0849-.0341-2.0854 3.2046 0 3.2388z"/>
  </g>
  <g>
    <path class="st4" d="M51.4996 28.4171c2.0961 1.843 3.5734 3.665 4.7018 6.2454.8547 1.9546 1.5496 3.8857 2.727 5.6822 2.0132 3.0718 4.7345 5.4807 7.8999 7.3073 1.7071.9851 3.2484-1.6556 1.543-2.6397-4.0914-2.3609-6.9712-5.7109-8.7797-10.0693-1.4773-3.5603-3.0069-6.1172-5.9303-8.6876-1.4723-1.2945-3.6427.8595-2.1617 2.1617z"/>
  </g>
  <g>
    <path class="st5" d="M41.015 18.5326c-1.2699-2.4089-1.9564-5.2006-1.4863-7.8829.4701-2.6822 2.221-5.208 4.7551-6.2049.3879-.1526.8062-.2707 1.2183-.2075.522.08.9543.4353 1.3493.7858.5926.5256 1.1783 1.0861 1.5411 1.7902.5534 1.0741.521 2.3743.1742 3.5317s-.9816 2.2039-1.6099 3.2359l-2.5244 4.1471c-.5189.8525-1.0924 1.7541-2.006 2.1558"/>
  </g>
  <g>
    <path class="st5" d="M42.5877 18.4191c2.2189-3.618 5.6445-6.4814 9.5987-8.0236.8186-.3193 1.7341-.5837 2.5616-.2883.7704.275 1.2982.9774 1.7322 1.6708.4917.7856.9338 1.6375 1.0112 2.5611.0997 1.1908-.4347 2.3749-1.2471 3.2512-.8124.8763-1.8805 1.4767-2.9819 1.9403-3.5562 1.4971-7.6543 1.6642-11.3206.4617"/>
  </g>
  <g>
    <path class="st6" d="M42.5848 8.9547c-.8951.9565-1.273 2.5099-.2369 3.5293.9602.9447 2.6101.7762 3.2265-.4573.5782-1.1571.5885-2.7946-.3867-3.734-1.0599-1.0211-3.0196-.6027-3.3501.9077-.1476.6744.2024 1.3839.8936 1.5738.6399.1758 1.4254-.2156 1.5738-.8936-.0585.2672-.4297.4303-.6765.3678.4056.1027-.3074-.0982-.2305-.1466.0254-.016-.1226.7589-.113.793-.0944-.3369.7436-.4496.9222-.1497l.0638.2347c-.0273.0583-.0262.0446.0035-.041-.0416.0195.1575-.2152.1197-.1747 1.1244-1.2016-.6813-3.0149-1.8094-1.8094z"/>
  </g>
  <g>
    <path class="st6" d="M51.1953 13.2771c-1.3534.1491-2.7134.8453-2.8929 2.3392-.2006 1.6691 1.1771 2.7241 2.7491 2.4781 1.3258-.2074 3.3465-.6555 3.3706-2.334.0245-1.702-1.6374-2.3412-3.0741-2.2476-.6896.0449-1.2794.5559-1.2794 1.2794 0 .6578.5863 1.3246 1.2794 1.2794.0941-.0061.5764.0334.6335-.0148a.256.256 0 0 1 .0851.022c-.2144-.1077-.2238-.2788-.0283-.5134.2168-.3475.212-.4667-.0145-.3576a10.0087 10.0087 0 0 1-.475.1521c-.2391.0701-.4811.1336-.7252.1836-.4642.0951-.2617-.0331-.0805.2019-.223-.2893.1861.245.077.2232.0054.0011.3091-.1255.3752-.1328.6867-.0757 1.2794-.5339 1.2794-1.2794 0-.6328-.5882-1.3554-1.2794-1.2793z"/>
  </g>
  <g>
    <path class="st14" d="M25.1204 26.3579c1.4867-1.5166 4.4498-1.0164 5.3562.9043.1463.31.2486.6494.4735.908.2548.2929.6316.4424.9603.6489 1.4808.9301 1.8075 3.2619.6393 4.5631-.5133.5717-1.2985 1.0617-1.2886 1.83.0073.5678.463 1.0103.8127 1.4576a4.6961 4.6961 0 0 1 .9413 2.1981c.1515 1.0321-.2975 2.3522-1.3361 2.4506-.4206.0398-.8791-.1335-1.2493.0701-.4207.2315-.4777.8016-.7188 1.2168-.3912.6734-1.2936.9033-2.0555.7419s-1.4173-.6291-2.0482-1.0857c-.9421 2.0433-3.4146 3.5526-5.4816 2.6638-.4977-.214-.936-.547-1.4284-.7728-.8838-.4054-1.915-.4542-2.7463-.9586-1.3023-.7903-1.737-2.7212-.899-3.9933-.9939-.449-2.0082-.9551-2.6893-1.8069-.6811-.8518-.9317-2.1439-.2993-3.0324.162-.2276.3823-.4399.4096-.7179.0243-.2478-.1129-.4783-.1937-.7139-.3328-.9711.3133-2.0131 1.0881-2.6864.7748-.6734 1.7206-1.1788 2.3075-2.021.5287-.7587.7049-1.707 1.1428-2.5215.4378-.8145 1.3441-1.5356 2.2245-1.2525.2626.0844.5307.2546.7926.1683.2834-.0934.3904-.4297.5869-.6541.4637-.5296 1.3123-.3583 1.9824-.1428.6704.2155 1.357.4395 1.908.8779.551.4384.9461 1.1442.8171 1.8365"/>
    <path class="st4" d="M24.9219 32.8733c-.472-1.3879-2.1643-2.257-3.5368-1.7419-1.3726.515-2.0598 2.3886-1.2692 3.6232.2839.4433.7061.777 1.1202 1.1019.4392.3446.9151.7039 1.4721.7414.6599.0444 1.2809-.3957 1.6211-.9629.3402-.5672.4468-1.2423.5006-1.9015"/>
  </g>
  <g>
    <path class="st6" d="M95.7333 27.3426c-.1075 2.1211-2.6574 3.7111-4.6093 2.8742-.315-.1351-.6166-.3214-.9565-.3658-.3849-.0504-.7661.0876-1.1491.1509-1.7252.2855-3.5157-1.2436-3.5039-2.9921.0052-.7683.2682-1.6557-.2486-2.2243-.3819-.4202-1.0164-.4493-1.5749-.5524a4.696 4.696 0 0 1-2.162-1.0215c-.7977-.6722-1.3368-1.9581-.6245-2.7203.2884-.3087.7467-.4829.8887-.8808.1615-.4522-.1739-.9168-.2686-1.3875-.1536-.7634.3696-1.5339 1.0469-1.9182.6773-.3843 1.4781-.4687 2.2531-.5452-.6494-2.1542.2008-4.9234 2.3375-5.6285.5144-.1698 1.0634-.2111 1.5817-.3685.9304-.2825 1.7347-.9297 2.6915-1.1032 1.4988-.2718 3.1045.8856 3.3205 2.3934 1.0417-.3229 2.1367-.6164 3.2112-.4304 1.0746.1861 2.1189.9872 2.2346 2.0717.0296.2778.0055.5828.1694.809.1461.2016.4017.2832.6183.406.893.5063 1.1001 1.7147.9665 2.7325s-.5065 2.0233-.3875 3.0429c.1072.9185.604 1.7452.8163 2.6453.2123.9001.0119 2.0407-.8349 2.4125-.2526.1109-.5661.1612-.705.3995-.1502.2578-.0074.5805-.0057.8788.004.7039-.7448 1.1382-1.3893 1.4213-.6447.2831-1.3072.5706-2.0104.6078s-1.4669-.2293-1.8293-.8331"/>
    <path class="st7" d="M91.5621 22.3334c1.2736.7261 3.1166.2547 3.8027-1.0409.6861-1.2956-.0417-3.1538-1.4521-3.5539-.5064-.1437-1.0437-.1135-1.5692-.0822-.5573.0332-1.1518.0798-1.5936.421-.5235.4042-.6966 1.1455-.5752 1.7956s.4891 1.2262.886 1.7553"/>
  </g>
  <g>
    <path class="st5" d="M49.7212 27.5294c.0353 4.3515-1.3021 8.7042-3.7748 12.2851-.3603.5218-.7588 1.0411-1.3058 1.3617-.9708.569-2.1867.4022-3.2967.2175-.626-.1041-1.273-.2163-1.8011-.5681-.7368-.4908-1.1259-1.3914-1.1773-2.2752s.194-1.7584.5037-2.5878c1.5405-4.1257 4.8013-7.5781 8.8325-9.3514"/>
  </g>
  <g>
    <path class="st6" d="M43.5992 35.1433c.3025-.4583.0729-.0368.0655-.0772a1.7398 1.7398 0 0 1-.184.0056c-.1104-.0035-.0315.0634.2365.2007.0699-.0036.0632-.1002.1205-.2036.1716-.3101.6235-.6191.9209-.5023l-.5646-.329-.1755-.3868c.0159.0397.0114.0806-.0136.1227-.0697.1112-.0887.3917-.127.513-.0953.3023-.2465.569-.4152.8364-.8812 1.3968 1.3321 2.6822 2.2095 1.2915.7015-1.112 1.4733-3.1082.3311-4.1861-1.0717-1.0114-3.0152-.2466-3.8751.6846-.94 1.0179-1.3681 2.7233-.3288 3.8374 1.1076 1.1872 3.1817.7384 4.0092-.5154.9098-1.3783-1.3052-2.6614-2.2094-1.2915z"/>
  </g>
  <g>
    <path class="st5" d="M16.6086 15.7778c-1.5902 3.8791-4.6405 7.1391-8.4054 8.9834-1.182.579-2.4554 1.0275-3.7711 1.062-1.3157.0345-2.6833-.3866-3.5949-1.3359-1.6606-1.7293-1.2854-4.7236.2568-6.5593s3.9195-2.7361 6.2457-3.3168a34.4165 34.4165 0 0 1 8.6389-1.0217"/>
  </g>
  <g>
    <path class="st6" d="M6.9888 19.9273c.1477.2148-.1539.1598.0158.1193.1246-.0298.3275-.3344.4275-.4143.0958-.0765.4213-.2764.4151-.2658-.0448.0767-.4406-.6816-.1657-.5159-.0166-.01-.1182.134-.1818.1536-.4188.1289-.7107.3766-1.1792.4268-.687.0735-1.2794.5354-1.2794 1.2794 0 .6347.588 1.3534 1.2794 1.2794 1.245-.1332 2.5695-.5486 3.3697-1.5747.8508-1.091.6034-2.6165-.6292-3.2968-2.1622-1.1934-5.8562 1.8112-4.2817 4.1006.3911.5686 1.123.826 1.7505.459.5633-.3296.8524-1.1785.459-1.7506z"/>
  </g>
  <g>
    <path class="st7" d="M65.407 49.845c-1.4948-1.3415-1.1456-4.1618.6313-5.0982.2868-.1511.6032-.2619.8382-.4852.2661-.2529.3916-.6151.573-.9343.817-1.4378 3.0065-1.8436 4.2845-.794.5616.4612 1.0572 1.1826 1.7827 1.1412.5361-.0306.9352-.4795 1.3433-.8286a4.4414 4.4414 0 0 1 2.0376-.9809c.9688-.1861 2.2347.1831 2.3709 1.1602.0552.3957-.0895.8362.1183 1.1774.2362.3878.7773.4179 1.1796.6285.6525.3415.9073 1.1846.7866 1.9111-.1207.7265-.5354 1.3653-.9405 1.9803 1.9697.8049 3.4987 3.0781 2.7451 5.068-.1814.4791-.4778.9072-.6707 1.3818-.3462.8519-.3493 1.8282-.7913 2.6346-.6924 1.2633-2.4987 1.7544-3.7354 1.0157-.3828.9577-.8187 1.9371-1.5951 2.6161s-1.9867.9696-2.8525.4091c-.2218-.1436-.4315-.3429-.6953-.3571-.2351-.0126-.4472.1266-.6664.2127-.9036.3549-1.915-.2121-2.5834-.9161-.6685-.704-1.1854-1.5765-2.0056-2.0959-.7388-.4679-1.6421-.5949-2.4299-.9746-.7878-.3797-1.5068-1.2059-1.276-2.0495.0688-.2516.2185-.512.126-.7559-.1-.2638-.4222-.3509-.6424-.5273-.5196-.416-.3932-1.2249-.2175-1.867.1757-.6423.3587-1.3004.75-1.8392.3912-.5389 1.0416-.9416 1.7011-.8485"/>
    <path class="st2" d="M71.5711 49.7611c-1.2917.5038-2.0422 2.1388-1.4984 3.4141.5438 1.2753 2.3426 1.8465 3.4761 1.0482.407-.2867.7047-.6995.9944-1.1043.3073-.4293.6269-.8939.6392-1.4217.0145-.6253-.4272-1.1937-.9772-1.4915s-1.1923-.3704-1.8173-.3937"/>
  </g>
  <g>
    <path class="st4" d="M520.0018.4076c-11.6244-.1906-22.3166 1.5402-32.1931 8.0238-8.0938 5.3134-13.4765 12.9335-14.4125 22.6784-.188 1.9572 2.8704 1.9443 3.0571 0 .9236-9.6152 7.021-16.7496 15.1774-21.4372 8.9678-5.154 18.1557-6.3755 28.3711-6.2079 1.968.0322 1.9685-3.0249 0-3.0571z"/>
  </g>
  <g>
    <path class="st4" d="M509.3564-.7668c-9.7094-.4305-19.3405 1.1616-28.3652 4.7991-8.8756 3.5774-16.6331 9.1885-24.8505 13.9878-11.7984 6.8908-32.5562 14.4361-42.1199.0231-1.1472-1.7289-3.9535-.1088-2.7966 1.6347 8.1099 12.2221 24.5189 11.0733 36.6539 6.165 9.1374-3.6959 17.0606-9.7754 25.61-14.5745 11.0593-6.208 23.1676-9.3595 35.8682-8.7963 2.084.0923 2.0795-3.1467.0001-3.2389z"/>
  </g>
  <g>
    <path class="st4" d="M446.0105 23.3751c-3.229 2.5088-4.807 5.1057-6.6099 8.7176-2.0323 4.0714-5.172 7.0721-9.2245 9.0934-1.7607.8782-.2141 3.5161 1.543 2.6397 3.4523-1.722 6.3965-4.1364 8.6197-7.3064 1.1888-1.695 1.9414-3.5473 2.8747-5.3791 1.2-2.3553 2.9006-4.0044 4.9586-5.6034 1.5518-1.2057-.6257-3.3551-2.1616-2.1618z"/>
  </g>
  <g>
    <path class="st5" d="M459.1694 16.37c1.4136-2.3274 2.2682-5.0724 1.9616-7.7782s-1.9011-5.3331-4.37-6.4819c-.378-.1759-.7883-.3191-1.2034-.281-.5259.0482-.9789.3766-1.3945.7025-.6234.4887-1.242 1.0127-1.6469 1.6935-.6176 1.0385-.6641 2.3383-.388 3.5146.276 1.1763.8461 2.2593 1.4106 3.3276l2.2683 4.2926c.4662.8824.984 1.8172 1.8716 2.2735"/>
  </g>
  <g>
    <path class="st5" d="M457.6066 16.1613c-1.9954-3.7459-5.241-6.8118-9.0944-8.5909-.7977-.3683-1.6955-.6878-2.5394-.4431-.7857.2278-1.3551.8969-1.8303 1.5627-.5385.7543-1.0314 1.5778-1.1646 2.495-.1718 1.1825.2899 2.3969 1.0476 3.3208.7578.924 1.7875 1.588 2.8587 2.1176 3.4588 1.71 7.5393 2.1253 11.2718 1.1474"/>
  </g>
  <g>
    <path class="st6" d="M456.3208 8.4673c.1794.2168-.0802.0653.2196-.1619.0777-.0589.1669-.0829.2641-.0784.1533.0017.2695.0803.3484.236.2226.2844.2878.3077.1955.0702.0153-.121-.0549-.2831-.0634-.404-.0041-.0581-.0373-.2625-.0302-.2264-.0348-.1764.2198-.0887-.0254-.0389-.2053.0416-.7443.1093-.8009-.254.1066.6833.9621 1.0617 1.5738.8936.7289-.2003 1.0005-.8885.8936-1.5738-.2378-1.5242-2.2033-1.9207-3.2693-1.0256-1.0173.8542-1.1014 2.4208-.6482 3.5989.5053 1.3135 2.0772 1.6498 3.1543.7956 1.2176-.9656.87-2.5866-.0027-3.6406-.441-.5326-1.3531-.4563-1.8094 0-.5267.5269-.4418 1.2754.0002 1.8093z"/>
  </g>
  <g>
    <path class="st6" d="M448.9089 13.0175c.0844.0148.6031.2354.6488.231.0919-.0088-.1919.0755-.0209-.1491.0488-.0641.1105-.0788.1701-.1607.1149-.158.3423.0304.0202-.1061-.1828-.0775-.4077-.1105-.5994-.1716-.3853-.1229-.7782-.2449-1.1008-.494l.459.459c.1024.1444-.1299.7148-.2082.6129.0341.0444.7094.0383.8046.0503.6867.0868 1.2794-.6502 1.2794-1.2794 0-.7635-.5907-1.1924-1.2794-1.2794-1.3826-.1748-3.0007.3733-3.1115 1.9878-.1147 1.6721 1.742 2.2708 3.076 2.5818 1.4268.3326 2.835-.2843 3.0137-1.8592.1718-1.5145-1.0649-2.6434-2.4714-2.8908-.6798-.1196-1.3786.183-1.5738.8936-.1697.6177.2095 1.4535.8936 1.5739z"/>
  </g>
  <g>
    <path class="st14" d="M474.5602 25.1448c-1.392-1.604-4.38-1.2844-5.4012.5778-.1648.3005-.2875.6331-.5277.8776-.2721.2769-.6572.4033-.9979.5894-1.5345.8385-2.002 3.1463-.9148 4.5159.4777.6018 1.2317 1.1385 1.1753 1.9048-.0417.5663-.5235.9803-.8997 1.4057a4.6963 4.6963 0 0 0-1.0729 2.137c-.2138 1.021.1543 2.3659 1.185 2.5271.4174.0653.8856-.0799 1.2427.1458.4059.2565.4282.8291.6437 1.2582.3496.6958 1.2365.98 2.0067.8652.7702-.1149 1.4529-.542 2.1102-.9595.8164 2.0966 3.1928 3.7532 5.3099 2.9914.5097-.1834.9675-.4892 1.4727-.6848.9068-.351 1.9391-.3372 2.7994-.7903 1.3478-.7098 1.8988-2.6109 1.1395-3.9314 1.0193-.3878 2.0625-.8316 2.7939-1.6405.7315-.8089 1.06-2.0835.4827-3.0087-.1479-.237-.3549-.4623-.3653-.7414-.0092-.2488.1417-.4706.2366-.7008.3911-.9491-.1906-2.0284-.9232-2.7475-.7326-.7191-1.646-1.281-2.1807-2.1573-.4817-.7894-.6001-1.7466-.9877-2.5862-.3876-.8396-1.2485-1.6143-2.1444-1.3851-.2672.0684-.5451.222-.8014.1199-.2772-.1104-.3636-.4525-.5462-.6885-.4307-.5567-1.2881-.4372-1.9701-.2628-.6822.1744-1.3811.3564-1.9577.7606-.5766.4042-1.0138 1.0847-.927 1.7835"/>
    <path class="st4" d="M474.3632 31.6603c.5553-1.3568 2.2971-2.1216 3.636-1.5242s1.9111 2.5092 1.0471 3.6935c-.3102.4253-.7519.7327-1.185 1.032-.4593.3173-.9561.6471-1.5144.6508-.6614.0043-1.2545-.4727-1.5598-1.0594-.3052-.5868-.3706-1.2671-.3843-1.9283"/>
  </g>
  <g>
    <path class="st6" d="M404.2328 24.1757c-.0214 2.1237 2.4274 3.8654 4.4265 3.1485.3226-.1157.635-.2834.9769-.3071.3873-.0269.7594.1339 1.1378.2204 1.7047.3896 3.5847-1.028 3.6789-2.7741.0414-.7672-.1672-1.6689.3831-2.2052.4067-.3963 1.0418-.3868 1.6055-.4558a4.6966 4.6966 0 0 0 2.22-.8884c.837-.6226 1.4531-1.8734.7884-2.6775-.2692-.3256-.716-.5273-.8336-.9331-.1338-.4612.2292-.9045.3523-1.3687.1996-.7527-.2759-1.5535-.9286-1.9781-.6527-.4247-1.447-.5575-2.2159-.6808.7789-2.1108.0981-4.9265-1.9918-5.7599-.5032-.2006-1.0486-.2752-1.5565-.4637-.9116-.3384-1.6751-1.0332-2.6196-1.2644-1.4796-.3622-3.1525.6956-3.4596 2.1876-1.0202-.3854-2.0953-.7449-3.1792-.6243-1.0839.1206-2.1749.8569-2.3561 1.9323-.0464.2755-.0408.5814-.2181.7972-.1581.1924-.4181.2583-.6418.3678-.9221.4512-1.2021 1.6448-1.1305 2.6689s.3829 2.0502.2022 3.0608c-.1628.9103-.7087 1.7054-.9752 2.5909s-.1356 2.0362.687 2.4586c.2454.126.5553.1952.6794.4415.1343.2664-.0278.5799-.0476.8775-.0467.7023.6744 1.1813 1.3006 1.5029.6264.3217 1.2702.6489 1.9698.7286s1.4781-.1399 1.8765-.7206"/>
    <path class="st7" d="M408.7002 19.4288c-1.3153.6475-3.1263.0652-3.7325-1.2696-.6062-1.3348.2329-3.1455 1.6649-3.4593.5142-.1127 1.0487-.05 1.5713.0131.5542.0669 1.1448.1495 1.5651.5169.498.4353.6258 1.1856.4653 1.8272s-.5626 1.1943-.9908 1.6984"/>
  </g>
  <g>
    <path class="st5" d="M449.9336 24.8222c-.2992 4.3414.7718 8.7671 3.0228 12.4914.328.5427.6942 1.0852 1.2209 1.4384.9345.6269 2.1583.534 3.2775.4171.6311-.066 1.2838-.1387 1.8322-.4579.7652-.4452 1.2083-1.3205 1.3132-2.1996.1049-.8791-.087-1.767-.3458-2.6136-1.2874-4.2116-4.3329-7.8554-8.249-9.8699"/>
  </g>
  <g>
    <path class="st6" d="M453.336 34.0167c.7439 1.2912 2.7954 1.7468 3.9283.6871 1.1278-1.0551.7784-2.8122-.1225-3.8808-.8257-.9794-2.7409-1.8507-3.8509-.8323-1.1518 1.0568-.464 3.0584.1703 4.2134.7928 1.4438 3.0033.1542 2.2095-1.2915-.1561-.2842-.265-.5529-.3449-.8673-.0235-.0925-.0499-.1897-.0631-.2845a2.1023 2.1023 0 0 1-.0171-.2858c.0066-.2151-.0418-.1068-.1452.325l-.5645.329c.2721-.0882.7039.3297.8192.5597.0288.0574.0411.2173.0656.2416.1116.1106-.0982.0158.096-.0869.5106-.2698.2681-.0586.0927-.1198-.2259-.0789-.0982-.058-.0639.0015-.8219-1.4264-3.0339-.1392-2.2095 1.2916z"/>
  </g>
  <g>
    <path class="st5" d="M483.698 15.1004c1.352 3.9684 4.199 7.4074 7.8451 9.4766 1.1447.6496 2.3885 1.1745 3.6997 1.2887s2.7018-.2231 3.6693-1.1154c1.7624-1.6254 1.5695-4.637.1415-6.5628-1.428-1.9258-3.7464-2.9688-6.033-3.6895a34.4215 34.4215 0 0 0-8.5611-1.5438"/>
  </g>
  <g>
    <path class="st6" d="M495.0167 21.442c.9086-1.1631.6274-2.4357-.3245-3.4769-.8429-.922-2.0437-1.5873-3.3043-1.1607-1.3058.4419-1.8835 1.9145-1.2121 3.1279.61 1.1025 1.9573 1.7475 3.1522 1.9493.6806.1149 1.3777-.1798 1.5738-.8936.1687-.6139-.2085-1.4581-.8936-1.5738-.4643-.0784-.9069-.1944-1.3005-.462.0812.0552-.4085-.2767-.3204-.2798.1888-.0067-.1627.5139-.1624.523-.1335.0645-.1105.0658.0689.0038-.0232.0084-.0297.0226-.0193.0425.0876.0606.1764.1166.2587.1834.1166.0948.2764.3714.4174.4227.2528.0919-.1623.3217.2569-.2149-.4249.544-.5305 1.2788 0 1.8094.4422.4421 1.3814.5473 1.8092-.0003z"/>
  </g>
  <g>
    <path class="st7" d="M432.9233 46.1454c1.5735-1.2484 1.3959-4.0847-.3209-5.1271-.2771-.1682-.5862-.298-.8072-.5351-.2503-.2686-.3536-.6377-.5153-.9674-.7283-1.4847-2.8892-2.0225-4.2285-1.0524-.5885.4263-1.127 1.1163-1.8486 1.031-.5333-.063-.9044-.5354-1.2906-.9085a4.4412 4.4412 0 0 0-1.9743-1.1027c-.9557-.2446-2.2417.0472-2.4369 1.0143-.079.3916.0386.8401-.1895 1.168-.2593.3728-.8012.37-1.2155.5558-.672.3013-.9774 1.1274-.901 1.8599.0764.7325.4516 1.3952.8186 2.0337-2.0149.684-3.679 2.8602-3.0474 4.8922.152.4892.4219.9345.5856 1.4199.2939.8714.2378 1.846.6301 2.6778.6145 1.3029 2.3877 1.9027 3.6669 1.2404.324.9792.6997 1.9832 1.4335 2.708s1.9243 1.0883 2.8225.5814c.2301-.1298.4515-.3161.7157-.3142.2355.0016.4387.1535.6523.2527.8804.4091 1.9243-.0956 2.6342-.7578s1.2788-1.5017 2.129-1.9704c.7659-.4222 1.6751-.4942 2.4845-.8255s1.5772-1.1123 1.3979-1.9683c-.0535-.2553-.187-.5243-.08-.7621.1158-.2573.4427-.3247.6732-.4873.5439-.3838.4667-1.1988.3304-1.8503-.1364-.6518-.2792-1.3197-.6371-1.8813-.3578-.5616-.9826-1.003-1.6465-.9501"/>
    <path class="st2" d="M426.7757 45.6878c1.2587.5812 1.9088 2.2587 1.2886 3.4987s-2.4503 1.7011-3.5332.8354c-.3889-.3108-.661-.7409-.9257-1.1626-.2807-.4471-.5715-.9303-.5517-1.4579.0234-.625.4988-1.1656 1.0659-1.4295s1.2126-.2974 1.8379-.2828"/>
  </g>
</svg>
