<?xml version="1.0" encoding="utf-8"?>
<!-- Generator: Adobe Illustrator 23.0.1, SVG Export Plug-In . SVG Version: 6.00 Build 0)  -->
<svg version="1.1" id="Layer_1" xmlns="http://www.w3.org/2000/svg" xmlns:xlink="http://www.w3.org/1999/xlink" x="0px" y="0px"
	 viewBox="0 0 500 262" style="enable-background:new 0 0 500 262;" xml:space="preserve">
<style type="text/css">
	.st0{fill:#EEEEEE;}
	.st1{fill:#212D50;}
	.st2{fill:#6536CA;}
	.st3{fill:none;stroke:#949494;stroke-width:0.2856;stroke-miterlimit:10;}
	.st4{fill:#A5CAFA;}
	.st5{fill:#FAA76C;}
	.st6{fill:#325ADA;}
	.st7{fill:#9B6FEF;}
	.st8{fill:#F09A82;}
	.st9{fill:#6610EF;}
	.st10{fill:#FCCAA7;}
	.st11{fill:none;stroke:#808080;stroke-width:0.2756;stroke-miterlimit:10;}
	.st12{fill:none;stroke:#808080;stroke-width:0.3028;stroke-miterlimit:10;}
	.st13{fill:#6C757D;}
	.st14{fill:none;stroke:#6536CA;stroke-width:0.2954;stroke-miterlimit:10;}
	.st15{fill:#FF9C6E;}
	.st16{fill:#9A6FEE;}
	.st17{fill:#FFFFFF;}
	.st18{clip-path:url(#SVGID_2_);}
	.st19{fill:#1856C2;}
	.st20{fill:#6536C9;}
	.st21{fill:#71B1FC;}
	.st22{fill:#325AD9;}
	.st23{font-family:'FiraSans-Black';}
	.st24{font-size:17.689px;}
	.st25{fill:none;stroke:#FFFFFF;stroke-width:0.2684;stroke-miterlimit:10;}
	.st26{fill:none;stroke:#FFFFFF;stroke-width:0.2948;stroke-miterlimit:10;}
	.st27{font-family:'FiraSans-Bold';}
	.st28{font-size:7.0756px;}
	.st29{font-family:'FiraSans-Regular';}
	.st30{font-size:8.8445px;}
</style>
<rect x="-15.9948" y="-7" class="st1" width="522.4155" height="272"/>
<g>
	<g>
		<path class="st8" d="M83.2354,30.1597c-0.1312,2.2496-0.2642,4.5124-0.7779,6.7066s-1.4328,4.3377-2.9609,5.9939
			c-0.9407,1.0196-2.0996,1.8369-3.3758,2.3806c-0.2171,0.0925-0.4502,0.1788-0.6836,0.144
			c-0.6234-0.0928-0.8007-0.8954-0.8314-1.5249c-0.0536-1.0989-0.1072-2.1978-0.1608-3.2967
			c-0.4196,1.5475-0.9694,3.2639-2.3891,4.009c-1.0956,0.575-2.4448,0.3985-3.5987-0.0482
			c-0.1985-0.0769-0.4183-0.1881-0.4691-0.3949c-0.0366-0.1493,0.0284-0.3029,0.0947-0.4415
			c0.7851-1.641,1.9738-3.087,3.4319-4.1748c-1.4389,1.3067-3.9392,1.1815-5.2403-0.2623
			c-0.5702-0.6327-0.9113-1.5699-0.5645-2.3478c0.1849-0.4147,0.5387-0.7301,0.9125-0.988c0.991-0.6839,2.1977-1.0501,3.4017-1.0323
			c-1.3188-0.3931-2.6376-0.7863-3.9564-1.1794c-0.121-0.0361-0.2523-0.0797-0.3201-0.1862
			c-0.0655-0.1031-0.0525-0.236-0.0324-0.3565c0.3492-2.0937,2.1373-3.73,4.1361-4.4443s4.1859-0.6557,6.2992-0.4559
			c2.3027,0.2177,4.6183,0.6005,6.7398,1.5218"/>
	</g>
	<g>
		<path class="st9" d="M71.7458,36.5286c1.0655-0.9047,2.1071-1.8277,3.2088-2.691c1.0991-0.8633,2.2076-1.735,3.3783-2.5466
			c1.1692-0.8112,2.4265-1.5148,3.7674-2.0095c1.3325-0.5039,2.7662-0.798,4.258-0.5319c0.2992,0.0534,0.4985,0.3392,0.4452,0.6384
			c-0.0262,0.1469-0.1084,0.2698-0.2208,0.3504l-0.0076,0.0054c-1.1921,0.8513-2.4004,1.3334-3.6441,1.7828
			c-1.2354,0.4584-2.4886,0.885-3.7429,1.3671c-1.2527,0.4817-2.4807,1.0663-3.61,1.8091
			c-1.1267,0.7428-2.2057,1.5758-3.1313,2.5635c-0.1925,0.2054-0.515,0.2158-0.7204,0.0234
			c-0.2054-0.1925-0.2159-0.515-0.0234-0.7204C71.7163,36.5551,71.7313,36.5409,71.7458,36.5286z"/>
	</g>
</g>
<g>
	<g>
		<path class="st7" d="M468.0544,65.8284c-1.3199-0.3695-2.7067-0.4989-4.0722-0.3799c-1.0912,0.0951-2.1629,0.3466-3.2195,0.6354
			c-1.1823,0.3231-2.3645,0.6998-3.4131,1.3343s-1.9635,1.5534-2.3906,2.7022c-0.0591,0.1589-0.1071,0.3424-0.0276,0.4922
			c0.0638,0.1201,0.194,0.1871,0.3171,0.245c0.7695,0.3618,1.5707,0.6562,2.3914,0.8787c-1.5374,0.0086-3.0339,0.9404-3.72,2.3162
			c-0.0894,0.1792-0.167,0.3694-0.1776,0.5694c-0.0117,0.2201,0.0589,0.4374,0.1584,0.6341
			c0.5088,1.0064,1.8628,1.4827,2.8896,1.0164c-0.5064,0.5902-0.8317,1.3338-0.9213,2.1064
			c-0.0774,0.6675,0.038,1.3937,0.4862,1.8943c0.6093,0.6805,1.7092,0.7575,2.5251,0.3469s1.3748-1.2112,1.7202-2.0569
			c0.3453-0.8457,0.5081-1.7524,0.7437-2.6349c0.315,0.8596,0.6656,1.7061,1.0508,2.5366c0.143,0.3083,0.3442,0.6548,0.6817,0.6952
			c0.2047,0.0245,0.4025-0.0758,0.5776-0.1846c0.9576-0.5951,1.66-1.5154,2.3298-2.4223c0.6006-0.8132,1.1955-1.6365,1.6592-2.5349
			c1.2863-2.4924,1.4727-5.5282,0.5011-8.1593"/>
	</g>
	<g>
		<path class="st9" d="M459.4345,72.8779c0.9934-0.3933,1.9158-0.9505,2.7713-1.5858c0.8563-0.6374,1.6159-1.3994,2.298-2.2112
			c0.6836-0.8121,1.3277-1.6287,2.0098-2.4042c0.6756-0.7873,1.3847-1.5161,2.4509-2.0859l0.0107-0.0057
			c0.2791-0.1492,0.6264-0.0438,0.7756,0.2354c0.056,0.1047,0.0761,0.2186,0.0647,0.3284
			c-0.1278,1.2508-0.7421,2.2574-1.5023,3.1066c-0.7538,0.8611-1.6579,1.5823-2.6185,2.1973
			c-0.9621,0.6152-1.9427,1.1697-2.9069,1.7264l-2.9151,1.6172c-0.2454,0.1383-0.5564,0.0515-0.6947-0.1939
			c-0.1383-0.2454-0.0514-0.5565,0.194-0.6947C459.3905,72.8973,459.4153,72.8858,459.4345,72.8779z"/>
	</g>
</g>
<g>
	<g>
		<path class="st21" d="M43.2184,73.8672c0.4777-1.8672,0.6158-3.8208,0.4053-5.7366c-0.1682-1.531-0.5556-3.0296-0.995-4.5058
			c-0.4916-1.6517-1.0585-3.3018-1.9836-4.7558c-0.9251-1.454-2.2458-2.7112-3.8742-3.2752
			c-0.2253-0.078-0.4848-0.1398-0.6927-0.0233c-0.1669,0.0935-0.2569,0.2786-0.3344,0.4535
			c-0.4843,1.0932-0.8728,2.2288-1.1596,3.3895c-0.0607-2.161-1.4178-4.2352-3.3736-5.1563c-0.2547-0.12-0.5246-0.223-0.8061-0.2316
			c-0.3097-0.0095-0.6131,0.0967-0.8864,0.2427c-1.3987,0.747-2.0254,2.6655-1.3374,4.0942
			c-0.8457-0.6933-1.9013-1.127-2.9902-1.2286c-0.9407-0.0877-1.958,0.0975-2.6475,0.7434
			c-0.9374,0.878-1.0109,2.4267-0.4078,3.5607c0.6031,1.134,1.7462,1.8945,2.9459,2.3531s2.4795,0.6588,3.7275,0.9621
			c-1.1984,0.47-2.3773,0.9897-3.5326,1.5574c-0.4289,0.2108-0.9096,0.5046-0.9557,0.9802
			c-0.0279,0.2886,0.1192,0.5634,0.2778,0.8061c0.8669,1.3272,2.1828,2.2857,3.4788,3.1986
			c1.1622,0.8187,2.3383,1.6289,3.6159,2.2523c3.5444,1.7294,7.8179,1.8955,11.4859,0.4465"/>
	</g>
	<g>
		<path class="st9" d="M32.7875,62.0981c0.6213,1.3798,1.4327,2.6679,2.3283,3.8835c0.8977,1.2163,1.9403,2.3198,3.0503,3.3314
			c1.0988,1.0243,2.2611,1.9575,3.3904,2.9171c1.1421,0.9522,2.269,1.8925,3.2832,3.1137c0.1637,0.1935,0.1396,0.4831-0.0539,0.6469
			c-0.1156,0.0977-0.272,0.1268-0.4088,0.0945c-1.583-0.3997-2.9374-1.265-4.1413-2.2795
			c-1.2168-1.0072-2.2652-2.2017-3.2245-3.4437c-0.9482-1.2547-1.8112-2.5558-2.6496-3.861
			c-0.8405-1.3058-1.5957-2.6559-2.3542-4.009c-0.1184-0.2106-0.0436-0.4773,0.167-0.5956
			c0.2106-0.1183,0.4773-0.0436,0.5956,0.1671C32.7762,62.0744,32.7823,62.0867,32.7875,62.0981z"/>
	</g>
</g>
<g>
	<g>
		<path class="st5" d="M417.762,45.2193c1.417,0.2208,2.8737,0.1838,4.2777-0.1086c1.1219-0.2337,2.2043-0.6274,3.2663-1.058
			c1.1883-0.4818,2.3701-1.0193,3.381-1.8081s1.848-1.8565,2.1497-3.1028c0.0417-0.1724,0.069-0.369-0.0321-0.5147
			c-0.0811-0.1169-0.2246-0.1704-0.3597-0.2153c-0.8442-0.2808-1.7129-0.4876-2.5931-0.6173
			c1.5962-0.1989,3.0358-1.3519,3.5786-2.8661c0.0707-0.1972,0.1278-0.4044,0.1141-0.6135
			c-0.015-0.2301-0.1153-0.4472-0.2429-0.6392c-0.653-0.9827-2.1185-1.3102-3.1277-0.6988
			c0.4532-0.6758,0.6992-1.4885,0.6968-2.3022c-0.002-0.703-0.2117-1.4432-0.7392-1.9079
			c-0.7171-0.6317-1.8694-0.5758-2.6663-0.0483c-0.7969,0.5275-1.2787,1.4283-1.5329,2.3495
			c-0.2542,0.9212-0.3112,1.8833-0.4469,2.8293c-0.4335-0.8541-0.9024-1.6902-1.4052-2.5054
			c-0.1867-0.3027-0.4385-0.6378-0.7941-0.638c-0.2157-0.0001-0.4088,0.1285-0.5772,0.2632
			c-0.9213,0.7366-1.5374,1.7795-2.1212,2.8045c-0.5235,0.9191-1.0398,1.8479-1.4105,2.8386
			c-1.0283,2.7484-0.8468,5.9254,0.4878,8.5388"/>
	</g>
	<g>
		<path class="st9" d="M425.7952,36.7496c-0.9827,0.5413-1.8704,1.2405-2.6947,1.9963c-0.8248,0.7581-1.5405,1.6293-2.1777,2.5411
			l-1.8498,2.7336c-0.6127,0.9076-1.2475,1.7772-2.1889,2.5545l-0.0056,0.0046c-0.2023,0.1671-0.5018,0.1384-0.6689-0.0639
			c-0.0793-0.0961-0.1144-0.215-0.1079-0.3303c0.074-1.2618,0.5997-2.3586,1.2764-3.3287c0.671-0.979,1.4959-1.846,2.3899-2.619
			c0.8946-0.774,1.8242-1.4855,2.7431-2.193c0.9195-0.7097,1.8741-1.3588,2.8172-2.0341c0.1963-0.1412,0.4698-0.0965,0.611,0.0999
			c0.1412,0.1963,0.0965,0.4698-0.0998,0.611C425.8261,36.7312,425.8093,36.7416,425.7952,36.7496z"/>
	</g>
</g>
<g>
	<text transform="matrix(1 0 0 1 177.624 84.7334)"><tspan x="0" y="0" class="st7 st23 st24">¡</tspan><tspan x="4.9526" y="0" class="st7 st23 st24">P</tspan><tspan x="16.1147" y="0" class="st7 st23 st24">r</tspan><tspan x="23.5439" y="0" class="st7 st23 st24">ó</tspan><tspan x="34.3164" y="0" class="st7 st23 st24">ximamen</tspan><tspan x="112.9253" y="0" class="st7 st23 st24">t</tspan><tspan x="120.3726" y="0" class="st7 st23 st24">e!</tspan></text>
</g>
<rect x="84.0955" y="200.0971" class="st25" width="322.2348" height="32.7247"/>
<line class="st26" x1="273.0731" y1="199.9496" x2="273.0731" y2="232.6743"/>
<g>
	<g>
		<g>
			<text transform="matrix(1 0 0 1 308.792 219.916)"><tspan x="0" y="0" class="st15 st27 st28">E</tspan><tspan x="3.8276" y="0" class="st15 st27 st28">n</tspan><tspan x="8.0449" y="0" class="st15 st27 st28">viar el men</tspan><tspan x="45.6582" y="0" class="st15 st27 st28">sa</tspan><tspan x="53.165" y="0" class="st15 st27 st28">je</tspan></text>
		</g>
	</g>
</g>
<g>
	<text transform="matrix(1 0 0 1 105.9287 219.916)"><tspan x="0" y="0" class="st17 st29 st28">*</tspan><tspan x="3.106" y="0" class="st17 st29 st28">E</tspan><tspan x="6.8208" y="0" class="st17 st29 st28">mail de </tspan><tspan x="32.6396" y="0" class="st17 st29 st28">c</tspan><tspan x="35.8799" y="0" class="st17 st29 st28">on</tspan><tspan x="44.1587" y="0" class="st17 st29 st28">t</tspan><tspan x="46.6636" y="0" class="st17 st29 st28">ac</tspan><tspan x="53.8945" y="0" class="st17 st29 st28">t</tspan><tspan x="56.3428" y="0" class="st17 st29 st28">o</tspan></text>
</g>
<g>
	<text transform="matrix(1 0 0 1 80.3164 114.6924)"><tspan x="0" y="0" class="st17 st29 st30">E</tspan><tspan x="4.6875" y="0" class="st17 st29 st30">s</tspan><tspan x="8.8179" y="0" class="st17 st29 st30">t</tspan><tspan x="11.9487" y="0" class="st17 st29 st30">a </tspan><tspan x="19.104" y="0" class="st17 st29 st30">pá</tspan><tspan x="28.9922" y="0" class="st17 st29 st30">gina es</tspan><tspan x="57.374" y="0" class="st17 st29 st30">t</tspan><tspan x="60.5049" y="0" class="st17 st29 st30">á en p</tspan><tspan x="85.2603" y="0" class="st17 st29 st30">r</tspan><tspan x="88.4092" y="0" class="st17 st29 st30">o</tspan><tspan x="93.5742" y="0" class="st17 st29 st30">c</tspan><tspan x="97.625" y="0" class="st17 st29 st30">es</tspan><tspan x="106.5757" y="0" class="st17 st29 st30">o</tspan><tspan x="111.6523" y="0" class="st17 st29 st30">, podes </tspan><tspan x="143.1206" y="0" class="st17 st29 st30">v</tspan><tspan x="147.437" y="0" class="st17 st29 st30">o</tspan><tspan x="152.6021" y="0" class="st17 st29 st30">l</tspan><tspan x="155.105" y="0" class="st17 st29 st30">v</tspan><tspan x="159.4209" y="0" class="st17 st29 st30">er a visi</tspan><tspan x="190.624" y="0" class="st17 st29 st30">t</tspan><tspan x="193.7549" y="0" class="st17 st29 st30">ar</tspan><tspan x="201.9805" y="0" class="st17 st29 st30">l</tspan><tspan x="204.5273" y="0" class="st17 st29 st30">a en un</tspan><tspan x="234.3599" y="0" class="st17 st29 st30">a</tspan><tspan x="239.0825" y="0" class="st17 st29 st30">s seman</tspan><tspan x="272.0811" y="0" class="st17 st29 st30">a</tspan><tspan x="276.8042" y="0" class="st17 st29 st30">s o ser de </tspan><tspan x="317.9487" y="0" class="st17 st29 st30">l</tspan><tspan x="320.4956" y="0" class="st17 st29 st30">os </tspan><tspan x="78.9102" y="14.1514" class="st17 st29 st30">prime</tspan><tspan x="102.4717" y="14.1514" class="st17 st29 st30">r</tspan><tspan x="105.6201" y="14.1514" class="st17 st29 st30">os en en</tspan><tspan x="139.6094" y="14.1514" class="st17 st29 st30">t</tspan><tspan x="142.6694" y="14.1514" class="st17 st29 st30">e</tspan><tspan x="147.4897" y="14.1514" class="st17 st29 st30">r</tspan><tspan x="150.5942" y="14.1514" class="st17 st29 st30">ar</tspan><tspan x="158.8193" y="14.1514" class="st17 st29 st30">t</tspan><tspan x="161.8794" y="14.1514" class="st17 st29 st30">e suscribiendo</tspan><tspan x="220.792" y="14.1514" class="st17 st29 st30">t</tspan><tspan x="223.8525" y="14.1514" class="st17 st29 st30">e aquí.</tspan></text>
</g>
<g>
	<g>
		<path class="st15" d="M185.909,282.6621c-11.9905,0.6104-28.7376-7.1217-29.477-20.843
			c-0.4008-7.4407,3.8218-14.9866,1.6028-22.1001c-2.4764-7.9385-11.7481-11.6063-16.1593-18.6556
			c-3.4467-5.508-3.5221-12.621-1.5939-18.8259s5.6514-11.6789,9.5047-16.9106c1.0919,5.4662,5.809,9.4502,10.6508,12.2123
			c4.8417,2.7621,10.1895,4.8375,14.2344,8.6728c5.3088,5.0337,7.7098,12.9413,6.0959,20.077
			c-0.7794,3.4458-2.4303,6.8451-1.9178,10.3406c0.8693,5.9299,7.1946,9.0733,12.0038,12.6497
			c5.0566,3.7605,9.146,9.1854,10.095,15.4152c0.949,6.2298-1.7862,13.1828-7.3636,16.1159
			C191.2366,282.0452,188.5584,282.5272,185.909,282.6621z"/>
	</g>
	<g>
		<g>
			<path class="st1" d="M148.4011,197.4596c2.7899,6.4122,7.1294,11.9755,10.1922,18.2568
				c3.0746,6.3056,5.425,12.9267,7.826,19.5082c4.1824,11.4649,8.6406,22.882,16.8447,32.134
				c0.3784,0.4267,1.002-0.2007,0.6254-0.6254c-9.1751-10.3472-13.5383-23.4118-18.2324-36.17
				c-1.9932-5.4174-4.0674-10.8188-6.6468-15.9893c-3.0029-6.0193-7.1578-11.3838-9.8453-17.5607
				C148.9383,196.4926,148.176,196.9423,148.4011,197.4596L148.4011,197.4596z"/>
		</g>
	</g>
	<g>
		<g>
			<path class="st1" d="M162.4559,210.0177c0.3286-1.9112,0.8858-3.7441,1.6979-5.5065c0.2366-0.5135-0.5255-0.9633-0.7637-0.4464
				c-0.844,1.8314-1.4452,3.7294-1.7871,5.7178C161.5073,210.3392,162.3595,210.5784,162.4559,210.0177L162.4559,210.0177z"/>
		</g>
	</g>
	<g>
		<g>
			<path class="st1" d="M167.315,216.7697c1.0201-1.8322,2.2128-3.5376,3.5919-5.1181c0.3728-0.4272-0.2503-1.0553-0.6254-0.6254
				c-1.4275,1.6359-2.6738,3.3997-3.7302,5.2971C166.2741,216.8211,167.0378,217.2676,167.315,216.7697L167.315,216.7697z"/>
		</g>
	</g>
	<g>
		<g>
			<path class="st1" d="M169.8233,225.226c1.792-0.705,3.5841-1.41,5.3761-2.115c0.5237-0.206,0.2956-1.0617-0.2351-0.8529
				c-1.792,0.705-3.5841,1.41-5.3761,2.115C169.0645,224.5791,169.2926,225.4348,169.8233,225.226L169.8233,225.226z"/>
		</g>
	</g>
	<g>
		<g>
			<path class="st1" d="M146.3353,208.8736c1.7655,0.3745,3.4576,0.9387,5.0883,1.7145c0.5114,0.2433,0.9607-0.519,0.4464-0.7637
				c-1.6979-0.8078-3.4594-1.4133-5.2995-1.8037C146.0152,207.903,145.7779,208.7554,146.3353,208.8736L146.3353,208.8736z"/>
		</g>
	</g>
	<g>
		<g>
			<path class="st1" d="M151.8111,217.2536c-1.5869,0.3523-3.1738,0.7045-4.7607,1.0568c-0.5554,0.1233-0.3204,0.9762,0.2351,0.8529
				c1.5869-0.3523,3.1738-0.7045,4.7607-1.0568C152.6017,217.9831,152.3666,217.1303,151.8111,217.2536L151.8111,217.2536z"/>
		</g>
	</g>
	<g>
		<g>
			<path class="st1" d="M157.4837,222.0907c-1.1507,1.042-2.5562,1.6395-4.1068,1.7393c-0.5652,0.0364-0.5693,0.9211,0,0.8844
				c1.79-0.1152,3.4018-0.7937,4.7321-1.9983C158.532,222.3333,157.905,221.7093,157.4837,222.0907L157.4837,222.0907z"/>
		</g>
	</g>
	<g>
		<g>
			<path class="st1" d="M182.4363,251.9453c-0.1438-0.8736,0.126-1.7452,0.7166-2.4c0.3804-0.4217-0.2432-1.0491-0.6254-0.6254
				c-0.8188,0.9077-1.1421,2.0579-0.9441,3.2605C181.6757,252.7407,182.5281,252.503,182.4363,251.9453L182.4363,251.9453z"/>
		</g>
	</g>
	<g>
		<g>
			<path class="st1" d="M185.4361,258.202c0.6936-1.2437,1.4865-2.4187,2.391-3.5189c0.3587-0.4363-0.2635-1.0656-0.6254-0.6254
				c-0.9524,1.1585-1.7986,2.3878-2.5293,3.6979C184.3949,258.2532,185.1586,258.6997,185.4361,258.202L185.4361,258.202z"/>
		</g>
	</g>
	<g>
		<g>
			<path class="st1" d="M190.0967,263.9661c1.1432-0.5416,2.2864-1.0832,3.4296-1.6248c0.5141-0.2436,0.0657-1.0063-0.4464-0.7637
				c-1.1432,0.5416-2.2864,1.0832-3.4295,1.6248C189.1363,263.446,189.5846,264.2088,190.0967,263.9661L190.0967,263.9661z"/>
		</g>
	</g>
	<g>
		<g>
			<path class="st1" d="M162.2308,249.4849c1.2177,0.6877,2.5262,1.0831,3.9185,1.202c0.5671,0.0484,0.5638-0.8363,0-0.8844
				c-1.236-0.1056-2.3927-0.4717-3.4721-1.0813C162.181,248.4409,161.7347,249.2047,162.2308,249.4849L162.2308,249.4849z"/>
		</g>
	</g>
	<g>
		<g>
			<path class="st1" d="M162.4021,256.7664c1.9088,1.2054,4.0658,1.6244,6.2903,1.2785c0.5607-0.0872,0.3226-0.9396-0.2351-0.8529
				c-1.989,0.3092-3.9127-0.1184-5.6088-1.1894C162.3658,255.6979,161.9215,256.463,162.4021,256.7664L162.4021,256.7664z"/>
		</g>
	</g>
</g>
<g>
	<g>
		<path class="st15" d="M315.1575,282.4487c12.0024-0.2956,28.1186-9.2688,27.8211-23.0068
			c-0.1615-7.4498-4.9412-14.6557-3.265-21.9163c1.8706-8.1026,10.8393-12.4593,14.7063-19.8212
			c3.0215-5.7523,2.5602-12.8507,0.1696-18.8925c-2.3907-6.0417-6.5161-11.2194-10.7531-16.1456
			c-0.6765,5.533-5.0797,9.8614-9.6994,12.9808c-4.6196,3.1194-9.7956,5.5922-13.5398,9.7217
			c-4.9141,5.4197-6.7119,13.486-4.5644,20.4795c1.037,3.3772,2.9396,6.6423,2.6923,10.1665
			c-0.4196,5.9785-6.4898,9.59-11.0155,13.519c-4.7586,4.1312-8.4272,9.849-8.9037,16.1327
			c-0.4764,6.2836,2.7754,13.0105,8.5581,15.5146C309.7985,282.2354,312.5054,282.5141,315.1575,282.4487z"/>
	</g>
	<g>
		<g>
			<path class="st1" d="M345.3086,194.3487c-2.1422,6.1556-5.7487,11.6336-8.2444,17.6406
				c-2.4634,5.9294-4.2647,12.1008-6.0085,18.2716c-3.586,12.6903-7.0279,25.5465-15.1321,36.2169
				c-0.3442,0.4532,0.4235,0.8943,0.7637,0.4464c7.8198-10.2959,11.3347-22.6123,14.7857-34.8782
				c1.7378-6.1767,3.4754-12.3729,5.8448-18.3441c2.5971-6.5453,6.5278-12.4639,8.8436-19.1182
				C346.3489,194.0452,345.4948,193.8136,345.3086,194.3487L345.3086,194.3487z"/>
		</g>
	</g>
	<g>
		<g>
			<path class="st1" d="M333.9077,207.9754c-0.4903-1.9547-1.2265-3.8094-2.2054-5.5704c-0.2766-0.4976-1.0408-0.052-0.7637,0.4464
				c0.9433,1.697,1.6439,3.4762,2.1162,5.3591C333.1933,208.7623,334.0465,208.5285,333.9077,207.9754L333.9077,207.9754z"/>
		</g>
	</g>
	<g>
		<g>
			<path class="st1" d="M329.4747,214.8671c-1.1953-1.8119-2.5654-3.4834-4.1125-5.0061c-0.406-0.3996-1.0319,0.2253-0.6254,0.6254
				c1.4938,1.4703,2.8199,3.0773,3.9742,4.8271C329.0231,215.7866,329.7893,215.344,329.4747,214.8671L329.4747,214.8671z"/>
		</g>
	</g>
	<g>
		<g>
			<path class="st1" d="M327.0682,223.1025c-1.8401-0.5678-3.6802-1.1357-5.5203-1.7035c-0.5451-0.1682-0.7782,0.6853-0.2351,0.8529
				c1.8401,0.5678,3.6802,1.1357,5.5203,1.7035C327.3781,224.1236,327.6113,223.2701,327.0682,223.1025L327.0682,223.1025z"/>
		</g>
	</g>
	<g>
		<g>
			<path class="st1" d="M348.7864,205.043c-1.804,0.5276-3.5204,1.2571-5.1521,2.1904c-0.494,0.2826-0.049,1.047,0.4464,0.7637
				c1.5672-0.8964,3.2077-1.5943,4.9408-2.1012C349.5667,205.7364,349.3347,204.8826,348.7864,205.043L348.7864,205.043z"/>
		</g>
	</g>
	<g>
		<g>
			<path class="st1" d="M344.0225,215.5154c1.609,0.2316,3.2179,0.4631,4.8269,0.6947c0.5567,0.0801,0.7972-0.772,0.2351-0.8528
				c-1.6089-0.2316-3.2179-0.4632-4.8269-0.6947C343.7009,214.5824,343.4604,215.4345,344.0225,215.5154L344.0225,215.5154z"/>
		</g>
	</g>
	<g>
		<g>
			<path class="st1" d="M338.3326,220.5542c1.4162,1.1,3.0623,1.6799,4.8605,1.6597c0.5688-0.0064,0.5703-0.8909,0-0.8844
				c-1.5482,0.0174-3.0075-0.4472-4.2351-1.4007C338.5138,219.5837,337.8834,220.2053,338.3326,220.5542L338.3326,220.5542z"/>
		</g>
	</g>
	<g>
		<g>
			<path class="st1" d="M317.18,251.6426c0.1016-1.1557-0.3329-2.2736-1.171-3.0723c-0.412-0.3927-1.0384,0.2317-0.6254,0.6254
				c0.6866,0.6544,0.9947,1.5051,0.9119,2.4469C316.2457,252.2095,317.1304,252.2061,317.18,251.6426L317.18,251.6426z"/>
		</g>
	</g>
	<g>
		<g>
			<path class="st1" d="M314.53,257.548c-0.8261-1.2503-1.7578-2.4198-2.7944-3.5021c-0.3945-0.4118-1.0193,0.2141-0.6254,0.6254
				c0.9854,1.0287,1.8708,2.1345,2.6561,3.3231C314.0787,258.4673,314.845,258.0248,314.53,257.548L314.53,257.548z"/>
		</g>
	</g>
	<g>
		<g>
			<path class="st1" d="M309.8829,263.2979c-1.1808-0.4539-2.3615-0.9077-3.5423-1.3615c-0.5317-0.2044-0.7618,0.6504-0.2351,0.8528
				c1.1808,0.4539,2.3615,0.9077,3.5423,1.3615C310.1795,264.3551,310.4096,263.5003,309.8829,263.2979L309.8829,263.2979z"/>
		</g>
	</g>
	<g>
		<g>
			<path class="st1" d="M335.7914,246.8344c-1.069,0.7166-2.2231,1.1679-3.493,1.3725c-0.5605,0.0903-0.3226,0.9427,0.2351,0.8529
				c1.3348-0.2151,2.5816-0.7091,3.7043-1.4617C336.7083,247.2828,336.266,246.5163,335.7914,246.8344L335.7914,246.8344z"/>
		</g>
	</g>
	<g>
		<g>
			<path class="st1" d="M336.1698,254.1082c-1.6566,1.2339-3.5563,1.7843-5.6163,1.6188c-0.5674-0.0456-0.5644,0.8391,0,0.8844
				c2.1897,0.176,4.3006-0.427,6.0627-1.7395C337.0675,254.5357,336.627,253.7676,336.1698,254.1082L336.1698,254.1082z"/>
		</g>
	</g>
</g>
<g>
	<g>
		<path class="st5" d="M226.7638,281.368c-5.3432,2.165-12.4293,1.1686-17.6701-0.4147c-1.6161-0.4883-3.2374-1.0241-4.6764-1.907
			c-1.684-1.0331-3.0513-2.4991-4.3961-3.9465c-3.7993-4.0889-5.8805-6.638-5.6383-12.3713
			c0.1991-4.713,2.4159-9.3646,6.3323-12.1016c2.1454-1.4994,4.7251-2.477,6.3941-4.4934c3.8641-4.6685,0.876-11.5243-0.5346-17.418
			c-3.4834-14.5538,5.7349-31.0078,19.9657-35.6373c-1.8221,4.405,0.0679,9.5146,2.8622,13.3767
			c2.7942,3.8622,6.478,7.0614,8.9278,11.1507c4.831,8.0641,3.8214,19.2-2.3812,26.2637c-2.483,2.8278-5.8669,5.3981-6.2433,9.1424
			c-0.4348,4.3251,3.3554,7.8098,4.8539,11.8903c2.1776,5.9298-1.229,13.1633-6.7342,15.9812
			C227.4803,281.0599,227.1261,281.2212,226.7638,281.368z"/>
	</g>
	<g>
		<g>
			<path class="st1" d="M220.8001,207.7002c-4.8358,10.8852,1.2579,22.0829-0.0696,33.3076
				c-1.2044,10.1837-10.439,19.8087-4.9437,30.2052c0.2661,0.5034,1.0298,0.057,0.7637-0.4464
				c-5.4698-10.3482,4.3114-20.2457,5.1737-30.4901c0.9085-10.7932-4.8012-21.6835-0.1604-32.1298
				C221.7928,207.631,221.031,207.1805,220.8001,207.7002L220.8001,207.7002z"/>
		</g>
	</g>
	<g>
		<g>
			<path class="st1" d="M226.3586,222.5877c1.1886-0.999,2.1415-2.2219,2.8208-3.6181c0.248-0.5098-0.5145-0.9587-0.7637-0.4464
				c-0.6498,1.3357-1.5455,2.4835-2.6825,3.4392C225.297,222.329,225.9254,222.9519,226.3586,222.5877L226.3586,222.5877z"/>
		</g>
	</g>
	<g>
		<g>
			<path class="st1" d="M228.5276,228.9055c1.1947,0.4782,2.4872,0.4986,3.6988,0.068c0.5326-0.1893,0.3031-1.0441-0.2351-0.8529
				c-1.0838,0.3851-2.1621,0.3588-3.2285-0.068C228.2343,227.8411,228.0048,228.6962,228.5276,228.9055L228.5276,228.9055z"/>
		</g>
	</g>
	<g>
		<g>
			<path class="st1" d="M227.4264,237.7315c0.9652,1.4691,2.3312,2.5353,3.9881,3.1208c0.5377,0.19,0.769-0.6642,0.2351-0.8529
				c-1.4306-0.5056-2.6266-1.4466-3.4595-2.7143C227.8788,236.8113,227.1126,237.2539,227.4264,237.7315L227.4264,237.7315z"/>
		</g>
	</g>
	<g>
		<g>
			<path class="st1" d="M213.1121,216.9799c0.7146,1.2308,1.7164,2.239,2.9416,2.9629c0.4911,0.2902,0.9366-0.4741,0.4464-0.7637
				c-1.099-0.6493-1.9834-1.5418-2.6243-2.6456C213.5901,216.0414,212.8254,216.4862,213.1121,216.9799L213.1121,216.9799z"/>
		</g>
	</g>
	<g>
		<g>
			<path class="st1" d="M211.3561,225.3339c1.1695,1.0016,2.5518,1.5652,4.0897,1.661c0.5684,0.0354,0.5663-0.8492,0-0.8845
				c-1.2919-0.0804-2.4802-0.5591-3.4643-1.4019C211.5514,224.3401,210.923,224.9629,211.3561,225.3339L211.3561,225.3339z"/>
		</g>
	</g>
	<g>
		<g>
			<path class="st1" d="M212.8597,234.9256c1.4375,0.0706,2.7944-0.4641,3.808-1.4831c0.4019-0.404-0.2233-1.0297-0.6254-0.6254
				c-0.8616,0.8661-1.965,1.2839-3.1826,1.2241C212.2908,234.0132,212.2923,234.8977,212.8597,234.9256L212.8597,234.9256z"/>
		</g>
	</g>
	<g>
		<g>
			<path class="st1" d="M220.5352,258.3222c1.9644-0.3718,3.7825-1.141,5.4171-2.2921c0.4618-0.3252,0.0204-1.0924-0.4464-0.7637
				c-1.5806,1.1131-3.3063,1.8434-5.2058,2.2029C219.7415,257.5751,219.9781,258.4276,220.5352,258.3222L220.5352,258.3222z"/>
		</g>
	</g>
	<g>
		<g>
			<path class="st1" d="M208.3605,253.503c1.0275,0.8327,2.0551,1.6655,3.0826,2.4982c0.4384,0.3553,1.0679-0.2668,0.6254-0.6254
				c-1.0275-0.8327-2.0551-1.6655-3.0826-2.4982C208.5475,252.5223,207.918,253.1444,208.3605,253.503L208.3605,253.503z"/>
		</g>
	</g>
	<g>
		<g>
			<path class="st1" d="M206.9526,260.4623c1.1287,0.6375,2.2573,1.275,3.386,1.9125c0.4962,0.2803,0.9425-0.4835,0.4464-0.7637
				c-1.1287-0.6375-2.2573-1.275-3.386-1.9126C206.9028,259.4184,206.4565,260.1821,206.9526,260.4623L206.9526,260.4623z"/>
		</g>
	</g>
</g>
<g>
	<g>
		<path class="st8" d="M212.0834,270.4862c-5.8905,12.4197-25.9998,14.4657-34.4415,3.4122
			c-2.9686-3.8873-3.7498-9.8755-0.6508-13.8434c3.0089-3.8524,5.1147-7.0132,4.7141-12.3596
			c-0.3675-4.9037-3.3188-9.1639-5.822-13.3965c-2.5033-4.2327-4.7019-9.1944-3.3981-13.9359
			c2.1287-7.7414,10.3838-11.225,14.6073-17.5635c3.345,2.5845,6.6899,5.1689,10.0349,7.7534
			c4.8833,3.7731,10.2947,8.7397,9.496,14.8588c-0.7804,5.9787-7.4514,11.3724-4.866,16.8194
			c0.9922,2.0904,3.1138,3.3507,4.9008,4.8206C213.328,252.5379,215.7844,262.6829,212.0834,270.4862z"/>
	</g>
	<g>
		<g>
			<path class="st1" d="M187.2119,212.2608c-1.6653,8.8015-0.6864,17.0674,2.3068,25.4661
				c3.8495,10.8015,5.9715,21.1686,4.3136,32.6735c-0.0802,0.5567,0.7719,0.7972,0.8529,0.2351
				c1.3024-9.0378,0.7305-18.0797-2.0668-26.7946c-3.4309-10.6889-6.7211-19.889-4.5536-31.345
				C188.17,211.9397,187.3177,211.7014,187.2119,212.2608L187.2119,212.2608z"/>
		</g>
	</g>
	<g>
		<g>
			<path class="st1" d="M192.792,220.2278c0.9779-0.8168,1.807-1.7778,2.4831-2.8572c0.303-0.4838-0.4619-0.9282-0.7637-0.4464
				c-0.6379,1.0185-1.4229,1.9081-2.3448,2.6782C191.7293,219.9677,192.3578,220.5905,192.792,220.2278L192.792,220.2278z"/>
		</g>
	</g>
	<g>
		<g>
			<path class="st1" d="M195.2728,227.1704c1.3932-0.6025,2.6723-1.3779,3.8677-2.3118c0.4481-0.3501-0.1818-0.972-0.6254-0.6254
				c-1.1323,0.8846-2.3707,1.6036-3.6887,2.1735C194.3054,226.6321,194.7553,227.3943,195.2728,227.1704L195.2728,227.1704z"/>
		</g>
	</g>
	<g>
		<g>
			<path class="st1" d="M194.0139,236.6458c1.1763,0.0042,2.3045,0.2047,3.4127,0.5967c0.5376,0.1902,0.7689-0.664,0.2351-0.8529
				c-1.1806-0.4177-2.3959-0.6238-3.6478-0.6283C193.4447,235.7594,193.4439,236.6438,194.0139,236.6458L194.0139,236.6458z"/>
		</g>
	</g>
	<g>
		<g>
			<path class="st1" d="M179.0137,218.1709c0.8297,1.1253,1.8978,1.9458,3.1992,2.4569c0.53,0.2081,0.7598-0.6468,0.2351-0.8529
				c-1.0659-0.4187-1.991-1.1288-2.6706-2.0505C179.4432,217.2712,178.6753,217.7119,179.0137,218.1709L179.0137,218.1709z"/>
		</g>
	</g>
	<g>
		<g>
			<path class="st1" d="M178.354,224.9592c1.0723,1.5589,2.9964,2.2694,4.819,1.7185c0.5434-0.1642,0.3118-1.0182-0.2351-0.8529
				c-1.4274,0.4315-2.9682-0.0733-3.8202-1.312C178.7972,224.0468,178.0304,224.4886,178.354,224.9592L178.354,224.9592z"/>
		</g>
	</g>
	<g>
		<g>
			<path class="st1" d="M181.1047,234.8352c1.4828-0.2215,2.5745-1.4574,2.7597-2.9154c0.0715-0.5631-0.8136-0.5579-0.8844,0
				c-0.1386,1.0908-1.0522,1.9045-2.1104,2.0625C180.3086,234.0661,180.547,234.9185,181.1047,234.8352L181.1047,234.8352z"/>
		</g>
	</g>
	<g>
		<g>
			<path class="st1" d="M198.7758,254.8972c1.024-0.6892,2.0479-1.3783,3.0719-2.0675c0.4698-0.3162,0.0276-1.0827-0.4464-0.7637
				c-1.024,0.6892-2.0479,1.3783-3.0719,2.0675C197.8597,254.4497,198.3019,255.2162,198.7758,254.8972L198.7758,254.8972z"/>
		</g>
	</g>
	<g>
		<g>
			<path class="st1" d="M200.4464,261.4271c1.1288,0.6985,2.3709,1.0838,3.6944,1.1683c0.5683,0.0363,0.5661-0.8483,0-0.8844
				c-1.1712-0.0749-2.2508-0.4305-3.248-1.0476C200.4075,260.3631,199.9628,261.1279,200.4464,261.4271L200.4464,261.4271z"/>
		</g>
	</g>
	<g>
		<g>
			<path class="st1" d="M186.2856,251.9197c1.167,0.4021,2.3341,0.8041,3.5011,1.2062c0.5393,0.1858,0.7709-0.6683,0.2351-0.8529
				c-1.167-0.4021-2.3341-0.8041-3.5011-1.2062C185.9814,250.8811,185.7498,251.7351,186.2856,251.9197L186.2856,251.9197z"/>
		</g>
	</g>
	<g>
		<g>
			<path class="st1" d="M186.0946,258.5481c1.0893-0.362,2.1785-0.7241,3.2678-1.0861c0.5375-0.1786,0.3072-1.0331-0.2351-0.8528
				c-1.0893,0.362-2.1785,0.7241-3.2678,1.0861C185.322,257.8739,185.5524,258.7283,186.0946,258.5481L186.0946,258.5481z"/>
		</g>
	</g>
</g>
<g>
	<g>
		<path class="st5" d="M16.4576,254.1879c-2.8583,4.0388-8.4401,6.6004-12.9603,7.8833c-1.3939,0.3956-2.8135,0.7592-4.2622,0.7877
			c-1.6953,0.0334-3.3622-0.3928-5.0042-0.8158c-4.6389-1.1951-7.3232-2.0733-9.8033-6.3283
			c-2.0387-3.4977-2.591-7.8856-1.0286-11.677c0.8559-2.077,2.2672-3.9781,2.5394-6.2079c0.6302-5.1629-4.7039-8.733-8.4526-12.3385
			c-9.2569-8.9032-10.2157-25.0617-2.0766-34.9971c0.7234,4.0268,4.4553,6.8436,8.2629,8.3404s7.951,2.1025,11.615,3.9229
			c7.2253,3.5898,11.6528,12.104,10.4421,20.0806c-0.4847,3.1932-1.7395,6.6175-0.2775,9.4975
			c1.6887,3.3267,6.0413,4.0894,9.0137,6.3439c4.3196,3.2764,5.2079,10.0808,2.5348,14.6664
			C16.8327,253.6335,16.6514,253.9141,16.4576,254.1879z"/>
	</g>
	<g>
		<g>
			<path class="st1" d="M-22.0143,203.8203c1.3837,9.1619,9.4907,14.4093,14.1614,21.8059
				c5.1783,8.2003,2.2011,20.9289,11.6252,26.351c0.4942,0.2844,0.9402-0.4796,0.4464-0.7637
				c-9.3207-5.3627-6.4046-18.988-12.0403-27.1351c-4.6748-6.7579-12.0409-11.8922-13.3399-20.4932
				C-21.2461,203.0242-22.0985,203.2626-22.0143,203.8203L-22.0143,203.8203z"/>
		</g>
	</g>
	<g>
		<g>
			<path class="st1" d="M-3.3223,222.3936c1.4113,0.6182,2.8773,0.7705,4.3826,0.4283c0.5548-0.1261,0.32-0.9791-0.2351-0.8529
				c-1.2543,0.2852-2.52,0.1783-3.7011-0.3391C-3.3922,221.4037-3.843,222.1655-3.3223,222.3936L-3.3223,222.3936z"/>
		</g>
	</g>
	<g>
		<g>
			<path class="st1" d="M1.3147,240.4787c1.2846-1.2081,2.2492-2.6461,2.9109-4.2788c0.2137-0.5273-0.6415-0.7567-0.8529-0.2351
				c-0.6025,1.4866-1.5165,2.7911-2.6834,3.8885C0.2738,240.2441,0.9001,240.8687,1.3147,240.4787L1.3147,240.4787z"/>
		</g>
	</g>
	<g>
		<g>
			<path class="st1" d="M4.8916,243.8451c1.2227-0.4668,2.4453-0.9335,3.668-1.4003c0.5265-0.201,0.298-1.0564-0.2351-0.8529
				c-1.2227,0.4668-2.4453,0.9335-3.668,1.4003C4.13,243.1932,4.3585,244.0486,4.8916,243.8451L4.8916,243.8451z"/>
		</g>
	</g>
	<g>
		<g>
			<path class="st1" d="M6.9991,249.1787c1.2844-0.1506,2.5689-0.3012,3.8533-0.4518c0.5585-0.0655,0.5652-0.9507,0-0.8845
				c-1.2844,0.1506-2.5689,0.3012-3.8533,0.4518C6.4406,248.3597,6.434,249.2449,6.9991,249.1787L6.9991,249.1787z"/>
		</g>
	</g>
</g>
<g>
	<g>
		<path class="st8" d="M507.3687,261.1522c-8.4825,8.199-25.2556,3.7707-28.6999-7.6585c-1.2112-4.0194-0.0306-9.0661,3.6572-11.318
			c3.5805-2.1864,6.2267-4.0898,7.5192-8.5061c1.1854-4.0505,0.1008-8.3642-0.6321-12.5204
			c-0.733-4.1563-1.0011-8.8064,1.4781-12.2219c4.0477-5.5765,11.7315-5.8825,17.0385-9.6994
			c1.9069,3.0863,3.8138,6.1727,5.7206,9.259c2.7839,4.5057,5.6316,10.1298,3.1422,14.8046
			c-2.4323,4.5676-9.4202,6.8864-8.988,12.043c0.1659,1.979,1.4898,3.6321,2.4817,5.3526
			C513.7882,247.1088,512.6984,256.0007,507.3687,261.1522z"/>
	</g>
	<g>
		<g>
			<path class="st1" d="M504.8941,206.8652c-3.9532,6.5302-5.6577,13.3428-5.8204,20.9491
				c-0.2151,10.0605-1.5158,18.8167-6.4164,27.7581c-0.2737,0.4994,0.4897,0.9462,0.7637,0.4464
				c3.5107-6.4054,5.7458-13.2991,6.3197-20.6058c0.8073-10.2794,0.3419-18.8918,5.9171-28.1014
				C505.9533,206.8234,505.1888,206.3784,504.8941,206.8652L504.8941,206.8652z"/>
		</g>
	</g>
	<g>
		<g>
			<path class="st1" d="M496.5458,209.1913c0.3179,1.1198,0.9266,2.1111,1.7911,2.8919c0.4215,0.3807,1.0489-0.2429,0.6254-0.6254
				c-0.7559-0.6827-1.2853-1.5213-1.5636-2.5016C497.2435,208.4095,496.3898,208.6419,496.5458,209.1913L496.5458,209.1913z"/>
		</g>
	</g>
	<g>
		<g>
			<path class="st1" d="M493.9661,214.4457c0.3888,1.6069,1.7996,2.7472,3.4392,2.8463c0.5685,0.0344,0.5665-0.8502,0-0.8844
				c-1.2543-0.0758-2.2933-0.9861-2.5863-2.197C494.6852,213.6576,493.8321,213.8918,493.9661,214.4457L493.9661,214.4457z"/>
		</g>
	</g>
	<g>
		<g>
			<path class="st1" d="M493.1628,223.2052c1.2748,0.265,2.5862-0.3094,3.2072-1.4675c0.2689-0.5015-0.4943-0.9488-0.7637-0.4464
				c-0.4267,0.7958-1.3133,1.2471-2.2084,1.0611C492.8425,222.2369,492.605,223.0892,493.1628,223.2052L493.1628,223.2052z"/>
		</g>
	</g>
	<g>
		<g>
			<path class="st1" d="M497.4759,254.4404c0.5849,1.0111,1.1697,2.0222,1.7546,3.0333c0.2849,0.4926,1.0495,0.0477,0.7637-0.4464
				c-0.5849-1.0111-1.1697-2.0222-1.7546-3.0333C497.9547,253.5015,497.1901,253.9463,497.4759,254.4404L497.4759,254.4404z"/>
		</g>
	</g>
	<g>
		<g>
			<path class="st1" d="M492.1601,238.4522c0.8162,0.6754,1.6323,1.3508,2.4485,2.0262c0.4354,0.3603,1.0645-0.2621,0.6254-0.6254
				c-0.8162-0.6754-1.6323-1.3508-2.4485-2.0262C492.3501,237.4665,491.721,238.0889,492.1601,238.4522L492.1601,238.4522z"/>
		</g>
	</g>
	<g>
		<g>
			<path class="st1" d="M490.129,243.7782c0.9844,0.0381,1.9688,0.0761,2.9532,0.1142c0.5692,0.022,0.5683-0.8625,0-0.8844
				c-0.9844-0.0381-1.9688-0.0761-2.9532-0.1142C489.5598,242.8717,489.5608,243.7562,490.129,243.7782L490.129,243.7782z"/>
		</g>
	</g>
	<g>
		<g>
			<path class="st1" d="M491.4369,248.5871c-0.7229,0.4643-1.4881,0.7951-2.3224,1.0018c-0.5522,0.1368-0.3183,0.99,0.2351,0.8529
				c0.9023-0.2236,1.7515-0.5886,2.5337-1.091C492.3607,249.0442,491.9177,248.2783,491.4369,248.5871L491.4369,248.5871z"/>
		</g>
	</g>
</g>
<g>
	<g>
		<path class="st5" d="M112.9182,281.2426c-5.7508,2.3301-13.3773,1.2578-19.0179-0.4464
			c-1.7394-0.5255-3.4843-1.1022-5.0331-2.0524c-1.8125-1.112-3.2841-2.6898-4.7315-4.2475
			c-4.0891-4.4008-6.3291-7.1443-6.0684-13.315c0.2143-5.0725,2.6002-10.0789,6.8153-13.0247
			c2.3091-1.6138,5.0855-2.666,6.8818-4.8361c4.1589-5.0246,0.9429-12.4033-0.5754-18.7466
			c-3.7491-15.6639,6.1723-33.373,21.4886-38.3556c-1.961,4.7411,0.0731,10.2403,3.0805,14.3971
			c3.0074,4.1568,6.9721,7.6,9.6088,12.0013c5.1995,8.6792,4.1128,20.6646-2.5628,28.2671
			c-2.6724,3.0435-6.3144,5.8099-6.7195,9.8398c-0.468,4.655,3.6113,8.4055,5.2241,12.7972
			c2.3437,6.3822-1.3227,14.1674-7.2479,17.2002C113.6894,280.911,113.3081,281.0846,112.9182,281.2426z"/>
	</g>
	<g>
		<g>
			<path class="st1" d="M106.5287,201.9726c-4.9279,10.9796,0.5986,22.3309,0.1302,33.6835
				c-0.4836,11.7187-11.7401,22.8832-5.5259,34.6398c0.2661,0.5034,1.0298,0.057,0.7637-0.4464
				c-6.0474-11.441,5.2019-22.6888,5.6466-34.1934c0.4309-11.1487-5.087-22.462-0.2509-33.2371
				C107.5236,201.904,106.7616,201.4537,106.5287,201.9726L106.5287,201.9726z"/>
		</g>
	</g>
	<g>
		<g>
			<path class="st1" d="M112.4582,217.9549c1.2774-1.0737,2.3007-2.3867,3.0307-3.8873c0.248-0.5098-0.5145-0.9587-0.7637-0.4464
				c-0.7004,1.4399-1.6667,2.6782-2.8924,3.7083C111.3966,217.6961,112.025,218.319,112.4582,217.9549L112.4582,217.9549z"/>
		</g>
	</g>
	<g>
		<g>
			<path class="st1" d="M114.8255,224.7458c1.2809,0.5127,2.6639,0.5349,3.963,0.0732c0.5326-0.1893,0.3031-1.0441-0.2351-0.8529
				c-1.1715,0.4163-2.34,0.3882-3.4927-0.0732C114.5322,223.6815,114.3027,224.5366,114.8255,224.7458L114.8255,224.7458z"/>
		</g>
	</g>
	<g>
		<g>
			<path class="st1" d="M113.6604,234.2606c1.0338,1.5735,2.4975,2.7162,4.2721,3.3433c0.5377,0.19,0.769-0.6642,0.2351-0.8528
				c-1.5484-0.5472-2.8421-1.5648-3.7436-2.9368C114.1129,233.3404,113.3467,233.783,113.6604,234.2606L113.6604,234.2606z"/>
		</g>
	</g>
	<g>
		<g>
			<path class="st1" d="M98.2543,211.926c0.7663,1.3198,1.84,2.4005,3.1539,3.1768c0.4911,0.2902,0.9366-0.4741,0.4464-0.7637
				c-1.1877-0.7017-2.144-1.6666-2.8366-2.8595C98.7323,210.9876,97.9676,211.4324,98.2543,211.926L98.2543,211.926z"/>
		</g>
	</g>
	<g>
		<g>
			<path class="st1" d="M96.3591,220.9105c1.2515,1.0719,2.732,1.6753,4.3778,1.7778c0.5684,0.0354,0.5663-0.8492,0-0.8845
				c-1.4-0.0872-2.686-0.6054-3.7524-1.5187C96.5544,219.9167,95.926,220.5395,96.3591,220.9105L96.3591,220.9105z"/>
		</g>
	</g>
	<g>
		<g>
			<path class="st1" d="M97.9536,231.2239c1.5387,0.0756,2.9896-0.4956,4.0747-1.5863c0.4019-0.404-0.2232-1.0296-0.6254-0.6254
				c-0.9333,0.9382-2.1302,1.3921-3.4493,1.3273C97.3846,230.3115,97.3861,231.196,97.9536,231.2239L97.9536,231.2239z"/>
		</g>
	</g>
	<g>
		<g>
			<path class="st1" d="M106.2056,256.4064c2.1119-0.3997,4.065-1.2261,5.8222-2.4635c0.4618-0.3252,0.0204-1.0924-0.4464-0.7637
				c-1.7032,1.1994-3.5641,1.9869-5.6109,2.3743C105.4119,255.6592,105.6484,256.5118,106.2056,256.4064L106.2056,256.4064z"/>
		</g>
	</g>
	<g>
		<g>
			<path class="st1" d="M107.7521,262.3929c1.6067,0.3345,3.2135,0.669,4.8202,1.0035c0.5554,0.1156,0.7929-0.7368,0.2351-0.8529
				c-1.6067-0.3345-3.2135-0.669-4.8202-1.0035C107.4318,261.4244,107.1943,262.2768,107.7521,262.3929L107.7521,262.3929z"/>
		</g>
	</g>
	<g>
		<g>
			<path class="st1" d="M93.135,251.2283c1.1059,0.8963,2.2118,1.7925,3.3177,2.6888c0.4384,0.3553,1.0679-0.2668,0.6254-0.6254
				c-1.1059-0.8963-2.2118-1.7925-3.3177-2.6888C93.322,250.2476,92.6925,250.8697,93.135,251.2283L93.135,251.2283z"/>
		</g>
	</g>
	<g>
		<g>
			<path class="st1" d="M91.6129,258.7132c1.2148,0.6861,2.4295,1.3723,3.6443,2.0584c0.4963,0.2803,0.9425-0.4835,0.4464-0.7637
				c-1.2148-0.6861-2.4295-1.3723-3.6443-2.0584C91.563,257.6692,91.1168,258.433,91.6129,258.7132L91.6129,258.7132z"/>
		</g>
	</g>
</g>
<g>
	<g>
		<path class="st8" d="M97.118,269.5307c-6.3399,13.367-27.983,15.5691-37.0687,3.6725
			c-3.1951-4.1838-4.0359-10.6288-0.7004-14.8994c3.2384-4.1463,5.5049-7.5482,5.0736-13.3024
			c-0.3956-5.2777-3.5719-9.8629-6.2661-14.4184c-2.6942-4.5555-5.0605-9.8958-3.6573-14.999
			c2.2911-8.3319,11.1758-12.0812,15.7215-18.9032c3.6001,2.7816,7.2002,5.5632,10.8003,8.3448
			c5.2558,4.0609,11.08,9.4063,10.2203,15.9922c-0.8399,6.4348-8.0198,12.2398-5.2372,18.1024
			c1.0678,2.2498,3.3513,3.6063,5.2747,5.1883C98.4576,250.2134,101.1014,261.1322,97.118,269.5307z"/>
	</g>
	<g>
		<g>
			<path class="st1" d="M70.3819,206.8731c-1.807,9.4577-0.7322,18.3696,2.4828,27.3907
				c4.1474,11.6375,6.442,22.7948,4.6426,35.1837c-0.0809,0.5567,0.7712,0.7971,0.8529,0.2351
				c1.4106-9.712,0.7825-19.4572-2.2244-28.8205c-1.5648-4.8726-3.6761-9.5763-4.784-14.5899
				c-1.4052-6.3591-1.3354-12.7866-0.117-19.164C71.341,206.552,70.4887,206.3137,70.3819,206.8731L70.3819,206.8731z"/>
		</g>
	</g>
	<g>
		<g>
			<path class="st1" d="M76.3312,215.4149c1.0503-0.8774,1.941-1.9089,2.6673-3.0683c0.303-0.4838-0.4619-0.9282-0.7637-0.4464
				c-0.6881,1.0985-1.5346,2.0587-2.529,2.8893C75.2685,215.1548,75.897,215.7776,76.3312,215.4149L76.3312,215.4149z"/>
		</g>
	</g>
	<g>
		<g>
			<path class="st1" d="M79.0081,222.8818c1.4967-0.6472,2.8717-1.4796,4.1559-2.4829c0.4481-0.3501-0.1818-0.972-0.6254-0.6254
				c-1.2211,0.954-2.5555,1.7299-3.9769,2.3446C78.0407,222.3435,78.4906,223.1057,79.0081,222.8818L79.0081,222.8818z"/>
		</g>
	</g>
	<g>
		<g>
			<path class="st1" d="M77.6702,233.0754c1.2688,0.0045,2.4866,0.2206,3.682,0.6434c0.5376,0.1902,0.7689-0.664,0.2351-0.8529
				c-1.2682-0.4486-2.5724-0.6702-3.9171-0.675C77.101,232.1889,77.1002,233.0734,77.6702,233.0754L77.6702,233.0754z"/>
		</g>
	</g>
	<g>
		<g>
			<path class="st1" d="M61.555,213.2079c0.8874,1.2035,2.0313,2.0822,3.4231,2.6288c0.53,0.2081,0.7598-0.6468,0.2351-0.8529
				c-1.1561-0.4541-2.1574-1.2227-2.8945-2.2224C61.9845,212.3083,61.2166,212.7489,61.555,213.2079L61.555,213.2079z"/>
		</g>
	</g>
	<g>
		<g>
			<path class="st1" d="M60.845,220.5141c1.1457,1.6656,3.2019,2.4224,5.1485,1.834c0.5434-0.1642,0.3118-1.0182-0.2351-0.8528
				c-1.5515,0.469-3.2242-0.0821-4.1497-1.4276C61.2882,219.6017,60.5213,220.0435,60.845,220.5141L60.845,220.5141z"/>
		</g>
	</g>
	<g>
		<g>
			<path class="st1" d="M63.7674,231.1278c1.5799-0.236,2.7479-1.5499,2.9455-3.1052c0.0715-0.5631-0.8136-0.5579-0.8845,0
				c-0.151,1.1882-1.1409,2.0798-2.2962,2.2524C62.9712,230.3587,63.2097,231.2111,63.7674,231.1278L63.7674,231.1278z"/>
		</g>
	</g>
	<g>
		<g>
			<path class="st1" d="M82.7784,252.7236c1.1021-0.7417,2.2042-1.4835,3.3062-2.2252c0.4697-0.3162,0.0276-1.0827-0.4464-0.7637
				c-1.1021,0.7417-2.2042,1.4835-3.3063,2.2252C81.8622,252.276,82.3044,253.0425,82.7784,252.7236L82.7784,252.7236z"/>
		</g>
	</g>
	<g>
		<g>
			<path class="st1" d="M84.6104,259.7516c1.2097,0.7486,2.5406,1.1622,3.9591,1.2528c0.5684,0.0363,0.5662-0.8483,0-0.8844
				c-1.2665-0.0809-2.4342-0.4648-3.5127-1.1321C84.5715,258.6875,84.1268,259.4523,84.6104,259.7516L84.6104,259.7516z"/>
		</g>
	</g>
	<g>
		<g>
			<path class="st1" d="M69.3613,249.5155c1.2561,0.4327,2.5121,0.8655,3.7682,1.2982c0.5393,0.1858,0.7709-0.6683,0.2351-0.8529
				c-1.2561-0.4327-2.5121-0.8655-3.7682-1.2982C69.0572,248.4769,68.8255,249.3309,69.3613,249.5155L69.3613,249.5155z"/>
		</g>
	</g>
	<g>
		<g>
			<path class="st1" d="M69.1379,256.6495c1.1724-0.3896,2.3447-0.7793,3.5171-1.169c0.5375-0.1786,0.3072-1.0331-0.2351-0.8528
				c-1.1724,0.3896-2.3447,0.7793-3.5171,1.1689C68.3653,255.9753,68.5956,256.8298,69.1379,256.6495L69.1379,256.6495z"/>
		</g>
	</g>
	<g>
		<g>
			<path class="st1" d="M72.921,261.9368c-0.6182,0.8348-1.3726,1.5551-2.2298,2.1409c-0.4671,0.3192-0.0252,1.086,0.4464,0.7637
				c0.99-0.6766,1.8338-1.4949,2.5471-2.4582C74.0237,261.9254,73.2564,261.4839,72.921,261.9368L72.921,261.9368z"/>
		</g>
	</g>
</g>
<g>
	<g>
		<path class="st7" d="M242.104,283.7592c11.3703-2.8123,24.8295-14.7577,21.6494-27.7809
			c-1.7247-7.0621-7.7969-12.9181-7.7311-20.1875c0.0733-8.1124,7.6977-14.1533,9.8289-21.9812
			c1.6652-6.1163-0.271-12.7805-3.8221-18.0314c-3.5511-5.2509-8.5725-9.3129-13.6469-13.1118
			c0.5222,5.413-2.7593,10.4644-6.5019,14.4098c-3.7426,3.9454-8.1515,7.3922-10.8472,12.1151
			c-3.5381,6.1986-3.5497,14.261-0.0295,20.4698c1.6999,2.9982,4.2006,5.7072,4.7081,9.1162
			c0.8609,5.7832-4.1597,10.5032-7.6421,15.1999c-3.6617,4.9384-5.9505,11.1584-5.0794,17.2442
			c0.8711,6.0858,5.3869,11.8077,11.4232,12.9737C236.9544,284.6859,239.5916,284.3806,242.104,283.7592z"/>
	</g>
	<g>
		<g>
			<path class="st1" d="M252.2365,193.5058c-0.8122,6.7268-3.258,13.1051-4.3454,19.7879
				c-0.8913,5.4778-1.282,11.018-1.6087,16.5535c-0.7727,13.0916-1.2305,26.3288-6.7872,38.4465
				c-0.2356,0.5138,0.5265,0.9637,0.7637,0.4464c5.1306-11.1885,6.0247-23.2841,6.7117-35.4081
				c0.391-6.9002,0.7247-13.836,1.9117-20.6566c1.1248-6.4634,3.451-12.6464,4.2386-19.1697
				C253.189,192.942,252.3039,192.9469,252.2365,193.5058L252.2365,193.5058z"/>
		</g>
	</g>
	<g>
		<g>
			<path class="st1" d="M244.2617,208.8462c-0.8771-1.7592-1.9747-3.3701-3.2797-4.8392c-0.3788-0.4264-1.0024,0.2009-0.6254,0.6254
				c1.2562,1.4143,2.2977,2.9681,3.1414,4.6603C243.752,209.802,244.5152,209.3546,244.2617,208.8462L244.2617,208.8462z"/>
		</g>
	</g>
	<g>
		<g>
			<path class="st1" d="M241.4878,216.3471c-1.5211-1.4743-3.1825-2.7754-4.9776-3.8998c-0.4837-0.303-0.9282,0.4619-0.4464,0.7637
				c1.7325,1.0853,3.3309,2.3389,4.7986,3.7616C241.2713,217.3689,241.8975,216.7442,241.4878,216.3471L241.4878,216.3471z"/>
		</g>
	</g>
	<g>
		<g>
			<path class="st1" d="M240.9139,224.7074c-1.8725-0.1529-3.745-0.3058-5.6174-0.4587c-0.5673-0.0463-0.5643,0.8384,0,0.8845
				c1.8725,0.1529,3.745,0.3058,5.6174,0.4587C241.4812,225.6382,241.4782,224.7535,240.9139,224.7074L240.9139,224.7074z"/>
		</g>
	</g>
	<g>
		<g>
			<path class="st1" d="M257.7941,202.9366c-1.6075,0.8802-3.0894,1.9433-4.444,3.1771c-0.4217,0.3841,0.2052,1.0082,0.6254,0.6254
				c1.3003-1.1844,2.7227-2.1944,4.2649-3.0388C258.7398,203.4269,258.294,202.6628,257.7941,202.9366L257.7941,202.9366z"/>
		</g>
	</g>
	<g>
		<g>
			<path class="st1" d="M255.5078,213.9281c1.5814-0.1187,3.1628-0.2374,4.7442-0.356c0.5641-0.0423,0.5687-0.9271,0-0.8845
				c-1.5814,0.1187-3.1628,0.2374-4.7442,0.356C254.9437,213.0859,254.9391,213.9707,255.5078,213.9281L255.5078,213.9281z"/>
		</g>
	</g>
	<g>
		<g>
			<path class="st1" d="M251.137,219.9342c1.5936,0.7495,3.2772,0.9386,4.9953,0.5432c0.5545-0.1276,0.3198-0.9806-0.2351-0.8529
				c-1.4721,0.3388-2.9449,0.1898-4.3138-0.454C251.0713,218.9296,250.6218,219.6919,251.137,219.9342L251.137,219.9342z"/>
		</g>
	</g>
	<g>
		<g>
			<path class="st1" d="M237.5559,254.0822c-0.1505-1.1755-0.7697-2.1765-1.7929-2.7908c-0.4892-0.2937-0.9344,0.4707-0.4464,0.7637
				c0.7314,0.4392,1.2454,1.1727,1.3548,2.0271C236.7427,254.639,237.6281,254.6461,237.5559,254.0822L237.5559,254.0822z"/>
		</g>
	</g>
	<g>
		<g>
			<path class="st1" d="M236.252,260.1532c-1.0513-1.0175-2.1886-1.9323-3.405-2.7451c-0.4746-0.3171-0.9179,0.4487-0.4464,0.7637
				c1.1547,0.7716,2.2281,1.6411,3.226,2.6068C236.0357,261.1746,236.6619,260.55,236.252,260.1532L236.252,260.1532z"/>
		</g>
	</g>
	<g>
		<g>
			<path class="st1" d="M254.2295,245.4887c-0.8289,0.8719-1.813,1.5533-2.9339,1.9949c-0.5235,0.2062-0.2955,1.0619,0.2351,0.8529
				c1.2667-0.499,2.3849-1.2343,3.3242-2.2224C255.247,245.7016,254.6226,245.0751,254.2295,245.4887L254.2295,245.4887z"/>
		</g>
	</g>
	<g>
		<g>
			<path class="st1" d="M256.1236,252.3373c-1.3068,1.5195-3.0295,2.4472-5.0132,2.717c-0.5614,0.0764-0.3224,0.9287,0.2351,0.8529
				c2.1186-0.2882,4.01-1.3242,5.4034-2.9444C257.1184,252.5332,256.4955,251.9049,256.1236,252.3373L256.1236,252.3373z"/>
		</g>
	</g>
	<g>
		<g>
			<path class="st1" d="M256.0439,262.3344c-2.3476,0.7054-4.733,0.5941-6.9894-0.3805c-0.5171-0.2234-0.968,0.5384-0.4464,0.7637
				c2.4776,1.0702,5.0807,1.2479,7.6709,0.4697C256.8228,263.0239,256.5911,262.17,256.0439,262.3344L256.0439,262.3344z"/>
		</g>
	</g>
</g>
<g>
	<g>
		<path class="st5" d="M452.345,281.368c-5.3432,2.165-12.4293,1.1686-17.6701-0.4147c-1.6161-0.4883-3.2373-1.0241-4.6764-1.907
			c-1.6841-1.0331-3.0513-2.4991-4.3961-3.9465c-3.7993-4.0889-5.8805-6.638-5.6383-12.3713
			c0.1991-4.713,2.416-9.3646,6.3323-12.1016c2.1454-1.4994,4.7251-2.477,6.394-4.4934c3.8642-4.6685,0.876-11.5243-0.5346-17.418
			c-3.4834-14.5538,5.7349-31.0078,19.9657-35.6373c-1.8221,4.405,0.068,9.5146,2.8622,13.3767
			c2.7943,3.8622,6.478,7.0614,8.9278,11.1507c4.831,8.0641,3.8214,19.2-2.3812,26.2637c-2.483,2.8278-5.8669,5.3981-6.2433,9.1424
			c-0.4348,4.3251,3.3554,7.8098,4.8539,11.8903c2.1776,5.9298-1.2289,13.1633-6.7343,15.9812
			C453.0615,281.0599,452.7072,281.2212,452.345,281.368z"/>
	</g>
	<g>
		<g>
			<path class="st1" d="M446.3813,207.7002c-4.8358,10.8852,1.2579,22.0829-0.0696,33.3076
				c-1.2044,10.1837-10.439,19.8087-4.9437,30.2052c0.2661,0.5034,1.0298,0.057,0.7637-0.4464
				c-5.4698-10.3482,4.3114-20.2457,5.1737-30.4901c0.9085-10.7932-4.8012-21.6835-0.1604-32.1298
				C447.374,207.631,446.6121,207.1805,446.3813,207.7002L446.3813,207.7002z"/>
		</g>
	</g>
	<g>
		<g>
			<path class="st1" d="M451.9398,222.5877c1.1886-0.999,2.1416-2.2219,2.8208-3.6181c0.248-0.5098-0.5145-0.9587-0.7637-0.4464
				c-0.6498,1.3357-1.5455,2.4835-2.6825,3.4392C450.8781,222.329,451.5065,222.9519,451.9398,222.5877L451.9398,222.5877z"/>
		</g>
	</g>
	<g>
		<g>
			<path class="st1" d="M454.1088,228.9055c1.1947,0.4782,2.4872,0.4986,3.6988,0.068c0.5326-0.1893,0.3031-1.0441-0.2351-0.8529
				c-1.0838,0.3851-2.162,0.3588-3.2285-0.068C453.8155,227.8411,453.586,228.6962,454.1088,228.9055L454.1088,228.9055z"/>
		</g>
	</g>
	<g>
		<g>
			<path class="st1" d="M453.0075,237.7315c0.9652,1.4691,2.3312,2.5353,3.9881,3.1208c0.5377,0.19,0.769-0.6642,0.2351-0.8529
				c-1.4306-0.5056-2.6266-1.4466-3.4595-2.7143C453.46,236.8113,452.6938,237.2539,453.0075,237.7315L453.0075,237.7315z"/>
		</g>
	</g>
	<g>
		<g>
			<path class="st1" d="M438.6932,216.9799c0.7146,1.2308,1.7164,2.239,2.9416,2.9629c0.4911,0.2902,0.9366-0.4741,0.4464-0.7637
				c-1.099-0.6493-1.9834-1.5418-2.6243-2.6456C439.1712,216.0414,438.4066,216.4862,438.6932,216.9799L438.6932,216.9799z"/>
		</g>
	</g>
	<g>
		<g>
			<path class="st1" d="M436.9373,225.3339c1.1694,1.0016,2.5518,1.5652,4.0897,1.661c0.5684,0.0354,0.5663-0.8492,0-0.8845
				c-1.2919-0.0804-2.4802-0.5591-3.4643-1.4019C437.1326,224.3401,436.5041,224.9629,436.9373,225.3339L436.9373,225.3339z"/>
		</g>
	</g>
	<g>
		<g>
			<path class="st1" d="M438.4409,234.9256c1.4375,0.0706,2.7944-0.4641,3.808-1.4831c0.4019-0.404-0.2233-1.0297-0.6254-0.6254
				c-0.8616,0.8661-1.965,1.2839-3.1826,1.2241C437.872,234.0132,437.8734,234.8977,438.4409,234.9256L438.4409,234.9256z"/>
		</g>
	</g>
	<g>
		<g>
			<path class="st1" d="M446.1164,258.3222c1.9644-0.3718,3.7825-1.141,5.4171-2.2921c0.4618-0.3252,0.0204-1.0924-0.4464-0.7637
				c-1.5807,1.1131-3.3063,1.8434-5.2058,2.2029C445.3227,257.5751,445.5592,258.4276,446.1164,258.3222L446.1164,258.3222z"/>
		</g>
	</g>
	<g>
		<g>
			<path class="st1" d="M433.9417,253.503c1.0275,0.8327,2.0551,1.6655,3.0826,2.4982c0.4384,0.3553,1.0679-0.2668,0.6254-0.6254
				c-1.0275-0.8327-2.0551-1.6655-3.0826-2.4982C434.1287,252.5223,433.4992,253.1444,433.9417,253.503L433.9417,253.503z"/>
		</g>
	</g>
	<g>
		<g>
			<path class="st1" d="M432.5338,260.4623c1.1287,0.6375,2.2574,1.275,3.386,1.9125c0.4962,0.2803,0.9425-0.4835,0.4464-0.7637
				c-1.1287-0.6375-2.2574-1.275-3.386-1.9126C432.4839,259.4184,432.0377,260.1821,432.5338,260.4623L432.5338,260.4623z"/>
		</g>
	</g>
</g>
<g>
	<g>
		<path class="st7" d="M469.5904,283.5992c11.5236-2.0976,25.7017-13.1801,23.3402-26.3763
			c-1.2808-7.1559-6.9759-13.3794-6.4568-20.6304c0.5792-8.0921,8.5656-13.6456,11.1809-21.3253
			c2.0435-6.0005,0.5269-12.7726-2.6898-18.2347c-3.2166-5.4622-7.9749-9.8295-12.8025-13.9376
			c0.1836,5.435-3.4067,10.2719-7.3881,13.9761c-3.9814,3.7042-8.5967,6.8693-11.5818,11.4148
			c-3.9178,5.9658-4.4324,14.0118-1.3064,20.4281c1.5096,3.0984,3.8364,5.9581,4.1302,9.3922
			c0.4985,5.8257-4.8067,10.2233-8.5754,14.6936c-3.9626,4.7004-6.6349,10.7655-6.1452,16.8938
			c0.4898,6.1283,4.6399,12.1208,10.5916,13.661C464.393,284.2029,467.0441,284.0627,469.5904,283.5992z"/>
	</g>
	<g>
		<g>
			<path class="st1" d="M485.348,194.0637c-1.1774,6.377-3.8618,12.3192-5.3706,18.6153
				c-1.3237,5.5234-2.0877,11.1613-2.7806,16.7926c-1.6276,13.2277-2.8467,26.611-9.26,38.5529
				c-0.2693,0.5014,0.494,0.9486,0.7637,0.4464c5.6538-10.5276,7.369-22.2255,8.7767-33.9417
				c0.8029-6.6822,1.5245-13.3949,2.9779-19.9754c1.5182-6.8735,4.468-13.3343,5.7458-20.255
				C486.3036,193.7424,485.4514,193.5039,485.348,194.0637L485.348,194.0637z"/>
		</g>
	</g>
	<g>
		<g>
			<path class="st1" d="M476.4038,208.9425c-0.7671-1.8139-1.7643-3.48-2.9771-5.0303c-0.3504-0.4479-0.9723,0.182-0.6254,0.6254
				c1.1635,1.4872,2.1038,3.1132,2.8388,4.8513C475.8611,209.9114,476.6231,209.4611,476.4038,208.9425L476.4038,208.9425z"/>
		</g>
	</g>
	<g>
		<g>
			<path class="st1" d="M473.1617,216.2599c-1.4264-1.5677-3.0067-2.9632-4.7292-4.1973c-0.4634-0.3321-0.9055,0.4347-0.4464,0.7637
				c1.6613,1.1903,3.1751,2.5478,4.5501,4.059C472.9202,217.3072,473.5442,216.6803,473.1617,216.2599L473.1617,216.2599z"/>
		</g>
	</g>
	<g>
		<g>
			<path class="st1" d="M472.1762,224.6032c-1.8593-0.2694-3.7186-0.5388-5.5779-0.8082c-0.5568-0.0807-0.7972,0.7714-0.2351,0.8529
				c1.8593,0.2694,3.7186,0.5388,5.5779,0.8082C472.4978,225.5367,472.7383,224.6846,472.1762,224.6032L472.1762,224.6032z"/>
		</g>
	</g>
	<g>
		<g>
			<path class="st1" d="M490.2673,203.926c-1.662,0.7803-3.1977,1.7513-4.6294,2.8995c-0.444,0.3561,0.1854,0.9783,0.6254,0.6254
				c1.3711-1.0997,2.86-2.0145,4.4503-2.7612C491.2286,204.448,490.7801,203.6853,490.2673,203.926L490.2673,203.926z"/>
		</g>
	</g>
	<g>
		<g>
			<path class="st1" d="M487.3517,214.7411c1.5858-0.0198,3.1715-0.0396,4.7572-0.0594c0.5687-0.0071,0.5703-0.8916,0-0.8845
				c-1.5858,0.0198-3.1715,0.0396-4.7572,0.0594C486.783,213.8637,486.7814,214.7482,487.3517,214.7411L487.3517,214.7411z"/>
		</g>
	</g>
	<g>
		<g>
			<path class="st1" d="M482.6106,220.4767c1.5416,0.8493,3.2221,1.1217,4.9552,0.8326c0.5602-0.0934,0.3225-0.9459-0.2351-0.8529
				c-1.4908,0.2487-2.9528-0.0157-4.2736-0.7434C482.5581,219.4381,482.1114,220.2017,482.6106,220.4767L482.6106,220.4767z"/>
		</g>
	</g>
	<g>
		<g>
			<path class="st1" d="M466.9032,253.6687c-0.0771-1.1862-0.6611-2.2104-1.6395-2.8843c-0.4699-0.3237-0.9127,0.4426-0.4464,0.7637
				c0.7074,0.4873,1.1458,1.2641,1.2015,2.1206C466.0555,254.2339,466.9402,254.238,466.9032,253.6687L466.9032,253.6687z"/>
		</g>
	</g>
	<g>
		<g>
			<path class="st1" d="M465.2034,259.6541c-0.9869-1.0829-2.0666-2.0589-3.2316-2.9467c-0.4526-0.3449-0.8936,0.4229-0.4464,0.7637
				c1.1032,0.8408,2.1186,1.7836,3.0526,2.8084C464.9622,260.7011,465.5862,260.0742,465.2034,259.6541L465.2034,259.6541z"/>
		</g>
	</g>
	<g>
		<g>
			<path class="st1" d="M484.0594,246.1786c-0.8859,0.8213-1.9102,1.423-3.0594,1.7956c-0.5392,0.1748-0.3085,1.0291,0.2351,0.8529
				c1.2949-0.4198,2.4514-1.0975,3.4496-2.0231C485.1032,246.4162,484.4766,245.7918,484.0594,246.1786L484.0594,246.1786z"/>
		</g>
	</g>
	<g>
		<g>
			<path class="st1" d="M485.5226,253.132c-1.3687,1.4005-3.1056,2.2259-5.062,2.3708c-0.5642,0.0418-0.5688,0.9266,0,0.8845
				c2.1851-0.1618,4.1538-1.0605,5.6874-2.6298C486.5461,253.3501,485.9213,252.7241,485.5226,253.132L485.5226,253.132z"/>
		</g>
	</g>
</g>
<g>
	<g>
		<path class="st21" d="M41.0903,281.4452c5.3626,2.1166,12.4393,1.0561,17.6656-0.5746c1.6116-0.5028,3.228-1.0533,4.6589-1.9492
			c1.6746-1.0483,3.0286-2.5266,4.3603-3.9861c3.7622-4.1231,5.8202-6.6909,5.5262-12.4218
			c-0.2417-4.711-2.5006-9.3423-6.4415-12.0438c-2.1589-1.4799-4.7473-2.4342-6.4345-4.4353
			c-3.9062-4.6333-0.9803-11.5159,0.377-17.4221c3.3516-14.5847-6.0152-30.9546-20.2873-35.4552
			c1.8618,4.3884,0.0181,9.5148-2.741,13.4021s-6.4138,7.1197-8.8266,11.231c-4.7579,8.1074-3.6475,19.2338,2.6187,26.2411
			c2.5085,2.8052,5.9154,5.3448,6.3258,9.0856c0.474,4.321-3.2846,7.8398-4.7461,11.9337
			c-2.1239,5.9493,1.348,13.1517,6.8785,15.9196C40.3711,281.1436,40.7268,281.3017,41.0903,281.4452z"/>
	</g>
	<g>
		<g>
			<path class="st1" d="M45.6257,208.1764c4.7345,10.4026-0.8709,21.3465,0.1323,32.1294
				c0.9533,10.2471,10.8283,20.0435,5.4513,30.4426c-0.261,0.5049,0.5019,0.9527,0.7637,0.4464
				c5.3956-10.4353-3.918-20.0023-5.2142-30.1588c-1.4308-11.2107,4.5642-22.466-0.3695-33.3061
				C46.1539,207.2126,45.3914,207.6617,45.6257,208.1764L45.6257,208.1764z"/>
		</g>
	</g>
	<g>
		<g>
			<path class="st1" d="M41.5863,222.0355c-1.1457-0.9454-2.0524-2.0842-2.7143-3.4141c-0.2536-0.5096-1.0168-0.0621-0.7637,0.4464
				c0.6918,1.39,1.6549,2.6048,2.8526,3.5931C41.3967,223.0205,42.0258,222.3982,41.5863,222.0355L41.5863,222.0355z"/>
		</g>
	</g>
	<g>
		<g>
			<path class="st1" d="M38.613,228.149c-1.0631,0.4367-2.141,0.4745-3.2278,0.0994c-0.5392-0.1861-0.7708,0.6679-0.2351,0.8528
				c1.2157,0.4196,2.5078,0.3895,3.698-0.0993C39.3674,228.7886,39.14,227.9326,38.613,228.149L38.613,228.149z"/>
		</g>
	</g>
	<g>
		<g>
			<path class="st1" d="M39.2673,237.3736c-0.8211,1.2747-2.0067,2.2293-3.433,2.7479c-0.5307,0.193-0.3016,1.048,0.2351,0.8529
				c1.6512-0.6004,3.0094-1.6762,3.9615-3.1543C40.3402,237.34,39.5749,236.8961,39.2673,237.3736L39.2673,237.3736z"/>
		</g>
	</g>
	<g>
		<g>
			<path class="st1" d="M53.3933,216.4933c-0.6308,1.1095-1.5056,2.0113-2.5988,2.6707c-0.4868,0.2936-0.0427,1.0587,0.4464,0.7637
				c1.2185-0.7349,2.2126-1.7506,2.9161-2.988C54.4388,216.4441,53.6749,215.998,53.3933,216.4933L53.3933,216.4933z"/>
		</g>
	</g>
	<g>
		<g>
			<path class="st1" d="M55.3622,224.6515c-0.9758,0.8512-2.1584,1.3439-3.4503,1.436c-0.5645,0.0403-0.5689,0.925,0,0.8844
				c1.5364-0.1096,2.9149-0.6826,4.0757-1.6951C56.4174,224.902,55.7896,224.2786,55.3622,224.6515L55.3622,224.6515z"/>
		</g>
	</g>
	<g>
		<g>
			<path class="st1" d="M54.5697,233.9945c-1.2163,0.0708-2.3253-0.334-3.1947-1.1924c-0.4055-0.4003-1.0313,0.2247-0.6254,0.6254
				c1.0227,1.0096,2.3827,1.535,3.8201,1.4514C55.1354,234.846,55.1392,233.9613,54.5697,233.9945L54.5697,233.9945z"/>
		</g>
	</g>
	<g>
		<g>
			<path class="st1" d="M47.3414,257.4901c-1.9027-0.3423-3.6352-1.056-5.2259-2.1547c-0.4694-0.3243-0.9122,0.442-0.4464,0.7637
				c1.645,1.1363,3.4696,1.8899,5.4372,2.2439C47.6628,258.4431,47.9016,257.5909,47.3414,257.4901L47.3414,257.4901z"/>
		</g>
	</g>
	<g>
		<g>
			<path class="st1" d="M58.6125,252.7924c-1.02,0.842-2.0399,1.684-3.0599,2.526c-0.4393,0.3626,0.1895,0.9853,0.6254,0.6254
				c1.02-0.842,2.0399-1.684,3.0599-2.526C59.6772,253.0551,59.0485,252.4325,58.6125,252.7924L58.6125,252.7924z"/>
		</g>
	</g>
	<g>
		<g>
			<path class="st1" d="M60.2617,259.5995c-1.1229,0.6477-2.2457,1.2954-3.3686,1.9431c-0.4929,0.2843-0.048,1.0489,0.4464,0.7637
				c1.1229-0.6477,2.2457-1.2954,3.3686-1.9431C61.201,260.0789,60.7561,259.3143,60.2617,259.5995L60.2617,259.5995z"/>
		</g>
	</g>
</g>
<g>
	<g>
		<path class="st7" d="M25.3552,283.7592c-11.3703-2.8123-24.8295-14.7577-21.6494-27.7809
			c1.7247-7.0621,7.7969-12.9181,7.7311-20.1875c-0.0733-8.1124-7.6977-14.1533-9.8289-21.9812
			c-1.6652-6.1163,0.2709-12.7805,3.822-18.0314c3.5511-5.2509,8.5725-9.3129,13.6469-13.1118
			c-0.5222,5.413,2.7593,10.4644,6.5019,14.4098s8.1515,7.3922,10.8472,12.1151c3.538,6.1986,3.5497,14.261,0.0295,20.4698
			c-1.6999,2.9982-4.2006,5.7072-4.7081,9.1162c-0.8609,5.7832,4.1596,10.5032,7.6421,15.1999
			c3.6617,4.9384,5.9505,11.1584,5.0794,17.2442c-0.8711,6.0858-5.3869,11.8077-11.4232,12.9737
			C30.5048,284.6859,27.8676,284.3806,25.3552,283.7592z"/>
	</g>
	<g>
		<g>
			<path class="st1" d="M14.3383,193.5058c0.7537,6.2424,2.9534,12.1498,4.0835,18.3202c1.3,7.0974,1.6596,14.3159,2.0667,21.5061
				c0.6864,12.1234,1.5811,24.2196,6.7117,35.4081c0.237,0.5168,0.9995,0.0678,0.7637-0.4464
				c-5.5545-12.1129-6.0177-25.3589-6.7872-38.4465c-0.3085-5.2469-0.6714-10.5012-1.4704-15.7001
				c-1.0726-6.9796-3.6375-13.633-4.4837-20.6413C15.1554,192.9478,14.2701,192.941,14.3383,193.5058L14.3383,193.5058z"/>
		</g>
	</g>
	<g>
		<g>
			<path class="st1" d="M23.9612,209.2926c0.8437-1.6922,1.8851-3.2459,3.1414-4.6603c0.3769-0.4243-0.2465-1.052-0.6254-0.6254
				c-1.305,1.4692-2.4026,3.08-3.2797,4.8392C22.9443,209.3541,23.7069,209.8026,23.9612,209.2926L23.9612,209.2926z"/>
		</g>
	</g>
	<g>
		<g>
			<path class="st1" d="M26.5968,216.9725c1.4679-1.4227,3.0662-2.6763,4.7986-3.7616c0.4813-0.3015,0.0378-1.067-0.4464-0.7637
				c-1.7952,1.1245-3.4565,2.4255-4.9776,3.8998C25.5619,216.744,26.1877,217.369,26.5968,216.9725L26.5968,216.9725z"/>
		</g>
	</g>
	<g>
		<g>
			<path class="st1" d="M26.5453,225.5919c1.8725-0.1529,3.745-0.3058,5.6174-0.4587c0.5633-0.046,0.5683-0.9309,0-0.8845
				c-1.8725,0.1529-3.745,0.3058-5.6174,0.4587C25.982,224.7534,25.9771,225.6383,26.5453,225.5919L26.5453,225.5919z"/>
		</g>
	</g>
	<g>
		<g>
			<path class="st1" d="M9.2188,203.7003c1.5424,0.8446,2.9647,1.8544,4.2649,3.0388c0.42,0.3826,1.0473-0.2411,0.6254-0.6254
				c-1.3546-1.2339-2.8365-2.297-4.4439-3.1771C9.1657,202.6631,8.7188,203.4266,9.2188,203.7003L9.2188,203.7003z"/>
		</g>
	</g>
	<g>
		<g>
			<path class="st1" d="M11.9514,213.0436c-1.5814-0.1187-3.1628-0.2374-4.7442-0.356c-0.5677-0.0426-0.565,0.8421,0,0.8845
				c1.5814,0.1187,3.1628,0.2374,4.7442,0.356C12.5192,213.9707,12.5165,213.086,11.9514,213.0436L11.9514,213.0436z"/>
		</g>
	</g>
	<g>
		<g>
			<path class="st1" d="M15.8758,219.1705c-1.3691,0.6439-2.8409,0.793-4.3138,0.454c-0.554-0.1275-0.7905,0.7251-0.2351,0.8529
				c1.7179,0.3953,3.4014,0.2065,4.9953-0.5432C16.8369,219.6921,16.3884,218.9294,15.8758,219.1705L15.8758,219.1705z"/>
		</g>
	</g>
	<g>
		<g>
			<path class="st1" d="M30.7878,254.0822c0.1094-0.8545,0.6234-1.588,1.3548-2.0271c0.4875-0.2927,0.0433-1.0577-0.4464-0.7637
				c-1.0229,0.6142-1.6424,1.6155-1.7929,2.7908C29.8312,254.6452,30.7164,254.6399,30.7878,254.0822L30.7878,254.0822z"/>
		</g>
	</g>
	<g>
		<g>
			<path class="st1" d="M31.8327,260.7786c0.9979-0.9658,2.0712-1.8352,3.226-2.6068c0.471-0.3147,0.0286-1.0811-0.4464-0.7637
				c-1.2164,0.8128-2.3536,1.7276-3.405,2.7451C30.7975,260.5498,31.4233,261.1748,31.8327,260.7786L31.8327,260.7786z"/>
		</g>
	</g>
	<g>
		<g>
			<path class="st1" d="M12.6043,246.1141c0.9393,0.988,2.0575,1.7233,3.3242,2.2224c0.5297,0.2087,0.7595-0.6463,0.2351-0.8529
				c-1.1211-0.4417-2.105-1.123-2.9339-1.9949C12.8368,245.0753,12.212,245.7014,12.6043,246.1141L12.6043,246.1141z"/>
		</g>
	</g>
	<g>
		<g>
			<path class="st1" d="M10.7102,252.9627c1.3934,1.6201,3.2848,2.6563,5.4034,2.9444c0.5566,0.0757,0.7974-0.7764,0.2351-0.8529
				c-1.9842-0.2699-3.7069-1.1982-5.0131-2.717C10.9639,251.9051,10.3407,252.5331,10.7102,252.9627L10.7102,252.9627z"/>
		</g>
	</g>
	<g>
		<g>
			<path class="st1" d="M11.1802,263.1873c2.59,0.7782,5.1929,0.6006,7.6709-0.4697c0.5211-0.2251,0.0712-0.9873-0.4464-0.7637
				c-2.2533,0.9733-4.6434,1.0854-6.9894,0.3805C10.869,262.1703,10.6356,263.0237,11.1802,263.1873L11.1802,263.1873z"/>
		</g>
	</g>
</g>
<g>
	<g>
		<path class="st4" d="M251.1493,279.4995c4.1203,4.0324,11.0537,5.8024,16.5032,6.3286c1.6805,0.1622,3.3837,0.2824,5.0502,0.0123
			c1.9503-0.316,3.7719-1.1527,5.5657-1.9807c5.0678-2.3392,7.9613-3.9066,9.9151-9.3022
			c1.6061-4.4353,1.3224-9.5804-1.2607-13.5999c-1.4151-2.202-3.43-4.0862-4.2079-6.5854
			c-1.8011-5.7864,3.5673-10.9932,7.111-15.9093c8.7507-12.1397,6.4737-30.862-4.9318-40.5502
			c0.0121,4.767-3.6771,8.7756-7.729,11.2868c-4.0519,2.5113-8.6748,4.0713-12.4944,6.9235
			c-7.5321,5.6245-10.8283,16.3093-7.7739,25.1996c1.2227,3.559,3.3766,7.2221,2.3025,10.8287
			c-1.2407,4.1661-6.0705,5.9498-9.0067,9.1552c-4.2669,4.6582-3.8634,12.6435,0.1588,17.3414
			C250.6036,278.9424,250.87,279.2261,251.1493,279.4995z"/>
	</g>
	<g>
		<g>
			<path class="st1" d="M283.7694,213.6805c0.3571,10.5306-7.7127,18.2022-11.4963,27.3954
				c-4.2228,10.2602,1.7945,24.7248-7.6931,32.5354c-0.4398,0.362,0.1891,0.9846,0.6254,0.6254
				c9.4663-7.793,3.7621-21.4929,7.4084-31.6095c3.58-9.9328,12.4192-17.7711,12.0402-28.9467
				C284.6346,213.1129,283.7501,213.1102,283.7694,213.6805L283.7694,213.6805z"/>
		</g>
	</g>
	<g>
		<g>
			<path class="st1" d="M274.6425,224.8855c-0.6655-1.283-1.0481-2.6441-1.1446-4.0862c-0.0378-0.5649-0.9225-0.5691-0.8845,0
				c0.107,1.5987,0.5276,3.1103,1.2654,4.5326C274.1409,225.8373,274.9044,225.3906,274.6425,224.8855L274.6425,224.8855z"/>
		</g>
	</g>
	<g>
		<g>
			<path class="st1" d="M269.4995,229.4181c-1.0973-0.0063-2.1009-0.3865-2.9172-1.1233c-0.4216-0.3805-1.049,0.2431-0.6254,0.6254
				c0.9887,0.8924,2.2089,1.3746,3.5426,1.3823C270.0687,230.3058,270.0694,229.4214,269.4995,229.4181L269.4995,229.4181z"/>
		</g>
	</g>
	<g>
		<g>
			<path class="st1" d="M266.6207,238.1488c-1.3062,0.8833-2.7531,1.2945-4.3297,1.2239c-0.5691-0.0255-0.5678,0.859,0,0.8845
				c1.7153,0.0768,3.3535-0.3826,4.7761-1.3447C267.536,238.5954,267.0939,237.8288,266.6207,238.1488L266.6207,238.1488z"/>
		</g>
	</g>
	<g>
		<g>
			<path class="st1" d="M287.7448,224.3901c-1.0508,0.8013-2.2267,1.2979-3.534,1.4923c-0.561,0.0835-0.3226,0.9358,0.2351,0.8529
				c1.3721-0.2041,2.6421-0.7403,3.7452-1.5815C288.6378,224.8132,288.1977,224.0448,287.7448,224.3901L287.7448,224.3901z"/>
		</g>
	</g>
	<g>
		<g>
			<path class="st1" d="M286.3993,232.6839c-1.2823,0.419-2.5629,0.412-3.8405-0.0181c-0.5406-0.182-0.7726,0.6719-0.2351,0.8529
				c1.4139,0.4759,2.8932,0.4812,4.3107,0.0181C287.1731,233.3607,286.9425,232.5064,286.3993,232.6839L286.3993,232.6839z"/>
		</g>
	</g>
	<g>
		<g>
			<path class="st1" d="M281.9385,240.9844c-1.0857-0.3769-1.9755-1.2031-2.4103-2.271c-0.2118-0.5202-1.0677-0.2927-0.8528,0.2351
				c0.5599,1.3751,1.6218,2.4006,3.028,2.8887C282.2422,242.0243,282.4737,241.1702,281.9385,240.9844L281.9385,240.9844z"/>
		</g>
	</g>
	<g>
		<g>
			<path class="st1" d="M266.1592,259.8155c-1.5823-1.0204-2.895-2.3465-3.9009-3.938c-0.3033-0.4799-1.069-0.0366-0.7637,0.4464
				c1.0871,1.7198,2.5084,3.1526,4.2182,4.2552C266.1926,260.8886,266.6365,260.1233,266.1592,259.8155L266.1592,259.8155z"/>
		</g>
	</g>
	<g>
		<g>
			<path class="st1" d="M278.47,259.8795c-1.2668,0.38-2.5337,0.76-3.8005,1.14c-0.5438,0.1631-0.3122,1.017,0.2351,0.8528
				c1.2668-0.38,2.5337-0.76,3.8005-1.14C279.2489,260.5692,279.0172,259.7153,278.47,259.8795L278.47,259.8795z"/>
		</g>
	</g>
</g>
<g>
	<g>
		<path class="st21" d="M283.5286,271.3193c5.8905,12.4196,25.9998,14.4657,34.4415,3.4122
			c2.9686-3.8873,3.7498-9.8756,0.6508-13.8434c-3.0089-3.8524-5.1148-7.0132-4.7141-12.3597
			c0.3675-4.9037,3.3188-9.1639,5.822-13.3965c2.5032-4.2327,4.7019-9.1945,3.3981-13.936
			c-2.1287-7.7414-10.3838-11.225-14.6073-17.5635c-3.3449,2.5845-6.6899,5.169-10.0349,7.7534
			c-4.8833,3.7731-10.2947,8.7396-9.496,14.8588c0.7804,5.9787,7.4514,11.3724,4.8661,16.8194
			c-0.9922,2.0904-3.1138,3.3507-4.9008,4.8206C282.2839,253.371,279.8275,263.5159,283.5286,271.3193z"/>
	</g>
	<g>
		<g>
			<path class="st1" d="M307.5472,213.3291c2.1674,11.4559-1.1217,20.6532-4.5536,31.345
				c-2.7969,8.7134-3.3691,17.7575-2.0668,26.7946c0.0809,0.5612,0.9332,0.3225,0.8528-0.2351
				c-1.6574-11.5013,0.4641-21.8721,4.3136-32.6735c2.9921-8.3958,3.9719-16.6655,2.3068-25.4661
				C308.2944,212.5353,307.4418,212.7719,307.5472,213.3291L307.5472,213.3291z"/>
		</g>
	</g>
	<g>
		<g>
			<path class="st1" d="M303.4454,220.4355c-0.922-0.7701-1.7069-1.6598-2.3448-2.6782c-0.3015-0.4813-1.067-0.0378-0.7637,0.4464
				c0.6762,1.0795,1.5052,2.0404,2.4832,2.8572C303.254,221.4234,303.8829,220.801,303.4454,220.4355L303.4454,220.4355z"/>
		</g>
	</g>
	<g>
		<g>
			<path class="st1" d="M300.7856,227.2398c-1.3179-0.57-2.5563-1.2889-3.6887-2.1735c-0.4434-0.3464-1.0737,0.2752-0.6254,0.6254
				c1.1953,0.9338,2.4744,1.7093,3.8677,2.3118C300.8562,228.2271,301.3071,227.4654,300.7856,227.2398L300.7856,227.2398z"/>
		</g>
	</g>
	<g>
		<g>
			<path class="st1" d="M301.5981,236.5945c-1.2519,0.0045-2.4672,0.2106-3.6478,0.6283c-0.5329,0.1885-0.3034,1.0434,0.2351,0.8529
				c1.1085-0.3921,2.2366-0.5925,3.4127-0.5967C302.1671,237.4769,302.1682,236.5925,301.5981,236.5945L301.5981,236.5945z"/>
		</g>
	</g>
	<g>
		<g>
			<path class="st1" d="M315.8345,218.5576c-0.6796,0.9217-1.6048,1.6319-2.6706,2.0505c-0.5238,0.2057-0.2957,1.0614,0.2351,0.8529
				c1.3014-0.5112,2.3695-1.3316,3.1992-2.4569C316.9363,218.5454,316.1691,218.1038,315.8345,218.5576L315.8345,218.5576z"/>
		</g>
	</g>
	<g>
		<g>
			<path class="st1" d="M316.4942,225.3459c-0.852,1.2387-2.3928,1.7435-3.8202,1.312c-0.546-0.1651-0.7794,0.6883-0.2351,0.8528
				c1.8223,0.5508,3.7468-0.1597,4.819-1.7184C317.5813,225.3222,316.8151,224.8794,316.4942,225.3459L316.4942,225.3459z"/>
		</g>
	</g>
	<g>
		<g>
			<path class="st1" d="M314.7424,234.8154c-1.0582-0.158-1.9718-0.9717-2.1104-2.0625c-0.0708-0.557-0.9561-0.5641-0.8845,0
				c0.1852,1.458,1.2769,2.6939,2.7598,2.9154C315.0641,235.7514,315.3043,234.8993,314.7424,234.8154L314.7424,234.8154z"/>
		</g>
	</g>
	<g>
		<g>
			<path class="st1" d="M297.2825,254.9666c-1.024-0.6892-2.0479-1.3783-3.0719-2.0675c-0.4735-0.3187-0.9167,0.4472-0.4464,0.7637
				c1.024,0.6892,2.0479,1.3783,3.0719,2.0675C297.3096,256.049,297.7528,255.2831,297.2825,254.9666L297.2825,254.9666z"/>
		</g>
	</g>
	<g>
		<g>
			<path class="st1" d="M294.7191,261.4965c-0.9965,0.6166-2.0768,0.9727-3.248,1.0476c-0.5652,0.0361-0.5693,0.9208,0,0.8845
				c1.3233-0.0846,2.5656-0.4698,3.6944-1.1683C295.6486,261.9613,295.205,261.1959,294.7191,261.4965L294.7191,261.4965z"/>
		</g>
	</g>
	<g>
		<g>
			<path class="st1" d="M309.0913,251.8999c-1.1671,0.4021-2.3341,0.8041-3.5011,1.2062c-0.5349,0.1843-0.3051,1.039,0.2351,0.8529
				c1.167-0.4021,2.3341-0.8041,3.5011-1.2062C309.8613,252.5685,309.6315,251.7138,309.0913,251.8999L309.0913,251.8999z"/>
		</g>
	</g>
	<g>
		<g>
			<path class="st1" d="M309.7524,258.5284c-1.0893-0.3621-2.1786-0.7241-3.2678-1.0861c-0.5414-0.1799-0.7735,0.6739-0.2351,0.8529
				c1.0893,0.362,2.1785,0.7241,3.2678,1.0861C310.0587,259.5611,310.2908,258.7073,309.7524,258.5284L309.7524,258.5284z"/>
		</g>
	</g>
</g>
<g>
	<g>
		<path class="st4" d="M393.8856,279.4995c4.1203,4.0324,11.0537,5.8024,16.5031,6.3286c1.6805,0.1622,3.3837,0.2824,5.0502,0.0123
			c1.9503-0.316,3.7719-1.1527,5.5657-1.9807c5.0678-2.3392,7.9613-3.9066,9.9151-9.3022
			c1.6061-4.4353,1.3224-9.5804-1.2607-13.5999c-1.4151-2.202-3.43-4.0862-4.2079-6.5854
			c-1.8011-5.7864,3.5673-10.9932,7.111-15.9093c8.7507-12.1397,6.4737-30.862-4.9318-40.5502
			c0.0121,4.767-3.6771,8.7756-7.729,11.2868c-4.0519,2.5113-8.6748,4.0713-12.4944,6.9235
			c-7.5321,5.6245-10.8283,16.3093-7.7739,25.1996c1.2227,3.559,3.3766,7.2221,2.3025,10.8287
			c-1.2407,4.1661-6.0705,5.9498-9.0067,9.1552c-4.2669,4.6582-3.8634,12.6435,0.1588,17.3414
			C393.3398,278.9424,393.6062,279.2261,393.8856,279.4995z"/>
	</g>
	<g>
		<g>
			<path class="st1" d="M426.5056,213.6805c0.3571,10.5306-7.7127,18.2022-11.4963,27.3954
				c-4.2228,10.2602,1.7945,24.7248-7.6931,32.5354c-0.4398,0.362,0.1891,0.9846,0.6254,0.6254
				c9.4663-7.793,3.7621-21.4929,7.4084-31.6095c3.58-9.9328,12.4192-17.7711,12.0402-28.9467
				C427.3708,213.1129,426.4863,213.1102,426.5056,213.6805L426.5056,213.6805z"/>
		</g>
	</g>
	<g>
		<g>
			<path class="st1" d="M417.3787,224.8855c-0.6655-1.283-1.0481-2.6441-1.1446-4.0862c-0.0378-0.5649-0.9225-0.5691-0.8845,0
				c0.107,1.5987,0.5276,3.1103,1.2654,4.5326C416.8771,225.8373,417.6406,225.3906,417.3787,224.8855L417.3787,224.8855z"/>
		</g>
	</g>
	<g>
		<g>
			<path class="st1" d="M412.2357,229.4181c-1.0973-0.0063-2.1009-0.3865-2.9172-1.1233c-0.4216-0.3805-1.049,0.2431-0.6254,0.6254
				c0.9887,0.8924,2.2089,1.3746,3.5426,1.3823C412.8049,230.3058,412.8056,229.4214,412.2357,229.4181L412.2357,229.4181z"/>
		</g>
	</g>
	<g>
		<g>
			<path class="st1" d="M409.3569,238.1488c-1.3062,0.8833-2.7531,1.2945-4.3297,1.2239c-0.5691-0.0255-0.5678,0.859,0,0.8845
				c1.7153,0.0768,3.3535-0.3826,4.7761-1.3447C410.2722,238.5954,409.8301,237.8288,409.3569,238.1488L409.3569,238.1488z"/>
		</g>
	</g>
	<g>
		<g>
			<path class="st1" d="M430.481,224.3901c-1.0508,0.8013-2.2267,1.2979-3.534,1.4923c-0.561,0.0835-0.3226,0.9358,0.2351,0.8529
				c1.3721-0.2041,2.6421-0.7403,3.7452-1.5815C431.374,224.8132,430.9339,224.0448,430.481,224.3901L430.481,224.3901z"/>
		</g>
	</g>
	<g>
		<g>
			<path class="st1" d="M429.1355,232.6839c-1.2823,0.419-2.5629,0.412-3.8405-0.0181c-0.5407-0.182-0.7726,0.6719-0.2351,0.8529
				c1.4139,0.4759,2.8932,0.4812,4.3107,0.0181C429.9093,233.3607,429.6787,232.5064,429.1355,232.6839L429.1355,232.6839z"/>
		</g>
	</g>
	<g>
		<g>
			<path class="st1" d="M424.6747,240.9844c-1.0857-0.3769-1.9755-1.2031-2.4103-2.271c-0.2118-0.5202-1.0677-0.2927-0.8528,0.2351
				c0.5599,1.3751,1.6218,2.4006,3.028,2.8887C424.9784,242.0243,425.2099,241.1702,424.6747,240.9844L424.6747,240.9844z"/>
		</g>
	</g>
	<g>
		<g>
			<path class="st1" d="M408.8954,259.8155c-1.5823-1.0204-2.895-2.3465-3.9009-3.938c-0.3033-0.4799-1.069-0.0366-0.7637,0.4464
				c1.0871,1.7198,2.5084,3.1526,4.2182,4.2552C408.9288,260.8886,409.3727,260.1233,408.8954,259.8155L408.8954,259.8155z"/>
		</g>
	</g>
	<g>
		<g>
			<path class="st1" d="M421.2062,259.8795c-1.2668,0.38-2.5337,0.76-3.8005,1.14c-0.5438,0.1631-0.3122,1.017,0.2351,0.8528
				c1.2668-0.38,2.5337-0.76,3.8005-1.14C421.9851,260.5692,421.7534,259.7153,421.2062,259.8795L421.2062,259.8795z"/>
		</g>
	</g>
</g>
<g>
	<g>
		<path class="st8" d="M363.3338,268.7816c7.2997,15.3906,32.2192,17.9261,42.6804,4.2284
			c3.6788-4.8172,4.6469-12.2379,0.8065-17.1549c-3.7287-4.774-6.3383-8.6909-5.8417-15.3162
			c0.4554-6.0767,4.1127-11.356,7.2147-16.6011c3.1021-5.2452,5.8266-11.3939,4.211-17.2696
			c-2.6379-9.5933-12.8677-13.9101-18.1015-21.7649c-4.1451,3.2027-8.2902,6.4054-12.4353,9.6082
			c-6.0514,4.6756-12.7573,10.8303-11.7675,18.4133c0.9671,7.4089,9.2339,14.0928,6.0301,20.8428
			c-1.2295,2.5904-3.8586,4.1523-6.0732,5.9737C361.7914,246.5399,358.7474,259.1117,363.3338,268.7816z"/>
	</g>
	<g>
		<g>
			<path class="st1" d="M393.2,196.8913c1.4258,7.4015,1.4993,14.8757-0.1693,22.2544c-1.3695,6.0566-3.9768,11.7189-5.795,17.6372
				c-3.2098,10.4482-3.8354,21.3665-2.2398,32.1559c0.083,0.561,0.9353,0.3225,0.8528-0.2351
				c-1.9854-13.4253,0.0919-26.0275,4.6743-38.6927c4-11.0557,5.7792-21.6777,3.5298-33.3547
				C393.9453,196.0979,393.0927,196.3343,393.2,196.8913L393.2,196.8913z"/>
		</g>
	</g>
	<g>
		<g>
			<path class="st1" d="M387.9402,205.8007c-1.1492-0.9599-2.1272-2.0708-2.9223-3.3403c-0.3015-0.4813-1.067-0.0379-0.7637,0.4464
				c0.8333,1.3304,1.8554,2.5126,3.0606,3.5193C387.7487,206.7886,388.3777,206.1661,387.9402,205.8007L387.9402,205.8007z"/>
		</g>
	</g>
	<g>
		<g>
			<path class="st1" d="M384.6655,214.2492c-1.6423-0.7102-3.1816-1.6078-4.5925-2.71c-0.4434-0.3464-1.0737,0.2752-0.6254,0.6254
				c1.4737,1.1513,3.054,2.1055,4.7715,2.8483C384.7361,215.2365,385.1871,214.4747,384.6655,214.2492L384.6655,214.2492z"/>
		</g>
	</g>
	<g>
		<g>
			<path class="st1" d="M385.7258,225.856c-1.5429,0.0055-3.0371,0.2601-4.4923,0.7748c-0.5329,0.1885-0.3034,1.0434,0.2351,0.8529
				c1.3818-0.4888,2.791-0.738,4.2572-0.7432C386.2948,226.7384,386.2959,225.854,385.7258,225.856L385.7258,225.856z"/>
		</g>
	</g>
	<g>
		<g>
			<path class="st1" d="M403.4591,203.4521c-0.86,1.1663-2.0241,2.0599-3.3727,2.5896c-0.5238,0.2057-0.2957,1.0614,0.2351,0.8528
				c1.5849-0.6225,2.8908-1.6256,3.9012-2.996C404.5609,203.4399,403.7936,202.9983,403.4591,203.4521L403.4591,203.4521z"/>
		</g>
	</g>
	<g>
		<g>
			<path class="st1" d="M404.2766,211.8643c-1.0825,1.5737-3.037,2.2235-4.8535,1.6745c-0.546-0.165-0.7794,0.6883-0.2351,0.8529
				c2.211,0.6683,4.55-0.1876,5.8524-2.0809C405.3636,211.8405,404.5974,211.3978,404.2766,211.8643L404.2766,211.8643z"/>
		</g>
	</g>
	<g>
		<g>
			<path class="st1" d="M401.9862,223.6476c-1.3624-0.2035-2.5155-1.2618-2.6929-2.6579c-0.0708-0.557-0.9561-0.5641-0.8845,0
				c0.224,1.7633,1.555,3.2439,3.3423,3.5108C402.3079,224.5836,402.5481,223.7315,401.9862,223.6476L401.9862,223.6476z"/>
		</g>
	</g>
	<g>
		<g>
			<path class="st1" d="M380.3245,248.6086c-1.2689-0.854-2.5378-1.7081-3.8068-2.5621c-0.4735-0.3187-0.9167,0.4472-0.4464,0.7637
				c1.2689,0.854,2.5378,1.7081,3.8068,2.5621C380.3516,249.6909,380.7947,248.925,380.3245,248.6086L380.3245,248.6086z"/>
		</g>
	</g>
	<g>
		<g>
			<path class="st1" d="M377.2547,256.7005c-1.2511,0.7742-2.6082,1.2187-4.0783,1.3126c-0.5652,0.0361-0.5693,0.9208,0,0.8845
				c1.6213-0.1036,3.142-0.5778,4.5247-1.4334C378.1842,257.1653,377.7405,256.3999,377.2547,256.7005L377.2547,256.7005z"/>
		</g>
	</g>
	<g>
		<g>
			<path class="st1" d="M395.0395,244.819c-1.4462,0.4983-2.8924,0.9965-4.3386,1.4948c-0.535,0.1843-0.3051,1.039,0.2351,0.8529
				c1.4462-0.4982,2.8924-0.9965,4.3386-1.4948C395.8096,245.4875,395.5797,244.6329,395.0395,244.819L395.0395,244.819z"/>
		</g>
	</g>
	<g>
		<g>
			<path class="st1" d="M395.8026,253.033c-1.3498-0.4486-2.6997-0.8973-4.0495-1.3459c-0.5414-0.1799-0.7735,0.6739-0.2351,0.8528
				c1.3499,0.4486,2.6997,0.8973,4.0495,1.3459C396.1089,254.0658,396.341,253.2119,395.8026,253.033L395.8026,253.033z"/>
		</g>
	</g>
	<g>
		<g>
			<path class="st1" d="M390.3724,260.5182c0.8135,1.0995,1.7788,2.0349,2.9087,2.8063c0.4713,0.3218,0.9142-0.4443,0.4464-0.7637
				c-0.997-0.6808-1.873-1.5181-2.5914-2.489C390.8012,259.6192,390.0332,260.0598,390.3724,260.5182L390.3724,260.5182z"/>
		</g>
	</g>
</g>
<g>
	<g>
		<path class="st4" d="M357.7464,282.9251c9.4205-2.3301,20.5717-12.2271,17.937-23.017
			c-1.4289-5.8511-6.4598-10.7029-6.4054-16.7257c0.0608-6.7213,6.3777-11.7263,8.1434-18.2119
			c1.3796-5.0675-0.2245-10.5889-3.1666-14.9394c-2.9422-4.3504-7.1025-7.7159-11.3068-10.8634
			c0.4327,4.4848-2.2861,8.67-5.387,11.9388s-6.7536,6.1246-8.9871,10.0376c-2.9313,5.1357-2.941,11.8155-0.0244,16.9596
			c1.4084,2.4841,3.4803,4.7285,3.9007,7.553c0.7133,4.7915-3.4464,8.7021-6.3316,12.5935
			c-3.0338,4.0916-4.9301,9.2449-4.2084,14.2872s4.4632,9.783,9.4644,10.749C353.4799,283.693,355.6648,283.44,357.7464,282.9251z"
			/>
	</g>
	<g>
		<g>
			<path class="st1" d="M366.0655,208.1484c-0.6648,5.3295-2.5638,10.3846-3.4779,15.6687
				c-0.7928,4.5828-1.1414,9.2255-1.4204,13.8635c-0.6639,11.0376-0.9978,22.158-5.6477,32.3928
				c-0.2337,0.5143,0.5283,0.9644,0.7637,0.4464c4.2288-9.3078,5.0004-19.2983,5.571-29.3748
				c0.3394-5.9943,0.6274-12.0254,1.732-17.9395c0.9471-5.0707,2.7238-9.9267,3.3638-15.0572
				C367.0202,207.585,366.1352,207.5901,366.0655,208.1484L366.0655,208.1484z"/>
		</g>
	</g>
	<g>
		<g>
			<path class="st1" d="M359.5996,220.8199c-0.7295-1.4632-1.6437-2.8028-2.7291-4.0248c-0.3788-0.4264-1.0024,0.2009-0.6254,0.6254
				c1.0366,1.167,1.8947,2.4495,2.5908,3.8458C359.0899,221.7758,359.8531,221.3283,359.5996,220.8199L359.5996,220.8199z"/>
		</g>
	</g>
	<g>
		<g>
			<path class="st1" d="M357.2895,227.0193c-1.2647-1.2258-2.6469-2.308-4.1394-3.243c-0.4837-0.303-0.9282,0.4619-0.4464,0.7637
				c1.4301,0.8959,2.7488,1.9303,3.9604,3.1047C357.073,228.041,357.6992,227.4163,357.2895,227.0193L357.2895,227.0193z"/>
		</g>
	</g>
	<g>
		<g>
			<path class="st1" d="M356.7604,233.9237c-1.5514-0.1267-3.1028-0.2533-4.6542-0.38c-0.5673-0.0463-0.5643,0.8384,0,0.8844
				c1.5514,0.1267,3.1028,0.2534,4.6542,0.38C357.3277,234.8545,357.3246,233.9698,356.7604,233.9237L356.7604,233.9237z"/>
		</g>
	</g>
	<g>
		<g>
			<path class="st1" d="M370.7077,215.8965c-1.3373,0.7322-2.5704,1.6177-3.6973,2.6442c-0.4217,0.3841,0.2052,1.0082,0.6254,0.6254
				c1.0727-0.9771,2.246-1.8092,3.5182-2.5059C371.6534,216.3868,371.2076,215.6228,370.7077,215.8965L370.7077,215.8965z"/>
		</g>
	</g>
	<g>
		<g>
			<path class="st1" d="M368.8517,225.1445c1.3102-0.0983,2.6205-0.1967,3.9307-0.295c0.5641-0.0423,0.5687-0.9271,0-0.8845
				c-1.3102,0.0983-2.6205,0.1967-3.9307,0.295C368.2876,224.3024,368.283,225.1871,368.8517,225.1445L368.8517,225.1445z"/>
		</g>
	</g>
	<g>
		<g>
			<path class="st1" d="M365.1922,230.1103c1.3395,0.63,2.7526,0.7901,4.1971,0.4577c0.5545-0.1276,0.3198-0.9806-0.2351-0.8529
				c-1.1986,0.2758-2.4007,0.1558-3.5157-0.3685C365.1265,229.1058,364.6769,229.868,365.1922,230.1103L365.1922,230.1103z"/>
		</g>
	</g>
	<g>
		<g>
			<path class="st1" d="M354.054,258.3372c-0.1332-1.005-0.6489-1.8477-1.523-2.3777c-0.488-0.2959-0.933,0.4686-0.4464,0.7637
				c0.5815,0.3527,0.9944,0.9315,1.0849,1.614C353.2433,258.8932,354.1287,258.9005,354.054,258.3372L354.054,258.3372z"/>
		</g>
	</g>
	<g>
		<g>
			<path class="st1" d="M352.9515,263.3135c-0.8755-0.8474-1.8234-1.6093-2.8364-2.2863c-0.4746-0.3171-0.9179,0.4486-0.4464,0.7637
				c0.9514,0.6358,1.8352,1.3522,2.6574,2.1479C352.7353,264.3349,353.3614,263.7102,352.9515,263.3135L352.9515,263.3135z"/>
		</g>
	</g>
	<g>
		<g>
			<path class="st1" d="M367.739,251.1636c-0.6773,0.7124-1.4811,1.2723-2.3974,1.6333c-0.5235,0.2063-0.2955,1.0619,0.2351,0.8529
				c1.0618-0.4183,2-1.0323,2.7876-1.8608C368.7565,251.3766,368.1321,250.7501,367.739,251.1636L367.739,251.1636z"/>
		</g>
	</g>
	<g>
		<g>
			<path class="st1" d="M369.3083,256.8379c-1.0754,1.2503-2.4879,2.0096-4.1201,2.2316c-0.5614,0.0764-0.3224,0.9287,0.2351,0.8528
				c1.7664-0.2402,3.3485-1.1082,4.5103-2.459C370.3031,257.0338,369.6802,256.4055,369.3083,256.8379L369.3083,256.8379z"/>
		</g>
	</g>
</g>
<g>
	<g>
		<path class="st7" d="M122.6963,281.1162c5.1876,2.5151,12.3242,1.9915,17.6586,0.7596c1.645-0.3799,3.2982-0.8069,4.7927-1.5922
			c1.7489-0.9191,3.2105-2.291,4.6485-3.6458c4.0625-3.8276,6.3084-6.2328,6.4475-11.9696
			c0.1143-4.7158-1.7887-9.5043-5.5146-12.4955c-2.0411-1.6385-4.5502-2.7854-6.0815-4.9081
			c-3.5456-4.9148-0.1088-11.557,1.6902-17.3441c4.4423-14.2903-3.6629-31.3202-17.5549-36.8846
			c1.5255,4.5163-0.6997,9.489-3.7442,13.1571c-3.0446,3.6681-6.9327,6.6156-9.6487,10.5332
			c-5.3559,7.7254-5.088,18.9039,0.6317,26.3639c2.2898,2.9864,5.4954,5.7758,5.6224,9.5369
			c0.1467,4.3445-3.8666,7.5697-5.6328,11.5417c-2.5666,5.7722,0.352,13.2159,5.658,16.3932
			C122.0018,280.7612,122.3446,280.9457,122.6963,281.1162z"/>
	</g>
	<g>
		<g>
			<path class="st1" d="M132.717,208.3221c3.8604,10.5231-2.1705,20.7559-2.2768,31.3584
				c-0.1057,10.5498,9.3995,21.4054,3.1353,31.5609c-0.2997,0.4858,0.4651,0.9305,0.7637,0.4464
				c6.1677-9.999-2.4531-20.1702-2.9894-30.4093c-0.5903-11.2696,6.3166-22.0247,2.22-33.1915
				C133.3754,207.557,132.5203,207.786,132.717,208.3221L132.717,208.3221z"/>
		</g>
	</g>
	<g>
		<g>
			<path class="st1" d="M127.6498,221.8887c-1.0378-0.9996-1.8523-2.1727-2.3975-3.5085c-0.2122-0.5199-1.0682-0.2924-0.8529,0.2351
				c0.6045,1.4809,1.4716,2.7879,2.6249,3.8988C127.4344,222.9091,128.0607,222.2845,127.6498,221.8887L127.6498,221.8887z"/>
		</g>
	</g>
	<g>
		<g>
			<path class="st1" d="M124.214,227.7927c-1.0386,0.3376-2.1107,0.3185-3.1198-0.1176c-0.5171-0.2234-0.968,0.5383-0.4464,0.7637
				c1.2288,0.531,2.5217,0.6226,3.8013,0.2067C124.9881,228.4704,124.7575,227.616,124.214,227.7927L124.214,227.7927z"/>
		</g>
	</g>
	<g>
		<g>
			<path class="st1" d="M124.1851,237.0608c-0.9172,1.21-2.1877,2.0509-3.6451,2.4606c-0.5471,0.1538-0.3146,1.0074,0.2351,0.8529
				c1.6969-0.4771,3.1115-1.4658,4.1736-2.867C125.2926,237.0536,124.525,236.6125,124.1851,237.0608L124.1851,237.0608z"/>
		</g>
	</g>
	<g>
		<g>
			<path class="st1" d="M139.846,217.3056c-0.7133,1.0583-1.667,1.88-2.8044,2.4546c-0.5081,0.2567-0.0609,1.02,0.4464,0.7637
				c1.2735-0.6433,2.3253-1.5904,3.1217-2.7719C140.9287,217.2788,140.1628,216.8356,139.846,217.3056L139.846,217.3056z"/>
		</g>
	</g>
	<g>
		<g>
			<path class="st1" d="M141.2768,225.5145c-1.0798,0.8048-2.2972,1.2209-3.6472,1.2169c-0.5692-0.0017-0.57,0.8828,0,0.8844
				c1.4899,0.0044,2.8974-0.4461,4.0936-1.3376C142.1744,225.9419,141.7339,225.1738,141.2768,225.5145L141.2768,225.5145z"/>
		</g>
	</g>
	<g>
		<g>
			<path class="st1" d="M139.6833,234.8163c-1.2215-0.0213-2.2855-0.5348-3.085-1.4532c-0.3744-0.4301-0.9978,0.1977-0.6254,0.6254
				c0.9458,1.0864,2.2735,1.6873,3.7104,1.7122C140.2527,235.7106,140.2528,234.8262,139.6833,234.8163L139.6833,234.8163z"/>
		</g>
	</g>
	<g>
		<g>
			<path class="st1" d="M130.7048,257.6909c-1.8271-0.4717-3.488-1.293-4.9553-2.4815c-0.4385-0.3552-1.068,0.2669-0.6254,0.6254
				c1.5868,1.2854,3.3673,2.1982,5.3456,2.7089C131.0211,258.6861,131.2564,257.8333,130.7048,257.6909L130.7048,257.6909z"/>
		</g>
	</g>
	<g>
		<g>
			<path class="st1" d="M142.395,253.8204c-1.0806,0.7627-2.1611,1.5253-3.2417,2.288c-0.4614,0.3257-0.02,1.0929,0.4464,0.7637
				c1.0806-0.7627,2.1611-1.5253,3.2417-2.288C143.3028,254.2584,142.8615,253.4912,142.395,253.8204L142.395,253.8204z"/>
		</g>
	</g>
	<g>
		<g>
			<path class="st1" d="M143.4316,260.7948c-1.1685,0.5612-2.337,1.1223-3.5055,1.6834c-0.5129,0.2463-0.0648,1.0092,0.4464,0.7637
				c1.1685-0.5612,2.337-1.1223,3.5055-1.6834C144.3909,261.3122,143.9427,260.5493,143.4316,260.7948L143.4316,260.7948z"/>
		</g>
	</g>
</g>
</svg>
