<svg id="Layer_1" xmlns="http://www.w3.org/2000/svg" xmlns:xlink="http://www.w3.org/1999/xlink" viewBox="0 0 500 262">
  <style>
    .st4{fill:#a5cafa}.st5{fill:#faa76c}.st6{fill:#325ada}.st8{fill:#f09a82}.st9{fill:#6610ef}.st15{fill:#ff9c6e}.st16{fill:#9a6fee}.st17{fill:#fff}.st18{clip-path:url(#SVGID_2_)}.st19{fill:#1856c2}.st20{fill:#6536c9}.st21{fill:#71b1fc}.st22{fill:#325ad9}
  </style>
  <path class="st16" d="M-13-10h524v280H-13z"/>
  <path class="st17" d="M168.938 123.3359l-4.9971 17.9424h-5.2812l-5.1787-17.9424h4.4795l3.418 14.6279 3.21-14.6279h4.3495zM173.9478 120.9414c.457.4404.6865.9971.6865 1.6699s-.2295 1.2295-.6865 1.6699-1.04.6602-1.7471.6602c-.708 0-1.2861-.2197-1.7354-.6602-.4482-.4404-.6729-.9971-.6729-1.6699s.2246-1.2295.6729-1.6699c.4492-.4404 1.0273-.6602 1.7354-.6602.707 0 1.29.2198 1.7471.6602zm.3242 6.5889v13.748h-4.0908v-13.748h4.0908zM185.9995 127.5049c.7598.2764 1.4756.6982 2.1494 1.2686l-1.7607 2.4336c-.8633-.6562-1.7344-.9844-2.6152-.9844-.915 0-1.6055.3369-2.0713 1.0098-.4658.6738-.6992 1.7607-.6992 3.2627 0 1.4502.2334 2.4766.6992 3.0811s1.1396.9062 2.0195.9062c.4658 0 .8887-.0732 1.2686-.2207.3799-.1465.8369-.3838 1.3721-.7119l1.7871 2.5371c-1.3643 1.0879-2.9092 1.6318-4.6348 1.6318-1.3984 0-2.6064-.2979-3.625-.8936s-1.8037-1.4326-2.3555-2.5117c-.5527-1.0781-.8291-2.3428-.8291-3.793 0-1.4492.2764-2.7354.8291-3.8574.5518-1.1221 1.3369-1.9971 2.3555-2.6279 1.0186-.6299 2.2012-.9453 3.5479-.9453.9482-.0001 1.8026.1386 2.5624.415zM198.5044 140.6309c-.501.3457-1.083.6133-1.7471.8027-.665.1895-1.3252.2852-1.9805.2852-3.0039-.0176-4.5059-1.6738-4.5059-4.9717v-6.3691h-1.9414v-2.8477h1.9414v-2.9775l4.0908-.4658v3.4434h3.1592l-.4404 2.8477h-2.7188v6.3174c0 .6387.1035 1.0967.3105 1.373.208.2754.5352.4141.9844.4141.4658 0 .958-.1465 1.4756-.4404l1.3722 2.5887zM210.3101 129.0195c1.1914 1.2852 1.7871 3.085 1.7871 5.3975 0 1.4678-.2725 2.749-.8164 3.8447-.543 1.0967-1.3203 1.9463-2.3301 2.5508-1.0098.6035-2.2051.9062-3.585.9062-2.0889 0-3.7334-.6436-4.9326-1.9287-1.2002-1.2861-1.7998-3.0859-1.7998-5.3984 0-1.4668.2725-2.749.8164-3.8447.543-1.0957 1.3203-1.9463 2.3301-2.5508 1.0098-.6035 2.2041-.9062 3.5859-.9062 2.1055-.0001 3.7539.6435 4.9444 1.9296zm-6.8086 2.1231c-.415.6982-.6221 1.7822-.6221 3.249 0 1.502.2031 2.5977.6084 3.2881s1.0312 1.0352 1.8779 1.0352c.8281 0 1.4492-.3496 1.8633-1.0479.415-.6992.6221-1.7822.6221-3.25 0-1.501-.2031-2.5977-.6084-3.2881-.4062-.6895-1.0322-1.0352-1.877-1.0352-.8291.0001-1.4502.3497-1.8642 1.0489zM223.3589 127.3232l-.6465 3.9609c-.5186-.1201-.9326-.1807-1.2432-.1807-.8115 0-1.4287.2803-1.8516.8408-.4229.5615-.7549 1.4033-.9961 2.5244v6.8096h-4.0908v-13.748h3.5723l.3369 2.667c.3105-.9492.7812-1.6963 1.4111-2.2393.6299-.5439 1.3418-.8164 2.1357-.8164.5011.0001.9581.0616 1.3722.1817zM228.6792 120.9414c.457.4404.6865.9971.6865 1.6699s-.2295 1.2295-.6865 1.6699-1.04.6602-1.7471.6602c-.708 0-1.2861-.2197-1.7354-.6602-.4482-.4404-.6729-.9971-.6729-1.6699s.2246-1.2295.6729-1.6699c.4492-.4404 1.0273-.6602 1.7354-.6602.7071 0 1.2901.2198 1.7471.6602zm.3242 6.5889v13.748h-4.0908v-13.748h4.0908zM243.3589 138.4307c.1465.2412.3838.4229.7119.543l-.8545 2.667c-.8457-.0693-1.5361-.2549-2.0713-.5566s-.9492-.7803-1.2422-1.4365c-.8975 1.3809-2.2783 2.0713-4.1426 2.0713-1.3643 0-2.4512-.3975-3.2627-1.1914s-1.2168-1.8291-1.2168-3.1064c0-1.502.5527-2.6494 1.6572-3.4434s2.7012-1.1914 4.79-1.1914h1.3975v-.5957c0-.8105-.1719-1.3672-.5176-1.6699-.3457-.3018-.9492-.4531-1.8125-.4531-.4482 0-.9922.0654-1.6309.1943-.6387.1299-1.2939.3066-1.9678.5312l-.9316-2.6934a15.7422 15.7422 0 0 1 2.6533-.75c.9062-.1729 1.748-.2598 2.5244-.2598 1.9678 0 3.4092.4062 4.3242 1.2168.9141.8115 1.3721 2.0293 1.3721 3.6514v5.333c.0002.5175.0734.8974.2199 1.1396zm-4.2334-.958v-2.4336h-1.0098c-.9316 0-1.627.1641-2.084.4912-.457.3281-.6855.8379-.6855 1.5283 0 .5518.1426.9795.4268 1.2812.2852.3018.6777.4531 1.1777.4531.9326.0001 1.6572-.4404 2.1748-1.3202zM266.0522 123.3359l-4.9971 17.9424h-5.2812l-5.1787-17.9424h4.4795l3.418 14.6279 3.21-14.6279h4.3495zM278.3765 141.2783h-3.5469l-.1816-1.7344c-1.001 1.4492-2.3906 2.1748-4.168 2.1748-1.2598 0-2.2139-.3799-2.8613-1.1396-.6465-.7588-.9707-1.8203-.9707-3.1846v-9.8643h4.0908v9.3467c0 .6729.1074 1.1436.3232 1.4111s.5479.4014.9971.4014c.8633 0 1.6055-.5352 2.2266-1.6055v-9.5537h4.0908v13.7481zM282.4536 140.6953c-.665-.6816-.9971-1.6523-.9971-2.9121v-15.7158l4.0908-.4404v16.001c0 .5693.2334.8545.6992.8545.2412 0 .4658-.043.6729-.1299l.8027 2.8994c-.7422.3115-1.5703.4668-2.4854.4668-1.1913 0-2.119-.3418-2.7831-1.0235zM290.1431 140.6953c-.665-.6816-.9971-1.6523-.9971-2.9121v-15.7158l4.0908-.4404v16.001c0 .5693.2334.8545.6992.8545.2412 0 .4658-.043.6729-.1299l.8027 2.8994c-.7422.3115-1.5703.4668-2.4854.4668-1.1913 0-2.1191-.3418-2.7831-1.0235zM300.7319 120.9414c.457.4404.6865.9971.6865 1.6699s-.2295 1.2295-.6865 1.6699-1.04.6602-1.7471.6602c-.708 0-1.2861-.2197-1.7354-.6602-.4482-.4404-.6729-.9971-.6729-1.6699s.2246-1.2295.6729-1.6699c.4492-.4404 1.0273-.6602 1.7354-.6602.7071 0 1.2901.2198 1.7471.6602zm.3243 6.5889v13.748h-4.0908v-13.748h4.0908zM315.1665 129.0195c1.1914 1.2852 1.7871 3.085 1.7871 5.3975 0 1.4678-.2725 2.749-.8164 3.8447-.543 1.0967-1.3203 1.9463-2.3301 2.5508-1.0098.6035-2.2051.9062-3.585.9062-2.0889 0-3.7334-.6436-4.9326-1.9287-1.2002-1.2861-1.7998-3.0859-1.7998-5.3984 0-1.4668.2725-2.749.8164-3.8447.543-1.0957 1.3203-1.9463 2.3301-2.5508 1.0098-.6035 2.2041-.9062 3.5859-.9062 2.1055-.0001 3.754.6435 4.9444 1.9296zm-6.8086 2.1231c-.415.6982-.6221 1.7822-.6221 3.249 0 1.502.2031 2.5977.6084 3.2881s1.0312 1.0352 1.8779 1.0352c.8281 0 1.4492-.3496 1.8633-1.0479.415-.6992.6221-1.7822.6221-3.25 0-1.501-.2031-2.5977-.6084-3.2881-.4062-.6895-1.0322-1.0352-1.877-1.0352-.829.0001-1.4501.3497-1.8642 1.0489zM330.9858 141.2783h-3.5469l-.1816-1.7344c-1.001 1.4492-2.3906 2.1748-4.168 2.1748-1.2598 0-2.2139-.3799-2.8613-1.1396-.6465-.7588-.9707-1.8203-.9707-3.1846v-9.8643h4.0908v9.3467c0 .6729.1074 1.1436.3232 1.4111s.5479.4014.9971.4014c.8633 0 1.6055-.5352 2.2266-1.6055v-9.5537h4.0908v13.7481zM346.519 122.0674v19.2109h-3.624l-.207-1.6055c-.9668 1.3643-2.2705 2.0459-3.9102 2.0459-1.708 0-3.0078-.6562-3.8965-1.9678s-1.333-3.1074-1.333-5.3857c0-1.3975.2334-2.6494.6992-3.7539s1.126-1.9678 1.9805-2.5889 1.834-.9326 2.9385-.9326c1.3115 0 2.3994.4316 3.2627 1.2949v-6.7578l4.0898.4405zm-4.0898 15.0947v-5.9297c-.3281-.3965-.6602-.6895-.9971-.8799-.3369-.1895-.7207-.2852-1.1523-.2852-.7598 0-1.3633.3545-1.8125 1.0615-.4492.708-.6729 1.7959-.6729 3.2627 0 1.6055.1943 2.7275.582 3.3652.3887.6387.9453.958 1.6699.958.9493.0001 1.7433-.5174 2.3829-1.5526z"/>
  <g>
    <defs>
      <path id="SVGID_1_" d="M-11.1153-3H511v268.62H-11.1153z"/>
    </defs>
    <clipPath id="SVGID_2_">
      <use xlink:href="#SVGID_1_" overflow="visible"/>
    </clipPath>
    <g class="st18">
      <path class="st19" d="M168.1042 40.9843l-12.8685-11.6797c-2.6776-2.4303-5.3983-4.913-7.217-8.0384-3.0599-5.2583-3.3067-11.8903-6.831-16.8493-2.8734-4.0432-7.4992-6.3853-11.4453-9.3907-4.665-3.5528-8.4502-8.1101-12.1917-12.6251-1.8665-2.2523-3.7557-4.5406-4.954-7.209-1.0171-2.2648-1.5013-4.727-1.9476-7.1693a303.4955 303.4955 0 0 1-4.9375-55.8304c4.3029 21.4576 19.2565 39.2091 35.5124 53.8613 3.3606 3.029 6.8468 6.0254 9.2971 9.8287 1.9202 2.9805 3.1346 6.3534 4.2399 9.7222a193.7197 193.7197 0 0 1 6.7026 26.7126c.8754 4.9607 1.5592 9.9651 2.8298 14.8397 1.7386 6.67 4.5757 13.0524 8.3623 18.8121"/>
      <path class="st8" d="M172.8467 46.5564c1.8974-8.1756 1.0597-16.7204 1.9249-25.0686 1.0876-10.4932 4.8707-20.7538 4.2588-31.2854-.9044-15.5651-11.4534-29.2154-24.2504-38.1219-6.8858-4.7924-14.4697-8.498-21.4648-13.1295-11.1614-7.3901-20.7526-17.1397-27.9588-28.4207-2.3136 3.8422-1.0961 8.7535.2641 13.0274 4.432 13.9265 9.9499 27.9865 20.0419 38.5574 7.0784 7.4144 16.1885 12.8637 22.288 21.1023 6.7322 9.0931 9.0898 20.5884 11.5673 31.6279 2.4774 11.0395 5.5052 22.5142 13.1541 30.851"/>
      <path class="st20" d="M431.3123-33.9009c4.0518 14.0803 5.3512 29.7654-1.0265 42.9562-6.2108 12.8456-19.2464 22.5124-21.4511 36.6094-.6039-3.7969-3.9912-6.5123-5.4612-10.0648-1.1845-2.8626-1.051-6.0823-.769-9.1674 1.0113-11.0619 3.8313-22.2686 10.3984-31.2275 3.423-4.6697 7.7572-8.5889 11.4832-13.0206 3.726-4.4317 6.9275-9.6324 7.4063-15.4025"/>
      <path class="st4" d="M382.5777 25.3168c1.874-5.5475 3.1706-11.2721 4.8705-16.8753 3.2471-10.7028 8.1222-21.1723 15.9995-29.1121s19.1101-13.0649 30.212-11.7081c-3.3175 6.46-6.6447 12.9365-10.6799 18.9743-10.934 16.3602-26.6071 28.8689-42.0211 41.1005"/>
      <path class="st8" d="M475.8987-7.9466c-1.2465 5.3521-2.5029 10.735-4.6457 15.7953s-5.2389 9.8312-9.5968 13.179c-2.6827 2.0609-5.8061 3.5452-9.0983 4.3237-.56.1324-1.1558.2433-1.7024.0632-1.4597-.481-1.5536-2.4832-1.3668-4.0087l.9782-7.9892c-1.649 3.5452-3.6808 7.4425-7.4011 8.6455-2.8711.9284-6.0402-.0543-8.6285-1.6055-.4453-.2669-.9274-.6252-.9638-1.1431-.0262-.3739.1936-.7162.4104-1.0219 2.566-3.6186 6.0214-6.6017 9.9757-8.6122-3.9988 2.5446-9.9557 1.2088-12.485-2.7997-1.1085-1.7566-1.5403-4.15-.3847-5.876.616-.9201 1.597-1.5316 2.6018-1.9968 2.6647-1.2333 5.7163-1.6139 8.6023-1.0728l-9.0199-4.4722c-.2759-.1368-.5734-.2959-.692-.5801-.1148-.275-.0286-.589.0696-.8703 1.706-4.8871 6.6803-8.0791 11.7797-8.9684s10.3311.157 15.327 1.5119c5.4437 1.4763 10.8501 3.3548 15.5672 6.4471"/>
      <path class="st9" d="M446.0579 3.2126c5.6749-3.6415 11.6697-6.7736 18.0021-9.2273 3.1713-1.2022 6.439-2.2053 9.7897-2.8167 3.3419-.6261 6.7708-.9091 10.1702-.4789a.515.515 0 0 1 .4462.5755c-.028.2216-.1953.3927-.4015.4386-3.293.7255-6.5345 1.2142-9.7783 1.8125-3.2351.6131-6.4689 1.2868-9.6569 2.1893-6.3861 1.7559-12.5444 4.5451-18.0071 8.3508a.5078.5078 0 0 1-.7068-.1263.5078.5078 0 0 1 .1424-.7175z"/>
      <path class="st21" d="M440.9188 61.5096c-2.3518.36-4.6343-1.4461-5.4904-3.6659s-.5691-4.7167.0208-7.0216c.3141-1.2273.7346-2.4766 1.5991-3.4027 1.8101-1.939 5.1682-1.7757 7.2289-.1056s2.9599 4.4415 3.0144 7.0935c.0326 1.5864-.2079 3.2043-.9178 4.6234-.7099 1.4192-1.9244 2.6243-3.4327 3.1173M455.1669 50.802c-1.3519-.2546-2.6982-.6349-3.8845-1.3315-1.1863-.6965-2.2084-1.7357-2.688-3.0251-.4107-1.1045-.4048-2.3179-.3109-3.4925.1061-1.3277.3382-2.6994 1.1019-3.7906 1.1933-1.7051 3.5813-2.3643 5.57-1.7509 1.9888.6134 3.5276 2.3439 4.1726 4.3226.6451 1.9787.4636 4.1653-.2275 6.1284-.4466 1.2687-1.1507 2.5178-2.2985 3.219M479.182 26.4481c-1.7264.4107-3.5967-.3763-4.7725-1.7055-1.1758-1.3292-1.7268-3.1184-1.8619-4.8878-.135-1.7694.1129-3.5433.3603-5.3005.1508-1.0712.4124-2.3047 1.3786-2.7912.3649-.1837.7828-.2285 1.1909-.2455 2.0086-.084 4.0388.4466 5.7494 1.5027.593.3661 1.1567.8024 1.5598 1.3709.7441 1.0498.8551 2.4117.8675 3.6984a33.9458 33.9458 0 0 1-.2032 4.0511c-.1113 1.0093-.2766 2.0395-.7766 2.9234s-1.401 1.6032-2.4163 1.624M422.5764 50.3358c-1.7213-.5058-3.2448-1.7388-3.9722-3.3788-.7274-1.64-.5936-3.6661.4551-5.1217.4854-.6738 1.1396-1.2102 1.8358-1.663 2.8025-1.8228 6.6379-2.2839 9.4925-.5439.7672.4676 1.4559 1.0898 1.9004 1.8705.3351.5886.5237 1.253.6096 1.9249.3119 2.4384-.8067 5.0074-2.8043 6.4401-1.9976 1.4327-4.7896 1.6686-6.9992.5914M436.5498 36.8842c-2.0765-.2049-4.1144-1.062-5.5838-2.5435-1.4694-1.4815-2.3214-3.6055-2.1003-5.6804.2211-2.0749 1.5793-4.0337 3.5164-4.8095.9794-.3922 2.0586-.4835 3.1112-.4125 2.6224.177 5.2797 1.485 6.5324 3.7957 1.0232 1.8873.9834 4.277.0166 6.1938s-2.8018 3.3436-4.8631 3.9437M461.6784 13.0641c-1.8579-.2192-3.7506-.4478-5.4527-1.2244s-3.2137-2.2043-3.6056-4.0336c-.1588-.7415-.1287-1.51-.0612-2.2653.0701-.7848.1834-1.5792.5111-2.2957 1.0101-2.2086 3.7086-3.0595 6.1299-3.2481 2.529-.1969 5.3292.1735 7.075 2.0139 1.5503 1.6343 1.9104 4.2093 1.0971 6.31-.8133 2.1006-2.678 3.7049-4.8023 4.4544M451.9251 23.1653c-2.6135 1.0917-5.7501 1.1531-8.1888-.2873-2.4388-1.4405-3.9362-4.5283-3.1201-7.2405.1671-.5551.4246-1.0882.7986-1.531.5803-.687 1.4036-1.1189 2.2294-1.4749 2.5371-1.0936 5.5866-1.5884 7.9885-.2229 1.7554.9979 2.9223 2.9572 2.9635 4.976s-1.0446 4.0241-2.7578 5.0929M466.5315 39.1058c-2.2048-.2933-4.2712-1.5136-5.5927-3.3026-.3963-.5365-.7326-1.1337-.8593-1.7885-.0931-.4812-.0703-.9764-.0467-1.466.0885-1.8331.2318-3.801 1.385-5.2287.8725-1.0801 2.2195-1.6896 3.5832-1.9504.7802-.1492 1.6053-.1931 2.3535.0737.8468.3019 1.507.966 2.1166 1.6269.9903 1.0736 1.959 2.2479 2.3159 3.6642.264 1.0481.1717 2.1491.0691 3.225-.1222 1.2818-.2701 2.6061-.915 3.7206-.645 1.1145-1.9267 1.966-3.1873 1.7039"/>
      <path class="st15" d="M439.7433 44.1828c7.9791-8.9655 17.8156-15.7266 25.4652-25.0954 7.6873-9.415 14.8959-19.2032 20.3711-30.0921.8774-1.7449-1.7466-3.2874-2.6273-1.5357-5.6183 11.1735-13.0497 21.1989-20.9938 30.8154-7.3141 8.8538-16.7793 15.2309-24.3668 23.7563-1.298 1.4585.8465 3.6179 2.1516 2.1515z"/>
      <path class="st22" d="M491.3974-7.3198c-4.137.8191-8.1239 2.3903-11.7074 4.6139-2.8638 1.777-5.4566 3.956-7.9562 6.2167-2.7968 2.5294-5.5193 5.2058-7.5166 8.4044s-3.2328 6.9923-2.8094 10.7393c.0586.5183.1816 1.0889.6079 1.3895.342.2412.7924.2442 1.2108.2321a44.9263 44.9263 0 0 0 7.7859-.9096c-4.2088 2.1592-7.0229 6.7961-6.9955 11.5264.0036.6161.0549 1.2461.3035 1.8099.2736.6204.7695 1.1191 1.3156 1.5209 2.7948 2.0563 7.1736 1.4829 9.3448-1.2237-.5706 2.3239-.4305 4.8172.3967 7.0626.7147 1.94 2.0403 3.7733 3.9662 4.5251 2.6181 1.022 5.7447-.2946 7.4142-2.5554 1.6695-2.2608 2.0919-5.2351 1.8652-8.0364-.2267-2.8013-1.0394-5.5166-1.6186-8.2668a101.845 101.845 0 0 0 6.4084 5.5041c.8209.6478 1.8546 1.3195 2.8371.9616.596-.2172.9997-.7671 1.3292-1.3092 1.8021-2.964 2.4524-6.4663 3.0315-9.8864.5193-3.067 1.0089-6.1535 1.0337-9.2641.069-8.6293-3.6363-17.2228-9.9586-23.0964"/>
      <path class="st9" d="M478.3628 24.654c4.1676-5.1917 7.3683-11.1466 9.5536-17.3988 1.1168-3.1194 2.0084-6.3 2.8396-9.486.8171-3.1957 1.5248-6.3967 2.472-9.6328a.5148.5148 0 0 1 .6379-.3513c.2145.0621.3575.254.3707.4648.1986 3.4207-.3165 6.8225-1.168 10.1142-.8374 3.3016-2.0599 6.4936-3.4746 9.576-2.8778 6.1512-6.4095 11.9196-10.4277 17.3343a.5077.5077 0 0 1-.8154-.6048c.0035-.0049.0084-.0111.0119-.0156z"/>
      <path class="st4" d="M481.9016 58.1045c4.149-3.7051 7.7889-7.9664 10.9984-12.5002 3.2108-4.54 5.8616-9.454 8.0348-14.5319 2.1742-5.0818 3.9673-10.2792 5.5358-15.5289a96.3628 96.3628 0 0 1 1.126-3.9541c.3416-1.3268.7076-2.6489 1.1187-3.9663.3436-1.3308.7164-2.6604 1.1328-3.9903.3699-1.3375.7408-2.6811 1.244-4.0219l.0172-.0459c.1971-.5253.7828-.7913 1.3081-.5942.3777.1417.6211.4853.655.8618.1274 1.4426.1226 2.8826.1166 4.3286-.0844 1.4339-.2124 2.868-.3696 4.3009-.2124 1.4213-.4697 2.8379-.7517 4.2498-.34 1.397-.708 2.789-1.1049 4.1715-1.6429 5.5177-4.0022 10.8058-6.845 15.7775-2.8439 4.9754-6.0754 9.6838-9.5377 14.1837-3.4631 4.5057-7.2883 8.7016-11.3107 12.7091-.3898.3888-1.0209.388-1.4097-.0018-.3887-.3897-.3879-1.0208.0018-1.4096a1.0146 1.0146 0 0 1 .0401-.0378z"/>
      <path class="st9" d="M472.5324 73.3083c-1.8694 1.9723-5.6711 1.3961-6.8721-1.0417-.1938-.3934-.332-.8255-.6253-1.1515-.3323-.3693-.8175-.5524-1.2426-.8095-1.9145-1.158-2.3826-4.1343-.9161-5.8241.6444-.7425 1.6384-1.3863 1.6092-2.369-.0215-.7263-.6141-1.2825-1.0712-1.8474a6.0092 6.0092 0 0 1-1.2516-2.792c-.2161-1.3172.33-3.0157 1.6566-3.1639.5372-.06 1.1276.1519 1.5968-.1166.5332-.3052.5938-1.0358.8935-1.5722.486-.8699 1.6356-1.1834 2.6138-.9934s1.8268.7744 2.6437 1.345c1.1613-2.6344 4.2921-4.6186 6.9557-3.526.6413.2631 1.2094.6797 1.8441.958 1.1395.4996 2.4598.5398 3.5342 1.1673 1.6831.983 2.2808 3.4441 1.2361 5.0896 1.2812.553 2.5898 1.1787 3.4795 2.2538.8897 1.0751 1.2382 2.7228.4482 3.8732-.2023.2947-.4796.571-.5085.9273-.0258.3176.1548.6096.2631.9092.4467 1.2352-.3575 2.5822-1.3343 3.4603s-2.1759 1.5452-2.9087 2.6353c-.6601.982-.8651 2.199-1.4077 3.2505-.5426 1.0515-1.6866 1.9935-2.819 1.6503-.3378-.1024-.6844-.3144-1.0177-.1983-.3605.1255-.4902.5581-.7368.8495-.5818.6875-1.6711.4866-2.5331.2254-.8623-.2613-1.7455-.5331-2.46-1.0821s-1.2351-1.4435-1.0849-2.332"/>
      <path class="st4" d="M472.6461 64.9683c.6337 1.7655 2.8175 2.8409 4.5624 2.1525 1.7449-.6885 2.5838-3.1003 1.5458-4.6628-.3727-.5611-.92-.9789-1.4569-1.3857-.5693-.4314-1.1859-.8809-1.8993-.9169-.8452-.0426-1.6303.5338-2.0533 1.2668-.4231.733-.5449 1.5989-.5995 2.4435"/>
      <path class="st9" d="M243.615 31.3839c1.8643-5.2409 3.0149-10.7258 3.6572-16.2433.6406-5.5237.6102-11.1068.0822-16.605-.5289-5.5019-1.4478-10.9227-2.5887-16.2816a96.3213 96.3213 0 0 1-.9081-4.0098c-.3364-1.3281-.6492-2.6638-.9203-4.0169-.3366-1.3326-.647-2.6781-.9194-4.0448-.3168-1.3511-.6355-2.708-.8369-4.1259l-.0069-.0485c-.0789-.5555.3074-1.0698.863-1.1487.3993-.0567.7777.128.988.4422.8035 1.2049 1.4898 2.4708 2.178 3.7425.6136 1.2987 1.1888 2.6186 1.738 3.9514.4951 1.3491.9486 2.7156 1.3782 4.0898a105.8612 105.8612 0 0 1 1.0309 4.1904c1.2042 5.6297 1.6697 11.4015 1.5591 17.1276-.1097 5.7298-.6877 11.4111-1.5681 17.0202-.8783 5.6146-2.223 11.1309-3.831 16.5764-.1556.528-.7098.83-1.2379.6744-.528-.1556-.83-.7098-.6744-1.2378a1.1561 1.1561 0 0 1 .0171-.0526z"/>
      <path class="st9" d="M242.6841 49.2185c-.6947 2.6272-4.3071 3.9446-6.53 2.3813-.3587-.2523-.6872-.5652-1.1009-.7106-.4687-.1647-.9823-.0927-1.4785-.1145-2.2353-.0981-4.0733-2.4854-3.5967-4.6715.2094-.9606.773-2.0022.2761-2.8505-.3672-.627-1.1539-.831-1.8259-1.1075a6.009 6.009 0 0 1-2.4371-1.8498c-.8212-1.0523-1.1565-2.8046-.0635-3.5708.4426-.3103 1.0623-.4075 1.3453-.868.3216-.5235.0244-1.1937.0301-1.8081.0093-.9964.8678-1.8228 1.8173-2.1251.9495-.3023 1.9744-.1964 2.9649-.0875-.2442-2.8686 1.5517-6.1111 4.4129-6.4296.6889-.0767 1.3871.0165 2.0777-.0436 1.2395-.108 2.4174-.7058 3.6611-.6704 1.9483.0555 3.653 1.9286 3.5253 3.8735 1.3895-.1291 2.8379-.2075 4.1341.3092 1.2963.5167 2.3922 1.7956 2.2506 3.1839-.0363.3556-.1471.7311-.0016 1.0576.1297.291.4281.4607.6669.6716.9843.8697.9245 2.4374.4885 3.6764-.4361 1.239-1.1685 2.3994-1.2887 3.7074-.1083 1.1783.2953 2.3445.3234 3.5275.0281 1.1829-.524 2.5581-1.6824 2.7999-.3455.0721-.7513.0523-.9881.314-.2562.283-.1626.7248-.2392 1.0988-.1809.8823-1.2331 1.2284-2.1148 1.4125-.882.1842-1.7874.3692-2.6776.23-.8902-.1392-1.776-.6745-2.0703-1.5261"/>
      <path class="st4" d="M238.7845 41.8454c1.4028 1.2454 3.8347 1.1419 5.0358-.299 1.2011-1.4409.7807-3.9596-.8795-4.833-.5961-.3136-1.2768-.4178-1.943-.5173-.7065-.1056-1.4631-.2043-2.1064.1062-.7621.3679-1.1746 1.2502-1.1944 2.0962-.0198.8461.2886 1.6644.6457 2.4317"/>
      <path class="st6" d="M373.7425 27.5687c-.6128-14.3426 7.4795-26.2008 15.4092-37.4131 1.3037-1.8433-1.7311-3.5944-3.0234-1.7672C377.827.126 369.6011 12.5898 370.241 27.5687c.0959 2.2448 3.5979 2.2568 3.5015 0z"/>
      <path class="st6" d="M372.5211.3754a128.7227 128.7227 0 0 1 15.8915-9.859c1.9966-1.0463.2287-4.0694-1.7672-3.0234a128.7301 128.7301 0 0 0-15.8915 9.859c-1.8061 1.311-.0606 4.3502 1.7672 3.0234z"/>
      <path class="st8" d="M371.6398 29.3834c-1.8004 3.4397-4.8024 6.1311-8.1164 8.1535-1.5975.9749-3.3378 1.8282-5.2052 1.9506-1.8675.1224-3.8885-.6264-4.8413-2.2372-1.219-2.061-.289-4.8592 1.4934-6.4582 1.7824-1.599 4.1938-2.2671 6.5289-2.7974 3.5603-.8085 7.3024-1.4089 10.833-.4792"/>
      <path class="st8" d="M372.746 27.8583c2.8661 5.0618 4.082 11.0409 3.4206 16.8201-.308 2.6912-1.0872 5.4697-3.0053 7.3823-1.9182 1.9125-5.2217 2.6253-7.38.9885-1.1844-.8982-1.8557-2.3453-2.1082-3.8102-.4753-2.7571.3837-5.5607 1.3949-8.1694a67.085 67.085 0 0 1 6.3816-12.4321M373.9671 15.5598c.0122 5.1459 1.9708 10.264 5.3972 14.1033 1.0757 1.2053 2.3157 2.3046 3.7955 2.9528 1.4798.6482 3.2295.8026 4.7052.1454 2.6883-1.1973 3.6478-4.775 2.7444-7.5757s-3.1893-4.9248-5.565-6.6616a42.2382 42.2382 0 0 0-9.3481-5.1603M378.0308 6.1587c2.8964 4.488 7.2018 8.052 12.1519 10.0592.7213.2925 1.48.5566 2.2574.5169 1.3794-.0705 2.5143-1.0611 3.5287-1.9986.572-.5287 1.1602-1.0798 1.4649-1.7967.4251-1.0001.2174-2.1862-.3255-3.1276-.5429-.9413-1.3841-1.6732-2.2607-2.3154-4.3608-3.1944-10.0327-4.5386-15.3633-3.6411M372.2617.9785c-.5603 3.2952-1.9749 6.5281-4.4348 8.791-2.46 2.263-6.0512 3.4175-9.2647 2.4978-.4919-.1408-.9876-.3379-1.342-.707-.449-.4675-.6051-1.1364-.7285-1.7728-.1852-.9545-.3377-1.9378-.1657-2.8948.2623-1.4597 1.2643-2.7026 2.4661-3.5716s2.6014-1.415 3.9839-1.9519l5.5551-2.1573c1.1419-.4434 2.3737-.8941 3.5638-.6037"/>
      <path class="st8" d="M370.6445-.0846c-4.8625 1.8696-10.3378 2.1034-15.342.6551-1.036-.2998-2.1255-.7254-2.7115-1.6309-.5455-.8429-.5356-1.9213-.441-2.921.1071-1.1325.3121-2.2926.9261-3.2504.7915-1.2348 2.196-1.9899 3.6418-2.2375 1.4457-.2476 2.9346-.0355 4.3539.3347 4.5827 1.1952 8.7011 4.0909 11.3763 7.999"/>
      <path class="st16" d="M368.829 48.9215c1.8404.2874 3.4981-.4821 4.1992-2.2691.5297-1.3501.7149-3.5442-.2955-4.708-1.2518-1.4418-3.4022-1.2492-4.6782.0604-.6198.6361-1.0459 1.4582-1.169 2.3375-.0656.4691-.055.9354.0709 1.3962.0526.1924.1303.5198.2653.6693.209.2316-.1563.2583.0291-.224l.4503-.7725-.1247.1322c-1.5456 1.6385.9258 4.1192 2.4759 2.4759.618-.6551.8602-1.5056.6234-2.3868a11.596 11.596 0 0 0-.2668-.6518c-.1198-.2615-.1447-.3027-.0747-.1239.0362-.1519.2656-.3657.2822-.465-.0327.1966-.6623-.4989-.7016-.446-.1176.1583-.006.8127-.0384 1.0255-.0259.1701-.0649.4076-.1618.5466-.095.1362.034.0254.0454.0271-.9331-.1457-1.883.2381-2.1536 1.2228-.2285.8309.2829 2.0068 1.2226 2.1536zM359.1808 35.8574c1.4557.5621 3.1688.3613 4.5127-.4104 1.4001-.804 2.6649-2.4763 2.2643-4.1732-.9507-4.0267-6.9798-1.2239-7.3973 1.7815-.1299.9353.2272 1.8801 1.2227 2.1536.8184.2249 2.0227-.2802 2.1536-1.2228.0666-.4794.2074-.6518.6475-.9033.1706-.0975.5685-.1597.6899-.2727.2958-.2753-.5347-.9771-.7959-.8741-.0307.0121-.3107.3329-.3525.3644-.1966.1484-.413.242-.6473.3074-.4916.1372-.8913.0568-1.3669-.1268-.8823-.3407-1.9209.3758-2.1536 1.2228-.2716.9888.3374 1.8116 1.2228 2.1536zM363.8427 9.2719c1.5349-.244 2.8948-1.5722 2.7998-3.1875-.1174-1.9955-2.3018-3.2935-4.0468-2.1739-1.3806.8858-2.6182 2.455-2.174 4.1914.5104 1.9953 2.8412 2.6616 4.363 1.3425.7148-.6196.6351-1.8408 0-2.4759-.709-.709-1.7592-.6212-2.4759 0 .4166-.3611 1.3785-.4606 1.5066.2908.0203.1188-.0369.1901-.0366.2831.1145-.1757.1267-.2066.0367-.0929a3.5874 3.5874 0 0 1 .255-.2624c.0811-.077.3985-.3474.3949-.3321-.0939.3995-1.5862-.0792-1.2659-.8617.0889-.2172.3313-.226.0677-.166.3414-.0778-.2934.0583-.3554.0681-.9345.1486-1.4533 1.3146-1.2227 2.1536.2735.9955 1.2162 1.3719 2.1536 1.2229zM384.823 27.4872c2.984-1.9621.6248-7.2309-2.6826-7.1083-1.8255.0677-3.0689 1.7193-2.69 3.4945.3331 1.5603 1.6876 2.8423 3.0457 3.5677 1.987 1.0614 3.7577-1.9601 1.7672-3.0234-.4352-.2325-.8615-.5034-1.1682-.9004-.0116-.015-.2381-.3564-.2203-.365-.1465.0708-.1167.593-.4417.6899-.0075.0022-.4051.0447-.3362-.0419.027-.0339.2738.3319.258.3082.1251.1877.2207.401.3134.6055.2131.4706-.1512.1039.3875-.2502-.7892.5189-1.1233 1.5487-.6281 2.3953.4587.7844 1.6018 1.1498 2.3953.6281zM388.279 12.9391c1.6914.6926 3.8903-.5213 4.3578-2.2395.5431-1.9958-1.3143-3.7968-3.1461-4.1286-1.6715-.3027-4.1209.2449-4.5312 2.1714-.3968 1.8633 1.6831 3.4399 3.1621 4.1124.8601.3911 1.884.2462 2.3953-.6281.4396-.7516.2368-2.0021-.6281-2.3953-.389-.1769-1.455-.6608-1.5529-1.089v.9308c-.0993.575-.4535.2423.0617.2997.2418.0269.4574.0887.6879.127-.0603-.01.2142.1287.1779.1385-.0604.0162.1476-.6151.14-.6571-.0353-.1945.1323.0373-.1284.0389-.0278.0002.4937.1714-.0652-.0574-.8754-.3585-1.9244.3888-2.1536 1.2228-.2757 1.0036.3442 1.7937 1.2228 2.1535z"/>
      <g>
        <path class="st20" d="M66.1588-34.4183C62.107-20.338 60.8076-4.6529 67.1852 8.5378c6.2108 12.8456 19.2464 22.5124 21.4511 36.6094.6039-3.7969 3.9912-6.5123 5.4612-10.0648 1.1845-2.8626 1.051-6.0823.769-9.1674C93.8552 14.8532 91.0351 3.6464 84.468-5.3124c-3.423-4.6697-7.7572-8.5889-11.4832-13.0206-3.726-4.4317-6.9275-9.6324-7.4063-15.4025"/>
      </g>
      <g>
        <path class="st4" d="M114.8934 24.7994c-1.874-5.5475-3.1706-11.2721-4.8705-16.8753-3.2471-10.7028-8.1221-21.1723-15.9994-29.1121s-19.1101-13.0649-30.212-11.7081c3.3175 6.46 6.6447 12.9365 10.6799 18.9743 10.9339 16.3602 26.6071 28.8689 42.0211 41.1005"/>
      </g>
      <g>
        <path class="st6" d="M127.2301 27.0513c.6398-14.9752-7.5873-27.4445-15.8873-39.1804-1.2908-1.8252-4.3284-.078-3.0234 1.7672 7.9317 11.2151 16.0222 23.0655 15.4092 37.4131-.0962 2.2532 3.4054 2.2486 3.5015.0001z"/>
        <path class="st6" d="M126.7172-3.1653a128.7227 128.7227 0 0 0-15.8915-9.859c-1.994-1.0449-3.766 1.9759-1.7672 3.0234A128.7227 128.7227 0 0 1 124.95-.1419c1.826 1.3254 3.5753-1.711 1.7672-3.0234z"/>
        <path class="st8" d="M125.8313 28.866c1.8003 3.4397 4.8024 6.1311 8.1164 8.1535 1.5975.9749 3.3378 1.8282 5.2052 1.9506 1.8675.1224 3.8885-.6264 4.8413-2.2372 1.219-2.061.289-4.8592-1.4934-6.4582-1.7824-1.599-4.1938-2.2671-6.5289-2.7974-3.5603-.8085-7.3024-1.4089-10.833-.4792"/>
        <path class="st8" d="M124.7251 27.3409c-2.8661 5.0618-4.0821 11.0409-3.4206 16.8201.308 2.6912 1.0871 5.4697 3.0053 7.3823 1.9182 1.9125 5.2217 2.6253 7.38.9885 1.1844-.8982 1.8556-2.3453 2.1081-3.8102.4753-2.7571-.3837-5.5607-1.3949-8.1694a67.091 67.091 0 0 0-6.3816-12.4321M123.504 15.0424c-.0122 5.1459-1.9708 10.264-5.3972 14.1033-1.0757 1.2053-2.3157 2.3046-3.7955 2.9528-1.4797.6482-3.2294.8026-4.7052.1454-2.6883-1.1973-3.6478-4.775-2.7443-7.5757s3.1893-4.9248 5.565-6.6616a42.2382 42.2382 0 0 1 9.3481-5.1603M119.4403 5.6413c-2.8964 4.488-7.2018 8.052-12.1518 10.0592-.7213.2925-1.48.5566-2.2574.5169-1.3794-.0705-2.5144-1.0611-3.5287-1.9986-.572-.5287-1.1602-1.0798-1.4649-1.7967-.4251-1.0001-.2174-2.1862.3255-3.1276.5429-.9413 1.3841-1.6732 2.2607-2.3154 4.3608-3.1944 10.0327-4.5386 15.3633-3.6411M125.2094.4611c.5603 3.2952 1.9749 6.5281 4.4348 8.791 2.4599 2.263 6.0512 3.4175 9.2647 2.4978.4919-.1408.9876-.3379 1.3421-.707.449-.4675.605-1.1364.7285-1.7728.1852-.9545.3376-1.9378.1657-2.8948-.2623-1.4597-1.2643-2.7026-2.4661-3.5716s-2.6014-1.415-3.9839-1.9519L129.14-1.3055c-1.1419-.4434-2.3737-.8941-3.5638-.6037"/>
        <path class="st8" d="M126.8266-.6019c4.8625 1.8696 10.3378 2.1034 15.342.6551 1.036-.2998 2.1255-.7254 2.7115-1.6309.5455-.8429.5356-1.9213.441-2.921-.1071-1.1325-.3121-2.2926-.926-3.2504-.7915-1.2348-2.1961-1.9899-3.6418-2.2375-1.4457-.2476-2.9346-.0355-4.3539.3347-4.5827 1.1952-8.7011 4.0909-11.3763 7.999"/>
        <path class="st16" d="M127.7113 45.0278c.0883-.0138.0469.0656.0454-.0271-.0018-.1134-.141-.4097-.1618-.5466-.0324-.2128.0792-.8672-.0384-1.0255-.0393-.0529-.6689.6426-.7016.446.0165.0993.2459.3131.2822.465.07-.1789.0451-.1376-.0747.1239a11.5517 11.5517 0 0 0-.2668.6518c-.2368.8811.0054 1.7316.6234 2.3868 1.5495 1.6426 4.0222-.8367 2.4759-2.4759l-.1247-.1322.4502.7725c.045.1172-.1351.3572-.0225.3387.0701-.0116.2621-.592.2798-.6475.1326-.4163.1719-.8665.1393-1.2999-.0693-.922-.4926-1.8027-1.1144-2.4814-1.2632-1.3789-3.4773-1.6314-4.7641-.1492-.9843 1.1338-.8315 3.264-.3414 4.5944.6805 1.8471 2.3487 2.6788 4.2451 2.3826.935-.146 1.4529-1.3164 1.2228-2.1536-.2742-.9974-1.216-1.3693-2.1537-1.2228zM137.3595 31.9636c-.4757.1837-.8754.2641-1.3669.1268-.2343-.0654-.4507-.159-.6473-.3074-.0418-.0316-.3218-.3523-.3525-.3644-.2612-.1029-1.0917.5988-.7959.8741.1214.113.5193.1753.6899.2727.44.2514.5809.4239.6475.9033.1302.9374 1.3274 1.4498 2.1536 1.2228 1.0095-.2774 1.3534-1.2132 1.2228-2.1536-.4174-3.0051-6.4497-5.8076-7.3973-1.7815-.3931 1.6702.8154 3.2783 2.1645 4.1116 1.3469.8319 3.1302 1.0443 4.6125.472.8815-.3404 1.4912-1.1768 1.2228-2.1536-.2317-.8425-1.2669-1.5652-2.1537-1.2228zM134.5593 5.3782c-.0621-.0099-.6968-.1459-.3554-.0681-.2775-.0632-.0475-.0612.0457.1002.4728.8192-1.1548 1.3066-1.2439.9275-.0036-.0153.3138.2551.3949.3321.0895.0831.1745.1706.255.2624-.0704-.0906-.0734-.0858-.009.0142.0603.1036.061.105.0022.0042a.3736.3736 0 0 1 .007-.2085c.1195-.7565 1.0977-.6453 1.5066-.2908-.7141-.619-1.7738-.7021-2.4759 0-.6327.6327-.7175 1.8539 0 2.4759 1.4754 1.2789 3.8041.6992 4.3457-1.2543.4848-1.749-.7355-3.3962-2.1566-4.2797-1.6789-1.0437-3.7402.0319-4.0155 1.9412-.2454 1.7024 1.1403 3.1613 2.7686 3.4202.9327.1483 1.8835-.2398 2.1536-1.2228.2286-.8331-.2837-2.0044-1.223-2.1537zM114.4154 23.9464c.5386.3541.1743.7209.3874.2502.0925-.2043.1878-.4185.3134-.6055-.0077.0114.2189-.3581.258-.3082.0687.0877-.3287.0442-.3362.0419-.3329-.0992-.287-.6099-.4417-.6899.0232.012-.194.3311-.2204.365-.3085.3967-.7319.6674-1.1682.9004-1.9883 1.0621-.2217 4.0858 1.7672 3.0234 1.3223-.7063 2.663-1.9526 3.0217-3.4628.4278-1.8012-.7793-3.5349-2.666-3.5994-3.3041-.1128-5.6723 5.1424-2.6826 7.1082.7903.5196 1.9359.1574 2.3953-.6281.4998-.854.1643-1.8743-.6279-2.3952zM108.2613 9.0454c-.1982.0812-.2981.0818-.0382.0679-.0414.0022-.2402-.1178-.2405-.1351l.1703.1715.0328.6033c-.0106-.0021.191-.1691.2-.1704.1899-.0294.3509-.1324.5619-.1281-.0686-.0014.3568.0227.2802.04.332-.0746.0724.6159-.0924-.3386v-.9308c-.0984.4299-1.1613.911-1.553 1.089-.8608.3914-1.0706 1.6387-.6281 2.3953.5175.8847 1.5313 1.0209 2.3953.6281 1.4607-.6642 3.3336-2.0951 3.1933-3.8797-.1639-2.0844-2.868-2.7261-4.5625-2.4041-1.7975.3415-3.6051 2.0316-3.1723 4.0058.3918 1.7874 2.6549 3.0704 4.384 2.3623.8744-.3581 1.4948-1.1637 1.2228-2.1536-.2275-.8279-1.2733-1.5833-2.1536-1.2228z"/>
      </g>
      <g>
        <path class="st4" d="M349.4933 38.3495c4.4634-10.3337 7.9051-21.1605 9.4789-32.3064 1.043-7.3868 1.261-14.8622 1.4775-22.3191.1859-6.4042.3713-12.827-.2143-19.2071-1.2621-13.7501-6.0901-26.9824-12.4817-39.2219-6.3915-12.2395-14.3391-23.5876-22.2622-34.896-.7833.6116-.7891 1.7779-.6758 2.7652 1.325 11.5506 8.8941 21.2941 13.2538 32.0721 4.2527 10.5131 5.4247 22.2511 3.3348 33.3975-1.5516 8.2755-4.8268 16.1098-7.4302 24.1168-2.6035 8.0071-4.5591 16.4755-3.3464 24.8074 1.7414 11.9642 9.8322 22.1429 19.2211 29.7602"/>
      </g>
      <g>
        <path class="st5" d="M341.0629-75.7922c2.3532 15.1383 2.7413 30.5809 1.1512 45.8182-.3997 3.8307-.943 7.7163-2.5627 11.2106-1.184 2.5543-2.9048 4.8148-4.4041 7.1977-1.8372 2.92-3.3548 6.0535-4.3509 9.3565-2.3875 7.9172-1.6929 16.377-1.7647 24.646s-1.1361 17.0496-6.3023 23.5065c.255-5.5802.5058-11.2229-.5558-16.7072-.919-4.7477-2.7971-9.2465-4.2638-13.8545-4.5851-14.405-5.0983-30.082-1.4651-44.756.8422-3.4013 1.9043-6.7555 3.3301-9.9563 1.3674-3.0697 3.061-5.9812 4.751-8.8858l6.6748-11.4717c3.1643-5.4385 6.3339-10.885 9.9616-16.026"/>
      </g>
      <g>
        <path class="st22" d="M185.5344-23.0007c3.7522 1.9253 7.1533 4.5324 9.987 7.6558 2.2646 2.4961 4.1581 5.3041 5.9397 8.1651 1.9933 3.201 3.8747 6.523 4.9153 10.1475 1.0406 3.6245 1.1851 7.6117-.2525 11.0978-.1989.4822-.4741.997-.9666 1.1688-.3952.1378-.829.0169-1.2279-.1098a44.9252 44.9252 0 0 1-7.2354-3.0158c3.4526 3.2335 4.883 8.4655 3.5556 13.0058-.1729.5914-.3955 1.183-.7896 1.6566-.4337.5212-1.0476.8643-1.6832 1.1004-3.2526 1.2083-7.3048-.5472-8.6479-3.7465-.0906 2.3912-.911 4.7499-2.3238 6.6812-1.2207 1.6686-2.9994 3.0667-5.0578 3.2598-2.7982.2625-5.4422-1.8631-6.4255-4.496-.9834-2.6328-.5715-5.6086.4169-8.2395.9884-2.6309 2.5165-5.018 3.8297-7.5028a101.8078 101.8078 0 0 1-7.675 3.5294c-.9674.3971-2.146.7586-2.9922.1442-.5133-.3727-.7502-1.0125-.9179-1.6243-.9174-3.3453-.5794-6.8914-.1956-10.3389.3442-3.0916.7224-6.1937 1.554-9.1911 2.3069-8.3156 8.2327-15.5585 15.9266-19.4669"/>
        <path class="st9" d="M188.3296 11.7003c-2.3742-6.3109-4.1832-12.8282-5.2583-19.5337-.5124-3.3526-.8099-6.7578-.707-10.1623.0866-3.399.527-6.8112 1.6586-10.0454a.515.515 0 0 1 .6561-.316c.2108.0738.3432.2731.3449.4843.0207 3.3719-.1793 6.6441-.2726 9.9413-.077 3.2918-.0945 6.5949.1213 9.9012.3815 6.6121 1.821 13.2176 4.4001 19.3554a.5077.5077 0 1 1-.9361.3933l-.007-.0181z"/>
      </g>
      <g>
        <path class="st8" d="M300.9216-19.7949c-5.0358 2.1998-10.1002 4.415-14.686 7.443-4.5858 3.028-8.7135 6.9408-11.2122 11.8352-1.5382 3.013-2.4293 6.3544-2.5956 9.7332-.0283.5748-.0289 1.1808.2477 1.6855.7387 1.3478 2.7245 1.0757 4.1905.6143l7.6777-2.416c-3.1858 2.2667-6.6483 4.974-7.1541 8.851-.3904 2.9922 1.1528 5.9295 3.1492 8.1921.3435.3893.7835.7981 1.2994.7396.3724-.0422.6689-.3207.9301-.5895 3.0912-3.1818 5.3955-7.1224 6.6527-11.3766-1.7742 4.3951.6235 10.0094 5.0253 11.767 1.929.7702 4.361.7592 5.8479-.6912.7926-.7732 1.2154-1.8491 1.4898-2.9218.7278-2.8446.5465-5.9146-.5108-8.6538l6.0392 8.0553c.1847.2464.3953.51.6963.5749.2913.0628.5843-.0791.843-.2269 4.495-2.567 6.7283-8.0392 6.6746-13.2153-.0537-5.1761-2.0348-10.1299-4.2763-14.7958-2.4425-5.0841-5.2736-10.0583-9.1727-14.1338"/>
        <path class="st9" d="M294.4476 11.1773c2.7479-6.0641 4.3696-12.6272 4.9338-19.2263.3071-3.299.3811-6.6014.3951-9.894-.0021-3.2985-.1116-6.575.0024-9.945a.515.515 0 0 1 .5308-.4987c.2233.0069.4094.1573.4746.3582 1.0417 3.2643 1.3875 6.6874 1.38 10.0874.0088 3.4061-.3828 6.8017-.9878 10.1389-1.2601 6.6732-3.2488 13.1379-5.7966 19.3808a.5077.5077 0 1 1-.9323-.4013z"/>
      </g>
      <g>
        <path class="st21" d="M204.963 27.5852c1.4094 1.9167 4.3007 2.2521 6.4752 1.2866 2.1744-.9655 3.736-2.9348 4.9476-4.9823.6452-1.0903 1.2306-2.2713 1.2734-3.5375.0897-2.651-2.4014-4.9088-5.0397-5.1836s-5.233 1.0505-7.1458 2.8883c-1.1443 1.0993-2.1174 2.414-2.6182 3.9197-.5007 1.5057-.4932 3.2167.2255 4.6314M202.45 9.9401c1.1364.7753 2.3576 1.4577 3.6892 1.8033 1.3316.3456 2.7891.3328 4.0396-.2406 1.0711-.4911 1.9245-1.3538 2.6882-2.2512.8632-1.0143 1.6684-2.1488 1.8993-3.4605.3608-2.0497-.8628-4.2037-2.7033-5.1753-1.8405-.9715-4.1522-.8348-6.0069.1093s-3.2718 2.6193-4.1702 4.4966c-.5806 1.2132-.9653 2.5946-.6488 3.9018M225.8368 32.6429c1.5752.8586 3.5245 1.063 5.1981.4168s3.0109-2.1742 3.2977-3.9452c.1328-.8198.049-1.6617-.1235-2.474-.6945-3.2702-3.0821-6.307-6.3314-7.0934-.8732-.2113-1.8002-.2579-2.6665-.0197-.6531.1796-1.256.5164-1.7917.931-1.9439 1.5047-2.9681 4.1128-2.5674 6.5382s2.2093 4.5655 4.5339 5.365M225.4574 13.2508c1.6139 1.3226 3.6614 2.1564 5.748 2.1468 2.0866-.0097 4.1905-.9103 5.5005-2.5345 1.31-1.6242 1.7334-3.9699.9112-5.8877-.4157-.9697-1.1147-1.797-1.9097-2.4906-1.9805-1.7281-4.7848-2.6806-7.3041-1.9312-2.0577.6121-3.7184 2.3309-4.3891 4.3703s-.3808 4.3457.6535 6.227"/>
        <path class="st15" d="M221.0827 16.1567c.6435-11.6835-1.5121-23.1531-.3687-34.8769 1.183-12.1301 3.0128-24.1677 6.8389-35.7709.6146-1.8639-2.3227-2.6629-2.9341-.8089-3.7171 11.2725-5.547 22.9656-6.7627 34.7429-.5784 5.603-.9878 11.1623-.6748 16.7958.3701 6.6596 1.2267 13.2358.8586 19.918-.1078 1.9565 2.9353 1.9505 3.0428 0z"/>
      </g>
      <g>
        <path class="st9" d="M287.4204 49.9193l.3835-14.4073c.2245-8.4339.4467-16.9126-.7021-25.2709-2.2548-16.4047-9.7538-32.1652-8.9025-48.7022.2231-4.3338 1.0234-8.6476.8229-12.9825-.4287-9.2687-5.6246-18.0372-13.1288-23.4942-7.5042-5.457-17.1095-7.7037-26.3551-6.9229 6.6067 4.6995 13.4343 9.6422 17.3304 16.7523 4.9098 8.9602 4.3534 19.7681 4.2927 29.9851a249.5672 249.5672 0 0 0 .6751 19.8841c.2613 3.533.6036 7.0905 1.6495 10.4752 1.1766 3.8076 3.2072 7.2831 5.1265 10.7757a218.6307 218.6307 0 0 1 18.1932 43.7948"/>
      </g>
      <g>
        <path class="st4" d="M286.7838 49.9838c-8.811-7.8997-20.5414-16.4968-28.0067-25.6788-2.2155-2.725-4.3235-5.5874-5.7039-8.8168-4.7526-11.1187-.0842-23.9156-1.3051-35.9456-.9817-9.6726-5.7662-18.614-7.0558-28.2504-.7509-5.6108-.2962-11.3099-.6239-16.9612-.3277-5.6514-1.5581-11.5084-5.1496-15.8841 4.1632.7837 10.3003 3.1594 12.9675 6.4507 9.6412 11.8972 13.2977 21.9499 16.243 36.9773 2.8702 14.6444 2.3389 35.1718 8.9552 48.548 1.6516 3.339 3.7836 6.4433 5.1566 9.9062 1.5901 4.0104 2.1047 8.3524 2.6053 12.6373.6651 5.6927 2.7364 11.3449 1.9174 17.0174"/>
      </g>
      <g>
        <path class="st19" d="M331.3202 3.3764c.3282-2.6439 3.6636-4.4003 6.0293-3.1749.3818.1978.7421.4584 1.1633.545.477.0982.9665-.0396 1.4514-.0839 2.1844-.1996 4.2849 1.8769 4.1104 4.0635-.0767.9608-.4867 2.047.1079 2.8056.4395.5606 1.2306.655 1.9198.8349a5.8908 5.8908 0 0 1 2.6116 1.4754c.9366.9139 1.4936 2.5719.5329 3.4605-.389.3598-.9782.536-1.1923 1.0208-.2433.551.1338 1.1629.2093 1.7604.1224.9692-.6025 1.8853-1.485 2.3042s-1.8921.4514-2.8687.4762c.6158 2.7544-.701 6.1413-3.4385 6.8283-.6591.1654-1.3497.167-2.0126.3166-1.1899.2685-2.2552 1.0047-3.4681 1.1343-1.9.2032-3.8032-1.3915-3.9357-3.2977-1.3327.3088-2.7294.5761-4.0569.2451s-2.5608-1.4287-2.6065-2.7959c-.0117-.3502.0464-.7296-.138-1.0276-.1644-.2656-.4767-.391-.7365-.5645-1.071-.715-1.2198-2.2458-.9596-3.5069.2601-1.2612.8185-2.485.7627-3.7715-.0503-1.1589-.5963-2.2386-.7796-3.3841-.1834-1.1454.1715-2.5542 1.2648-2.942.3261-.1157.723-.15.9185-.4354.2115-.3088.0623-.7256.0874-1.099.0593-.881 1.0359-1.356 1.868-1.6512.8325-.2953 1.6876-.5945 2.5707-.5768s1.8143.4209 2.2125 1.2093"/>
        <path class="st4" d="M336.0813 10.0243c-1.527-1.0247-3.8759-.6033-4.8526.9549s-.2359 3.9495 1.4921 4.5789c.6205.226 1.2954.2374 1.9557.2462.7002.0093 1.4482.0054 2.0322-.3811.6918-.4579.9761-1.3695.8837-2.194-.0924-.8245-.5-1.5788-.9481-2.277"/>
      </g>
      <g>
        <path class="st8" d="M22.6769-7.9466c1.2465 5.3521 2.5029 10.735 4.6457 15.7953s5.2389 9.8312 9.5968 13.179c2.6827 2.0609 5.8061 3.5452 9.0983 4.3237.56.1324 1.1558.2433 1.7024.0632 1.4597-.481 1.5536-2.4832 1.3668-4.0087l-.9782-7.9892c1.649 3.5452 3.6808 7.4425 7.4011 8.6455 2.8711.9284 6.0402-.0543 8.6285-1.6055.4453-.2669.9274-.6252.9638-1.1431.0263-.3739-.1936-.7162-.4104-1.0219-2.566-3.6186-6.0214-6.6017-9.9758-8.6122 3.9988 2.5446 9.9557 1.2088 12.4851-2.7997 1.1084-1.7566 1.5403-4.15.3847-5.876-.616-.9201-1.597-1.5316-2.6019-1.9968-2.6647-1.2333-5.7163-1.6139-8.6023-1.0728l9.0199-4.4722c.2759-.1368.5734-.2959.6921-.5801.1148-.275.0285-.589-.0697-.8703-1.706-4.8871-6.6803-8.0791-11.7797-8.9684s-10.3311.157-15.327 1.5119c-5.4437 1.4763-10.8501 3.3548-15.5672 6.4471"/>
        <path class="st9" d="M51.9534 4.0564C46.4908.2507 40.3324-2.5385 33.9463-4.2944c-3.188-.9025-6.4218-1.5762-9.6569-2.1893-3.2438-.5983-6.4854-1.0871-9.7784-1.8125a.5149.5149 0 0 1-.3938-.6126c.0474-.2182.2291-.374.4385-.4015 3.3994-.4302 6.8282-.1472 10.1701.4789 3.3508.6114 6.6185 1.6144 9.7897 2.8167 6.3324 2.4537 12.3272 5.5858 18.002 9.2273a.5077.5077 0 0 1-.5481.8546.7493.7493 0 0 1-.016-.0108z"/>
        <path class="st21" d="M57.6568 61.5096c2.3518.36 4.6343-1.4461 5.4904-3.6659s.569-4.7167-.0208-7.0216c-.3141-1.2273-.7346-2.4766-1.5991-3.4027-1.8101-1.939-5.1682-1.7757-7.2289-.1056s-2.9599 4.4415-3.0144 7.0935c-.0326 1.5864.208 3.2043.9178 4.6234.7099 1.4192 1.9244 2.6243 3.4327 3.1173M43.4087 50.802c1.3519-.2546 2.6982-.6349 3.8845-1.3315s2.2084-1.7357 2.688-3.0251c.4107-1.1045.4048-2.3179.3109-3.4925-.1061-1.3277-.3382-2.6994-1.1019-3.7906-1.1933-1.7051-3.5813-2.3643-5.5701-1.7509s-3.5276 2.3439-4.1726 4.3226-.4636 4.1653.2275 6.1284c.4466 1.2687 1.1507 2.5178 2.2985 3.219M19.3936 26.4481c1.7264.4107 3.5967-.3763 4.7725-1.7055 1.1758-1.3292 1.7268-3.1184 1.8619-4.8878.1351-1.7694-.1129-3.5433-.3603-5.3005-.1508-1.0712-.4124-2.3047-1.3786-2.7912-.3649-.1837-.7828-.2285-1.1909-.2455-2.0086-.084-4.0388.4466-5.7494 1.5027-.593.3661-1.1567.8024-1.5598 1.3709-.7441 1.0498-.8551 2.4117-.8675 3.6984a33.9667 33.9667 0 0 0 .2032 4.0511c.1113 1.0093.2766 2.0395.7766 2.9234s1.401 1.6032 2.4163 1.624M75.9992 50.3358c1.7213-.5058 3.2448-1.7388 3.9722-3.3788.7274-1.64.5936-3.6661-.4551-5.1217-.4854-.6738-1.1396-1.2102-1.8358-1.663-2.8025-1.8228-6.6379-2.2839-9.4925-.5439-.7672.4676-1.4559 1.0898-1.9004 1.8705-.3351.5886-.5237 1.253-.6096 1.9249-.3119 2.4384.8067 5.0074 2.8043 6.4401 1.9976 1.4327 4.7896 1.6686 6.9993.5914M62.0258 36.8842c2.0765-.2049 4.1144-1.062 5.5838-2.5435 1.4694-1.4815 2.3214-3.6055 2.1003-5.6804-.221-2.0749-1.5793-4.0337-3.5163-4.8095-.9794-.3922-2.0586-.4835-3.1112-.4125-2.6224.177-5.2797 1.485-6.5324 3.7957-1.0232 1.8873-.9834 4.277-.0166 6.1938s2.8019 3.3436 4.8631 3.9437M36.8972 13.0641c1.8579-.2192 3.7506-.4478 5.4527-1.2244 1.7021-.7765 3.2137-2.2043 3.6056-4.0336.1588-.7415.1287-1.51.0612-2.2653-.0701-.7848-.1834-1.5792-.5111-2.2957C44.4955 1.0365 41.797.1856 39.3757-.003c-2.529-.1969-5.3292.1735-7.075 2.0139-1.5503 1.6343-1.9104 4.2093-1.0971 6.31.8133 2.1006 2.678 3.7049 4.8023 4.4544M46.6505 23.1653c2.6135 1.0917 5.7501 1.1531 8.1888-.2873 2.4387-1.4405 3.9362-4.5283 3.12-7.2405-.167-.5551-.4246-1.0882-.7986-1.531-.5803-.687-1.4036-1.1189-2.2294-1.4749-2.5372-1.0936-5.5866-1.5884-7.9885-.2229-1.7554.9979-2.9223 2.9572-2.9635 4.976s1.0446 4.0241 2.7578 5.0929M32.0441 39.1058c2.2048-.2933 4.2712-1.5136 5.5927-3.3026.3963-.5365.7326-1.1337.8593-1.7885.0932-.4812.0703-.9764.0467-1.466-.0884-1.8331-.2318-3.801-1.385-5.2287-.8725-1.0801-2.2195-1.6896-3.5832-1.9504-.7802-.1492-1.6053-.1931-2.3535.0737-.8468.3019-1.507.966-2.1165 1.6269-.9903 1.0736-1.959 2.2479-2.3159 3.6642-.2641 1.0481-.1717 2.1491-.0691 3.225.1222 1.2818.2701 2.6061.915 3.7206s1.9267 1.966 3.1873 1.7039"/>
        <path class="st15" d="M60.9839 42.0313c-7.5877-8.5257-17.0522-14.9019-24.3667-23.7563-7.9439-9.6161-15.3757-19.6422-20.9939-30.8154-.8798-1.7497-3.5056-.2109-2.6273 1.5357C18.4711-.116 25.68 9.6727 33.3671 19.0875c7.6497 9.3689 17.486 16.1297 25.4652 25.0954 1.3045 1.4657 3.4502-.6925 2.1516-2.1516z"/>
        <g>
          <path class="st22" d="M7.1782-7.3198c4.137.8191 8.1239 2.3903 11.7074 4.6139 2.8638 1.777 5.4566 3.956 7.9562 6.2167 2.7968 2.5294 5.5193 5.2058 7.5166 8.4044s3.2328 6.9923 2.8094 10.7393c-.0586.5183-.1816 1.0889-.6079 1.3895-.342.2412-.7924.2442-1.2108.2321a44.9263 44.9263 0 0 1-7.7859-.9096c4.2088 2.1592 7.0229 6.7961 6.9954 11.5264-.0036.6161-.0549 1.2461-.3035 1.8099-.2736.6204-.7695 1.1191-1.3156 1.5209-2.7947 2.0562-7.1735 1.4829-9.3447-1.2237.5705 2.3239.4305 4.8172-.3967 7.0626-.7147 1.94-2.0403 3.7733-3.9662 4.5251-2.6181 1.022-5.7447-.2946-7.4142-2.5554-1.6695-2.2608-2.092-5.2351-1.8652-8.0364s1.0394-5.5166 1.6186-8.2668a101.845 101.845 0 0 1-6.4084 5.5041c-.8209.6478-1.8546 1.3195-2.8371.9616-.596-.2172-.9997-.7671-1.3292-1.3092-1.8021-2.964-2.4524-6.4663-3.0315-9.8864-.5193-3.067-1.0089-6.1535-1.0337-9.2641C-3.1379 7.1057.5674-1.4877 6.8897-7.3613"/>
          <path class="st9" d="M19.4093 25.2742c-4.0183-5.4146-7.55-11.183-10.4278-17.3343C7.5668 4.8576 6.3443 1.6656 5.507-1.636c-.8515-3.2917-1.3666-6.6935-1.1681-10.1142a.515.515 0 0 1 .5439-.4843c.223.0129.405.1682.4648.3708.9473 3.2361 1.6549 6.4371 2.472 9.6328.8312 3.186 1.7228 6.3666 2.8397 9.486 2.1852 6.2522 5.3859 12.2071 9.5536 17.3988a.5077.5077 0 1 1-.8036.6203z"/>
        </g>
      </g>
      <g>
        <path class="st4" d="M15.3063 59.5536c-4.0224-4.0075-7.8477-8.2034-11.3107-12.7091-3.4623-4.4999-6.6938-9.2083-9.5377-14.1837-2.8428-4.9717-5.2021-10.2598-6.845-15.7775a105.9047 105.9047 0 0 1-1.1049-4.1715c-.282-1.4119-.5392-2.8285-.7518-4.2498-.1572-1.4329-.2853-2.867-.3696-4.3009-.0059-1.446-.0108-2.8859.1166-4.3286.0494-.5589.5424-.972 1.1013-.9226.4018.0355.7282.3002.8616.6539l.0174.047c.5032 1.3409.8742 2.6844 1.2441 4.0219.4164 1.3299.7892 2.6595 1.1329 3.9903.4109 1.3174.777 2.6395 1.1186 3.9663a96.3615 96.3615 0 0 1 1.1259 3.9541c1.5686 5.2497 3.3617 10.4471 5.5358 15.5289 2.1732 5.0779 4.8239 9.9919 8.0347 14.5319 3.2095 4.5338 6.8494 8.795 10.9985 12.5002.4106.3666.4462.9967.0795 1.4073-.3666.4106-.9968.4462-1.4073.0795a.9434.9434 0 0 1-.0399-.0376z"/>
      </g>
      <g>
        <path class="st9" d="M26.0432 73.3083c1.8695 1.9723 5.6711 1.3961 6.8721-1.0417.1938-.3934.332-.8255.6253-1.1515.3323-.3693.8175-.5524 1.2426-.8095 1.9145-1.158 2.3826-4.1343.9161-5.8241-.6444-.7425-1.6384-1.3863-1.6092-2.369.0216-.7263.6141-1.2825 1.0712-1.8474a6.0092 6.0092 0 0 0 1.2516-2.792c.2161-1.3172-.33-3.0157-1.6566-3.1639-.5372-.06-1.1276.1519-1.5968-.1166-.5332-.3052-.5938-1.0358-.8935-1.5722-.486-.8699-1.6356-1.1834-2.6138-.9934s-1.8268.7744-2.6437 1.345c-1.1613-2.6344-4.2921-4.6186-6.9557-3.526-.6413.2631-1.2093.6797-1.8441.958-1.1395.4996-2.4598.5398-3.5342 1.1673-1.6831.983-2.2808 3.4441-1.2361 5.0896-1.2812.553-2.5898 1.1787-3.4795 2.2538-.8897 1.0751-1.2382 2.7228-.4482 3.8732.2023.2947.4796.571.5086.9273.0258.3176-.1548.6096-.2631.9092-.4467 1.2352.3575 2.5822 1.3343 3.4603s2.1759 1.5452 2.9087 2.6353c.6601.982.8651 2.199 1.4077 3.2505.5426 1.0515 1.6866 1.9935 2.819 1.6503.3378-.1024.6844-.3144 1.0177-.1983.3605.1255.4902.5581.7368.8495.5818.6875 1.6712.4866 2.5331.2254.8623-.2613 1.7455-.5331 2.46-1.0821.7144-.549 1.2351-1.4435 1.0849-2.332"/>
        <path class="st4" d="M25.9295 64.9683c-.6337 1.7655-2.8175 2.8409-4.5624 2.1525-1.7449-.6885-2.5838-3.1003-1.5458-4.6628.3727-.5611.9201-.9789 1.4569-1.3857.5693-.4314 1.1859-.8809 1.8993-.9169.8452-.0426 1.6303.5338 2.0533 1.2668.4231.733.5449 1.5989.5995 2.4435"/>
      </g>
    </g>
    <g class="st18">
      <path class="st19" d="M330.4714 227.5234l12.8685 11.6797c2.6776 2.4303 5.3983 4.913 7.217 8.0384 3.0599 5.2583 3.3067 11.8903 6.831 16.8493 2.8734 4.0432 7.4992 6.3853 11.4453 9.3907 4.665 3.5528 8.4502 8.1101 12.1917 12.6251 1.8665 2.2523 3.7557 4.5406 4.954 7.209 1.0171 2.2648 1.5013 4.727 1.9476 7.1693a303.4963 303.4963 0 0 1 4.9375 55.8304c-4.3029-21.4576-19.2565-39.2091-35.5124-53.8613-3.3606-3.029-6.8468-6.0255-9.2971-9.8287-1.9202-2.9805-3.1346-6.3534-4.2399-9.7222a193.7164 193.7164 0 0 1-6.7027-26.7126c-.8754-4.9607-1.5592-9.9651-2.8298-14.8397-1.7386-6.67-4.5757-13.0524-8.3622-18.8121"/>
      <path class="st8" d="M325.7289 221.9512c-1.8975 8.1756-1.0597 16.7204-1.9249 25.0686-1.0876 10.4932-4.8707 20.7538-4.2588 31.2854.9044 15.5651 11.4534 29.2154 24.2504 38.1219 6.8858 4.7924 14.4697 8.498 21.4648 13.1295 11.1614 7.3901 20.7526 17.1397 27.9588 28.4207 2.3136-3.8422 1.096-8.7535-.2641-13.0273-4.432-13.9265-9.95-27.9865-20.0419-38.5574-7.0784-7.4144-16.1885-12.8637-22.288-21.1023-6.7322-9.0931-9.0898-20.5884-11.5673-31.6279s-5.5052-22.5143-13.1541-30.851"/>
      <path class="st20" d="M67.2633 302.4086c-4.0518-14.0803-5.3512-29.7654 1.0265-42.9562 6.2108-12.8456 19.2464-22.5124 21.4511-36.6094.6039 3.7969 3.9912 6.5123 5.4612 10.0648 1.1845 2.8626 1.051 6.0823.769 9.1674-1.0113 11.0619-3.8313 22.2686-10.3984 31.2275-3.423 4.6697-7.7572 8.5889-11.4832 13.0206-3.726 4.4317-6.9275 9.6324-7.4063 15.4024"/>
      <path class="st4" d="M115.9979 243.1908c-1.874 5.5475-3.1706 11.272-4.8705 16.8753-3.2471 10.7028-8.1222 21.1723-15.9995 29.1121s-19.1101 13.0648-30.212 11.7081c3.3175-6.46 6.6447-12.9366 10.6799-18.9743 10.9339-16.3602 26.6071-28.8689 42.0211-41.1005"/>
      <path class="st8" d="M22.6769 276.4543c1.2465-5.3521 2.5029-10.735 4.6457-15.7953s5.2389-9.8313 9.5968-13.1791c2.6827-2.0609 5.8061-3.5452 9.0983-4.3237.56-.1324 1.1558-.2433 1.7024-.0632 1.4597.481 1.5536 2.4832 1.3668 4.0087l-.9782 7.9892c1.649-3.5452 3.6808-7.4425 7.4011-8.6455 2.8711-.9284 6.0402.0543 8.6285 1.6055.4453.2669.9274.6252.9638 1.1431.0263.3739-.1936.7162-.4104 1.0219-2.566 3.6186-6.0214 6.6017-9.9758 8.6122 3.9988-2.5446 9.9557-1.2087 12.4851 2.7997 1.1084 1.7566 1.5403 4.15.3847 5.876-.616.9201-1.597 1.5316-2.6019 1.9968-2.6647 1.2333-5.7163 1.6139-8.6023 1.0728l9.0199 4.4721c.2759.1368.5734.2959.6921.5801.1148.2749.0285.589-.0697.8703-1.706 4.8871-6.6803 8.0791-11.7797 8.9684-5.0994.8893-10.3311-.157-15.327-1.5119-5.4437-1.4763-10.8501-3.3548-15.5672-6.4471"/>
      <path class="st21" d="M57.6568 206.998c2.3518-.36 4.6343 1.4461 5.4904 3.6659s.569 4.7167-.0208 7.0216c-.3141 1.2273-.7346 2.4766-1.5991 3.4027-1.8101 1.9389-5.1682 1.7757-7.2289.1056s-2.9599-4.4415-3.0144-7.0936c-.0326-1.5864.208-3.2043.9178-4.6234.7099-1.4192 1.9244-2.6243 3.4327-3.1173M43.4087 217.7057c1.3519.2546 2.6982.6349 3.8845 1.3315s2.2084 1.7357 2.688 3.0251c.4107 1.1044.4048 2.3179.3109 3.4925-.1061 1.3277-.3382 2.6994-1.1019 3.7906-1.1933 1.7051-3.5813 2.3643-5.5701 1.7509-1.9888-.6134-3.5276-2.3439-4.1726-4.3226-.6451-1.9787-.4636-4.1653.2275-6.1284.4466-1.2687 1.1507-2.5178 2.2985-3.219M19.3936 242.0595c1.7264-.4107 3.5967.3763 4.7725 1.7055 1.1758 1.3292 1.7268 3.1184 1.8619 4.8878.1351 1.7694-.1129 3.5432-.3603 5.3005-.1508 1.0712-.4124 2.3047-1.3786 2.7912-.3649.1837-.7828.2285-1.1909.2455-2.0086.084-4.0388-.4467-5.7494-1.5027-.593-.3661-1.1567-.8024-1.5598-1.3709-.7441-1.0498-.8551-2.4117-.8675-3.6984a33.9667 33.9667 0 0 1 .2032-4.0511c.1113-1.0093.2766-2.0396.7766-2.9234s1.401-1.6032 2.4163-1.624M75.9992 218.1719c1.7213.5058 3.2448 1.7388 3.9722 3.3788.7274 1.64.5936 3.6661-.4551 5.1217-.4854.6738-1.1396 1.2102-1.8358 1.663-2.8025 1.8228-6.6379 2.2839-9.4925.5439-.7672-.4676-1.4559-1.0898-1.9004-1.8705-.3351-.5886-.5237-1.253-.6096-1.9249-.3119-2.4384.8067-5.0074 2.8043-6.4401 1.9976-1.4327 4.7896-1.6686 6.9993-.5914M62.0258 231.6234c2.0765.2048 4.1144 1.062 5.5838 2.5435 1.4694 1.4815 2.3214 3.6055 2.1003 5.6804-.221 2.0749-1.5793 4.0337-3.5163 4.8095-.9794.3922-2.0586.4835-3.1112.4125-2.6224-.177-5.2797-1.485-6.5324-3.7957-1.0232-1.8873-.9834-4.277-.0166-6.1938.9667-1.9168 2.8019-3.3436 4.8631-3.9436M36.8972 255.4435c1.8579.2192 3.7506.4478 5.4527 1.2243 1.7021.7765 3.2137 2.2043 3.6056 4.0336.1588.7415.1287 1.51.0612 2.2653-.0701.7848-.1834 1.5792-.5111 2.2957-1.0101 2.2086-3.7086 3.0595-6.1299 3.2481-2.529.1969-5.3292-.1735-7.075-2.0139-1.5503-1.6343-1.9104-4.2093-1.0971-6.31.8133-2.1006 2.678-3.7049 4.8023-4.4544M46.6505 245.3423c2.6135-1.0917 5.7501-1.1531 8.1888.2873 2.4387 1.4405 3.9362 4.5282 3.12 7.2405-.167.5551-.4246 1.0882-.7986 1.531-.5803.687-1.4036 1.1189-2.2294 1.4749-2.5372 1.0936-5.5866 1.5884-7.9885.2229-1.7554-.9979-2.9223-2.9572-2.9635-4.976s1.0446-4.0242 2.7578-5.0929M32.0441 229.4019c2.2048.2933 4.2712 1.5135 5.5927 3.3026.3963.5365.7326 1.1337.8593 1.7885.0932.4812.0703.9764.0467 1.466-.0884 1.8331-.2318 3.801-1.385 5.2287-.8725 1.0801-2.2195 1.6896-3.5832 1.9504-.7802.1492-1.6053.1931-2.3535-.0737-.8468-.3019-1.507-.966-2.1165-1.6269-.9903-1.0736-1.959-2.2479-2.3159-3.6642-.2641-1.0481-.1717-2.1491-.0691-3.225.1222-1.2818.2701-2.6061.915-3.7206s1.9267-1.966 3.1873-1.7039"/>
      <path class="st15" d="M58.8323 224.3248c-7.9791 8.9655-17.8156 15.7265-25.4652 25.0954-7.6873 9.415-14.8959 19.2032-20.3711 30.0921-.8774 1.7449 1.7466 3.2874 2.6273 1.5357 5.6183-11.1735 13.0496-21.1989 20.9938-30.8154 7.3141-8.8539 16.7793-15.2309 24.3667-23.7563 1.2981-1.4585-.8464-3.6179-2.1515-2.1515z"/>
      <path class="st22" d="M7.1782 275.8275c4.137-.8191 8.1239-2.3903 11.7074-4.6139 2.8638-1.777 5.4566-3.956 7.9562-6.2167 2.7968-2.5294 5.5193-5.2058 7.5166-8.4044s3.2328-6.9923 2.8094-10.7393c-.0586-.5183-.1816-1.0889-.6079-1.3895-.342-.2412-.7924-.2442-1.2108-.2321a44.9263 44.9263 0 0 0-7.7859.9096c4.2088-2.1592 7.0229-6.7961 6.9954-11.5264-.0036-.6161-.0549-1.2461-.3035-1.8099-.2736-.6204-.7695-1.1191-1.3156-1.5209-2.7949-2.0563-7.1736-1.4829-9.3448 1.2237.5705-2.3239.4305-4.8172-.3967-7.0626-.7147-1.9399-2.0403-3.7733-3.9662-4.5251-2.6181-1.022-5.7447.2946-7.4142 2.5554s-2.092 5.2351-1.8652 8.0365c.2267 2.8013 1.0394 5.5166 1.6186 8.2668a101.845 101.845 0 0 0-6.4084-5.5041c-.8209-.6478-1.8546-1.3195-2.8371-.9615-.596.2172-.9997.7671-1.3292 1.3092-1.8021 2.964-2.4524 6.4663-3.0315 9.8864-.5193 3.067-1.0089 6.1535-1.0337 9.264-.069 8.6293 3.6363 17.2228 9.9585 23.0964"/>
      <path class="st9" d="M20.2128 243.8536c-4.1677 5.1918-7.3683 11.1466-9.5536 17.3989-1.1168 3.1194-2.0084 6.2999-2.8397 9.486-.8171 3.1957-1.5247 6.3967-2.472 9.6329a.5149.5149 0 0 1-.6379.3513c-.2145-.0621-.3575-.254-.3708-.4648-.1985-3.4207.3166-6.8225 1.1681-10.1142.8373-3.3016 2.0599-6.4936 3.4745-9.576 2.8778-6.1512 6.4095-11.9197 10.4278-17.3343a.5075.5075 0 0 1 .7101-.1052.5075.5075 0 0 1 .0935.7254z"/>
      <path class="st4" d="M16.6741 210.4032c-4.1492 3.7051-7.789 7.9664-10.9985 12.5002-3.2108 4.54-5.8615 9.4539-8.0347 14.5319-2.1741 5.0817-3.9672 10.2792-5.5358 15.5289a96.357 96.357 0 0 1-1.1259 3.954c-.3416 1.3268-.7076 2.6489-1.1186 3.9663-.3436 1.3308-.7165 2.6605-1.1329 3.9903-.3699 1.3375-.7409 2.6811-1.2441 4.022l-.0172.0459c-.1971.5253-.7828.7913-1.3081.5942-.3776-.1417-.6211-.4853-.655-.8618-.1274-1.4427-.1225-2.8826-.1166-4.3286.0844-1.4339.2125-2.868.3696-4.301.2125-1.4213.4698-2.8379.7518-4.2498.34-1.397.7081-2.7889 1.1049-4.1715 1.6429-5.5176 4.0021-10.8058 6.845-15.7775 2.8439-4.9754 6.0754-9.6838 9.5377-14.1837 3.4631-4.5058 7.2883-8.7017 11.3107-12.7092.3897-.3887 1.0208-.3879 1.4095.0018.3888.3898.388 1.0209-.0018 1.4096a1.0893 1.0893 0 0 1-.04.038z"/>
      <path class="st9" d="M26.0432 195.1993c1.8695-1.9723 5.6711-1.3961 6.8721 1.0417.1938.3934.332.8255.6253 1.1515.3323.3693.8175.5524 1.2426.8095 1.9145 1.158 2.3826 4.1343.9161 5.8241-.6444.7425-1.6384 1.3863-1.6092 2.369.0216.7263.6141 1.2825 1.0712 1.8474a6.0092 6.0092 0 0 1 1.2516 2.792c.2161 1.3172-.33 3.0157-1.6566 3.1639-.5372.06-1.1276-.1519-1.5968.1166-.5332.3052-.5938 1.0358-.8935 1.5722-.486.8699-1.6356 1.1835-2.6138.9934s-1.8268-.7744-2.6437-1.345c-1.1613 2.6344-4.2921 4.6186-6.9557 3.526-.6413-.263-1.2093-.6797-1.8441-.958-1.1395-.4996-2.4598-.5398-3.5342-1.1673-1.6831-.983-2.2808-3.4441-1.2361-5.0896-1.2812-.553-2.5898-1.1787-3.4795-2.2538-.8897-1.075-1.2382-2.7228-.4482-3.8732.2023-.2947.4796-.571.5086-.9273.0258-.3176-.1548-.6096-.2631-.9092-.4467-1.2352.3575-2.5822 1.3343-3.4603s2.1759-1.5452 2.9087-2.6353c.6601-.982.8651-2.199 1.4077-3.2505s1.6866-1.9935 2.819-1.6503c.3378.1024.6844.3144 1.0177.1983.3605-.1255.4902-.5581.7368-.8495.5818-.6875 1.6712-.4866 2.5331-.2254.8623.2613 1.7455.5331 2.46 1.0821.7144.549 1.2351 1.4435 1.0849 2.332"/>
      <path class="st4" d="M25.9295 203.5393c-.6337-1.7655-2.8175-2.8409-4.5624-2.1525s-2.5838 3.1003-1.5458 4.6628c.3727.5611.9201.9789 1.4569 1.3857.5693.4314 1.1859.8808 1.8993.9168.8452.0427 1.6303-.5338 2.0533-1.2668.4231-.733.5449-1.5989.5995-2.4435"/>
      <path class="st9" d="M254.9606 237.1237c-1.8642 5.241-3.0148 10.7258-3.6572 16.2433-.6405 5.5236-.6102 11.1068-.0822 16.605.5289 5.5019 1.4478 10.9227 2.5887 16.2816a96.6023 96.6023 0 0 1 .9081 4.0097c.3364 1.3281.6493 2.6638.9203 4.017.3367 1.3326.6471 2.6782.9194 4.0448.3168 1.3511.6355 2.708.8369 4.1259l.0068.0486c.079.5555-.3074 1.0698-.8629 1.1487-.3993.0567-.7777-.1281-.988-.4421-.8036-1.2049-1.4899-2.4708-2.178-3.7426-.6136-1.2987-1.1888-2.6186-1.738-3.9514-.4951-1.3491-.9486-2.7156-1.3782-4.0897a105.8612 105.8612 0 0 1-1.0309-4.1904c-1.2042-5.6297-1.6697-11.4015-1.5591-17.1276.1097-5.7298.6877-11.4111 1.5681-17.0201.8783-5.6146 2.223-11.1309 3.831-16.5764.1556-.5281.7098-.83 1.2378-.6744.5281.1556.83.7098.6744 1.2378a1.14 1.14 0 0 1-.017.0523z"/>
      <path class="st9" d="M255.8916 219.2892c.6947-2.6272 4.3071-3.9446 6.53-2.3813.3588.2523.6872.5652 1.1009.7106.4687.1647.9823.0927 1.4785.1145 2.2354.0981 4.0733 2.4854 3.5967 4.6715-.2094.9606-.773 2.0022-.2761 2.8505.3672.627 1.1539.8309 1.8258 1.1075a6.009 6.009 0 0 1 2.4371 1.8498c.8213 1.0523 1.1566 2.8046.0635 3.5708-.4426.3103-1.0623.4075-1.3453.868-.3216.5235-.0244 1.1937-.0301 1.8081-.0093.9964-.8678 1.8228-1.8173 2.1251-.9495.3023-1.9744.1964-2.9649.0875.2442 2.8686-1.5516 6.1111-4.4129 6.4296-.6889.0767-1.3871-.0165-2.0777.0437-1.2395.108-2.4174.7058-3.6611.6704-1.9483-.0555-3.653-1.9286-3.5253-3.8735-1.3895.1291-2.8379.2075-4.1341-.3092-1.2962-.5167-2.3922-1.7956-2.2506-3.1839.0363-.3556.1471-.7311.0016-1.0576-.1297-.291-.4281-.4607-.6669-.6716-.9843-.8697-.9245-2.4374-.4884-3.6764.4361-1.239 1.1685-2.3994 1.2887-3.7074.1083-1.1783-.2953-2.3445-.3234-3.5275s.5241-2.5581 1.6824-2.7999c.3455-.0721.7513-.0523.9881-.314.2561-.283.1626-.7248.2392-1.0988.1809-.8823 1.2331-1.2284 2.1148-1.4125.882-.1842 1.7874-.3692 2.6776-.23.8902.1392 1.776.6745 2.0703 1.5261"/>
      <path class="st4" d="M259.7911 226.6623c-1.4027-1.2454-3.8347-1.1419-5.0358.299-1.2011 1.4409-.7807 3.9596.8795 4.8329.5961.3136 1.2767.4178 1.9429.5173.7065.1056 1.4631.2043 2.1064-.1062.7621-.3679 1.1746-1.2502 1.1944-2.0962.0198-.8461-.2885-1.6644-.6457-2.4317"/>
      <path class="st6" d="M124.8332 240.9389c.6128 14.3426-7.4795 26.2008-15.4092 37.4131-1.3037 1.8434 1.7311 3.5944 3.0234 1.7672 8.3013-11.7376 16.5272-24.2014 15.8873-39.1803-.096-2.2447-3.598-2.2567-3.5015 0z"/>
      <path class="st8" d="M126.9358 239.1242c1.8003-3.4397 4.8024-6.1311 8.1164-8.1535 1.5975-.9749 3.3378-1.8282 5.2052-1.9506s3.8885.6264 4.8413 2.2372c1.219 2.061.2889 4.8592-1.4934 6.4582s-4.1938 2.2671-6.5289 2.7974c-3.5603.8085-7.3024 1.4089-10.833.4792"/>
      <path class="st8" d="M125.8296 240.6494c-2.8661-5.0618-4.082-11.0409-3.4206-16.8201.308-2.6912 1.0871-5.4697 3.0053-7.3823 1.9182-1.9125 5.2217-2.6253 7.38-.9885 1.1844.8982 1.8556 2.3453 2.1081 3.8102.4753 2.7571-.3837 5.5607-1.3949 8.1694a67.0906 67.0906 0 0 1-6.3815 12.4321M124.6085 252.9478c-.0122-5.1459-1.9708-10.264-5.3972-14.1033-1.0757-1.2053-2.3157-2.3046-3.7955-2.9528s-3.2294-.8026-4.7052-.1454c-2.6883 1.1973-3.6478 4.7749-2.7443 7.5757s3.1893 4.9248 5.565 6.6617a42.2382 42.2382 0 0 0 9.3481 5.1603M120.5448 262.349c-2.8964-4.488-7.2018-8.052-12.1518-10.0592-.7213-.2925-1.48-.5567-2.2574-.5169-1.3794.0705-2.5144 1.0611-3.5287 1.9986-.572.5287-1.1602 1.0798-1.4649 1.7967-.4251 1.0001-.2174 2.1862.3255 3.1275s1.3841 1.6732 2.2607 2.3154c4.3608 3.1944 10.0327 4.5386 15.3633 3.6411M126.3139 267.5291c.5603-3.2952 1.9749-6.5281 4.4348-8.791s6.0512-3.4175 9.2647-2.4978c.4919.1408.9876.3379 1.342.707.449.4675.605 1.1364.7285 1.7728.1852.9545.3376 1.9378.1657 2.8947-.2623 1.4597-1.2643 2.7025-2.4661 3.5716s-2.6014 1.415-3.9839 1.9519l-5.5552 2.1573c-1.1419.4434-2.3737.8941-3.5638.6037"/>
      <path class="st16" d="M129.7466 219.5862c-1.8404-.2874-3.4981.4821-4.1992 2.2691-.5297 1.3501-.7149 3.5442.2955 4.7079 1.2518 1.4418 3.4022 1.2492 4.6782-.0604.6198-.6361 1.0459-1.4582 1.169-2.3375.0657-.4691.055-.9354-.0709-1.3962-.0526-.1924-.1303-.5198-.2653-.6693-.209-.2316.1563-.2583-.0291.224l-.4502.7725.1247-.1322c1.5456-1.6385-.9258-4.1192-2.4759-2.4759-.618.6551-.8602 1.5056-.6234 2.3867.0823.22.1713.4372.2668.6518.1198.2615.1447.3027.0747.1239-.0363.1519-.2656.3657-.2822.465.0327-.1966.6623.4989.7016.446.1176-.1583.006-.8127.0384-1.0255.0259-.1701.0649-.4075.1618-.5466.095-.1362-.034-.0254-.0454-.0272.9331.1457 1.883-.2381 2.1536-1.2228.2284-.8307-.283-2.0066-1.2227-2.1533zM139.3948 232.6503c-1.4557-.5621-3.1688-.3613-4.5127.4104-1.4001.804-2.6649 2.4763-2.2643 4.1732.9507 4.0267 6.9798 1.2239 7.3973-1.7815.1299-.9353-.2272-1.8801-1.2228-2.1536-.8184-.2249-2.0226.2802-2.1536 1.2228-.0666.4794-.2074.6519-.6475.9033-.1706.0975-.5685.1597-.6899.2727-.2958.2753.5347.9771.7959.8741.0307-.0121.3107-.3329.3525-.3644.1966-.1484.413-.242.6473-.3074.4916-.1372.8913-.0568 1.3669.1268.8823.3407 1.9209-.3758 2.1536-1.2228.2717-.9888-.3373-1.8117-1.2227-2.1536zM134.733 259.2357c-1.5349.244-2.8948 1.5722-2.7998 3.1875.1174 1.9955 2.3018 3.2935 4.0468 2.1739 1.3806-.8858 2.6182-2.455 2.174-4.1915-.5105-1.9953-2.8412-2.6616-4.3631-1.3425-.7149.6196-.6351 1.8409 0 2.4759.709.709 1.7593.6212 2.4759 0-.4165.3611-1.3785.4606-1.5066-.2908-.0203-.1188.0369-.1901.0366-.2831-.1145.1757-.1267.2066-.0367.0929a3.5874 3.5874 0 0 1-.255.2624c-.0811.077-.3985.3474-.3949.3321.0939-.3995 1.5862.0792 1.2659.8617-.0889.2172-.3313.226-.0677.166-.3414.0778.2934-.0583.3554-.0681.9346-.1486 1.4533-1.3146 1.2228-2.1536-.2736-.9953-1.2163-1.3718-2.1536-1.2228zM113.7526 241.0205c-2.984 1.9621-.6248 7.2309 2.6826 7.1082 1.8255-.0677 3.0689-1.7193 2.69-3.4945-.3331-1.5603-1.6876-2.8423-3.0457-3.5677-1.987-1.0614-3.7577 1.9601-1.7672 3.0234.4352.2325.8615.5034 1.1682.9004.0116.015.2381.3564.2204.365.1465-.0708.1167-.593.4417-.6898.0075-.0022.4051-.0447.3362.0419-.027.034-.2738-.3319-.258-.3082-.1251-.1877-.2207-.401-.3134-.6055-.2131-.4707.1511-.1039-.3874.2502.7892-.5189 1.1233-1.5487.6281-2.3953-.4589-.7844-1.602-1.1499-2.3955-.6281zM110.2966 255.5685c-1.6914-.6926-3.8902.5213-4.3578 2.2395-.5431 1.9958 1.3143 3.7968 3.1461 4.1286 1.6715.3027 4.1209-.2449 4.5312-2.1714.3968-1.8633-1.6831-3.4399-3.1621-4.1124-.8601-.3911-1.884-.2462-2.3953.6281-.4396.7516-.2368 2.002.6281 2.3953.389.1769 1.4549.6608 1.553 1.089v-.9308c.0993-.575.4535-.2423-.0617-.2997-.2418-.0269-.4574-.0887-.6879-.127.0603.01-.2142-.1287-.1779-.1385.0603-.0162-.1477.6151-.14.6571.0353.1945-.1323-.0373.1284-.0389.0278-.0002-.4937-.1714.0652.0574.8754.3585 1.9244-.3888 2.1536-1.2228.2756-1.0035-.3443-1.7937-1.2229-2.1535z"/>
      <g>
        <path class="st20" d="M432.4168 302.926c4.0518-14.0803 5.3512-29.7654-1.0265-42.9561-6.2108-12.8457-19.2464-22.5125-21.4511-36.6094-.6039 3.7969-3.9912 6.5123-5.4612 10.0648-1.1845 2.8626-1.051 6.0823-.769 9.1674 1.0113 11.0619 3.8313 22.2686 10.3984 31.2275 3.423 4.6696 7.7572 8.5889 11.4832 13.0206 3.726 4.4317 6.9275 9.6324 7.4063 15.4025"/>
      </g>
      <g>
        <path class="st4" d="M383.6822 243.7082c1.874 5.5475 3.1706 11.272 4.8705 16.8753 3.2471 10.7028 8.1222 21.1722 15.9995 29.1121s19.1101 13.0649 30.212 11.7081c-3.3175-6.46-6.6447-12.9365-10.6799-18.9743-10.9339-16.3601-26.6071-28.8689-42.0211-41.1005"/>
      </g>
      <g>
        <path class="st6" d="M371.3455 241.4563c-.6398 14.9752 7.5872 27.4445 15.8873 39.1804 1.2908 1.8252 4.3284.0779 3.0234-1.7672-7.9317-11.2151-16.0222-23.0655-15.4092-37.4131.0962-2.2531-3.4054-2.2485-3.5015-.0001z"/>
        <path class="st8" d="M372.7443 239.6416c-1.8004-3.4397-4.8024-6.1311-8.1164-8.1535-1.5975-.9749-3.3377-1.8282-5.2052-1.9506-1.8675-.1225-3.8885.6264-4.8413 2.2372-1.219 2.061-.2889 4.8592 1.4934 6.4582 1.7824 1.599 4.1938 2.2671 6.5289 2.7974 3.5603.8085 7.3024 1.4089 10.833.4792"/>
        <path class="st8" d="M373.8505 241.1667c2.8661-5.0618 4.0821-11.0409 3.4206-16.8201-.308-2.6912-1.0872-5.4698-3.0053-7.3823-1.9182-1.9125-5.2217-2.6253-7.38-.9885-1.1844.8982-1.8557 2.3453-2.1082 3.8102-.4753 2.7571.3837 5.5607 1.3949 8.1694a67.091 67.091 0 0 0 6.3816 12.4321M375.0716 253.4652c.0122-5.1459 1.9708-10.264 5.3972-14.1033 1.0757-1.2053 2.3157-2.3046 3.7955-2.9528 1.4797-.6482 3.2294-.8026 4.7052-.1454 2.6883 1.1973 3.6478 4.775 2.7444 7.5757s-3.1893 4.9248-5.565 6.6617a42.2382 42.2382 0 0 1-9.3481 5.1603M379.1353 262.8664c2.8964-4.488 7.2018-8.052 12.1519-10.0592.7213-.2925 1.48-.5567 2.2574-.5169 1.3794.0705 2.5143 1.0611 3.5287 1.9986.572.5287 1.1602 1.0798 1.4649 1.7967.4251 1.0001.2174 2.1862-.3255 3.1276-.5429.9413-1.3841 1.6732-2.2607 2.3154-4.3608 3.1944-10.0327 4.5386-15.3633 3.6411M373.3662 268.0465c-.5603-3.2952-1.9749-6.5281-4.4348-8.791-2.46-2.2629-6.0512-3.4175-9.2647-2.4977-.4919.1408-.9876.3379-1.342.707-.449.4676-.605 1.1364-.7285 1.7728-.1852.9545-.3376 1.9378-.1657 2.8948.2623 1.4597 1.2643 2.7025 2.4661 3.5716s2.6014 1.415 3.9839 1.9519l5.5551 2.1573c1.1419.4434 2.3737.8941 3.5638.6037"/>
        <path class="st16" d="M370.8643 223.4799c-.0883.0138-.0469-.0656-.0454.0272.0018.1134.141.4097.1618.5466.0324.2128-.0792.8672.0384 1.0255.0393.0529.6689-.6426.7016-.446-.0165-.0993-.2459-.3131-.2822-.465-.07.1789-.0451.1376.0747-.1239.0956-.2146.1845-.4319.2668-.6518.2368-.8811-.0054-1.7316-.6234-2.3868-1.5494-1.6426-4.0222.8367-2.4759 2.4759l.1247.1322-.4503-.7725c-.045-.1172.1351-.3573.0226-.3387-.0701.0116-.2621.592-.2798.6476-.1327.4163-.1719.8665-.1393 1.2999.0693.922.4926 1.8027 1.1143 2.4814 1.2632 1.3789 3.4773 1.6314 4.7641.1492.9843-1.1338.8315-3.264.3414-4.5944-.6805-1.8471-2.3487-2.6788-4.2451-2.3826-.935.146-1.4529 1.3164-1.2228 2.1536.2743.9971 1.2161 1.369 2.1538 1.2226zM361.2162 236.544c.4757-.1837.8754-.2641 1.3669-.1268.2343.0654.4507.159.6473.3074.0418.0316.3218.3523.3525.3644.2612.103 1.0917-.5988.7959-.8741-.1214-.113-.5193-.1753-.6899-.2727-.44-.2514-.5809-.4239-.6475-.9033-.1302-.9374-1.3274-1.4498-2.1536-1.2228-1.0095.2774-1.3534 1.2132-1.2228 2.1536.4174 3.0051 6.4496 5.8076 7.3973 1.7815.3931-1.6702-.8154-3.2783-2.1645-4.1116-1.3469-.832-3.1302-1.0443-4.6125-.472-.8815.3404-1.4912 1.1768-1.2228 2.1536.2316.8425 1.2668 1.5653 2.1537 1.2228zM364.0163 263.1295c.062.0099.6968.1459.3554.0681.2775.0632.0475.0612-.0457-.1002-.4728-.8192 1.1548-1.3066 1.2439-.9275.0036.0153-.3138-.2551-.3949-.3321a3.6277 3.6277 0 0 1-.255-.2623c.0704.0905.0734.0858.009-.0142-.0603-.1036-.061-.105-.0021-.0042a.3736.3736 0 0 1-.007.2085c-.1194.7564-1.0976.6453-1.5066.2908.7141.619 1.7738.7021 2.4759 0 .6327-.6327.7175-1.8539 0-2.4759-1.4754-1.2789-3.8041-.6992-4.3457 1.2543-.4849 1.749.7355 3.3962 2.1566 4.2797 1.6789 1.0437 3.7403-.0319 4.0155-1.9412.2454-1.7024-1.1403-3.1613-2.7685-3.4202-.9327-.1483-1.8835.2398-2.1536 1.2228-.2288.8329.2836 2.0043 1.2228 2.1536zM384.1602 244.5612c-.5386-.3541-.1743-.7209-.3875-.2502-.0925.2043-.1878.4185-.3134.6055.0077-.0114-.2189.3581-.258.3082-.0687-.0877.3287-.0442.3362-.0419.3329.0992.287.6099.4417.6898-.0232-.012.1941-.3311.2203-.365.3085-.3967.7319-.6674 1.1682-.9004 1.9883-1.0621.2217-4.0858-1.7672-3.0234-1.3223.7063-2.663 1.9526-3.0217 3.4628-.4277 1.8012.7793 3.5349 2.666 3.5994 3.3041.1128 5.6723-5.1424 2.6826-7.1082-.7903-.5196-1.9359-.1574-2.3953.6281-.4995.8542-.1641 1.8744.6281 2.3953zM390.3143 259.4622c.1982-.0811.2981-.0818.0382-.0679.0414-.0022.2402.1178.2405.1351l-.1703-.1715-.0327-.6033c.0106.0021-.191.169-.2.1704-.1899.0294-.3509.1324-.5619.1281.0686.0014-.3568-.0227-.2802-.0399-.332.0746-.0724-.6159.0924.3386v.9308c.0984-.4299 1.1613-.9109 1.5529-1.089.8608-.3914 1.0706-1.6387.6281-2.3953-.5175-.8847-1.5313-1.0209-2.3953-.6281-1.4607.6642-3.3336 2.0951-3.1933 3.8797.1639 2.0844 2.868 2.726 4.5624 2.4041 1.7975-.3415 3.6051-2.0316 3.1723-4.0058-.3918-1.7874-2.6549-3.0704-4.384-2.3623-.8744.358-1.4948 1.1637-1.2228 2.1536.2276.8278 1.2734 1.5833 2.1537 1.2227z"/>
      </g>
      <g>
        <path class="st4" d="M149.0822 230.1581c-4.4634 10.3337-7.905 21.1605-9.4789 32.3064-1.043 7.3868-1.261 14.8622-1.4775 22.3192-.1859 6.4042-.3713 12.827.2143 19.2071 1.2621 13.7501 6.0901 26.9824 12.4817 39.2219s14.339 23.5876 22.2622 34.8961c.7833-.6116.7891-1.7779.6759-2.7652-1.325-11.5506-8.8941-21.2941-13.2539-32.0721-4.2526-10.5131-5.4247-22.2511-3.3348-33.3975 1.5516-8.2755 4.8267-16.1098 7.4302-24.1169 2.6035-8.007 4.5591-16.4755 3.3464-24.8074-1.7414-11.9642-9.8322-22.1429-19.2211-29.7602"/>
      </g>
      <g>
        <path class="st5" d="M157.5127 344.2998c-2.3533-15.1382-2.7413-30.5809-1.1513-45.8182.3997-3.8307.943-7.7162 2.5627-11.2105 1.184-2.5543 2.9048-4.8148 4.4041-7.1978 1.8372-2.92 3.3548-6.0535 4.3509-9.3565 2.3875-7.9171 1.6929-16.3769 1.7647-24.646.0718-8.269 1.1361-17.0496 6.3023-23.5065-.255 5.5802-.5058 11.2229.5558 16.7072.919 4.7477 2.7971 9.2465 4.2638 13.8545 4.5851 14.405 5.0983 30.082 1.4651 44.756-.8421 3.4013-1.9043 6.7555-3.3301 9.9563-1.3674 3.0697-3.061 5.9812-4.751 8.8858l-6.6748 11.4717c-3.1644 5.4384-6.3339 10.885-9.9617 16.026"/>
      </g>
      <g>
        <path class="st22" d="M313.0413 291.5084c-3.7522-1.9253-7.1533-4.5324-9.987-7.6558-2.2646-2.4961-4.1581-5.3041-5.9397-8.1651-1.9933-3.201-3.8748-6.523-4.9153-10.1475-1.0406-3.6245-1.1851-7.6117.2525-11.0978.1989-.4822.4741-.997.9666-1.1688.3952-.1378.829-.0169 1.2279.1098a44.9166 44.9166 0 0 1 7.2354 3.0159c-3.4526-3.2335-4.883-8.4655-3.5557-13.0058.1729-.5914.3955-1.183.7896-1.6566.4337-.5212 1.0476-.8643 1.6832-1.1004 3.2526-1.2083 7.3048.5472 8.6479 3.7465.0906-2.3912.9109-4.7499 2.3238-6.6812 1.2206-1.6686 2.9994-3.0667 5.0578-3.2598 2.7982-.2625 5.4421 1.8631 6.4255 4.496s.5715 5.6086-.4169 8.2395c-.9884 2.6309-2.5165 5.018-3.8297 7.5028a101.8078 101.8078 0 0 1 7.675-3.5294c.9674-.3971 2.146-.7586 2.9922-.1442.5133.3727.7501 1.0125.9179 1.6243.9174 3.3453.5794 6.8914.1956 10.3389-.3442 3.0916-.7224 6.1937-1.554 9.1911-2.3069 8.3156-8.2327 15.5585-15.9266 19.4669"/>
        <path class="st9" d="M310.246 256.8074c2.3743 6.311 4.1833 12.8282 5.2583 19.5337.5125 3.3527.8099 6.7578.707 10.1624-.0867 3.3989-.527 6.8112-1.6586 10.0454a.5151.5151 0 0 1-.6562.316c-.2107-.0738-.3431-.2731-.3448-.4843-.0208-3.3719.1793-6.644.2726-9.9413.0771-3.2917.0946-6.5948-.1212-9.9011-.3815-6.6121-1.821-13.2177-4.4001-19.3554a.5076.5076 0 0 1 .9361-.3933l.0069.0179z"/>
      </g>
      <g>
        <path class="st8" d="M197.654 288.3026c5.0358-2.1998 10.1001-4.415 14.686-7.443 4.5858-3.028 8.7135-6.9408 11.2122-11.8352 1.5382-3.013 2.4293-6.3544 2.5956-9.7332.0283-.5748.0289-1.1808-.2477-1.6855-.7387-1.3478-2.7245-1.0757-4.1905-.6143l-7.6777 2.416c3.1858-2.2667 6.6483-4.974 7.1541-8.851.3904-2.9921-1.1528-5.9295-3.1492-8.1921-.3435-.3893-.7835-.7981-1.2994-.7396-.3725.0422-.669.3207-.9301.5896-3.0912 3.1818-5.3955 7.1224-6.6527 11.3766 1.7742-4.3951-.6234-10.0094-5.0253-11.767-1.929-.7702-4.361-.7592-5.8479.6912-.7926.7732-1.2154 1.8491-1.4899 2.9218-.7278 2.8447-.5465 5.9146.5108 8.6538l-6.0392-8.0553c-.1847-.2464-.3953-.51-.6963-.5749-.2913-.0628-.5843.0791-.8431.2269-4.495 2.567-6.7283 8.0392-6.6746 13.2153.0537 5.1761 2.0347 10.1299 4.2763 14.7958 2.4425 5.084 5.2736 10.0583 9.1727 14.1338"/>
        <path class="st9" d="M204.128 257.3304c-2.7479 6.0641-4.3696 12.6272-4.9338 19.2263-.3072 3.299-.3811 6.6014-.3951 9.894.0021 3.2985.1115 6.575-.0025 9.945a.5149.5149 0 0 1-.5307.4987c-.2232-.007-.4094-.1573-.4746-.3582-1.0417-3.2643-1.3875-6.6874-1.3801-10.0874-.0087-3.4061.3829-6.8018.9878-10.1389 1.2602-6.6732 3.2488-13.1379 5.7967-19.3807a.5075.5075 0 1 1 .9323.4012z"/>
      </g>
      <g>
        <path class="st21" d="M293.6126 240.9224c-1.4094-1.9167-4.3008-2.2521-6.4752-1.2866-2.1744.9655-3.736 2.9348-4.9476 4.9823-.6452 1.0903-1.2306 2.2713-1.2734 3.5375-.0897 2.651 2.4015 4.9088 5.0397 5.1836 2.6383.2748 5.233-1.0505 7.1458-2.8882 1.1443-1.0993 2.1174-2.414 2.6182-3.9197s.4932-3.2167-.2255-4.6314M296.1256 258.5675c-1.1364-.7753-2.3576-1.4576-3.6892-1.8033-1.3316-.3456-2.7891-.3327-4.0396.2406-1.0711.4911-1.9245 1.3538-2.6882 2.2512-.8633 1.0143-1.6684 2.1488-1.8993 3.4605-.3608 2.0497.8628 4.2037 2.7033 5.1753 1.8405.9715 4.1522.8347 6.0069-.1093 1.8548-.944 3.2718-2.6193 4.1702-4.4966.5806-1.2132.9653-2.5946.6488-3.9018M272.7388 235.8647c-1.5752-.8586-3.5245-1.063-5.1981-.4168-1.6736.6462-3.0109 2.1742-3.2977 3.9452-.1328.8198-.049 1.6617.1235 2.474.6945 3.2702 3.0821 6.307 6.3315 7.0934.8732.2113 1.8002.2579 2.6665.0197.6531-.1796 1.256-.5164 1.7917-.931 1.9439-1.5047 2.9681-4.1128 2.5674-6.5382s-2.2093-4.5655-4.5339-5.365M273.1182 255.2569c-1.6139-1.3226-3.6614-2.1564-5.748-2.1468-2.0866.0097-4.1905.9103-5.5005 2.5345-1.31 1.6242-1.7334 3.9699-.9112 5.8877.4157.9697 1.1147 1.797 1.9097 2.4906 1.9804 1.7281 4.7848 2.6807 7.3041 1.9312 2.0577-.6121 3.7184-2.3309 4.3891-4.3703.6707-2.0393.3808-4.3457-.6535-6.2269"/>
        <path class="st15" d="M277.493 252.351c-.6435 11.6835 1.5121 23.1531.3687 34.8769-1.183 12.1301-3.0128 24.1677-6.8389 35.7709-.6147 1.864 2.3227 2.6629 2.9341.8089 3.7171-11.2725 5.547-22.9656 6.7627-34.7429.5784-5.603.9878-11.1623.6748-16.7957-.3701-6.6596-1.2267-13.2358-.8586-19.918.1077-1.9567-2.9354-1.9506-3.0428-.0001z"/>
      </g>
      <g>
        <path class="st9" d="M211.1552 218.5884l-.3835 14.4073c-.2245 8.4339-.4467 16.9126.7021 25.2709 2.2548 16.4047 9.7538 32.1652 8.9025 48.7022-.2231 4.3338-1.0234 8.6476-.8229 12.9825.4287 9.2686 5.6246 18.0372 13.1288 23.4942 7.5042 5.4569 17.1095 7.7037 26.3551 6.9229-6.6067-4.6995-13.4343-9.6422-17.3304-16.7523-4.9098-8.9601-4.3533-19.7681-4.2927-29.9851a249.5672 249.5672 0 0 0-.6751-19.8841c-.2613-3.533-.6036-7.0905-1.6495-10.4752-1.1766-3.8076-3.2071-7.2831-5.1265-10.7756a218.6307 218.6307 0 0 1-18.1932-43.7948"/>
      </g>
      <g>
        <path class="st4" d="M211.7918 218.5238c8.811 7.8997 20.5414 16.4967 28.0067 25.6788 2.2155 2.725 4.3235 5.5874 5.7039 8.8168 4.7526 11.1187.0841 23.9156 1.3051 35.9456.9817 9.6726 5.7662 18.614 7.0558 28.2504.7509 5.6108.2962 11.3099.6239 16.9612s1.5581 11.5084 5.1496 15.8841c-4.1632-.7837-10.3003-3.1593-12.9675-6.4507-9.6413-11.8972-13.2977-21.9499-16.243-36.9773-2.8702-14.6444-2.3389-35.1718-8.9552-48.548-1.6516-3.339-3.7836-6.4433-5.1565-9.9062-1.5901-4.0104-2.1047-8.3524-2.6053-12.6373-.6651-5.6926-2.7365-11.3448-1.9175-17.0174"/>
      </g>
      <g>
        <path class="st19" d="M167.2554 265.1313c-.3282 2.6439-3.6636 4.4002-6.0293 3.1749-.3818-.1978-.7421-.4584-1.1633-.545-.477-.0982-.9665.0396-1.4514.0839-2.1844.1996-4.2849-1.8769-4.1104-4.0635.0767-.9608.4867-2.047-.1079-2.8055-.4394-.5606-1.2306-.655-1.9198-.8349a5.8908 5.8908 0 0 1-2.6116-1.4754c-.9366-.9139-1.4936-2.5719-.5329-3.4604.389-.3598.9782-.536 1.1923-1.0208.2433-.551-.1338-1.1629-.2093-1.7605-.1225-.9692.6025-1.8853 1.485-2.3042s1.8921-.4514 2.8687-.4762c-.6158-2.7544.701-6.1413 3.4385-6.8283.6591-.1654 1.3497-.167 2.0126-.3165 1.1899-.2685 2.2552-1.0047 3.4681-1.1344 1.9-.2032 3.8031 1.3915 3.9357 3.2977 1.3328-.3088 2.7295-.5761 4.0569-.2451 1.3274.3309 2.5608 1.4286 2.6065 2.7959.0117.3502-.0464.7296.138 1.0276.1644.2656.4767.391.7365.5645 1.071.715 1.2198 2.2458.9596 3.5069-.2601 1.2612-.8185 2.485-.7627 3.7715.0503 1.159.5963 2.2386.7796 3.3841s-.1715 2.5542-1.2648 2.942c-.3261.1157-.7229.15-.9185.4354-.2115.3088-.0623.7256-.0874 1.099-.0593.881-1.0358 1.356-1.868 1.6512-.8325.2953-1.6876.5945-2.5708.5768-.8831-.0178-1.8143-.4209-2.2125-1.2094"/>
        <path class="st4" d="M162.4944 258.4833c1.527 1.0247 3.8759.6033 4.8526-.9549s.2359-3.9495-1.4921-4.5789c-.6205-.226-1.2954-.2374-1.9557-.2462-.7002-.0094-1.4483-.0054-2.0322.3811-.6918.4579-.9761 1.3695-.8837 2.194.0924.8245.5 1.5788.9481 2.277"/>
      </g>
      <g>
        <path class="st8" d="M475.8987 276.4543c-1.2465-5.3521-2.5029-10.735-4.6457-15.7953s-5.2389-9.8313-9.5968-13.1791c-2.6827-2.0609-5.8061-3.5452-9.0983-4.3237-.56-.1324-1.1558-.2433-1.7024-.0632-1.4597.481-1.5536 2.4832-1.3668 4.0087l.9782 7.9892c-1.649-3.5452-3.6808-7.4425-7.4011-8.6455-2.8711-.9284-6.0402.0543-8.6285 1.6055-.4453.2669-.9274.6252-.9638 1.1431-.0262.3739.1936.7162.4104 1.0219 2.566 3.6186 6.0214 6.6017 9.9757 8.6122-3.9988-2.5446-9.9557-1.2087-12.485 2.7997-1.1085 1.7566-1.5403 4.15-.3847 5.876.616.9201 1.597 1.5316 2.6018 1.9968 2.6647 1.2333 5.7163 1.6139 8.6023 1.0728l-9.0199 4.4721c-.2759.1368-.5734.2959-.692.5801-.1148.2749-.0286.589.0696.8703 1.706 4.8871 6.6803 8.0791 11.7797 8.9684 5.0994.8893 10.3311-.157 15.327-1.5119 5.4437-1.4763 10.8501-3.3548 15.5672-6.4471"/>
        <path class="st21" d="M440.9188 206.998c-2.3518-.36-4.6343 1.4461-5.4904 3.6659s-.5691 4.7167.0208 7.0216c.3141 1.2273.7346 2.4766 1.5991 3.4027 1.8101 1.9389 5.1682 1.7757 7.2289.1056s2.9599-4.4415 3.0144-7.0936c.0326-1.5864-.2079-3.2043-.9178-4.6234-.7099-1.4192-1.9244-2.6243-3.4327-3.1173M455.1669 217.7057c-1.3519.2546-2.6982.6349-3.8845 1.3315-1.1863.6965-2.2084 1.7357-2.688 3.0251-.4107 1.1044-.4048 2.3179-.3109 3.4925.1061 1.3277.3382 2.6994 1.1019 3.7906 1.1933 1.7051 3.5813 2.3643 5.57 1.7509 1.9888-.6134 3.5276-2.3439 4.1726-4.3226.6451-1.9787.4636-4.1653-.2275-6.1284-.4466-1.2687-1.1507-2.5178-2.2985-3.219M479.182 242.0595c-1.7264-.4107-3.5967.3763-4.7725 1.7055-1.1758 1.3292-1.7268 3.1184-1.8619 4.8878-.135 1.7694.1129 3.5432.3603 5.3005.1508 1.0712.4124 2.3047 1.3786 2.7912.3649.1837.7828.2285 1.1909.2455 2.0086.084 4.0388-.4467 5.7494-1.5027.593-.3661 1.1567-.8024 1.5598-1.3709.7441-1.0498.8551-2.4117.8675-3.6984a33.9458 33.9458 0 0 0-.2032-4.0511c-.1113-1.0093-.2766-2.0396-.7766-2.9234s-1.401-1.6032-2.4163-1.624M422.5764 218.1719c-1.7213.5058-3.2448 1.7388-3.9722 3.3788-.7274 1.64-.5936 3.6661.4551 5.1217.4854.6738 1.1396 1.2102 1.8358 1.663 2.8025 1.8228 6.6379 2.2839 9.4925.5439.7672-.4676 1.4559-1.0898 1.9004-1.8705.3351-.5886.5237-1.253.6096-1.9249.3119-2.4384-.8067-5.0074-2.8043-6.4401s-4.7896-1.6686-6.9992-.5914M436.5498 231.6234c-2.0765.2048-4.1144 1.062-5.5838 2.5435-1.4694 1.4815-2.3214 3.6055-2.1003 5.6804.2211 2.0749 1.5793 4.0337 3.5164 4.8095.9794.3922 2.0586.4835 3.1112.4125 2.6224-.177 5.2797-1.485 6.5324-3.7957 1.0232-1.8873.9834-4.277.0166-6.1938-.9667-1.9168-2.8018-3.3436-4.8631-3.9436M461.6784 255.4435c-1.8579.2192-3.7506.4478-5.4527 1.2243-1.7021.7765-3.2137 2.2043-3.6056 4.0336-.1588.7415-.1287 1.51-.0612 2.2653.0701.7848.1834 1.5792.5111 2.2957 1.0101 2.2086 3.7086 3.0595 6.1299 3.2481 2.529.1969 5.3292-.1735 7.075-2.0139 1.5503-1.6343 1.9104-4.2093 1.0971-6.31-.8133-2.1006-2.678-3.7049-4.8023-4.4544M451.9251 245.3423c-2.6135-1.0917-5.7501-1.1531-8.1888.2873-2.4388 1.4405-3.9362 4.5282-3.1201 7.2405.1671.5551.4246 1.0882.7986 1.531.5803.687 1.4036 1.1189 2.2294 1.4749 2.5371 1.0936 5.5866 1.5884 7.9885.2229 1.7554-.9979 2.9223-2.9572 2.9635-4.976s-1.0446-4.0242-2.7578-5.0929M466.5315 229.4019c-2.2048.2933-4.2712 1.5135-5.5927 3.3026-.3963.5365-.7326 1.1337-.8593 1.7885-.0931.4812-.0703.9764-.0467 1.466.0885 1.8331.2318 3.801 1.385 5.2287.8725 1.0801 2.2195 1.6896 3.5832 1.9504.7802.1492 1.6053.1931 2.3535-.0737.8468-.3019 1.507-.966 2.1166-1.6269.9903-1.0736 1.959-2.2479 2.3159-3.6642.264-1.0481.1717-2.1491.0691-3.225-.1222-1.2818-.2701-2.6061-.915-3.7206-.645-1.1145-1.9267-1.966-3.1873-1.7039"/>
        <path class="st15" d="M437.5917 226.4764c7.5877 8.5257 17.0522 14.9018 24.3668 23.7563 7.9438 9.6161 15.3756 19.6422 20.9938 30.8154.8798 1.7498 3.5056.2109 2.6273-1.5357-5.475-10.8886-12.6839-20.6773-20.3711-30.0921-7.6497-9.3689-17.486-16.1297-25.4652-25.0954-1.3045-1.4658-3.4502.6923-2.1516 2.1515z"/>
        <g>
          <path class="st22" d="M491.3974 275.8275c-4.137-.8191-8.1239-2.3903-11.7074-4.6139-2.8638-1.777-5.4566-3.956-7.9562-6.2167-2.7968-2.5294-5.5193-5.2058-7.5166-8.4044s-3.2328-6.9923-2.8094-10.7393c.0586-.5183.1816-1.0889.6079-1.3895.342-.2412.7924-.2442 1.2108-.2321a44.9263 44.9263 0 0 1 7.7859.9096c-4.2088-2.1592-7.0229-6.7961-6.9955-11.5264.0036-.6161.0549-1.2461.3035-1.8099.2736-.6204.7695-1.1191 1.3156-1.5209 2.7948-2.0563 7.1736-1.4829 9.3448 1.2237-.5706-2.3239-.4305-4.8172.3967-7.0626.7147-1.9399 2.0403-3.7733 3.9662-4.5251 2.6181-1.022 5.7447.2946 7.4142 2.5554s2.0919 5.2351 1.8652 8.0365c-.2267 2.8013-1.0394 5.5166-1.6186 8.2668a101.845 101.845 0 0 1 6.4084-5.5041c.8209-.6478 1.8546-1.3195 2.8371-.9615.596.2172.9997.7671 1.3292 1.3092 1.8021 2.964 2.4524 6.4663 3.0315 9.8864.5193 3.067 1.0089 6.1535 1.0337 9.264.069 8.6293-3.6363 17.2228-9.9586 23.0964"/>
          <path class="st9" d="M479.1664 243.2334c4.0182 5.4146 7.5499 11.183 10.4277 17.3343 1.4147 3.0824 2.6372 6.2744 3.4746 9.576.8514 3.2917 1.3666 6.6935 1.168 10.1142a.515.515 0 0 1-.5438.4843c-.223-.0129-.4052-.1682-.4648-.3708-.9473-3.2361-1.6549-6.4371-2.472-9.6329-.8312-3.186-1.7228-6.3665-2.8396-9.486-2.1853-6.2523-5.386-12.2071-9.5536-17.3989a.5076.5076 0 1 1 .8035-.6202z"/>
        </g>
      </g>
      <g>
        <path class="st4" d="M483.2694 208.954c4.0223 4.0075 7.8475 8.2034 11.3107 12.7092 3.4623 4.4999 6.6938 9.2083 9.5377 14.1837 2.8428 4.9717 5.202 10.2599 6.845 15.7775a105.7765 105.7765 0 0 1 1.1049 4.1715c.282 1.4119.5393 2.8285.7517 4.2498.1572 1.433.2853 2.8671.3696 4.301.006 1.4459.0109 2.8859-.1166 4.3286-.0493.5589-.5424.9719-1.1013.9226a1.016 1.016 0 0 1-.8616-.6539l-.0175-.047c-.5032-1.3409-.8741-2.6844-1.244-4.022-.4164-1.3298-.7892-2.6595-1.1328-3.9903-.411-1.3174-.7771-2.6395-1.1187-3.9663a96.517 96.517 0 0 1-1.126-3.954c-1.5685-5.2497-3.3616-10.4472-5.5358-15.5289-2.1732-5.078-4.824-9.9919-8.0348-14.5319-3.2095-4.5338-6.8494-8.7951-10.9984-12.5002-.4106-.3666-.4463-.9968-.0796-1.4073.3666-.4106.9967-.4462 1.4073-.0796a.895.895 0 0 1 .0402.0375z"/>
      </g>
      <g>
        <path class="st9" d="M472.5324 195.1993c-1.8694-1.9723-5.6711-1.3961-6.8721 1.0417-.1938.3934-.332.8255-.6253 1.1515-.3323.3693-.8175.5524-1.2426.8095-1.9145 1.158-2.3826 4.1343-.9161 5.8241.6444.7425 1.6384 1.3863 1.6092 2.369-.0215.7263-.6141 1.2825-1.0712 1.8474a6.0092 6.0092 0 0 0-1.2516 2.792c-.2161 1.3172.33 3.0157 1.6566 3.1639.5372.06 1.1276-.1519 1.5968.1166.5332.3052.5938 1.0358.8935 1.5722.486.8699 1.6356 1.1835 2.6138.9934s1.8268-.7744 2.6437-1.345c1.1613 2.6344 4.2921 4.6186 6.9557 3.526.6413-.263 1.2094-.6797 1.8441-.958 1.1395-.4996 2.4598-.5398 3.5342-1.1673 1.6831-.983 2.2808-3.4441 1.2361-5.0896 1.2812-.553 2.5898-1.1787 3.4795-2.2538.8897-1.075 1.2382-2.7228.4482-3.8732-.2023-.2947-.4796-.571-.5085-.9273-.0258-.3176.1548-.6096.2631-.9092.4467-1.2352-.3575-2.5822-1.3343-3.4603s-2.1759-1.5452-2.9087-2.6353c-.6601-.982-.8651-2.199-1.4077-3.2505-.5426-1.0515-1.6866-1.9935-2.819-1.6503-.3378.1024-.6844.3144-1.0177.1983-.3605-.1255-.4902-.5581-.7368-.8495-.5818-.6875-1.6711-.4866-2.5331-.2254-.8623.2613-1.7455.5331-2.46 1.0821-.7144.549-1.2351 1.4435-1.0849 2.332"/>
        <path class="st4" d="M472.6461 203.5393c.6337-1.7655 2.8175-2.8409 4.5624-2.1525 1.7449.6885 2.5838 3.1003 1.5458 4.6628-.3727.5611-.92.9789-1.4569 1.3857-.5693.4314-1.1859.8808-1.8993.9168-.8452.0427-1.6303-.5338-2.0533-1.2668-.4231-.733-.5449-1.5989-.5995-2.4435"/>
      </g>
    </g>
  </g>
</svg>
