<svg id="Layer_1" xmlns="http://www.w3.org/2000/svg" viewBox="0 0 500 262">
  <style>
    .st1{fill:#212d50}.st4{fill:#a5cafa}.st5{fill:#faa76c}.st7{fill:#9b6fef}.st8{fill:#f09a82}.st9{fill:#6610ef}.st15{fill:#ff9c6e}.st17{fill:#fff}.st21{fill:#71b1fc}.st23{font-family:&apos;FiraSans-Black&apos;}.st24{font-size:17.689px}.st27{font-family:&apos;FiraSans-Bold&apos;}.st28{font-size:7.0756px}.st29{font-family:&apos;FiraSans-Regular&apos;}.st30{font-size:8.8445px}
  </style>
  <path class="st1" d="M-15.9948-7h522.4155v272H-15.9948z"/>
  <path class="st8" d="M83.2354 30.1597c-.1312 2.2496-.2642 4.5124-.7779 6.7066s-1.4328 4.3377-2.9609 5.9939a9.8774 9.8774 0 0 1-3.3758 2.3806c-.2171.0925-.4502.1788-.6836.144-.6234-.0928-.8007-.8954-.8314-1.5249l-.1608-3.2967c-.4196 1.5475-.9694 3.2639-2.3891 4.009-1.0956.575-2.4448.3985-3.5987-.0482-.1985-.0769-.4183-.1881-.4691-.3949-.0366-.1493.0284-.3029.0947-.4415.7851-1.641 1.9738-3.087 3.4319-4.1748-1.4389 1.3067-3.9392 1.1815-5.2403-.2623-.5702-.6327-.9113-1.5699-.5645-2.3478.1849-.4147.5387-.7301.9125-.988.991-.6839 2.1977-1.0501 3.4017-1.0323l-3.9564-1.1794c-.121-.0361-.2523-.0797-.3201-.1862-.0655-.1031-.0525-.236-.0324-.3565.3492-2.0937 2.1373-3.73 4.1361-4.4443s4.1859-.6557 6.2992-.4559c2.3027.2177 4.6183.6005 6.7398 1.5218"/>
  <path class="st9" d="M71.7458 36.5286c1.0655-.9047 2.1071-1.8277 3.2088-2.691 1.0991-.8633 2.2076-1.735 3.3783-2.5466 1.1692-.8112 2.4265-1.5148 3.7674-2.0095 1.3325-.5039 2.7662-.798 4.258-.5319a.5504.5504 0 0 1 .2244.9888l-.0076.0054c-1.1921.8513-2.4004 1.3334-3.6441 1.7828-1.2354.4584-2.4886.885-3.7429 1.3671-1.2527.4817-2.4807 1.0663-3.61 1.8091-1.1267.7428-2.2057 1.5758-3.1313 2.5635a.5097.5097 0 1 1-.701-.7377z"/>
  <path class="st7" d="M468.0544 65.8284a11.4565 11.4565 0 0 0-4.0722-.3799c-1.0912.0951-2.1629.3466-3.2195.6354-1.1823.3231-2.3645.6998-3.4131 1.3343s-1.9635 1.5534-2.3906 2.7022c-.0591.1589-.1071.3424-.0276.4922.0638.1201.194.1871.3171.245a14.6065 14.6065 0 0 0 2.3914.8787c-1.5374.0086-3.0339.9404-3.72 2.3162-.0894.1792-.167.3694-.1776.5694-.0117.2201.0589.4374.1584.6341.5088 1.0064 1.8628 1.4827 2.8896 1.0164a3.958 3.958 0 0 0-.9213 2.1064c-.0774.6675.038 1.3937.4862 1.8943.6093.6805 1.7092.7575 2.5251.3469s1.3748-1.2112 1.7202-2.0569c.3453-.8457.5081-1.7524.7437-2.6349.315.8596.6656 1.7061 1.0508 2.5366.143.3083.3442.6548.6817.6952.2047.0245.4025-.0758.5776-.1846.9576-.5951 1.66-1.5154 2.3298-2.4223.6006-.8132 1.1955-1.6365 1.6592-2.5349 1.2863-2.4924 1.4727-5.5282.5011-8.1593"/>
  <path class="st9" d="M459.4345 72.8779c.9934-.3933 1.9158-.9505 2.7713-1.5858.8563-.6374 1.6159-1.3994 2.298-2.2112.6836-.8121 1.3277-1.6287 2.0098-2.4042.6756-.7873 1.3847-1.5161 2.4509-2.0859l.0107-.0057a.5731.5731 0 0 1 .8403.5638c-.1278 1.2508-.7421 2.2574-1.5023 3.1066-.7538.8611-1.6579 1.5823-2.6185 2.1973-.9621.6152-1.9427 1.1697-2.9069 1.7264l-2.9151 1.6172a.51.51 0 1 1-.4382-.9185z"/>
  <path class="st21" d="M43.2184 73.8672a16.1086 16.1086 0 0 0 .4053-5.7366c-.1682-1.531-.5556-3.0296-.995-4.5058-.4916-1.6517-1.0585-3.3018-1.9836-4.7558-.9251-1.454-2.2458-2.7112-3.8742-3.2752-.2253-.078-.4848-.1398-.6927-.0233-.1669.0935-.2569.2786-.3344.4535a20.5349 20.5349 0 0 0-1.1596 3.3895c-.0607-2.161-1.4178-4.2352-3.3736-5.1563-.2547-.12-.5246-.223-.8061-.2316-.3097-.0095-.6131.0967-.8864.2427-1.3987.747-2.0254 2.6655-1.3374 4.0942-.8457-.6933-1.9013-1.127-2.9902-1.2286-.9407-.0877-1.958.0975-2.6475.7434-.9374.878-1.0109 2.4267-.4078 3.5607.6031 1.134 1.7462 1.8945 2.9459 2.3531s2.4795.6588 3.7275.9621a46.546 46.546 0 0 0-3.5326 1.5574c-.4289.2108-.9096.5046-.9557.9802-.0279.2886.1192.5634.2778.8061.8669 1.3272 2.1828 2.2857 3.4788 3.1986 1.1622.8187 2.3383 1.6289 3.6159 2.2523 3.5444 1.7294 7.8179 1.8955 11.4859.4465"/>
  <path class="st9" d="M32.7875 62.0981c.6213 1.3798 1.4327 2.6679 2.3283 3.8835.8977 1.2163 1.9403 2.3198 3.0503 3.3314 1.0988 1.0243 2.2611 1.9575 3.3904 2.9171 1.1421.9522 2.269 1.8925 3.2832 3.1137a.459.459 0 0 1-.0539.6469c-.1156.0977-.272.1268-.4088.0945-1.583-.3997-2.9374-1.265-4.1413-2.2795-1.2168-1.0072-2.2652-2.2017-3.2245-3.4437-.9482-1.2547-1.8112-2.5558-2.6496-3.861-.8405-1.3058-1.5957-2.6559-2.3542-4.009a.4373.4373 0 1 1 .7801-.3939z"/>
  <path class="st5" d="M417.762 45.2193a11.9855 11.9855 0 0 0 4.2777-.1086c1.1219-.2337 2.2043-.6274 3.2663-1.058 1.1883-.4818 2.3701-1.0193 3.381-1.8081s1.848-1.8565 2.1497-3.1028c.0417-.1724.069-.369-.0321-.5147-.0811-.1169-.2246-.1704-.3597-.2153a15.2768 15.2768 0 0 0-2.5931-.6173c1.5962-.1989 3.0358-1.3519 3.5786-2.8661.0707-.1972.1278-.4044.1141-.6135-.015-.2301-.1153-.4472-.2429-.6392-.653-.9827-2.1185-1.3102-3.1277-.6988.4532-.6758.6992-1.4885.6968-2.3022-.002-.703-.2117-1.4432-.7392-1.9079-.7171-.6317-1.8694-.5758-2.6663-.0483-.7969.5275-1.2787 1.4283-1.5329 2.3495s-.3112 1.8833-.4469 2.8293a34.6253 34.6253 0 0 0-1.4052-2.5054c-.1867-.3027-.4385-.6378-.7941-.638-.2157-.0001-.4088.1285-.5772.2632-.9213.7366-1.5374 1.7795-2.1212 2.8045-.5235.9191-1.0398 1.8479-1.4105 2.8386-1.0283 2.7484-.8468 5.9254.4878 8.5388"/>
  <path class="st9" d="M425.7952 36.7496c-.9827.5413-1.8704 1.2405-2.6947 1.9963-.8248.7581-1.5405 1.6293-2.1777 2.5411l-1.8498 2.7336c-.6127.9076-1.2475 1.7772-2.1889 2.5545l-.0056.0046a.4752.4752 0 0 1-.7768-.3942c.074-1.2618.5997-2.3586 1.2764-3.3287.671-.979 1.4959-1.846 2.3899-2.619.8946-.774 1.8242-1.4855 2.7431-2.193.9195-.7097 1.8741-1.3588 2.8172-2.0341a.4377.4377 0 0 1 .611.0999.4377.4377 0 0 1-.1441.639z"/>
  <text transform="translate(177.624 84.7334)">
    <tspan x="0" y="0" class="st7 st23 st24">¡</tspan><tspan x="4.9526" y="0" class="st7 st23 st24">P</tspan><tspan x="16.1147" y="0" class="st7 st23 st24">r</tspan><tspan x="23.5439" y="0" class="st7 st23 st24">ó</tspan><tspan x="34.3164" y="0" class="st7 st23 st24">ximamen</tspan><tspan x="112.9253" y="0" class="st7 st23 st24">t</tspan><tspan x="120.3726" y="0" class="st7 st23 st24">e!</tspan>
  </text>
  <path fill="none" stroke="#fff" stroke-width=".2684" stroke-miterlimit="10" d="M84.0955 200.0971h322.2348v32.7247H84.0955z"/>
  <path fill="none" stroke="#fff" stroke-width=".2948" stroke-miterlimit="10" d="M273.0731 199.9496v32.7247"/>
  <text transform="translate(308.792 219.916)">
    <tspan x="0" y="0" class="st15 st27 st28">E</tspan><tspan x="3.8276" y="0" class="st15 st27 st28">n</tspan><tspan x="8.0449" y="0" class="st15 st27 st28">viar el men</tspan><tspan x="45.6582" y="0" class="st15 st27 st28">sa</tspan><tspan x="53.165" y="0" class="st15 st27 st28">je</tspan>
  </text>
  <text transform="translate(105.9287 219.916)">
    <tspan x="0" y="0" class="st17 st29 st28">*</tspan><tspan x="3.106" y="0" class="st17 st29 st28">E</tspan><tspan x="6.8208" y="0" class="st17 st29 st28">mail de </tspan><tspan x="32.6396" y="0" class="st17 st29 st28">c</tspan><tspan x="35.8799" y="0" class="st17 st29 st28">on</tspan><tspan x="44.1587" y="0" class="st17 st29 st28">t</tspan><tspan x="46.6636" y="0" class="st17 st29 st28">ac</tspan><tspan x="53.8945" y="0" class="st17 st29 st28">t</tspan><tspan x="56.3428" y="0" class="st17 st29 st28">o</tspan>
  </text>
  <text transform="translate(80.3164 114.6924)">
    <tspan x="0" y="0" class="st17 st29 st30">E</tspan><tspan x="4.6875" y="0" class="st17 st29 st30">s</tspan><tspan x="8.8179" y="0" class="st17 st29 st30">t</tspan><tspan x="11.9487" y="0" class="st17 st29 st30">a </tspan><tspan x="19.104" y="0" class="st17 st29 st30">pá</tspan><tspan x="28.9922" y="0" class="st17 st29 st30">gina es</tspan><tspan x="57.374" y="0" class="st17 st29 st30">t</tspan><tspan x="60.5049" y="0" class="st17 st29 st30">á en p</tspan><tspan x="85.2603" y="0" class="st17 st29 st30">r</tspan><tspan x="88.4092" y="0" class="st17 st29 st30">o</tspan><tspan x="93.5742" y="0" class="st17 st29 st30">c</tspan><tspan x="97.625" y="0" class="st17 st29 st30">es</tspan><tspan x="106.5757" y="0" class="st17 st29 st30">o</tspan><tspan x="111.6523" y="0" class="st17 st29 st30">, podes </tspan><tspan x="143.1206" y="0" class="st17 st29 st30">v</tspan><tspan x="147.437" y="0" class="st17 st29 st30">o</tspan><tspan x="152.6021" y="0" class="st17 st29 st30">l</tspan><tspan x="155.105" y="0" class="st17 st29 st30">v</tspan><tspan x="159.4209" y="0" class="st17 st29 st30">er a visi</tspan><tspan x="190.624" y="0" class="st17 st29 st30">t</tspan><tspan x="193.7549" y="0" class="st17 st29 st30">ar</tspan><tspan x="201.9805" y="0" class="st17 st29 st30">l</tspan><tspan x="204.5273" y="0" class="st17 st29 st30">a en un</tspan><tspan x="234.3599" y="0" class="st17 st29 st30">a</tspan><tspan x="239.0825" y="0" class="st17 st29 st30">s seman</tspan><tspan x="272.0811" y="0" class="st17 st29 st30">a</tspan><tspan x="276.8042" y="0" class="st17 st29 st30">s o ser de </tspan><tspan x="317.9487" y="0" class="st17 st29 st30">l</tspan><tspan x="320.4956" y="0" class="st17 st29 st30">os </tspan><tspan x="78.9102" y="14.1514" class="st17 st29 st30">prime</tspan><tspan x="102.4717" y="14.1514" class="st17 st29 st30">r</tspan><tspan x="105.6201" y="14.1514" class="st17 st29 st30">os en en</tspan><tspan x="139.6094" y="14.1514" class="st17 st29 st30">t</tspan><tspan x="142.6694" y="14.1514" class="st17 st29 st30">e</tspan><tspan x="147.4897" y="14.1514" class="st17 st29 st30">r</tspan><tspan x="150.5942" y="14.1514" class="st17 st29 st30">ar</tspan><tspan x="158.8193" y="14.1514" class="st17 st29 st30">t</tspan><tspan x="161.8794" y="14.1514" class="st17 st29 st30">e suscribiendo</tspan><tspan x="220.792" y="14.1514" class="st17 st29 st30">t</tspan><tspan x="223.8525" y="14.1514" class="st17 st29 st30">e aquí.</tspan>
  </text>
  <path class="st15" d="M185.909 282.6621c-11.9905.6104-28.7376-7.1217-29.477-20.843-.4008-7.4407 3.8218-14.9866 1.6028-22.1001-2.4764-7.9385-11.7481-11.6063-16.1593-18.6556-3.4467-5.508-3.5221-12.621-1.5939-18.8259s5.6514-11.6789 9.5047-16.9106c1.0919 5.4662 5.809 9.4502 10.6508 12.2123 4.8417 2.7621 10.1895 4.8375 14.2344 8.6728 5.3088 5.0337 7.7098 12.9413 6.0959 20.077-.7794 3.4458-2.4303 6.8451-1.9178 10.3406.8693 5.9299 7.1946 9.0733 12.0038 12.6497 5.0566 3.7605 9.146 9.1854 10.095 15.4152.949 6.2298-1.7862 13.1828-7.3636 16.1159-2.3482 1.2348-5.0264 1.7168-7.6758 1.8517z"/>
  <path class="st1" d="M148.4011 197.4596c2.7899 6.4122 7.1294 11.9755 10.1922 18.2568 3.0746 6.3056 5.425 12.9267 7.826 19.5082 4.1824 11.4649 8.6406 22.882 16.8447 32.134.3784.4267 1.002-.2007.6254-.6254-9.1751-10.3472-13.5383-23.4118-18.2324-36.17-1.9932-5.4174-4.0674-10.8188-6.6468-15.9893-3.0029-6.0193-7.1578-11.3838-9.8453-17.5607-.2266-.5206-.9889-.0709-.7638.4464zM162.4559 210.0177c.3286-1.9112.8858-3.7441 1.6979-5.5065.2366-.5135-.5255-.9633-.7637-.4464-.844 1.8314-1.4452 3.7294-1.7871 5.7178-.0957.5566.7565.7958.8529.2351zM167.315 216.7697c1.0201-1.8322 2.2128-3.5376 3.5919-5.1181.3728-.4272-.2503-1.0553-.6254-.6254-1.4275 1.6359-2.6738 3.3997-3.7302 5.2971-.2772.4978.4865.9443.7637.4464zM169.8233 225.226l5.3761-2.115c.5237-.206.2956-1.0617-.2351-.8529l-5.3761 2.115c-.5237.206-.2956 1.0617.2351.8529zM146.3353 208.8736c1.7655.3745 3.4576.9387 5.0883 1.7145.5114.2433.9607-.519.4464-.7637-1.6979-.8078-3.4594-1.4133-5.2995-1.8037-.5553-.1177-.7926.7347-.2352.8529zM151.8111 217.2536l-4.7607 1.0568c-.5554.1233-.3204.9762.2351.8529l4.7607-1.0568c.5555-.1234.3204-.9762-.2351-.8529zM157.4837 222.0907c-1.1507 1.042-2.5562 1.6395-4.1068 1.7393-.5652.0364-.5693.9211 0 .8844 1.79-.1152 3.4018-.7937 4.7321-1.9983.423-.3828-.204-1.0068-.6253-.6254zM182.4363 251.9453c-.1438-.8736.126-1.7452.7166-2.4.3804-.4217-.2432-1.0491-.6254-.6254-.8188.9077-1.1421 2.0579-.9441 3.2605.0923.5603.9447.3226.8529-.2351zM185.4361 258.202c.6936-1.2437 1.4865-2.4187 2.391-3.5189.3587-.4363-.2635-1.0656-.6254-.6254-.9524 1.1585-1.7986 2.3878-2.5293 3.6979-.2775.4976.4862.9441.7637.4464zM190.0967 263.9661l3.4296-1.6248c.5141-.2436.0657-1.0063-.4464-.7637l-3.4295 1.6248c-.5141.2436-.0658 1.0064.4463.7637zM162.2308 249.4849c1.2177.6877 2.5262 1.0831 3.9185 1.202.5671.0484.5638-.8363 0-.8844-1.236-.1056-2.3927-.4717-3.4721-1.0813-.4962-.2803-.9425.4835-.4464.7637zM162.4021 256.7664c1.9088 1.2054 4.0658 1.6244 6.2903 1.2785.5607-.0872.3226-.9396-.2351-.8529-1.989.3092-3.9127-.1184-5.6088-1.1894-.4827-.3047-.927.4604-.4464.7638z"/>
  <path class="st15" d="M315.1575 282.4487c12.0024-.2956 28.1186-9.2688 27.8211-23.0068-.1615-7.4498-4.9412-14.6557-3.265-21.9163 1.8706-8.1026 10.8393-12.4593 14.7063-19.8212 3.0215-5.7523 2.5602-12.8507.1696-18.8925-2.3907-6.0417-6.5161-11.2194-10.7531-16.1456-.6765 5.533-5.0797 9.8614-9.6994 12.9808-4.6196 3.1194-9.7956 5.5922-13.5398 9.7217-4.9141 5.4197-6.7119 13.486-4.5644 20.4795 1.037 3.3772 2.9396 6.6423 2.6923 10.1665-.4196 5.9785-6.4898 9.59-11.0155 13.519-4.7586 4.1312-8.4272 9.849-8.9037 16.1327-.4764 6.2836 2.7754 13.0105 8.5581 15.5146 2.4345 1.0543 5.1414 1.333 7.7935 1.2676z"/>
  <path class="st1" d="M345.3086 194.3487c-2.1422 6.1556-5.7487 11.6336-8.2444 17.6406-2.4634 5.9294-4.2647 12.1008-6.0085 18.2716-3.586 12.6903-7.0279 25.5465-15.1321 36.2169-.3442.4532.4235.8943.7637.4464 7.8198-10.2959 11.3347-22.6123 14.7857-34.8782 1.7378-6.1767 3.4754-12.3729 5.8448-18.3441 2.5971-6.5453 6.5278-12.4639 8.8436-19.1182.1875-.5385-.6666-.7701-.8528-.235zM333.9077 207.9754c-.4903-1.9547-1.2265-3.8094-2.2054-5.5704-.2766-.4976-1.0408-.052-.7637.4464.9433 1.697 1.6439 3.4762 2.1162 5.3591.1385.5518.9917.318.8529-.2351zM329.4747 214.8671c-1.1953-1.8119-2.5654-3.4834-4.1125-5.0061-.406-.3996-1.0319.2253-.6254.6254 1.4938 1.4703 2.8199 3.0773 3.9742 4.8271.3121.4731 1.0783.0305.7637-.4464zM327.0682 223.1025l-5.5203-1.7035c-.5451-.1682-.7782.6853-.2351.8529l5.5203 1.7035c.545.1682.7782-.6853.2351-.8529zM348.7864 205.043a23.785 23.785 0 0 0-5.1521 2.1904c-.494.2826-.049 1.047.4464.7637a22.776 22.776 0 0 1 4.9408-2.1012c.5452-.1595.3132-1.0133-.2351-.8529zM344.0225 215.5154l4.8269.6947c.5567.0801.7972-.772.2351-.8528l-4.8269-.6947c-.5567-.0802-.7972.7719-.2351.8528zM338.3326 220.5542c1.4162 1.1 3.0623 1.6799 4.8605 1.6597.5688-.0064.5703-.8909 0-.8844-1.5482.0174-3.0075-.4472-4.2351-1.4007-.4442-.3451-1.0746.2765-.6254.6254zM317.18 251.6426c.1016-1.1557-.3329-2.2736-1.171-3.0723-.412-.3927-1.0384.2317-.6254.6254.6866.6544.9947 1.5051.9119 2.4469-.0498.5669.8349.5635.8845 0zM314.53 257.548a24.8948 24.8948 0 0 0-2.7944-3.5021c-.3945-.4118-1.0193.2141-.6254.6254a23.6 23.6 0 0 1 2.6561 3.3231c.3124.4729 1.0787.0304.7637-.4464zM309.8829 263.2979l-3.5423-1.3615c-.5317-.2044-.7618.6504-.2351.8528l3.5423 1.3615c.5317.2044.7618-.6504.2351-.8528zM335.7914 246.8344c-1.069.7166-2.2231 1.1679-3.493 1.3725-.5605.0903-.3226.9427.2351.8529 1.3348-.2151 2.5816-.7091 3.7043-1.4617.4705-.3153.0282-1.0818-.4464-.7637zM336.1698 254.1082c-1.6566 1.2339-3.5563 1.7843-5.6163 1.6188-.5674-.0456-.5644.8391 0 .8844 2.1897.176 4.3006-.427 6.0627-1.7395.4513-.3362.0108-1.1043-.4464-.7637z"/>
  <g>
    <path class="st5" d="M226.7638 281.368c-5.3432 2.165-12.4293 1.1686-17.6701-.4147-1.6161-.4883-3.2374-1.0241-4.6764-1.907-1.684-1.0331-3.0513-2.4991-4.3961-3.9465-3.7993-4.0889-5.8805-6.638-5.6383-12.3713.1991-4.713 2.4159-9.3646 6.3323-12.1016 2.1454-1.4994 4.7251-2.477 6.3941-4.4934 3.8641-4.6685.876-11.5243-.5346-17.418-3.4834-14.5538 5.7349-31.0078 19.9657-35.6373-1.8221 4.405.0679 9.5146 2.8622 13.3767 2.7942 3.8622 6.478 7.0614 8.9278 11.1507 4.831 8.0641 3.8214 19.2-2.3812 26.2637-2.483 2.8278-5.8669 5.3981-6.2433 9.1424-.4348 4.3251 3.3554 7.8098 4.8539 11.8903 2.1776 5.9298-1.229 13.1633-6.7342 15.9812-.3453.1767-.6995.338-1.0618.4848z"/>
    <path class="st1" d="M220.8001 207.7002c-4.8358 10.8852 1.2579 22.0829-.0696 33.3076-1.2044 10.1837-10.439 19.8087-4.9437 30.2052.2661.5034 1.0298.057.7637-.4464-5.4698-10.3482 4.3114-20.2457 5.1737-30.4901.9085-10.7932-4.8012-21.6835-.1604-32.1298.229-.5157-.5328-.9662-.7637-.4465zM226.3586 222.5877c1.1886-.999 2.1415-2.2219 2.8208-3.6181.248-.5098-.5145-.9587-.7637-.4464-.6498 1.3357-1.5455 2.4835-2.6825 3.4392-.4362.3666.1922.9895.6254.6253zM228.5276 228.9055c1.1947.4782 2.4872.4986 3.6988.068.5326-.1893.3031-1.0441-.2351-.8529-1.0838.3851-2.1621.3588-3.2285-.068-.5285-.2115-.758.6436-.2352.8529zM227.4264 237.7315c.9652 1.4691 2.3312 2.5353 3.9881 3.1208.5377.19.769-.6642.2351-.8529-1.4306-.5056-2.6266-1.4466-3.4595-2.7143-.3113-.4738-1.0775-.0312-.7637.4464zM213.1121 216.9799c.7146 1.2308 1.7164 2.239 2.9416 2.9629.4911.2902.9366-.4741.4464-.7637-1.099-.6493-1.9834-1.5418-2.6243-2.6456-.2857-.4921-1.0504-.0473-.7637.4464zM211.3561 225.3339c1.1695 1.0016 2.5518 1.5652 4.0897 1.661.5684.0354.5663-.8492 0-.8845-1.2919-.0804-2.4802-.5591-3.4643-1.4019-.4301-.3684-1.0585.2544-.6254.6254z"/>
    <path class="st1" d="M212.8597 234.9256c1.4375.0706 2.7944-.4641 3.808-1.4831.4019-.404-.2233-1.0297-.6254-.6254-.8616.8661-1.965 1.2839-3.1826 1.2241-.5689-.028-.5674.8565 0 .8844zM220.5352 258.3222c1.9644-.3718 3.7825-1.141 5.4171-2.2921.4618-.3252.0204-1.0924-.4464-.7637-1.5806 1.1131-3.3063 1.8434-5.2058 2.2029-.5586.1058-.322.9583.2351.8529zM208.3605 253.503l3.0826 2.4982c.4384.3553 1.0679-.2668.6254-.6254l-3.0826-2.4982c-.4384-.3553-1.0679.2668-.6254.6254zM206.9526 260.4623l3.386 1.9125c.4962.2803.9425-.4835.4464-.7637a57896.221 57896.221 0 0 1-3.386-1.9126c-.4962-.2801-.9425.4836-.4464.7638z"/>
  </g>
  <g>
    <path class="st8" d="M212.0834 270.4862c-5.8905 12.4197-25.9998 14.4657-34.4415 3.4122-2.9686-3.8873-3.7498-9.8755-.6508-13.8434 3.0089-3.8524 5.1147-7.0132 4.7141-12.3596-.3675-4.9037-3.3188-9.1639-5.822-13.3965-2.5033-4.2327-4.7019-9.1944-3.3981-13.9359 2.1287-7.7414 10.3838-11.225 14.6073-17.5635l10.0349 7.7534c4.8833 3.7731 10.2947 8.7397 9.496 14.8588-.7804 5.9787-7.4514 11.3724-4.866 16.8194.9922 2.0904 3.1138 3.3507 4.9008 4.8206 6.6699 5.4862 9.1263 15.6312 5.4253 23.4345z"/>
    <path class="st1" d="M187.2119 212.2608c-1.6653 8.8015-.6864 17.0674 2.3068 25.4661 3.8495 10.8015 5.9715 21.1686 4.3136 32.6735-.0802.5567.7719.7972.8529.2351 1.3024-9.0378.7305-18.0797-2.0668-26.7946-3.4309-10.6889-6.7211-19.889-4.5536-31.345.1052-.5562-.7471-.7945-.8529-.2351zM192.792 220.2278c.9779-.8168 1.807-1.7778 2.4831-2.8572.303-.4838-.4619-.9282-.7637-.4464-.6379 1.0185-1.4229 1.9081-2.3448 2.6782-.4373.3653.1912.9881.6254.6254zM195.2728 227.1704c1.3932-.6025 2.6723-1.3779 3.8677-2.3118.4481-.3501-.1818-.972-.6254-.6254-1.1323.8846-2.3707 1.6036-3.6887 2.1735-.521.2254-.0711.9876.4464.7637zM194.0139 236.6458c1.1763.0042 2.3045.2047 3.4127.5967.5376.1902.7689-.664.2351-.8529-1.1806-.4177-2.3959-.6238-3.6478-.6283-.5692-.0019-.57.8825 0 .8845zM179.0137 218.1709c.8297 1.1253 1.8978 1.9458 3.1992 2.4569.53.2081.7598-.6468.2351-.8529a6.0772 6.0772 0 0 1-2.6706-2.0505c-.3342-.4532-1.1021-.0125-.7637.4465zM178.354 224.9592c1.0723 1.5589 2.9964 2.2694 4.819 1.7185.5434-.1642.3118-1.0182-.2351-.8529-1.4274.4315-2.9682-.0733-3.8202-1.312-.3205-.466-1.0873-.0242-.7637.4464zM181.1047 234.8352c1.4828-.2215 2.5745-1.4574 2.7597-2.9154.0715-.5631-.8136-.5579-.8844 0-.1386 1.0908-1.0522 1.9045-2.1104 2.0625-.561.0838-.3226.9362.2351.8529zM198.7758 254.8972l3.0719-2.0675c.4698-.3162.0276-1.0827-.4464-.7637l-3.0719 2.0675c-.4697.3162-.0275 1.0827.4464.7637zM200.4464 261.4271c1.1288.6985 2.3709 1.0838 3.6944 1.1683.5683.0363.5661-.8483 0-.8844-1.1712-.0749-2.2508-.4305-3.248-1.0476-.4853-.3003-.93.4645-.4464.7637zM186.2856 251.9197l3.5011 1.2062c.5393.1858.7709-.6683.2351-.8529l-3.5011-1.2062c-.5393-.1857-.7709.6683-.2351.8529zM186.0946 258.5481l3.2678-1.0861c.5375-.1786.3072-1.0331-.2351-.8528l-3.2678 1.0861c-.5375.1786-.3071 1.033.2351.8528z"/>
  </g>
  <g>
    <path class="st5" d="M16.4576 254.1879c-2.8583 4.0388-8.4401 6.6004-12.9603 7.8833-1.3939.3956-2.8135.7592-4.2622.7877-1.6953.0334-3.3622-.3928-5.0042-.8158-4.6389-1.1951-7.3232-2.0733-9.8033-6.3283-2.0387-3.4977-2.591-7.8856-1.0286-11.677.8559-2.077 2.2672-3.9781 2.5394-6.2079.6302-5.1629-4.7039-8.733-8.4526-12.3385-9.2569-8.9032-10.2157-25.0617-2.0766-34.9971.7234 4.0268 4.4553 6.8436 8.2629 8.3404s7.951 2.1025 11.615 3.9229c7.2253 3.5898 11.6528 12.104 10.4421 20.0806-.4847 3.1932-1.7395 6.6175-.2775 9.4975 1.6887 3.3267 6.0413 4.0894 9.0137 6.3439 4.3196 3.2764 5.2079 10.0808 2.5348 14.6664a11.3304 11.3304 0 0 1-.5426.8419z"/>
    <path class="st1" d="M-22.0143 203.8203c1.3837 9.1619 9.4907 14.4093 14.1614 21.8059 5.1783 8.2003 2.2011 20.9289 11.6252 26.351.4942.2844.9402-.4796.4464-.7637-9.3207-5.3627-6.4046-18.988-12.0403-27.1351-4.6748-6.7579-12.0409-11.8922-13.3399-20.4932-.0846-.561-.937-.3226-.8528.2351zM-3.3223 222.3936c1.4113.6182 2.8773.7705 4.3826.4283.5548-.1261.32-.9791-.2351-.8529-1.2543.2852-2.52.1783-3.7011-.3391-.5163-.2262-.9671.5356-.4464.7637zM1.3147 240.4787c1.2846-1.2081 2.2492-2.6461 2.9109-4.2788.2137-.5273-.6415-.7567-.8529-.2351-.6025 1.4866-1.5165 2.7911-2.6834 3.8885-.4155.3908.2108 1.0154.6254.6254zM4.8916 243.8451l3.668-1.4003c.5265-.201.298-1.0564-.2351-.8529l-3.668 1.4003c-.5265.201-.298 1.0564.2351.8529zM6.9991 249.1787l3.8533-.4518c.5585-.0655.5652-.9507 0-.8845l-3.8533.4518c-.5585.0655-.5651.9507 0 .8845z"/>
  </g>
  <g>
    <path class="st8" d="M507.3687 261.1522c-8.4825 8.199-25.2556 3.7707-28.6999-7.6585-1.2112-4.0194-.0306-9.0661 3.6572-11.318 3.5805-2.1864 6.2267-4.0898 7.5192-8.5061 1.1854-4.0505.1008-8.3642-.6321-12.5204-.733-4.1563-1.0011-8.8064 1.4781-12.2219 4.0477-5.5765 11.7315-5.8825 17.0385-9.6994l5.7206 9.259c2.7839 4.5057 5.6316 10.1298 3.1422 14.8046-2.4323 4.5676-9.4202 6.8864-8.988 12.043.1659 1.979 1.4898 3.6321 2.4817 5.3526 3.702 6.4217 2.6122 15.3136-2.7175 20.4651z"/>
    <path class="st1" d="M504.8941 206.8652c-3.9532 6.5302-5.6577 13.3428-5.8204 20.9491-.2151 10.0605-1.5158 18.8167-6.4164 27.7581-.2737.4994.4897.9462.7637.4464 3.5107-6.4054 5.7458-13.2991 6.3197-20.6058.8073-10.2794.3419-18.8918 5.9171-28.1014.2955-.4882-.469-.9332-.7637-.4464zM496.5458 209.1913c.3179 1.1198.9266 2.1111 1.7911 2.8919.4215.3807 1.0489-.2429.6254-.6254-.7559-.6827-1.2853-1.5213-1.5636-2.5016-.1552-.5467-1.0089-.3143-.8529.2351zM493.9661 214.4457c.3888 1.6069 1.7996 2.7472 3.4392 2.8463.5685.0344.5665-.8502 0-.8844-1.2543-.0758-2.2933-.9861-2.5863-2.197-.1338-.553-.9869-.3188-.8529.2351zM493.1628 223.2052c1.2748.265 2.5862-.3094 3.2072-1.4675.2689-.5015-.4943-.9488-.7637-.4464-.4267.7958-1.3133 1.2471-2.2084 1.0611-.5554-.1155-.7929.7368-.2351.8528zM497.4759 254.4404l1.7546 3.0333c.2849.4926 1.0495.0477.7637-.4464l-1.7546-3.0333c-.2849-.4925-1.0495-.0477-.7637.4464zM492.1601 238.4522l2.4485 2.0262c.4354.3603 1.0645-.2621.6254-.6254l-2.4485-2.0262c-.4354-.3603-1.0645.2621-.6254.6254zM490.129 243.7782l2.9532.1142c.5692.022.5683-.8625 0-.8844l-2.9532-.1142c-.5692-.0221-.5682.8624 0 .8844zM491.4369 248.5871c-.7229.4643-1.4881.7951-2.3224 1.0018-.5522.1368-.3183.99.2351.8529a8.413 8.413 0 0 0 2.5337-1.091c.4774-.3066.0344-1.0725-.4464-.7637z"/>
  </g>
  <g>
    <path class="st5" d="M112.9182 281.2426c-5.7508 2.3301-13.3773 1.2578-19.0179-.4464-1.7394-.5255-3.4843-1.1022-5.0331-2.0524-1.8125-1.112-3.2841-2.6898-4.7315-4.2475-4.0891-4.4008-6.3291-7.1443-6.0684-13.315.2143-5.0725 2.6002-10.0789 6.8153-13.0247 2.3091-1.6138 5.0855-2.666 6.8818-4.8361 4.1589-5.0246.9429-12.4033-.5754-18.7466-3.7491-15.6639 6.1723-33.373 21.4886-38.3556-1.961 4.7411.0731 10.2403 3.0805 14.3971 3.0074 4.1568 6.9721 7.6 9.6088 12.0013 5.1995 8.6792 4.1128 20.6646-2.5628 28.2671-2.6724 3.0435-6.3144 5.8099-6.7195 9.8398-.468 4.655 3.6113 8.4055 5.2241 12.7972 2.3437 6.3822-1.3227 14.1674-7.2479 17.2002-.3714.19-.7527.3636-1.1426.5216z"/>
    <path class="st1" d="M106.5287 201.9726c-4.9279 10.9796.5986 22.3309.1302 33.6835-.4836 11.7187-11.7401 22.8832-5.5259 34.6398.2661.5034 1.0298.057.7637-.4464-6.0474-11.441 5.2019-22.6888 5.6466-34.1934.4309-11.1487-5.087-22.462-.2509-33.2371.2312-.515-.5308-.9653-.7637-.4464zM112.4582 217.9549c1.2774-1.0737 2.3007-2.3867 3.0307-3.8873.248-.5098-.5145-.9587-.7637-.4464-.7004 1.4399-1.6667 2.6782-2.8924 3.7083-.4362.3666.1922.9895.6254.6254zM114.8255 224.7458c1.2809.5127 2.6639.5349 3.963.0732.5326-.1893.3031-1.0441-.2351-.8529-1.1715.4163-2.34.3882-3.4927-.0732-.5285-.2114-.758.6437-.2352.8529zM113.6604 234.2606c1.0338 1.5735 2.4975 2.7162 4.2721 3.3433.5377.19.769-.6642.2351-.8528-1.5484-.5472-2.8421-1.5648-3.7436-2.9368-.3111-.4739-1.0773-.0313-.7636.4463zM98.2543 211.926c.7663 1.3198 1.84 2.4005 3.1539 3.1768.4911.2902.9366-.4741.4464-.7637-1.1877-.7017-2.144-1.6666-2.8366-2.8595-.2857-.492-1.0504-.0472-.7637.4464zM96.3591 220.9105c1.2515 1.0719 2.732 1.6753 4.3778 1.7778.5684.0354.5663-.8492 0-.8845-1.4-.0872-2.686-.6054-3.7524-1.5187-.4301-.3684-1.0585.2544-.6254.6254z"/>
    <path class="st1" d="M97.9536 231.2239c1.5387.0756 2.9896-.4956 4.0747-1.5863.4019-.404-.2232-1.0296-.6254-.6254-.9333.9382-2.1302 1.3921-3.4493 1.3273-.569-.028-.5675.8565 0 .8844zM106.2056 256.4064c2.1119-.3997 4.065-1.2261 5.8222-2.4635.4618-.3252.0204-1.0924-.4464-.7637-1.7032 1.1994-3.5641 1.9869-5.6109 2.3743-.5586.1057-.3221.9583.2351.8529zM107.7521 262.3929l4.8202 1.0035c.5554.1156.7929-.7368.2351-.8529l-4.8202-1.0035c-.5554-.1156-.7929.7368-.2351.8529zM93.135 251.2283l3.3177 2.6888c.4384.3553 1.0679-.2668.6254-.6254l-3.3177-2.6888c-.4384-.3553-1.0679.2668-.6254.6254zM91.6129 258.7132l3.6443 2.0584c.4963.2803.9425-.4835.4464-.7637l-3.6443-2.0584c-.4963-.2803-.9425.4835-.4464.7637z"/>
  </g>
  <g>
    <path class="st8" d="M97.118 269.5307c-6.3399 13.367-27.983 15.5691-37.0687 3.6725-3.1951-4.1838-4.0359-10.6288-.7004-14.8994 3.2384-4.1463 5.5049-7.5482 5.0736-13.3024-.3956-5.2777-3.5719-9.8629-6.2661-14.4184s-5.0605-9.8958-3.6573-14.999c2.2911-8.3319 11.1758-12.0812 15.7215-18.9032l10.8003 8.3448c5.2558 4.0609 11.08 9.4063 10.2203 15.9922-.8399 6.4348-8.0198 12.2398-5.2372 18.1024 1.0678 2.2498 3.3513 3.6063 5.2747 5.1883 7.1789 5.9049 9.8227 16.8237 5.8393 25.2222z"/>
    <path class="st1" d="M70.3819 206.8731c-1.807 9.4577-.7322 18.3696 2.4828 27.3907 4.1474 11.6375 6.442 22.7948 4.6426 35.1837-.0809.5567.7712.7971.8529.2351 1.4106-9.712.7825-19.4572-2.2244-28.8205-1.5648-4.8726-3.6761-9.5763-4.784-14.5899-1.4052-6.3591-1.3354-12.7866-.117-19.164.1062-.5562-.7461-.7945-.8529-.2351zM76.3312 215.4149c1.0503-.8774 1.941-1.9089 2.6673-3.0683.303-.4838-.4619-.9282-.7637-.4464-.6881 1.0985-1.5346 2.0587-2.529 2.8893-.4373.3653.1912.9881.6254.6254zM79.0081 222.8818c1.4967-.6472 2.8717-1.4796 4.1559-2.4829.4481-.3501-.1818-.972-.6254-.6254-1.2211.954-2.5555 1.7299-3.9769 2.3446-.521.2254-.0711.9876.4464.7637zM77.6702 233.0754c1.2688.0045 2.4866.2206 3.682.6434.5376.1902.7689-.664.2351-.8529-1.2682-.4486-2.5724-.6702-3.9171-.675-.5692-.002-.57.8825 0 .8845zM61.555 213.2079c.8874 1.2035 2.0313 2.0822 3.4231 2.6288.53.2081.7598-.6468.2351-.8529a6.5818 6.5818 0 0 1-2.8945-2.2224c-.3342-.4531-1.1021-.0125-.7637.4465zM60.845 220.5141c1.1457 1.6656 3.2019 2.4224 5.1485 1.834.5434-.1642.3118-1.0182-.2351-.8528-1.5515.469-3.2242-.0821-4.1497-1.4276-.3205-.466-1.0874-.0242-.7637.4464zM63.7674 231.1278c1.5799-.236 2.7479-1.5499 2.9455-3.1052.0715-.5631-.8136-.5579-.8845 0-.151 1.1882-1.1409 2.0798-2.2962 2.2524-.561.0837-.3225.9361.2352.8528zM82.7784 252.7236l3.3062-2.2252c.4697-.3162.0276-1.0827-.4464-.7637l-3.3063 2.2252c-.4697.3161-.0275 1.0826.4465.7637zM84.6104 259.7516c1.2097.7486 2.5406 1.1622 3.9591 1.2528.5684.0363.5662-.8483 0-.8844-1.2665-.0809-2.4342-.4648-3.5127-1.1321-.4853-.3004-.93.4644-.4464.7637zM69.3613 249.5155l3.7682 1.2982c.5393.1858.7709-.6683.2351-.8529l-3.7682-1.2982c-.5392-.1857-.7709.6683-.2351.8529zM69.1379 256.6495l3.5171-1.169c.5375-.1786.3072-1.0331-.2351-.8528l-3.5171 1.1689c-.5375.1787-.3072 1.0332.2351.8529zM72.921 261.9368c-.6182.8348-1.3726 1.5551-2.2298 2.1409-.4671.3192-.0252 1.086.4464.7637.99-.6766 1.8338-1.4949 2.5471-2.4582.339-.4578-.4283-.8993-.7637-.4464z"/>
  </g>
  <g>
    <path class="st7" d="M242.104 283.7592c11.3703-2.8123 24.8295-14.7577 21.6494-27.7809-1.7247-7.0621-7.7969-12.9181-7.7311-20.1875.0733-8.1124 7.6977-14.1533 9.8289-21.9812 1.6652-6.1163-.271-12.7805-3.8221-18.0314-3.5511-5.2509-8.5725-9.3129-13.6469-13.1118.5222 5.413-2.7593 10.4644-6.5019 14.4098-3.7426 3.9454-8.1515 7.3922-10.8472 12.1151-3.5381 6.1986-3.5497 14.261-.0295 20.4698 1.6999 2.9982 4.2006 5.7072 4.7081 9.1162.8609 5.7832-4.1597 10.5032-7.6421 15.1999-3.6617 4.9384-5.9505 11.1584-5.0794 17.2442.8711 6.0858 5.3869 11.8077 11.4232 12.9737 2.541.4908 5.1782.1855 7.6906-.4359z"/>
    <path class="st1" d="M252.2365 193.5058c-.8122 6.7268-3.258 13.1051-4.3454 19.7879-.8913 5.4778-1.282 11.018-1.6087 16.5535-.7727 13.0916-1.2305 26.3288-6.7872 38.4465-.2356.5138.5265.9637.7637.4464 5.1306-11.1885 6.0247-23.2841 6.7117-35.4081.391-6.9002.7247-13.836 1.9117-20.6566 1.1248-6.4634 3.451-12.6464 4.2386-19.1697.0681-.5637-.817-.5588-.8844.0001zM244.2617 208.8462c-.8771-1.7592-1.9747-3.3701-3.2797-4.8392-.3788-.4264-1.0024.2009-.6254.6254 1.2562 1.4143 2.2977 2.9681 3.1414 4.6603.254.5093 1.0172.0619.7637-.4465zM241.4878 216.3471a30.074 30.074 0 0 0-4.9776-3.8998c-.4837-.303-.9282.4619-.4464.7637a28.9729 28.9729 0 0 1 4.7986 3.7616c.4089.3963 1.0351-.2284.6254-.6255zM240.9139 224.7074l-5.6174-.4587c-.5673-.0463-.5643.8384 0 .8845l5.6174.4587c.5673.0463.5643-.8384 0-.8845zM257.7941 202.9366c-1.6075.8802-3.0894 1.9433-4.444 3.1771-.4217.3841.2052 1.0082.6254.6254 1.3003-1.1844 2.7227-2.1944 4.2649-3.0388.4994-.2734.0536-1.0375-.4463-.7637zM255.5078 213.9281l4.7442-.356c.5641-.0423.5687-.9271 0-.8845l-4.7442.356c-.5641.0423-.5687.9271 0 .8845zM251.137 219.9342c1.5936.7495 3.2772.9386 4.9953.5432.5545-.1276.3198-.9806-.2351-.8529-1.4721.3388-2.9449.1898-4.3138-.454-.5121-.2409-.9616.5214-.4464.7637zM237.5559 254.0822c-.1505-1.1755-.7697-2.1765-1.7929-2.7908-.4892-.2937-.9344.4707-.4464.7637.7314.4392 1.2454 1.1727 1.3548 2.0271.0713.5568.9567.5639.8845 0zM236.252 260.1532c-1.0513-1.0175-2.1886-1.9323-3.405-2.7451-.4746-.3171-.9179.4487-.4464.7637 1.1547.7716 2.2281 1.6411 3.226 2.6068.4091.396 1.0353-.2286.6254-.6254zM254.2295 245.4887c-.8289.8719-1.813 1.5533-2.9339 1.9949-.5235.2062-.2955 1.0619.2351.8529 1.2667-.499 2.3849-1.2343 3.3242-2.2224.3921-.4125-.2323-1.039-.6254-.6254zM256.1236 252.3373c-1.3068 1.5195-3.0295 2.4472-5.0132 2.717-.5614.0764-.3224.9287.2351.8529 2.1186-.2882 4.01-1.3242 5.4034-2.9444.3695-.4296-.2534-1.0579-.6253-.6255zM256.0439 262.3344c-2.3476.7054-4.733.5941-6.9894-.3805-.5171-.2234-.968.5384-.4464.7637 2.4776 1.0702 5.0807 1.2479 7.6709.4697.5438-.1634.3121-1.0173-.2351-.8529z"/>
  </g>
  <g>
    <path class="st5" d="M452.345 281.368c-5.3432 2.165-12.4293 1.1686-17.6701-.4147-1.6161-.4883-3.2373-1.0241-4.6764-1.907-1.6841-1.0331-3.0513-2.4991-4.3961-3.9465-3.7993-4.0889-5.8805-6.638-5.6383-12.3713.1991-4.713 2.416-9.3646 6.3323-12.1016 2.1454-1.4994 4.7251-2.477 6.394-4.4934 3.8642-4.6685.876-11.5243-.5346-17.418-3.4834-14.5538 5.7349-31.0078 19.9657-35.6373-1.8221 4.405.068 9.5146 2.8622 13.3767 2.7943 3.8622 6.478 7.0614 8.9278 11.1507 4.831 8.0641 3.8214 19.2-2.3812 26.2637-2.483 2.8278-5.8669 5.3981-6.2433 9.1424-.4348 4.3251 3.3554 7.8098 4.8539 11.8903 2.1776 5.9298-1.2289 13.1633-6.7343 15.9812-.3451.1767-.6994.338-1.0616.4848z"/>
    <path class="st1" d="M446.3813 207.7002c-4.8358 10.8852 1.2579 22.0829-.0696 33.3076-1.2044 10.1837-10.439 19.8087-4.9437 30.2052.2661.5034 1.0298.057.7637-.4464-5.4698-10.3482 4.3114-20.2457 5.1737-30.4901.9085-10.7932-4.8012-21.6835-.1604-32.1298.229-.5157-.5329-.9662-.7637-.4465zM451.9398 222.5877a10.9823 10.9823 0 0 0 2.8208-3.6181c.248-.5098-.5145-.9587-.7637-.4464-.6498 1.3357-1.5455 2.4835-2.6825 3.4392-.4363.3666.1921.9895.6254.6253zM454.1088 228.9055c1.1947.4782 2.4872.4986 3.6988.068.5326-.1893.3031-1.0441-.2351-.8529-1.0838.3851-2.162.3588-3.2285-.068-.5285-.2115-.758.6436-.2352.8529zM453.0075 237.7315c.9652 1.4691 2.3312 2.5353 3.9881 3.1208.5377.19.769-.6642.2351-.8529-1.4306-.5056-2.6266-1.4466-3.4595-2.7143-.3112-.4738-1.0774-.0312-.7637.4464zM438.6932 216.9799c.7146 1.2308 1.7164 2.239 2.9416 2.9629.4911.2902.9366-.4741.4464-.7637-1.099-.6493-1.9834-1.5418-2.6243-2.6456-.2857-.4921-1.0503-.0473-.7637.4464zM436.9373 225.3339c1.1694 1.0016 2.5518 1.5652 4.0897 1.661.5684.0354.5663-.8492 0-.8845-1.2919-.0804-2.4802-.5591-3.4643-1.4019-.4301-.3684-1.0586.2544-.6254.6254z"/>
    <path class="st1" d="M438.4409 234.9256c1.4375.0706 2.7944-.4641 3.808-1.4831.4019-.404-.2233-1.0297-.6254-.6254-.8616.8661-1.965 1.2839-3.1826 1.2241-.5689-.028-.5675.8565 0 .8844zM446.1164 258.3222c1.9644-.3718 3.7825-1.141 5.4171-2.2921.4618-.3252.0204-1.0924-.4464-.7637-1.5807 1.1131-3.3063 1.8434-5.2058 2.2029-.5586.1058-.3221.9583.2351.8529zM433.9417 253.503l3.0826 2.4982c.4384.3553 1.0679-.2668.6254-.6254l-3.0826-2.4982c-.4384-.3553-1.0679.2668-.6254.6254zM432.5338 260.4623l3.386 1.9125c.4962.2803.9425-.4835.4464-.7637l-3.386-1.9126c-.4963-.2801-.9425.4836-.4464.7638z"/>
  </g>
  <g>
    <path class="st7" d="M469.5904 283.5992c11.5236-2.0976 25.7017-13.1801 23.3402-26.3763-1.2808-7.1559-6.9759-13.3794-6.4568-20.6304.5792-8.0921 8.5656-13.6456 11.1809-21.3253 2.0435-6.0005.5269-12.7726-2.6898-18.2347-3.2166-5.4622-7.9749-9.8295-12.8025-13.9376.1836 5.435-3.4067 10.2719-7.3881 13.9761s-8.5967 6.8693-11.5818 11.4148c-3.9178 5.9658-4.4324 14.0118-1.3064 20.4281 1.5096 3.0984 3.8364 5.9581 4.1302 9.3922.4985 5.8257-4.8067 10.2233-8.5754 14.6936-3.9626 4.7004-6.6349 10.7655-6.1452 16.8938.4898 6.1283 4.6399 12.1208 10.5916 13.661 2.5057.6484 5.1568.5082 7.7031.0447z"/>
    <path class="st1" d="M485.348 194.0637c-1.1774 6.377-3.8618 12.3192-5.3706 18.6153-1.3237 5.5234-2.0877 11.1613-2.7806 16.7926-1.6276 13.2277-2.8467 26.611-9.26 38.5529-.2693.5014.494.9486.7637.4464 5.6538-10.5276 7.369-22.2255 8.7767-33.9417.8029-6.6822 1.5245-13.3949 2.9779-19.9754 1.5182-6.8735 4.468-13.3343 5.7458-20.255.1027-.5564-.7495-.7949-.8529-.2351zM476.4038 208.9425c-.7671-1.8139-1.7643-3.48-2.9771-5.0303-.3504-.4479-.9723.182-.6254.6254 1.1635 1.4872 2.1038 3.1132 2.8388 4.8513.221.5225.983.0722.7637-.4464zM473.1617 216.2599c-1.4264-1.5677-3.0067-2.9632-4.7292-4.1973-.4634-.3321-.9055.4347-.4464.7637 1.6613 1.1903 3.1751 2.5478 4.5501 4.059.384.4219 1.008-.205.6255-.6254zM472.1762 224.6032l-5.5779-.8082c-.5568-.0807-.7972.7714-.2351.8529l5.5779.8082c.5567.0806.7972-.7715.2351-.8529zM490.2673 203.926c-1.662.7803-3.1977 1.7513-4.6294 2.8995-.444.3561.1854.9783.6254.6254 1.3711-1.0997 2.86-2.0145 4.4503-2.7612.515-.2417.0665-1.0044-.4463-.7637zM487.3517 214.7411l4.7572-.0594c.5687-.0071.5703-.8916 0-.8845l-4.7572.0594c-.5687.0071-.5703.8916 0 .8845zM482.6106 220.4767c1.5416.8493 3.2221 1.1217 4.9552.8326.5602-.0934.3225-.9459-.2351-.8529-1.4908.2487-2.9528-.0157-4.2736-.7434-.499-.2749-.9457.4887-.4465.7637zM466.9032 253.6687c-.0771-1.1862-.6611-2.2104-1.6395-2.8843-.4699-.3237-.9127.4426-.4464.7637.7074.4873 1.1458 1.2641 1.2015 2.1206.0367.5652.9214.5693.8844 0zM465.2034 259.6541c-.9869-1.0829-2.0666-2.0589-3.2316-2.9467-.4526-.3449-.8936.4229-.4464.7637 1.1032.8408 2.1186 1.7836 3.0526 2.8084.3842.4216 1.0082-.2053.6254-.6254zM484.0594 246.1786c-.8859.8213-1.9102 1.423-3.0594 1.7956-.5392.1748-.3085 1.0291.2351.8529 1.2949-.4198 2.4514-1.0975 3.4496-2.0231.4185-.3878-.2081-1.0122-.6253-.6254zM485.5226 253.132c-1.3687 1.4005-3.1056 2.2259-5.062 2.3708-.5642.0418-.5688.9266 0 .8845 2.1851-.1618 4.1538-1.0605 5.6874-2.6298.3981-.4074-.2267-1.0334-.6254-.6255z"/>
  </g>
  <g>
    <path class="st21" d="M41.0903 281.4452c5.3626 2.1166 12.4393 1.0561 17.6656-.5746 1.6116-.5028 3.228-1.0533 4.6589-1.9492 1.6746-1.0483 3.0286-2.5266 4.3603-3.9861 3.7622-4.1231 5.8202-6.6909 5.5262-12.4218-.2417-4.711-2.5006-9.3423-6.4415-12.0438-2.1589-1.4799-4.7473-2.4342-6.4345-4.4353-3.9062-4.6333-.9803-11.5159.377-17.4221 3.3516-14.5847-6.0152-30.9546-20.2873-35.4552 1.8618 4.3884.0181 9.5148-2.741 13.4021s-6.4138 7.1197-8.8266 11.231c-4.7579 8.1074-3.6475 19.2338 2.6187 26.2411 2.5085 2.8052 5.9154 5.3448 6.3258 9.0856.474 4.321-3.2846 7.8398-4.7461 11.9337-2.1239 5.9493 1.348 13.1517 6.8785 15.9196.3468.1734.7025.3315 1.066.475z"/>
    <path class="st1" d="M45.6257 208.1764c4.7345 10.4026-.8709 21.3465.1323 32.1294.9533 10.2471 10.8283 20.0435 5.4513 30.4426-.261.5049.5019.9527.7637.4464 5.3956-10.4353-3.918-20.0023-5.2142-30.1588-1.4308-11.2107 4.5642-22.466-.3695-33.3061-.2354-.5173-.9979-.0682-.7636.4465zM41.5863 222.0355c-1.1457-.9454-2.0524-2.0842-2.7143-3.4141-.2536-.5096-1.0168-.0621-.7637.4464.6918 1.39 1.6549 2.6048 2.8526 3.5931.4358.3596 1.0649-.2627.6254-.6254zM38.613 228.149c-1.0631.4367-2.141.4745-3.2278.0994-.5392-.1861-.7708.6679-.2351.8528 1.2157.4196 2.5078.3895 3.698-.0993.5193-.2133.2919-1.0693-.2351-.8529zM39.2673 237.3736c-.8211 1.2747-2.0067 2.2293-3.433 2.7479-.5307.193-.3016 1.048.2351.8529 1.6512-.6004 3.0094-1.6762 3.9615-3.1543.3093-.4801-.456-.924-.7636-.4465zM53.3933 216.4933c-.6308 1.1095-1.5056 2.0113-2.5988 2.6707-.4868.2936-.0427 1.0587.4464.7637 1.2185-.7349 2.2126-1.7506 2.9161-2.988.2818-.4956-.4821-.9417-.7637-.4464zM55.3622 224.6515c-.9758.8512-2.1584 1.3439-3.4503 1.436-.5645.0403-.5689.925 0 .8844 1.5364-.1096 2.9149-.6826 4.0757-1.6951.4298-.3748-.198-.9982-.6254-.6253z"/>
    <path class="st1" d="M54.5697 233.9945c-1.2163.0708-2.3253-.334-3.1947-1.1924-.4055-.4003-1.0313.2247-.6254.6254 1.0227 1.0096 2.3827 1.535 3.8201 1.4514.5657-.0329.5695-.9176 0-.8844zM47.3414 257.4901c-1.9027-.3423-3.6352-1.056-5.2259-2.1547-.4694-.3243-.9122.442-.4464.7637 1.645 1.1363 3.4696 1.8899 5.4372 2.2439.5565.1001.7953-.7521.2351-.8529zM58.6125 252.7924l-3.0599 2.526c-.4393.3626.1895.9853.6254.6254l3.0599-2.526c.4393-.3627-.1894-.9853-.6254-.6254zM60.2617 259.5995l-3.3686 1.9431c-.4929.2843-.048 1.0489.4464.7637l3.3686-1.9431c.4929-.2843.048-1.0489-.4464-.7637z"/>
  </g>
  <g>
    <path class="st7" d="M25.3552 283.7592C13.9849 280.9469.5257 269.0015 3.7058 255.9783c1.7247-7.0621 7.7969-12.9181 7.7311-20.1875-.0733-8.1124-7.6977-14.1533-9.8289-21.9812-1.6652-6.1163.2709-12.7805 3.822-18.0314 3.5511-5.2509 8.5725-9.3129 13.6469-13.1118-.5222 5.413 2.7593 10.4644 6.5019 14.4098s8.1515 7.3922 10.8472 12.1151c3.538 6.1986 3.5497 14.261.0295 20.4698-1.6999 2.9982-4.2006 5.7072-4.7081 9.1162-.8609 5.7832 4.1596 10.5032 7.6421 15.1999 3.6617 4.9384 5.9505 11.1584 5.0794 17.2442-.8711 6.0858-5.3869 11.8077-11.4232 12.9737-2.5409.4908-5.1781.1855-7.6905-.4359z"/>
    <path class="st1" d="M14.3383 193.5058c.7537 6.2424 2.9534 12.1498 4.0835 18.3202 1.3 7.0974 1.6596 14.3159 2.0667 21.5061.6864 12.1234 1.5811 24.2196 6.7117 35.4081.237.5168.9995.0678.7637-.4464-5.5545-12.1129-6.0177-25.3589-6.7872-38.4465-.3085-5.2469-.6714-10.5012-1.4704-15.7001-1.0726-6.9796-3.6375-13.633-4.4837-20.6413-.0672-.5581-.9525-.5649-.8843-.0001zM23.9612 209.2926c.8437-1.6922 1.8851-3.2459 3.1414-4.6603.3769-.4243-.2465-1.052-.6254-.6254-1.305 1.4692-2.4026 3.08-3.2797 4.8392-.2532.508.5094.9565.7637.4465zM26.5968 216.9725a28.9853 28.9853 0 0 1 4.7986-3.7616c.4813-.3015.0378-1.067-.4464-.7637a30.075 30.075 0 0 0-4.9776 3.8998c-.4095.397.2163 1.022.6254.6255zM26.5453 225.5919l5.6174-.4587c.5633-.046.5683-.9309 0-.8845l-5.6174.4587c-.5633.046-.5682.9309 0 .8845zM9.2188 203.7003c1.5424.8446 2.9647 1.8544 4.2649 3.0388.42.3826 1.0473-.2411.6254-.6254-1.3546-1.2339-2.8365-2.297-4.4439-3.1771-.4995-.2735-.9464.49-.4464.7637zM11.9514 213.0436l-4.7442-.356c-.5677-.0426-.565.8421 0 .8845l4.7442.356c.5678.0426.5651-.8421 0-.8845zM15.8758 219.1705c-1.3691.6439-2.8409.793-4.3138.454-.554-.1275-.7905.7251-.2351.8529 1.7179.3953 3.4014.2065 4.9953-.5432.5147-.2421.0662-1.0048-.4464-.7637zM30.7878 254.0822c.1094-.8545.6234-1.588 1.3548-2.0271.4875-.2927.0433-1.0577-.4464-.7637-1.0229.6142-1.6424 1.6155-1.7929 2.7908-.0721.563.8131.5577.8845 0zM31.8327 260.7786c.9979-.9658 2.0712-1.8352 3.226-2.6068.471-.3147.0286-1.0811-.4464-.7637a24.302 24.302 0 0 0-3.405 2.7451c-.4098.3966.216 1.0216.6254.6254zM12.6043 246.1141c.9393.988 2.0575 1.7233 3.3242 2.2224.5297.2087.7595-.6463.2351-.8529-1.1211-.4417-2.105-1.123-2.9339-1.9949-.3929-.4134-1.0177.2127-.6254.6254zM10.7102 252.9627c1.3934 1.6201 3.2848 2.6563 5.4034 2.9444.5566.0757.7974-.7764.2351-.8529-1.9842-.2699-3.7069-1.1982-5.0131-2.717-.3717-.4321-.9949.1959-.6254.6255zM11.1802 263.1873c2.59.7782 5.1929.6006 7.6709-.4697.5211-.2251.0712-.9873-.4464-.7637-2.2533.9733-4.6434 1.0854-6.9894.3805-.5463-.1641-.7797.6893-.2351.8529z"/>
  </g>
  <g>
    <path class="st4" d="M251.1493 279.4995c4.1203 4.0324 11.0537 5.8024 16.5032 6.3286 1.6805.1622 3.3837.2824 5.0502.0123 1.9503-.316 3.7719-1.1527 5.5657-1.9807 5.0678-2.3392 7.9613-3.9066 9.9151-9.3022 1.6061-4.4353 1.3224-9.5804-1.2607-13.5999-1.4151-2.202-3.43-4.0862-4.2079-6.5854-1.8011-5.7864 3.5673-10.9932 7.111-15.9093 8.7507-12.1397 6.4737-30.862-4.9318-40.5502.0121 4.767-3.6771 8.7756-7.729 11.2868-4.0519 2.5113-8.6748 4.0713-12.4944 6.9235-7.5321 5.6245-10.8283 16.3093-7.7739 25.1996 1.2227 3.559 3.3766 7.2221 2.3025 10.8287-1.2407 4.1661-6.0705 5.9498-9.0067 9.1552-4.2669 4.6582-3.8634 12.6435.1588 17.3414.2522.2945.5186.5782.7979.8516z"/>
    <path class="st1" d="M283.7694 213.6805c.3571 10.5306-7.7127 18.2022-11.4963 27.3954-4.2228 10.2602 1.7945 24.7248-7.6931 32.5354-.4398.362.1891.9846.6254.6254 9.4663-7.793 3.7621-21.4929 7.4084-31.6095 3.58-9.9328 12.4192-17.7711 12.0402-28.9467-.0194-.5676-.9039-.5703-.8846 0zM274.6425 224.8855c-.6655-1.283-1.0481-2.6441-1.1446-4.0862-.0378-.5649-.9225-.5691-.8845 0 .107 1.5987.5276 3.1103 1.2654 4.5326.2621.5054 1.0256.0587.7637-.4464zM269.4995 229.4181c-1.0973-.0063-2.1009-.3865-2.9172-1.1233-.4216-.3805-1.049.2431-.6254.6254.9887.8924 2.2089 1.3746 3.5426 1.3823.5692.0033.5699-.8811 0-.8844zM266.6207 238.1488c-1.3062.8833-2.7531 1.2945-4.3297 1.2239-.5691-.0255-.5678.859 0 .8845 1.7153.0768 3.3535-.3826 4.7761-1.3447.4689-.3171.0268-1.0837-.4464-.7637zM287.7448 224.3901c-1.0508.8013-2.2267 1.2979-3.534 1.4923-.561.0835-.3226.9358.2351.8529 1.3721-.2041 2.6421-.7403 3.7452-1.5815.4467-.3406.0066-1.109-.4463-.7637zM286.3993 232.6839c-1.2823.419-2.5629.412-3.8405-.0181-.5406-.182-.7726.6719-.2351.8529 1.4139.4759 2.8932.4812 4.3107.0181.5387-.1761.3081-1.0304-.2351-.8529z"/>
    <path class="st1" d="M281.9385 240.9844c-1.0857-.3769-1.9755-1.2031-2.4103-2.271-.2118-.5202-1.0677-.2927-.8528.2351.5599 1.3751 1.6218 2.4006 3.028 2.8887.5388.1871.7703-.667.2351-.8528zM266.1592 259.8155c-1.5823-1.0204-2.895-2.3465-3.9009-3.938-.3033-.4799-1.069-.0366-.7637.4464 1.0871 1.7198 2.5084 3.1526 4.2182 4.2552.4798.3095.9237-.4558.4464-.7636zM278.47 259.8795l-3.8005 1.14c-.5438.1631-.3122 1.017.2351.8528l3.8005-1.14c.5438-.1631.3121-1.017-.2351-.8528z"/>
  </g>
  <g>
    <path class="st21" d="M283.5286 271.3193c5.8905 12.4196 25.9998 14.4657 34.4415 3.4122 2.9686-3.8873 3.7498-9.8756.6508-13.8434-3.0089-3.8524-5.1148-7.0132-4.7141-12.3597.3675-4.9037 3.3188-9.1639 5.822-13.3965 2.5032-4.2327 4.7019-9.1945 3.3981-13.936-2.1287-7.7414-10.3838-11.225-14.6073-17.5635l-10.0349 7.7534c-4.8833 3.7731-10.2947 8.7396-9.496 14.8588.7804 5.9787 7.4514 11.3724 4.8661 16.8194-.9922 2.0904-3.1138 3.3507-4.9008 4.8206-6.6701 5.4864-9.1265 15.6313-5.4254 23.4347z"/>
    <path class="st1" d="M307.5472 213.3291c2.1674 11.4559-1.1217 20.6532-4.5536 31.345-2.7969 8.7134-3.3691 17.7575-2.0668 26.7946.0809.5612.9332.3225.8528-.2351-1.6574-11.5013.4641-21.8721 4.3136-32.6735 2.9921-8.3958 3.9719-16.6655 2.3068-25.4661-.1056-.5587-.9582-.3221-.8528.2351zM303.4454 220.4355c-.922-.7701-1.7069-1.6598-2.3448-2.6782-.3015-.4813-1.067-.0378-.7637.4464.6762 1.0795 1.5052 2.0404 2.4832 2.8572.4339.3625 1.0628-.2599.6253-.6254zM300.7856 227.2398c-1.3179-.57-2.5563-1.2889-3.6887-2.1735-.4434-.3464-1.0737.2752-.6254.6254 1.1953.9338 2.4744 1.7093 3.8677 2.3118.517.2236.9679-.5381.4464-.7637zM301.5981 236.5945c-1.2519.0045-2.4672.2106-3.6478.6283-.5329.1885-.3034 1.0434.2351.8529 1.1085-.3921 2.2366-.5925 3.4127-.5967.569-.0021.5701-.8865 0-.8845zM315.8345 218.5576a6.077 6.077 0 0 1-2.6706 2.0505c-.5238.2057-.2957 1.0614.2351.8529 1.3014-.5112 2.3695-1.3316 3.1992-2.4569.3381-.4587-.4291-.9003-.7637-.4465zM316.4942 225.3459c-.852 1.2387-2.3928 1.7435-3.8202 1.312-.546-.1651-.7794.6883-.2351.8528 1.8223.5508 3.7468-.1597 4.819-1.7184.3234-.4701-.4428-.9129-.7637-.4464zM314.7424 234.8154c-1.0582-.158-1.9718-.9717-2.1104-2.0625-.0708-.557-.9561-.5641-.8845 0 .1852 1.458 1.2769 2.6939 2.7598 2.9154.5568.0831.797-.769.2351-.8529zM297.2825 254.9666l-3.0719-2.0675c-.4735-.3187-.9167.4472-.4464.7637l3.0719 2.0675c.4735.3187.9167-.4472.4464-.7637zM294.7191 261.4965c-.9965.6166-2.0768.9727-3.248 1.0476-.5652.0361-.5693.9208 0 .8845 1.3233-.0846 2.5656-.4698 3.6944-1.1683.4831-.299.0395-1.0644-.4464-.7638zM309.0913 251.8999l-3.5011 1.2062c-.5349.1843-.3051 1.039.2351.8529l3.5011-1.2062c.5349-.1843.3051-1.039-.2351-.8529zM309.7524 258.5284l-3.2678-1.0861c-.5414-.1799-.7735.6739-.2351.8529l3.2678 1.0861c.5414.1798.7735-.674.2351-.8529z"/>
  </g>
  <g>
    <path class="st4" d="M393.8856 279.4995c4.1203 4.0324 11.0537 5.8024 16.5031 6.3286 1.6805.1622 3.3837.2824 5.0502.0123 1.9503-.316 3.7719-1.1527 5.5657-1.9807 5.0678-2.3392 7.9613-3.9066 9.9151-9.3022 1.6061-4.4353 1.3224-9.5804-1.2607-13.5999-1.4151-2.202-3.43-4.0862-4.2079-6.5854-1.8011-5.7864 3.5673-10.9932 7.111-15.9093 8.7507-12.1397 6.4737-30.862-4.9318-40.5502.0121 4.767-3.6771 8.7756-7.729 11.2868-4.0519 2.5113-8.6748 4.0713-12.4944 6.9235-7.5321 5.6245-10.8283 16.3093-7.7739 25.1996 1.2227 3.559 3.3766 7.2221 2.3025 10.8287-1.2407 4.1661-6.0705 5.9498-9.0067 9.1552-4.2669 4.6582-3.8634 12.6435.1588 17.3414.2522.2945.5186.5782.798.8516z"/>
    <path class="st1" d="M426.5056 213.6805c.3571 10.5306-7.7127 18.2022-11.4963 27.3954-4.2228 10.2602 1.7945 24.7248-7.6931 32.5354-.4398.362.1891.9846.6254.6254 9.4663-7.793 3.7621-21.4929 7.4084-31.6095 3.58-9.9328 12.4192-17.7711 12.0402-28.9467-.0194-.5676-.9039-.5703-.8846 0zM417.3787 224.8855c-.6655-1.283-1.0481-2.6441-1.1446-4.0862-.0378-.5649-.9225-.5691-.8845 0 .107 1.5987.5276 3.1103 1.2654 4.5326.2621.5054 1.0256.0587.7637-.4464zM412.2357 229.4181c-1.0973-.0063-2.1009-.3865-2.9172-1.1233-.4216-.3805-1.049.2431-.6254.6254.9887.8924 2.2089 1.3746 3.5426 1.3823.5692.0033.5699-.8811 0-.8844zM409.3569 238.1488c-1.3062.8833-2.7531 1.2945-4.3297 1.2239-.5691-.0255-.5678.859 0 .8845 1.7153.0768 3.3535-.3826 4.7761-1.3447.4689-.3171.0268-1.0837-.4464-.7637zM430.481 224.3901c-1.0508.8013-2.2267 1.2979-3.534 1.4923-.561.0835-.3226.9358.2351.8529 1.3721-.2041 2.6421-.7403 3.7452-1.5815.4467-.3406.0066-1.109-.4463-.7637zM429.1355 232.6839c-1.2823.419-2.5629.412-3.8405-.0181-.5407-.182-.7726.6719-.2351.8529 1.4139.4759 2.8932.4812 4.3107.0181.5387-.1761.3081-1.0304-.2351-.8529z"/>
    <path class="st1" d="M424.6747 240.9844c-1.0857-.3769-1.9755-1.2031-2.4103-2.271-.2118-.5202-1.0677-.2927-.8528.2351.5599 1.3751 1.6218 2.4006 3.028 2.8887.5388.1871.7703-.667.2351-.8528zM408.8954 259.8155c-1.5823-1.0204-2.895-2.3465-3.9009-3.938-.3033-.4799-1.069-.0366-.7637.4464 1.0871 1.7198 2.5084 3.1526 4.2182 4.2552.4798.3095.9237-.4558.4464-.7636zM421.2062 259.8795l-3.8005 1.14c-.5438.1631-.3122 1.017.2351.8528l3.8005-1.14c.5438-.1631.3121-1.017-.2351-.8528z"/>
  </g>
  <g>
    <path class="st8" d="M363.3338 268.7816c7.2997 15.3906 32.2192 17.9261 42.6804 4.2284 3.6788-4.8172 4.6469-12.2379.8065-17.1549-3.7287-4.774-6.3383-8.6909-5.8417-15.3162.4554-6.0767 4.1127-11.356 7.2147-16.6011 3.1021-5.2452 5.8266-11.3939 4.211-17.2696-2.6379-9.5933-12.8677-13.9101-18.1015-21.7649l-12.4353 9.6082c-6.0514 4.6756-12.7573 10.8303-11.7675 18.4133.9671 7.4089 9.2339 14.0928 6.0301 20.8428-1.2295 2.5904-3.8586 4.1523-6.0732 5.9737-8.2659 6.7986-11.3099 19.3704-6.7235 29.0403z"/>
    <path class="st1" d="M393.2 196.8913c1.4258 7.4015 1.4993 14.8757-.1693 22.2544-1.3695 6.0566-3.9768 11.7189-5.795 17.6372-3.2098 10.4482-3.8354 21.3665-2.2398 32.1559.083.561.9353.3225.8528-.2351-1.9854-13.4253.0919-26.0275 4.6743-38.6927 4-11.0557 5.7792-21.6777 3.5298-33.3547-.1075-.5584-.9601-.322-.8528.235zM387.9402 205.8007c-1.1492-.9599-2.1272-2.0708-2.9223-3.3403-.3015-.4813-1.067-.0379-.7637.4464.8333 1.3304 1.8554 2.5126 3.0606 3.5193.4339.3625 1.0629-.26.6254-.6254zM384.6655 214.2492c-1.6423-.7102-3.1816-1.6078-4.5925-2.71-.4434-.3464-1.0737.2752-.6254.6254 1.4737 1.1513 3.054 2.1055 4.7715 2.8483.517.2236.968-.5382.4464-.7637zM385.7258 225.856c-1.5429.0055-3.0371.2601-4.4923.7748-.5329.1885-.3034 1.0434.2351.8529 1.3818-.4888 2.791-.738 4.2572-.7432.569-.0021.5701-.8865 0-.8845zM403.4591 203.4521a7.6609 7.6609 0 0 1-3.3727 2.5896c-.5238.2057-.2957 1.0614.2351.8528 1.5849-.6225 2.8908-1.6256 3.9012-2.996.3382-.4586-.4291-.9002-.7636-.4464zM404.2766 211.8643c-1.0825 1.5737-3.037 2.2235-4.8535 1.6745-.546-.165-.7794.6883-.2351.8529 2.211.6683 4.55-.1876 5.8524-2.0809.3232-.4703-.443-.913-.7638-.4465zM401.9862 223.6476c-1.3624-.2035-2.5155-1.2618-2.6929-2.6579-.0708-.557-.9561-.5641-.8845 0 .224 1.7633 1.555 3.2439 3.3423 3.5108.5568.0831.797-.769.2351-.8529zM380.3245 248.6086l-3.8068-2.5621c-.4735-.3187-.9167.4472-.4464.7637l3.8068 2.5621c.4735.3186.9166-.4473.4464-.7637zM377.2547 256.7005c-1.2511.7742-2.6082 1.2187-4.0783 1.3126-.5652.0361-.5693.9208 0 .8845 1.6213-.1036 3.142-.5778 4.5247-1.4334.4831-.2989.0394-1.0643-.4464-.7637zM395.0395 244.819l-4.3386 1.4948c-.535.1843-.3051 1.039.2351.8529l4.3386-1.4948c.535-.1844.3051-1.039-.2351-.8529zM395.8026 253.033l-4.0495-1.3459c-.5414-.1799-.7735.6739-.2351.8528l4.0495 1.3459c.5414.18.7735-.6739.2351-.8528zM390.3724 260.5182c.8135 1.0995 1.7788 2.0349 2.9087 2.8063.4713.3218.9142-.4443.4464-.7637-.997-.6808-1.873-1.5181-2.5914-2.489-.3349-.4526-1.1029-.012-.7637.4464z"/>
  </g>
  <g>
    <path class="st4" d="M357.7464 282.9251c9.4205-2.3301 20.5717-12.2271 17.937-23.017-1.4289-5.8511-6.4598-10.7029-6.4054-16.7257.0608-6.7213 6.3777-11.7263 8.1434-18.2119 1.3796-5.0675-.2245-10.5889-3.1666-14.9394-2.9422-4.3504-7.1025-7.7159-11.3068-10.8634.4327 4.4848-2.2861 8.67-5.387 11.9388s-6.7536 6.1246-8.9871 10.0376c-2.9313 5.1357-2.941 11.8155-.0244 16.9596 1.4084 2.4841 3.4803 4.7285 3.9007 7.553.7133 4.7915-3.4464 8.7021-6.3316 12.5935-3.0338 4.0916-4.9301 9.2449-4.2084 14.2872s4.4632 9.783 9.4644 10.749c2.1053.4066 4.2902.1536 6.3718-.3613z"/>
    <path class="st1" d="M366.0655 208.1484c-.6648 5.3295-2.5638 10.3846-3.4779 15.6687-.7928 4.5828-1.1414 9.2255-1.4204 13.8635-.6639 11.0376-.9978 22.158-5.6477 32.3928-.2337.5143.5283.9644.7637.4464 4.2288-9.3078 5.0004-19.2983 5.571-29.3748.3394-5.9943.6274-12.0254 1.732-17.9395.9471-5.0707 2.7238-9.9267 3.3638-15.0572.0702-.5633-.8148-.5582-.8845.0001zM359.5996 220.8199c-.7295-1.4632-1.6437-2.8028-2.7291-4.0248-.3788-.4264-1.0024.2009-.6254.6254 1.0366 1.167 1.8947 2.4495 2.5908 3.8458.254.5095 1.0172.062.7637-.4464zM357.2895 227.0193a25.021 25.021 0 0 0-4.1394-3.243c-.4837-.303-.9282.4619-.4464.7637a23.913 23.913 0 0 1 3.9604 3.1047c.4089.3963 1.0351-.2284.6254-.6254zM356.7604 233.9237l-4.6542-.38c-.5673-.0463-.5643.8384 0 .8844l4.6542.38c.5673.0464.5642-.8383 0-.8844zM370.7077 215.8965c-1.3373.7322-2.5704 1.6177-3.6973 2.6442-.4217.3841.2052 1.0082.6254.6254 1.0727-.9771 2.246-1.8092 3.5182-2.5059.4994-.2734.0536-1.0374-.4463-.7637zM368.8517 225.1445l3.9307-.295c.5641-.0423.5687-.9271 0-.8845l-3.9307.295c-.5641.0424-.5687.9271 0 .8845zM365.1922 230.1103c1.3395.63 2.7526.7901 4.1971.4577.5545-.1276.3198-.9806-.2351-.8529-1.1986.2758-2.4007.1558-3.5157-.3685-.512-.2408-.9616.5214-.4463.7637zM354.054 258.3372c-.1332-1.005-.6489-1.8477-1.523-2.3777-.488-.2959-.933.4686-.4464.7637.5815.3527.9944.9315 1.0849 1.614.0738.556.9592.5633.8845 0zM352.9515 263.3135c-.8755-.8474-1.8234-1.6093-2.8364-2.2863-.4746-.3171-.9179.4486-.4464.7637.9514.6358 1.8352 1.3522 2.6574 2.1479.4092.3961 1.0353-.2286.6254-.6253zM367.739 251.1636c-.6773.7124-1.4811 1.2723-2.3974 1.6333-.5235.2063-.2955 1.0619.2351.8529 1.0618-.4183 2-1.0323 2.7876-1.8608.3922-.4124-.2322-1.0389-.6253-.6254zM369.3083 256.8379c-1.0754 1.2503-2.4879 2.0096-4.1201 2.2316-.5614.0764-.3224.9287.2351.8528 1.7664-.2402 3.3485-1.1082 4.5103-2.459.3695-.4295-.2534-1.0578-.6253-.6254z"/>
  </g>
  <g>
    <path class="st7" d="M122.6963 281.1162c5.1876 2.5151 12.3242 1.9915 17.6586.7596 1.645-.3799 3.2982-.8069 4.7927-1.5922 1.7489-.9191 3.2105-2.291 4.6485-3.6458 4.0625-3.8276 6.3084-6.2328 6.4475-11.9696.1143-4.7158-1.7887-9.5043-5.5146-12.4955-2.0411-1.6385-4.5502-2.7854-6.0815-4.9081-3.5456-4.9148-.1088-11.557 1.6902-17.3441 4.4423-14.2903-3.6629-31.3202-17.5549-36.8846 1.5255 4.5163-.6997 9.489-3.7442 13.1571-3.0446 3.6681-6.9327 6.6156-9.6487 10.5332-5.3559 7.7254-5.088 18.9039.6317 26.3639 2.2898 2.9864 5.4954 5.7758 5.6224 9.5369.1467 4.3445-3.8666 7.5697-5.6328 11.5417-2.5666 5.7722.352 13.2159 5.658 16.3932.3326.1993.6754.3838 1.0271.5543z"/>
    <path class="st1" d="M132.717 208.3221c3.8604 10.5231-2.1705 20.7559-2.2768 31.3584-.1057 10.5498 9.3995 21.4054 3.1353 31.5609-.2997.4858.4651.9305.7637.4464 6.1677-9.999-2.4531-20.1702-2.9894-30.4093-.5903-11.2696 6.3166-22.0247 2.22-33.1915-.1944-.53-1.0495-.301-.8528.2351zM127.6498 221.8887c-1.0378-.9996-1.8523-2.1727-2.3975-3.5085-.2122-.5199-1.0682-.2924-.8529.2351.6045 1.4809 1.4716 2.7879 2.6249 3.8988.4101.395 1.0364-.2296.6255-.6254zM124.214 227.7927c-1.0386.3376-2.1107.3185-3.1198-.1176-.5171-.2234-.968.5383-.4464.7637 1.2288.531 2.5217.6226 3.8013.2067.539-.1751.3084-1.0295-.2351-.8528zM124.1851 237.0608c-.9172 1.21-2.1877 2.0509-3.6451 2.4606-.5471.1538-.3146 1.0074.2351.8529 1.6969-.4771 3.1115-1.4658 4.1736-2.867.3439-.4537-.4237-.8948-.7636-.4465zM139.846 217.3056c-.7133 1.0583-1.667 1.88-2.8044 2.4546-.5081.2567-.0609 1.02.4464.7637 1.2735-.6433 2.3253-1.5904 3.1217-2.7719.319-.4732-.4469-.9164-.7637-.4464zM141.2768 225.5145c-1.0798.8048-2.2972 1.2209-3.6472 1.2169-.5692-.0017-.57.8828 0 .8844 1.4899.0044 2.8974-.4461 4.0936-1.3376.4512-.3363.0107-1.1044-.4464-.7637z"/>
    <path class="st1" d="M139.6833 234.8163c-1.2215-.0213-2.2855-.5348-3.085-1.4532-.3744-.4301-.9978.1977-.6254.6254.9458 1.0864 2.2735 1.6873 3.7104 1.7122.5694.0099.5695-.8745 0-.8844zM130.7048 257.6909c-1.8271-.4717-3.488-1.293-4.9553-2.4815-.4385-.3552-1.068.2669-.6254.6254 1.5868 1.2854 3.3673 2.1982 5.3456 2.7089.5514.1424.7867-.7104.2351-.8528zM142.395 253.8204l-3.2417 2.288c-.4614.3257-.02 1.0929.4464.7637l3.2417-2.288c.4614-.3257.0201-1.0929-.4464-.7637zM143.4316 260.7948l-3.5055 1.6834c-.5129.2463-.0648 1.0092.4464.7637l3.5055-1.6834c.5129-.2463.0647-1.0092-.4464-.7637z"/>
  </g>
</svg>
