<svg id="Layer_1" xmlns="http://www.w3.org/2000/svg" xmlns:xlink="http://www.w3.org/1999/xlink" viewBox="0 0 218.9317 219.5833">
  <style>
    .st62{fill-rule:evenodd;clip-rule:evenodd}
  </style>
  <circle cx="109.4658" cy="108.5785" r="104" fill="#9a6fee"/>
  <path d="M54.5159 74.2794h106.3795c6.0194 0 10.9458 4.9267 10.9458 10.9461v64.7173c0 6.0204-4.9264 10.9458-10.9458 10.9458H54.5159c-6.0204 0-10.9461-4.9254-10.9461-10.9458V85.2255c0-6.0194 4.9257-10.9461 10.9461-10.9461zm0 0" fill-rule="evenodd" clip-rule="evenodd" fill="#c1ee92"/>
  <path fill-rule="evenodd" clip-rule="evenodd" fill="#67e5dd" d="M67.1046 85.2968h93.7195v64.5755H67.1046z"/>
  <path d="M130.8086 38.4407c4.5194 0 8.2163 3.6969 8.2163 8.2142v74.5266h-16.4315V46.655c0-4.5174 3.6968-8.2143 8.2152-8.2143zm0 0" fill-rule="evenodd" clip-rule="evenodd" fill="#ff5d5d"/>
  <defs>
    <path id="SVGID_3_" d="M41.223 35.5785h133.4857v128H41.223z"/>
  </defs>
  <clipPath id="SVGID_2_">
    <use xlink:href="#SVGID_3_" overflow="visible"/>
  </clipPath>
  <path d="M130.8086 137.2215l4.1072-8.0206 4.1091-8.0193h-16.4315l4.1072 8.0193 4.108 8.0206zm0 0" clip-path="url(#SVGID_2_)" fill-rule="evenodd" clip-rule="evenodd" fill="#ff8e8e"/>
  <path d="M160.8954 71.6724h-19.2632V46.655c0-5.9664-4.8551-10.8212-10.8236-10.8212-5.9672 0-10.8223 4.8549-10.8223 10.8212v.7032c0 1.4388 1.1672 2.607 2.607 2.607s2.6073-1.1674 2.6073-2.607v-.7032c0-3.0919 2.5151-5.6069 5.608-5.6069 3.0929 0 5.6093 2.5151 5.6093 5.6069v71.9195h-11.2172V68.2154c0-1.4399-1.1674-2.6073-2.6073-2.6073-1.4388 0-2.607 1.1674-2.607 2.6073v3.457H54.5159c-7.4736 0-13.5542 6.0805-13.5542 13.5531v64.7173c0 7.4734 6.0805 13.5531 13.5542 13.5531h106.3795c7.4726 0 13.5531-6.0797 13.5531-13.5531V85.2255c0-7.4726-6.0805-13.5531-13.5531-13.5531zm-26.1358 52.1164l-3.951 7.7142-3.95-7.7142h7.901zm34.4746 26.1541c0 4.5978-3.7407 8.3388-8.3388 8.3388H54.5159c-4.5991 0-8.3388-3.741-8.3388-8.3388V85.2255c0-4.5981 3.7397-8.3388 8.3388-8.3388h65.4704v5.8031H67.1046c-1.4388 0-2.607 1.1672-2.607 2.607v21.8593c0 1.4388 1.1682 2.607 2.607 2.607 1.4409 0 2.6073-1.1682 2.6073-2.607v-19.252h50.2745v33.2774c0 .0583.005.1165.0091.1745.0011.0235.0011.047.0029.0705.0094.104.0256.204.047.303.0031.0152.0073.0285.0102.0428a3.119 3.119 0 0 0 .0734.256c.0084.0235.0175.047.0266.0705.0295.0786.0632.157.1011.2328.006.012.0102.0264.0162.0387l8.2163 16.0387a2.603 2.603 0 0 0 2.3194 1.4195c.9785 0 1.8745-.548 2.3204-1.4195l8.2153-16.0387c.0063-.0123.0102-.0256.0175-.0387a3.1793 3.1793 0 0 0 .1008-.2328c.0094-.0235.0175-.047.0256-.0705a2.3922 2.3922 0 0 0 .0734-.256c.0042-.0144.0084-.0277.0112-.0418a2.708 2.708 0 0 0 .047-.3041c.0021-.0235.0021-.047.0031-.0705.0039-.058.0092-.1152.0092-.1745V87.9041h16.5857v59.3612h-88.506v-19.252c0-1.4399-1.1664-2.6073-2.6073-2.6073-1.4388 0-2.607 1.1674-2.607 2.6073v21.859c0 1.4399 1.1682 2.6073 2.607 2.6073h93.7195c1.4396 0 2.607-1.1674 2.607-2.6073V85.2968c0-1.4399-1.1674-2.607-2.607-2.607h-19.1919v-5.8031h19.2632c4.5981 0 8.3388 3.7418 8.3388 8.3388v64.7174zm0 0" clip-path="url(#SVGID_2_)" fill-rule="evenodd" clip-rule="evenodd"/>
  <path class="st62" d="M55.3372 82.6183c-1.4396 0-2.607 1.1674-2.607 2.6073v13.6571c0 1.4399 1.1674 2.607 2.607 2.607 1.4399 0 2.6073-1.1682 2.6073-2.607V85.2255c0-1.4398-1.1674-2.6072-2.6073-2.6072zm0 0M55.3372 133.6785c-1.4396 0-2.607 1.1685-2.607 2.6073v13.6571c0 1.4396 1.1674 2.607 2.607 2.607 1.4399 0 2.6073-1.1674 2.6073-2.607v-13.6571c0-1.4388-1.1674-2.6073-2.6073-2.6073zm0 0M67.1056 120.1917c1.4357 0 2.607-1.1713 2.607-2.607 0-1.4367-1.1713-2.6073-2.607-2.6073-1.4357 0-2.607 1.1705-2.607 2.6073 0 1.4357 1.1713 2.607 2.607 2.607zm0 0M122.5934 60.3938c1.4357 0 2.6073-1.1713 2.6073-2.607 0-1.4357-1.1716-2.6073-2.6073-2.6073s-2.607 1.1716-2.607 2.6073c-.0001 1.4357 1.1713 2.607 2.607 2.607zm0 0"/>
</svg>
