<?xml version="1.0" encoding="utf-8"?>
<!-- Generator: Adobe Illustrator 23.0.1, SVG Export Plug-In . SVG Version: 6.00 Build 0)  -->
<svg version="1.1" id="Layer_1" xmlns="http://www.w3.org/2000/svg" xmlns:xlink="http://www.w3.org/1999/xlink" x="0px" y="0px"
	 viewBox="0 0 218.9317 219.5833" style="enable-background:new 0 0 218.9317 219.5833;" xml:space="preserve">
<style type="text/css">
	.st0{fill:#A5CAFA;}
	.st1{fill:#1177D0;}
	.st2{fill:#325ADA;}
	.st3{fill:#FF9C6E;}
	.st4{fill:#212D50;}
	.st5{fill:#6C757D;}
	.st6{fill:#6610EF;}
	.st7{fill:#6536CA;}
	.st8{fill:#FAA76C;}
	.st9{fill:#F09A82;}
	.st10{fill:#1856C3;}
	.st11{fill:#71B1FC;}
	.st12{fill:#9B6FEF;}
	.st13{fill:#F8F9FA;}
	.st14{fill:#EEEEEE;}
	.st15{fill-rule:evenodd;clip-rule:evenodd;fill:#F5BD5C;}
	.st16{fill-rule:evenodd;clip-rule:evenodd;fill:#B3D1DB;}
	.st17{fill-rule:evenodd;clip-rule:evenodd;fill:#73C4B8;}
	.st18{fill-rule:evenodd;clip-rule:evenodd;fill:#DE614A;}
	.st19{fill-rule:evenodd;clip-rule:evenodd;fill:#C9C729;}
	.st20{fill-rule:evenodd;clip-rule:evenodd;fill:#ACB8DE;}
	.st21{fill:#DE614A;}
	.st22{fill:url(#);}
	.st23{clip-path:url(#SVGID_2_);}
	.st24{fill:#FFD7E1;stroke:#FFFFFF;stroke-width:0.5;stroke-miterlimit:10;}
	.st25{fill:#745DCC;stroke:#FFFFFF;stroke-width:0.5;stroke-miterlimit:10;}
	.st26{fill:#FF9CAF;stroke:#FFFFFF;stroke-width:0.5;stroke-miterlimit:10;}
	.st27{fill:#CC6981;stroke:#FFFFFF;stroke-width:0.5;stroke-miterlimit:10;}
	.st28{fill:#F4CBD6;stroke:#FFFFFF;stroke-width:0.5;stroke-miterlimit:10;}
	.st29{fill:#473D84;stroke:#FFFFFF;stroke-width:0.5;stroke-miterlimit:10;}
	.st30{fill:#433D7A;stroke:#FFFFFF;stroke-width:0.5;stroke-miterlimit:10;}
	.st31{fill:#F74D6A;stroke:#FFFFFF;stroke-width:0.5;stroke-miterlimit:10;}
	.st32{fill:#CC3F5E;stroke:#FFFFFF;stroke-width:0.5;stroke-miterlimit:10;}
	.st33{fill:#FFFFFF;stroke:#FFFFFF;stroke-width:0.5;stroke-miterlimit:10;}
	.st34{fill:#6455BF;stroke:#FFFFFF;stroke-width:0.5;stroke-miterlimit:10;}
	.st35{fill:#FFFFFF;}
	.st36{fill:#AABFAD;}
	.st37{fill:none;}
	.st38{fill:#9A6FEE;}
	.st39{fill:#90D1F3;}
	.st40{fill:#0D529E;}
	.st41{fill:#FCBF29;}
	.st42{fill:#FFB954;}
	.st43{fill:#FEDA9B;}
	.st44{fill:#72D8FF;}
	.st45{fill:#FF5D5D;}
	.st46{fill:#4DBAF6;}
	.st47{fill:#D8D8E4;}
	.st48{fill:#C9F3FF;}
	.st49{fill:#F7F7F7;}
	.st50{fill:#C2CEE9;}
	.st51{fill:#FFA3BF;}
	.st52{fill:#FADE76;}
	.st53{fill:#FFC954;}
	.st54{fill:#FEE4BB;}
	.st55{fill:#262E30;}
	.st56{fill:#FF99BB;}
	.st57{fill-rule:evenodd;clip-rule:evenodd;fill:#C1EE92;}
	.st58{fill-rule:evenodd;clip-rule:evenodd;fill:#67E5DD;}
	.st59{fill-rule:evenodd;clip-rule:evenodd;fill:#FF5D5D;}
	.st60{clip-path:url(#SVGID_4_);fill-rule:evenodd;clip-rule:evenodd;fill:#FF8E8E;}
	.st61{clip-path:url(#SVGID_4_);fill-rule:evenodd;clip-rule:evenodd;}
	.st62{fill-rule:evenodd;clip-rule:evenodd;}
</style>
<circle class="st38" cx="109.4658" cy="108.0597" r="104"/>
<g>
	<path class="st48" d="M173.8528,61.6659v20.7743H45.2905V61.6659c0-2.9472,2.8044-5.3561,6.2328-5.3561H167.62
		C171.0483,56.3099,173.8528,58.7188,173.8528,61.6659L173.8528,61.6659z M173.8528,61.6659"/>
	<path class="st49" d="M173.8528,82.4403v67.8091c0,2.9472-2.8045,5.3561-6.2328,5.3561h-34.484l-10.4522-10.4522h40.5521V92.8925
		H55.9073v52.2608h40.9206l10.4522,10.4522H51.5233c-3.4283,0-6.2328-2.4089-6.2328-5.3561V82.4403H173.8528z M173.8528,82.4403"/>
	<path class="st50" d="M71.3876,109.8197l2.9576,8.3023l1.9278,5.4047c0.3511,1.0563,0.9417,2.0134,1.7279,2.7992l18.827,18.8273
		H55.9073V92.8925h46.8701v32.3544l-11.3043-11.3047l-0.5615-0.5576c-0.7731-0.7771-1.7187-1.3614-2.7574-1.7148l-5.4185-1.9379
		l-8.286-2.9704C72.5462,106.0801,70.7076,107.9148,71.3876,109.8197L71.3876,109.8197z M71.3876,109.8197"/>
	<path class="st51" d="M163.236,92.8925v52.2608h-40.5521l-19.9065-19.9065V92.8925H163.236z M163.236,92.8925"/>
	<path class="st52" d="M84.9708,120.4444l6.5022-6.5009l54.9846,54.9849l-6.5006,6.5019L84.9708,120.4444z M84.9708,120.4444"/>
	<path class="st53" d="M139.9584,175.4303l-6.4255,6.4281l-54.9862-54.9862l6.4255-6.4278L139.9584,175.4303z M139.9584,175.4303"/>
	<path class="st54" d="M91.4731,113.9421l-6.5009,6.5022l-6.4255,6.4278l-0.5458-0.5461c-0.7862-0.7859-1.3767-1.7429-1.7279-2.7992
		l-1.9278-5.4047l8.3905-8.3902l5.4185,1.9379c1.0387,0.3534,1.9843,0.9378,2.7574,1.7148L91.4731,113.9421z M91.4731,113.9421"/>
	<path class="st55" d="M82.7357,109.7319l-8.3905,8.3902l-2.9576-8.3023c-0.68-1.9049,1.1586-3.7396,3.0622-3.0582L82.7357,109.7319
		z M82.7357,109.7319"/>
	<path class="st56" d="M146.5125,168.9832l-0.0522-0.0549c3.5674,3.5688,3.6556,9.3704,0.1329,12.8944l-0.1698,0.1682
		c-3.524,3.524-9.2708,3.4884-12.8395-0.0791"/>
	<path d="M92.5869,72.075h67.8075c1.4444,0,2.6131-1.17,2.6131-2.6131c0-1.4431-1.1687-2.613-2.6131-2.613H92.5869
		c-1.4431,0-2.613,1.17-2.613,2.613C89.9738,70.905,91.1438,72.075,92.5869,72.075L92.5869,72.075z M92.5869,72.075"/>
	<path d="M56.9917,71.6347c0.1418,0.0957,0.2923,0.1761,0.4517,0.2411c0.1571,0.065,0.3214,0.115,0.4886,0.1493
		c0.1672,0.0333,0.3394,0.0487,0.5092,0.0487c0.6902,0,1.3614-0.277,1.8474-0.7656c0.4886-0.486,0.7656-1.1599,0.7656-1.8474
		c0-0.1698-0.0154-0.3381-0.0487-0.5092c-0.0343-0.1672-0.0843-0.3319-0.1493-0.4873c-0.065-0.1581-0.1467-0.3113-0.2411-0.453
		c-0.0957-0.144-0.2055-0.2766-0.3266-0.3969c-0.6062-0.6059-1.5067-0.8855-2.3566-0.713c-0.1672,0.033-0.3315,0.083-0.4886,0.1493
		c-0.1594,0.065-0.31,0.1453-0.4517,0.2397c-0.1441,0.0931-0.2767,0.2041-0.3982,0.324c-0.1186,0.1202-0.2296,0.2528-0.3227,0.3969
		c-0.0944,0.1418-0.1761,0.295-0.2411,0.453c-0.065,0.1555-0.115,0.3201-0.148,0.4873c-0.0346,0.1712-0.0536,0.3394-0.0536,0.5092
		c0,0.6876,0.2793,1.3614,0.7666,1.8474C56.715,71.4319,56.8476,71.539,56.9917,71.6347L56.9917,71.6347z M56.9917,71.6347"/>
	<path d="M66.4832,70.4621c0.065,0.1571,0.1453,0.3087,0.2397,0.4491c0.0931,0.1444,0.2041,0.2783,0.324,0.3969
		c0.1202,0.1212,0.2528,0.2309,0.3969,0.3266c0.1418,0.0957,0.2923,0.1761,0.453,0.2411c0.1558,0.065,0.3201,0.115,0.4873,0.1493
		c0.1672,0.0333,0.3394,0.0487,0.5092,0.0487c0.6902,0,1.3614-0.277,1.8474-0.7656c0.1212-0.1186,0.2309-0.2525,0.3266-0.3969
		c0.0944-0.1404,0.1761-0.292,0.2411-0.4491c0.065-0.1568,0.115-0.3214,0.1493-0.4886c0.0333-0.1698,0.0487-0.3407,0.0487-0.5128
		c0-0.1698-0.0153-0.3381-0.0487-0.5092c-0.0343-0.1672-0.0843-0.3319-0.1493-0.4873c-0.065-0.1581-0.1467-0.3113-0.2411-0.453
		c-0.0957-0.144-0.2055-0.2766-0.3266-0.3969c-0.1199-0.1199-0.2525-0.2309-0.3969-0.324
		c-0.1405-0.0944-0.2933-0.1747-0.4491-0.2397c-0.1594-0.0663-0.324-0.1163-0.4886-0.1493c-0.3368-0.0689-0.6853-0.0689-1.022,0
		c-0.1672,0.033-0.3315,0.083-0.4886,0.1493c-0.1594,0.065-0.31,0.1453-0.4517,0.2397c-0.144,0.0931-0.2767,0.2041-0.3982,0.324
		c-0.1186,0.1202-0.2296,0.2528-0.3227,0.3969c-0.0944,0.1418-0.1761,0.295-0.2411,0.453c-0.065,0.1555-0.115,0.3201-0.148,0.4873
		c-0.0346,0.1712-0.0536,0.3394-0.0536,0.5092c0,0.1721,0.0189,0.343,0.0536,0.5128C66.367,70.1407,66.4169,70.3053,66.4832,70.4621
		L66.4832,70.4621z M66.4832,70.4621"/>
	<path d="M76.9354,70.4621c0.065,0.1571,0.1454,0.3087,0.2397,0.4491c0.0931,0.1444,0.2041,0.2783,0.324,0.3969
		c0.1202,0.1238,0.2528,0.2309,0.3969,0.3266c0.1418,0.0957,0.2923,0.1761,0.453,0.2411c0.1558,0.065,0.3201,0.115,0.4873,0.1493
		c0.1672,0.0333,0.3394,0.0487,0.5092,0.0487c0.1708,0,0.343-0.0154,0.5128-0.0487c0.1646-0.0343,0.3292-0.0843,0.4886-0.1493
		c0.1571-0.065,0.3087-0.1454,0.4491-0.2411c0.1444-0.0957,0.2783-0.2028,0.3969-0.3266c0.1212-0.1186,0.2309-0.2525,0.3266-0.3969
		c0.0957-0.1404,0.1761-0.292,0.2411-0.4491c0.0627-0.1594,0.115-0.324,0.1493-0.4886c0.0333-0.1698,0.0487-0.3407,0.0487-0.5128
		c0-0.1698-0.0154-0.342-0.0487-0.5092c-0.0343-0.1672-0.0866-0.3319-0.1493-0.4873c-0.065-0.1581-0.1454-0.3113-0.2411-0.453
		c-0.0957-0.144-0.2054-0.2766-0.3266-0.3969c-0.1186-0.1199-0.2525-0.2309-0.3969-0.324c-0.1404-0.0944-0.292-0.1747-0.4491-0.2397
		c-0.1594-0.0663-0.324-0.1163-0.4886-0.1493c-0.3368-0.0689-0.684-0.0689-1.022,0c-0.1672,0.033-0.3315,0.083-0.4873,0.1493
		c-0.1607,0.065-0.3113,0.1453-0.453,0.2397c-0.144,0.0931-0.2767,0.2041-0.3969,0.324c-0.1199,0.1202-0.2309,0.2528-0.324,0.3969
		c-0.0944,0.1418-0.1747,0.295-0.2397,0.453c-0.0663,0.1555-0.1163,0.3201-0.1493,0.4873
		c-0.0346,0.1672-0.0523,0.3394-0.0523,0.5092c0,0.1721,0.0176,0.343,0.0523,0.5128
		C76.8191,70.1381,76.8691,70.3027,76.9354,70.4621L76.9354,70.4621z M76.9354,70.4621"/>
	<path d="M113.2296,111.1837h39.553c1.4431,0,2.6131-1.17,2.6131-2.613c0-1.443-1.17-2.613-2.6131-2.613h-39.553
		c-1.4431,0-2.613,1.17-2.613,2.613C110.6165,110.0138,111.7865,111.1837,113.2296,111.1837L113.2296,111.1837z M113.2296,111.1837"
		/>
	<path d="M152.7825,116.4098h-5.3218c-1.4431,0-2.6131,1.17-2.6131,2.613c0,1.4431,1.17,2.613,2.6131,2.613h5.3218
		c1.4431,0,2.6131-1.17,2.6131-2.613C155.3956,117.5798,154.2256,116.4098,152.7825,116.4098L152.7825,116.4098z M152.7825,116.4098
		"/>
	<path d="M139.5093,118.1119c-0.065-0.1607-0.1467-0.3113-0.241-0.453c-0.0957-0.144-0.2068-0.2766-0.3266-0.3969
		c-0.1199-0.1199-0.2528-0.2309-0.3969-0.324c-0.1418-0.0944-0.2936-0.1747-0.4491-0.2397
		c-0.1594-0.0663-0.3253-0.1163-0.4886-0.1493c-0.3368-0.0689-0.6853-0.0689-1.022,0c-0.1672,0.033-0.3319,0.083-0.4886,0.1493
		c-0.1594,0.065-0.3113,0.1453-0.4517,0.2397c-0.144,0.0931-0.2783,0.2041-0.3982,0.324c-0.1199,0.1202-0.2296,0.2528-0.324,0.3969
		c-0.0931,0.1418-0.1748,0.2923-0.2398,0.453c-0.0663,0.1555-0.115,0.3201-0.148,0.4873c-0.0359,0.1672-0.0539,0.3394-0.0539,0.5092
		c0,0.1708,0.018,0.343,0.0539,0.5128c0.033,0.1646,0.0817,0.3292,0.148,0.4886c0.065,0.1571,0.1467,0.3087,0.2398,0.4491
		c0.0944,0.1444,0.2041,0.2783,0.324,0.3969c0.1199,0.1238,0.2541,0.2309,0.3982,0.3266c0.1405,0.0957,0.2923,0.1761,0.4517,0.2411
		c0.1568,0.065,0.3214,0.115,0.4886,0.1493c0.1672,0.0333,0.3394,0.0487,0.5089,0.0487c0.1698,0,0.3433-0.0154,0.5131-0.0487
		c0.1633-0.0343,0.3292-0.0843,0.4886-0.1493c0.1555-0.065,0.3074-0.1454,0.4491-0.2411c0.1441-0.0957,0.277-0.2028,0.3969-0.3266
		c0.1199-0.1186,0.2309-0.2525,0.3266-0.3969c0.0944-0.1404,0.1761-0.292,0.241-0.4491c0.065-0.1594,0.1137-0.324,0.1493-0.4886
		c0.0333-0.1698,0.0484-0.342,0.0484-0.5128c0-0.1699-0.015-0.342-0.0484-0.5092
		C139.6242,118.432,139.5743,118.2674,139.5093,118.1119L139.5093,118.1119z M139.5093,118.1119"/>
	<path d="M126.5564,116.4098h-13.3268c-1.4431,0-2.613,1.17-2.613,2.613c0,1.4431,1.17,2.613,2.613,2.613h13.3268
		c1.4431,0,2.613-1.17,2.613-2.613C129.1694,117.5798,127.9995,116.4098,126.5564,116.4098L126.5564,116.4098z M126.5564,116.4098"
		/>
	<path d="M167.62,53.6968H51.5233c-4.8779,0-8.8458,3.575-8.8458,7.9691v88.5834c0,4.3941,3.9679,7.9691,8.8458,7.9691h54.675
		l25.4873,25.4873l0.0509,0.0523c2.2149,2.2152,5.151,3.4463,8.268,3.4655h0.0751c3.1004,0,6.007-1.2007,8.1925-3.3852
		l0.1685-0.1682c4.5359-4.5372,4.5-11.9553-0.083-16.5383l-0.0382-0.0369c-0.0052-0.0052-0.0078-0.0092-0.0114-0.014l-8.8638-8.8625
		H167.62c4.8776,0,8.8458-3.575,8.8458-7.9691V61.6659C176.4658,57.2718,172.4976,53.6968,167.62,53.6968L167.62,53.6968z
		 M51.5233,58.9229H167.62c1.9608,0,3.6197,1.2569,3.6197,2.743v18.1613H47.9035V61.6659
		C47.9035,60.1798,49.5609,58.9229,51.5233,58.9229L51.5233,58.9229z M160.623,95.5055v47.0348H123.766l-10.4522-10.4522h39.4687
		c1.4431,0,2.6131-1.17,2.6131-2.613s-1.17-2.613-2.6131-2.613h-39.553c-1.4163,0-2.5657,1.1265-2.6091,2.5327l-5.23-5.23V95.5055
		H160.623z M100.1644,118.9386l-6.8413-6.8426c-0.0013,0-0.0013-0.0013-0.0026-0.0013c0,0,0,0-0.0013,0l-0.0026-0.0039
		l-0.555-0.5523c-1.0413-1.0462-2.3374-1.8526-3.7448-2.3351l-13.6852-4.9004c-1.8412-0.6598-3.8444-0.212-5.2287,1.1687
		c-1.3833,1.3816-1.8334,3.3836-1.1778,5.2248l4.8779,13.6838c0.4772,1.4215,1.2899,2.7332,2.3501,3.7935l14.3655,14.3665H58.5203
		V95.5055h41.644V118.9386z M83.1273,118.5953c-0.0013,0.0013-0.0013,0.0013-0.0026,0.0013l-0.0013,0.0026l-4.2945,4.2949
		c-0.0245-0.0627-0.0536-0.1238-0.0755-0.1891c-0.0062-0.0176-0.0114-0.0356-0.0189-0.0549l-1.3728-3.8506l6.0515-6.0515
		l3.8608,1.382c0.0127,0.0049,0.0268,0.0088,0.0395,0.0137c0.064,0.0219,0.1251,0.0513,0.1875,0.0754L83.1273,118.5953z
		 M74.0046,109.3785l3.9669,1.4199l-2.552,2.552L74.0046,109.3785z M98.6766,143.3072c-0.0013-0.0013-0.0013-0.0013-0.0013-0.0026
		l-16.4334-16.4324l2.7316-2.7316l51.2901,51.2898l-2.7306,2.7319l-24.4042-24.4042c-0.0013,0-0.0013,0-0.0013-0.0013
		L98.6766,143.3072z M144.7442,179.9737l-0.1682,0.1698c-1.2072,1.2056-2.8136,1.8589-4.5398,1.854
		c-0.8548-0.0052-1.6841-0.176-2.4546-0.4939l8.5205-8.5205C147.0665,175.3258,146.6187,178.1008,144.7442,179.9737
		L144.7442,179.9737z M139.9597,171.7354l-51.2911-51.2911l2.8058-2.8058l29.3608,29.3608l0.0013,0.0026l10.4509,10.4496
		l0.0013,0.0026l11.4755,11.4742L139.9597,171.7354z M167.62,152.9924h-33.4019l-5.2261-5.2261h34.2439
		c1.4418,0,2.6131-1.17,2.6131-2.613V92.8925c0-1.4431-1.1713-2.6131-2.6131-2.6131H55.9073c-1.4431,0-2.613,1.17-2.613,2.6131
		v52.2608c0,1.4431,1.17,2.613,2.613,2.613H95.746l5.2261,5.2261H51.5233c-1.9624,0-3.6197-1.2569-3.6197-2.743v-65.196h123.3362
		v65.196C171.2397,151.7355,169.5808,152.9924,167.62,152.9924L167.62,152.9924z M167.62,152.9924"/>
</g>
</svg>
