<?xml version="1.0" encoding="utf-8"?>
<!-- Generator: Adobe Illustrator 23.0.1, SVG Export Plug-In . SVG Version: 6.00 Build 0)  -->
<svg version="1.1" id="Layer_1" xmlns="http://www.w3.org/2000/svg" xmlns:xlink="http://www.w3.org/1999/xlink" x="0px" y="0px"
	 viewBox="0 0 218.9317 219.5833" style="enable-background:new 0 0 218.9317 219.5833;" xml:space="preserve">
<style type="text/css">
	.st0{fill:#A5CAFA;}
	.st1{fill:#1177D0;}
	.st2{fill:#325ADA;}
	.st3{fill:#FF9C6E;}
	.st4{fill:#212D50;}
	.st5{fill:#6C757D;}
	.st6{fill:#6610EF;}
	.st7{fill:#6536CA;}
	.st8{fill:#FAA76C;}
	.st9{fill:#F09A82;}
	.st10{fill:#1856C3;}
	.st11{fill:#71B1FC;}
	.st12{fill:#9B6FEF;}
	.st13{fill:#F8F9FA;}
	.st14{fill:#EEEEEE;}
	.st15{fill-rule:evenodd;clip-rule:evenodd;fill:#F5BD5C;}
	.st16{fill-rule:evenodd;clip-rule:evenodd;fill:#B3D1DB;}
	.st17{fill-rule:evenodd;clip-rule:evenodd;fill:#73C4B8;}
	.st18{fill-rule:evenodd;clip-rule:evenodd;fill:#DE614A;}
	.st19{fill-rule:evenodd;clip-rule:evenodd;fill:#C9C729;}
	.st20{fill-rule:evenodd;clip-rule:evenodd;fill:#ACB8DE;}
	.st21{fill:#DE614A;}
	.st22{fill:url(#);}
	.st23{clip-path:url(#SVGID_2_);}
	.st24{fill:#FFD7E1;stroke:#FFFFFF;stroke-width:0.5;stroke-miterlimit:10;}
	.st25{fill:#745DCC;stroke:#FFFFFF;stroke-width:0.5;stroke-miterlimit:10;}
	.st26{fill:#FF9CAF;stroke:#FFFFFF;stroke-width:0.5;stroke-miterlimit:10;}
	.st27{fill:#CC6981;stroke:#FFFFFF;stroke-width:0.5;stroke-miterlimit:10;}
	.st28{fill:#F4CBD6;stroke:#FFFFFF;stroke-width:0.5;stroke-miterlimit:10;}
	.st29{fill:#473D84;stroke:#FFFFFF;stroke-width:0.5;stroke-miterlimit:10;}
	.st30{fill:#433D7A;stroke:#FFFFFF;stroke-width:0.5;stroke-miterlimit:10;}
	.st31{fill:#F74D6A;stroke:#FFFFFF;stroke-width:0.5;stroke-miterlimit:10;}
	.st32{fill:#CC3F5E;stroke:#FFFFFF;stroke-width:0.5;stroke-miterlimit:10;}
	.st33{fill:#FFFFFF;stroke:#FFFFFF;stroke-width:0.5;stroke-miterlimit:10;}
	.st34{fill:#6455BF;stroke:#FFFFFF;stroke-width:0.5;stroke-miterlimit:10;}
	.st35{fill:#FFFFFF;}
	.st36{fill:#AABFAD;}
	.st37{fill:none;}
	.st38{fill:#9A6FEE;}
	.st39{fill:#90D1F3;}
	.st40{fill:#0D529E;}
	.st41{fill:#FCBF29;}
	.st42{fill:#FFB954;}
	.st43{fill:#FEDA9B;}
	.st44{fill:#72D8FF;}
	.st45{fill:#FF5D5D;}
	.st46{fill:#4DBAF6;}
	.st47{fill:#D8D8E4;}
	.st48{fill:#C9F3FF;}
	.st49{fill:#F7F7F7;}
	.st50{fill:#C2CEE9;}
	.st51{fill:#FFA3BF;}
	.st52{fill:#FADE76;}
	.st53{fill:#FFC954;}
	.st54{fill:#FEE4BB;}
	.st55{fill:#262E30;}
	.st56{fill:#FF99BB;}
	.st57{fill-rule:evenodd;clip-rule:evenodd;fill:#C1EE92;}
	.st58{fill-rule:evenodd;clip-rule:evenodd;fill:#67E5DD;}
	.st59{fill-rule:evenodd;clip-rule:evenodd;fill:#FF5D5D;}
	.st60{clip-path:url(#SVGID_4_);fill-rule:evenodd;clip-rule:evenodd;fill:#FF8E8E;}
	.st61{clip-path:url(#SVGID_4_);fill-rule:evenodd;clip-rule:evenodd;}
	.st62{fill-rule:evenodd;clip-rule:evenodd;}
</style>
<circle class="st38" cx="108.0813" cy="108.7024" r="104"/>
<g>
	<path class="st42" d="M69.7407,160.9521H46.9245V56.205c0-6.3006,5.1075-11.4081,11.4081-11.4081l0,0
		c6.3006,0,11.4081,5.1075,11.4081,11.4081V160.9521z"/>
	<path class="st35" d="M69.7407,56.205h71.5599c2.864,0,5.1855,2.3215,5.1855,5.1855v99.5616H69.7407"/>
	<path class="st43" d="M69.7407,160.9521c0-6.3006-5.1075-11.4081-11.4081-11.4081l0,0c-6.3006,0-11.4081,5.1075-11.4081,11.4081
		l0,0c0,6.3006,5.1075,11.4081,11.4081,11.4081h68.8248c2.8639,0,5.1855-2.3215,5.1855-5.1855v-6.2226H69.7407z"/>
	<rect x="80.1117" y="66.5757" class="st35" width="56.0034" height="16.5936"/>
	<rect x="80.1117" y="95.6145" class="st44" width="30.5944" height="24.8904"/>
	<rect x="80.1117" y="66.5757" class="st45" width="56.0034" height="16.5936"/>
	<path class="st46" d="M126.8748,109.5658l46.2503,46.2503c1.8178,1.8178,1.8178,4.765,0,6.5827l-8.5978,8.5978
		c-1.8178,1.8178-4.765,1.8178-6.5827,0l-46.2505-46.25L126.8748,109.5658z"/>
	<path class="st42" d="M151.7264,164.7791l6.2178,6.2178c1.8178,1.8178,4.765,1.8178,6.5827,0l8.5978-8.5978
		c1.8178-1.8178,1.8178-4.765,0-6.5827l-6.2178-6.2178L151.7264,164.7791z"/>
	<polygon class="st47" points="104.0813,101.7024 126.8748,109.5658 111.694,124.7466 	"/>
	<path d="M69.7407,135.0246c-0.6819,0-1.3508,0.2772-1.8331,0.7597c-0.4823,0.4822-0.7597,1.1512-0.7597,1.8331
		c0,0.6819,0.2774,1.3508,0.7597,1.8328c0.4823,0.4822,1.1512,0.7599,1.8331,0.7599s1.3508-0.2774,1.8331-0.7599
		c0.4822-0.482,0.7597-1.1509,0.7597-1.8328c0-0.6819-0.2774-1.3508-0.7597-1.8331
		C71.0915,135.302,70.4226,135.0246,69.7407,135.0246z"/>
	<path d="M146.4861,112.7269c-0.6819,0-1.3508,0.2772-1.8331,0.7597c-0.4823,0.4822-0.7597,1.1512-0.7597,1.8331
		s0.2774,1.3508,0.7597,1.8328c0.4822,0.4822,1.1512,0.7599,1.8331,0.7599s1.3508-0.2774,1.8331-0.7599
		c0.4823-0.482,0.7597-1.1509,0.7597-1.8328s-0.2774-1.3508-0.7597-1.8331C147.8369,113.0043,147.168,112.7269,146.4861,112.7269z"
		/>
	<path d="M138.7078,66.576c0-1.432-1.1608-2.5927-2.5928-2.5927H80.1117c-1.432,0-2.5928,1.1608-2.5928,2.5927v16.5936
		c0,1.432,1.1608,2.5928,2.5928,2.5928h56.0034c1.432,0,2.5928-1.1608,2.5928-2.5928V66.576z M133.5223,80.5768H82.7044V69.1687
		h50.8179V80.5768z"/>
	<path d="M136.1151,93.022h-12.7045c-1.432,0-2.5928,1.1608-2.5928,2.5928s1.1608,2.5928,2.5928,2.5928h12.7045
		c1.432,0,2.5928-1.1608,2.5928-2.5928S137.5471,93.022,136.1151,93.022z"/>
	<path d="M174.7959,153.8203l-46.0878-46.088c-0.2582-0.258-0.5678-0.4589-0.9088-0.5888l-19.718-7.441c-4-1-8,1-6,7l4.2163,11.1759
		c0.0063,0.0164-0.0059,0.0341-0.0235,0.0341H82.7296c-0.0139,0-0.0251-0.0112-0.0251-0.0251V98.2326
		c0-0.0139,0.0112-0.0251,0.0251-0.0251l12.5102,0c1.4168,0,2.697-1.0601,2.7593-2.4755c0.0654-1.4853-1.1193-2.71-2.5902-2.71
		H80.1368c-1.4458,0-2.6179,1.1721-2.6179,2.6179V120.48c0,1.4458,1.1721,2.6179,2.6179,2.6179h28.1356
		c0.0104,0,0.0198,0.0064,0.0235,0.0162l0.974,2.5519c0.1316,0.3447,0.3345,0.6578,0.5954,0.9187l3.7301,3.7301
		c0.0158,0.0158,0.0046,0.0429-0.0178,0.0429H80.2062c-1.1396,0-2.2264,0.6835-2.5614,1.7728
		c-0.5476,1.7804,0.769,3.4128,2.4669,3.4128h38.7017c0.0067,0,0.013,0.0026,0.0178,0.0074l7.2095,7.2095
		c0.0158,0.0158,0.0046,0.0429-0.0178,0.0429l-45.8166,0c-1.1396,0-2.2264,0.6835-2.5614,1.7728
		c-0.5476,1.7804,0.769,3.4128,2.4669,3.4128h51.1469c0.0067,0,0.013,0.0026,0.0178,0.0074l10.3208,10.3208
		c0.0158,0.0158,0.0046,0.0429-0.0178,0.0429H72.1129c-0.0117,0-0.0217-0.0083-0.0238-0.0198
		c-1.2275-6.4757-6.9292-11.3883-13.7565-11.3883c-3.3205,0-6.3733,1.1636-8.776,3.1023c-0.0162,0.013-0.0393,0.002-0.0393-0.0188
		l0-93.525c0-4.4244,3.128-8.3915,7.5068-9.0252c5.4392-0.7871,10.1239,3.4298,10.1239,8.7205l0,70.0655
		c0,1.1398,0.6839,2.2268,1.7735,2.5615c1.7806,0.547,3.4121-0.7699,3.4121-2.4672V58.8228c0-0.0139,0.0112-0.0251,0.0251-0.0251
		h68.9169c1.4458,0,2.6179,1.1721,2.6179,2.6179l0,44.4772c0,1.4168,1.0601,2.697,2.4756,2.7593
		c1.4853,0.0654,2.7099-1.1193,2.7099-2.5902V61.4156c0-4.3097-3.4937-7.8034-7.8034-7.8034H72.1091
		c-0.0118,0-0.0217-0.0083-0.0239-0.0199c-1.3575-7.1593-8.1793-12.409-15.9506-11.2197
		c-6.8797,1.0529-11.8028,7.247-11.8028,14.2068l0,104.3475c0,7.7463,6.2796,14.026,14.026,14.026h68.7748
		c4.3097,0,7.8034-3.4937,7.8034-7.8034v-3.5796c0-0.0139,0.0112-0.0251,0.0251-0.0251h11.5251
		c0.1078,0,0.2134-0.0085,0.3179-0.0215l9.3069,9.3069c1.4131,1.4128,3.2697,2.1711,5.1248,2.1193
		c8.8456-0.2471,16.8456-10.2471,15.7217-17.2063C176.7147,156.2399,175.8727,154.897,174.7959,153.8203z M129.7504,167.1747
		c0,1.4296-1.1631,2.5927-2.5927,2.5927H58.3326c-4.8609,0-8.8153-3.9545-8.8153-8.8154c0-4.8609,3.9545-8.8153,8.8153-8.8153
		s8.8153,3.9545,8.8153,8.8153c0,1.4317,1.1608,2.5928,2.5928,2.5928h60.0097V167.1747z M115.3609,124.7466l11.5139-11.5139
		l36.8655,36.8657l-11.5139,11.5139L115.3609,124.7466z M122.2122,110.5614l-9.5227,9.5227l-5.878-15.4004L122.2122,110.5614z
		 M162.0813,169.7024c-1.131,0.1189-1.4997,0.2654-2.3038-0.5389l-3.8845-3.8845l11.5139-11.5139l3.8845,3.8845
		c0.3894,0.3894,0.5856,0.9075,0.6039,1.4579C172.0813,164.7024,166.469,169.2413,162.0813,169.7024z"/>
</g>
</svg>
