<?xml version="1.0" encoding="utf-8"?>
<!-- Generator: Adobe Illustrator 23.0.1, SVG Export Plug-In . SVG Version: 6.00 Build 0)  -->
<svg version="1.1" id="Layer_1" xmlns="http://www.w3.org/2000/svg" xmlns:xlink="http://www.w3.org/1999/xlink" x="0px" y="0px"
	 viewBox="0 0 218.9317 219.5833" style="enable-background:new 0 0 218.9317 219.5833;" xml:space="preserve">
<style type="text/css">
	.st0{fill:#A5CAFA;}
	.st1{fill:#1177D0;}
	.st2{fill:#325ADA;}
	.st3{fill:#FF9C6E;}
	.st4{fill:#212D50;}
	.st5{fill:#6C757D;}
	.st6{fill:#6610EF;}
	.st7{fill:#6536CA;}
	.st8{fill:#FAA76C;}
	.st9{fill:#F09A82;}
	.st10{fill:#1856C3;}
	.st11{fill:#71B1FC;}
	.st12{fill:#9B6FEF;}
	.st13{fill:#F8F9FA;}
	.st14{fill:#EEEEEE;}
	.st15{fill-rule:evenodd;clip-rule:evenodd;fill:#F5BD5C;}
	.st16{fill-rule:evenodd;clip-rule:evenodd;fill:#B3D1DB;}
	.st17{fill-rule:evenodd;clip-rule:evenodd;fill:#73C4B8;}
	.st18{fill-rule:evenodd;clip-rule:evenodd;fill:#DE614A;}
	.st19{fill-rule:evenodd;clip-rule:evenodd;fill:#C9C729;}
	.st20{fill-rule:evenodd;clip-rule:evenodd;fill:#ACB8DE;}
	.st21{fill:#DE614A;}
	.st22{fill:url(#);}
	.st23{clip-path:url(#SVGID_2_);}
	.st24{fill:#FFD7E1;stroke:#FFFFFF;stroke-width:0.5;stroke-miterlimit:10;}
	.st25{fill:#745DCC;stroke:#FFFFFF;stroke-width:0.5;stroke-miterlimit:10;}
	.st26{fill:#FF9CAF;stroke:#FFFFFF;stroke-width:0.5;stroke-miterlimit:10;}
	.st27{fill:#CC6981;stroke:#FFFFFF;stroke-width:0.5;stroke-miterlimit:10;}
	.st28{fill:#F4CBD6;stroke:#FFFFFF;stroke-width:0.5;stroke-miterlimit:10;}
	.st29{fill:#473D84;stroke:#FFFFFF;stroke-width:0.5;stroke-miterlimit:10;}
	.st30{fill:#433D7A;stroke:#FFFFFF;stroke-width:0.5;stroke-miterlimit:10;}
	.st31{fill:#F74D6A;stroke:#FFFFFF;stroke-width:0.5;stroke-miterlimit:10;}
	.st32{fill:#CC3F5E;stroke:#FFFFFF;stroke-width:0.5;stroke-miterlimit:10;}
	.st33{fill:#FFFFFF;stroke:#FFFFFF;stroke-width:0.5;stroke-miterlimit:10;}
	.st34{fill:#6455BF;stroke:#FFFFFF;stroke-width:0.5;stroke-miterlimit:10;}
	.st35{fill:#FFFFFF;}
	.st36{fill:#AABFAD;}
	.st37{fill:none;}
	.st38{fill:#9A6FEE;}
	.st39{fill:#90D1F3;}
	.st40{fill:#0D529E;}
	.st41{fill:#FCBF29;}
	.st42{fill:#FFB954;}
	.st43{fill:#FEDA9B;}
	.st44{fill:#72D8FF;}
	.st45{fill:#FF5D5D;}
	.st46{fill:#4DBAF6;}
	.st47{fill:#D8D8E4;}
	.st48{fill:#C9F3FF;}
	.st49{fill:#F7F7F7;}
	.st50{fill:#C2CEE9;}
	.st51{fill:#FFA3BF;}
	.st52{fill:#FADE76;}
	.st53{fill:#FFC954;}
	.st54{fill:#FEE4BB;}
	.st55{fill:#262E30;}
	.st56{fill:#FF99BB;}
	.st57{fill-rule:evenodd;clip-rule:evenodd;fill:#C1EE92;}
	.st58{fill-rule:evenodd;clip-rule:evenodd;fill:#67E5DD;}
	.st59{fill-rule:evenodd;clip-rule:evenodd;fill:#FF5D5D;}
	.st60{clip-path:url(#SVGID_4_);fill-rule:evenodd;clip-rule:evenodd;fill:#FF8E8E;}
	.st61{clip-path:url(#SVGID_4_);fill-rule:evenodd;clip-rule:evenodd;}
	.st62{fill-rule:evenodd;clip-rule:evenodd;}
</style>
<circle class="st38" cx="109.4658" cy="108.5785" r="104"/>
<g>
	<path class="st57" d="M54.5159,74.2794h106.3795c6.0194,0,10.9458,4.9267,10.9458,10.9461v64.7173
		c0,6.0204-4.9264,10.9458-10.9458,10.9458H54.5159c-6.0204,0-10.9461-4.9254-10.9461-10.9458V85.2255
		C43.5698,79.2061,48.4955,74.2794,54.5159,74.2794L54.5159,74.2794z M54.5159,74.2794"/>
	<rect x="67.1046" y="85.2968" class="st58" width="93.7195" height="64.5755"/>
	<path class="st59" d="M130.8086,38.4407c4.5194,0,8.2163,3.6969,8.2163,8.2142v74.5266h-16.4315V46.655
		C122.5934,42.1376,126.2902,38.4407,130.8086,38.4407L130.8086,38.4407z M130.8086,38.4407"/>
	<g>
		<defs>
			<rect id="SVGID_3_" x="41.223" y="35.5785" width="133.4857" height="128"/>
		</defs>
		<clipPath id="SVGID_2_">
			<use xlink:href="#SVGID_3_"  style="overflow:visible;"/>
		</clipPath>
		<path style="clip-path:url(#SVGID_2_);fill-rule:evenodd;clip-rule:evenodd;fill:#FF8E8E;" d="M130.8086,137.2215l4.1072-8.0206
			l4.1091-8.0193h-16.4315l4.1072,8.0193L130.8086,137.2215z M130.8086,137.2215"/>
		<path style="clip-path:url(#SVGID_2_);fill-rule:evenodd;clip-rule:evenodd;" d="M160.8954,71.6724h-19.2632V46.655
			c0-5.9664-4.8551-10.8212-10.8236-10.8212c-5.9672,0-10.8223,4.8549-10.8223,10.8212v0.7032c0,1.4388,1.1672,2.607,2.607,2.607
			s2.6073-1.1674,2.6073-2.607V46.655c0-3.0919,2.5151-5.6069,5.608-5.6069c3.0929,0,5.6093,2.5151,5.6093,5.6069v71.9195h-11.2172
			V68.2154c0-1.4399-1.1674-2.6073-2.6073-2.6073c-1.4388,0-2.607,1.1674-2.607,2.6073v3.457H54.5159
			c-7.4736,0-13.5542,6.0805-13.5542,13.5531v64.7173c0,7.4734,6.0805,13.5531,13.5542,13.5531h106.3795
			c7.4726,0,13.5531-6.0797,13.5531-13.5531V85.2255C174.4485,77.7529,168.368,71.6724,160.8954,71.6724L160.8954,71.6724z
			 M134.7596,123.7888l-3.951,7.7142l-3.95-7.7142H134.7596z M169.2342,149.9429c0,4.5978-3.7407,8.3388-8.3388,8.3388H54.5159
			c-4.5991,0-8.3388-3.741-8.3388-8.3388V85.2255c0-4.5981,3.7397-8.3388,8.3388-8.3388h65.4704v5.8031H67.1046
			c-1.4388,0-2.607,1.1672-2.607,2.607v21.8593c0,1.4388,1.1682,2.607,2.607,2.607c1.4409,0,2.6073-1.1682,2.6073-2.607v-19.252
			h50.2745v33.2774c0,0.0583,0.005,0.1165,0.0091,0.1745c0.0011,0.0235,0.0011,0.047,0.0029,0.0705
			c0.0094,0.104,0.0256,0.204,0.047,0.303c0.0031,0.0152,0.0073,0.0285,0.0102,0.0428c0.0204,0.0867,0.046,0.1724,0.0734,0.256
			c0.0084,0.0235,0.0175,0.047,0.0266,0.0705c0.0295,0.0786,0.0632,0.157,0.1011,0.2328c0.006,0.012,0.0102,0.0264,0.0162,0.0387
			l8.2163,16.0387c0.4459,0.8725,1.3409,1.4195,2.3194,1.4195c0.9785,0,1.8745-0.548,2.3204-1.4195l8.2153-16.0387
			c0.0063-0.0123,0.0102-0.0256,0.0175-0.0387c0.0366-0.0758,0.0703-0.1541,0.1008-0.2328c0.0094-0.0235,0.0175-0.047,0.0256-0.0705
			c0.0287-0.0836,0.0541-0.1693,0.0734-0.256c0.0042-0.0144,0.0084-0.0277,0.0112-0.0418c0.0214-0.1001,0.0368-0.2001,0.047-0.3041
			c0.0021-0.0235,0.0021-0.047,0.0031-0.0705c0.0039-0.058,0.0092-0.1152,0.0092-0.1745V87.9041h16.5857v59.3612h-88.506v-19.252
			c0-1.4399-1.1664-2.6073-2.6073-2.6073c-1.4388,0-2.607,1.1674-2.607,2.6073v21.859c0,1.4399,1.1682,2.6073,2.607,2.6073h93.7195
			c1.4396,0,2.607-1.1674,2.607-2.6073V85.2968c0-1.4399-1.1674-2.607-2.607-2.607h-19.1919v-5.8031h19.2632
			c4.5981,0,8.3388,3.7418,8.3388,8.3388V149.9429z M169.2342,149.9429"/>
	</g>
	<path class="st62" d="M55.3372,82.6183c-1.4396,0-2.607,1.1674-2.607,2.6073v13.6571c0,1.4399,1.1674,2.607,2.607,2.607
		c1.4399,0,2.6073-1.1682,2.6073-2.607V85.2255C57.9445,83.7857,56.7771,82.6183,55.3372,82.6183L55.3372,82.6183z M55.3372,82.6183
		"/>
	<path class="st62" d="M55.3372,133.6785c-1.4396,0-2.607,1.1685-2.607,2.6073v13.6571c0,1.4396,1.1674,2.607,2.607,2.607
		c1.4399,0,2.6073-1.1674,2.6073-2.607v-13.6571C57.9445,134.847,56.7771,133.6785,55.3372,133.6785L55.3372,133.6785z
		 M55.3372,133.6785"/>
	<path class="st62" d="M67.1056,120.1917c1.4357,0,2.607-1.1713,2.607-2.607c0-1.4367-1.1713-2.6073-2.607-2.6073
		c-1.4357,0-2.607,1.1705-2.607,2.6073C64.4986,119.0204,65.6699,120.1917,67.1056,120.1917L67.1056,120.1917z M67.1056,120.1917"/>
	<path class="st62" d="M122.5934,60.3938c1.4357,0,2.6073-1.1713,2.6073-2.607c0-1.4357-1.1716-2.6073-2.6073-2.6073
		s-2.607,1.1716-2.607,2.6073C119.9863,59.2225,121.1577,60.3938,122.5934,60.3938L122.5934,60.3938z M122.5934,60.3938"/>
</g>
</svg>
