<svg id="Layer_1" xmlns="http://www.w3.org/2000/svg" viewBox="0 0 218.9317 219.5833">
  <style>
    .st35{fill:#fff}.st42{fill:#ffb954}
  </style>
  <circle cx="108.0813" cy="108.7024" r="104" fill="#9a6fee"/>
  <path class="st42" d="M69.7407 160.9521H46.9245V56.205c0-6.3006 5.1075-11.4081 11.4081-11.4081 6.3006 0 11.4081 5.1075 11.4081 11.4081v104.7471z"/>
  <path class="st35" d="M69.7407 56.205h71.5599c2.864 0 5.1855 2.3215 5.1855 5.1855v99.5616H69.7407"/>
  <path d="M69.7407 160.9521c0-6.3006-5.1075-11.4081-11.4081-11.4081-6.3006 0-11.4081 5.1075-11.4081 11.4081 0 6.3006 5.1075 11.4081 11.4081 11.4081h68.8248c2.8639 0 5.1855-2.3215 5.1855-5.1855v-6.2226H69.7407z" fill="#feda9b"/>
  <path class="st35" d="M80.1117 66.5757h56.0034v16.5936H80.1117z"/>
  <path fill="#72d8ff" d="M80.1117 95.6145h30.5944v24.8904H80.1117z"/>
  <path fill="#ff5d5d" d="M80.1117 66.5757h56.0034v16.5936H80.1117z"/>
  <path d="M126.8748 109.5658l46.2503 46.2503c1.8178 1.8178 1.8178 4.765 0 6.5827l-8.5978 8.5978c-1.8178 1.8178-4.765 1.8178-6.5827 0l-46.2505-46.25 15.1807-15.1808z" fill="#4dbaf6"/>
  <path class="st42" d="M151.7264 164.7791l6.2178 6.2178c1.8178 1.8178 4.765 1.8178 6.5827 0l8.5978-8.5978c1.8178-1.8178 1.8178-4.765 0-6.5827l-6.2178-6.2178-15.1805 15.1805z"/>
  <path fill="#d8d8e4" d="M104.0813 101.7024l22.7935 7.8634-15.1808 15.1808z"/>
  <path d="M69.7407 135.0246c-.6819 0-1.3508.2772-1.8331.7597-.4823.4822-.7597 1.1512-.7597 1.8331s.2774 1.3508.7597 1.8328c.4823.4822 1.1512.7599 1.8331.7599s1.3508-.2774 1.8331-.7599c.4822-.482.7597-1.1509.7597-1.8328s-.2774-1.3508-.7597-1.8331c-.4823-.4823-1.1512-.7597-1.8331-.7597zM146.4861 112.7269c-.6819 0-1.3508.2772-1.8331.7597-.4823.4822-.7597 1.1512-.7597 1.8331s.2774 1.3508.7597 1.8328c.4822.4822 1.1512.7599 1.8331.7599s1.3508-.2774 1.8331-.7599c.4823-.482.7597-1.1509.7597-1.8328s-.2774-1.3508-.7597-1.8331c-.4823-.4823-1.1512-.7597-1.8331-.7597zM138.7078 66.576c0-1.432-1.1608-2.5927-2.5928-2.5927H80.1117c-1.432 0-2.5928 1.1608-2.5928 2.5927v16.5936c0 1.432 1.1608 2.5928 2.5928 2.5928h56.0034c1.432 0 2.5928-1.1608 2.5928-2.5928V66.576zm-5.1855 14.0008H82.7044V69.1687h50.8179v11.4081zM136.1151 93.022h-12.7045c-1.432 0-2.5928 1.1608-2.5928 2.5928s1.1608 2.5928 2.5928 2.5928h12.7045c1.432 0 2.5928-1.1608 2.5928-2.5928s-1.1608-2.5928-2.5928-2.5928z"/>
  <path d="M174.7959 153.8203l-46.0878-46.088a2.5912 2.5912 0 0 0-.9088-.5888l-19.718-7.441c-4-1-8 1-6 7l4.2163 11.1759a.0252.0252 0 0 1-.0235.0341H82.7296a.025.025 0 0 1-.0251-.0251V98.2326a.025.025 0 0 1 .0251-.0251h12.5102c1.4168 0 2.697-1.0601 2.7593-2.4755.0654-1.4853-1.1193-2.71-2.5902-2.71H80.1368c-1.4458 0-2.6179 1.1721-2.6179 2.6179V120.48c0 1.4458 1.1721 2.6179 2.6179 2.6179h28.1356a.0251.0251 0 0 1 .0235.0162l.974 2.5519c.1316.3447.3345.6578.5954.9187l3.7301 3.7301a.0251.0251 0 0 1-.0178.0429H80.2062c-1.1396 0-2.2264.6835-2.5614 1.7728-.5476 1.7804.769 3.4128 2.4669 3.4128h38.7017a.025.025 0 0 1 .0178.0074l7.2095 7.2095a.0251.0251 0 0 1-.0178.0429H80.2063c-1.1396 0-2.2264.6835-2.5614 1.7728-.5476 1.7804.769 3.4128 2.4669 3.4128h51.1469a.025.025 0 0 1 .0178.0074l10.3208 10.3208a.0251.0251 0 0 1-.0178.0429H72.1129a.0241.0241 0 0 1-.0238-.0198c-1.2275-6.4757-6.9292-11.3883-13.7565-11.3883-3.3205 0-6.3733 1.1636-8.776 3.1023a.024.024 0 0 1-.0393-.0188v-93.525c0-4.4244 3.128-8.3915 7.5068-9.0252 5.4392-.7871 10.1239 3.4298 10.1239 8.7205v70.0655c0 1.1398.6839 2.2268 1.7735 2.5615 1.7806.547 3.4121-.7699 3.4121-2.4672V58.8228a.025.025 0 0 1 .0251-.0251h68.9169c1.4458 0 2.6179 1.1721 2.6179 2.6179v44.4772c0 1.4168 1.0601 2.697 2.4756 2.7593 1.4853.0654 2.7099-1.1193 2.7099-2.5902V61.4156c0-4.3097-3.4937-7.8034-7.8034-7.8034H72.1091a.0242.0242 0 0 1-.0239-.0199c-1.3575-7.1593-8.1793-12.409-15.9506-11.2197-6.8797 1.0529-11.8028 7.247-11.8028 14.2068v104.3475c0 7.7463 6.2796 14.026 14.026 14.026h68.7748c4.3097 0 7.8034-3.4937 7.8034-7.8034v-3.5796a.025.025 0 0 1 .0251-.0251h11.5251c.1078 0 .2134-.0085.3179-.0215l9.3069 9.3069c1.4131 1.4128 3.2697 2.1711 5.1248 2.1193 8.8456-.2471 16.8456-10.2471 15.7217-17.2063-.2428-1.5033-1.0848-2.8462-2.1616-3.9229zm-45.0455 13.3544c0 1.4296-1.1631 2.5927-2.5927 2.5927H58.3326c-4.8609 0-8.8153-3.9545-8.8153-8.8154 0-4.8609 3.9545-8.8153 8.8153-8.8153s8.8153 3.9545 8.8153 8.8153c0 1.4317 1.1608 2.5928 2.5928 2.5928h60.0097v3.6299zm-14.3895-42.4281l11.5139-11.5139 36.8655 36.8657-11.5139 11.5139-36.8655-36.8657zm6.8513-14.1852l-9.5227 9.5227-5.878-15.4004 15.4007 5.8777zm39.8691 59.141c-1.131.1189-1.4997.2654-2.3038-.5389l-3.8845-3.8845 11.5139-11.5139 3.8845 3.8845c.3894.3894.5856.9075.6039 1.4579.186 5.5949-5.4263 10.1338-9.814 10.5949z"/>
</svg>
