<?xml version="1.0" encoding="utf-8"?>
<!-- Generator: Adobe Illustrator 23.0.1, SVG Export Plug-In . SVG Version: 6.00 Build 0)  -->
<svg version="1.1" id="Layer_1" xmlns="http://www.w3.org/2000/svg" xmlns:xlink="http://www.w3.org/1999/xlink" x="0px" y="0px"
	 viewBox="0 0 218.9317 219.5833" style="enable-background:new 0 0 218.9317 219.5833;" xml:space="preserve">
<style type="text/css">
	.st0{fill:#A5CAFA;}
	.st1{fill:#1177D0;}
	.st2{fill:#325ADA;}
	.st3{fill:#FF9C6E;}
	.st4{fill:#212D50;}
	.st5{fill:#6C757D;}
	.st6{fill:#6610EF;}
	.st7{fill:#6536CA;}
	.st8{fill:#FAA76C;}
	.st9{fill:#F09A82;}
	.st10{fill:#1856C3;}
	.st11{fill:#71B1FC;}
	.st12{fill:#9B6FEF;}
	.st13{fill:#F8F9FA;}
	.st14{fill:#EEEEEE;}
	.st15{fill-rule:evenodd;clip-rule:evenodd;fill:#F5BD5C;}
	.st16{fill-rule:evenodd;clip-rule:evenodd;fill:#B3D1DB;}
	.st17{fill-rule:evenodd;clip-rule:evenodd;fill:#73C4B8;}
	.st18{fill-rule:evenodd;clip-rule:evenodd;fill:#DE614A;}
	.st19{fill-rule:evenodd;clip-rule:evenodd;fill:#C9C729;}
	.st20{fill-rule:evenodd;clip-rule:evenodd;fill:#ACB8DE;}
	.st21{fill:#DE614A;}
	.st22{fill:url(#);}
	.st23{clip-path:url(#SVGID_2_);}
	.st24{fill:#FFD7E1;stroke:#FFFFFF;stroke-width:0.5;stroke-miterlimit:10;}
	.st25{fill:#745DCC;stroke:#FFFFFF;stroke-width:0.5;stroke-miterlimit:10;}
	.st26{fill:#FF9CAF;stroke:#FFFFFF;stroke-width:0.5;stroke-miterlimit:10;}
	.st27{fill:#CC6981;stroke:#FFFFFF;stroke-width:0.5;stroke-miterlimit:10;}
	.st28{fill:#F4CBD6;stroke:#FFFFFF;stroke-width:0.5;stroke-miterlimit:10;}
	.st29{fill:#473D84;stroke:#FFFFFF;stroke-width:0.5;stroke-miterlimit:10;}
	.st30{fill:#433D7A;stroke:#FFFFFF;stroke-width:0.5;stroke-miterlimit:10;}
	.st31{fill:#F74D6A;stroke:#FFFFFF;stroke-width:0.5;stroke-miterlimit:10;}
	.st32{fill:#CC3F5E;stroke:#FFFFFF;stroke-width:0.5;stroke-miterlimit:10;}
	.st33{fill:#FFFFFF;stroke:#FFFFFF;stroke-width:0.5;stroke-miterlimit:10;}
	.st34{fill:#6455BF;stroke:#FFFFFF;stroke-width:0.5;stroke-miterlimit:10;}
	.st35{fill:#FFFFFF;}
	.st36{fill:#AABFAD;}
	.st37{fill:none;}
	.st38{fill:#9A6FEE;}
	.st39{fill:#90D1F3;}
	.st40{fill:#0D529E;}
	.st41{fill:#FCBF29;}
	.st42{fill:#FFB954;}
	.st43{fill:#FEDA9B;}
	.st44{fill:#72D8FF;}
	.st45{fill:#FF5D5D;}
	.st46{fill:#4DBAF6;}
	.st47{fill:#D8D8E4;}
	.st48{fill:#C9F3FF;}
	.st49{fill:#F7F7F7;}
	.st50{fill:#C2CEE9;}
	.st51{fill:#FFA3BF;}
	.st52{fill:#FADE76;}
	.st53{fill:#FFC954;}
	.st54{fill:#FEE4BB;}
	.st55{fill:#262E30;}
	.st56{fill:#FF99BB;}
	.st57{fill-rule:evenodd;clip-rule:evenodd;fill:#C1EE92;}
	.st58{fill-rule:evenodd;clip-rule:evenodd;fill:#67E5DD;}
	.st59{fill-rule:evenodd;clip-rule:evenodd;fill:#FF5D5D;}
	.st60{clip-path:url(#SVGID_4_);fill-rule:evenodd;clip-rule:evenodd;fill:#FF8E8E;}
	.st61{clip-path:url(#SVGID_4_);fill-rule:evenodd;clip-rule:evenodd;}
	.st62{fill-rule:evenodd;clip-rule:evenodd;}
</style>
<circle class="st38" cx="110.8504" cy="108.0597" r="104"/>
<g>
	<polygon class="st39" points="57.7004,164.4347 46.5754,164.4347 46.5754,44.2847 126.6754,44.2847 126.6754,122.1597 
		91.0754,122.1597 91.0754,164.4347 66.6004,164.4347 66.6004,133.8097 62.1504,124.9097 57.7004,133.8097 	"/>
	<rect x="91.0754" y="122.1597" class="st39" width="84.55" height="51.175"/>
	<g>
		<polygon class="st35" points="66.6004,128.8097 62.1504,119.9097 57.7004,128.8097 57.7004,131.0347 66.6004,131.0347 		"/>
		<rect x="57.7004" y="131.0347" class="st35" width="8.9" height="28.95"/>
	</g>
	<g>
		<rect x="57.7004" y="151.0847" class="st40" width="8.9" height="8.9"/>
		<path class="st40" d="M175.6254,122.1597L175.6254,122.1597c0,7.3737-5.9764,13.35-13.35,13.35h-57.85
			c-7.3736,0-13.35-5.9763-13.35-13.35H175.6254z"/>
	</g>
	<rect x="135.5754" y="86.5597" class="st39" width="40.05" height="26.7"/>
	<g>
		<path class="st41" d="M57.7004,168.8847c0,2.4586,1.9914,4.45,4.45,4.45s4.45-1.9914,4.45-4.45v-8.9h-8.9V168.8847z"/>
	</g>
	<path d="M175.6253,119.9347H91.0755c-1.228,0-2.2251,0.9968-2.2251,2.2251v40.0498H68.8255v-34.3999
		c0-0.345-0.0801-0.6853-0.2339-0.9946l-4.4497-8.8999c-0.6567-1.0991-2.0781-1.4597-3.1797-0.8032
		c-0.3315,0.198-0.6074,0.4739-0.8032,0.8032l-4.4502,8.8999c-0.1533,0.3093-0.2334,0.6497-0.2334,0.9946v34.3999h-6.6748v-115.7
		h75.6499v52.0886c0.5952-0.2629,1.2852-0.4146,2.0728-0.4146c0.9277,0,1.7168,0.2122,2.377,0.5667V44.2848
		c0-1.2283-0.9966-2.2251-2.2246-2.2251H46.5755c-1.228,0-2.2251,0.9968-2.2251,2.2251v120.1499
		c0,1.2283,0.9971,2.2251,2.2251,2.2251h8.8999v2.2249c0,3.6868,2.9883,6.675,6.6748,6.675c3.687,0,6.6753-2.9883,6.6753-6.675
		v-2.2249h20.0249v6.6748c0,1.2283,0.9971,2.2251,2.2251,2.2251h65.1555c-1.0337-1.188-1.4121-2.8857-1.1382-4.45H93.3006v-38.0698
		c2.9233,3.0015,6.9351,4.6948,11.125,4.6948h57.8496c4.1899,0,8.2017-1.6934,11.125-4.6948v38.0698l2.2251,4.45
		c1.228,0,2.2251-0.9968,2.2251-2.2251v-51.1748C177.8504,120.9315,176.8533,119.9347,175.6253,119.9347z M62.1502,124.8849
		l1.9629,3.9248h-3.9253L62.1502,124.8849z M64.3753,168.8847c0,1.2283-0.9966,2.2251-2.2251,2.2251
		c-1.228,0-2.2246-0.9968-2.2246-2.2251v-6.675h4.4497V168.8847z M64.3753,157.7597h-4.4497v-4.45h4.4497V157.7597z
		 M64.3753,148.8598h-4.4497v-15.6001h4.4497V148.8598z M162.2752,133.2848h-57.8496c-5.2847-0.0068-9.8394-3.7249-10.9028-8.9002
		h79.6553C172.1145,129.56,167.5598,133.278,162.2752,133.2848z"/>
	<path d="M135.3968,99.1283c0.9502,0,1.7563-0.2217,2.4263-0.5923v12.4988h35.5996v-22.25h-35.5996l-4.4502-2.2251
		c0-1.2283,0.9971-2.2251,2.2251-2.2251h40.0498c1.228,0,2.2251,0.9968,2.2251,2.2251v26.7c0,1.2283-0.9971,2.2251-2.2251,2.2251
		H135.598c-1.228,0-2.2251-0.9968-2.2251-2.2251V98.7326C133.9574,98.9828,134.6297,99.1283,135.3968,99.1283z"/>
	<path d="M111.6141,158.1837h39.553c1.4431,0,2.6131-1.17,2.6131-2.613c0-1.4431-1.17-2.6131-2.6131-2.6131h-39.553
		c-1.4431,0-2.613,1.17-2.613,2.6131C109.0011,157.0137,110.1711,158.1837,111.6141,158.1837L111.6141,158.1837z M111.6141,158.1837
		"/>
	<path d="M111.6141,167.1837h17.553c1.4431,0,2.6131-1.17,2.6131-2.613c0-1.4431-1.17-2.6131-2.6131-2.6131h-17.553
		c-1.4431,0-2.613,1.17-2.613,2.6131C109.0011,166.0137,110.1711,167.1837,111.6141,167.1837L111.6141,167.1837z M111.6141,167.1837
		"/>
	<path d="M104.8938,154.1119c-0.065-0.1607-0.1467-0.3113-0.241-0.453c-0.0957-0.144-0.2068-0.2767-0.3266-0.3969
		c-0.1199-0.1199-0.2528-0.2309-0.3969-0.324c-0.1417-0.0944-0.2936-0.1747-0.4491-0.2397
		c-0.1594-0.0663-0.3253-0.1163-0.4886-0.1493c-0.3368-0.0689-0.6853-0.0689-1.022,0c-0.1672,0.033-0.3319,0.083-0.4886,0.1493
		c-0.1594,0.065-0.3113,0.1454-0.4517,0.2397c-0.144,0.0931-0.2783,0.2041-0.3982,0.324c-0.1199,0.1202-0.2296,0.2528-0.324,0.3969
		c-0.0931,0.1418-0.1748,0.2923-0.2398,0.453c-0.0663,0.1555-0.115,0.3201-0.148,0.4873c-0.0359,0.1672-0.0539,0.3394-0.0539,0.5092
		c0,0.1708,0.018,0.343,0.0539,0.5128c0.033,0.1646,0.0817,0.3292,0.148,0.4886c0.065,0.1571,0.1467,0.3087,0.2398,0.4491
		c0.0944,0.1444,0.2041,0.2783,0.324,0.3969c0.1199,0.1238,0.2541,0.2309,0.3982,0.3266c0.1404,0.0957,0.2923,0.1761,0.4517,0.241
		c0.1568,0.065,0.3214,0.115,0.4886,0.1493c0.1672,0.0333,0.3394,0.0487,0.5089,0.0487c0.1698,0,0.3433-0.0154,0.5131-0.0487
		c0.1633-0.0343,0.3292-0.0843,0.4886-0.1493c0.1555-0.065,0.3074-0.1453,0.4491-0.241c0.1441-0.0957,0.277-0.2028,0.3969-0.3266
		c0.1199-0.1186,0.2309-0.2525,0.3266-0.3969c0.0944-0.1404,0.1761-0.292,0.241-0.4491c0.065-0.1594,0.1137-0.324,0.1493-0.4886
		c0.0333-0.1698,0.0483-0.342,0.0483-0.5128c0-0.1698-0.015-0.342-0.0483-0.5092
		C105.0088,154.432,104.9588,154.2674,104.8938,154.1119L104.8938,154.1119z M104.8938,154.1119"/>
	<path d="M64.8938,56.1119c-0.065-0.1607-0.1467-0.3113-0.241-0.453c-0.0957-0.144-0.2068-0.2767-0.3266-0.3969
		c-0.1199-0.1199-0.2528-0.2309-0.3969-0.324c-0.1417-0.0944-0.2936-0.1747-0.4491-0.2397
		c-0.1594-0.0663-0.3253-0.1163-0.4886-0.1493c-0.3368-0.0689-0.6853-0.0689-1.022,0c-0.1672,0.033-0.3319,0.083-0.4886,0.1493
		c-0.1594,0.065-0.3113,0.1453-0.4517,0.2397c-0.144,0.0931-0.2783,0.2041-0.3982,0.324c-0.1199,0.1202-0.2296,0.2528-0.324,0.3969
		c-0.0931,0.1418-0.1748,0.2923-0.2397,0.453c-0.0663,0.1555-0.115,0.3201-0.148,0.4873c-0.0359,0.1672-0.0539,0.3394-0.0539,0.5092
		c0,0.1708,0.018,0.343,0.0539,0.5128c0.033,0.1646,0.0817,0.3292,0.148,0.4886c0.065,0.1571,0.1467,0.3087,0.2397,0.4491
		c0.0944,0.1444,0.2041,0.2783,0.324,0.3969c0.1199,0.1238,0.2541,0.2309,0.3982,0.3266c0.1404,0.0957,0.2923,0.1761,0.4517,0.2411
		c0.1568,0.065,0.3214,0.115,0.4886,0.1493c0.1672,0.0333,0.3394,0.0487,0.5089,0.0487c0.1698,0,0.3433-0.0154,0.5131-0.0487
		c0.1633-0.0343,0.3292-0.0843,0.4886-0.1493c0.1555-0.065,0.3074-0.1454,0.4491-0.2411c0.1441-0.0957,0.277-0.2028,0.3969-0.3266
		c0.1199-0.1186,0.2309-0.2525,0.3266-0.3969c0.0944-0.1404,0.1761-0.292,0.241-0.4491c0.065-0.1594,0.1137-0.324,0.1493-0.4886
		c0.0333-0.1698,0.0483-0.342,0.0483-0.5128c0-0.1698-0.015-0.342-0.0483-0.5092C65.0088,56.432,64.9588,56.2674,64.8938,56.1119
		L64.8938,56.1119z M64.8938,56.1119"/>
	<path d="M128.7529,111.8832c-0.0559-0.1382-0.1261-0.2677-0.2073-0.3897c-0.0823-0.1239-0.1778-0.238-0.281-0.3413
		c-0.1031-0.1031-0.2174-0.1986-0.3413-0.2787c-0.1219-0.0812-0.2526-0.1503-0.3863-0.2062c-0.1371-0.057-0.2798-0.1-0.4203-0.1284
		c-0.2897-0.0593-0.5894-0.0593-0.8791,0c-0.1438,0.0284-0.2854,0.0714-0.4203,0.1284c-0.1371,0.0559-0.2677,0.125-0.3885,0.2062
		c-0.1239,0.0801-0.2394,0.1756-0.3425,0.2787c-0.1031,0.1034-0.1975,0.2174-0.2787,0.3413
		c-0.0801,0.1219-0.1503,0.2514-0.2062,0.3897c-0.057,0.1337-0.0989,0.2753-0.1273,0.4192
		c-0.0309,0.1438-0.0463,0.2919-0.0463,0.438c0,0.1469,0.0154,0.295,0.0463,0.4411c0.0284,0.1416,0.0702,0.2832,0.1273,0.4203
		c0.0559,0.1351,0.1261,0.2655,0.2062,0.3863c0.0812,0.1242,0.1756,0.2394,0.2787,0.3413c0.1031,0.1065,0.2186,0.1986,0.3425,0.2809
		c0.1208,0.0823,0.2514,0.1514,0.3885,0.2073c0.1348,0.0559,0.2764,0.0989,0.4203,0.1284c0.1438,0.0287,0.2919,0.0419,0.4377,0.0419
		c0.1461,0,0.2953-0.0132,0.4414-0.0419c0.1405-0.0295,0.2832-0.0725,0.4203-0.1284c0.1337-0.0559,0.2644-0.125,0.3863-0.2073
		c0.1239-0.0823,0.2382-0.1745,0.3413-0.2809c0.1031-0.102,0.1986-0.2172,0.281-0.3413c0.0812-0.1208,0.1514-0.2512,0.2073-0.3863
		c0.0559-0.1371,0.0978-0.2787,0.1284-0.4203c0.0287-0.1461,0.0416-0.2941,0.0416-0.4411c0-0.1461-0.0129-0.2942-0.0416-0.438
		C128.8518,112.1585,128.8089,112.0169,128.7529,111.8832L128.7529,111.8832z M128.7529,111.8832"/>
	<path d="M167.8577,172.4767c-0.0559-0.1382-0.1261-0.2677-0.2073-0.3897c-0.0823-0.1239-0.1778-0.2379-0.2809-0.3413
		c-0.1031-0.1031-0.2174-0.1986-0.3413-0.2787c-0.1219-0.0812-0.2526-0.1503-0.3863-0.2062c-0.1371-0.057-0.2798-0.1-0.4203-0.1284
		c-0.2897-0.0593-0.5894-0.0593-0.8791,0c-0.1438,0.0284-0.2854,0.0714-0.4203,0.1284c-0.1371,0.0559-0.2677,0.125-0.3885,0.2062
		c-0.1239,0.0801-0.2394,0.1756-0.3425,0.2787c-0.1031,0.1034-0.1975,0.2175-0.2787,0.3413
		c-0.0801,0.1219-0.1503,0.2514-0.2062,0.3897c-0.057,0.1337-0.0989,0.2753-0.1273,0.4192
		c-0.0309,0.1438-0.0463,0.2919-0.0463,0.438c0,0.1469,0.0154,0.295,0.0463,0.4411c0.0284,0.1416,0.0702,0.2832,0.1273,0.4203
		c0.0559,0.1351,0.1261,0.2655,0.2062,0.3863c0.0812,0.1242,0.1756,0.2394,0.2787,0.3413c0.1031,0.1065,0.2186,0.1986,0.3425,0.2809
		c0.1208,0.0823,0.2514,0.1514,0.3885,0.2073c0.1349,0.0559,0.2764,0.0989,0.4203,0.1284c0.1438,0.0287,0.2919,0.0419,0.4377,0.0419
		c0.1461,0,0.2953-0.0132,0.4414-0.0419c0.1405-0.0295,0.2832-0.0725,0.4203-0.1284c0.1337-0.0559,0.2644-0.125,0.3863-0.2073
		c0.1239-0.0823,0.2382-0.1745,0.3413-0.2809c0.1031-0.102,0.1986-0.2172,0.2809-0.3413c0.0812-0.1208,0.1514-0.2512,0.2073-0.3863
		c0.0559-0.1371,0.0978-0.2787,0.1284-0.4203c0.0287-0.1461,0.0416-0.2941,0.0416-0.4411c0-0.1461-0.0129-0.2941-0.0416-0.438
		C167.9565,172.7521,167.9136,172.6105,167.8577,172.4767L167.8577,172.4767z M167.8577,172.4767"/>
	<path d="M73.6141,69.1837h17.5529c1.4431,0,2.6131-1.17,2.6131-2.613c0-1.443-1.17-2.613-2.6131-2.613H73.6141
		c-1.4431,0-2.613,1.17-2.613,2.613C71.0011,68.0138,72.1711,69.1837,73.6141,69.1837L73.6141,69.1837z M73.6141,69.1837"/>
	<path d="M153.6141,98.1837h12.553c1.4431,0,2.6131-1.17,2.6131-2.613c0-1.443-1.17-2.613-2.6131-2.613h-12.553
		c-1.4431,0-2.613,1.17-2.613,2.613C151.0011,97.0138,152.1711,98.1837,153.6141,98.1837L153.6141,98.1837z M153.6141,98.1837"/>
	<path d="M124.4051,92.7852v10.7971c0,1.2412,1.0063,2.2475,2.2475,2.2475c1.2412,0,2.2475-1.0063,2.2475-2.2475V92.7852
		c0-1.2412-1.0063-2.2475-2.2475-2.2475C125.4114,90.5377,124.4051,91.544,124.4051,92.7852L124.4051,92.7852z M124.4051,92.7852"/>
	<path d="M137.8454,94.5111c0-1.2412-1.0063-2.2475-2.2475-2.2475s-2.2475,1.0063-2.2475,2.2475v10.7971
		c0,1.2412,1.0063,2.2475,2.2475,2.2475s2.2475-1.0063,2.2475-2.2475V94.5111L137.8454,94.5111z M137.8454,94.5111"/>
	<path d="M146.395,88.8072c1.2412,0,2.2475-1.0063,2.2475-2.2475c0-1.2412-1.0063-2.2475-2.2475-2.2475h-10.7971
		c-1.2412,0-2.2475,1.0063-2.2475,2.2475c0,1.2412,1.0063,2.2475,2.2475,2.2475H146.395L146.395,88.8072z M146.395,88.8072"/>
	<path d="M153.6141,107.1837h8.553c1.4431,0,2.6131-1.17,2.6131-2.613c0-1.443-1.17-2.613-2.6131-2.613h-8.553
		c-1.4431,0-2.613,1.17-2.613,2.613C151.0011,106.0138,152.1711,107.1837,153.6141,107.1837L153.6141,107.1837z M153.6141,107.1837"
		/>
	<path d="M146.8938,94.1119c-0.065-0.1607-0.1467-0.3113-0.2411-0.453c-0.0957-0.144-0.2068-0.2766-0.3266-0.3969
		c-0.1199-0.1199-0.2528-0.2309-0.3969-0.324c-0.1418-0.0944-0.2936-0.1747-0.4491-0.2397
		c-0.1594-0.0663-0.3253-0.1163-0.4886-0.1493c-0.3367-0.0689-0.6853-0.0689-1.022,0c-0.1672,0.033-0.3318,0.083-0.4886,0.1493
		c-0.1594,0.065-0.3113,0.1453-0.4517,0.2397c-0.144,0.0931-0.2783,0.2041-0.3982,0.324c-0.1199,0.1202-0.2296,0.2528-0.324,0.3969
		c-0.0931,0.1418-0.1748,0.2923-0.2397,0.453c-0.0663,0.1555-0.115,0.3201-0.148,0.4873c-0.0359,0.1672-0.0539,0.3394-0.0539,0.5092
		c0,0.1708,0.018,0.343,0.0539,0.5128c0.033,0.1646,0.0817,0.3292,0.148,0.4886c0.065,0.1571,0.1467,0.3087,0.2397,0.4491
		c0.0944,0.1444,0.2041,0.2783,0.324,0.3969c0.1199,0.1238,0.2541,0.2309,0.3982,0.3266c0.1404,0.0957,0.2923,0.1761,0.4517,0.2411
		c0.1568,0.065,0.3214,0.115,0.4886,0.1493c0.1672,0.0333,0.3394,0.0487,0.5089,0.0487c0.1698,0,0.3433-0.0154,0.5131-0.0487
		c0.1633-0.0343,0.3293-0.0843,0.4886-0.1493c0.1555-0.065,0.3074-0.1454,0.4491-0.2411c0.144-0.0957,0.277-0.2028,0.3969-0.3266
		c0.1199-0.1186,0.2309-0.2525,0.3266-0.3969c0.0944-0.1404,0.1761-0.292,0.2411-0.4491c0.065-0.1594,0.1137-0.324,0.1493-0.4886
		c0.0333-0.1698,0.0484-0.342,0.0484-0.5128c0-0.1699-0.015-0.342-0.0484-0.5092C147.0088,94.432,146.9588,94.2674,146.8938,94.1119
		L146.8938,94.1119z M146.8938,94.1119"/>
	<path d="M73.6141,60.1837h30.5529c1.4431,0,2.6131-1.17,2.6131-2.613c0-1.443-1.17-2.613-2.6131-2.613H73.6141
		c-1.4431,0-2.613,1.17-2.613,2.613C71.0011,59.0138,72.1711,60.1837,73.6141,60.1837L73.6141,60.1837z M73.6141,60.1837"/>
	<path d="M145.608,175.5597h10.7971c1.2412,0,2.2475-1.0063,2.2475-2.2475s-1.0063-2.2475-2.2475-2.2475H145.608
		c-1.2412,0-2.2475,1.0063-2.2475,2.2475S144.3668,175.5597,145.608,175.5597L145.608,175.5597z M145.608,175.5597"/>
	<path d="M173.3778,162.5151v10.7971c0,1.2412,1.0063,2.2475,2.2475,2.2475c1.2412,0,2.2475-1.0063,2.2475-2.2475v-10.7971
		c0-1.2412-1.0063-2.2475-2.2475-2.2475C174.3842,160.2675,173.3778,161.2739,173.3778,162.5151L173.3778,162.5151z
		 M173.3778,162.5151"/>
</g>
</svg>
