<svg id="Layer_1" xmlns="http://www.w3.org/2000/svg" viewBox="0 0 218.9317 219.5833">
  <style>
  </style>
  <circle cx="109.4658" cy="108.0597" r="104" fill="#9a6fee"/>
  <path d="M173.8528 61.6659v20.7743H45.2905V61.6659c0-2.9472 2.8044-5.3561 6.2328-5.3561H167.62c3.4283.0001 6.2328 2.409 6.2328 5.3561zm0 0" fill="#c9f3ff"/>
  <path d="M173.8528 82.4403v67.8091c0 2.9472-2.8045 5.3561-6.2328 5.3561h-34.484l-10.4522-10.4522h40.5521V92.8925H55.9073v52.2608h40.9206l10.4522 10.4522H51.5233c-3.4283 0-6.2328-2.4089-6.2328-5.3561V82.4403h128.5623zm0 0" fill="#f7f7f7"/>
  <path d="M71.3876 109.8197l2.9576 8.3023 1.9278 5.4047a7.1366 7.1366 0 0 0 1.7279 2.7992l18.827 18.8273H55.9073V92.8925h46.8701v32.3544l-11.3043-11.3047-.5615-.5576c-.7731-.7771-1.7187-1.3614-2.7574-1.7148l-5.4185-1.9379-8.286-2.9704c-1.9035-.6814-3.7421 1.1533-3.0621 3.0582zm0 0" fill="#c2cee9"/>
  <path d="M163.236 92.8925v52.2608h-40.5521l-19.9065-19.9065V92.8925h60.4586zm0 0" fill="#ffa3bf"/>
  <path d="M84.9708 120.4444l6.5022-6.5009 54.9846 54.9849-6.5006 6.5019-54.9862-54.9859zm0 0" fill="#fade76"/>
  <path d="M139.9584 175.4303l-6.4255 6.4281-54.9862-54.9862 6.4255-6.4278 54.9862 54.9859zm0 0" fill="#ffc954"/>
  <path d="M91.4731 113.9421l-6.5009 6.5022-6.4255 6.4278-.5458-.5461a7.1384 7.1384 0 0 1-1.7279-2.7992l-1.9278-5.4047 8.3905-8.3902 5.4185 1.9379c1.0387.3534 1.9843.9378 2.7574 1.7148l.5615.5575zm0 0" fill="#fee4bb"/>
  <path d="M82.7357 109.7319l-8.3905 8.3902-2.9576-8.3023c-.68-1.9049 1.1586-3.7396 3.0622-3.0582l8.2859 2.9703zm0 0" fill="#262e30"/>
  <path d="M146.5125 168.9832l-.0522-.0549c3.5674 3.5688 3.6556 9.3704.1329 12.8944l-.1698.1682c-3.524 3.524-9.2708 3.4884-12.8395-.0791" fill="#f9b"/>
  <path d="M92.5869 72.075h67.8075c1.4444 0 2.6131-1.17 2.6131-2.6131 0-1.4431-1.1687-2.613-2.6131-2.613H92.5869c-1.4431 0-2.613 1.17-2.613 2.613-.0001 1.4431 1.1699 2.6131 2.613 2.6131zm0 0M56.9917 71.6347c.1418.0957.2923.1761.4517.2411.1571.065.3214.115.4886.1493.1672.0333.3394.0487.5092.0487.6902 0 1.3614-.277 1.8474-.7656.4886-.486.7656-1.1599.7656-1.8474a2.647 2.647 0 0 0-.0487-.5092 2.645 2.645 0 0 0-.1493-.4873 2.6143 2.6143 0 0 0-.2411-.453 2.5464 2.5464 0 0 0-.3266-.3969c-.6062-.6059-1.5067-.8855-2.3566-.713a2.5069 2.5069 0 0 0-.4886.1493 2.55 2.55 0 0 0-.4517.2397c-.1441.0931-.2767.2041-.3982.324-.1186.1202-.2296.2528-.3227.3969a2.6216 2.6216 0 0 0-.2411.453 2.5477 2.5477 0 0 0-.148.4873c-.0346.1712-.0536.3394-.0536.5092 0 .6876.2793 1.3614.7666 1.8474.1204.1237.253.2308.3971.3265zm0 0M66.4832 70.4621a2.562 2.562 0 0 0 .2397.4491 2.367 2.367 0 0 0 .324.3969c.1202.1212.2528.2309.3969.3266.1418.0957.2923.1761.453.2411.1558.065.3201.115.4873.1493.1672.0333.3394.0487.5092.0487.6902 0 1.3614-.277 1.8474-.7656a2.4473 2.4473 0 0 0 .3266-.3969 2.5685 2.5685 0 0 0 .2411-.4491c.065-.1568.115-.3214.1493-.4886a2.6568 2.6568 0 0 0 .0487-.5128c0-.1698-.0153-.3381-.0487-.5092a2.645 2.645 0 0 0-.1493-.4873 2.6143 2.6143 0 0 0-.2411-.453 2.5464 2.5464 0 0 0-.3266-.3969c-.1199-.1199-.2525-.2309-.3969-.324a2.6127 2.6127 0 0 0-.4491-.2397 2.6138 2.6138 0 0 0-.4886-.1493 2.5524 2.5524 0 0 0-1.022 0 2.5069 2.5069 0 0 0-.4886.1493 2.55 2.55 0 0 0-.4517.2397c-.144.0931-.2767.2041-.3982.324-.1186.1202-.2296.2528-.3227.3969a2.6216 2.6216 0 0 0-.2411.453 2.5477 2.5477 0 0 0-.148.4873c-.0346.1712-.0536.3394-.0536.5092 0 .1721.0189.343.0536.5128.0332.1671.0831.3317.1494.4885zm0 0M76.9354 70.4621c.065.1571.1454.3087.2397.4491a2.367 2.367 0 0 0 .324.3969c.1202.1238.2528.2309.3969.3266.1418.0957.2923.1761.453.2411.1558.065.3201.115.4873.1493.1672.0333.3394.0487.5092.0487.1708 0 .343-.0154.5128-.0487a2.8233 2.8233 0 0 0 .4886-.1493 2.4847 2.4847 0 0 0 .4491-.2411c.1444-.0957.2783-.2028.3969-.3266a2.4473 2.4473 0 0 0 .3266-.3969 2.4847 2.4847 0 0 0 .2411-.4491c.0627-.1594.115-.324.1493-.4886a2.6568 2.6568 0 0 0 .0487-.5128c0-.1698-.0154-.342-.0487-.5092a2.8342 2.8342 0 0 0-.1493-.4873 2.5285 2.5285 0 0 0-.2411-.453 2.5408 2.5408 0 0 0-.3266-.3969 2.367 2.367 0 0 0-.3969-.324 2.562 2.562 0 0 0-.4491-.2397 2.6138 2.6138 0 0 0-.4886-.1493 2.5524 2.5524 0 0 0-1.022 0 2.4679 2.4679 0 0 0-.4873.1493 2.5172 2.5172 0 0 0-.453.2397c-.144.0931-.2767.2041-.3969.324-.1199.1202-.2309.2528-.324.3969a2.615 2.615 0 0 0-.2397.453 2.4617 2.4617 0 0 0-.1493.4873 2.5246 2.5246 0 0 0 0 1.022c.033.1646.083.3292.1493.4886zm0 0M113.2296 111.1837h39.553c1.4431 0 2.6131-1.17 2.6131-2.613s-1.17-2.613-2.6131-2.613h-39.553c-1.4431 0-2.613 1.17-2.613 2.613-.0001 1.4431 1.1699 2.613 2.613 2.613zm0 0M152.7825 116.4098h-5.3218c-1.4431 0-2.6131 1.17-2.6131 2.613 0 1.4431 1.17 2.613 2.6131 2.613h5.3218c1.4431 0 2.6131-1.17 2.6131-2.613s-1.17-2.613-2.6131-2.613zm0 0M139.5093 118.1119a2.529 2.529 0 0 0-.241-.453 2.622 2.622 0 0 0-.3266-.3969c-.1199-.1199-.2528-.2309-.3969-.324a2.6732 2.6732 0 0 0-.4491-.2397 2.6437 2.6437 0 0 0-.4886-.1493 2.5524 2.5524 0 0 0-1.022 0 2.4985 2.4985 0 0 0-.4886.1493 2.5057 2.5057 0 0 0-.4517.2397 2.447 2.447 0 0 0-.3982.324 2.516 2.516 0 0 0-.324.3969 2.6065 2.6065 0 0 0-.2398.453 2.4583 2.4583 0 0 0-.148.4873 2.4362 2.4362 0 0 0-.0539.5092c0 .1708.018.343.0539.5128a2.609 2.609 0 0 0 .148.4886 2.652 2.652 0 0 0 .2398.4491c.0944.1444.2041.2783.324.3969.1199.1238.2541.2309.3982.3266.1405.0957.2923.1761.4517.2411.1568.065.3214.115.4886.1493a2.617 2.617 0 0 0 .5089.0487c.1698 0 .3433-.0154.5131-.0487a2.8583 2.8583 0 0 0 .4886-.1493 2.5857 2.5857 0 0 0 .4491-.2411c.1441-.0957.277-.2028.3969-.3266a2.5169 2.5169 0 0 0 .3266-.3969 2.5614 2.5614 0 0 0 .241-.4491c.065-.1594.1137-.324.1493-.4886a2.6662 2.6662 0 0 0 .0484-.5128c0-.1699-.015-.342-.0484-.5092a2.6551 2.6551 0 0 0-.1493-.4873zm0 0M126.5564 116.4098h-13.3268c-1.4431 0-2.613 1.17-2.613 2.613 0 1.4431 1.17 2.613 2.613 2.613h13.3268c1.4431 0 2.613-1.17 2.613-2.613s-1.1699-2.613-2.613-2.613zm0 0"/>
  <path d="M167.62 53.6968H51.5233c-4.8779 0-8.8458 3.575-8.8458 7.9691v88.5834c0 4.3941 3.9679 7.9691 8.8458 7.9691h54.675l25.4873 25.4873.0509.0523c2.2149 2.2152 5.151 3.4463 8.268 3.4655h.0751c3.1004 0 6.007-1.2007 8.1925-3.3852l.1685-.1682c4.5359-4.5372 4.5-11.9553-.083-16.5383l-.0382-.0369c-.0052-.0052-.0078-.0092-.0114-.014l-8.8638-8.8625H167.62c4.8776 0 8.8458-3.575 8.8458-7.9691V61.6659c0-4.3941-3.9682-7.9691-8.8458-7.9691zM51.5233 58.9229H167.62c1.9608 0 3.6197 1.2569 3.6197 2.743v18.1613H47.9035V61.6659c0-1.4861 1.6574-2.743 3.6198-2.743zM160.623 95.5055v47.0348h-36.857l-10.4522-10.4522h39.4687c1.4431 0 2.6131-1.17 2.6131-2.613s-1.17-2.613-2.6131-2.613h-39.553c-1.4163 0-2.5657 1.1265-2.6091 2.5327l-5.23-5.23V95.5055h55.2326zm-60.4586 23.4331l-6.8413-6.8426c-.0013 0-.0013-.0013-.0026-.0013h-.0013l-.0026-.0039-.555-.5523c-1.0413-1.0462-2.3374-1.8526-3.7448-2.3351l-13.6852-4.9004c-1.8412-.6598-3.8444-.212-5.2287 1.1687-1.3833 1.3816-1.8334 3.3836-1.1778 5.2248l4.8779 13.6838c.4772 1.4215 1.2899 2.7332 2.3501 3.7935l14.3655 14.3665H58.5203V95.5055h41.644v23.4331zm-17.0371-.3433c-.0013.0013-.0013.0013-.0026.0013l-.0013.0026-4.2945 4.2949c-.0245-.0627-.0536-.1238-.0755-.1891-.0062-.0176-.0114-.0356-.0189-.0549l-1.3728-3.8506 6.0515-6.0515 3.8608 1.382c.0127.0049.0268.0088.0395.0137.064.0219.1251.0513.1875.0754l-4.3737 4.3762zm-9.1227-9.2168l3.9669 1.4199-2.552 2.552-1.4149-3.9719zm24.672 33.9287c-.0013-.0013-.0013-.0013-.0013-.0026l-16.4334-16.4324 2.7316-2.7316 51.2901 51.2898-2.7306 2.7319-24.4042-24.4042c-.0013 0-.0013 0-.0013-.0013l-10.4509-10.4496zm46.0676 36.6665l-.1682.1698c-1.2072 1.2056-2.8136 1.8589-4.5398 1.854a6.5262 6.5262 0 0 1-2.4546-.4939l8.5205-8.5205c.9644 2.3427.5166 5.1177-1.3579 6.9906zm-4.7845-8.2383l-51.2911-51.2911 2.8058-2.8058 29.3608 29.3608.0013.0026 10.4509 10.4496.0013.0026 11.4755 11.4742-2.8045 2.8071zm27.6603-18.743h-33.4019l-5.2261-5.2261h34.2439c1.4418 0 2.6131-1.17 2.6131-2.613V92.8925c0-1.4431-1.1713-2.6131-2.6131-2.6131H55.9073c-1.4431 0-2.613 1.17-2.613 2.6131v52.2608c0 1.4431 1.17 2.613 2.613 2.613H95.746l5.2261 5.2261H51.5233c-1.9624 0-3.6197-1.2569-3.6197-2.743v-65.196h123.3362v65.196c-.0001 1.4861-1.659 2.743-3.6198 2.743zm0 0"/>
</svg>
