<svg id="Layer_1" xmlns="http://www.w3.org/2000/svg" viewBox="0 0 218.9317 219.5833">
  <style>
    .st35{fill:#fff}.st39{fill:#90d1f3}.st40{fill:#0d529e}
  </style>
  <circle cx="110.8504" cy="108.0597" r="104" fill="#9a6fee"/>
  <path class="st39" d="M57.7004 164.4347h-11.125v-120.15h80.1v77.875h-35.6v42.275h-24.475v-30.625l-4.45-8.9-4.45 8.9z"/>
  <path class="st39" d="M91.0754 122.1597h84.55v51.175h-84.55z"/>
  <path class="st35" d="M66.6004 128.8097l-4.45-8.9-4.45 8.9v2.225h8.9zM57.7004 131.0347h8.9v28.95h-8.9z"/>
  <path class="st40" d="M57.7004 151.0847h8.9v8.9h-8.9zM175.6254 122.1597c0 7.3737-5.9764 13.35-13.35 13.35h-57.85c-7.3736 0-13.35-5.9763-13.35-13.35h84.55z"/>
  <path class="st39" d="M135.5754 86.5597h40.05v26.7h-40.05z"/>
  <path d="M57.7004 168.8847c0 2.4586 1.9914 4.45 4.45 4.45s4.45-1.9914 4.45-4.45v-8.9h-8.9v8.9z" fill="#fcbf29"/>
  <path d="M175.6253 119.9347H91.0755c-1.228 0-2.2251.9968-2.2251 2.2251v40.0498H68.8255v-34.3999c0-.345-.0801-.6853-.2339-.9946l-4.4497-8.8999c-.6567-1.0991-2.0781-1.4597-3.1797-.8032a2.3134 2.3134 0 0 0-.8032.8032l-4.4502 8.8999a2.2401 2.2401 0 0 0-.2334.9946v34.3999h-6.6748v-115.7h75.6499v52.0886c.5952-.2629 1.2852-.4146 2.0728-.4146.9277 0 1.7168.2122 2.377.5667V44.2848c0-1.2283-.9966-2.2251-2.2246-2.2251H46.5755c-1.228 0-2.2251.9968-2.2251 2.2251v120.1499c0 1.2283.9971 2.2251 2.2251 2.2251h8.8999v2.2249c0 3.6868 2.9883 6.675 6.6748 6.675 3.687 0 6.6753-2.9883 6.6753-6.675v-2.2249h20.0249v6.6748c0 1.2283.9971 2.2251 2.2251 2.2251h65.1555c-1.0337-1.188-1.4121-2.8857-1.1382-4.45H93.3006v-38.0698a15.5296 15.5296 0 0 0 11.125 4.6948h57.8496a15.53 15.53 0 0 0 11.125-4.6948v38.0698l2.2251 4.45c1.228 0 2.2251-.9968 2.2251-2.2251v-51.1748c0-1.2283-.9971-2.2251-2.2251-2.2251zm-113.4751 4.9502l1.9629 3.9248h-3.9253l1.9624-3.9248zm2.2251 43.9998c0 1.2283-.9966 2.2251-2.2251 2.2251-1.228 0-2.2246-.9968-2.2246-2.2251v-6.675h4.4497v6.675zm0-11.125h-4.4497v-4.45h4.4497v4.45zm0-8.8999h-4.4497v-15.6001h4.4497v15.6001zm97.8999-15.575h-57.8496c-5.2847-.0068-9.8394-3.7249-10.9028-8.9002h79.6553c-1.0636 5.1754-5.6183 8.8934-10.9029 8.9002z"/>
  <path d="M135.3968 99.1283c.9502 0 1.7563-.2217 2.4263-.5923v12.4988h35.5996v-22.25h-35.5996l-4.4502-2.2251c0-1.2283.9971-2.2251 2.2251-2.2251h40.0498c1.228 0 2.2251.9968 2.2251 2.2251v26.7c0 1.2283-.9971 2.2251-2.2251 2.2251H135.598c-1.228 0-2.2251-.9968-2.2251-2.2251V98.7326c.5845.2502 1.2568.3957 2.0239.3957zM111.6141 158.1837h39.553c1.4431 0 2.6131-1.17 2.6131-2.613 0-1.4431-1.17-2.6131-2.6131-2.6131h-39.553c-1.4431 0-2.613 1.17-2.613 2.6131 0 1.443 1.17 2.613 2.613 2.613zm0 0M111.6141 167.1837h17.553c1.4431 0 2.6131-1.17 2.6131-2.613 0-1.4431-1.17-2.6131-2.6131-2.6131h-17.553c-1.4431 0-2.613 1.17-2.613 2.6131 0 1.443 1.17 2.613 2.613 2.613zm0 0M104.8938 154.1119a2.529 2.529 0 0 0-.241-.453 2.617 2.617 0 0 0-.3266-.3969c-.1199-.1199-.2528-.2309-.3969-.324a2.6693 2.6693 0 0 0-.4491-.2397 2.6437 2.6437 0 0 0-.4886-.1493 2.5524 2.5524 0 0 0-1.022 0 2.4985 2.4985 0 0 0-.4886.1493 2.512 2.512 0 0 0-.4517.2397 2.447 2.447 0 0 0-.3982.324 2.516 2.516 0 0 0-.324.3969 2.6065 2.6065 0 0 0-.2398.453 2.4583 2.4583 0 0 0-.148.4873 2.4362 2.4362 0 0 0-.0539.5092c0 .1708.018.343.0539.5128a2.609 2.609 0 0 0 .148.4886 2.652 2.652 0 0 0 .2398.4491c.0944.1444.2041.2783.324.3969.1199.1238.2541.2309.3982.3266.1404.0957.2923.1761.4517.241.1568.065.3214.115.4886.1493a2.617 2.617 0 0 0 .5089.0487c.1698 0 .3433-.0154.5131-.0487a2.8583 2.8583 0 0 0 .4886-.1493 2.5852 2.5852 0 0 0 .4491-.241c.1441-.0957.277-.2028.3969-.3266a2.5169 2.5169 0 0 0 .3266-.3969 2.5614 2.5614 0 0 0 .241-.4491c.065-.1594.1137-.324.1493-.4886a2.666 2.666 0 0 0 .0483-.5128c0-.1698-.015-.342-.0483-.5092a2.6474 2.6474 0 0 0-.1493-.4873zm0 0M64.8938 56.1119a2.529 2.529 0 0 0-.241-.453 2.617 2.617 0 0 0-.3266-.3969c-.1199-.1199-.2528-.2309-.3969-.324a2.6693 2.6693 0 0 0-.4491-.2397 2.6437 2.6437 0 0 0-.4886-.1493 2.5524 2.5524 0 0 0-1.022 0 2.4985 2.4985 0 0 0-.4886.1493 2.5057 2.5057 0 0 0-.4517.2397 2.447 2.447 0 0 0-.3982.324 2.516 2.516 0 0 0-.324.3969 2.5993 2.5993 0 0 0-.2397.453 2.4583 2.4583 0 0 0-.148.4873 2.4362 2.4362 0 0 0-.0539.5092c0 .1708.018.343.0539.5128a2.609 2.609 0 0 0 .148.4886c.065.1571.1467.3087.2397.4491.0944.1444.2041.2783.324.3969.1199.1238.2541.2309.3982.3266.1404.0957.2923.1761.4517.2411.1568.065.3214.115.4886.1493a2.617 2.617 0 0 0 .5089.0487c.1698 0 .3433-.0154.5131-.0487a2.8583 2.8583 0 0 0 .4886-.1493 2.5857 2.5857 0 0 0 .4491-.2411c.1441-.0957.277-.2028.3969-.3266a2.5169 2.5169 0 0 0 .3266-.3969 2.5614 2.5614 0 0 0 .241-.4491c.065-.1594.1137-.324.1493-.4886a2.666 2.666 0 0 0 .0483-.5128c0-.1698-.015-.342-.0483-.5092a2.6474 2.6474 0 0 0-.1493-.4873zm0 0M128.7529 111.8832a2.1745 2.1745 0 0 0-.2073-.3897 2.2344 2.2344 0 0 0-.281-.3413 2.0955 2.0955 0 0 0-.3413-.2787 2.298 2.298 0 0 0-.3863-.2062 2.2764 2.2764 0 0 0-.4203-.1284 2.1943 2.1943 0 0 0-.8791 0 2.155 2.155 0 0 0-.4203.1284 2.1558 2.1558 0 0 0-.3885.2062 2.1045 2.1045 0 0 0-.3425.2787 2.168 2.168 0 0 0-.2787.3413 2.235 2.235 0 0 0-.2062.3897 2.115 2.115 0 0 0-.1273.4192 2.0937 2.0937 0 0 0-.0463.438c0 .1469.0154.295.0463.4411a2.2396 2.2396 0 0 0 .3335.8066 2.089 2.089 0 0 0 .2787.3413c.1031.1065.2186.1986.3425.2809.1208.0823.2514.1514.3885.2073.1348.0559.2764.0989.4203.1284.1438.0287.2919.0419.4377.0419.1461 0 .2953-.0132.4414-.0419a2.4581 2.4581 0 0 0 .4203-.1284 2.2267 2.2267 0 0 0 .3863-.2073 2.0524 2.0524 0 0 0 .3413-.2809 2.1752 2.1752 0 0 0 .281-.3413 2.2105 2.2105 0 0 0 .2073-.3863 2.5283 2.5283 0 0 0 .1284-.4203 2.2886 2.2886 0 0 0 .0416-.4411c0-.1461-.0129-.2942-.0416-.438a2.2673 2.2673 0 0 0-.1284-.4192zm0 0M167.8577 172.4767a2.1745 2.1745 0 0 0-.2073-.3897 2.2445 2.2445 0 0 0-.2809-.3413 2.0955 2.0955 0 0 0-.3413-.2787 2.298 2.298 0 0 0-.3863-.2062 2.2764 2.2764 0 0 0-.4203-.1284 2.1943 2.1943 0 0 0-.8791 0 2.155 2.155 0 0 0-.4203.1284 2.1558 2.1558 0 0 0-.3885.2062 2.1045 2.1045 0 0 0-.3425.2787 2.1726 2.1726 0 0 0-.2787.3413 2.235 2.235 0 0 0-.2062.3897 2.115 2.115 0 0 0-.1273.4192 2.0937 2.0937 0 0 0-.0463.438c0 .1469.0154.295.0463.4411a2.2396 2.2396 0 0 0 .3335.8066 2.089 2.089 0 0 0 .2787.3413c.1031.1065.2186.1986.3425.2809.1208.0823.2514.1514.3885.2073.1349.0559.2764.0989.4203.1284.1438.0287.2919.0419.4377.0419.1461 0 .2953-.0132.4414-.0419a2.4581 2.4581 0 0 0 .4203-.1284 2.2267 2.2267 0 0 0 .3863-.2073 2.0524 2.0524 0 0 0 .3413-.2809 2.169 2.169 0 0 0 .2809-.3413 2.2105 2.2105 0 0 0 .2073-.3863 2.5283 2.5283 0 0 0 .1284-.4203 2.2886 2.2886 0 0 0 .0416-.4411c0-.1461-.0129-.2941-.0416-.438a2.2874 2.2874 0 0 0-.1284-.4192zm0 0M73.6141 69.1837H91.167c1.4431 0 2.6131-1.17 2.6131-2.613s-1.17-2.613-2.6131-2.613H73.6141c-1.4431 0-2.613 1.17-2.613 2.613 0 1.4431 1.17 2.613 2.613 2.613zm0 0"/>
  <path d="M153.6141 98.1837h12.553c1.4431 0 2.6131-1.17 2.6131-2.613s-1.17-2.613-2.6131-2.613h-12.553c-1.4431 0-2.613 1.17-2.613 2.613 0 1.4431 1.17 2.613 2.613 2.613zm0 0M124.4051 92.7852v10.7971c0 1.2412 1.0063 2.2475 2.2475 2.2475s2.2475-1.0063 2.2475-2.2475V92.7852c0-1.2412-1.0063-2.2475-2.2475-2.2475s-2.2475 1.0063-2.2475 2.2475zm0 0M137.8454 94.5111c0-1.2412-1.0063-2.2475-2.2475-2.2475s-2.2475 1.0063-2.2475 2.2475v10.7971c0 1.2412 1.0063 2.2475 2.2475 2.2475s2.2475-1.0063 2.2475-2.2475V94.5111zm0 0M146.395 88.8072c1.2412 0 2.2475-1.0063 2.2475-2.2475s-1.0063-2.2475-2.2475-2.2475h-10.7971c-1.2412 0-2.2475 1.0063-2.2475 2.2475s1.0063 2.2475 2.2475 2.2475h10.7971zm0 0M153.6141 107.1837h8.553c1.4431 0 2.6131-1.17 2.6131-2.613s-1.17-2.613-2.6131-2.613h-8.553c-1.4431 0-2.613 1.17-2.613 2.613 0 1.4431 1.17 2.613 2.613 2.613zm0 0M146.8938 94.1119a2.5231 2.5231 0 0 0-.2411-.453 2.622 2.622 0 0 0-.3266-.3969c-.1199-.1199-.2528-.2309-.3969-.324a2.6732 2.6732 0 0 0-.4491-.2397 2.6437 2.6437 0 0 0-.4886-.1493 2.5524 2.5524 0 0 0-1.022 0 2.5006 2.5006 0 0 0-.4886.1493 2.5057 2.5057 0 0 0-.4517.2397 2.447 2.447 0 0 0-.3982.324 2.516 2.516 0 0 0-.324.3969 2.5993 2.5993 0 0 0-.2397.453 2.4583 2.4583 0 0 0-.148.4873 2.4362 2.4362 0 0 0-.0539.5092c0 .1708.018.343.0539.5128a2.609 2.609 0 0 0 .148.4886c.065.1571.1467.3087.2397.4491.0944.1444.2041.2783.324.3969.1199.1238.2541.2309.3982.3266.1404.0957.2923.1761.4517.2411.1568.065.3214.115.4886.1493a2.617 2.617 0 0 0 .5089.0487c.1698 0 .3433-.0154.5131-.0487a2.8556 2.8556 0 0 0 .4886-.1493 2.5857 2.5857 0 0 0 .4491-.2411c.144-.0957.277-.2028.3969-.3266a2.5169 2.5169 0 0 0 .3266-.3969 2.5685 2.5685 0 0 0 .2411-.4491c.065-.1594.1137-.324.1493-.4886a2.6662 2.6662 0 0 0 .0484-.5128c0-.1699-.015-.342-.0484-.5092a2.6474 2.6474 0 0 0-.1493-.4873zm0 0M73.6141 60.1837h30.5529c1.4431 0 2.6131-1.17 2.6131-2.613s-1.17-2.613-2.6131-2.613H73.6141c-1.4431 0-2.613 1.17-2.613 2.613 0 1.4431 1.17 2.613 2.613 2.613zm0 0M145.608 175.5597h10.7971c1.2412 0 2.2475-1.0063 2.2475-2.2475s-1.0063-2.2475-2.2475-2.2475H145.608c-1.2412 0-2.2475 1.0063-2.2475 2.2475s1.0063 2.2475 2.2475 2.2475zm0 0M173.3778 162.5151v10.7971c0 1.2412 1.0063 2.2475 2.2475 2.2475s2.2475-1.0063 2.2475-2.2475v-10.7971c0-1.2412-1.0063-2.2475-2.2475-2.2475-1.2411-.0001-2.2475 1.0063-2.2475 2.2475zm0 0"/>
</svg>
