<svg xmlns="http://www.w3.org/2000/svg" viewBox="0 0 397 216">
  <path d="M-19.5152 6.5834c15.0929.6418 30.2864 1.3872 45.0594 4.774C37.9353 14.1982 49.64 19.2058 60.843 25.146c20.1454 10.6817 39.13 25.3062 50.5222 45.4371 6.7189 11.8727 10.0667 25.0542 10.2812 38.6659.1048 6.6534 10.4549 6.6735 10.3498 0-.8435-53.5345-48.7041-92.1055-96.784-106.0818-17.7293-5.1537-36.385-6.1536-54.7274-6.9335-6.6597-.2832-6.6464 10.0671 0 10.3497z" fill="#325ada"/>
  <path d="M16.6808 5.4151c28.1516.1668 56.1212 6.1081 82.0354 17.1053 26.0178 11.0412 48.7775 27.7217 71.6813 43.9961 34.7141 24.6664 73.4081 48.1407 117.7339 45.9667 22.6597-1.1113 43.0649-10.414 56.473-29.0689 4.1249-5.739-5.3817-11.2191-9.4678-5.5342-23.3557 32.495-69.3898 26.1002-101.8711 13.3192-21.299-8.3809-40.265-21.9998-58.7923-35.1882-22.4324-15.9683-44.7809-32.0502-70.2229-42.9585C76.5692 1.1843 46.8314-5.3711 16.6808-5.5497c-7.0569-.0418-7.065 10.9229 0 10.9648z" fill="#325ada"/>
  <path d="M218.584 96.138c5.4972 4.7494 10.6015 9.7166 13.8738 16.299 3.3222 6.6825 5.2958 13.8887 9.0203 20.4015 6.8324 11.9472 16.9911 21.7516 29.0007 28.4187 5.8286 3.2357 11.0545-5.6998 5.2237-8.9367-11.9456-6.6315-21.5257-16.5404-27.4824-28.8716-3.0412-6.2957-4.8086-13.1894-8.4367-19.2092-3.6098-5.9893-8.6282-10.8818-13.881-15.42-5.0175-4.3351-12.3693 2.9545-7.3184 7.3183z" fill="#325ada"/>
  <path d="M183.0888 62.6745c-4.2992-8.1552-6.6234-17.6066-5.0318-26.6872s7.5193-17.6314 16.0983-21.0066c1.3133-.5167 2.7293-.9164 4.1243-.7026 1.7672.2709 3.2307 1.4738 4.5682 2.6602 2.0061 1.7795 3.9892 3.677 5.2174 6.0608 1.8736 3.6362 1.7639 8.038.5896 11.9564-1.1743 3.9184-3.3232 7.4611-5.4501 10.9552l-8.5464 14.04c-1.7568 2.886-3.6984 5.9386-6.7912 7.2984" fill="#9b6fef"/>
  <path d="M188.4128 62.2902c7.5121-12.2485 19.1094-21.9428 32.496-27.1636 2.7713-1.0808 5.8708-1.9761 8.6723-.9761 2.6082.9309 4.3949 3.309 5.8642 5.6565 1.6647 2.6596 3.1614 5.5437 3.4232 8.6704.3376 4.0314-1.4717 8.0401-4.2221 11.0068-2.7504 2.9667-6.3665 4.9992-10.0951 6.5688-12.0393 5.0682-25.9136 5.634-38.3255 1.5629" fill="#9b6fef"/>
  <path d="M188.4033 30.2486c-3.0305 3.2384-4.3097 8.4973-.802 11.9484 3.2509 3.1984 8.8364 2.6277 10.9231-1.5481 1.9576-3.9175 1.9924-9.461-1.3091-12.6415-3.5882-3.4568-10.2227-2.0403-11.3418 3.073-.4997 2.2832.6853 4.6852 3.0252 5.3281 2.1665.5953 4.8258-.7299 5.3282-3.0252-.198.9047-1.4547 1.4569-2.2901 1.2453 1.373.3477-1.0407-.3325-.7805-.4964.0859-.0541-.4151 2.5692-.3827 2.6847-.3196-1.1406 2.5174-1.5221 3.1222-.5069l.216.7946c-.0925.1974-.0886.1511.0119-.1389-.1407.0662.5333-.7285.4051-.5916 3.8067-4.0678-2.3064-10.2065-6.1255-6.1255zM217.5537 44.8821c-4.582.5049-9.1861 2.8616-9.794 7.9194-.6791 5.6507 3.9851 9.2223 9.3072 8.3897 4.4886-.7022 11.3296-2.2191 11.4112-7.9017.0828-5.7622-5.5433-7.9261-10.4073-7.6092-2.3347.1521-4.3314 1.8819-4.3314 4.3314 0 2.2268 1.9848 4.4843 4.3314 4.3314.3187-.0208 1.9514.113 2.1448-.0499a.8636.8636 0 0 1 .288.0744c-.7257-.3645-.7576-.9438-.0957-1.738.7341-1.1764.7178-1.5799-.049-1.2107a34.0444 34.0444 0 0 1-1.6082.5151c-.8095.2373-1.6289.4523-2.4553.6216-1.5717.3219-.8858-.112-.2725.6835-.755-.9793.6302.8295.2607.7556.0182.0036 1.0465-.425 1.2702-.4497 2.325-.2562 4.3314-1.8074 4.3314-4.3314-.0001-2.143-1.9913-4.5894-4.3315-4.3315z" fill="#f09a82"/>
  <path d="M129.2777 89.1666c5.0333-5.1345 15.0648-3.4408 18.1334 3.0616.4952 1.0494.8415 2.1986 1.603 3.0741.8626.9916 2.1381 1.4977 3.2511 2.1967 5.0132 3.1487 6.1191 11.0431 2.1642 15.4481-1.7378 1.9356-4.396 3.5944-4.3625 6.1955.0247 1.9223 1.5676 3.4202 2.7515 4.9348 1.6805 2.1499 2.7905 4.7418 3.1868 7.4417.5129 3.4943-1.0072 7.9632-4.5232 8.2963-1.4238.1349-2.9763-.452-4.2294.2374-1.4243.7836-1.6171 2.7138-2.4336 4.1194-1.3243 2.2796-4.3796 3.058-6.9588 2.5117s-4.7983-2.13-6.934-3.6757c-3.1893 6.9174-11.56 12.0273-18.5577 9.0183-1.6848-.7244-3.169-1.8518-4.8359-2.6164-2.9922-1.3725-6.4833-1.5376-9.2976-3.2454-4.4088-2.6754-5.8804-9.2127-3.0434-13.5192-3.3648-1.5199-6.7988-3.2336-9.1046-6.1172-2.3058-2.8836-3.1543-7.2581-1.0134-10.2662.5484-.7705 1.2943-1.4892 1.3866-2.4304.0823-.839-.3823-1.6194-.6557-2.4169-1.1268-3.2876 1.0606-6.8152 3.6838-9.0948 2.6232-2.2796 5.8251-3.9909 7.812-6.8422 1.7899-2.5686 2.3865-5.7789 3.8688-8.5364s4.5505-5.1987 7.5309-4.2402c.889.2859 1.7965.8621 2.6834.5699.9593-.3161 1.3217-1.4546 1.987-2.2145 1.5698-1.7929 4.4426-1.2129 6.7112-.4836 2.2696.7296 4.594 1.4879 6.4595 2.9721 1.8656 1.4842 3.2031 3.8738 2.7663 6.2174" fill="#ff9c6e"/>
  <path d="M128.6058 111.2246c-1.598-4.6989-7.3271-7.6409-11.9739-5.8973-4.6468 1.7436-6.9733 8.0867-4.2968 12.2663.9611 1.5009 2.3904 2.6305 3.7925 3.7306 1.4869 1.1666 3.0981 2.383 4.9838 2.51 2.2341.1504 4.3365-1.3396 5.4883-3.2598 1.1518-1.9202 1.5127-4.2057 1.6946-6.4374" fill="#325ada"/>
  <path d="M368.3361 92.5005c-.3639 7.1809-8.9965 12.5639-15.6048 9.7306-1.0665-.4573-2.0876-1.088-3.2382-1.2385-1.3032-.1705-2.5936.2964-3.8903.511-5.8405.9666-11.9024-4.21-11.8623-10.1298.0176-2.6012.9078-5.6054-.8417-7.5304-1.293-1.4226-3.4411-1.5211-5.3316-1.87-2.6835-.4953-5.2328-1.6997-7.3195-3.4581-2.7007-2.2758-4.5256-6.6292-2.1143-9.2096.9765-1.045 2.5277-1.635 3.0088-2.9818.5467-1.5309-.5887-3.1037-.9094-4.6974-.5201-2.5846 1.2512-5.1929 3.5442-6.494 2.293-1.301 5.0042-1.5867 7.6279-1.8456-2.1987-7.293.6799-16.6681 7.9135-19.0551 1.7415-.5747 3.6001-.7147 5.3549-1.2475 3.15-.9564 5.8729-3.1474 9.1121-3.7348 5.0742-.9202 10.5102 2.998 11.2416 8.1029 3.5266-1.093 7.2336-2.0869 10.8716-1.457 3.638.6299 7.1736 3.3422 7.5652 7.0135.1003.9404.0184 1.9729.5733 2.7388.4946.6826 1.3599.9589 2.0932 1.3746 3.0232 1.714 3.7245 5.8051 3.2721 9.2509-.4524 3.4457-1.7148 6.8497-1.3118 10.3015.363 3.1096 2.0448 5.9084 2.7635 8.9555.7187 3.0471.0402 6.9088-2.8264 8.1673-.855.3754-1.9165.5457-2.3867 1.3525-.5086.8726-.025 1.9652-.0193 2.9752.0135 2.383-2.5216 3.8535-4.7035 4.8116-2.1827.9585-4.4256 1.9319-6.8062 2.0577s-4.9662-.7763-6.193-2.8203" fill="#f09a82"/>
  <path d="M354.2145 75.542c4.3116 2.4582 10.5511.8622 12.8737-3.5239 2.3226-4.3861-.1412-10.6771-4.9159-12.0316-1.7145-.4864-3.5335-.3844-5.3125-.2783-1.8866.1124-3.8993.2701-5.3951 1.4252-1.7722 1.3686-2.3582 3.878-1.9474 6.0791s1.656 4.1513 2.9994 5.9426" fill="#6610ef"/>
  <path d="M212.5634 91.1327c.1196 14.732-4.4083 29.4678-12.7796 41.5909-1.2198 1.7665-2.5688 3.5245-4.4209 4.6101-3.2866 1.9265-7.403 1.3615-11.161.7365-2.1192-.3525-4.3098-.7323-6.0977-1.9234-2.4944-1.6617-3.8118-4.7105-3.9858-7.7027-.174-2.9921.6568-5.9532 1.7052-8.761 5.2153-13.9675 16.2547-25.6555 29.902-31.6589" fill="#9b6fef"/>
  <path d="M191.8374 116.9095c1.024-1.5514.2467-.1244.2218-.2615a5.9192 5.9192 0 0 1-.623.0191c-.3736-.0118-.1067.2147.8008.6796.2365-.012.214-.3392.4078-.6893.5811-1.0497 2.111-2.0959 3.1178-1.7004l-1.9113-1.1139-.5941-1.3097c.0539.1342.0386.2728-.0459.4155-.2359.3764-.3004 1.326-.4298 1.7367-.3226 1.0234-.8344 1.9263-1.4055 2.8315-2.9834 4.7288 4.5097 9.0806 7.4801 4.3723 2.3751-3.7646 4.9878-10.5227 1.1208-14.1719-3.6283-3.424-10.208-.8347-13.1191 2.3175-3.1825 3.4461-4.6317 9.2198-1.1131 12.9915 3.7496 4.0194 10.7714 2.4998 13.573-1.7447 3.0797-4.6662-4.419-9.0102-7.4803-4.3723z" fill="#f09a82"/>
  <path d="M100.4613 53.3479C95.0778 66.4805 84.751 77.5173 72.0049 83.761c-4.0015 1.9601-8.3126 3.4785-12.7668 3.5952s-9.0844-1.3087-12.1706-4.5227c-5.6219-5.8546-4.3518-15.9918.8693-22.2065s13.2695-9.2632 21.1446-11.2289a116.5104 116.5104 0 0 1 29.2469-3.4589" fill="#9b6fef"/>
  <path d="M67.8937 67.3962c.5001.7272-.5209.541.0534.4038.4218-.1008 1.1087-1.1322 1.4474-1.4028.3242-.259 1.4264-.9358 1.4053-.8998-.1518.2597-1.4916-2.3076-.561-1.7467-.0561-.0338-.4001.4536-.6155.5199-1.4179.4365-2.406 1.2751-3.9921 1.4448-2.3258.2489-4.3314 1.8126-4.3314 4.3314 0 2.1487 1.9907 4.5819 4.3314 4.3314 4.215-.4511 8.699-1.8572 11.408-5.331 2.8804-3.6935 2.0428-8.8581-2.1301-11.1612-7.3202-4.0403-19.826 6.1319-14.4955 13.8824 1.324 1.925 3.8018 2.7965 5.9262 1.5539 1.9071-1.1154 2.8859-3.9894 1.5539-5.9261z" fill="#f09a82"/>
  <g>
    <path d="M265.6673 168.6817c-5.0607-4.5416-3.8784-14.0898 2.1372-17.2599.9709-.5116 2.0421-.8866 2.8376-1.6426.901-.8563 1.3259-2.0825 1.94-3.1631 2.766-4.8676 10.1785-6.2413 14.5051-2.6882 1.9011 1.5612 3.5791 4.0036 6.0352 3.8636 1.8151-.1034 3.1661-1.6235 4.5477-2.8052 1.9612-1.6773 4.3638-2.8339 6.8981-3.3208 3.28-.6302 7.5656.6199 8.0267 3.9279.1867 1.3396-.303 2.8308.4005 3.986.7997 1.313 2.6314 1.4147 3.9934 2.1277 2.209 1.1562 3.0716 4.0105 2.6629 6.47-.4087 2.4595-1.8125 4.6221-3.1839 6.7043 6.6684 2.7251 11.8448 10.4208 9.2935 17.1576-.6143 1.6219-1.6176 3.0712-2.2705 4.6779-1.1721 2.8842-1.1826 6.1894-2.679 8.9195-2.344 4.2768-8.4591 5.9395-12.6461 3.4385-1.2958 3.2423-2.7718 6.5582-5.4002 8.8568s-6.726 3.2825-9.6572 1.3851c-.7508-.486-1.4609-1.1608-2.354-1.2088-.7961-.0428-1.5141.4287-2.2562.7201-3.0591 1.2016-6.4831-.7182-8.7461-3.1016s-4.0132-5.3372-6.7899-7.0957c-2.5013-1.5841-5.5592-2.014-8.2263-3.2996-2.6671-1.2856-5.1013-4.0827-4.3199-6.9385.2331-.8518.7397-1.7332.4266-2.559-.3386-.8932-1.4294-1.1881-2.175-1.7851-1.7593-1.4085-1.331-4.1468-.7365-6.3206.5948-2.1747 1.2144-4.4023 2.539-6.2267 1.3246-1.8244 3.5265-3.1876 5.7589-2.8726" fill="#6610ef"/>
    <path d="M286.5355 168.3978c-4.3729 1.7055-6.9139 7.2409-5.0729 11.5585 1.8409 4.3176 7.9307 6.2514 11.7681 3.5486 1.378-.9705 2.3857-2.368 3.3667-3.7385 1.0403-1.4534 2.1224-3.0264 2.1638-4.8132.0491-2.117-1.4463-4.0413-3.3084-5.0495-1.8622-1.0082-4.0365-1.254-6.1526-1.3329" fill="#a5cafa"/>
  </g>
  <path fill="none" d="M0 0h397v216H0z"/>
</svg>
