<?xml version="1.0" encoding="utf-8"?>
<!-- Generator: Adobe Illustrator 23.0.1, SVG Export Plug-In . SVG Version: 6.00 Build 0)  -->
<svg version="1.1" xmlns="http://www.w3.org/2000/svg" xmlns:xlink="http://www.w3.org/1999/xlink" x="0px" y="0px"
	 viewBox="0 0 397 216" style="enable-background:new 0 0 397 216;" xml:space="preserve">
<style type="text/css">
	.st0{fill:#325ADA;}
	.st1{fill:#9B6FEF;}
	.st2{fill:#F09A82;}
	.st3{fill:none;}
	.st4{fill:#FF9C6E;}
	.st5{fill:#6610EF;}
	.st6{fill:#A5CAFA;}
</style>
<g id="Layer_1">
	<g>
		<g>
			<path class="st0" d="M-19.5152,6.5834c15.0929,0.6418,30.2864,1.3872,45.0594,4.774C37.9353,14.1982,49.64,19.2058,60.843,25.146
				c20.1454,10.6817,39.13,25.3062,50.5222,45.4371c6.7189,11.8727,10.0667,25.0542,10.2812,38.6659
				c0.1048,6.6534,10.4549,6.6735,10.3498,0c-0.8435-53.5345-48.7041-92.1055-96.784-106.0818
				C17.4829-1.9865-1.1728-2.9864-19.5152-3.7663C-26.1749-4.0495-26.1616,6.3008-19.5152,6.5834L-19.5152,6.5834z"/>
		</g>
	</g>
	<g>
		<g>
			<path class="st0" d="M16.6808,5.4151c28.1516,0.1668,56.1212,6.1081,82.0354,17.1053
				c26.0178,11.0412,48.7775,27.7217,71.6813,43.9961c34.7141,24.6664,73.4081,48.1407,117.7339,45.9667
				c22.6597-1.1113,43.0649-10.414,56.473-29.0689c4.1249-5.739-5.3817-11.2191-9.4678-5.5342
				c-23.3557,32.495-69.3898,26.1002-101.8711,13.3192c-21.299-8.3809-40.265-21.9998-58.7923-35.1882
				c-22.4324-15.9683-44.7809-32.0502-70.2229-42.9585C76.5692,1.1843,46.8314-5.3711,16.6808-5.5497
				C9.6239-5.5915,9.6158,5.3732,16.6808,5.4151L16.6808,5.4151z"/>
		</g>
	</g>
	<g>
		<g>
			<path class="st0" d="M218.584,96.138c5.4972,4.7494,10.6015,9.7166,13.8738,16.299c3.3222,6.6825,5.2958,13.8887,9.0203,20.4015
				c6.8324,11.9472,16.9911,21.7516,29.0007,28.4187c5.8286,3.2357,11.0545-5.6998,5.2237-8.9367
				c-11.9456-6.6315-21.5257-16.5404-27.4824-28.8716c-3.0412-6.2957-4.8086-13.1894-8.4367-19.2092
				c-3.6098-5.9893-8.6282-10.8818-13.881-15.42C220.8849,84.4846,213.5331,91.7742,218.584,96.138L218.584,96.138z"/>
		</g>
	</g>
	<g>
		<path class="st1" d="M183.0888,62.6745c-4.2992-8.1552-6.6234-17.6066-5.0318-26.6872s7.5193-17.6314,16.0983-21.0066
			c1.3133-0.5167,2.7293-0.9164,4.1243-0.7026c1.7672,0.2709,3.2307,1.4738,4.5682,2.6602c2.0061,1.7795,3.9892,3.677,5.2174,6.0608
			c1.8736,3.6362,1.7639,8.038,0.5896,11.9564s-3.3232,7.4611-5.4501,10.9552c-2.8488,4.68-5.6976,9.36-8.5464,14.04
			c-1.7568,2.886-3.6984,5.9386-6.7912,7.2984"/>
	</g>
	<g>
		<path class="st1" d="M188.4128,62.2902c7.5121-12.2485,19.1094-21.9428,32.496-27.1636c2.7713-1.0808,5.8708-1.9761,8.6723-0.9761
			c2.6082,0.9309,4.3949,3.309,5.8642,5.6565c1.6647,2.6596,3.1614,5.5437,3.4232,8.6704
			c0.3376,4.0314-1.4717,8.0401-4.2221,11.0068c-2.7504,2.9667-6.3665,4.9992-10.0951,6.5688
			c-12.0393,5.0682-25.9136,5.634-38.3255,1.5629"/>
	</g>
	<g>
		<g>
			<path class="st2" d="M188.4033,30.2486c-3.0305,3.2384-4.3097,8.4973-0.802,11.9484c3.2509,3.1984,8.8364,2.6277,10.9231-1.5481
				c1.9576-3.9175,1.9924-9.461-1.3091-12.6415c-3.5882-3.4568-10.2227-2.0403-11.3418,3.073
				c-0.4997,2.2832,0.6853,4.6852,3.0252,5.3281c2.1665,0.5953,4.8258-0.7299,5.3282-3.0252
				c-0.198,0.9047-1.4547,1.4569-2.2901,1.2453c1.373,0.3477-1.0407-0.3325-0.7805-0.4964
				c0.0859-0.0541-0.4151,2.5692-0.3827,2.6847c-0.3196-1.1406,2.5174-1.5221,3.1222-0.5069c0.072,0.2649,0.144,0.5297,0.216,0.7946
				c-0.0925,0.1974-0.0886,0.1511,0.0119-0.1389c-0.1407,0.0662,0.5333-0.7285,0.4051-0.5916
				C198.3355,32.3063,192.2224,26.1676,188.4033,30.2486L188.4033,30.2486z"/>
		</g>
	</g>
	<g>
		<g>
			<path class="st2" d="M217.5537,44.8821c-4.582,0.5049-9.1861,2.8616-9.794,7.9194c-0.6791,5.6507,3.9851,9.2223,9.3072,8.3897
				c4.4886-0.7022,11.3296-2.2191,11.4112-7.9017c0.0828-5.7622-5.5433-7.9261-10.4073-7.6092
				c-2.3347,0.1521-4.3314,1.8819-4.3314,4.3314c0,2.2268,1.9848,4.4843,4.3314,4.3314c0.3187-0.0208,1.9514,0.113,2.1448-0.0499
				c0.0997,0.008,0.1958,0.0328,0.288,0.0744c-0.7257-0.3645-0.7576-0.9438-0.0957-1.738c0.7341-1.1764,0.7178-1.5799-0.049-1.2107
				c-0.5318,0.185-1.0679,0.3567-1.6082,0.5151c-0.8095,0.2373-1.6289,0.4523-2.4553,0.6216
				c-1.5717,0.3219-0.8858-0.112-0.2725,0.6835c-0.755-0.9793,0.6302,0.8295,0.2607,0.7556
				c0.0182,0.0036,1.0465-0.425,1.2702-0.4497c2.325-0.2562,4.3314-1.8074,4.3314-4.3314
				C221.8851,47.0706,219.8939,44.6242,217.5537,44.8821L217.5537,44.8821z"/>
		</g>
	</g>
	<g>
		<path class="st1" d="M212.5634,91.1327c0.1196,14.732-4.4083,29.4678-12.7796,41.5909c-1.2198,1.7665-2.5688,3.5245-4.4209,4.6101
			c-3.2866,1.9265-7.403,1.3615-11.161,0.7365c-2.1192-0.3525-4.3098-0.7323-6.0977-1.9234
			c-2.4944-1.6617-3.8118-4.7105-3.9858-7.7027c-0.174-2.9921,0.6568-5.9532,1.7052-8.761
			c5.2153-13.9675,16.2547-25.6555,29.902-31.6589"/>
	</g>
	<g>
		<g>
			<path class="st2" d="M191.8374,116.9095c1.024-1.5514,0.2467-0.1244,0.2218-0.2615c-0.2076,0.0173-0.4153,0.0237-0.623,0.0191
				c-0.3736-0.0118-0.1067,0.2147,0.8008,0.6796c0.2365-0.012,0.214-0.3392,0.4078-0.6893c0.5811-1.0497,2.111-2.0959,3.1178-1.7004
				c-0.6371-0.3713-1.2742-0.7426-1.9113-1.1139c-0.198-0.4366-0.3961-0.8731-0.5941-1.3097
				c0.0539,0.1342,0.0386,0.2728-0.0459,0.4155c-0.2359,0.3764-0.3004,1.326-0.4298,1.7367
				c-0.3226,1.0234-0.8344,1.9263-1.4055,2.8315c-2.9834,4.7288,4.5097,9.0806,7.4801,4.3723
				c2.3751-3.7646,4.9878-10.5227,1.1208-14.1719c-3.6283-3.424-10.208-0.8347-13.1191,2.3175
				c-3.1825,3.4461-4.6317,9.2198-1.1131,12.9915c3.7496,4.0194,10.7714,2.4998,13.573-1.7447
				C202.3974,116.6156,194.8987,112.2716,191.8374,116.9095L191.8374,116.9095z"/>
		</g>
	</g>
	<g>
		<path class="st1" d="M100.4613,53.3479C95.0778,66.4805,84.751,77.5173,72.0049,83.761
			c-4.0015,1.9601-8.3126,3.4785-12.7668,3.5952s-9.0844-1.3087-12.1706-4.5227c-5.6219-5.8546-4.3518-15.9918,0.8693-22.2065
			s13.2695-9.2632,21.1446-11.2289c9.5503-2.3839,19.404-3.5492,29.2469-3.4589"/>
	</g>
	<g>
		<g>
			<path class="st2" d="M67.8937,67.3962c0.5001,0.7272-0.5209,0.541,0.0534,0.4038c0.4218-0.1008,1.1087-1.1322,1.4474-1.4028
				c0.3242-0.259,1.4264-0.9358,1.4053-0.8998c-0.1518,0.2597-1.4916-2.3076-0.561-1.7467
				c-0.0561-0.0338-0.4001,0.4536-0.6155,0.5199c-1.4179,0.4365-2.406,1.2751-3.9921,1.4448
				c-2.3258,0.2489-4.3314,1.8126-4.3314,4.3314c0,2.1487,1.9907,4.5819,4.3314,4.3314c4.215-0.4511,8.699-1.8572,11.408-5.331
				c2.8804-3.6935,2.0428-8.8581-2.1301-11.1612c-7.3202-4.0403-19.826,6.1319-14.4955,13.8824
				c1.324,1.925,3.8018,2.7965,5.9262,1.5539C68.2469,72.2069,69.2257,69.3329,67.8937,67.3962L67.8937,67.3962z"/>
		</g>
	</g>
	<rect class="st3" width="397" height="216"/>
</g>
<g id="Layer_2">
	<g id="flower3">
		<g>
			<path class="st4" d="M136.2778,93.1666c5.0333-5.1345,15.0648-3.4408,18.1334,3.0616c0.4952,1.0494,0.8415,2.1986,1.603,3.0741
				c0.8626,0.9916,2.1381,1.4977,3.2511,2.1967c5.0132,3.1487,6.1191,11.0431,2.1642,15.4481
				c-1.7378,1.9356-4.396,3.5944-4.3625,6.1955c0.0247,1.9223,1.5676,3.4202,2.7515,4.9348
				c1.6805,2.1499,2.7905,4.7418,3.1868,7.4417c0.5129,3.4943-1.0072,7.9632-4.5232,8.2963
				c-1.4238,0.1349-2.9763-0.452-4.2294,0.2374c-1.4243,0.7836-1.6171,2.7138-2.4336,4.1194
				c-1.3243,2.2796-4.3796,3.058-6.9588,2.5117c-2.5792-0.5463-4.7983-2.13-6.934-3.6757
				c-3.1893,6.9174-11.56,12.0273-18.5577,9.0183c-1.6848-0.7244-3.169-1.8518-4.8359-2.6164
				c-2.9922-1.3725-6.4833-1.5376-9.2976-3.2454c-4.4088-2.6754-5.8804-9.2127-3.0434-13.5192
				c-3.3648-1.5199-6.7988-3.2336-9.1046-6.1172c-2.3058-2.8836-3.1543-7.2581-1.0134-10.2662
				c0.5484-0.7705,1.2943-1.4892,1.3866-2.4304c0.0823-0.839-0.3823-1.6194-0.6557-2.4169
				c-1.1268-3.2876,1.0606-6.8152,3.6838-9.0948s5.8251-3.9909,7.812-6.8422c1.7899-2.5686,2.3865-5.7789,3.8688-8.5364
				s4.5505-5.1987,7.5309-4.2402c0.889,0.2859,1.7965,0.8621,2.6834,0.5699c0.9593-0.3161,1.3217-1.4546,1.987-2.2145
				c1.5698-1.7929,4.4426-1.2129,6.7112-0.4836c2.2696,0.7296,4.594,1.4879,6.4595,2.9721
				c1.8656,1.4842,3.2031,3.8738,2.7663,6.2174"/>
		</g>
		<g>
			<path class="st0" d="M135.6059,115.2246c-1.598-4.6989-7.3271-7.6409-11.9739-5.8973
				c-4.6468,1.7436-6.9733,8.0867-4.2968,12.2663c0.9611,1.5009,2.3904,2.6305,3.7925,3.7306
				c1.4869,1.1666,3.0981,2.383,4.9838,2.51c2.2341,0.1504,4.3365-1.3396,5.4883-3.2598c1.1518-1.9202,1.5127-4.2057,1.6946-6.4374"
				/>
		</g>
	</g>
	<g id="flower2">
		<g>
			<path class="st5" d="M257.6672,155.6816c-5.0607-4.5416-3.8784-14.0898,2.1372-17.2599
				c0.9709-0.5116,2.0421-0.8866,2.8376-1.6426c0.901-0.8563,1.3259-2.0825,1.94-3.1631c2.766-4.8676,10.1785-6.2413,14.5051-2.6882
				c1.9011,1.5612,3.5791,4.0036,6.0352,3.8636c1.8151-0.1034,3.1661-1.6235,4.5477-2.8052
				c1.9612-1.6773,4.3638-2.8339,6.8981-3.3208c3.28-0.6302,7.5656,0.6199,8.0267,3.9279c0.1867,1.3396-0.303,2.8308,0.4005,3.986
				c0.7997,1.313,2.6314,1.4147,3.9934,2.1277c2.209,1.1562,3.0716,4.0105,2.6629,6.47s-1.8125,4.6221-3.1839,6.7043
				c6.6684,2.7251,11.8448,10.4208,9.2935,17.1576c-0.6143,1.6219-1.6176,3.0712-2.2705,4.6779
				c-1.1721,2.8842-1.1826,6.1894-2.679,8.9195c-2.344,4.2768-8.4591,5.9395-12.6461,3.4385
				c-1.2958,3.2423-2.7718,6.5582-5.4002,8.8568s-6.726,3.2825-9.6572,1.3851c-0.7508-0.486-1.4609-1.1608-2.354-1.2088
				c-0.7961-0.0428-1.5141,0.4287-2.2562,0.7201c-3.0591,1.2016-6.4831-0.7182-8.7461-3.1016s-4.0132-5.3372-6.7899-7.0957
				c-2.5013-1.5841-5.5592-2.014-8.2263-3.2996c-2.6671-1.2856-5.1013-4.0827-4.3199-6.9385
				c0.2331-0.8518,0.7397-1.7332,0.4266-2.559c-0.3386-0.8932-1.4294-1.1881-2.175-1.7851
				c-1.7593-1.4085-1.331-4.1468-0.7365-6.3206c0.5948-2.1747,1.2144-4.4023,2.539-6.2267
				c1.3246-1.8244,3.5265-3.1876,5.7589-2.8726"/>
		</g>
		<g>
			<path class="st6" d="M278.5354,155.3977c-4.3729,1.7055-6.9139,7.2409-5.0729,11.5585
				c1.8409,4.3176,7.9307,6.2514,11.7681,3.5486c1.378-0.9705,2.3857-2.368,3.3667-3.7385
				c1.0403-1.4534,2.1224-3.0264,2.1638-4.8132c0.0491-2.117-1.4463-4.0413-3.3084-5.0495
				c-1.8622-1.0082-4.0365-1.254-6.1526-1.3329"/>
		</g>
	</g>
	<g id="flower1">
		<g>
			<path class="st2" d="M355.336,96.5005c-0.3639,7.1809-8.9965,12.5639-15.6048,9.7306c-1.0665-0.4573-2.0876-1.088-3.2382-1.2385
				c-1.3032-0.1705-2.5936,0.2964-3.8903,0.511c-5.8405,0.9666-11.9024-4.21-11.8623-10.1298
				c0.0176-2.6012,0.9078-5.6054-0.8417-7.5304c-1.293-1.4226-3.4411-1.5211-5.3316-1.87
				c-2.6835-0.4953-5.2328-1.6997-7.3195-3.4581c-2.7007-2.2758-4.5256-6.6292-2.1143-9.2096
				c0.9765-1.045,2.5277-1.635,3.0088-2.9818c0.5467-1.5309-0.5887-3.1037-0.9094-4.6974c-0.5201-2.5846,1.2512-5.1929,3.5442-6.494
				c2.293-1.301,5.0042-1.5867,7.6279-1.8456c-2.1987-7.293,0.6799-16.6681,7.9135-19.0551
				c1.7415-0.5747,3.6001-0.7147,5.3549-1.2475c3.15-0.9564,5.8729-3.1474,9.1121-3.7348
				c5.0742-0.9202,10.5102,2.998,11.2416,8.1029c3.5266-1.093,7.2336-2.0869,10.8716-1.457
				c3.638,0.6299,7.1736,3.3422,7.5652,7.0135c0.1003,0.9404,0.0184,1.9729,0.5733,2.7388
				c0.4946,0.6826,1.3599,0.9589,2.0932,1.3746c3.0232,1.714,3.7245,5.8051,3.2721,9.2509
				c-0.4524,3.4457-1.7148,6.8497-1.3118,10.3015c0.363,3.1096,2.0448,5.9084,2.7635,8.9555
				c0.7187,3.0471,0.0402,6.9088-2.8264,8.1673c-0.855,0.3754-1.9165,0.5457-2.3867,1.3525
				c-0.5086,0.8726-0.025,1.9652-0.0193,2.9752c0.0135,2.383-2.5216,3.8535-4.7035,4.8116
				c-2.1827,0.9585-4.4256,1.9319-6.8062,2.0577s-4.9662-0.7763-6.193-2.8203"/>
		</g>
		<g>
			<path class="st5" d="M341.2144,79.542c4.3116,2.4582,10.5511,0.8622,12.8737-3.5239s-0.1412-10.6771-4.9159-12.0316
				c-1.7145-0.4864-3.5335-0.3844-5.3125-0.2783c-1.8866,0.1124-3.8993,0.2701-5.3951,1.4252
				c-1.7722,1.3686-2.3582,3.878-1.9474,6.0791s1.656,4.1513,2.9994,5.9426"/>
		</g>
	</g>
</g>
</svg>
