<svg xmlns="http://www.w3.org/2000/svg" viewBox="0 0 389 216">
  <style>
    .st0{fill:#325ada}
    .st1{fill:#9b6fef}
    .st2{fill:#f09a82}
    .st4{fill:#6610ef}


    #flower1 .st2{
      animation-name: flowerGrow;
      animation-duration: 4s;
      animation-timing-function: linear;
      transform-box: fill-box;
      transform-origin: 50%;
      animation-fill-mode: forwards;
      animation-delay: 2s;
      
      transform: scale(0,0);
    }
    #flower2 .st4{
      animation-name: flowerGrow;
      animation-duration: 4s;
      animation-timing-function: linear;
      transform-box: fill-box;
      transform-origin: 50%;
      animation-fill-mode: forwards;
      animation-delay: 3s;
      
      transform: scale(0,0);
    }
    #flower3 .st2{
      animation-name: flowerGrow;
      animation-duration: 4s;
      animation-timing-function: linear;
      transform-box: fill-box;
      transform-origin: 50%;
      animation-fill-mode: forwards;
      animation-delay: 1s;
      
      transform: scale(0,0);
    }

    @keyframes flowerGrow{
      100%{
        transform: scale(1.15,1.15);
      }
    }
  </style>
  <g id="Layer_1">
    <path class="st0" d="M421.687 1.3125c-16.7875-.3051-33.6635-.3395-50.2382 2.7083-13.5241 2.4869-26.6019 7.5537-38.9994 13.4264-21.9623 10.4037-42.6148 25.517-55.5142 46.4744-7.7255 12.5515-11.9111 26.6841-13.0306 41.3327-.5077 6.6427 9.8446 6.61 10.3498 0 3.6834-48.198 50.1396-79.4847 93.6541-89.9293 17.5715-4.2176 35.8275-3.989 53.7785-3.6628 6.6626.1211 6.6632-10.2286 0-10.3497z"/>
    <path class="st0" d="M385.6472-2.6634C358.5256-4.1501 331.157-.4339 305.3096 7.8825c-26.2971 8.4611-49.9621 22.1908-73.2694 36.7551-35.8361 22.3934-73.0851 45.4567-117.0004 43.6205-20.904-.8741-40.6885-9.0524-52.1487-27.241-3.7524-5.9554-13.2442-.4594-9.4678 5.5342 22.2395 35.2965 67.0096 37.2299 103.6759 27.6422 49.499-12.9432 87.4796-50.141 134.1269-69.5021 29.8268-12.3797 62.1644-18.1582 94.4211-16.39 7.0508.3865 7.0292-10.5795 0-10.9648z"/>
    <path class="st0" d="M172.2385 78.2594c-5.4765 4.1794-10.7074 8.5138-14.8295 14.0903-4.3624 5.9015-6.6548 12.9076-10.1489 19.2969-6.7069 12.2644-17.1101 21.711-29.6758 27.7206-6.0061 2.8724-.7616 11.7992 5.2237 8.9367 12.1791-5.8247 22.6111-14.8474 30.1314-26.067 4.0131-5.9872 6.4706-12.675 9.8569-18.9919 3.544-6.611 8.756-11.5388 14.6658-16.0488 5.225-3.9874.075-12.9804-5.2236-8.9368z"/>
    <path class="st1" d="M215.7403 55.353c4.7859-7.8795 7.679-17.1725 6.6411-26.3329s-6.4361-18.055-14.7946-21.9443c-1.2796-.5954-2.6687-1.0802-4.0742-.9514-1.7804.1632-3.3141 1.2751-4.7211 2.3782-2.1103 1.6546-4.2048 3.4283-5.5754 5.7332-2.0907 3.5159-2.2481 7.9163-1.3137 11.8987.9344 3.9824 2.8646 7.6489 4.7757 11.2656l7.6792 14.5325c1.5785 2.9872 3.3314 6.152 6.3361 7.6969"/>
    <path class="st1" d="M210.4494 54.6465c-6.7554-12.6816-17.7434-23.0613-30.7888-29.0844-2.7007-1.2469-5.7402-2.3285-8.5972-1.5003-2.6599.7711-4.5875 3.0364-6.1965 5.2904-1.823 2.5538-3.4918 5.3418-3.9428 8.4468-.5815 4.0035.9814 8.1146 3.5468 11.2426s6.0516 5.3761 9.6781 7.169c11.7097 5.7891 25.5242 7.1953 38.1602 3.8844"/>
    <path class="st2" d="M206.0965 28.5986c.6076.7338-.2715.221.7436-.5482.263-.1993.5651-.2808.894-.2655.5191.0056.9123.272 1.1796.7991.7535.9627.9741 1.0419.6619.2375.0518-.4095-.1858-.9583-.2147-1.3677-.0139-.1967-.1262-.8886-.1021-.7665-.1177-.5973.7441-.3002-.086-.1318-.695.141-2.5197.3699-2.7115-.8599.3609 2.3132 3.2571 3.5944 5.3281 3.0252 2.4676-.6781 3.3872-3.008 3.0252-5.3282-.8051-5.1602-7.4593-6.5026-11.0681-3.4721-3.4439 2.892-3.7288 8.1954-2.1944 12.1839 1.7108 4.4468 7.0325 5.5853 10.6789 2.6935 4.1222-3.2691 2.9452-8.757-.009-12.325-1.4929-1.8031-4.5807-1.5449-6.1255 0-1.784 1.7842-1.4966 4.3182 0 6.1257zM181.0038 44.0032c.2856.0503 2.0417.7968 2.1964.782.3111-.0297-.6495.2556-.0706-.5047.1651-.2169.3741-.2667.5757-.544.389-.5348 1.159.1031.0684-.3591-.6188-.2622-1.3804-.3741-2.0291-.581-1.3046-.4159-2.6345-.8291-3.7268-1.6725l1.5539 1.5539c.3468.489-.4398 2.4201-.705 2.075.1154.1502 2.4016.1297 2.724.1704 2.3248.2938 4.3314-2.2011 4.3314-4.3314 0-2.5849-1.9998-4.0367-4.3314-4.3314-4.6806-.5916-10.1588 1.2639-10.5337 6.7298-.3883 5.661 5.8974 7.6877 10.4137 8.7406 4.8304 1.1261 9.5979-.9625 10.2028-6.2942.5817-5.1272-3.6051-8.949-8.3668-9.7868-2.3014-.4049-4.6671.6195-5.3281 3.0252-.5746 2.0909.7089 4.9207 3.0252 5.3282z"/>
    <path class="st1" d="M184.4727 83.9675c-1.0128 14.6977 2.613 29.6809 10.2336 42.2894 1.1105 1.8373 2.3504 3.6738 4.1332 4.8697 3.1637 2.1223 7.3068 1.808 11.0958 1.412 2.1367-.2233 4.3463-.4696 6.2031-1.55 2.5905-1.5074 4.0905-4.4707 4.4456-7.4467.3551-2.9761-.2945-5.982-1.1707-8.8483-4.3586-14.2581-14.6688-26.5941-27.9269-33.4141"/>
    <path class="st2" d="M195.9914 115.0953c2.5185 4.3712 9.464 5.9139 13.2992 2.3261 3.8183-3.5719 2.6352-9.5208-.4148-13.1385-2.7954-3.3157-9.2792-6.2654-13.037-2.8177-3.8994 3.5776-1.5707 10.3542.5764 14.2645 2.6839 4.8881 10.1675.5221 7.4801-4.3723-.5283-.9622-.8969-1.8719-1.1676-2.9361-.0796-.313-.169-.6423-.2138-.9633a7.1346 7.1346 0 0 1-.058-.9675c.0224-.7283-.1414-.3616-.4915 1.1002l-1.9113 1.1139c.9211-.2987 2.383 1.1161 2.7734 1.8948.0974.1943.139.7357.2221.818.3778.3743-.3324.0534.3251-.294 1.7286-.9134.9077-.1983.314-.4056-.7647-.267-.3323-.1964-.2162.0052-2.7825-4.8292-10.271-.4716-7.4801 4.3723z"/>
    <path class="st1" d="M298.7814 51.0548c4.5771 13.4349 14.2155 25.0777 26.5594 32.0829 3.8752 2.1992 8.0863 3.9763 12.5253 4.3629 4.439.3867 9.1471-.7554 12.4225-3.7762 5.9666-5.5029 5.3136-15.6984.4791-22.2183s-12.6833-10.0509-20.4247-12.4906a116.5115 116.5115 0 0 0-28.9833-5.2263"/>
    <path class="st2" d="M337.1004 72.5241c3.0759-3.9375 2.124-8.246-1.0986-11.7711-2.8535-3.1213-6.9188-5.3739-11.1866-3.9296-4.4206 1.4959-6.3767 6.4815-4.1036 10.5895 2.0654 3.7326 6.6263 5.9161 10.6716 6.5992 2.304.3891 4.6641-.6086 5.3282-3.0252.571-2.0784-.7058-4.9365-3.0252-5.3282-1.572-.2655-3.0704-.6581-4.4028-1.5641.2748.1869-1.383-.9368-1.0848-.9474.6393-.0226-.5506 1.7399-.5499 1.7705-.4519.2184-.3741.2226.2332.0128-.0787.0286-.1005.0765-.0654.1437.2966.2053.5972.3946.8757.621.3947.3208.9357 1.2575 1.413 1.4309.8559.311-.5493 1.089.8697-.7275-1.4386 1.8416-1.7961 4.3294 0 6.1255 1.4976 1.4977 4.6773 1.8539 6.1255 0z"/>
  </g>
  <g id="Layer_2">
    <g id="flower3">
      <path class="st2" d="M260.8456 89.0598c-4.7127-5.4303-14.8284-4.3482-18.2857 1.9562-.558 1.0174-.9733 2.1435-1.7865 2.9712-.9211.9375-2.225 1.3652-3.3783 1.9955-5.1949 2.8388-6.7776 10.6516-3.0971 15.2884 1.6172 2.0374 4.1699 3.8544 3.9788 6.4486-.1413 1.9172-1.7721 3.3188-3.0457 4.7588-1.8078 2.044-3.0729 4.5638-3.6322 7.2347-.7239 3.4567.5224 8.0096 4.0117 8.5554 1.413.221 2.9982-.2706 4.2072.4935 1.3741.8685 1.4495 2.8069 2.1793 4.2595 1.1836 2.3558 4.1861 3.3179 6.7936 2.9291 2.6075-.3888 4.9186-1.835 7.1442-3.2484 2.7639 7.0981 10.8093 12.7062 17.9766 10.1272 1.7256-.6209 3.2755-1.6562 4.9857-2.3183 3.0699-1.1885 6.5646-1.1415 9.4773-2.6756 4.5629-2.4031 6.4283-8.8391 3.8577-13.3098 3.4507-1.313 6.9824-2.8153 9.4588-5.5537 2.4765-2.7384 3.5887-7.0535 1.6342-10.1858-.5007-.8023-1.2016-1.565-1.2367-2.51-.0313-.8424.4798-1.5933.801-2.3727 1.3242-3.2132-.6453-6.8669-3.1255-9.3014-2.4801-2.4345-5.5723-4.3368-7.3826-7.3034-1.6308-2.6724-2.0316-5.9129-3.3439-8.7554-1.3123-2.8424-4.2268-5.4651-7.2598-4.6892-.9047.2314-1.8455.7516-2.713.4061-.9384-.3737-1.231-1.5321-1.8491-2.3309-1.4582-1.8848-4.3608-1.4801-6.6696-.8897-2.3096.5906-4.6758 1.2066-6.6279 2.5749s-3.4321 3.6724-3.1383 6.0381" fill="#ff9c6e"/>
      <path class="st0" d="M260.1785 111.118c1.88-4.5933 7.777-7.1825 12.3095-5.1602 4.5325 2.0222 6.47 8.4947 3.545 12.5043-1.0503 1.4398-2.5455 2.4806-4.0118 3.4937-1.5549 1.0743-3.2369 2.1908-5.1268 2.2031-2.2391.0147-4.2473-1.6002-5.2805-3.5866-1.0332-1.9865-1.2548-4.2897-1.3011-6.5283"/>
    </g>
    <g id="flower2">
      <path class="st4" d="M135.8848 141.1568c5.3268-4.2263 4.7258-13.8287-1.0865-17.3577-.938-.5696-1.9846-1.0088-2.7328-1.8117-.8474-.9093-1.1972-2.1591-1.7446-3.275-2.4657-5.0264-9.7812-6.8471-14.3154-3.563-1.9923 1.4431-3.8153 3.7791-6.2584 3.4905-1.8055-.2133-3.0618-1.8125-4.3693-3.0758-1.8559-1.7932-4.1839-3.0934-6.684-3.7331-3.2358-.8279-7.5892.1599-8.2502 3.4339-.2677 1.3258.1308 2.844-.6415 3.9543-.8778 1.2621-2.7123 1.2526-4.1151 1.8816-2.275 1.0201-3.3091 3.8168-3.0504 6.2966.2588 2.4798 1.5288 4.7235 2.7714 6.885-6.8214 2.3157-12.455 9.6833-10.3169 16.5623.5148 1.6562 1.4283 3.1636 1.9826 4.807.995 2.95.8051 6.2497 2.1331 9.0656 2.0803 4.4111 8.0833 6.4416 12.4143 4.1992 1.0968 3.315 2.369 6.7142 4.8531 9.168 2.4841 2.4538 6.5146 3.6844 9.5554 1.9682.7789-.4396 1.5286-1.07 2.423-1.0638.7972.0055 1.4853.5197 2.2083.8556 2.9806 1.3849 6.5147-.3237 8.9181-2.5654 2.4034-2.2418 4.3295-5.084 7.2077-6.6709 2.5928-1.4295 5.6711-1.6732 8.4113-2.7946s5.3395-3.7658 4.7327-6.6637c-.181-.8644-.6332-1.7749-.2706-2.5802.3921-.871 1.4987-1.0992 2.2792-1.6499 1.8414-1.2992 1.58-4.0585 1.1184-6.2643-.4618-2.2067-.9452-4.4679-2.1566-6.3692-1.2115-1.9014-3.3267-3.3956-5.5741-3.2166"/>
      <path d="M115.0722 139.6077c4.2614 1.9676 6.462 7.6469 4.3626 11.8449-2.0994 4.198-8.2952 5.7589-11.9617 2.8284-1.3166-1.0523-2.2377-2.5083-3.1337-3.9359-.9502-1.5138-1.935-3.1495-1.8679-4.9356.0794-2.1161 1.6887-3.9461 3.6086-4.8396 1.9199-.8934 4.1051-1.0069 6.2221-.9573" fill="#ff9c6e"/>
    </g>
    <g id="flower1">
      <path class="st2" d="M41.7541 79.7791c-.0723 7.1897 8.218 13.0864 14.986 10.6591 1.0923-.3917 2.1497-.9594 3.3073-1.0398 1.3111-.0911 2.5708.4532 3.8521.746 5.7711 1.319 12.1359-3.4804 12.4548-9.3918.1401-2.5975-.5662-5.6501 1.2969-7.4655 1.3769-1.3416 3.527-1.3096 5.4352-1.5432 2.7086-.3316 5.3263-1.3792 7.5158-3.0078 2.8338-2.1078 4.9193-6.3425 2.669-9.0645-.9113-1.1023-2.4239-1.7853-2.8224-3.1588-.4529-1.5612.7759-3.0623 1.1926-4.6336.6758-2.5483-.934-5.2592-3.1438-6.697s-4.8988-1.8873-7.5019-2.3048c2.6369-7.1462.3323-16.6787-6.7432-19.5-1.7035-.6793-3.5501-.9318-5.2694-1.57-3.0862-1.1457-5.6712-3.4978-8.8688-4.2805-5.0091-1.2262-10.6727 2.3551-11.7124 7.4062-3.4539-1.3049-7.0937-2.5218-10.7632-2.1136s-7.363 2.901-7.9766 6.5418c-.1572.9326-.1381 1.9682-.7384 2.699-.5351.6514-1.4156.8746-2.1728 1.2451-3.1216 1.5275-4.0697 5.5686-3.8271 9.0354.2426 3.4668 1.2962 6.9411.6846 10.3621-.551 3.0819-2.3994 5.7735-3.3015 8.7714-.9021 2.9979-.4591 6.8937 2.3259 8.3237.8307.4265 1.8798.6609 2.3003 1.4948.4547.9019-.0942 1.9631-.1611 2.9709-.158 2.3778 2.2833 3.9993 4.403 5.088 2.1206 1.0892 4.3003 2.1968 6.6689 2.4667s5.0041-.4737 6.3527-2.4396"/>
      <path class="st4" d="M56.8781 63.7083c-4.4528 2.1922-10.584.2207-12.6364-4.2982s.7885-10.6489 5.6366-11.7113c1.7409-.3815 3.5503-.1694 5.3196.0444 1.8763.2267 3.8757.5061 5.2987 1.7498 1.6859 1.4735 2.1187 4.0139 1.5751 6.186s-1.9047 4.0433-3.3543 5.7498"/>
    </g>
  </g>
</svg>
