<?xml version="1.0" encoding="utf-8"?>
<!-- Generator: Adobe Illustrator 23.0.1, SVG Export Plug-In . SVG Version: 6.00 Build 0)  -->
<svg version="1.1" xmlns="http://www.w3.org/2000/svg" xmlns:xlink="http://www.w3.org/1999/xlink" x="0px" y="0px"
	 viewBox="0 0 389 216" style="enable-background:new 0 0 389 216;" xml:space="preserve">
<style type="text/css">
	.st0{fill:#325ADA;}
	.st1{fill:#9B6FEF;}
	.st2{fill:#F09A82;}
	.st3{fill:#FF9C6E;}
	.st4{fill:#6610EF;}
	.st5{fill:#A5CAFA;}
</style>
<g id="Layer_1">
	<g>
		<g>
			<path class="st0" d="M421.687,1.3125c-16.7875-0.3051-33.6635-0.3395-50.2382,2.7083
				c-13.5241,2.4869-26.6019,7.5537-38.9994,13.4264c-21.9623,10.4037-42.6148,25.517-55.5142,46.4744
				c-7.7255,12.5515-11.9111,26.6841-13.0306,41.3327c-0.5077,6.6427,9.8446,6.61,10.3498,0
				c3.6834-48.198,50.1396-79.4847,93.6541-89.9293c17.5715-4.2176,35.8275-3.989,53.7785-3.6628
				C428.3496,11.7833,428.3502,1.4336,421.687,1.3125L421.687,1.3125z"/>
		</g>
	</g>
	<g>
		<g>
			<path class="st0" d="M385.6472-2.6634c-27.1216-1.4867-54.4902,2.2295-80.3376,10.5459
				c-26.2971,8.4611-49.9621,22.1908-73.2694,36.7551c-35.8361,22.3934-73.0851,45.4567-117.0004,43.6205
				c-20.904-0.8741-40.6885-9.0524-52.1487-27.241c-3.7524-5.9554-13.2442-0.4594-9.4678,5.5342
				c22.2395,35.2965,67.0096,37.2299,103.6759,27.6422c49.499-12.9432,87.4796-50.141,134.1269-69.5021
				c29.8268-12.3797,62.1644-18.1582,94.4211-16.39C392.698,8.6879,392.6764-2.2781,385.6472-2.6634L385.6472-2.6634z"/>
		</g>
	</g>
	<g>
		<g>
			<path class="st0" d="M172.2385,78.2594c-5.4765,4.1794-10.7074,8.5138-14.8295,14.0903
				c-4.3624,5.9015-6.6548,12.9076-10.1489,19.2969c-6.7069,12.2644-17.1101,21.711-29.6758,27.7206
				c-6.0061,2.8724-0.7616,11.7992,5.2237,8.9367c12.1791-5.8247,22.6111-14.8474,30.1314-26.067
				c4.0131-5.9872,6.4706-12.675,9.8569-18.9919c3.544-6.611,8.756-11.5388,14.6658-16.0488
				C182.6871,83.2088,177.5371,74.2158,172.2385,78.2594L172.2385,78.2594z"/>
		</g>
	</g>
	<g>
		<path class="st1" d="M215.7403,55.353c4.7859-7.8795,7.679-17.1725,6.6411-26.3329s-6.4361-18.055-14.7946-21.9443
			c-1.2796-0.5954-2.6687-1.0802-4.0742-0.9514c-1.7804,0.1632-3.3141,1.2751-4.7211,2.3782
			c-2.1103,1.6546-4.2048,3.4283-5.5754,5.7332c-2.0907,3.5159-2.2481,7.9163-1.3137,11.8987
			c0.9344,3.9824,2.8646,7.6489,4.7757,11.2656c2.5597,4.8442,5.1195,9.6883,7.6792,14.5325
			c1.5785,2.9872,3.3314,6.152,6.3361,7.6969"/>
	</g>
	<g>
		<path class="st1" d="M210.4494,54.6465c-6.7554-12.6816-17.7434-23.0613-30.7888-29.0844
			c-2.7007-1.2469-5.7402-2.3285-8.5972-1.5003c-2.6599,0.7711-4.5875,3.0364-6.1965,5.2904
			c-1.823,2.5538-3.4918,5.3418-3.9428,8.4468c-0.5815,4.0035,0.9814,8.1146,3.5468,11.2426s6.0516,5.3761,9.6781,7.169
			c11.7097,5.7891,25.5242,7.1953,38.1602,3.8844"/>
	</g>
	<g>
		<g>
			<path class="st2" d="M206.0965,28.5986c0.6076,0.7338-0.2715,0.221,0.7436-0.5482c0.263-0.1993,0.5651-0.2808,0.894-0.2655
				c0.5191,0.0056,0.9123,0.272,1.1796,0.7991c0.7535,0.9627,0.9741,1.0419,0.6619,0.2375
				c0.0518-0.4095-0.1858-0.9583-0.2147-1.3677c-0.0139-0.1967-0.1262-0.8886-0.1021-0.7665
				c-0.1177-0.5973,0.7441-0.3002-0.086-0.1318c-0.695,0.141-2.5197,0.3699-2.7115-0.8599
				c0.3609,2.3132,3.2571,3.5944,5.3281,3.0252c2.4676-0.6781,3.3872-3.008,3.0252-5.3282
				c-0.8051-5.1602-7.4593-6.5026-11.0681-3.4721c-3.4439,2.892-3.7288,8.1954-2.1944,12.1839
				c1.7108,4.4468,7.0325,5.5853,10.6789,2.6935c4.1222-3.2691,2.9452-8.757-0.009-12.325c-1.4929-1.8031-4.5807-1.5449-6.1255,0
				C204.3125,24.2571,204.5999,26.7911,206.0965,28.5986L206.0965,28.5986z"/>
		</g>
	</g>
	<g>
		<g>
			<path class="st2" d="M181.0038,44.0032c0.2856,0.0503,2.0417,0.7968,2.1964,0.782c0.3111-0.0297-0.6495,0.2556-0.0706-0.5047
				c0.1651-0.2169,0.3741-0.2667,0.5757-0.544c0.389-0.5348,1.159,0.1031,0.0684-0.3591c-0.6188-0.2622-1.3804-0.3741-2.0291-0.581
				c-1.3046-0.4159-2.6345-0.8291-3.7268-1.6725c0.518,0.518,1.0359,1.0359,1.5539,1.5539c0.3468,0.489-0.4398,2.4201-0.705,2.075
				c0.1154,0.1502,2.4016,0.1297,2.724,0.1704c2.3248,0.2938,4.3314-2.2011,4.3314-4.3314c0-2.5849-1.9998-4.0367-4.3314-4.3314
				c-4.6806-0.5916-10.1588,1.2639-10.5337,6.7298c-0.3883,5.661,5.8974,7.6877,10.4137,8.7406
				c4.8304,1.1261,9.5979-0.9625,10.2028-6.2942c0.5817-5.1272-3.6051-8.949-8.3668-9.7868
				c-2.3014-0.4049-4.6671,0.6195-5.3281,3.0252C177.404,40.7659,178.6875,43.5957,181.0038,44.0032L181.0038,44.0032z"/>
		</g>
	</g>
	<g>
		<path class="st1" d="M184.4727,83.9675c-1.0128,14.6977,2.613,29.6809,10.2336,42.2894c1.1105,1.8373,2.3504,3.6738,4.1332,4.8697
			c3.1637,2.1223,7.3068,1.808,11.0958,1.412c2.1367-0.2233,4.3463-0.4696,6.2031-1.55c2.5905-1.5074,4.0905-4.4707,4.4456-7.4467
			c0.3551-2.9761-0.2945-5.982-1.1707-8.8483c-4.3586-14.2581-14.6688-26.5941-27.9269-33.4141"/>
	</g>
	<g>
		<g>
			<path class="st2" d="M195.9914,115.0953c2.5185,4.3712,9.464,5.9139,13.2992,2.3261c3.8183-3.5719,2.6352-9.5208-0.4148-13.1385
				c-2.7954-3.3157-9.2792-6.2654-13.037-2.8177c-3.8994,3.5776-1.5707,10.3542,0.5764,14.2645
				c2.6839,4.8881,10.1675,0.5221,7.4801-4.3723c-0.5283-0.9622-0.8969-1.8719-1.1676-2.9361
				c-0.0796-0.313-0.169-0.6423-0.2138-0.9633c-0.0413-0.3215-0.0606-0.644-0.058-0.9675c0.0224-0.7283-0.1414-0.3616-0.4915,1.1002
				c-0.6371,0.3713-1.2742,0.7426-1.9113,1.1139c0.9211-0.2987,2.383,1.1161,2.7734,1.8948c0.0974,0.1943,0.139,0.7357,0.2221,0.818
				c0.3778,0.3743-0.3324,0.0534,0.3251-0.294c1.7286-0.9134,0.9077-0.1983,0.314-0.4056c-0.7647-0.267-0.3323-0.1964-0.2162,0.0052
				C200.689,105.8938,193.2005,110.2514,195.9914,115.0953L195.9914,115.0953z"/>
		</g>
	</g>
	<g>
		<path class="st1" d="M298.7814,51.0548c4.5771,13.4349,14.2155,25.0777,26.5594,32.0829
			c3.8752,2.1992,8.0863,3.9763,12.5253,4.3629c4.439,0.3867,9.1471-0.7554,12.4225-3.7762
			c5.9666-5.5029,5.3136-15.6984,0.4791-22.2183s-12.6833-10.0509-20.4247-12.4906c-9.3882-2.9587-19.1531-4.7195-28.9833-5.2263"/>
	</g>
	<g>
		<g>
			<path class="st2" d="M337.1004,72.5241c3.0759-3.9375,2.124-8.246-1.0986-11.7711c-2.8535-3.1213-6.9188-5.3739-11.1866-3.9296
				c-4.4206,1.4959-6.3767,6.4815-4.1036,10.5895c2.0654,3.7326,6.6263,5.9161,10.6716,6.5992
				c2.304,0.3891,4.6641-0.6086,5.3282-3.0252c0.571-2.0784-0.7058-4.9365-3.0252-5.3282c-1.572-0.2655-3.0704-0.6581-4.4028-1.5641
				c0.2748,0.1869-1.383-0.9368-1.0848-0.9474c0.6393-0.0226-0.5506,1.7399-0.5499,1.7705
				c-0.4519,0.2184-0.3741,0.2226,0.2332,0.0128c-0.0787,0.0286-0.1005,0.0765-0.0654,0.1437
				c0.2966,0.2053,0.5972,0.3946,0.8757,0.621c0.3947,0.3208,0.9357,1.2575,1.413,1.4309c0.8559,0.311-0.5493,1.089,0.8697-0.7275
				c-1.4386,1.8416-1.7961,4.3294,0,6.1255C332.4725,74.0218,335.6522,74.378,337.1004,72.5241L337.1004,72.5241z"/>
		</g>
	</g>
</g>
<g id="Layer_2">
	<g id="flower3">
		<g>
			<path class="st3" d="M260.8456,89.0598c-4.7127-5.4303-14.8284-4.3482-18.2857,1.9562c-0.558,1.0174-0.9733,2.1435-1.7865,2.9712
				c-0.9211,0.9375-2.225,1.3652-3.3783,1.9955c-5.1949,2.8388-6.7776,10.6516-3.0971,15.2884
				c1.6172,2.0374,4.1699,3.8544,3.9788,6.4486c-0.1413,1.9172-1.7721,3.3188-3.0457,4.7588
				c-1.8078,2.044-3.0729,4.5638-3.6322,7.2347c-0.7239,3.4567,0.5224,8.0096,4.0117,8.5554
				c1.413,0.221,2.9982-0.2706,4.2072,0.4935c1.3741,0.8685,1.4495,2.8069,2.1793,4.2595c1.1836,2.3558,4.1861,3.3179,6.7936,2.9291
				c2.6075-0.3888,4.9186-1.835,7.1442-3.2484c2.7639,7.0981,10.8093,12.7062,17.9766,10.1272
				c1.7256-0.6209,3.2755-1.6562,4.9857-2.3183c3.0699-1.1885,6.5646-1.1415,9.4773-2.6756
				c4.5629-2.4031,6.4283-8.8391,3.8577-13.3098c3.4507-1.313,6.9824-2.8153,9.4588-5.5537
				c2.4765-2.7384,3.5887-7.0535,1.6342-10.1858c-0.5007-0.8023-1.2016-1.565-1.2367-2.51
				c-0.0313-0.8424,0.4798-1.5933,0.801-2.3727c1.3242-3.2132-0.6453-6.8669-3.1255-9.3014
				c-2.4801-2.4345-5.5723-4.3368-7.3826-7.3034c-1.6308-2.6724-2.0316-5.9129-3.3439-8.7554
				c-1.3123-2.8424-4.2268-5.4651-7.2598-4.6892c-0.9047,0.2314-1.8455,0.7516-2.713,0.4061
				c-0.9384-0.3737-1.231-1.5321-1.8491-2.3309c-1.4582-1.8848-4.3608-1.4801-6.6696-0.8897
				c-2.3096,0.5906-4.6758,1.2066-6.6279,2.5749s-3.4321,3.6724-3.1383,6.0381"/>
		</g>
		<g>
			<path class="st0" d="M260.1785,111.118c1.88-4.5933,7.777-7.1825,12.3095-5.1602c4.5325,2.0222,6.47,8.4947,3.545,12.5043
				c-1.0503,1.4398-2.5455,2.4806-4.0118,3.4937c-1.5549,1.0743-3.2369,2.1908-5.1268,2.2031
				c-2.2391,0.0147-4.2473-1.6002-5.2805-3.5866c-1.0332-1.9865-1.2548-4.2897-1.3011-6.5283"/>
		</g>
	</g>
	<g id="flower2">
		<g>
			<path class="st4" d="M135.8848,141.1568c5.3268-4.2263,4.7258-13.8287-1.0865-17.3577c-0.938-0.5696-1.9846-1.0088-2.7328-1.8117
				c-0.8474-0.9093-1.1972-2.1591-1.7446-3.275c-2.4657-5.0264-9.7812-6.8471-14.3154-3.563
				c-1.9923,1.4431-3.8153,3.7791-6.2584,3.4905c-1.8055-0.2133-3.0618-1.8125-4.3693-3.0758
				c-1.8559-1.7932-4.1839-3.0934-6.684-3.7331c-3.2358-0.8279-7.5892,0.1599-8.2502,3.4339
				c-0.2677,1.3258,0.1308,2.844-0.6415,3.9543c-0.8778,1.2621-2.7123,1.2526-4.1151,1.8816
				c-2.275,1.0201-3.3091,3.8168-3.0504,6.2966c0.2588,2.4798,1.5288,4.7235,2.7714,6.885
				c-6.8214,2.3157-12.455,9.6833-10.3169,16.5623c0.5148,1.6562,1.4283,3.1636,1.9826,4.807
				c0.995,2.95,0.8051,6.2497,2.1331,9.0656c2.0803,4.4111,8.0833,6.4416,12.4143,4.1992c1.0968,3.315,2.369,6.7142,4.8531,9.168
				c2.4841,2.4538,6.5146,3.6844,9.5554,1.9682c0.7789-0.4396,1.5286-1.07,2.423-1.0638c0.7972,0.0055,1.4853,0.5197,2.2083,0.8556
				c2.9806,1.3849,6.5147-0.3237,8.9181-2.5654c2.4034-2.2418,4.3295-5.084,7.2077-6.6709
				c2.5928-1.4295,5.6711-1.6732,8.4113-2.7946s5.3395-3.7658,4.7327-6.6637c-0.181-0.8644-0.6332-1.7749-0.2706-2.5802
				c0.3921-0.871,1.4987-1.0992,2.2792-1.6499c1.8414-1.2992,1.58-4.0585,1.1184-6.2643c-0.4618-2.2067-0.9452-4.4679-2.1566-6.3692
				c-1.2115-1.9014-3.3267-3.3956-5.5741-3.2166"/>
		</g>
		<g>
			<path class="st5" d="M115.0722,139.6077c4.2614,1.9676,6.462,7.6469,4.3626,11.8449c-2.0994,4.198-8.2952,5.7589-11.9617,2.8284
				c-1.3166-1.0523-2.2377-2.5083-3.1337-3.9359c-0.9502-1.5138-1.935-3.1495-1.8679-4.9356
				c0.0794-2.1161,1.6887-3.9461,3.6086-4.8396c1.9199-0.8934,4.1051-1.0069,6.2221-0.9573"/>
		</g>
	</g>
	<g id="flower1">
		<g>
			<path class="st2" d="M41.7541,79.7791c-0.0723,7.1897,8.218,13.0864,14.986,10.6591c1.0923-0.3917,2.1497-0.9594,3.3073-1.0398
				c1.3111-0.0911,2.5708,0.4532,3.8521,0.746c5.7711,1.319,12.1359-3.4804,12.4548-9.3918
				c0.1401-2.5975-0.5662-5.6501,1.2969-7.4655c1.3769-1.3416,3.527-1.3096,5.4352-1.5432
				c2.7086-0.3316,5.3263-1.3792,7.5158-3.0078c2.8338-2.1078,4.9193-6.3425,2.669-9.0645
				c-0.9113-1.1023-2.4239-1.7853-2.8224-3.1588c-0.4529-1.5612,0.7759-3.0623,1.1926-4.6336
				c0.6758-2.5483-0.934-5.2592-3.1438-6.697s-4.8988-1.8873-7.5019-2.3048c2.6369-7.1462,0.3323-16.6787-6.7432-19.5
				c-1.7035-0.6793-3.5501-0.9318-5.2694-1.57c-3.0862-1.1457-5.6712-3.4978-8.8688-4.2805
				c-5.0091-1.2262-10.6727,2.3551-11.7124,7.4062c-3.4539-1.3049-7.0937-2.5218-10.7632-2.1136s-7.363,2.901-7.9766,6.5418
				c-0.1572,0.9326-0.1381,1.9682-0.7384,2.699c-0.5351,0.6514-1.4156,0.8746-2.1728,1.2451
				c-3.1216,1.5275-4.0697,5.5686-3.8271,9.0354c0.2426,3.4668,1.2962,6.9411,0.6846,10.3621
				c-0.551,3.0819-2.3994,5.7735-3.3015,8.7714c-0.9021,2.9979-0.4591,6.8937,2.3259,8.3237
				c0.8307,0.4265,1.8798,0.6609,2.3003,1.4948c0.4547,0.9019-0.0942,1.9631-0.1611,2.9709c-0.158,2.3778,2.2833,3.9993,4.403,5.088
				c2.1206,1.0892,4.3003,2.1968,6.6689,2.4667s5.0041-0.4737,6.3527-2.4396"/>
		</g>
		<g>
			<path class="st4" d="M56.8781,63.7083c-4.4528,2.1922-10.584,0.2207-12.6364-4.2982s0.7885-10.6489,5.6366-11.7113
				c1.7409-0.3815,3.5503-0.1694,5.3196,0.0444c1.8763,0.2267,3.8757,0.5061,5.2987,1.7498
				c1.6859,1.4735,2.1187,4.0139,1.5751,6.186s-1.9047,4.0433-3.3543,5.7498"/>
		</g>
	</g>
</g>
</svg>
