<svg xmlns="http://www.w3.org/2000/svg" viewBox="0 0 306 329">
  <path fill="#6536ca" d="M155.194 329L-.2217 16.6596h86.0068l113.1668 224.8247zM275.7921 3.5286c15.3485 6.563 21.248 23.0912 15.4354 36.6848-9.9381 23.2416-30.043 19.3133-34.9275 19.8182-4.2586.254-9.5781 4.2036-12.0156 9.9041-9.188 21.4874-1.8365 51.6034 2.4279 58.6139 1.4425 2.6918 2.5101 6.2604 1.5726 8.4531-.9376 2.1926-3.2545 2.7584-5.8855 1.6333-3.0692-1.3131-6.7046-4.9419-10.4032-9.6355-5.0777-6.3212-35.6133-52.575-15.9246-98.6198 12.3755-28.942 39.549-35.4774 59.7205-26.8521z"/>
  <circle cx="260.4814" cy="45.8933" r="45.2477" fill="#6536ca"/>
</svg>
