<?xml version="1.0" encoding="utf-8"?>
<!-- Generator: Adobe Illustrator 22.1.0, SVG Export Plug-In . SVG Version: 6.00 Build 0)  -->
<svg version="1.1" id="Layer_1" xmlns="http://www.w3.org/2000/svg" xmlns:xlink="http://www.w3.org/1999/xlink" x="0px" y="0px"
	 viewBox="0 0 297 297" style="enable-background:new 0 0 297 297;" xml:space="preserve">
<style type="text/css">
	.st0{fill:#6536CA;}
</style>
<path class="st0" d="M294.9,125c-0.6-0.8-14.2-18.7-38.9-36.7c-32.8-23.9-70-36.5-107.5-36.5C111,51.8,73.8,64.4,41,88.3
	c-24.7,18-38.3,35.9-38.9,36.7c-2.8,3.7-2.8,8.8,0,12.6c0.5,0.7,11,14.6,30.3,30.1l-14,28c-2.6,5.2-0.5,11.4,4.7,14
	c1.5,0.8,3.1,1.1,4.7,1.1c3.8,0,7.5-2.1,9.4-5.8l12.4-24.9c10.6,7,21.7,12.8,33,17.4l-12.4,24.8c-2.6,5.2-0.5,11.4,4.7,14
	c1.5,0.8,3.1,1.1,4.7,1.1c3.8,0,7.5-2.1,9.4-5.8l13.6-27.3c11.7,3.3,23.6,5.3,35.6,6v24.4c0,5.8,4.7,10.5,10.5,10.5
	s10.5-4.7,10.5-10.5v-24.4c12-0.7,23.9-2.8,35.6-6l13.6,27.3c1.8,3.7,5.5,5.8,9.4,5.8c1.6,0,3.2-0.4,4.7-1.1c5.2-2.6,7.3-8.9,4.7-14
	l-12.4-24.8c11.3-4.6,22.4-10.5,33-17.4l12.4,24.9c1.8,3.7,5.5,5.8,9.4,5.8c1.6,0,3.2-0.4,4.7-1.1c5.2-2.6,7.3-8.9,4.7-14l-14-28
	c19.2-15.5,29.8-29.4,30.3-30.1C297.7,133.8,297.7,128.7,294.9,125L294.9,125z M243.2,157.7c-29.5,21.3-61.4,32.1-94.7,32.1
	c-33.3,0-65.2-10.8-94.7-32.1c-13.9-10-24-20.2-29.7-26.5c5.7-6.3,15.8-16.4,29.7-26.5c29.5-21.3,61.4-32.1,94.7-32.1
	c33.3,0,65.2,10.8,94.7,32.1c13.9,10,24,20.2,29.7,26.5C267.2,137.5,257.1,147.7,243.2,157.7z"/>
</svg>
