<?xml version="1.0" encoding="utf-8"?>
<!-- Generator: Adobe Illustrator 22.1.0, SVG Export Plug-In . SVG Version: 6.00 Build 0)  -->
<svg version="1.1" id="Layer_1" xmlns="http://www.w3.org/2000/svg" xmlns:xlink="http://www.w3.org/1999/xlink" x="0px" y="0px"
	 viewBox="0 0 297 297" style="enable-background:new 0 0 297 297;" xml:space="preserve">
<style type="text/css">
	.st0{fill:#FFFFFF;}
</style>
<path class="st0" d="M294.9,142.2c-0.6-0.8-14.2-18.7-38.9-36.7C223.2,81.6,186,69,148.5,69S73.8,81.6,41,105.5
	c-24.7,18-38.3,35.9-38.9,36.7c-2.8,3.7-2.8,8.8,0,12.5c0.6,0.8,14.2,18.7,38.9,36.7c32.8,23.9,70,36.5,107.5,36.5
	s74.7-12.6,107.5-36.5c24.7-18,38.3-35.9,38.9-36.7C297.7,151.1,297.7,145.9,294.9,142.2z M207.1,148.5c0,32.3-26.3,58.6-58.6,58.6
	s-58.6-26.3-58.6-58.6s26.3-58.6,58.6-58.6S207.1,116.2,207.1,148.5L207.1,148.5z M24.2,148.5c8.9-9.9,28.8-29.3,57.6-43
	c-8,12.4-12.7,27.2-12.7,43c0,15.9,4.7,30.7,12.8,43.2c-9.5-4.6-18.9-10.1-28-16.7C39.9,164.9,29.8,154.8,24.2,148.5z M243.2,175
	c-9.1,6.6-18.5,12.2-28,16.7c8.1-12.4,12.8-27.3,12.8-43.2s-4.7-30.7-12.8-43.2c9.5,4.6,18.9,10.1,28,16.7
	c13.9,10,24,20.2,29.7,26.5C267.2,154.8,257.1,164.9,243.2,175z"/>
<circle class="st0" cx="148.5" cy="148.5" r="17.3"/>
</svg>
