<?xml version="1.0" encoding="utf-8"?>
<!-- Generator: Adobe Illustrator 22.1.0, SVG Export Plug-In . SVG Version: 6.00 Build 0)  -->
<svg version="1.1" id="Layer_1" xmlns="http://www.w3.org/2000/svg" xmlns:xlink="http://www.w3.org/1999/xlink" x="0px" y="0px"
	 viewBox="0 0 268.8 268.8" style="enable-background:new 0 0 268.8 268.8;" xml:space="preserve">
<style type="text/css">
	.st0{fill:#6536CA;}
</style>
<path class="st0" d="M223.3,83.7l-80-80c-4.9-4.9-12.8-4.9-17.7,0l-80,80c-4.9,4.9-4.9,12.8,0,17.7c2.4,2.4,5.6,3.7,8.8,3.7
	s6.4-1.2,8.8-3.7l58.7-58.7v213.7c0,6.9,5.6,12.5,12.5,12.5c6.9,0,12.5-5.6,12.5-12.5V42.7l58.7,58.7c4.9,4.9,12.8,4.9,17.7,0
	C228.1,96.5,228.1,88.5,223.3,83.7L223.3,83.7z"/>
</svg>
