<?xml version="1.0" encoding="utf-8"?>
<!-- Generator: Adobe Illustrator 22.1.0, SVG Export Plug-In . SVG Version: 6.00 Build 0)  -->
<svg version="1.1" id="Layer_1" xmlns="http://www.w3.org/2000/svg" xmlns:xlink="http://www.w3.org/1999/xlink" x="0px" y="0px"
	 viewBox="0 0 512 512" style="enable-background:new 0 0 512 512;" xml:space="preserve">
<style type="text/css">
	.st0{fill:#6536CA;}
</style>
<path class="st0" d="M492.2,3.8c-6.8-4.7-15.6-5.1-22.8-1l-448,256C14.1,263,9.9,271,10.8,279.4s6.5,15.5,14.5,18.1l146.5,48.8
	l9.6,145.7c0.6,9,6.8,16.7,15.5,19.1c1.9,0.5,3.9,0.8,5.8,0.8c6.8,0,13.3-3.3,17.4-9l80.5-113.7l108.7,36.2c2.2,0.7,4.5,1.1,6.7,1.1
	c3.8,0,7.6-1,11-3.1c5.4-3.2,9-8.6,10-14.8l64-384C502.4,16.7,499,8.5,492.2,3.8L492.2,3.8z M184.5,305.7L84,272.2l283.7-162.1
	L184.5,305.7L184.5,305.7z M220,429.3l-4.5-68.3l42.8,14.3L220,429.3z M399.1,377.2l-170-56.7L447.4,87.4L399.1,377.2z"/>
</svg>
