<svg id="Capa_1" xmlns="http://www.w3.org/2000/svg" viewBox="0 0 511 643">
  <style>
    .st1{fill:none;stroke:#fff;stroke-width:33;stroke-linecap:round;stroke-linejoin:round;stroke-miterlimit:10}
  </style>
  <path d="M491.2 13.8c-6.8-4.7-15.6-5.1-22.8-1l-448 256C13.1 273 8.9 281 9.8 289.4s6.5 15.5 14.5 18.1l146.5 48.8 9.6 145.7c.6 9 6.8 16.7 15.5 19.1 1.9.5 3.9.8 5.8.8 6.8 0 13.3-3.3 17.4-9l80.5-113.7 108.7 36.2c2.2.7 4.5 1.1 6.7 1.1 3.8 0 7.6-1 11-3.1 5.4-3.2 9-8.6 10-14.8l64-384c1.4-7.9-2-16.1-8.8-20.8zM183.5 315.7L83 282.2l283.7-162.1-183.2 195.6zM219 439.3l-4.5-68.3 42.8 14.3-38.3 54zm179.1-52.1l-170-56.7L446.4 97.4l-48.3 289.8z" fill="#fff"/>
  <path class="st1" d="M111.3 384.7L38 468.5M347.2 476.8l-64.7 90.6M131.8 529.4l-70.1 86.5"/>
</svg>
