<?xml version="1.0" encoding="utf-8"?>
<!-- Generator: Adobe Illustrator 22.1.0, SVG Export Plug-In . SVG Version: 6.00 Build 0)  -->
<svg version="1.1" id="Capa_1" xmlns="http://www.w3.org/2000/svg" xmlns:xlink="http://www.w3.org/1999/xlink" x="0px" y="0px"
	 viewBox="0 0 511 643" style="enable-background:new 0 0 511 643;" xml:space="preserve">
<style type="text/css">
	.st0{fill:#FFFFFF;}
	.st1{fill:none;stroke:#FFFFFF;stroke-width:33;stroke-linecap:round;stroke-linejoin:round;stroke-miterlimit:10;}
</style>
<g>
	<g>
		<path class="st0" d="M491.2,13.8c-6.8-4.7-15.6-5.1-22.8-1l-448,256C13.1,273,8.9,281,9.8,289.4s6.5,15.5,14.5,18.1l146.5,48.8
			l9.6,145.7c0.6,9,6.8,16.7,15.5,19.1c1.9,0.5,3.9,0.8,5.8,0.8c6.8,0,13.3-3.3,17.4-9l80.5-113.7l108.7,36.2
			c2.2,0.7,4.5,1.1,6.7,1.1c3.8,0,7.6-1,11-3.1c5.4-3.2,9-8.6,10-14.8l64-384C501.4,26.7,498,18.5,491.2,13.8z M183.5,315.7
			L83,282.2l283.7-162.1L183.5,315.7z M219,439.3l-4.5-68.3l42.8,14.3L219,439.3z M398.1,387.2l-170-56.7L446.4,97.4L398.1,387.2z"
			/>
	</g>
</g>
<line class="st1" x1="111.3" y1="384.7" x2="38" y2="468.5"/>
<line class="st1" x1="347.2" y1="476.8" x2="282.5" y2="567.4"/>
<line class="st1" x1="131.8" y1="529.4" x2="61.7" y2="615.9"/>
</svg>
