<?xml version="1.0" encoding="utf-8"?>
<!-- Generator: Adobe Illustrator 23.0.1, SVG Export Plug-In . SVG Version: 6.00 Build 0)  -->
<svg version="1.1" id="Layer_1" xmlns="http://www.w3.org/2000/svg" xmlns:xlink="http://www.w3.org/1999/xlink" x="0px" y="0px"
	 viewBox="0 0 471 302" style="enable-background:new 0 0 471 302;" xml:space="preserve">
<g>
	<g>
		<path d="M139.6372,158.6961c-0.565,1.8381-1.344,2.7553-2.3304,2.7553h-27.9721c-1.1316,0-1.9073-0.9172-2.3304-2.7553
			l-13.7735-52.128l-13.3504,52.128c-0.5666,1.8381-1.344,2.7553-2.3304,2.7553H49.3672c-1.1332,0-1.9814-0.9172-2.5428-2.7553
			L19.2754,68.2137c-0.7048-1.6946-0.0691-2.5428,1.9073-2.5428h26.4881c1.1298,0,1.9072,0.9207,2.3322,2.7554l14.1967,57.4246
			l14.1985-57.4246c0.4233-1.8347,1.1281-2.7554,2.118-2.7554h27.3363c0.9864,0,1.6946,0.9207,2.118,2.7554l14.4109,57.4246
			l13.9843-57.4246c0.4249-1.8347,1.1988-2.7554,2.3322-2.7554h25.0042c1.4113,0,2.0453,0.8482,1.9071,2.5428L139.6372,158.6961z"/>
		<path d="M256.4713,122.2489H200.104c0.8482,5.2291,3.391,9.1852,7.6287,11.8663c3.6727,2.6864,8.1228,4.027,13.3503,4.027
			c4.8007,0,9.3943-1.199,13.7735-3.6019c2.2579-1.1298,3.8853-0.9865,4.8752,0.4233l10.8055,13.5608
			c0.7065,0.8482,0.9174,1.8381,0.6358,2.9679c-0.2834,1.4132-0.8464,2.4031-1.6946,2.9662
			c-8.4754,5.5091-18.6469,8.2645-30.5134,8.2645c-14.5525,0-26.6313-4.8007-36.2364-14.4092
			c-9.3233-9.4633-13.9859-21.5422-13.9859-36.2364c0-14.1244,4.5899-25.9216,13.7735-35.3884
			c8.4769-8.6152,19.5659-12.9254,33.2702-12.9254c13.4194,0,24.2959,4.381,32.6329,13.1378
			c8.1921,8.6186,12.2896,19.7075,12.2896,33.2687c0,1.1333-0.0361,2.4375-0.1053,3.9215
			c-0.0725,1.4822-0.1796,3.0715-0.3178,4.7679C260.144,121.1208,258.8725,122.2489,256.4713,122.2489z M215.3615,88.132
			c-4.0995,0-7.6287,1.2715-10.5949,3.8144c-2.9662,2.5428-4.5918,5.3708-4.8734,8.477h30.3025
			C229.3475,92.2315,224.4015,88.132,215.3615,88.132z"/>
		<path d="M332.679,92.5821c-1.2713,1.2715-2.6845,1.2715-4.2375,0c-2.828-2.3996-5.8649-3.6019-9.1127-3.6019
			c-10.5949,0-15.8932,8.9002-15.8932,26.7006v42.3796c0,1.8381-0.8465,2.7555-2.5429,2.7555h-23.7328
			c-1.8379,0-2.7553-0.9174-2.7553-2.7555V68.2137c0-1.6946,0.9174-2.5428,2.7553-2.5428h23.7328
			c1.6964,0,2.5429,0.8482,2.5429,2.5428v2.7554c0,1.2715,0.425,1.344,1.2715,0.2109c4.2393-5.0859,10.0991-7.6288,17.5878-7.6288
			c9.3251,0,17.1646,3.1787,23.522,9.5359c1.2713,1.2715,1.9071,2.3304,1.9071,3.1786c0,0.7085-0.5666,1.6256-1.6946,2.7555
			L332.679,92.5821z"/>
		<path d="M443.0724,160.8159h-28.8185c-1.5565,0-2.7553-0.6358-3.6035-1.9073l-20.9774-33.0578l-6.1465,6.3573v25.8523
			c0,1.8381-0.8465,2.7555-2.5428,2.7555h-23.7327c-1.8381,0-2.7555-0.9174-2.7555-2.7555V19.2645
			c0-1.8348,0.9174-2.7555,2.7555-2.7555h23.7327c1.6964,0,2.5428,0.9207,2.5428,2.7555V95.55l24.3702-27.972
			c0.9864-1.2715,2.1887-1.9072,3.6019-1.9072h29.8792c1.1281,0,1.8328,0.4232,2.118,1.2714
			c0.2816,0.8482,0.14,1.5564-0.4233,2.1197l-33.6935,35.8115l35.3884,52.3404
			C446.3202,159.6169,445.7536,160.8159,443.0724,160.8159z"/>
	</g>
	<g>
		<g>
			<path d="M48.4319,190.6304h20.5286v5.6785H54.5798v10.4206h10.4206v5.5222H54.5798v16.9333h-6.1479V190.6304z"/>
			<path d="M68.7519,215.3777c0-10.2643,5.6806-14.3809,11.3069-14.3809c6.1998,0,10.4727,4.5337,10.4727,14.5372v1.6161H74.5889
				c0.2606,5.2094,2.3961,7.7619,5.8349,7.7619c2.9176,0,4.5857-1.4056,6.3042-3.7516l3.7515,2.7109
				c-2.0834,3.3345-5.8349,5.8871-10.3164,5.8871C73.8068,229.7583,68.7519,225.3289,68.7519,215.3777z M85.0095,212.9816
				c-0.2606-4.5857-1.8248-7.0342-5.0027-7.0342c-2.6048,0-4.8967,1.8748-5.3658,7.0342H85.0095z"/>
			<path d="M92.3544,224.3907l3.6473-3.0739c2.0313,2.5024,4.8965,3.8558,7.6576,3.8558c2.8152,0,4.5337-0.9906,4.5337-3.1258
				c0-5.9915-14.1724-3.0219-14.1724-13.1819c0-5.0009,4.1687-7.8681,9.4842-7.8681c3.906,0,7.5012,1.7726,9.743,4.69l-3.543,3.2303
				c-1.5118-1.7707-3.7517-3.2303-6.2522-3.2303c-2.5024,0-3.8036,1.0426-3.8036,2.8654c0,5.9392,14.118,2.8652,14.118,13.1295
				c0,5.1593-4.688,8.0767-10.212,8.0767C98.5021,229.7583,94.7504,227.6207,92.3544,224.3907z"/>
			<path d="M119.5538,222.6201v-16.3076h-3.9601v-4.7421h3.9601v-9.6909h5.9391v9.6909h5.9914v4.7421h-5.9914v14.6915
				c0,2.8673,0.73,3.8558,3.4387,3.8558c0.8342,0,1.8749-0.1564,2.3442-0.3127v4.5857c-0.5735,0.2084-2.5526,0.3648-4.0644,0.3648
				C121.3244,229.4976,119.5538,227.4664,119.5538,222.6201z"/>
			<path d="M136.0681,191.4624h5.9912v5.5763h-5.9912V191.4624z M136.0681,201.5704h5.9391v27.6146h-5.9391V201.5704z"/>
			<path d="M145.7608,201.5704h5.9914l3.7515,13.9636c0.6255,2.4483,1.0948,4.2729,1.8226,7.5031h0.1045
				c0.6776-3.1779,1.1467-5.0027,1.7724-7.4509l3.7515-14.0158h5.5743l-8.231,27.7188h-6.3061L145.7608,201.5704z"/>
			<path d="M169.6759,222.4115c0-5.7827,5.2094-9.6387,15.161-11.5154v-1.1971c0-2.6048-0.9906-3.5952-3.4388-3.5952
				c-3.0739,0-5.8351,1.4577-7.816,3.178l-2.9697-3.6474c2.9176-2.7088,7.034-4.6378,11.5155-4.6378
				c5.8349,0,8.4918,2.9717,8.4918,8.7023v12.7124c0,3.3346,0.2085,5.3658,0.6777,6.7734h-5.8871
				c-0.3127-1.0427-0.5733-1.8748-0.5733-3.4909c-1.8749,2.3961-4.9488,3.8036-8.4919,3.8036
				C172.4372,229.4976,169.6759,226.9973,169.6759,222.4115z M184.8369,221.9423v-6.9819
				c-6.5128,1.4078-9.3782,3.5952-9.3782,6.4607c0,2.2939,1.2493,3.3866,3.2303,3.3866
				C181.2415,224.8077,183.3248,223.5586,184.8369,221.9423z"/>
			<path d="M196.663,190.6304h5.9392v38.5546h-5.9392V190.6304z"/>
			<path d="M218.597,215.3777c0-9.9515,4.1167-14.3809,9.5366-14.3809c3.178,0,5.2614,1.2512,7.034,3.4909v-13.8573h5.9391v31.7812
				c0,3.3346,0.1564,5.3658,0.6776,6.7734h-6.0975c-0.3127-0.8342-0.5192-2.7091-0.5192-3.5952
				c-1.6163,2.0834-3.9082,4.0121-7.3991,4.0121C222.4009,229.6019,218.597,225.2769,218.597,215.3777z M235.1676,221.6295v-12.6082
				c-1.512-1.8749-3.3866-2.9697-5.42-2.9697c-3.2303,0-5.1572,2.8132-5.1572,9.4823c0,6.4083,1.9269,9.2215,5.2094,9.2215
				C231.6767,224.7555,234.0727,222.9329,235.1676,221.6295z"/>
			<path d="M245.6925,215.3777c0-10.2643,5.6784-14.3809,11.3049-14.3809c6.1998,0,10.4727,4.5337,10.4727,14.5372v1.6161h-15.9427
				c0.2606,5.2094,2.3961,7.7619,5.8349,7.7619c2.9175,0,4.5856-1.4056,6.3041-3.7516l3.7516,2.7109
				c-2.0834,3.3345-5.8349,5.8871-10.3165,5.8871C250.7452,229.7583,245.6925,225.3289,245.6925,215.3777z M261.9479,212.9816
				c-0.2606-4.5857-1.8245-7.0342-5.0027-7.0342c-2.6046,0-4.8966,1.8748-5.3657,7.0342H261.9479z"/>
			<path d="M283.7256,190.6304h7.7639l8.231,30.0106h0.1045l7.9722-30.0106h7.814v38.5546h-5.8349v-29.3331h-0.1043
				c-0.3649,2.5524-1.5098,6.8775-2.344,9.6385l-5.5742,19.6945h-4.6378l-5.5743-19.7466c-0.7297-2.3961-1.8767-7.034-2.346-9.6907
				h-0.1043v29.4373h-5.3658V190.6304z"/>
			<path d="M322.0216,221.9944v-20.424h5.9391v19.1749c0,2.7091,0.8863,3.9582,3.2824,3.9582c2.1897,0,4.273-1.5099,6.0455-3.2303
				v-19.9028h5.9391v27.6146h-5.9391v-3.5952c-1.8246,2.0834-4.7421,4.1686-8.4936,4.1686
				C324.5742,229.7583,322.0216,227.1016,322.0216,221.9944z"/>
			<path d="M345.3112,239.4492v-4.4815c0.3129,0.1042,1.199,0.1564,1.6684,0.1564c1.6661,0,2.4482-0.9885,2.4482-3.0739v-30.4798
				h5.9391v31.0534c0,4.325-1.4056,7.0339-6.9819,7.0339C347.605,239.6577,345.6241,239.5534,345.3112,239.4492z M349.4278,191.4624
				h5.9912v5.5763h-5.9912V191.4624z"/>
			<path d="M360.3174,215.3777c0-10.2643,5.6785-14.3809,11.3049-14.3809c6.2,0,10.473,4.5337,10.473,14.5372v1.6161h-15.9428
				c0.2607,5.2094,2.3962,7.7619,5.8349,7.7619c2.9174,0,4.5858-1.4056,6.304-3.7516l3.7515,2.7109
				c-2.0831,3.3345-5.8349,5.8871-10.3164,5.8871C365.3705,229.7583,360.3174,225.3289,360.3174,215.3777z M376.5732,212.9816
				c-0.2608-4.5857-1.8247-7.0342-5.0029-7.0342c-2.6046,0-4.8964,1.8748-5.3655,7.0342H376.5732z"/>
			<path d="M386.7332,201.5704h5.9391v4.2728h0.1043c1.2512-2.2397,4.0121-4.8464,8.233-4.8464c0.1043,0,0.5212,0,0.5212,0
				l-0.1563,5.4721c-0.1564,0-0.8861-0.0521-1.3555-0.0521c-3.2824,0-5.8349,1.8746-7.3467,4.3772v18.391h-5.9391V201.5704z"/>
			<path d="M402.8865,215.3777c0-10.2643,5.6786-14.3809,11.3049-14.3809c6.1998,0,10.4727,4.5337,10.4727,14.5372v1.6161h-15.9427
				c0.2606,5.2094,2.3961,7.7619,5.8349,7.7619c2.9174,0,4.5858-1.4056,6.304-3.7516l3.7517,2.7109
				c-2.0834,3.3345-5.8349,5.8871-10.3164,5.8871C407.9393,229.7583,402.8865,225.3289,402.8865,215.3777z M419.142,212.9816
				c-0.2606-4.5857-1.8248-7.0342-5.0027-7.0342c-2.6048,0-4.8967,1.8748-5.3658,7.0342H419.142z"/>
			<path d="M426.4887,224.3907l3.6473-3.0739c2.0313,2.5024,4.8967,3.8558,7.6576,3.8558c2.8154,0,4.5337-0.9906,4.5337-3.1258
				c0-5.9915-14.1721-3.0219-14.1721-13.1819c0-5.0009,4.1685-7.8681,9.4842-7.8681c3.906,0,7.5012,1.7726,9.7427,4.69
				l-3.543,3.2303c-1.5118-1.7707-3.7515-3.2303-6.252-3.2303c-2.5024,0-3.8036,1.0426-3.8036,2.8654
				c0,5.9392,14.118,2.8652,14.118,13.1295c0,5.1593-4.688,8.0767-10.2122,8.0767
				C432.6366,229.7583,428.8848,227.6207,426.4887,224.3907z"/>
			<path d="M46.5552,267.4628c0-9.9515,4.1165-14.3809,9.5364-14.3809c3.1782,0,5.2613,1.2512,7.034,3.4909v-13.8573h5.9392v31.7813
				c0,3.3346,0.1563,5.3657,0.6778,6.7733H63.645c-0.313-0.8341-0.5194-2.7088-0.5194-3.5952
				c-1.6161,2.0834-3.908,4.0122-7.3991,4.0122C50.3589,281.6871,46.5552,277.3622,46.5552,267.4628z M63.1256,273.7146v-12.6082
				c-1.5118-1.8746-3.3867-2.9695-5.42-2.9695c-3.2303,0-5.157,2.8131-5.157,9.4821c0,6.4085,1.9267,9.2216,5.2092,9.2216
				C59.6347,276.8407,62.0307,275.0182,63.1256,273.7146z"/>
			<path d="M73.6484,267.4628c0-10.2642,5.6805-14.3809,11.3069-14.3809c6.1999,0,10.4727,4.5337,10.4727,14.5372v1.6161H79.4853
				c0.2606,5.2094,2.3962,7.7619,5.8349,7.7619c2.9176,0,4.5858-1.4055,6.3042-3.7515l3.7515,2.7108
				c-2.0833,3.3346-5.8349,5.8873-10.3164,5.8873C78.7034,281.8437,73.6484,277.4142,73.6484,267.4628z M89.9059,265.0667
				c-0.2606-4.5857-1.8245-7.034-5.0027-7.034c-2.6046,0-4.8964,1.8746-5.3657,7.034H89.9059z"/>
			<path d="M100.3247,242.7155h5.9391v38.5546h-5.9391V242.7155z"/>
			<path d="M124.1357,242.7155h11.2025c7.0842,0,12.6604,3.1781,12.6604,11.8785c0,9.3258-6.0955,12.191-12.8689,12.191h-4.9505
				v14.4851h-6.0434V242.7155z M135.3381,261.4715c4.6359,0,6.7734-1.8748,6.7734-6.7212c0-4.6378-2.1375-6.4085-6.8255-6.4085
				h-5.107v13.1297H135.3381z"/>
			<path d="M151.9066,261.9928c0-13.3903,6.4082-20.0071,14.6414-20.0071c8.1809,0,14.5892,6.6167,14.5892,20.0071
				c0,13.3903-6.4083,20.0072-14.5892,20.0072C158.3149,282,151.9066,275.3831,151.9066,261.9928z M174.9355,261.9928
				c0-9.3779-3.0739-14.3285-8.3874-14.3285c-5.3657,0-8.4918,4.9506-8.4918,14.3285c0,9.378,3.126,14.4309,8.4918,14.4309
				C171.8615,276.4237,174.9355,271.3707,174.9355,261.9928z"/>
			<path d="M186.7636,242.7155h11.2027c7.084,0,12.6604,3.1781,12.6604,11.8785c0,9.3258-6.0955,12.191-12.8688,12.191h-4.9506
				v14.4851h-6.0436V242.7155z M197.9663,261.4715c4.6359,0,6.7734-1.8748,6.7734-6.7212c0-4.6378-2.1375-6.4085-6.8255-6.4085
				h-5.107v13.1297H197.9663z"/>
		</g>
	</g>
</g>
</svg>
