<svg xmlns="http://www.w3.org/2000/svg" viewBox="0 0 471 302">
  <path d="M139.6372 158.6961c-.565 1.8381-1.344 2.7553-2.3304 2.7553h-27.9721c-1.1316 0-1.9073-.9172-2.3304-2.7553l-13.7735-52.128-13.3504 52.128c-.5666 1.8381-1.344 2.7553-2.3304 2.7553H49.3672c-1.1332 0-1.9814-.9172-2.5428-2.7553l-27.549-90.4824c-.7048-1.6946-.0691-2.5428 1.9073-2.5428h26.4881c1.1298 0 1.9072.9207 2.3322 2.7554l14.1967 57.4246 14.1985-57.4246c.4233-1.8347 1.1281-2.7554 2.118-2.7554h27.3363c.9864 0 1.6946.9207 2.118 2.7554l14.4109 57.4246 13.9843-57.4246c.4249-1.8347 1.1988-2.7554 2.3322-2.7554h25.0042c1.4113 0 2.0453.8482 1.9071 2.5428l-27.972 90.4824zM256.4713 122.2489H200.104c.8482 5.2291 3.391 9.1852 7.6287 11.8663 3.6727 2.6864 8.1228 4.027 13.3503 4.027 4.8007 0 9.3943-1.199 13.7735-3.6019 2.2579-1.1298 3.8853-.9865 4.8752.4233l10.8055 13.5608c.7065.8482.9174 1.8381.6358 2.9679-.2834 1.4132-.8464 2.4031-1.6946 2.9662-8.4754 5.5091-18.6469 8.2645-30.5134 8.2645-14.5525 0-26.6313-4.8007-36.2364-14.4092-9.3233-9.4633-13.9859-21.5422-13.9859-36.2364 0-14.1244 4.5899-25.9216 13.7735-35.3884 8.4769-8.6152 19.5659-12.9254 33.2702-12.9254 13.4194 0 24.2959 4.381 32.6329 13.1378 8.1921 8.6186 12.2896 19.7075 12.2896 33.2687 0 1.1333-.0361 2.4375-.1053 3.9215-.0725 1.4822-.1796 3.0715-.3178 4.7679-.1418 2.2613-1.4133 3.3894-3.8145 3.3894zM215.3615 88.132c-4.0995 0-7.6287 1.2715-10.5949 3.8144-2.9662 2.5428-4.5918 5.3708-4.8734 8.477h30.3025c-.8482-8.1919-5.7942-12.2914-14.8342-12.2914zM332.679 92.5821c-1.2713 1.2715-2.6845 1.2715-4.2375 0-2.828-2.3996-5.8649-3.6019-9.1127-3.6019-10.5949 0-15.8932 8.9002-15.8932 26.7006v42.3796c0 1.8381-.8465 2.7555-2.5429 2.7555h-23.7328c-1.8379 0-2.7553-.9174-2.7553-2.7555V68.2137c0-1.6946.9174-2.5428 2.7553-2.5428h23.7328c1.6964 0 2.5429.8482 2.5429 2.5428v2.7554c0 1.2715.425 1.344 1.2715.2109 4.2393-5.0859 10.0991-7.6288 17.5878-7.6288 9.3251 0 17.1646 3.1787 23.522 9.5359 1.2713 1.2715 1.9071 2.3304 1.9071 3.1786 0 .7085-.5666 1.6256-1.6946 2.7555L332.679 92.5821zM443.0724 160.8159h-28.8185c-1.5565 0-2.7553-.6358-3.6035-1.9073l-20.9774-33.0578-6.1465 6.3573v25.8523c0 1.8381-.8465 2.7555-2.5428 2.7555H357.251c-1.8381 0-2.7555-.9174-2.7555-2.7555V19.2645c0-1.8348.9174-2.7555 2.7555-2.7555h23.7327c1.6964 0 2.5428.9207 2.5428 2.7555V95.55l24.3702-27.972c.9864-1.2715 2.1887-1.9072 3.6019-1.9072h29.8792c1.1281 0 1.8328.4232 2.118 1.2714.2816.8482.14 1.5564-.4233 2.1197l-33.6935 35.8115 35.3884 52.3404c1.5528 2.4031.9862 3.6021-1.695 3.6021z"/>
  <g>
    <path d="M48.4319 190.6304h20.5286v5.6785H54.5798v10.4206h10.4206v5.5222H54.5798v16.9333h-6.1479v-38.5546zM68.7519 215.3777c0-10.2643 5.6806-14.3809 11.3069-14.3809 6.1998 0 10.4727 4.5337 10.4727 14.5372v1.6161H74.5889c.2606 5.2094 2.3961 7.7619 5.8349 7.7619 2.9176 0 4.5857-1.4056 6.3042-3.7516l3.7515 2.7109c-2.0834 3.3345-5.8349 5.8871-10.3164 5.8871-6.3563-.0001-11.4112-4.4295-11.4112-14.3807zm16.2576-2.3961c-.2606-4.5857-1.8248-7.0342-5.0027-7.0342-2.6048 0-4.8967 1.8748-5.3658 7.0342h10.3685zM92.3544 224.3907l3.6473-3.0739c2.0313 2.5024 4.8965 3.8558 7.6576 3.8558 2.8152 0 4.5337-.9906 4.5337-3.1258 0-5.9915-14.1724-3.0219-14.1724-13.1819 0-5.0009 4.1687-7.8681 9.4842-7.8681 3.906 0 7.5012 1.7726 9.743 4.69l-3.543 3.2303c-1.5118-1.7707-3.7517-3.2303-6.2522-3.2303-2.5024 0-3.8036 1.0426-3.8036 2.8654 0 5.9392 14.118 2.8652 14.118 13.1295 0 5.1593-4.688 8.0767-10.212 8.0767-5.0529-.0001-8.8046-2.1377-11.2006-5.3677zM119.5538 222.6201v-16.3076h-3.9601v-4.7421h3.9601v-9.6909h5.9391v9.6909h5.9914v4.7421h-5.9914v14.6915c0 2.8673.73 3.8558 3.4387 3.8558.8342 0 1.8749-.1564 2.3442-.3127v4.5857c-.5735.2084-2.5526.3648-4.0644.3648-5.887 0-7.6576-2.0312-7.6576-6.8775zM136.0681 191.4624h5.9912v5.5763h-5.9912v-5.5763zm0 10.108h5.9391v27.6146h-5.9391v-27.6146zM145.7608 201.5704h5.9914l3.7515 13.9636c.6255 2.4483 1.0948 4.2729 1.8226 7.5031h.1045c.6776-3.1779 1.1467-5.0027 1.7724-7.4509l3.7515-14.0158h5.5743l-8.231 27.7188h-6.3061l-8.2311-27.7188zM169.6759 222.4115c0-5.7827 5.2094-9.6387 15.161-11.5154v-1.1971c0-2.6048-.9906-3.5952-3.4388-3.5952-3.0739 0-5.8351 1.4577-7.816 3.178l-2.9697-3.6474c2.9176-2.7088 7.034-4.6378 11.5155-4.6378 5.8349 0 8.4918 2.9717 8.4918 8.7023v12.7124c0 3.3346.2085 5.3658.6777 6.7734h-5.8871c-.3127-1.0427-.5733-1.8748-.5733-3.4909-1.8749 2.3961-4.9488 3.8036-8.4919 3.8036-3.9079.0002-6.6692-2.5001-6.6692-7.0859zm15.161-.4692v-6.9819c-6.5128 1.4078-9.3782 3.5952-9.3782 6.4607 0 2.2939 1.2493 3.3866 3.2303 3.3866 2.5525 0 4.6358-1.2491 6.1479-2.8654zM196.663 190.6304h5.9392v38.5546h-5.9392v-38.5546zM218.597 215.3777c0-9.9515 4.1167-14.3809 9.5366-14.3809 3.178 0 5.2614 1.2512 7.034 3.4909v-13.8573h5.9391v31.7812c0 3.3346.1564 5.3658.6776 6.7734h-6.0975c-.3127-.8342-.5192-2.7091-.5192-3.5952-1.6163 2.0834-3.9082 4.0121-7.3991 4.0121-5.3676 0-9.1715-4.325-9.1715-14.2242zm16.5706 6.2518v-12.6082c-1.512-1.8749-3.3866-2.9697-5.42-2.9697-3.2303 0-5.1572 2.8132-5.1572 9.4823 0 6.4083 1.9269 9.2215 5.2094 9.2215 1.8769.0001 4.2729-1.8225 5.3678-3.1259zM245.6925 215.3777c0-10.2643 5.6784-14.3809 11.3049-14.3809 6.1998 0 10.4727 4.5337 10.4727 14.5372v1.6161h-15.9427c.2606 5.2094 2.3961 7.7619 5.8349 7.7619 2.9175 0 4.5856-1.4056 6.3041-3.7516l3.7516 2.7109c-2.0834 3.3345-5.8349 5.8871-10.3165 5.8871-6.3563-.0001-11.409-4.4295-11.409-14.3807zm16.2554-2.3961c-.2606-4.5857-1.8245-7.0342-5.0027-7.0342-2.6046 0-4.8966 1.8748-5.3657 7.0342h10.3684zM283.7256 190.6304h7.7639l8.231 30.0106h.1045l7.9722-30.0106h7.814v38.5546h-5.8349v-29.3331h-.1043c-.3649 2.5524-1.5098 6.8775-2.344 9.6385l-5.5742 19.6945h-4.6378l-5.5743-19.7466c-.7297-2.3961-1.8767-7.034-2.346-9.6907h-.1043v29.4373h-5.3658v-38.5545zM322.0216 221.9944v-20.424h5.9391v19.1749c0 2.7091.8863 3.9582 3.2824 3.9582 2.1897 0 4.273-1.5099 6.0455-3.2303v-19.9028h5.9391v27.6146h-5.9391v-3.5952c-1.8246 2.0834-4.7421 4.1686-8.4936 4.1686-4.2208-.0001-6.7734-2.6568-6.7734-7.764zM345.3112 239.4492v-4.4815c.3129.1042 1.199.1564 1.6684.1564 1.6661 0 2.4482-.9885 2.4482-3.0739v-30.4798h5.9391v31.0534c0 4.325-1.4056 7.0339-6.9819 7.0339-.78 0-2.7609-.1043-3.0738-.2085zm4.1166-47.9868h5.9912v5.5763h-5.9912v-5.5763zM360.3174 215.3777c0-10.2643 5.6785-14.3809 11.3049-14.3809 6.2 0 10.473 4.5337 10.473 14.5372v1.6161h-15.9428c.2607 5.2094 2.3962 7.7619 5.8349 7.7619 2.9174 0 4.5858-1.4056 6.304-3.7516l3.7515 2.7109c-2.0831 3.3345-5.8349 5.8871-10.3164 5.8871-6.356-.0001-11.4091-4.4295-11.4091-14.3807zm16.2558-2.3961c-.2608-4.5857-1.8247-7.0342-5.0029-7.0342-2.6046 0-4.8964 1.8748-5.3655 7.0342h10.3684zM386.7332 201.5704h5.9391v4.2728h.1043c1.2512-2.2397 4.0121-4.8464 8.233-4.8464h.5212l-.1563 5.4721c-.1564 0-.8861-.0521-1.3555-.0521-3.2824 0-5.8349 1.8746-7.3467 4.3772v18.391h-5.9391v-27.6146zM402.8865 215.3777c0-10.2643 5.6786-14.3809 11.3049-14.3809 6.1998 0 10.4727 4.5337 10.4727 14.5372v1.6161h-15.9427c.2606 5.2094 2.3961 7.7619 5.8349 7.7619 2.9174 0 4.5858-1.4056 6.304-3.7516l3.7517 2.7109c-2.0834 3.3345-5.8349 5.8871-10.3164 5.8871-6.3563-.0001-11.4091-4.4295-11.4091-14.3807zm16.2555-2.3961c-.2606-4.5857-1.8248-7.0342-5.0027-7.0342-2.6048 0-4.8967 1.8748-5.3658 7.0342h10.3685zM426.4887 224.3907l3.6473-3.0739c2.0313 2.5024 4.8967 3.8558 7.6576 3.8558 2.8154 0 4.5337-.9906 4.5337-3.1258 0-5.9915-14.1721-3.0219-14.1721-13.1819 0-5.0009 4.1685-7.8681 9.4842-7.8681 3.906 0 7.5012 1.7726 9.7427 4.69l-3.543 3.2303c-1.5118-1.7707-3.7515-3.2303-6.252-3.2303-2.5024 0-3.8036 1.0426-3.8036 2.8654 0 5.9392 14.118 2.8652 14.118 13.1295 0 5.1593-4.688 8.0767-10.2122 8.0767-5.0527-.0001-8.8045-2.1377-11.2006-5.3677zM46.5552 267.4628c0-9.9515 4.1165-14.3809 9.5364-14.3809 3.1782 0 5.2613 1.2512 7.034 3.4909v-13.8573h5.9392v31.7813c0 3.3346.1563 5.3657.6778 6.7733H63.645c-.313-.8341-.5194-2.7088-.5194-3.5952-1.6161 2.0834-3.908 4.0122-7.3991 4.0122-5.3676 0-9.1713-4.3249-9.1713-14.2243zm16.5704 6.2518v-12.6082c-1.5118-1.8746-3.3867-2.9695-5.42-2.9695-3.2303 0-5.157 2.8131-5.157 9.4821 0 6.4085 1.9267 9.2216 5.2092 9.2216 1.8769.0001 4.2729-1.8224 5.3678-3.126zM73.6484 267.4628c0-10.2642 5.6805-14.3809 11.3069-14.3809 6.1999 0 10.4727 4.5337 10.4727 14.5372v1.6161H79.4853c.2606 5.2094 2.3962 7.7619 5.8349 7.7619 2.9176 0 4.5858-1.4055 6.3042-3.7515l3.7515 2.7108c-2.0833 3.3346-5.8349 5.8873-10.3164 5.8873-6.3561 0-11.4111-4.4295-11.4111-14.3809zm16.2575-2.3961c-.2606-4.5857-1.8245-7.034-5.0027-7.034-2.6046 0-4.8964 1.8746-5.3657 7.034h10.3684zM100.3247 242.7155h5.9391v38.5546h-5.9391v-38.5546zM124.1357 242.7155h11.2025c7.0842 0 12.6604 3.1781 12.6604 11.8785 0 9.3258-6.0955 12.191-12.8689 12.191h-4.9505v14.4851h-6.0434v-38.5546zm11.2024 18.756c4.6359 0 6.7734-1.8748 6.7734-6.7212 0-4.6378-2.1375-6.4085-6.8255-6.4085h-5.107v13.1297h5.1591zM151.9066 261.9928c0-13.3903 6.4082-20.0071 14.6414-20.0071 8.1809 0 14.5892 6.6167 14.5892 20.0071 0 13.3903-6.4083 20.0072-14.5892 20.0072-8.2331 0-14.6414-6.6169-14.6414-20.0072zm23.0289 0c0-9.3779-3.0739-14.3285-8.3874-14.3285-5.3657 0-8.4918 4.9506-8.4918 14.3285 0 9.378 3.126 14.4309 8.4918 14.4309 5.3134 0 8.3874-5.053 8.3874-14.4309zM186.7636 242.7155h11.2027c7.084 0 12.6604 3.1781 12.6604 11.8785 0 9.3258-6.0955 12.191-12.8688 12.191h-4.9506v14.4851h-6.0436v-38.5546zm11.2027 18.756c4.6359 0 6.7734-1.8748 6.7734-6.7212 0-4.6378-2.1375-6.4085-6.8255-6.4085h-5.107v13.1297h5.1591z"/>
  </g>
</svg>
